<?xml version="1.0" encoding="utf-8"?>
<!-- Generator: Adobe Illustrator 18.0.0, SVG Export Plug-In . SVG Version: 6.00 Build 0)  -->
<!DOCTYPE svg PUBLIC "-//W3C//DTD SVG 1.1//EN" "http://www.w3.org/Graphics/SVG/1.1/DTD/svg11.dtd">
<svg version="1.1" id="Layer_1" xmlns="http://www.w3.org/2000/svg" xmlns:xlink="http://www.w3.org/1999/xlink" x="0px" y="0px"
	 viewBox="0 0 900 900" enable-background="new 0 0 900 900" xml:space="preserve">
<rect fill="#EBECEC" width="900" height="900"/>
<g>
	<g>
		<g>
			<path fill="#273642" d="M317.5,122.5c-46.9,0-85.3,38.3-85.3,85.7s38.2,85.7,85.3,85.7s85.3-38.3,85.3-85.7
				S364.4,122.5,317.5,122.5z M361.2,252.7c2,1.8,4.4,3.5,7.1,5.1c1.8,0.9,4,0.7,5.1-0.7c0.9-0.9,1.3-2.2,1.1-3.3
				c-0.2-1.3-0.9-2.2-2-2.9c-2.2-1.3-4-2.6-5.3-3.5c-3.3-2.6-5.5-6.6-5.9-10.8c2.2,2.2,4.4,4,7.1,5.9c1.5,1.1,4,0.9,5.1-0.2
				c0.9-0.9,1.3-2,1.3-3.3s-0.7-2.4-1.8-3.1c-3.3-2.2-6.2-4.8-8.6-7.9c-1.5-1.8-2.4-4-2.9-6.6c1.8,2,3.5,3.7,5.3,4.8
				c1.5,1.1,3.7,1.1,5.3-0.2c0.9-0.9,1.3-2.2,1.1-3.3c-0.2-1.3-0.9-2.4-1.8-2.9c-5.1-3.3-9.3-12.1-10.4-15c-0.4-1.1-1.5-2.4-4-2.6
				c-1.8,0-3.3,1.1-3.7,2.6c-3.3,9.3-8.6,13.9-10.1,15c-0.9,0.7-1.5,1.5-1.8,2.6c-0.2,1.1,0,2.2,0.7,2.9c1.3,1.8,3.5,2.4,5.5,1.3
				c0.2-0.2,2.6-1.8,5.5-5.1c-0.4,2.4-1.3,4.6-2.9,6.4c-2.4,3.1-5.3,5.7-8.4,7.7c-1.8,1.1-2.9,3.3-1.8,5.3c0.7,1.5,2.2,2.4,3.7,2.4
				c0.7,0,1.3,0,2.2-0.4c2.6-1.5,4.8-3.5,7.3-5.7c-0.4,4-2.4,7.5-5.5,9.9c-1.3,1.1-3.1,2.4-5.3,4c-1.8,1.1-2.6,3.3-1.8,5.3
				c0.7,1.5,2.2,2.4,3.7,2.4c0.9,0,1.5-0.2,2.2-0.7c2.4-1.5,4.8-3.3,7.1-5.1v24.9c0,0.2,0,0.4,0,0.4c-9.9,5.1-20.7,7.9-31.7,8.6
				v-22.9c2.4,2.2,5.5,4.2,9,6.2c0.7,0.4,1.3,0.4,2,0.4c1.8,0,3.1-0.9,3.7-2.6c0.9-2-0.2-4.2-2.2-5.3c-2.9-1.5-5.5-3.3-7.5-5.1
				c-2.9-2.4-4.6-5.9-5.1-9.7c2.4,2.2,5.5,4.2,9,5.9c0.7,0.4,1.3,0.4,2,0.4c1.8,0,3.1-0.9,3.7-2.6c0.9-2-0.2-4.2-2.2-5.3
				c-2.4-1.1-4.4-2.6-6.4-4.2c-3.3-2.6-5.5-6.6-5.9-11c2.4,2.4,5.5,4.8,8.8,7.1c1.5,1.1,3.7,0.9,5.1-0.4c0.9-0.9,1.3-2.2,1.1-3.3
				c-0.2-1.3-0.9-2.4-1.8-3.1c-3.5-2.4-6.8-4.8-9.3-7.7c-2.2-2.4-3.7-5.7-4.2-9.3c2.6,2.9,5.7,5.3,9,7.5c2.4,1.5,4.8,0.2,5.7-1.8
				c0.9-1.8,0.2-4.2-1.8-5.3c-6.2-4-9.9-8.8-11.7-12.1c-0.7-1.1-1.1-2.2-1.3-3.3c1.3,1.8,2.9,3.1,4.2,4.2c1.5,1.1,4,0.9,5.3-0.2
				c0.9-0.9,1.3-2.2,1.3-3.3c-0.2-1.1-0.7-2.2-1.8-3.1c-5.5-3.7-8.6-14.5-9.3-19.2c-0.2-2.2-2.2-3.7-4.4-3.3c-2,0.2-3.5,2-3.5,4.2
				c-0.4,11.5-7.3,17-9.5,18.5c-2,1.3-2.4,3.7-1.3,5.5c0.9,1.3,2.2,2,3.5,2c0.4,0,1.3,0,2-0.4c0,0,2.4-1.3,5.1-4.4
				c-0.2,1.1-0.7,2.4-1.3,3.5c-1.5,2.6-4.8,7.5-11,11.2c-2,1.1-2.6,3.3-2,5.1c0.9,2.2,3.7,3.3,5.7,2.2c3.1-1.8,5.9-4,8.6-6.8
				c-0.4,3.3-1.8,6.4-4,9c-1.8,2-4.8,5.1-9.3,7.7c-2,1.1-2.9,3.3-2,5.3c0.7,1.5,2,2.4,3.7,2.4c0.7,0,1.3-0.2,2-0.4
				c3.5-2,6.6-4.4,9.5-7.3c-0.4,4-2.4,7.9-5.5,10.6c-1.5,1.3-3.5,2.9-6.2,4.4c-1.8,1.1-2.6,3.1-2,5.1c0.7,1.5,2.2,2.6,3.7,2.6
				c0.7,0,1.3-0.2,2-0.4c2.9-1.5,5.5-3.5,7.9-5.7c-0.4,3.7-2.2,7.1-4.8,9.7c-1.8,1.8-4.2,3.3-6.8,5.1c-2,1.1-2.6,3.3-2,5.1
				c0.9,2.2,3.7,3.3,5.7,2.2c3.1-1.8,5.7-3.5,7.9-5.7v22.7c-10.8-0.4-20.9-3.1-30.4-7.7c-0.2-0.9-0.2-1.3-0.2-1.8v-24.7
				c1.8,1.5,4,3.1,6.4,4.4c1.5,0.9,3.7,0.7,5.1-0.7c0.9-0.9,1.3-2.2,1.1-3.3c-0.2-1.3-0.9-2.2-2-3.1c-2.2-1.3-4.2-2.6-5.7-4
				c-2.9-2.4-4.6-5.9-4.8-9.7c2,2,4,3.5,6.4,5.1c1.5,1.1,4,0.9,5.1-0.2c0.9-0.9,1.3-2,1.3-3.3c0-1.3-0.7-2.4-1.8-3.1
				c-3.1-2.2-5.9-4.6-8.4-7.7c-1.1-1.5-2-3.1-2.4-4.8c1.3,1.5,2.9,3.1,4.6,4.2c1.5,1.1,4,0.9,5.3-0.2c0.9-0.9,1.3-2.2,1.1-3.3
				c-0.2-1.3-0.9-2.4-1.8-3.1c-4.6-2.9-8.6-10.8-9.7-14.1c-0.7-1.5-2.2-2.6-3.7-2.6h-0.2c-1.8,0-3.3,1.1-3.7,2.6
				c-3.1,8.6-8.2,13-9.7,14.1c-0.9,0.7-1.5,1.5-1.8,2.6c-0.2,1.1,0,2.2,0.7,2.9c1.3,1.8,3.5,2.4,5.5,1.3c0.2-0.2,2.2-1.5,4.8-4.4
				c-0.4,1.8-1.1,3.3-2.2,4.8c-2.2,3.1-5.1,5.7-8.2,7.5c-1.8,1.1-2.6,3.3-1.8,5.3c0.7,1.5,2.2,2.4,3.7,2.4c0.7,0,1.3,0,2.2-0.7
				c2.4-1.5,4.6-3.1,6.4-5.1c-0.4,3.3-2,6.2-4.4,8.4c-1.5,1.5-3.5,3.1-5.7,4.4c-0.9,0.7-1.8,1.5-2,2.6s0,2.2,0.7,3.3
				c0.9,1.1,2,1.8,3.3,1.8c0.9,0,1.5-0.2,2.2-0.7c2.4-1.5,4.4-3.1,6.4-4.6v21.6c-22.7-14.5-36.1-39.2-36.1-66.1
				c0-43.4,35.3-78.7,78.7-78.7s78.7,35.3,78.7,78.7c-0.4,26.2-13.7,50.5-35,65v-20.3H361.2z"/>
			<g>
				<path fill="#273642" d="M261.4,191.7c-0.9,0-1.8,0.4-2.4,1.1c-0.4,0.7-0.9,1.3-0.9,2.2c0,1.5,1.1,3.3,3.3,3.3
					c0.9,0,1.8-0.4,2.4-1.1c0.4-0.7,0.9-1.3,0.9-2.2C264.7,193.2,263.6,191.7,261.4,191.7z"/>
				<path fill="#273642" d="M380.4,193.9c-0.9,0-1.8,0.4-2.4,1.1c-0.4,0.7-0.9,1.3-0.9,2.2c0,1.5,1.1,3.3,3.3,3.3
					c0.9,0,1.8-0.4,2.4-1.1c0.4-0.7,0.9-1.3,0.9-2.2C383.7,195.4,382.6,193.9,380.4,193.9z"/>
				<path fill="#273642" d="M344.2,181.1c-0.9,0-1.8,0.4-2.4,1.1c-0.4,0.7-0.9,1.3-0.9,2.2c0,1.5,1.1,3.3,3.3,3.3
					c0.9,0,1.8-0.4,2.4-1.1c0.4-0.7,0.9-1.3,0.9-2.2C347.3,182.9,346.2,181.1,344.2,181.1z"/>
				<path fill="#273642" d="M315.6,144.3c-0.9,0-1.8,0.4-2.4,1.1c-0.4,0.7-0.9,1.3-0.9,2.2c0,1.5,1.1,3.3,3.3,3.3
					c0.9,0,1.8-0.4,2.4-1.1c0.4-0.7,0.9-1.3,0.9-2.2C318.7,146.1,317.6,144.3,315.6,144.3z"/>
				<path fill="#273642" d="M355.9,158c-0.9,0-1.8,0.4-2.4,1.1c-0.4,0.7-0.9,1.3-0.9,2.2c0,1.5,1.1,3.3,3.3,3.3
					c0.9,0,1.8-0.4,2.4-1.1c0.4-0.7,0.9-1.3,0.9-2.2C359,159.7,357.9,158,355.9,158z"/>
			</g>
			<path fill="#273642" d="M285.6,156.9c-7.5,0-13.7,6.2-13.7,13.7s6.2,13.7,13.7,13.7s13.7-6.2,13.7-13.7
				C299.3,163,293.3,156.9,285.6,156.9z M285.6,178.9c-4.6,0-8.4-3.7-8.4-8.4s3.7-8.4,8.4-8.4s8.4,3.7,8.4,8.4
				S290.2,178.9,285.6,178.9z"/>
		</g>
		<g>
			<path fill="#273642" d="M581.8,121.7c-47.3,0-86,38.5-86,86s38.5,86,86,86c47.5,0,86-38.5,86-86S629.1,121.7,581.8,121.7z
				 M660.7,207.7c0,43.3-35.4,78.7-78.7,78.7c-15,0-29-4.2-40.9-11.5l-1.3-0.9c-22.8-14.6-36.3-39.3-36.3-66.3
				c0-43.5,35.4-78.9,78.9-78.9c1.3,0,2.4,0,3.5,0C627.5,131.3,660.7,165.7,660.7,207.7z"/>
			<g>
				<path fill="#273642" d="M601.9,205.8h-13c-4.9,0-8.8,4-8.8,8.8v0.2h-24.3c-4.6,0-8.4,3.8-8.4,8.4c0,0.9,0.2,2,0.4,2.9h-0.2
					c-4.6,0-8.2,3.8-8.2,8.2s3.8,8.2,8.2,8.2h1.3c-0.2,0.9-0.4,1.8-0.4,2.9c0,4.6,3.8,8.4,8.4,8.4h3.3c-0.2,0.9-0.4,1.8-0.4,2.7
					c0,4.4,3.8,8.2,8.2,8.2h34c16.1,0,29.4-13,29.4-29.4S618,205.8,601.9,205.8z M601.9,258.8h-34c-1.5,0-2.7-1.1-2.7-2.7
					s1.1-2.7,2.7-2.7h0.2h12.4c1.5,0,2.7-1.3,2.7-2.7c0-1.3-1.3-2.7-2.7-2.7h-12.4h-0.2h-11.1c-1.5,0-2.9-1.3-2.9-2.9
					c0-1.5,1.3-2.9,2.9-2.9h12.4h8.8c1.5,0,2.7-1.3,2.7-2.7c0-1.3-1.3-2.7-2.7-2.7h-8.8h-12.4h-9.1c-1.5,0-2.7-1.1-2.7-2.7
					s1.3-2.7,2.7-2.7h8h13.5h10.2c1.5,0,2.7-1.3,2.7-2.7c0-1.3-1.3-2.7-2.7-2.7h-10.2h-13.5c-1.5,0-2.9-1.3-2.9-2.9
					c0-1.5,1.3-2.9,2.9-2.9h26.5c1.5,2,4,3.1,6.6,3.1h8.8v11.9c0,1.5,1.3,2.7,2.7,2.7s2.7-1.3,2.7-2.7v-14.6c0-1.5-1.3-2.7-2.7-2.7
					h-11.5c-1.8,0-3.3-1.5-3.3-3.3c0-1.8,1.5-3.3,3.3-3.3h13c13,0,23.9,10.6,23.9,23.9C625.5,248.2,614.9,258.8,601.9,258.8z"/>
				<path fill="#273642" d="M593,231.8c0.7-1.3,0.2-2.9-0.9-3.5c-1.3-0.7-2.9-0.2-3.5,0.9c-0.2,0.4-5.7,10.4,0.2,21.4
					c0.4,0.9,1.3,1.3,2.2,1.3c0.4,0,0.9,0,1.1-0.2c1.3-0.7,1.8-2.2,1.1-3.5C588.6,240,592.8,232.3,593,231.8z"/>
				<path fill="#273642" d="M563.6,208c14.1,0,25.9-11.5,25.9-25.9c0-13.9-11.7-25.6-25.9-25.6c-14.1,0-25.9,11.5-25.9,25.9
					C538,196.5,549.5,208,563.6,208z M563.6,162c11.1,0,20.3,9.1,20.3,20.3s-9.1,20.3-20.3,20.3c-11.3,0-20.3-9.1-20.3-20.3
					S552.6,162,563.6,162z"/>
				<path fill="#273642" d="M563.6,198.9c9.1,0,16.6-7.4,16.6-16.6c0-9.1-7.4-16.6-16.6-16.6c-9.1,0-16.6,7.4-16.6,16.6
					C547.1,191.5,554.5,198.9,563.6,198.9z M563.6,169.4c7.1,0,13,5.8,13,13c0,7.1-5.8,13-13,13s-13-5.8-13-13
					C550.7,175.2,556.5,169.4,563.6,169.4z"/>
				<path fill="#273642" d="M562.4,183.5v3.6H561c-0.6,0-1.2,0.6-1.2,1.2c0,0.6,0.6,1.2,1.2,1.2h1.4v1.2c0,0.6,0.6,1.2,1.2,1.2
					c0.6,0,1.2-0.6,1.2-1.2v-1.2c2-0.2,3.6-2,3.6-4c0-2-1.6-3.8-3.6-4v-3.8h1c0.6,0,1.2-0.6,1.2-1.2c0-0.6-0.6-1.2-1.2-1.2h-1v-1.2
					c0-0.6-0.6-1.2-1.2-1.2c-0.6,0-1.2,0.6-1.2,1.2v1.2c-2,0.4-3.6,2-3.6,4.2S560.5,183.3,562.4,183.5z M566,185.3
					c0,0.8-0.6,1.4-1.2,1.6v-3.2C565.4,183.9,566,184.5,566,185.3z M562.4,177.8v3.4c-0.6-0.2-1.2-1-1.2-1.8
					C561.2,178.6,561.8,178,562.4,177.8z"/>
			</g>
		</g>
	</g>
	<g>
		<g>
			<path fill="#273642" d="M317.5,361.5c-47.8,0-86.6,38.8-86.6,86.6c0,47.8,38.8,86.6,86.6,86.6c47.8,0,86.6-38.8,86.6-86.6
				C404.1,400.3,365.3,361.5,317.5,361.5z M317.5,527.2c-43.6,0-79.1-35.5-79.1-79.1c0-43.6,35.5-79.1,79.1-79.1
				c43.6,0,79.1,35.5,79.1,79.1C396.6,491.7,361.1,527.2,317.5,527.2z"/>
			<path fill="#273642" d="M317.3,467.3c11.7,0,21.2-9.5,21.2-21.2c0-10-15-36.7-18-42c-0.6-1.2-1.9-1.9-3.3-1.9
				c-1.3,0-2.5,0.7-3.3,1.9c-0.2,0.3-18,31.1-18,42C296,457.8,305.6,467.3,317.3,467.3z M317.3,459.8c-7.6,0-13.7-6.1-13.7-13.7
				c0-5.2,7-20,13.7-32.3c6.7,12.4,13.7,27.1,13.7,32.3C331,453.7,324.9,459.8,317.3,459.8z"/>
			<path fill="#273642" d="M317.3,481.6c17.7,0,30.5-5.9,30.5-14c0-2-0.8-5-4.7-7.9c-0.6-0.4-1.4-0.7-2.1-0.7c-1.2,0-2.4,0.6-3,1.5
				c-0.7,0.8-0.9,1.9-0.7,2.9c0.2,0.7,0.5,1.8,1.5,2.3c1.1,0.9,1.6,1.6,1.6,1.8c0,1.3-7.1,6.5-22.9,6.5c-15.8,0-22.9-5-22.9-6.5
				c0-0.3,0.4-0.9,1.6-1.8c0.8-0.6,1.3-1.4,1.5-2.4c0.2-1-0.1-2-0.6-2.8c-0.7-1-1.8-1.6-3.1-1.6c-0.8,0-1.5,0.2-2.1,0.7
				c-4.2,2.9-4.8,6.2-4.8,7.9c-0.1,2.3,0.9,4.4,2.7,6.3C294.5,478.7,304.8,481.6,317.3,481.6z"/>
			<path fill="#273642" d="M353.3,456.2c-0.5-0.2-1.1-0.4-1.7-0.4c-1.4,0-2.8,0.9-3.4,2.2c-0.4,0.9-0.5,2-0.1,2.9
				c0.3,1,1,1.7,1.9,2.1c5.2,2.6,8.3,5.8,8.3,8.6c0,7.9-19.6,15-41.1,15s-41.1-7.2-41.1-15c0-2.8,3.1-6,8.5-8.8
				c1.8-0.9,2.6-3.2,1.8-5c-0.6-1.4-1.9-2.3-3.4-2.3c-0.6,0-1.2,0.1-1.6,0.4c-8.3,4.1-12.8,9.5-12.8,15.6
				c0,12.9,20.9,22.7,48.5,22.7c27.7,0,48.5-9.7,48.5-22.7C365.8,465.7,361.4,460.2,353.3,456.2z"/>
			<path fill="#273642" d="M316.9,450c-1.1,0-2.2-0.3-2.7-0.9c-1.2-1.3-1.2-3.7-1.1-4.1c0.1-0.9-0.2-1.8-0.8-2.6
				c-0.7-0.7-1.5-1.1-2.3-1.1c0,0,0,0,0,0c-1.9-0.1-3.5,1.2-3.8,3.2l0,0.2c-0.1,4.8,1.5,7.6,2.9,9.1c2,2.1,4.6,3.2,7.8,3.2
				c1.9,0,3.4-1.6,3.4-3.4C320.2,451.7,318.6,450,316.9,450z"/>
		</g>
		<path fill="#273642" d="M581.8,360.5c-48,0-87.1,39.1-87.1,87.1c0,48,39.1,87.1,87.1,87.1s87.1-39.1,87.1-87.1
			C668.9,399.5,629.8,360.5,581.8,360.5z M609.5,512.1c-3.9-50,2.4-57.6,3.7-58.6c0,0,0.1-0.1,0.1-0.1c0.6,0.2,1.1,0.3,1.6,0.2
			c0.4,0.1,0.5,0.2,0.5,0.2h0l0.1,0.1c1.2,0.6,2.6,0.5,3.7-0.2c1.1-0.8,1.7-2,1.7-3.1v-29.5c0-1.1-0.5-2.1-1.2-2.7
			c-0.7-0.7-1.6-1-2.8-1c0,0,0,0,0,0c-2.3,0.2-4.6,0.3-6.8,0.4v-6.2c0-2.1-1.6-3.7-3.7-3.7H590c-2.1,0-3.7,1.6-3.7,3.7v6.9
			c-34.7-0.1-43.5-5.9-44.5-6.7c-0.6-0.9-1.6-1.4-2.7-1.4c-0.3,0-0.5,0-0.8,0.1c-1.5,0.3-2.6,1.4-2.8,2.8
			c-11.9,41.3,8.7,61.7,8.9,61.8c0.7,0.7,1.6,1.1,2.7,1.1c0.8,0,1.4-0.2,2-0.6l0,0c1-0.7,16.3-10.2,30.6-17.3
			c0.9-0.4,1.6-0.6,2.2-0.6c0.7,0,0.9,0.2,0.9,0.3l0.1,0.1c1.3,0.9,5.6,6.1,4.3,32.3c-0.4,8.9-1.4,17.1-2.1,21.7h-0.3
			c-2.1,0-3.7,1.6-3.7,3.7v11.4c-43.6-0.4-79-36-79-79.7c0-43.9,35.7-79.7,79.7-79.7s79.7,35.7,79.7,79.7c0,31.8-19.5,61-48.6,73.4
			v-5.1C612.8,513.9,611.4,512.4,609.5,512.1z M554.8,463.3c-2.5,1.5-4.7,2.8-6.4,3.9c-0.3,0.2-0.6,0.4-0.9,0.5
			c-2.4-3.4-4.3-7.1-5.6-11c-2.5-7.3-4.7-19.5-0.8-36.5c1.4,0.6,3.1,1.3,5.1,1.8c1,0.3,2.1,0.6,3.3,0.9
			C547.8,428.1,543.7,444.7,554.8,463.3z M593.7,418.5v-3h9v2.8c-1.5,0-3,0.1-4.5,0.1C596.7,418.4,595.2,418.5,593.7,418.5z
			 M576.7,451.6c-0.2,0-0.3,0.1-0.4,0.2c-0.1,0-0.2,0.1-0.3,0.1c-0.1,0.1-0.2,0.1-0.4,0.2l-0.1,0.1c-5.2,2.6-10.4,5.5-14.1,7.5
			c-4.6-7.7-6.8-15.9-6.4-24.5c0.1-2.7,0.6-6.7,2.1-10.9c0,0,0-0.1,0-0.1c8.2,1.2,18.4,1.9,30.2,1.9c7.4,0,16-0.3,26.2-0.8v20.3
			c-2.3-0.5-5.5-1-9.4-1C595.4,444.6,586.2,447,576.7,451.6z M605.3,452c-4.5,9.1-5.7,29.3-3.4,60.1h-9.2
			c2.4-17.9,4.8-47.4-3.1-57.8c5-1.5,9.8-2.3,14.4-2.3C604.5,452,604.9,452,605.3,452z"/>
	</g>
	<g>
		<g>
			<path fill="#273642" d="M317.5,596.4c-47.4,0-86.2,38.8-86.2,86.2c0,47.4,38.8,86.2,86.2,86.2s86.2-38.8,86.2-86.2
				C403.7,635.2,364.9,596.4,317.5,596.4z M396.6,682.6c0,43.4-35.4,78.9-78.9,78.9c-15.1,0-29-4.2-41-11.5l-1.3-0.9
				c-22.8-14.4-36.3-39.2-36.3-66.2c0-43.6,35.4-79.1,78.9-79.1c1.3,0,2.4,0,3.5,0C363.4,606,396.6,640.5,396.6,682.6z"/>
			<g>
				<path fill="#273642" d="M335.4,676.1c-0.2-0.1-0.4-0.2-0.7-0.2h-35.1c-1.5,0-2.8,1.4-2.8,2.8s1.4,2.8,2.8,2.8h34.9
					c1.5,0,2.8-1.4,2.8-2.8C337.4,677.7,336.7,676.8,335.4,676.1z"/>
				<path fill="#273642" d="M335.4,664.6c-0.2-0.1-0.4-0.2-0.7-0.2h-35.1c-1.5,0-2.8,1.4-2.8,2.8c0,1.5,1.4,2.8,2.8,2.8h34.9
					c1.5,0,2.8-1.4,2.8-2.8C337.4,666.2,336.7,665.2,335.4,664.6z"/>
				<path fill="#273642" d="M335.4,653.6c-0.2-0.1-0.4-0.2-0.7-0.2h-35.1c-1.5,0-2.8,1.4-2.8,2.8c0,1.5,1.4,2.8,2.8,2.8h34.9
					c1.5,0,2.8-1.4,2.8-2.8C337.4,655.2,336.7,654.3,335.4,653.6z"/>
				<path fill="#273642" d="M351,674.1v-31c0-4-3.1-7-7-7h-52.3c-4,0-7,3.1-7,7v30.5c-3.2,0.7-5.5,3.5-5.5,6.9v41.2c0,4,3.1,7,7,7
					h62.7c4,0,7-3.1,7-7v-41C355.9,677.8,353.9,675.1,351,674.1z M285,723.2l-0.4-0.4c0-0.1,0-0.5,0-0.7V683l0.2,0.1l0.1,0.1
					c0.1,0.1,0.1,0.1,0.2,0.2l2.7,1.8l23.5,15l4.7,3.1c0.5,0.3,1.2,0.3,1.7,0l0.6-0.4l4.2-2.6l25.3-15.5c0,0,0,0,0,0l2.5-1.7v39
					c0,0.7-0.7,1.4-1.4,1.4h-62.9C285.6,723.4,285.3,723.3,285,723.2z M345.1,679.5l-28.4,17.7l-26.6-17.4v-36.6
					c0-0.7,0.7-1.4,1.4-1.4h52.3c0.7,0,1.4,0.7,1.4,1.4V679.5z"/>
			</g>
		</g>
		<g>
			<path fill="#273642" d="M617.8,678.8c-7.4,0-15.2,1.5-23.1,4.5c0.2-1,0.3-2,0.3-3c0-3.3-1.3-7.4-3.5-10.7c1.4-2.4,2.3-5.1,2.3-7
				c0-3.1-2.3-5.9-5.9-7.5c0.8-5.2,5.4-9.2,10.7-9.2c0.6,0,1-0.4,1-1v-3.9c0-0.6-0.4-1-1-1c-8.2,0-15.2,5.9-16.6,13.9
				c-0.8,0-1.5,0-2.2,0c-1.3-8-8.3-14-16.6-14c-0.6,0-1,0.4-1,1v3.9c0,0.6,0.4,1,1,1c5.4,0,10,4,10.7,9.3c-3.5,1.6-5.6,4.3-5.6,7.4
				c0,2.2,1.2,4.9,2.3,7c-2.2,3.4-3.5,7.4-3.5,10.8c0,0.9,0.1,1.7,0.2,2.4c-4.8-1.7-12.7-3.9-21.7-3.9c-3.7,0-6.8,0.1-9.5,0.4
				c0,0-0.2,0-0.2,0c-6.9,0.6-22.9,2.8-22.9,10.3c0,7.9,17.5,10.7,32.5,10.7c7.3,0,13.7-1.4,18.3-2.8c-1.9,4.6-1.9,10.4-1.8,17v4.1
				c0,17,8.3,30.3,18.8,30.3s18.8-13.3,18.8-30.3c0-1.7,0-3.4,0.1-5.1c0-0.7,0-1.3,0-1.9c0-1.3,0-2.5,0-3.8v-2.1
				c0-0.7-0.1-1.4-0.2-2.3c0-0.2,0-0.4-0.1-0.6c0-0.1,0-0.3,0-0.5c0-0.4-0.1-0.8-0.2-1.2c0-0.1,0-0.2-0.1-0.3c0-0.1,0-0.2-0.1-0.3
				c0-0.1-0.1-0.3-0.1-0.4c0-0.3-0.1-0.6-0.2-0.7c0-0.2-0.1-0.4-0.2-0.6c0-0.2-0.1-0.4-0.2-0.5c0-0.1,0-0.2-0.1-0.3
				c0-0.1-0.1-0.2-0.1-0.3c0-0.1-0.1-0.2-0.1-0.3c0,0,0,0,0-0.1c6.7,2.1,13.3,3.2,19.5,3.2c12.1,0,32.5-2.2,32.5-10.6
				c0.1-6.9-12.3-9.6-22.8-10.6C624.6,678.9,621.4,678.8,617.8,678.8z M644.2,689.5c-1,0.9-5.6,3-14.9,4.1l-6.3-4.2l5.7-4.1
				C638.6,686.4,643.3,688.6,644.2,689.5z M587.9,662.6c0,0.3-0.2,1.3-0.7,2.4c-2-1.4-4-2.1-6.2-2.1c0,0,0,0,0,0
				c-2.1-0.1-4.1,0.6-6,2c-0.5-1.2-0.7-2.1-0.7-2.3c0-0.9,2.6-2.8,6.8-2.8C585.3,659.7,587.9,661.6,587.9,662.6z M568.3,714.3
				c-0.1-7.5-0.2-14,3-17.2c1.4-1.5,3.8-2.4,7-2.7v48.1c-5.7-2.5-10-12.6-10-23.8v-4.2C568.3,714.4,568.3,714.3,568.3,714.3z
				 M573,680.3c0-3.6,2.3-8.2,5-10.3v17.7c-0.2-0.1-0.3-0.1-0.5-0.2c0,0-0.1,0-0.2,0l-0.7-0.4c0,0-0.1-0.1-0.1-0.1
				C574.3,685.4,573,682.9,573,680.3z M584.1,687.7V670c2.7,2.1,5,6.6,5,10.3C589.1,683.5,587.1,686.4,584.1,687.7z M584.2,694.3
				c0.1,0,0.2,0,0.4,0c0.2,0,0.4,0,0.6,0.1c0,0,0.2,0,0.2,0c0,0,0.1,0,0.2,0c0.2,0,0.4,0.1,0.6,0.1c0.1,0,0.3,0.1,0.5,0.1h0.1
				c0.1,0,0.2,0.1,0.3,0.1c0.1,0,0.2,0.1,0.4,0.1c0.1,0,0.1,0.1,0.2,0.1c0.3,0.1,0.6,0.2,0.9,0.3c0.1,0.1,0.2,0.1,0.4,0.1
				c0.1,0.1,0.2,0.1,0.3,0.2c0.1,0.1,0.1,0.1,0.2,0.2c0,0,0.1,0,0.1,0.1c0.1,0,0.1,0.1,0.3,0.1c0.1,0.1,0.3,0.2,0.4,0.2
				c0.1,0.1,0.2,0.1,0.3,0.2c0,0,0.1,0.1,0.2,0.2c0,0,0.1,0.1,0.2,0.2c0,0.1,0.1,0.2,0.2,0.2c3.3,3.3,3.2,9.2,3.1,16l0,0.6
				c0,0.8,0,1.6,0,2.5c0,0.9,0,1.8,0,2.7c0,11-4.2,20.9-9.8,23.7V694.3z M613.8,690.4l5.6,3.8c-0.5,0-1.1,0-1.6,0
				c-8.8,0-16.8-2.4-22.6-4.7c5.8-2.3,13.8-4.7,22.6-4.7c0.5,0,1,0,1.5,0l-5.5,4c-0.3,0.2-0.4,0.5-0.4,0.8S613.5,690.2,613.8,690.4z
				 M549.7,690.3c0.3-0.2,0.4-0.5,0.4-0.8c0-0.3-0.1-0.6-0.4-0.8l-5.5-4c0.5,0,1,0,1.5,0c8.8,0,16.9,2.4,22.6,4.7
				c-5.1,2.1-13.3,4.8-22.6,4.8c-0.6,0-1.2,0-1.7,0L549.7,690.3z M540.4,689.4l-6.3,4.2c-9.4-1.1-14-3.3-14.9-4.1
				c1-0.9,5.7-3.1,15.5-4.2L540.4,689.4z"/>
			<path fill="#273642" d="M581.8,603.6c-48.2,0-87.3,39.2-87.3,87.3c0,48.2,39.2,87.3,87.3,87.3c48.2,0,87.3-39.2,87.3-87.3
				C669.1,642.8,629.9,603.6,581.8,603.6z M661.6,690.9c0,44-35.8,79.8-79.8,79.8S502,734.9,502,690.9s35.8-79.8,79.8-79.8
				c21.3,0,41.4,8.3,56.5,23.5C653.3,649.7,661.6,669.7,661.6,690.9z"/>
		</g>
	</g>
</g>
</svg>
