<?xml version="1.0" encoding="utf-8"?>
<!-- Generator: Adobe Illustrator 18.0.0, SVG Export Plug-In . SVG Version: 6.00 Build 0)  -->
<!DOCTYPE svg PUBLIC "-//W3C//DTD SVG 1.1//EN" "http://www.w3.org/Graphics/SVG/1.1/DTD/svg11.dtd">
<svg version="1.1" id="Layer_1" xmlns="http://www.w3.org/2000/svg" xmlns:xlink="http://www.w3.org/1999/xlink" x="0px" y="0px"
	 viewBox="0 0 576 576" enable-background="new 0 0 576 576" xml:space="preserve">
<rect x="0.2" y="-0.5" fill="#EAEAE9" width="575.5" height="576.9"/>
<g>
	<path fill="#273642" d="M406.9,305.5c-0.7-0.7-0.7-0.7-1.3-1.3c0,0-0.7,0-0.7-0.7c-0.7-0.7-1.3-0.7-2.1-0.7H285.5
		c-2.1,0-3.4,0.7-4.8,2.7l-40.9,73.7h-15v-23.8c2.7,2.1,5.5,4,8.9,6.1c2.1,1.3,4.8,0.7,6.8-0.7c1.3-1.3,1.3-2.7,1.3-4
		c0-1.3-1.3-2.7-2.7-4c-2.7-2.1-5.5-3.4-7.5-5.5c-4-3.4-6.8-8.2-6.8-14.3c2.7,2.7,5.5,5.5,8.9,7.5c2.1,1.3,4.8,1.3,6.8-0.7
		c1.3-1.3,2.1-2.7,1.3-4c0-1.3-0.7-3.4-2.1-4c-4-2.7-8.2-6.1-11.6-10.3c-2.1-2.1-2.7-4.8-3.4-7.5c2.1,2.7,4,4.8,6.8,6.1
		c2.1,1.3,5.5,1.3,6.8-0.7c1.3-1.3,2.1-2.7,1.3-4c0-1.3-1.3-2.7-2.7-4c-6.1-4-11.6-15-13.7-19.1c-0.7-2.1-2.7-3.4-4.8-3.4
		c-2.1,0-4,1.3-4.8,3.4c-4,11.6-10.9,17.7-13,19.1c-1.3,0.7-2.1,2.1-2.1,3.4c0,1.3,0,2.7,0.7,4c1.3,2.1,4.8,3.4,6.8,1.3
		c0.7,0,3.4-2.1,6.8-6.8c-0.7,2.7-1.3,5.5-3.4,7.5c-3.4,4-6.8,7.5-10.9,10.3c-2.1,1.3-3.4,4-2.1,6.8c0.7,2.1,2.7,3.4,4.8,3.4
		c1.3,0,2.1,0,2.7-0.7c3.4-2.1,6.8-4.8,9.5-7.5c-0.7,4.8-2.7,8.9-6.1,12.2c-2.1,2.1-4.8,4-8.2,6.1c-1.3,0.7-2.1,2.1-2.7,3.4
		c-0.7,1.3,0,2.7,0.7,4c1.3,1.3,2.7,2.1,4,2.1c1.3,0,2.1,0,2.7-0.7c3.4-2.1,6.1-4,8.9-6.8v24.7H175v-33.4c2.7,2.1,5.5,4,8.9,6.1
		c2.1,1.3,4.8,0.7,6.8-0.7c1.3-1.3,1.3-2.7,1.3-4c0-1.3-1.3-2.7-2.7-4c-2.7-2.1-5.5-3.4-7.5-5.5c-4-3.4-6.8-8.2-6.8-14.3
		c2.7,2.7,5.5,5.5,8.9,7.5c2.1,1.3,4.8,1.3,6.8-0.7c1.3-1.3,2.1-2.7,1.3-4c0-1.3-0.7-3.4-2.1-4c-4-2.7-8.2-6.1-11.6-10.3
		c-2.1-2.1-2.7-4.8-3.4-7.5c2.1,2.7,4,4.8,6.8,6.1c2.1,1.3,5.5,1.3,6.8-0.7c1.3-1.3,2.1-2.7,1.3-4c0-1.3-1.3-2.7-2.7-4
		c-6.1-4-11.6-15-13.7-19.1c-0.7-2.1-2.7-3.4-4.8-3.4s-4,1.3-4.8,3.4c-4,11.6-10.9,17.7-13,19.1c-1.3,0.7-2.1,2.1-2.1,3.4
		c0,1.3,0,2.7,0.7,4c1.3,2.1,4.8,3.4,6.8,1.3c0.7,0,3.4-2.1,6.8-6.8c-0.7,2.7-1.3,5.5-3.4,7.5c-3.4,4-6.8,7.5-10.9,10.3
		c-2.1,1.3-3.4,4-2.1,6.8c0.7,2.1,2.7,3.4,4.8,3.4c1.3,0,2.1,0,2.7-0.7c3.4-2.1,6.8-4.8,9.5-7.5c-0.7,4.8-2.7,8.9-6.1,12.2
		c-2.1,2.1-4.8,4-8.2,6.1c-1.3,0.7-2.1,2.1-2.7,3.4c-0.7,1.3,0,2.7,0.7,4c1.3,1.3,2.7,2.1,4,2.1c1.3,0,2.1,0,2.7-0.7
		c3.4-2.1,6.1-4,8.9-6.8v36.1l-0.7,0.1h-10.3c-2.7,0-5.5,2.1-5.5,5.5s2.1,5.5,5.5,5.5h292c2.1,0,3.4-0.7,4-2.7
		c0.7-1.3,0.7-3.4,0-4.8L406.9,305.5z M297.7,378.5l15.7-30.1c1.3-2.7,0-5.5-2.1-6.8c-2.7-1.3-5.5,0-6.8,2.1L286,378.5h-8.9
		l9.5-17.7c1.3-2.7,0.7-5.5-2.1-6.8c-2.7-1.3-5.5-0.7-6.8,2.1l-12.2,22.5h-13.7L288,313h105.7l-36.2,65.5H297.7z M397.4,378.5h-28
		l28-51.2V378.5z M407.6,378.5v-51.2l28,51.2H407.6z"/>
	<path fill="#273642" d="M267.1,277.5c6.1,0,11.6-1.3,16.4-4c2.7-2.1,5.5-4,7.5-7.5c0.7-1.3,1.3-3.4,0-4.8c-0.7-1.3-2.1-2.7-4-2.7
		h-0.7c-6.1,0-14.3-2.7-17.7-8.9c-4.8-7.5-1.3-17.7,0-20.4c0.7-1.3,0.7-3.4-0.7-4.8c-1.3-1.3-2.7-2.1-4.8-1.3
		c-3.4,0.7-6.8,2.1-9.5,4c-13,8.2-16.4,25.2-8.2,38.2C250,272.8,258.1,276.8,267.1,277.5z M256.8,235.9c-0.7,6.8,0,13.7,3.4,19.1
		c3.4,5.5,8.9,9.5,15.7,11.6c-8.2,4-18.5,1.3-23.2-6.1C248,252.3,250,242,256.8,235.9z"/>
	<path fill="#273642" d="M397.4,237.2c5.5,2.1,6.8,5.5,6.8,6.1c0,1.3,1.3,2.1,2.1,2.1c1.3,0,2.1-0.7,2.7-1.3
		c1.3-3.4,5.5-5.5,6.8-6.1c0.7-0.7,1.3-1.3,1.3-2.7c0-1.3-0.7-2.1-1.3-2.1c-4-1.3-6.8-6.8-6.8-6.8c-0.7-0.7-1.3-1.3-2.7-1.3
		c-1.3,0-2.1,0.7-2.1,2.1c-1.3,5.5-6.1,6.1-6.1,6.1c-1.3,0-2.1,1.3-2.1,2.1C395.3,235.3,396,236.6,397.4,237.2z M406.9,231.8
		c0.7,0.7,1.3,2.1,2.7,2.7c-0.7,0.7-2.1,1.3-2.7,2.7c-0.7-0.7-1.3-2.1-2.7-2.7C404.8,233.9,405.5,233.2,406.9,231.8z"/>
	<path fill="#273642" d="M308,220.8c5.5,2.1,6.8,5.5,6.8,6.1c0,1.3,1.3,2.1,2.1,2.1c1.3,0,2.1-0.7,2.7-1.3c1.3-3.4,5.5-5.5,6.8-6.1
		c0.7-0.7,1.3-1.3,1.3-2.7s-0.7-2.1-1.3-2.1c-4-1.3-6.8-6.8-6.8-6.8c-0.7-0.7-1.3-1.3-2.7-1.3s-2.1,0.7-2.1,2.1
		c-1.3,5.5-6.1,6.1-6.1,6.1c-1.3,0-2.1,1.3-2.1,2.1C305.9,219.5,306.7,220.2,308,220.8z M317.5,215.5c0.7,0.7,2.1,2.1,2.7,2.7
		c-0.7,0.7-2.1,2.1-2.7,2.7c-0.7-0.7-1.3-2.1-2.7-2.7C315.5,217.5,316.8,216.8,317.5,215.5z"/>
	<path fill="#273642" d="M456.6,308.8c-4-1.3-6.8-6.8-6.8-6.8c-0.7-0.7-1.3-1.3-2.7-1.3c-1.3,0-2.1,0.7-2.1,2.1
		c-1.3,5.5-6.1,6.1-6.1,6.1c-1.3,0-2.1,1.3-2.1,2.1c0,1.3,0.7,2.1,1.3,2.7c5.5,2.1,6.8,5.5,6.8,6.1c0,1.3,1.3,2.1,2.1,2.1
		c1.3,0,2.1-0.7,2.7-1.3c1.3-3.4,5.5-5.5,6.8-6.1c0.7-0.7,1.3-1.3,1.3-2.7C458.7,310.3,458.1,308.8,456.6,308.8z M447.8,313.6
		c-0.7-0.7-1.3-2.1-2.7-2.7c1.3-0.7,2.1-2.1,2.7-2.7c0.7,0.7,2.1,2.1,2.7,2.7C449.9,311.6,449.2,313,447.8,313.6z"/>
	<path fill="#273642" d="M339.4,272c5.5,2.1,6.8,5.5,6.8,6.1c0,1.3,1.3,2.1,2.1,2.1c1.3,0,2.1-0.7,2.7-1.3c1.3-3.4,5.5-5.5,6.8-6.1
		c0.7-0.7,1.3-1.3,1.3-2.7c0-1.3-0.7-2.1-1.3-2.1c-4-1.3-6.8-6.8-6.8-6.8c-0.7-0.7-1.3-1.3-2.7-1.3c-1.3,0-2.1,0.7-2.1,2.1
		c-1.3,5.5-6.1,6.1-6.1,6.1c-1.3,0-2.1,1.3-2.1,2.1C337.3,270.7,338,271.3,339.4,272z M348.9,266.6c0.7,0.7,1.3,2.1,2.7,2.7
		c-0.7,0.7-2.1,1.3-2.7,2.7c-0.7-0.7-1.3-2.1-2.7-2.7C346.9,268.6,347.6,268,348.9,266.6z"/>
	<path fill="#273642" d="M192,243.4c0,1.3,1.3,2.1,2.1,2.1c1.3,0,2.1-0.7,2.7-1.3c1.3-3.4,5.5-5.5,6.8-6.1c0.7-0.7,1.3-1.3,1.3-2.7
		s0-2.7-1.3-2.7c-4-1.3-6.8-6.8-6.8-6.8c-0.7-0.7-1.3-1.3-2.7-1.3c-1.3,0-2.1,0.7-2.1,2.1c-1.3,5.5-6.1,6.1-6.1,6.1
		c-1.3,0-2.1,1.3-2.1,2.1c0,1.3,0.7,2.1,1.3,2.7C190.7,239.3,192,242.7,192,243.4z M194.7,231.8c1.3,0.7,2.1,2.1,3.4,2.7
		c-0.7,0.7-2.1,1.3-2.7,2.7c-0.7-0.7-1.3-2.1-2.7-2.7C193.4,233.9,194.1,233.2,194.7,231.8z"/>
	<path fill="#273642" d="M135.4,378.5h-12.2c-2.7,0-5.5,2.1-5.5,5.5s2.1,5.5,5.5,5.5h12.2c2.7,0,5.5-2.1,5.5-5.5
		C140.9,380.5,138.1,378.5,135.4,378.5z"/>
</g>
</svg>
