<?xml version="1.0" encoding="utf-8"?>
<!-- Generator: Adobe Illustrator 18.0.0, SVG Export Plug-In . SVG Version: 6.00 Build 0)  -->
<!DOCTYPE svg PUBLIC "-//W3C//DTD SVG 1.1//EN" "http://www.w3.org/Graphics/SVG/1.1/DTD/svg11.dtd">
<svg version="1.1" id="Layer_1" xmlns="http://www.w3.org/2000/svg" xmlns:xlink="http://www.w3.org/1999/xlink" x="0px" y="0px"
	 viewBox="0 0 576 576" enable-background="new 0 0 576 576" xml:space="preserve">
<g>
	<rect fill="#6ABFB2" width="576" height="576"/>
	<g>
		<path fill="#ECE0CD" d="M371.5,223.6l-0.2-0.2c-5.8-3.2-13.1-0.9-16.4,4.9l-16.5,30.7c-0.5,0.9-1.4,0.5-1.4,0.3
			c-0.5-0.6-0.5-1.7-0.5-1.7v-4.1v-9.3v-4.1v-89.7c0-5.8-4.7-10.7-10.4-10.7H326c-5.6,0-10.4,4.9-10.4,10.7v89.7l0,0v5.8
			c0,1.9-1.5,3.5-3.5,3.5l0,0c-1.9,0-3.5-1.5-3.5-3.5v-5.8l0,0V124.7c0-6.2-4.7-11-10.4-11h-0.3c-5.6,0-10.4,4.9-10.4,11v108.8l0,0
			V246c0,1.9-1.5,3.5-3.5,3.5h-0.1c-1.9,0-3.5-1.5-3.5-3.5v-5.8l0,0V134.4c0-6.2-4.7-11-10.4-11h-0.3c-5.6,0-10.4,4.9-10.4,11v105.9
			l0,0v5.8c0,1.9-1.5,3.5-3.5,3.5l0,0c-1.9,0-3.5-1.5-3.5-3.5v-5.8l0,0V234v-0.5l0,0v-68.8c0-6.2-4.7-11.2-10.4-11.2h-0.3
			c-5.6,0-10.4,4.9-10.4,11.2v75.6l0,0v167l105.7-1.9v-68.8c0,0,5.3-4.6,8.8-24.1c0,0,4.1-22.6,14.4-41.6l0,0l16.7-31.1
			C379.3,234,377.1,226.6,371.5,223.6z"/>
		<path opacity="0.29" fill="#FFFFFF" enable-background="new    " d="M295.9,114.1c-4.7,0.9-8.5,5.3-8.5,10.6v108.8l0,0V246
			c0,1.9-1.5,3.5-3.5,3.5h-0.2c-1.9,0-3.5-1.5-3.5-3.5v-5.8l0,0V134.6c0-6.2-4.7-11-10.4-11h-0.3c-5.6,0-10.4,4.9-10.4,11v105.9l0,0
			v5.8c0,1.9-1.5,3.5-3.5,3.5l0,0c-1.9,0-3.5-1.5-3.5-3.5v-5.8l0,0v-6.3v-0.5l0,0v-68.8c0-6.2-4.7-11.2-10.4-11.2h-0.3
			c-5.6,0-10.4,4.9-10.4,11.2v75.6l0,0v165.3l64.9,2.7V114.1L295.9,114.1z"/>
		<ellipse fill="#D1C8B9" cx="284.1" cy="405.4" rx="52.9" ry="22.1"/>
		<ellipse fill="#B51F2E" cx="283.6" cy="405.4" rx="28.2" ry="11.8"/>
		<rect x="230.7" y="336.6" fill="#102639" width="106.4" height="14.8"/>
		<circle fill="#D1C8B9" cx="285.8" cy="343.8" r="17.7"/>
		<path fill="#102639" d="M271.4,346.4c0-9.9,8-17.7,17.7-17.7c3.3,0,6.7,0.9,9.4,2.7c-3.2-3.3-7.6-5.4-12.7-5.4
			c-9.9,0-18.4,8-18.4,17.7c0,6.6,3.5,12.4,8.8,15.7C273.2,355.9,271.4,351.1,271.4,346.4z"/>
		<path fill="#09374D" d="M285.6,322.4c-12,0-21.6,9.7-21.6,21.6c0,12,9.7,21.6,21.6,21.6c12,0,21.6-9.7,21.6-21.6
			C307.4,332.1,297.5,322.4,285.6,322.4z M285.6,361.5c-9.7,0-17.5-7.9-17.5-17.6s7.9-17.6,17.5-17.6c9.7,0,17.5,7.9,17.5,17.6
			C303.1,353.6,295.4,361.5,285.6,361.5z"/>
		<path fill="#09374D" d="M285.4,348.3c0,0.5-0.5,0.9-0.9,0.9l0,0c-0.5,0-0.9-0.5-0.9-0.9v-12.4c0-0.5,0.5-0.9,0.9-0.9l0,0
			c0.5,0,0.9,0.5,0.9,0.9V348.3z"/>
		<path fill="#09374D" d="M284.5,349.2c-0.5,0-0.9-0.5-0.9-0.9l0,0c0-0.5,0.5-0.9,0.9-0.9h12.4c0.5,0,0.9,0.5,0.9,0.9l0,0
			c0,0.5-0.5,0.9-0.9,0.9H284.5z"/>
		<path opacity="0.12" fill="#FFFFFF" enable-background="new    " d="M295.5,384.4c-3.9-0.3-7.8-0.5-11.9-0.5
			c-29,0-52.4,9.9-52.4,21.9c0,12.1,23.5,21.9,52.4,21.9c4.2,0,8-0.2,11.9-0.5V384.4z"/>
		<ellipse opacity="0.88" fill="#67B7A9" enable-background="new    " cx="283.6" cy="467.8" rx="79.7" ry="8.2"/>
	</g>
</g>
</svg>
