<?xml version="1.0" encoding="utf-8"?>
<!-- Generator: Adobe Illustrator 18.0.0, SVG Export Plug-In . SVG Version: 6.00 Build 0)  -->
<!DOCTYPE svg PUBLIC "-//W3C//DTD SVG 1.1//EN" "http://www.w3.org/Graphics/SVG/1.1/DTD/svg11.dtd">
<svg version="1.1" id="Layer_1" xmlns="http://www.w3.org/2000/svg" xmlns:xlink="http://www.w3.org/1999/xlink" x="0px" y="0px"
	 viewBox="90 0 612 612" enable-background="new 90 0 612 612" xml:space="preserve">
<rect x="90" fill="#6ABFB2" width="612" height="612"/>
<g>
	<path fill="#ECE0CD" d="M503.4,209.7l-0.2-0.2c-7.5-4.1-16.9-1.2-21.2,6.3l-21.4,39.8c-0.6,1.2-1.8,0.6-1.8,0.4
		c-0.6-0.8-0.6-2.2-0.6-2.2v-5.3v-12v-5.3V115.1c0-7.5-6.1-13.9-13.5-13.9h-0.2c-7.3,0-13.5,6.3-13.5,13.9v116.1l0,0v7.5
		c0,2.4-2,4.5-4.5,4.5l0,0c-2.4,0-4.5-2-4.5-4.5v-7.5l0,0V81.6c0-8-6.1-14.3-13.5-14.3h-0.4c-7.3,0-13.5,6.3-13.5,14.3v140.8l0,0
		v16.3c0,2.4-2,4.5-4.5,4.5H390c-2.4,0-4.5-2-4.5-4.5v-7.5l0,0V94.2c0-8-6.1-14.3-13.5-14.3h-0.4c-7.3,0-13.5,6.3-13.5,14.3v137.1
		l0,0v7.5c0,2.4-2,4.5-4.5,4.5l0,0c-2.4,0-4.5-2-4.5-4.5v-7.5l0,0v-8.2v-0.6l0,0v-89.1c0-8-6.1-14.5-13.5-14.5h-0.4
		c-7.3,0-13.5,6.3-13.5,14.5v97.9l0,0v216.2l136.9-2.4V356c0,0,6.9-5.9,11.4-31.2c0,0,5.3-29.2,18.6-53.9l0,0l21.6-40.2
		C513.6,223.2,510.7,213.6,503.4,209.7z"/>
	<path opacity="0.29" fill="#FFFFFF" enable-background="new    " d="M405.6,67.9c-6.1,1.2-11,6.9-11,13.7v140.8l0,0v16.3
		c0,2.4-2,4.5-4.5,4.5h-0.2c-2.4,0-4.5-2-4.5-4.5v-7.5l0,0V94.5c0-8-6.1-14.3-13.5-14.3h-0.4c-7.3,0-13.5,6.3-13.5,14.3v137.1l0,0
		v7.5c0,2.4-2,4.5-4.5,4.5l0,0c-2.4,0-4.5-2-4.5-4.5v-7.5l0,0v-8.2v-0.6l0,0v-89.1c0-8-6.1-14.5-13.5-14.5h-0.4
		c-7.3,0-13.5,6.3-13.5,14.5v97.9l0,0v214l84,3.5V67.9H405.6z"/>
	<ellipse fill="#D1C8B9" cx="390.3" cy="445.1" rx="68.5" ry="28.6"/>
	<ellipse fill="#B51F2E" cx="389.6" cy="445.1" rx="36.5" ry="15.3"/>
	<rect x="321.2" y="356" fill="#102639" width="137.7" height="19.2"/>
	<circle fill="#D1C8B9" cx="392.5" cy="365.3" r="22.9"/>
	<path fill="#102639" d="M373.9,368.6c0-12.8,10.3-22.9,22.9-22.9c4.3,0,8.7,1.2,12.2,3.5c-4.1-4.3-9.9-7-16.5-7
		c-12.8,0-23.8,10.3-23.8,22.9c0,8.5,4.5,16.1,11.4,20.3C376.2,381,373.9,374.8,373.9,368.6z"/>
	<path fill="#09374D" d="M392.2,337.6c-15.5,0-27.9,12.6-27.9,27.9c0,15.5,12.6,27.9,27.9,27.9c15.5,0,27.9-12.6,27.9-27.9
		C420.4,350.1,407.7,337.6,392.2,337.6z M392.2,388.2c-12.6,0-22.6-10.2-22.6-22.8c0-12.6,10.2-22.8,22.6-22.8
		c12.6,0,22.6,10.2,22.6,22.8C414.9,378,404.9,388.2,392.2,388.2z"/>
	<path fill="#09374D" d="M392,371.1c0,0.6-0.6,1.2-1.2,1.2l0,0c-0.6,0-1.2-0.6-1.2-1.2V355c0-0.6,0.6-1.2,1.2-1.2l0,0
		c0.6,0,1.2,0.6,1.2,1.2V371.1z"/>
	<path fill="#09374D" d="M390.8,372.3c-0.6,0-1.2-0.6-1.2-1.2l0,0c0-0.6,0.6-1.2,1.2-1.2h16.1c0.6,0,1.2,0.6,1.2,1.2l0,0
		c0,0.6-0.6,1.2-1.2,1.2H390.8z"/>
	<path opacity="0.12" fill="#FFFFFF" enable-background="new    " d="M405.1,417.8c-5.1-0.4-10.1-0.6-15.4-0.6
		c-37.5,0-67.9,12.8-67.9,28.4s30.4,28.4,67.9,28.4c5.5,0,10.3-0.2,15.4-0.6V417.8z"/>
	<ellipse opacity="0.88" fill="#67B7A9" cx="389.6" cy="530" rx="103.2" ry="14.7"/>
</g>
</svg>
