<?xml version="1.0" encoding="utf-8"?>
<!-- Generator: Adobe Illustrator 18.0.0, SVG Export Plug-In . SVG Version: 6.00 Build 0)  -->
<!DOCTYPE svg PUBLIC "-//W3C//DTD SVG 1.1//EN" "http://www.w3.org/Graphics/SVG/1.1/DTD/svg11.dtd">
<svg version="1.1" id="Layer_1" xmlns="http://www.w3.org/2000/svg" xmlns:xlink="http://www.w3.org/1999/xlink" x="0px" y="0px"
	 viewBox="0 0 300 300" enable-background="new 0 0 300 300" xml:space="preserve">
<rect fill="#6ABFB2" width="300" height="300"/>
<g>
	<path fill="#ECE0CD" d="M205.8,102.8l-0.1-0.1c-3.7-2-8.3-0.6-10.4,3.1l-10.5,19.5c-0.3,0.6-0.9,0.3-0.9,0.2
		c-0.3-0.4-0.3-1.1-0.3-1.1v-2.6v-5.9v-2.6V56.4c0-3.7-3-6.8-6.6-6.8h-0.1c-3.6,0-6.6,3.1-6.6,6.8v56.9l0,0v3.7c0,1.2-1,2.2-2.2,2.2
		l0,0c-1.2,0-2.2-1-2.2-2.2v-3.7l0,0V40c0-3.9-3-7-6.6-7h-0.2c-3.6,0-6.6,3.1-6.6,7v69l0,0v8c0,1.2-1,2.2-2.2,2.2h-0.1
		c-1.2,0-2.2-1-2.2-2.2v-3.7l0,0V46.2c0-3.9-3-7-6.6-7h-0.2c-3.6,0-6.6,3.1-6.6,7v67.2l0,0v3.7c0,1.2-1,2.2-2.2,2.2l0,0
		c-1.2,0-2.2-1-2.2-2.2v-3.7l0,0v-4v-0.3l0,0V65.4c0-3.9-3-7.1-6.6-7.1h-0.2c-3.6,0-6.6,3.1-6.6,7.1v48l0,0V220h67.1v-45.5
		c0,0,3.4-2.9,5.6-15.3c0,0,2.6-14.3,9.1-26.4l0,0l10.6-19.7C210.8,109.4,209.4,104.7,205.8,102.8z"/>
	<path opacity="0.29" fill="#FFFFFF" enable-background="new    " d="M157.6,33.2c-3,0.6-5.4,3.4-5.4,6.7v69l0,0v8
		c0,1.2-1,2.2-2.2,2.2h-0.1c-1.2,0-2.2-1-2.2-2.2v-3.7l0,0V46.2c0-3.9-3-7-6.6-7h-0.2c-3.6,0-6.6,3.1-6.6,7v67.2l0,0v3.7
		c0,1.2-1,2.2-2.2,2.2l0,0c-1.2,0-2.2-1-2.2-2.2v-3.7l0,0v-4v-0.3l0,0V65.4c0-3.9-3-7.1-6.6-7.1h-0.2c-3.6,0-6.6,3.1-6.6,7.1v48l0,0
		V220h41.2V33.2H157.6z"/>
	<ellipse fill="#D1C8B9" cx="150" cy="218.2" rx="33.5" ry="14"/>
	<ellipse fill="#B51F2E" cx="150" cy="218.2" rx="17.9" ry="7.5"/>
	<rect x="116.5" y="174.5" fill="#102639" width="67.1" height="9.4"/>
	<circle fill="#D1C8B9" cx="151.3" cy="179.2" r="11.1"/>
	<path fill="#102639" d="M142.3,180.8c0-6.2,5-11.1,11.1-11.1c2.1,0,4.2,0.6,5.9,1.7c-2-2.1-4.8-3.4-8-3.4c-6.2,0-11.5,5-11.5,11.1
		c0,4.1,2.2,7.8,5.5,9.8C143.4,186.8,142.3,183.8,142.3,180.8z"/>
	<path fill="#09374D" d="M151.3,165.5c-7.6,0-13.7,6.2-13.7,13.7c0,7.6,6.2,13.7,13.7,13.7c7.6,0,13.7-6.2,13.7-13.7
		C165.1,171.6,158.9,165.5,151.3,165.5z M151.3,190.3c-6.2,0-11.1-5-11.1-11.2s5-11.2,11.1-11.2c6.2,0,11.1,5,11.1,11.2
		C162.4,185.3,157.5,190.3,151.3,190.3z"/>
	<path fill="#09374D" d="M151.3,181.9c0,0.3-0.3,0.6-0.6,0.6l0,0c-0.3,0-0.6-0.3-0.6-0.6v-7.9c0-0.3,0.3-0.6,0.6-0.6l0,0
		c0.3,0,0.6,0.3,0.6,0.6V181.9z"/>
	<path fill="#09374D" d="M150.6,182.5c-0.3,0-0.6-0.3-0.6-0.6l0,0c0-0.3,0.3-0.6,0.6-0.6h7.9c0.3,0,0.6,0.3,0.6,0.6l0,0
		c0,0.3-0.3,0.6-0.6,0.6H150.6z"/>
	<path opacity="0.12" fill="#FFFFFF" enable-background="new    " d="M157.6,204.7c-2.5-0.2-5-0.3-7.6-0.3c-18.5,0-33.5,6.3-33.5,14
		c0,7.7,15,14,33.5,14c2.7,0,5.1-0.1,7.6-0.3V204.7z"/>
	<ellipse opacity="0.69" fill="#61AEA0" enable-background="new    " cx="150" cy="259.8" rx="50.6" ry="7.2"/>
</g>
</svg>
