<?xml version="1.0" encoding="utf-8"?>
<!-- Generator: Adobe Illustrator 18.0.0, SVG Export Plug-In . SVG Version: 6.00 Build 0)  -->
<!DOCTYPE svg PUBLIC "-//W3C//DTD SVG 1.1//EN" "http://www.w3.org/Graphics/SVG/1.1/DTD/svg11.dtd">
<svg version="1.1" id="Layer_1" xmlns="http://www.w3.org/2000/svg" xmlns:xlink="http://www.w3.org/1999/xlink" x="0px" y="0px"
	 viewBox="0 0 507.1 501.5" enable-background="new 0 0 507.1 501.5" xml:space="preserve">
<circle fill="#38373E" cx="252.6" cy="249.5" r="248.5"/>
<path opacity="0.73" fill="#2B2B2D" d="M150.2,376.3h212V117.6c0-2.5-2-4.5-4.5-4.5h-212v258.8C145.7,374.3,147.7,376.3,150.2,376.3
	z"/>
<path fill="#DEDDDD" d="M139.4,365.5h212V106.7c0-2.5-2-4.5-4.5-4.5h-212V361C134.9,363.5,136.9,365.5,139.4,365.5z"/>
<path fill="#FFFFFF" d="M335.8,131.2v221.2H121.7c-3.3,0-6-2.7-6-6V93.8c0-3.3,2.7-6,6-6h164.9"/>
<path fill="#CCCCCC" d="M302.9,102.2l32.8,28.9v123.7h4.9V131.1c0-1.5-0.7-2.9-1.8-3.9l-29.5-25L302.9,102.2z"/>
<polygon opacity="0.45" fill="#EFEFEF" points="286.6,87.9 225.7,87.9 225.7,352.3 335.8,352.3 335.8,131.2 "/>
<g>
	<g>
		<path fill="#D17F80" d="M151.4,160.8c-12.6,0-22.8-10.2-22.8-22.8s10.2-22.8,22.8-22.8c12.6,0,22.8,10.2,22.8,22.8
			S163.9,160.8,151.4,160.8z M151.4,117.2c-11.5,0-20.8,9.3-20.8,20.8s9.3,20.8,20.8,20.8s20.8-9.3,20.8-20.8
			S162.8,117.2,151.4,117.2z"/>
	</g>
	<path fill="#DEDDDD" d="M283.3,191.1H168.2c-1.3,0-2.4-1.1-2.4-2.4l0,0c0-1.3,1.1-2.4,2.4-2.4h115.1c1.3,0,2.4,1.1,2.4,2.4l0,0
		C285.7,190.1,284.6,191.1,283.3,191.1z"/>
	<path fill="#DEDDDD" d="M283.3,206.5H168.2c-1.3,0-2.4-1.1-2.4-2.4v0c0-1.3,1.1-2.4,2.4-2.4h115.1c1.3,0,2.4,1.1,2.4,2.4v0
		C285.7,205.5,284.6,206.5,283.3,206.5z"/>
	<path fill="#DEDDDD" d="M283.3,221.9H168.2c-1.3,0-2.4-1.1-2.4-2.4l0,0c0-1.3,1.1-2.4,2.4-2.4h115.1c1.3,0,2.4,1.1,2.4,2.4l0,0
		C285.7,220.8,284.6,221.9,283.3,221.9z"/>
	<path fill="#DEDDDD" d="M283.3,237.3H168.2c-1.3,0-2.4-1.1-2.4-2.4l0,0c0-1.3,1.1-2.4,2.4-2.4h115.1c1.3,0,2.4,1.1,2.4,2.4l0,0
		C285.7,236.2,284.6,237.3,283.3,237.3z"/>
	<path fill="#DEDDDD" d="M283.3,252.7H168.2c-1.3,0-2.4-1.1-2.4-2.4v0c0-1.3,1.1-2.4,2.4-2.4h115.1c1.3,0,2.4,1.1,2.4,2.4v0
		C285.7,251.6,284.6,252.7,283.3,252.7z"/>
	<path fill="#DEDDDD" d="M283.3,268.1H168.2c-1.3,0-2.4-1.1-2.4-2.4l0,0c0-1.3,1.1-2.4,2.4-2.4h115.1c1.3,0,2.4,1.1,2.4,2.4l0,0
		C285.7,267,284.6,268.1,283.3,268.1z"/>
	<path fill="#DEDDDD" d="M283.3,283.5H168.2c-1.3,0-2.4-1.1-2.4-2.4v0c0-1.3,1.1-2.4,2.4-2.4h115.1c1.3,0,2.4,1.1,2.4,2.4v0
		C285.7,282.4,284.6,283.5,283.3,283.5z"/>
	<rect x="134.9" y="352.4" fill="#CCCCCC" width="191.3" height="3.9"/>
</g>
<path fill="#43AE9B" d="M387.7,411.6h-16.9c-2.4,0-4.3-1.9-4.3-4.3s1.9-4.3,4.3-4.3h6.4h0.1c2.4,0,4.3-1.9,4.3-4.3
	c0-2.4-1.9-4.3-4.3-4.3h-73.5c-2.4,0-4.3,1.9-4.3,4.3c0,2.4,1.9,4.3,4.3,4.3h24.3h11.8h8.2c2.4,0,4.3,1.9,4.3,4.3s-1.9,4.3-4.3,4.3
	h-8.2v0c-2.3,0.1-4.1,2-4.1,4.3c0,2.4,1.9,4.3,4.3,4.3h47.5c2.4,0,4.3-1.9,4.3-4.3C391.9,413.5,390,411.6,387.7,411.6z"/>
<path fill="#43AE9B" d="M166.7,140.2h-6.2c-0.9,0-1.6-0.7-1.6-1.6s0.7-1.6,1.6-1.6h2.4h0c0.9,0,1.6-0.7,1.6-1.6
	c0-0.9-0.7-1.6-1.6-1.6H136c-0.9,0-1.6,0.7-1.6,1.6c0,0.9,0.7,1.6,1.6,1.6h8.9h4.3h3c0.9,0,1.6,0.7,1.6,1.6s-0.7,1.6-1.6,1.6h-3v0
	c-0.8,0-1.5,0.7-1.5,1.6c0,0.9,0.7,1.6,1.6,1.6h17.4c0.9,0,1.6-0.7,1.6-1.6C168.3,140.9,167.6,140.2,166.7,140.2z"/>
<g>
	<rect x="327" y="281.6" fill="#C59245" width="36.3" height="62.9"/>
	<rect x="327" y="280.1" fill="#C59245" width="36.3" height="62.9"/>
	<rect x="345.2" y="280.1" opacity="0.52" fill="#AD7E3D" width="18.1" height="62.9"/>
	<g opacity="0.92">
		<defs>
			<rect id="SVGID_1_" x="327" y="281.6" opacity="0.92" width="36.3" height="62.9"/>
		</defs>
		<clipPath id="SVGID_2_">
			<use xlink:href="#SVGID_1_"  overflow="visible"/>
		</clipPath>
		<g clip-path="url(#SVGID_2_)">
			<path fill="#AD7E3D" d="M350.7,339.9c-0.7,0.2-2.5,0.6-2.3,1.8c0.3,2,7.6,3.4,9.7,3.4c0.1,0,0.2,0,0.3,0c0.4,0,0.6-0.4,0.6-0.7
				c0-0.4-0.4-0.6-0.7-0.6c-1.7,0.2-7.5-1.3-8.5-2.2c0.2-0.1,0.5-0.2,1.2-0.4c5.7-1.3,11.6,2.8,11.6,2.9c0.3,0.2,0.7,0.1,0.9-0.2
				c0.2-0.3,0.1-0.7-0.2-0.9C363.1,342.8,357,338.5,350.7,339.9z"/>
			<path fill="#AD7E3D" d="M341.1,311.9c-0.4-0.2-10.4-4.5-15-1.7c-0.3,0.2-0.4,0.6-0.2,0.9c0.2,0.3,0.6,0.4,0.9,0.2
				c4.1-2.5,13.7,1.7,13.8,1.8c0.1,0,0.2,0.1,0.3,0.1c0.3,0,0.5-0.1,0.6-0.4C341.5,312.4,341.4,312,341.1,311.9z"/>
			<path fill="#AD7E3D" d="M354.3,310.6c-4,2-6.7,0.6-6.8,0.6c-0.3-0.2-0.7-0.1-0.9,0.3c-0.2,0.3-0.1,0.7,0.3,0.9
				c0.1,0,1.2,0.7,3.1,0.7c1.3,0,2.9-0.3,4.8-1.2c0.3-0.2,0.5-0.6,0.3-0.9C355,310.5,354.6,310.4,354.3,310.6z"/>
			<path fill="#AD7E3D" d="M352.4,279.6c-1.3,0.2-12.8,1.9-13.8,6.1c-0.3,1.3,0.1,2.4,1.3,2.8c0.4,0.2,0.9,0.3,1.5,0.3
				c2.3,0,5.4-1.4,6.4-3.1c0.5-0.7,0.5-1.3,0.1-1.7c-0.2-0.2-0.9-1-5,1.1c-0.3,0.2-0.4,0.6-0.3,0.9c0.2,0.3,0.6,0.5,0.9,0.3
				c1.2-0.6,2.5-1.1,3.2-1.3c0,0,0,0,0,0.1c-0.9,1.6-4.7,2.9-6.3,2.3c-0.4-0.1-0.7-0.4-0.5-1.3c0.6-2.6,8.1-4.5,12.7-5.1
				c0.4,0,0.6-0.4,0.6-0.7C353.1,279.8,352.7,279.6,352.4,279.6z"/>
			<path fill="#AD7E3D" d="M335.3,273.7c-0.3-0.1-0.7,0.1-0.8,0.5c-0.1,0.3,0.1,0.7,0.5,0.8c1.7,0.5,1.7,3.3,1.7,3.3
				c0,0.4,0.3,0.7,0.7,0.7c0,0,0,0,0,0c0.4,0,0.7-0.3,0.7-0.7C338,278.1,338,274.5,335.3,273.7z"/>
			<path fill="#AD7E3D" d="M348.4,334.1c-1.2,0.7-4.8,2.4-6.3,2.7c-0.4,0.1-0.6,0.4-0.6,0.7c0,0.3,0.3,0.6,0.6,0.6c0,0,0.1,0,0.1,0
				c2.1-0.3,6.6-2.7,6.8-2.8c0.3-0.2,0.4-0.6,0.3-0.9C349.1,334.1,348.7,334,348.4,334.1z"/>
			<path fill="#AD7E3D" d="M344.5,249.1c-0.5-0.2-1-0.2-1.6,0c-2.6,1.1-5.2,7.4-5.5,8.1c-0.1,0.3,0,0.7,0.4,0.9c0.1,0,0.2,0,0.2,0
				c0.3,0,0.5-0.2,0.6-0.4c1-2.5,3.2-6.7,4.8-7.4c0.3-0.1,0.5-0.1,0.6,0c0.5,0.2,0.7,0.5,0.8,1c0.1,1.3-1.3,3.2-1.9,3.7
				c-0.3,0.2-0.4,0.6-0.2,0.9c0.2,0.3,0.6,0.4,0.9,0.2c0.9-0.7,2.7-3,2.5-4.8C345.9,250.3,345.4,249.5,344.5,249.1z"/>
			<path fill="#AD7E3D" d="M351.2,248.6c-0.4,0-1,0.3-1.4,1.2c-0.6,1.4-0.6,2.6,0,3.5c0.8,1.2,2.3,1.5,2.9,1.6c0,0,0,0,0.1,0
				c0.3,0,0.6-0.2,0.7-0.6c0-0.4-0.2-0.7-0.6-0.7c-0.4,0-1.4-0.2-1.9-1c-0.3-0.6-0.3-1.4,0.1-2.4c0-0.1,0.2-0.4,0.3-0.4
				c0.8-0.1,2.8,2.4,4.2,4.7c0.2,0.3,0.6,0.4,0.9,0.2c0.3-0.2,0.4-0.6,0.2-0.9C355.9,252.7,353.2,248.4,351.2,248.6z"/>
			<path fill="#AD7E3D" d="M338,244.8c-0.2,0.3-0.1,0.7,0.2,0.9c0.1,0.1,0.2,0.1,0.4,0.1c0.2,0,0.4-0.1,0.5-0.3
				c3-4.5,13.8-3.2,13.9-3.2c0.4,0,0.7-0.2,0.7-0.6c0-0.4-0.2-0.7-0.6-0.7C352.7,241,341.5,239.7,338,244.8z"/>
			<path fill="#AD7E3D" d="M356.4,244.1c0.1,0,0.2,0,0.3-0.1c0.3-0.1,0.5-0.5,0.4-0.9c-0.8-1.9-2-5.1-2.1-5.8
				c-0.1-0.4-0.4-0.6-0.7-0.6c-0.4,0.1-0.6,0.4-0.6,0.7c0.2,1.1,2,5.6,2.2,6.1C355.9,244,356.1,244.1,356.4,244.1z"/>
			<path fill="#AD7E3D" d="M353.9,221.4c-0.8-0.5-2.3-1.4-2.3-1.9c0-0.2,0.4-0.8,2.7-2c0.3-0.2,0.4-0.6,0.3-0.9
				c-0.2-0.3-0.6-0.4-0.9-0.3c-2.4,1.3-3.4,2.1-3.4,3.1c0,1.1,1.1,1.9,2.9,3.1c2.9,1.8,6.1,8.8,6.1,8.8c0.1,0.2,0.3,0.4,0.6,0.4
				c0.1,0,0.2,0,0.3-0.1c0.3-0.2,0.5-0.5,0.3-0.9C360.4,230.5,357.1,223.4,353.9,221.4z"/>
			<path fill="#AD7E3D" d="M366.2,208.1h-1.4h-4.3h-3h-2.8h-3.5h-1.6h-2.6h-2.7H342h-1.7h-1.7h-2.4h-1.6h-3.5h-1.5h-2.6h-2.9
				c-0.1,0-0.1,0-0.2,0c-0.3,0.1-0.5,0.3-0.5,0.6v0.4v48.5v2.1v1.3v1.4v1.2v3.3v1.4v17.1v1.2v2.1c-0.1,0.1-0.1,0.2-0.1,0.3
				c0,0.2,0,0.3,0.1,0.5v2.4v1v2.6v1.4v30v1v4v1v7.3v1.4v1.6v1.6v5.2c0,0.4,0.3,0.6,0.6,0.6h22h5h15c0.4,0,0.6-0.3,0.6-0.6v-3.5V345
				v-6v-1.6v-1.5v-1.5v-4.2v-1.4v-1.6v-1.4v-2.4v-1.3V320v-1.4v-2.2V315v-0.5v-1.5v-1.6v-1.3v-2.1v-1.4v-1.9v-1.4v-4.5v-7.7v-5.8
				v-1.4v-1.9v-1.3v-1v-1.3v-2.4v-6.4V268v-1.5v-1.3v-1.4v-1.6v-1.4v-0.7v-1.4v-2v-1.3v-0.8v-1.3v-1.6v-1.3v-1.2v-1.4v-1.5v-1.6
				v-1.8v-2.2v-13.2v-2.3v-2.4v-6.4v-1.3v-3.5v-2.5v-0.4C366.8,208.4,366.5,208.1,366.2,208.1z M337.6,209.4c-1.1,1.2-2,2-2.4,2.1
				c-0.3-0.6-0.1-1.4,0.2-2.1H337.6z M334,209.4c-0.3,0.9-0.5,2,0.1,2.9c0.2,0.3,0.6,0.5,1,0.5c0,0,0,0,0,0c1.1,0,2.8-1.7,4.2-3.4
				h1.3c-1,1-2,2.2-2.9,3.7c-1.7,2.9-2.5,3.4-2.9,3.4c-1-0.1-2.3-4.3-2.8-6.1c-0.1-0.3-0.2-0.6-0.3-0.9H334z M330.3,209.4
				c0.2,0.4,0.3,0.9,0.5,1.3c1.4,4.6,2.4,6.8,3.9,7c0.1,0,0.1,0,0.2,0c1.3,0,2.5-1.5,3.9-4c1.1-1.9,2.5-3.3,3.7-4.4h2.7
				c-5.5,4.1-12.4,11.8-12.7,25.1c0,0.4,0.3,0.7,0.6,0.7c0,0,0,0,0,0c0.4,0,0.6-0.3,0.7-0.6c0.4-14,8.3-21.6,13.7-25.2h1.4
				c-13,8.2-14.6,25.9-15.6,37.6c-0.3,3.7-0.6,7-1.2,8.9c-2.3,7.6-5.9,8.9-7.2,9.1v-1.4c0.7-0.1,1.5-0.4,2.4-1.1
				c2.8-2.3,4.3-7.4,4.4-15.2c0-3,0.1-6.1,0.2-9.1c0.4-12.2,0.8-23.8-3.4-28.8H330.3z M324.8,218.4c0.6,3.3,1.7,10.6,1.7,21.4
				c0,8.4-0.9,12.7-1.7,14.9V218.4z M324.8,257.5c0.9-1,3.1-4.9,3.1-17.7c0-15.3-2.1-23.4-2.2-23.7c-0.1-0.4-0.5-0.6-0.8-0.5
				c0,0,0,0,0,0v-4.4c2.9,3.1,5.3,13,3.3,40.2c-0.4,5-2.1,7-3.3,7.7V257.5z M330.5,238.2c-0.1,3-0.2,6.1-0.2,9.1
				c-0.1,9.2-2.1,12.8-3.8,14.2c-0.6,0.5-1.2,0.7-1.7,0.8v-1.6c1.5-0.7,4.1-2.7,4.6-9.1c1.8-24.8,0.3-38.6-4.6-42v-0.2h1.8
				C331.3,213.3,330.9,225.9,330.5,238.2z M324.8,295.9c3.7-0.3,8,1.4,9.6,2.8c0.4,0.4,0.5,0.6,0.5,0.6c0,0-0.1,0.2-0.8,0.3
				c-3.4,0.6-7.6-2.2-9.3-3.5V295.9z M324.8,349.2v-3.9c2.6,1,6.6,1.8,8.9,1.9c2.8,0.1,4.2,1.3,4.8,2.1H324.8z M340.1,349.2
				c-0.4-0.8-2-3.2-6.3-3.4c-3.3-0.2-7.1-1.2-9-2v-1.6c2.2,1,6.3,2.5,10.9,2.2c2.8-0.2,4,1,5.7,2.6c0.7,0.7,1.5,1.5,2.5,2.2H340.1z
				 M365.5,333.8c-2.2-0.9-4.7-1.3-6.5-1.5c-0.5-0.1-1.1-0.2-1.6-0.2c1.2-0.4,3.9-0.6,6.2-0.4c0.3,0,0.7-0.2,0.7-0.6
				c0-0.4-0.2-0.7-0.6-0.7c-1.1-0.1-6.5-0.4-7.8,1.1c-0.4,0.4-0.3,0.8-0.2,1c0.3,0.7,1.2,0.8,3.1,1.1c1.9,0.3,4.5,0.6,6.7,1.7v1.5
				c-2.5-1.3-6.4-2.8-11.2-2.5c-1.8,0.1-2.7-0.2-2.9-0.5c-0.2-0.3,0-0.7,0.2-0.9c0.9-1.6,4.4-3.8,7.8-3.6c2.8,0.1,4.8,0.4,6.1,0.8
				V333.8z M359.5,327.8c-3.8-0.1-7.8,2.2-9,4.3c-0.6,1.1-0.4,1.9-0.2,2.2c0.6,0.9,1.9,1.3,4,1.2c4.9-0.3,8.9,1.4,11.2,2.7v7.1
				c-3,0.8-9.4,1.6-16.7-2.2c-0.3-0.2-0.7,0-0.9,0.3c-0.2,0.3,0,0.7,0.3,0.9c4.5,2.3,8.6,3,11.9,3c2.2,0,4.1-0.3,5.4-0.6v2.5h-9
				c-0.1-0.2-0.3-0.4-0.5-0.4c-8.6-1.2-10.4-3.3-10.7-4.4c-0.4-1.5,1.4-2.9,1.4-2.9c0.3-0.2,0.3-0.6,0.1-0.9
				c-0.2-0.3-0.6-0.3-0.9-0.1c-0.1,0.1-2.5,1.9-1.9,4.3c0.5,1.9,2.8,3.4,7.1,4.5h-4.7c-1.9-0.9-3.1-2-4.2-3.1
				c-1.7-1.7-3.3-3.2-6.7-3c-4.7,0.3-8.9-1.4-10.8-2.3v-3.5c4.7,4.5,14.7,4.1,22.7,1.6c8.5-2.6,16.6,3.3,16.7,3.3
				c0.1,0.1,0.3,0.1,0.4,0.1c0.2,0,0.4-0.1,0.5-0.3c0.2-0.3,0.2-0.7-0.1-0.9c-0.4-0.3-8.8-6.3-17.9-3.5c-9.3,2.9-18.3,2.2-21.8-1.6
				c-0.1-0.2-0.3-0.2-0.5-0.2v-1.7c1.6,1.3,4.8,3.2,9.3,3.2c2,0,4.3-0.4,6.9-1.3c4-1.5,7-3.5,9.7-5.3c4.6-3.1,8.3-5.6,14.8-3.7v1.7
				C364.1,328.2,362.2,327.9,359.5,327.8z M365.5,325.5c-6.9-1.8-10.9,0.9-15.6,4c-2.6,1.8-5.6,3.8-9.4,5.2
				c-9.2,3.4-14.4-1-15.7-2.4v-3.1c1.8,1.6,5.1,4,10,4c2.7,0,5.8-0.7,9.3-2.6c2.3-1.3,2.6-2.8,2.4-3.9c-0.7-3.6-7.2-7.2-12.2-7.8
				c-3.1-0.4-5.2,0.4-6.1,2.3c-1.4,3-1.2,5.6,0.5,7.5c2.1,2.4,6.2,2.9,10.6,1.4c2.5-0.8,2.9-2.1,2.8-3c-0.2-2.4-4.2-4.6-6.8-4.9
				c-1.7-0.2-3,0.3-3.4,1.4c-0.7,1.8-0.1,2.9,0.5,3.5c1.4,1.4,3.9,1.4,5.2,1c0.3-0.1,0.5-0.5,0.4-0.8c-0.1-0.3-0.5-0.5-0.8-0.4
				c-1,0.4-3,0.3-3.9-0.6c-0.5-0.5-0.6-1.2-0.2-2.2c0.3-0.7,1.4-0.7,2-0.6c2.5,0.3,5.5,2.4,5.6,3.8c0.1,0.8-1,1.4-1.9,1.7
				c-3.9,1.3-7.5,0.9-9.2-1c-1.3-1.4-1.4-3.6-0.3-6.1c0.8-1.7,3.3-1.7,4.7-1.5c4.9,0.6,10.6,4.1,11.1,6.8c0.1,0.4,0.3,1.5-1.7,2.5
				c-10.9,5.9-17.2-0.3-18.7-2.1v-7.8c0.2,0,0.3-0.1,0.4-0.3c0.8-1.1,2.2-1.7,4.1-1.9c5.9-0.6,15.3,3.3,17.8,5.5
				c2.8,2.5,1.6,4.5,1.6,4.6c-0.2,0.3-0.1,0.7,0.2,0.9c0.1,0.1,0.2,0.1,0.3,0.1c0.2,0,0.4-0.1,0.6-0.3c0,0,1.8-3.1-1.8-6.3
				c-2.7-2.4-12.5-6.5-18.8-5.9c-1.9,0.2-3.4,0.8-4.4,1.8v-2.2c7.8-4.8,20.4,2.7,25.9,6l0.2,0.1c2.8,1.7,7,2.1,10.5,2.1
				c1.5,0,2.9-0.1,4-0.2V325.5z M361,317.7c1.3-0.2,3.1-0.4,4.6-0.8v2c-3.7,0.9-7.8,1.3-8.5-0.1c-0.4-0.8,0.4-1.7,0.9-2.2
				c1.8-1.7,5.2-3,7.5-2.6v1.4c-1.2,0.4-2.9,0.7-4.7,0.9c-0.4,0-0.6,0.4-0.6,0.7C360.3,317.5,360.6,317.8,361,317.7z M365.5,310.1
				c-10-0.4-13.8,7.3-13.9,7.3c-0.2,0.3,0,0.7,0.3,0.9c0.1,0,0.2,0.1,0.3,0.1c0.2,0,0.5-0.1,0.6-0.4c0.1-0.3,3.5-7,12.7-6.6v1.3
				c-2.9-0.4-6.6,1.2-8.4,2.9c-1.3,1.3-1.8,2.6-1.2,3.7c0.6,1.2,2.2,1.6,4.1,1.6c1.8,0,3.9-0.4,5.6-0.8v2.1
				c-3.4,0.3-10.1,0.5-13.9-1.7l-0.2-0.1c-5.5-3.3-18.1-10.8-26.6-6.4v-6c13.8-3,18.8,3.4,19.6,4.7c1.4,2.2,5,3.8,5.2,3.9
				c0.1,0,0.2,0.1,0.3,0.1c0.3,0,0.5-0.1,0.6-0.4c0.1-0.3,0-0.7-0.3-0.9c0,0-3.4-1.5-4.6-3.4c-0.9-1.4-6.3-8.4-20.7-5.4v-5.7
				c1.4,1.1,4.4,2.6,9.9,2.6c5.6,0.1,7,1.5,8.7,3.3c0.8,0.8,1.6,1.7,3,2.6c0.1,0.1,0.2,0.1,0.4,0.1c0.2,0,0.4-0.1,0.5-0.3
				c0.2-0.3,0.1-0.7-0.2-0.9c-1.2-0.8-2-1.6-2.7-2.4c-1.9-2-3.5-3.6-9.7-3.7c-7-0.1-9.4-2.6-9.9-3.1v-1.5c1.9,1.3,5.2,3.2,8.4,3.2
				c0.4,0,0.8,0,1.2-0.1c1.9-0.3,2-1.4,1.9-1.8c-0.3-2.2-6.4-4.9-11.4-4.6V293c8.1,0.4,14,5.9,18.9,10.3c2.3,2.1,4.4,4,6.3,5
				c1.8,0.9,4.2,1.3,6.6,1.3c3.3,0,6.8-0.6,9-1.1V310.1z M365.5,303.9c-3.9,1.5-12.2,3.7-17.1-1.8c-3.3-3.7-0.5-7.8,0.9-9.4
				c3.4-3.9,10-6.7,13.3-4.5c1.3,0.9,2.3,2,2.9,3.2v3c-0.3-1.6-1.3-2.9-2.9-3.6c-2.3-1.1-6.3-1-10.6,2.6c-2.5,2.1-3.5,4.5-2.5,6.6
				c1.3,2.8,5.7,4.2,10.6,3.3c2.2-0.4,4-1.3,5.3-2.7V303.9z M357,299c1.4,0.5,4.9-0.4,5.8-2.1c0.2-0.4,0.6-1.6-0.9-2.8
				c-2.2-1.7-5.9-0.7-7.9,1.3c-1.4,1.4-1.6,3-0.6,4.3c1.5,1.9,5,1.9,7.6,1c2.4-0.9,4-2.4,4.4-4.2v2.1c-1.1,1.8-3,3.1-5.6,3.5
				c-4.9,0.9-8.3-0.7-9.2-2.6c-0.7-1.5,0.1-3.3,2.1-5c3.8-3.1,7.3-3.2,9.2-2.4c1.4,0.6,2.2,1.8,2.2,3.4c0.1,2.5-2.8,3.7-3.7,4
				c-2.5,0.9-5.2,0.7-6.1-0.6c-0.8-1,0-2,0.5-2.5c1.6-1.6,4.6-2.4,6.2-1.2c0.8,0.6,0.6,1,0.5,1.1c-0.6,1-3.4,1.8-4.3,1.5
				c-0.3-0.1-0.7,0.1-0.8,0.4C356.5,298.5,356.7,298.9,357,299z M365.5,289.2c-0.6-0.7-1.3-1.4-2.2-2c-4-2.7-11.1,0.3-15,4.7
				c-3.4,3.8-3.7,8-0.9,11.1c2.7,3,6.2,4,9.6,4c3.3,0,6.4-0.9,8.5-1.7v1.7c-3.6,0.8-10.9,2.2-15,0.1c-1.7-0.9-3.7-2.7-6-4.8
				c-5-4.6-11.2-10.2-19.8-10.7v-1.9c2.7,0.5,11,2.5,17.4,8.1c0.1,0.1,0.3,0.2,0.4,0.2c0.2,0,0.4-0.1,0.5-0.2
				c0.2-0.3,0.2-0.7-0.1-0.9c-7-6.1-15.8-8-18.3-8.5v-1.6c2.9,0.8,10.3,3.1,15.4,4.9c0.6,0.2,1.1,0.3,1.7,0.3c2.1,0,3.8-1.4,5.8-2.9
				c3.8-2.9,8.4-6.4,17.8-4.1V289.2z M365.5,283.7c-9.8-2.3-14.9,1.6-18.6,4.4c-2.4,1.8-4.1,3.2-6.3,2.4c-5.3-1.9-13.3-4.3-15.8-5
				v-2.8c1.1,1.1,3.3,2.8,6,2.9c0.1,0,0.1,0,0.2,0c1.9,0,3.8-0.9,5.4-2.7c5.3-5.8,15.7-6.9,19.5-3.6c3,2.6,7.3,2.9,9.6,2.8V283.7z
				 M365.5,278.8c-2.5,0.4-6.5,0.2-8.9-4c-0.8-1.4-0.9-2.7-0.2-3.7c1-1.5,3.7-2.4,6.2-2c1.2,0.2,2.2,0.6,2.9,1.3v0.4
				c-0.1-0.1-0.3-0.3-0.5-0.4c-1.7-1.2-5.4-1.5-7-0.2c-0.6,0.5-1.4,1.6-0.5,3.5c1.5,3.3,5.2,4.3,7.7,3.4c0,0,0.1,0,0.1-0.1V278.8z
				 M360.5,274c0.6,0.8,1.8,1.3,2.9,1.1c0.5-0.1,1.4-0.4,2.1-1.5v1.9c-0.2,0.1-0.4,0.2-0.6,0.3c-2,0.8-4.9-0.1-6.1-2.7
				c-0.6-1.4-0.1-1.8,0.1-2c1.1-0.9,4.1-0.7,5.4,0.2c0.4,0.3,0.5,0.5,0.5,0.8c-0.3,1-0.9,1.5-1.6,1.6c-0.6,0.1-1.3-0.2-1.6-0.6
				c-0.2-0.3-0.6-0.3-0.9-0.1C360.3,273.3,360.3,273.7,360.5,274z M365.5,265.9c-3.1-1.3-8-2.3-12.3,1.6c-3.7,3.4-7.3,5.2-10.3,4.9
				c-1.8-0.1-3.3-0.9-4.5-2.4c-1.4-1.7,0.5-3.8,1.3-4.7c2.7-2.7,7.6-4.4,9.8-2.6c1.1,0.9,1.3,2,0.6,3.3c-1.2,2.3-5.2,4.5-8,3.6
				c-0.9-0.3-1-0.7-1-0.9c-0.1-1,1.3-2.7,3-3.6c1.3-0.7,2.5-0.8,3.1-0.3c0.4,0.3,0.5,0.6,0.5,0.7c-0.1,0.6-1.8,1.3-3.3,1.6
				c-0.4,0.1-0.6,0.4-0.5,0.8c0.1,0.4,0.4,0.6,0.8,0.5c0.7-0.1,3.9-0.9,4.4-2.6c0.1-0.5,0.1-1.3-1-2.1c-1.1-0.9-2.7-0.8-4.6,0.2
				c-1.9,1.1-3.9,3.1-3.7,4.9c0.1,0.5,0.4,1.5,1.9,2c3.5,1,8-1.5,9.5-4.3c1-1.8,0.6-3.6-0.9-4.9c-2.8-2.3-8.3-0.5-11.5,2.7
				c-2.3,2.3-2.8,4.7-1.4,6.4c1.4,1.8,3.3,2.8,5.4,2.9c0.2,0,0.4,0,0.6,0c3.2,0,6.9-1.8,10.7-5.3c4-3.7,8.6-2.4,11.4-1.1v1.4
				c-0.8-0.5-1.7-0.8-2.7-1c-3-0.4-6.1,0.7-7.5,2.6c-0.7,1-1.2,2.7,0.1,5.1c2.2,3.8,5.6,4.8,8.3,4.8c0.6,0,1.2,0,1.7-0.1v0.9
				c-2.1,0-6.1-0.2-8.7-2.5c-4.4-3.8-15.5-2.6-21.3,3.7c-1.4,1.5-3,2.3-4.6,2.2c-3.2-0.1-5.8-3.2-5.8-3.3c-0.1-0.1-0.2-0.1-0.3-0.2
				v-1.3c1.3,1.8,3.5,3.2,5.6,3.3c0.1,0,0.3,0,0.4,0c1.9,0,3.4-1,4.2-2.9c1.3-2.7,0.2-4-0.6-4.5c-1.7-1.1-4.8-0.4-6,0.9
				c-0.6,0.7-0.8,1.6-0.5,2.4c0.3,0.9,1.1,1.6,2,1.7c0.8,0.2,1.7-0.1,2.2-0.8c0.2-0.3,0.2-0.7-0.1-0.9c-0.3-0.2-0.7-0.2-0.9,0.1
				c-0.3,0.3-0.6,0.5-1,0.4c-0.5-0.1-0.9-0.5-1-0.9c-0.1-0.4-0.1-0.7,0.2-1.1c0.7-0.9,3.1-1.4,4.2-0.6c0.7,0.5,0.8,1.4,0.1,2.8
				c-0.7,1.5-1.8,2.2-3.3,2.1c-2.2-0.2-4.7-2.1-5.3-4.1c-0.4-1.2,1.1-3,3.4-4.2c2.6-1.4,6.5-2,8.7,0.9c3,3.7,12.7,0.6,13.8,0.2
				c0.3-0.1,0.5-0.5,0.4-0.8c-0.1-0.3-0.5-0.5-0.8-0.4c-2.7,0.9-10.3,2.8-12.4,0.2c-2.8-3.5-7.3-2.8-10.4-1.2
				c-1.3,0.7-2.4,1.6-3.1,2.5v-3c0,0,0,0,0.1,0c0,0,0.1,0,0.1,0c0.2,0,5.4-0.7,8.9-4.6c3.1-3.6,7-8.1,13.4-8.1c0.1,0,0.2,0,0.3,0
				c3.3,0.1,4.1,1.5,4.9,2.8c0.7,1.2,1.5,2.5,4,1.9c2.7-0.7,6.7,0.4,9.2,1.2V265.9z M365.5,258.4c-2-0.6-5.3-1.4-9.4-1.7
				c-6.9-0.6-7.7-1.2-7.8-5.8c0-1.6,0.7-2.7,2-3.1c1.8-0.5,4.5,0.5,6.1,3.4c2.2,4,6.6,5.1,9.1,5.4V258.4z M365.5,255.3
				c-2.2-0.3-6.1-1.3-8-4.7c-1.9-3.5-5.3-4.7-7.6-4c-1.9,0.5-3,2.2-3,4.4c0.2,5.6,2,6.4,9,7c4.3,0.4,7.6,1.2,9.5,1.8v0.7
				c-2.8-0.8-7.5-1.8-9.6-0.3c-0.3,0.2-0.4,0.6-0.1,0.9c0.2,0.3,0.6,0.3,0.9,0.1c1.6-1.2,6-0.2,8.8,0.6v1.6
				c-2.6-0.8-6.6-1.8-9.5-1.1c-1.5,0.4-1.9-0.2-2.5-1.3c-0.8-1.4-2-3.3-6-3.4c-7.2-0.1-11.3,4.7-14.7,8.6c-3,3.5-7.7,4.2-8,4.2v-1.8
				c0.2,0,0.4,0,0.6,0c1.7,0,4.1-0.8,6.7-4c1.4-1.8,2.5-4.3,3.6-6.8c2.5-5.7,5.3-12.2,12.8-13c5.5-0.6,7.3,1.8,9.5,4.5
				c1.7,2.2,3.6,4.6,7.6,5.2V255.3z M365.5,222.5c-0.1,0.2-0.2,0.3-0.3,0.4c0,0-0.2,0.1-0.4-0.1c-0.6-0.4-1.4-1.8-1.1-3.7
				c0-0.4-0.2-0.7-0.6-0.7c-0.4,0-0.7,0.2-0.7,0.6c-0.3,2.4,0.6,4.3,1.7,5c0.5,0.3,1,0.4,1.4,0.3v2.2c-1.8-0.3-5.4-1.7-5.2-7
				c0.1-2.7,1.9-4.9,3.3-5c0.9,0,1.5,0.8,1.9,2.3V222.5z M363.6,213c-2.3,0.1-4.5,3.1-4.6,6.3c-0.1,4.6,2.3,7.7,6.5,8.4v3.2
				c-0.1-0.9-0.2-1.5-0.3-1.5c-0.1-0.4-0.4-0.6-0.8-0.5c-0.4,0.1-0.6,0.4-0.5,0.8c0,0,0.6,3,0.8,7.5c0.1,1.7,0.4,2.9,0.8,3.8v2.3
				c-1-1.5-1.8-3.8-1.8-7.6c0-4.6-2.2-7.8-4.1-10.6c-2-2.9-3.5-5.2-2-7.9c2.1-3.7,5.1-5.2,7.1-5c0.3,0,0.6,0.1,0.9,0.3v1.5
				C364.8,213.1,364,213,363.6,213z M364.8,210.8c-2.4-0.3-6,1.4-8.4,5.6c-1.9,3.4,0,6.3,2.1,9.3c1.8,2.7,3.9,5.7,3.9,9.9
				c0,5.4,1.7,8.2,3.1,9.7v1.7c-1.5-1.1-3.3-3.2-3.8-6.9c-0.8-5.6-5.3-13.7-9.9-16.2c-1.7-0.9-3.4-1-4.9-0.3
				c-0.3,0.2-0.5,0.6-0.3,0.9c0.2,0.3,0.5,0.5,0.9,0.3c1.1-0.5,2.4-0.4,3.7,0.3c4.3,2.3,8.4,9.9,9.2,15.2c0.7,4.8,3.3,7.2,5.1,8.3
				v1.6c-2-0.7-4.9-2.6-6.7-8.3c-1.9-6.2-5.7-13.8-9.9-14.7c-1-0.2-2.5-0.2-4,1.4c-2.5,2.7-3.4,6.2-2.1,8.7c1,2,3.2,2.9,6.1,2.5
				c2.5-0.3,3.5-1.7,3.8-2.8c0.7-2.1-0.3-4.6-1.6-6c-1-1-2.1-1.4-3.1-1.1c-2.2,0.6-3.3,3-2.9,4.7c0.2,1.2,1.3,2.4,3.5,2.2
				c0.5-0.1,2.2-0.2,2.5-1.4c0.3-1.2-1.2-2.4-1.7-2.7c-0.3-0.2-0.7-0.1-0.9,0.2c-0.2,0.3-0.1,0.7,0.2,0.9c0.7,0.5,1.2,1.1,1.2,1.3
				c0,0-0.2,0.3-1.3,0.4c-0.8,0.1-1.9,0-2.1-1.2c-0.2-1.2,0.6-2.8,2-3.2c0.5-0.2,1.2,0.1,1.8,0.8c1.1,1.1,1.8,3.2,1.3,4.7
				c-0.4,1-1.3,1.7-2.8,1.9c-2.3,0.3-4-0.3-4.7-1.8c-1-1.9-0.2-4.9,1.9-7.2c0.8-0.9,1.7-1.3,2.7-1c3,0.7,6.6,6.4,8.9,13.9
				c2,6.6,5.6,8.7,7.9,9.3v1.7c-3.3-0.6-4.9-2.6-6.5-4.7c-2.2-2.8-4.4-5.7-10.6-5c-8.2,0.9-11.2,7.7-13.8,13.8
				c-1.1,2.5-2.1,4.9-3.4,6.6c-2.6,3.3-4.9,3.7-6.2,3.5v-0.9c1.6-0.2,5.8-1.4,8.5-10c0.6-2.1,0.9-5.4,1.3-9.2
				c1.1-12,2.7-30.4,17.1-37.7h2.9c-11.6,6-15,17.4-15.1,17.5c-3.1,7.8-4.2,22.8-4.3,23.5c0,0.4,0.2,0.7,0.6,0.7c0,0,0,0,0,0
				c0.3,0,0.6-0.3,0.7-0.6c0-0.2,1.1-15.5,4.2-23.1c0-0.1,3.9-12.6,17-17.9h2.5c-2.7,1.1-6.2,2.9-10.2,6.1
				c-9.6,7.7-10.5,23.4-10.5,24c0,0.4,0.3,0.7,0.6,0.7c0,0,0,0,0,0c0.3,0,0.6-0.3,0.7-0.6c0-0.2,0.9-15.7,10-23.1
				c6.5-5.2,11.6-6.7,14.1-7.1h0.5v1.6C365.3,210.9,365,210.8,364.8,210.8z"/>
		</g>
	</g>
	<path fill="#2C2C30" d="M415.2,336.3H273.4c-2.4,0-4.3,1.9-4.3,4.3v41.2c0,2.4,1.9,4.3,4.3,4.3h141.8c2.4,0,4.3-1.9,4.3-4.3v-41.2
		C419.4,338.2,417.5,336.3,415.2,336.3z"/>
	<path fill="#F0BD62" d="M371.6,291.8h-53c-1.2,0-2.2-0.8-2.5-1.9l-11-44.4c-0.4-1.6,0.8-3.2,2.5-3.2h74.9c1.7,0,2.9,1.6,2.5,3.2
		l-11,44.4C373.8,291,372.8,291.8,371.6,291.8z"/>
	<polygon opacity="0.5" fill="#8E6435" points="327,291.8 363.2,302.3 363.2,291.8 	"/>
	<g opacity="0.4">
		<defs>
			<path id="SVGID_3_" opacity="0.4" d="M371.8,292h-53.1c-1.2,0-2.2-0.8-2.5-2l-11-44.5c-0.4-1.6,0.8-3.2,2.5-3.2h75.1
				c1.7,0,2.9,1.6,2.5,3.2l-11,44.5C374,291.2,373,292,371.8,292z"/>
		</defs>
		<clipPath id="SVGID_4_">
			<use xlink:href="#SVGID_3_"  overflow="visible"/>
		</clipPath>
		<g clip-path="url(#SVGID_4_)">
			<path fill="#AD7E3D" d="M387.7,260c0.2,0.9,0.8,3.4,2.5,3.1c2.7-0.4,4.6-10.4,4.6-13.2c0-0.1,0-0.3,0-0.4c0-0.5-0.5-0.8-1-0.8
				c-0.5,0-0.8,0.5-0.8,1c0.2,2.3-1.7,10.2-3,11.5c-0.1-0.2-0.3-0.7-0.5-1.6c-1.8-7.8,3.8-15.7,3.9-15.8c0.3-0.4,0.2-1-0.2-1.2
				c-0.4-0.3-1-0.2-1.2,0.2C391.6,243.1,385.7,251.4,387.7,260z"/>
			<path fill="#AD7E3D" d="M349.5,273.1c-0.3,0.6-6.1,14.1-2.3,20.4c0.3,0.4,0.8,0.6,1.2,0.3c0.4-0.3,0.6-0.8,0.3-1.2
				c-3.3-5.5,2.3-18.6,2.4-18.8c0.1-0.1,0.1-0.2,0.1-0.4c0-0.3-0.2-0.7-0.5-0.8C350.2,272.4,349.7,272.6,349.5,273.1z"/>
			<path fill="#AD7E3D" d="M347.7,255.1c2.7,5.5,0.9,9,0.8,9.2c-0.2,0.4-0.1,1,0.4,1.2c0.4,0.2,1,0.1,1.2-0.4
				c0.1-0.1,0.9-1.7,0.9-4.3c0-1.8-0.4-4-1.6-6.6c-0.2-0.4-0.7-0.6-1.2-0.4C347.7,254.1,347.5,254.6,347.7,255.1z"/>
			<path fill="#AD7E3D" d="M305.7,257.7c0.2,1.8,2.5,17.4,8.3,18.8c1.8,0.4,3.2-0.2,3.9-1.7c0.2-0.6,0.3-1.3,0.3-2
				c0-3.1-1.8-7.3-4.2-8.7c-1-0.6-1.8-0.7-2.4-0.2c-0.3,0.3-1.4,1.3,1.5,6.8c0.2,0.4,0.8,0.6,1.2,0.4c0.4-0.2,0.6-0.8,0.4-1.2
				c-0.9-1.7-1.6-3.5-1.7-4.4c0,0,0,0,0.1,0c2.1,1.3,4,6.4,3.1,8.5c-0.2,0.5-0.6,1-1.8,0.7c-3.5-0.8-6.1-11-7-17.3
				c-0.1-0.5-0.5-0.8-1-0.8C306,256.7,305.7,257.2,305.7,257.7z"/>
			<path fill="#AD7E3D" d="M297.7,280.8c-0.1,0.5,0.1,1,0.6,1.1c0.5,0.1,1-0.1,1.1-0.6c0.6-2.3,4.5-2.3,4.5-2.3
				c0.5,0,0.9-0.4,0.9-0.9c0,0,0,0,0,0c0-0.5-0.4-0.9-0.9-0.9C303.7,277.2,298.7,277.3,297.7,280.8z"/>
			<path fill="#AD7E3D" d="M379.8,263.1c0.9,1.7,3.3,6.5,3.6,8.6c0.1,0.5,0.5,0.8,1,0.8c0.4-0.1,0.8-0.4,0.8-0.9c0,0,0-0.1,0-0.1
				c-0.4-2.9-3.7-8.9-3.8-9.2c-0.2-0.4-0.8-0.6-1.2-0.4C379.7,262.1,379.5,262.6,379.8,263.1z"/>
			<path fill="#AD7E3D" d="M264.3,268.4c-0.3,0.7-0.3,1.4,0,2.2c1.4,3.6,10.1,7.1,11,7.5c0.5,0.2,1,0,1.2-0.5c0-0.1,0.1-0.2,0.1-0.3
				c0-0.4-0.2-0.7-0.6-0.8c-3.4-1.4-9.2-4.3-10-6.5c-0.2-0.4-0.1-0.6,0-0.8c0.3-0.6,0.7-1,1.3-1c1.8-0.2,4.4,1.8,5,2.6
				c0.3,0.4,0.8,0.5,1.2,0.2c0.4-0.3,0.5-0.8,0.2-1.2c-0.9-1.3-4-3.6-6.6-3.4C265.8,266.5,264.8,267.2,264.3,268.4z"/>
			<path fill="#AD7E3D" d="M263.5,259.2c0,0.6,0.4,1.4,1.6,1.9c1.9,0.8,3.6,0.8,4.8,0c1.7-1,2.1-3.1,2.2-3.9c0,0,0-0.1,0-0.1
				c0-0.4-0.3-0.8-0.8-0.9c-0.5-0.1-0.9,0.3-1,0.8c-0.1,0.6-0.3,2-1.3,2.6c-0.8,0.5-1.8,0.4-3.2-0.1c-0.1,0-0.5-0.2-0.5-0.4
				c-0.1-1.1,3.3-3.8,6.4-5.6c0.4-0.2,0.6-0.8,0.3-1.2c-0.2-0.4-0.8-0.6-1.2-0.3C269.1,253,263.3,256.6,263.5,259.2z"/>
			<path fill="#AD7E3D" d="M258.4,277.2c0.4,0.3,1,0.2,1.2-0.2c0.1-0.2,0.2-0.3,0.2-0.5c0-0.3-0.1-0.6-0.4-0.7
				c-6.1-4.1-4.4-18.7-4.4-18.9c0.1-0.5-0.3-0.9-0.8-1c-0.5-0.1-0.9,0.3-1,0.8C253.2,257.3,251.4,272.5,258.4,277.2z"/>
			<path fill="#AD7E3D" d="M257.5,252.3c0-0.1,0-0.2-0.1-0.3c-0.2-0.5-0.7-0.7-1.2-0.5c-2.5,1-6.9,2.8-7.8,2.9
				c-0.5,0.1-0.8,0.5-0.8,1c0.1,0.5,0.5,0.8,1,0.8c1.5-0.2,7.6-2.7,8.3-3C257.3,252.9,257.5,252.6,257.5,252.3z"/>
			<path fill="#AD7E3D" d="M226.5,255.6c-0.7,1.1-2,3.1-2.6,3.1c-0.3,0-1.1-0.5-2.7-3.7c-0.2-0.4-0.8-0.6-1.2-0.4
				c-0.4,0.2-0.6,0.8-0.4,1.2c1.7,3.3,2.9,4.6,4.2,4.6c1.5,0.1,2.6-1.4,4.2-3.9c2.5-4,11.9-8.3,12-8.4c0.3-0.2,0.5-0.5,0.5-0.8
				c0-0.1,0-0.3-0.1-0.4c-0.2-0.4-0.7-0.6-1.2-0.4C238.9,246.8,229.3,251.2,226.5,255.6z"/>
			<path fill="#AD7E3D" d="M208.5,238.9v2v5.9v4.1v3.8v4.7v2.1v3.5v3.7v3.2v2.3v2.3v3.3v2.2v4.7v2v3.6v3.9c0,0.1,0,0.2,0.1,0.3
				c0.1,0.4,0.4,0.6,0.8,0.6h0.6h65.9h2.8h1.7h1.8h1.6h4.4h1.9h23.3h1.6h2.9c0.1,0.1,0.2,0.1,0.4,0.2c0.2,0,0.5,0,0.6-0.2h3.3h1.3
				h3.6h2h40.7h1.4h5.4h1.4h9.9h1.9h2.1h2.1h7c0.5,0,0.9-0.4,0.9-0.9v-29.9v-6.8v-20.4c0-0.5-0.4-0.9-0.9-0.9h-4.8h-1.9h-8.1h-2.1
				h-2h-2h-5.7h-1.9h-2.2h-1.9h-3.2h-1.8h-3.1h-1.9h-2.9h-1.9h-0.6h-2h-2.1h-1.8h-2.9h-1.9H340h-2h-6.1h-10.5h-7.8h-1.9h-2.5h-1.8
				H306h-1.8H301h-8.7h-2.4h-2h-1.8h-1.9h-2.2h-1.9h-0.9h-1.9h-2.8h-1.8h-1.1h-1.8h-2.2H266h-1.6h-2h-2h-2.2h-2.5h-3h-17.9h-3.1
				h-3.2h-8.7h-1.7h-4.7h-3.4h-0.6C208.9,238,208.5,238.4,208.5,238.9z M210.2,277.8c1.6,1.4,2.7,2.7,2.8,3.2
				c-0.8,0.4-1.9,0.1-2.8-0.3V277.8z M210.2,282.6c1.2,0.5,2.7,0.6,3.9-0.2c0.5-0.3,0.7-0.8,0.7-1.3c0,0,0,0,0,0
				c0-1.5-2.3-3.7-4.6-5.7v-1.7c1.3,1.3,3,2.7,5,3.9c3.9,2.3,4.6,3.4,4.6,3.9c-0.2,1.3-5.9,3.1-8.3,3.8c-0.4,0.1-0.9,0.3-1.3,0.4
				V282.6z M210.2,287.7c0.6-0.2,1.2-0.5,1.8-0.7c6.3-1.9,9.3-3.2,9.5-5.3c0-0.1,0-0.2,0-0.3c0-1.8-2.1-3.4-5.4-5.4
				c-2.6-1.6-4.5-3.4-5.9-5v-3.6c5.6,7.5,16.1,16.8,34.2,17.3c0.5,0,0.9-0.4,0.9-0.9c0,0,0,0,0,0c0-0.5-0.4-0.9-0.9-0.9
				c-19.1-0.5-29.4-11.3-34.2-18.6v-1.9c11.2,17.7,35.2,19.8,51.1,21.3c5.1,0.5,9.5,0.8,12.1,1.7c10.4,3.2,12.1,8,12.3,9.8h-1.9
				c-0.1-0.9-0.5-2.1-1.5-3.3c-3.1-3.8-10-5.8-20.7-5.9c-4,0-8.3-0.2-12.4-0.3c-16.6-0.5-32.4-1.1-39.2,4.6V287.7z M222.5,295.1
				c4.4-0.9,14.4-2.4,29.1-2.4c11.4,0,17.3,1.3,20.2,2.4H222.5z M275.7,295.1c-1.4-1.2-6.6-4.1-24-4.1c-20.7,0-31.8,2.9-32.3,3
				c-0.5,0.1-0.8,0.6-0.6,1.1c0,0,0,0,0,0.1h-5.9c4.2-3.9,17.6-7.2,54.6-4.5c6.8,0.5,9.5,2.8,10.5,4.5H275.7z M249.4,287.4
				c4.1,0.1,8.4,0.3,12.4,0.3c12.5,0.1,17.3,2.9,19.2,5.2c0.7,0.8,1,1.6,1.1,2.2H280c-0.9-2.1-3.7-5.6-12.4-6.3
				c-33.8-2.5-52.5-0.4-57.1,6.3h-0.3v-2.4C215.6,286.3,232.7,286.8,249.4,287.4z M327.8,295.1c-0.4-5,1.9-10.9,3.8-13.1
				c0.5-0.6,0.8-0.7,0.9-0.7c0,0,0.3,0.2,0.4,1.1c0.8,4.6-3,10.3-4.7,12.6H327.8z M400.3,295.1h-5.4c1.3-3.5,2.4-8.9,2.5-12.1
				c0.2-3.8,1.7-5.7,2.8-6.5V295.1z M400.3,274.4c-1,0.5-4.3,2.7-4.6,8.6c-0.2,4.5-1.7,9.6-2.7,12.2h-2.2c1.4-3,3.4-8.5,3-14.8
				c-0.3-3.8,1.3-5.5,3.6-7.8c1-1,2-2,3-3.4V274.4z M379.3,239.8c-1.3,3-1.8,6.4-2.1,8.8c-0.1,0.7-0.2,1.5-0.3,2.2
				c-0.6-1.6-0.7-5.3-0.5-8.4c0-0.5-0.3-0.9-0.8-1c-0.5,0-0.9,0.3-1,0.8c-0.1,1.5-0.5,8.8,1.5,10.6c0.6,0.5,1.1,0.4,1.4,0.3
				c1-0.4,1.1-1.7,1.5-4.3c0.3-2.5,0.8-6.2,2.3-9.1h2c-1.8,3.4-3.8,8.7-3.4,15.3c0.1,2.4-0.3,3.6-0.7,3.9c-0.3,0.2-0.9-0.1-1.2-0.2
				c-2.1-1.2-5.1-6-5-10.7c0.1-3.9,0.6-6.5,1-8.2H379.3z M371.2,248c-0.2,5.1,2.9,10.6,5.8,12.3c1.5,0.9,2.5,0.5,3,0.2
				c1.2-0.7,1.8-2.6,1.6-5.5c-0.4-6.7,1.9-12.1,3.7-15.2h9.7c1.1,4.1,2.2,12.8-3,22.7c-0.2,0.4-0.1,1,0.4,1.2c0.4,0.2,1,0.1,1.2-0.4
				c3.2-6.1,4.1-11.7,4.1-16.2c0-3-0.4-5.5-0.9-7.3h3.4V252c-0.3,0.1-0.5,0.4-0.5,0.7c-1.7,11.7-4.5,14.1-6,14.5
				c-2,0.5-3.9-1.9-3.9-1.9c-0.3-0.4-0.9-0.5-1.3-0.2c-0.4,0.3-0.5,0.9-0.2,1.3c0.1,0.1,2.6,3.4,5.8,2.5c2.6-0.7,4.6-3.8,6.1-9.6
				v6.4c-1.2,2.5-2.8,4.2-4.2,5.7c-2.3,2.3-4.4,4.5-4.1,9.1c0.4,6.4-1.9,12.1-3.2,14.6h-4.7c6.1-6.4,5.5-20,2.2-30.9
				c-3.5-11.5,4.4-22.6,4.5-22.7c0.1-0.2,0.2-0.3,0.2-0.5c0-0.3-0.1-0.5-0.4-0.7c-0.4-0.3-1-0.2-1.2,0.2c-0.4,0.5-8.6,11.9-4.8,24.3
				c3.9,12.6,3,24.8-2.2,29.6c-0.2,0.2-0.3,0.5-0.3,0.7h-2.4c1.8-2.2,4.3-6.5,4.3-12.6c0-2.7-0.5-5.9-1.8-9.4
				c-2-5.4-4.8-9.6-7.2-13.2c-4.2-6.3-7.6-11.3-5.1-20.1h2.3C371.8,241.7,371.3,244.3,371.2,248z M368.1,239.8
				c-2.5,9.4,1.2,14.9,5.4,21.1c2.4,3.5,5.1,7.6,7,12.8c4.6,12.5-1.3,19.5-3.2,21.4h-4.2c2.2-2.4,5.4-7,5.4-13.6
				c0-3.6-0.9-7.8-3.5-12.6c-1.7-3.2-3.9-3.5-5.4-3.2c-4.9,0.9-9.8,9.8-10.7,16.6c-0.5,4.2,0.6,7.1,3.1,8.2c4,1.8,7.6,1.6,10.2-0.6
				c3.2-2.9,3.9-8.4,1.9-14.4c-1.1-3.3-2.9-3.9-4.1-3.8c-3.3,0.3-6.2,5.7-6.7,9.2c-0.3,2.4,0.4,4,1.9,4.6c2.5,0.9,4,0.2,4.8-0.7
				c1.9-1.8,2-5.3,1.3-7.1c-0.2-0.5-0.7-0.7-1.1-0.5c-0.5,0.2-0.7,0.7-0.5,1.1c0.5,1.3,0.4,4-0.9,5.2c-0.7,0.7-1.7,0.8-2.9,0.3
				c-1-0.4-0.9-1.9-0.8-2.7c0.5-3.4,3.2-7.5,5.1-7.6c1.1-0.1,1.8,1.3,2.3,2.6c1.8,5.3,1.2,10.2-1.4,12.5c-1.9,1.8-4.9,1.9-8.2,0.3
				c-2.4-1.1-2.3-4.5-2.1-6.4c0.8-6.6,5.5-14.3,9.2-15c0.5-0.1,2-0.4,3.5,2.3c8,14.8-0.4,23.4-2.9,25.4H360c0-0.2-0.2-0.4-0.3-0.6
				c-1.5-1.1-2.4-3-2.6-5.6c-0.8-8,4.5-20.8,7.5-24.2c3.3-3.8,6.2-2.2,6.3-2.2c0.4,0.2,1,0.1,1.2-0.3c0.1-0.1,0.1-0.3,0.1-0.5
				c0-0.3-0.2-0.6-0.4-0.8c0,0-4.2-2.4-8.6,2.5c-3.2,3.7-8.8,17-8,25.6c0.3,2.6,1.1,4.6,2.4,6h-3c-6.5-10.5,3.7-27.8,8.1-35.2
				l0.2-0.3c2.3-3.8,2.8-9.6,2.8-14.3c0-2.1-0.1-4-0.2-5.5H368.1z M357.5,246c-0.2-1.8-0.6-4.2-1.1-6.2h2.8c1.2,5,1.8,10.7-0.1,11.5
				c-1.1,0.5-2.3-0.6-3-1.3c-2.3-2.4-4-7.1-3.5-10.3h1.9c0.5,1.6,1,4,1.2,6.4c0.1,0.5,0.5,0.8,1,0.8
				C357.2,246.9,357.6,246.5,357.5,246z M347.2,239.8c-0.5,13.6,9.9,18.8,10,18.9c0.4,0.2,1,0,1.2-0.4c0.1-0.1,0.1-0.3,0.1-0.4
				c0-0.3-0.2-0.6-0.5-0.8c-0.4-0.2-9.5-4.8-9-17.3h1.8c-0.6,4,1.6,9,4,11.5c1.7,1.8,3.5,2.4,5.1,1.7c1.7-0.8,2.2-3,2.2-5.6
				c0-2.5-0.5-5.3-1-7.6h2.8c0.4,4.6,0.7,13.8-2.3,18.9l-0.2,0.3c-4.4,7.5-14.6,24.6-8.6,36.1h-8.1c-4-18.7,4.7-25.5,6.4-26.7
				c3-2,5.2-6.8,5.3-7.1c0.1-0.1,0.1-0.2,0.1-0.4c0-0.3-0.2-0.7-0.5-0.8c-0.4-0.2-1,0-1.2,0.5c0,0-2.1,4.6-4.6,6.3
				c-1.9,1.3-11.4,8.6-7.3,28.2h-7.8c1.5-2,3.5-5.9,3.6-13.4c0.1-7.7,2-9.5,4.5-11.9c1.1-1,2.3-2.2,3.5-4c0.1-0.2,0.2-0.3,0.2-0.5
				c0-0.3-0.1-0.6-0.4-0.7c-0.4-0.3-1-0.2-1.2,0.2c-1.1,1.6-2.2,2.7-3.3,3.7c-2.7,2.5-4.9,4.7-5.1,13.1c-0.1,9.5-3.5,12.8-4.2,13.4
				h-2c1.8-2.6,4.4-7.1,4.4-11.4c0-0.5,0-1.1-0.1-1.6c-0.4-2.6-1.8-2.7-2.4-2.6c-3,0.4-6.7,8.8-6.2,15.5h-2.1c0.6-11,8-19.1,14-25.6
				c2.9-3.2,5.4-5.9,6.7-8.5c1.3-2.5,1.7-5.7,1.7-9c0-4.5-0.9-9.2-1.6-12.2H347.2z M338.7,239.8c2,5.3,5.1,16.6-2.4,23.3
				c-5.1,4.5-10.6,0.6-12.7-1.3c-5.3-4.7-9.1-13.6-6.1-18.1c1.2-1.7,2.7-3.1,4.4-4h4c-2.2,0.4-3.9,1.8-4.9,3.9
				c-1.4,3.2-1.3,8.6,3.5,14.4c2.9,3.5,6.1,4.7,9,3.4c3.9-1.8,5.7-7.7,4.5-14.4c-0.5-3-1.8-5.5-3.6-7.3H338.7z M332,251.3
				c0.7-1.9-0.6-6.7-2.8-7.9c-0.6-0.3-2.2-0.9-3.8,1.2c-2.3,2.9-0.9,8,1.8,10.7c1.9,1.9,4.1,2.2,5.8,0.8c2.6-2,2.6-6.8,1.3-10.4
				c-1.2-3.3-3.3-5.5-5.8-6h2.9c2.5,1.4,4.2,4.1,4.8,7.6c1.2,6.6-0.9,11.3-3.5,12.5c-2.1,1-4.5-0.1-6.8-2.9
				c-4.2-5.1-4.4-10-3.2-12.5c0.9-1.9,2.5-3,4.6-3c3.4-0.1,5,3.8,5.5,5c1.2,3.4,0.9,7-0.8,8.3c-1.3,1.1-2.7,0-3.5-0.7
				c-2.1-2.1-3.3-6.2-1.6-8.4c0.9-1.1,1.4-0.8,1.6-0.7c1.4,0.8,2.4,4.6,2,5.8c-0.2,0.5,0.1,1,0.5,1.1
				C331.4,252,331.9,251.8,332,251.3z M318.7,239.8c-1,0.8-1.9,1.8-2.7,2.9c-3.7,5.5,0.4,15.1,6.4,20.4c5.2,4.6,10.8,5,15.1,1.2
				c4.1-3.7,5.4-8.5,5.4-13.1c0-4.4-1.2-8.7-2.3-11.6h2.3c1.1,4.8,2.9,14.8,0.1,20.4c-1.2,2.4-3.6,5-6.5,8.1
				c-6.2,6.8-13.9,15.2-14.5,26.8h-2.6c0.7-3.6,3.4-14.9,11-23.6c0.1-0.2,0.2-0.4,0.2-0.6c0-0.2-0.1-0.5-0.3-0.7
				c-0.4-0.3-0.9-0.3-1.3,0.1c-8.3,9.5-10.9,21.4-11.5,24.8h-2.1c1.2-3.9,4.2-14,6.6-20.9c0.3-0.8,0.4-1.5,0.4-2.3
				c0-2.8-1.9-5.2-3.9-7.9c-3.9-5.1-8.7-11.4-5.6-24.2H318.7z M311.3,239.8c-3.1,13.3,2.2,20.2,6,25.3c2.5,3.3,4.3,5.6,3.3,8.5
				c-2.6,7.2-5.8,18.1-6.8,21.5h-3.8c1.5-1.5,3.9-4.5,4-8.2c0-0.1,0-0.2,0-0.3c0-2.6-1.2-5.1-3.6-7.3c-7.8-7.2-9.4-21.3-4.9-26.5
				c3.5-4.1,3.9-9.9,3.9-13H311.3z M304.6,239.8c0.5,3.5,0.2,8.8-5.4,12.1c-2,1.1-3.7,1.2-5.1,0.3c-2.1-1.4-3.3-5-2.8-8.4
				c0.2-1.7,0.9-3,1.8-4h0.6c-0.2,0.2-0.4,0.4-0.5,0.6c-1.6,2.3-2,7.3-0.2,9.5c0.6,0.8,2.1,1.9,4.8,0.6c4.5-2,5.9-7.1,4.6-10.5
				c0-0.1-0.1-0.1-0.1-0.2H304.6z M298.1,246.6c1.1-0.9,1.8-2.5,1.5-3.9c-0.1-0.7-0.6-2-2-2.9h2.6c0.2,0.3,0.3,0.5,0.4,0.8
				c1,2.7-0.2,6.7-3.6,8.3c-1.9,0.8-2.5,0.1-2.7-0.2c-1.3-1.5-0.9-5.5,0.3-7.3c0.4-0.5,0.7-0.7,1-0.6c1.3,0.4,2.1,1.2,2.2,2.2
				c0.1,0.8-0.2,1.7-0.8,2.2c-0.4,0.3-0.5,0.9-0.2,1.3C297.1,246.8,297.7,246.9,298.1,246.6z M287.1,239.8
				c-1.8,4.2-3.2,10.9,2.1,16.7c4.6,5,7,10,6.7,14c-0.2,2.4-1.3,4.5-3.3,6.1c-2.3,1.9-5.2-0.6-6.4-1.8c-3.7-3.7-6-10.3-3.5-13.3
				c1.2-1.5,2.7-1.8,4.5-0.8c3.2,1.7,6.1,7,5,10.8c-0.4,1.3-1,1.3-1.2,1.4c-1.3,0.1-3.6-1.8-4.9-4.1c-1-1.8-1.1-3.4-0.4-4.3
				c0.4-0.5,0.8-0.7,1-0.7c0.8,0.2,1.8,2.5,2.2,4.5c0.1,0.5,0.6,0.8,1.1,0.7c0.5-0.1,0.8-0.6,0.7-1.1c-0.2-0.9-1.2-5.4-3.5-5.9
				c-0.7-0.2-1.7-0.1-2.8,1.3c-1.2,1.5-1.1,3.7,0.3,6.2c1.4,2.6,4.3,5.3,6.7,5.1c0.7-0.1,2.1-0.5,2.7-2.6c1.4-4.7-2.1-10.9-5.8-12.9
				c-2.5-1.3-4.9-0.9-6.7,1.3c-3.2,3.8-0.6,11.3,3.6,15.7c3.1,3.1,6.4,3.8,8.8,1.9c2.4-1.9,3.8-4.5,4-7.4c0-0.3,0-0.5,0-0.8
				c0-4.4-2.5-9.4-7.2-14.5c-5-5.4-3.3-11.7-1.5-15.5h1.8c-0.6,1-1.1,2.3-1.3,3.7c-0.6,4.1,0.9,8.3,3.5,10.1c1.4,0.9,3.7,1.7,7-0.2
				c5.2-3,6.5-7.6,6.5-11.3c0-0.8-0.1-1.6-0.2-2.3h1.2c0.1,2.9-0.3,8.3-3.4,11.9c-5.1,5.9-3.6,21,5,29c2.1,1.9,3.1,4,3,6.2
				c-0.1,4.3-4.4,7.8-4.4,7.9c-0.1,0.1-0.2,0.2-0.2,0.3h-1.7c2.4-1.7,4.3-4.7,4.5-7.5c0-0.2,0-0.4,0-0.5c0-2.5-1.4-4.6-3.9-5.7
				c-3.7-1.7-5.4-0.2-6.1,0.8c-1.5,2.4-0.6,6.5,1.2,8.1c0.9,0.8,2.1,1,3.2,0.7c1.2-0.4,2.1-1.5,2.4-2.8c0.2-1.1-0.2-2.3-1.1-3.1
				c-0.4-0.3-0.9-0.3-1.3,0.1c-0.3,0.4-0.3,0.9,0.1,1.3c0.5,0.4,0.6,0.9,0.5,1.4c-0.1,0.6-0.6,1.2-1.2,1.4c-0.5,0.2-1,0.1-1.5-0.3
				c-1.2-1-1.9-4.2-0.9-5.8c0.6-1,1.9-1,3.8-0.2c2.1,1,3,2.5,2.9,4.5c-0.2,3-2.9,6.3-5.6,7.2c-1.6,0.5-4.1-1.5-5.7-4.6
				c-1.9-3.6-2.7-8.8,1.2-11.9c5.1-4.1,0.8-17.3,0.3-18.8c-0.2-0.5-0.7-0.7-1.1-0.6c-0.5,0.2-0.7,0.7-0.6,1.1
				c1.3,3.7,3.8,14,0.3,16.8c-4.7,3.8-3.8,10-1.6,14.1c1,1.8,2.2,3.3,3.4,4.3h-4.1c0,0,0,0,0-0.1c0,0,0-0.1,0-0.1
				c0-0.3-0.9-7.4-6.3-12c-4.9-4.2-11-9.5-11-18.2c0-0.1,0-0.3,0-0.4c0.1-4.5,2-5.6,3.8-6.7c1.6-0.9,3.4-2,2.6-5.4
				c-0.9-3.7,0.5-9.1,1.6-12.5H287.1z M276.8,239.8c-0.8,2.7-1.8,7.2-2.3,12.8c-0.8,9.3-1.6,10.4-7.8,10.6c-2.2,0.1-3.7-0.9-4.2-2.7
				c-0.7-2.5,0.7-6.1,4.6-8.3c5.4-3,6.9-9,7.3-12.4H276.8z M272.7,239.8c-0.4,3.1-1.8,8.3-6.4,10.8c-4.8,2.6-6.4,7.2-5.5,10.4
				c0.7,2.6,3,4.1,6,4c7.7-0.2,8.7-2.7,9.5-12.3c0.5-5.8,1.6-10.3,2.4-13h0.9c-1.1,3.8-2.5,10.2-0.4,13c0.3,0.4,0.9,0.5,1.2,0.2
				c0.4-0.3,0.5-0.9,0.2-1.2c-1.6-2.1-0.3-8.1,0.8-11.9h2.1c-1.1,3.5-2.4,9-1.5,12.9c0.5,2.1-0.2,2.5-1.8,3.4
				c-1.9,1.1-4.5,2.7-4.7,8.2c-0.2,9.8,6.4,15.4,11.7,20c4.7,4.1,5.6,10.5,5.7,10.8h-2.5c0-0.3,0-0.5,0-0.8c0-2.4-1.1-5.6-5.4-9.1
				c-2.5-1.9-5.8-3.4-9.3-4.9c-7.8-3.4-16.5-7.2-17.6-17.4c-0.8-7.5,2.4-10,6.2-12.9c3-2.3,6.3-4.9,7.1-10.3H272.7z M228.1,239.8
				c0.3,0.1,0.4,0.3,0.5,0.4c0,0.1,0.1,0.2-0.1,0.6c-0.5,0.8-2.5,1.8-5.1,1.5c-0.5-0.1-0.9,0.3-1,0.8c-0.1,0.5,0.3,0.9,0.8,1
				c3.2,0.4,5.8-0.8,6.8-2.3c0.4-0.6,0.5-1.3,0.3-1.9h3c-0.5,2.5-2.3,7.3-9.6,7.1c-3.7-0.1-6.7-2.6-6.8-4.5
				c-0.1-1.2,1.1-2.1,3.1-2.6H228.1z M215.2,242.5c0.1,3.1,4.2,6.1,8.5,6.2c6.3,0.2,10.5-3.1,11.4-8.9h4.4c-1.3,0.2-2,0.3-2.1,0.3
				c-0.5,0.1-0.8,0.6-0.7,1.1c0.1,0.5,0.6,0.8,1.1,0.7c0,0,4.1-0.8,10.2-1c2.3-0.1,3.9-0.5,5.2-1.1h3.1c-2,1.3-5.2,2.5-10.4,2.5
				c-6.2,0-10.6,3-14.5,5.6c-3.9,2.7-7,4.8-10.7,2.7c-5.1-2.8-7.1-7-6.7-9.6c0-0.4,0.2-0.8,0.4-1.2h2
				C215.3,240.8,215.2,241.9,215.2,242.5z M212.2,240.8c-0.4,3.2,1.9,8.2,7.6,11.4c4.7,2.6,8.5,0,12.6-2.8c3.7-2.5,7.8-5.3,13.5-5.3
				c7.4,0,11.2-2.2,13.2-4.2h2.3c-1.5,2.1-4.3,4.5-9.4,5.2c-7.6,1.1-18.7,7.1-22,13.5c-1.2,2.3-1.4,4.7-0.4,6.7
				c0.2,0.4,0.7,0.6,1.2,0.4c0.4-0.2,0.6-0.7,0.4-1.2c-0.7-1.5-0.6-3.2,0.4-5.1c3.1-5.9,13.5-11.5,20.7-12.5c6.5-1,9.8-4.4,11.3-7
				h2.1c-0.9,2.7-3.6,6.7-11.3,9.1c-8.4,2.6-18.7,7.7-20,13.5c-0.3,1.4-0.2,3.4,1.9,5.4c3.7,3.4,8.5,4.6,11.8,2.8
				c2.7-1.4,3.9-4.4,3.3-8.3c-0.5-3.4-2.3-4.7-3.7-5.2c-2.8-1-6.3,0.3-8.2,2.2c-1.4,1.3-2,2.9-1.6,4.2c0.9,3,4,4.5,6.4,4
				c1.7-0.3,3.3-1.8,3-4.8c-0.1-0.7-0.3-3-1.9-3.4c-1.6-0.4-3.2,1.7-3.7,2.3c-0.3,0.4-0.2,1,0.2,1.2c0.4,0.3,1,0.2,1.2-0.2
				c0.6-0.9,1.5-1.6,1.7-1.6c0,0,0.4,0.2,0.6,1.8c0.1,1.1,0,2.5-1.6,2.8c-1.6,0.3-3.8-0.8-4.3-2.8c-0.2-0.7,0.2-1.6,1.1-2.4
				c1.5-1.4,4.3-2.5,6.4-1.8c1.4,0.5,2.3,1.8,2.6,3.8c0.4,3.1-0.4,5.4-2.4,6.4c-2.6,1.4-6.6,0.3-9.7-2.6c-1.2-1.2-1.7-2.4-1.4-3.7
				c0.9-4,8.7-9,18.8-12.2c8.9-2.8,11.8-7.7,12.6-10.8h2.3c-0.8,4.5-3.5,6.7-6.4,8.9c-3.8,3-7.8,6-6.8,14.5
				c1.2,11.2,10.5,15.2,18.7,18.8c3.4,1.5,6.6,2.9,8.9,4.7c4.5,3.5,5,6.6,4.7,8.5h-1.2c-0.2-2.2-1.9-7.9-13.6-11.5
				c-2.8-0.9-7.3-1.3-12.5-1.7c-16.3-1.5-41.3-3.7-51.3-23.3v-4c8.2,15.7,23.6,20.4,23.7,20.5c10.5,4.2,31,5.7,31.9,5.8
				c0.5,0,0.9-0.3,1-0.8c0,0,0,0,0-0.1c0-0.5-0.4-0.9-0.8-0.9c-0.2,0-21.1-1.5-31.4-5.7c-0.2-0.1-17.1-5.3-24.3-23V247
				c1.5,3.7,4,8.5,8.3,13.9c10.5,13.1,31.8,14.3,32.7,14.3c0.5,0,0.9-0.4,0.9-0.8c0,0,0,0,0,0c0-0.5-0.4-0.9-0.8-0.9
				c-0.2,0-21.4-1.2-31.4-13.7c-7-8.8-9.1-15.8-9.7-19.2v-0.7h2.2C212.3,240.1,212.2,240.5,212.2,240.8z"/>
		</g>
	</g>
	<path opacity="0.26" fill="#AD7E3D" d="M382.8,242.3h-37.5v49.6h26.6c1.2,0,2.2-0.8,2.5-2l11-44.5
		C385.7,243.8,384.4,242.3,382.8,242.3z"/>
	<path fill="#2A2A2D" d="M415.1,336.3H345V386h70.1c2.4,0,4.4-2,4.4-4.4v-41C419.4,338.2,417.5,336.3,415.1,336.3z"/>
	<path fill="#242426" d="M415.7,385.6H272.9c-2.1,0-3.8-1.7-3.8-3.8v-8h150.3v8C419.5,383.9,417.8,385.6,415.7,385.6z"/>
	<path opacity="0.38" fill="#1B1A1B" d="M345,373.8v11.8h70.7c2.1,0,3.8-1.7,3.8-3.8v-8H345z"/>
</g>
<path fill="#2B2B2D" d="M334.4,288.6"/>
<path fill="#EAEAEA" d="M335.8,131.2h-43.4c-3.2,0-5.8-2.6-5.8-5.8V87.9L335.8,131.2z"/>
<path opacity="0.5" fill="#DEDDDD" d="M310.1,108.5l-21.5,21.2c1,0.9,2.4,1.5,3.9,1.5h43.4L310.1,108.5z"/>
</svg>
