<?xml version="1.0" encoding="utf-8"?>
<!-- Generator: Adobe Illustrator 18.0.0, SVG Export Plug-In . SVG Version: 6.00 Build 0)  -->
<!DOCTYPE svg PUBLIC "-//W3C//DTD SVG 1.1//EN" "http://www.w3.org/Graphics/SVG/1.1/DTD/svg11.dtd">
<svg version="1.1" id="Layer_1" xmlns="http://www.w3.org/2000/svg" xmlns:xlink="http://www.w3.org/1999/xlink" x="0px" y="0px"
	 viewBox="0 0 576 576" enable-background="new 0 0 576 576" xml:space="preserve">
<rect x="0.2" y="-0.4" fill="#F7BA6B" width="575.7" height="576.1"/>
<g>
	<ellipse opacity="0.3" fill="#E0923E" enable-background="new    " cx="273.8" cy="426.9" rx="206.1" ry="5.3"/>
	<path fill="#3F4040" d="M448.3,380.3c3-4.9,1.8-9,1.8-13.9c0-22.1-17.9-40-40-40s-40,17.9-40,40c0,5-0.7,18.5,4,21.9L448.3,380.3z"
		/>
	<path fill="#D2D4D5" d="M488.3,337l-8.8,21.4l-4,9.8l-26.3,12.9c-0.2,0.1-0.3,0.1-0.5,0.1c-0.8,0,0.3-1,0.6-1.7
		c1.6-3.9,1-6.9,1-11.2c0-18.5-18.5-36.1-40-36.1c-8.6,0-16.1,2.5-22.2,6.5c0.1,0,0.1,0,0.2-0.1c0,0-26,15.2-15.2,47.5H174.6
		c2.5-9.8,0.4-18.6,0.4-18.6l0,0c-3.6-16-17.8-27.5-34.8-27.4c-19.5,0.2-35.1,16.6-35.1,36c0,1.7,0,3.3,0,5.1H68.6
		c-0.7,0-1.3-0.5-1.5-1.1c-0.2-0.8,0.2-1.4,0.9-1.7l5.4-2c0.2-0.1,0.3-0.2,0.3-0.4l-0.4-6.4c0-0.2,0.4-1.3,0.2-1.3l-11.9-9.6H96
		l0.1-11.3l-29.2,0v-14.8c1-1.7,3.2-1.5,3.8-3.1l126.8-14l97.8-31.4c1-0.4,2.2-0.6,3.4-0.6h79.7l108.7,25.7c1.6,0.4,0.5,3.9,1,5.5
		l0.1,17.2L488.3,337z"/>
	<path fill="#5C5C5C" d="M375.3,314.9h88.6c1.5,0,2.8-1.2,2.8-2.8l0,0c0-1.3-0.9-2.5-2.2-2.8l-86.4-20.1h-6.8
		C371.4,289.3,375.2,314.8,375.3,314.9z"/>
	<path fill="#231F20" d="M431.3,296l50.1-22.8c1.1-0.6,2.6-0.1,3.1,1c2.7,5,8.8,18.8,2.9,35.7c0,0-0.5-0.7-1.7-1L431.3,296
		L431.3,296z"/>
	<polygon fill="#CACACB" points="434.7,287.2 444.2,287.2 453.8,301.9 428.9,296 	"/>
	<rect x="434.8" y="276" fill="#ADADAD" width="9.4" height="10.3"/>
	<rect x="434.8" y="276" fill="#CACACB" width="5" height="10.3"/>
	<path fill="#959595" d="M444.2,278.7c-1.1,0.4-1.9,1.4-1.9,2.7c0,1.2,0.9,2.3,1.9,2.7V278.7z"/>
	<polygon fill="#ADADAD" points="453.5,301.3 444.2,287.2 439.6,287.2 439.5,297.9 	"/>
	<path fill="#3F4040" d="M173.8,388.3c2.2-2.7,3.3-7.5,3-15.2c-0.7-23.3-16.3-36.3-36.3-36.3c-20.1,0-36.3,16.3-36.3,36.3
		c0,2.7-2.5,5.2-1.9,7.7L173.8,388.3z"/>
	<path fill="#82AFB5" d="M351.7,290.7v25.7c0,1-0.8,1.7-1.7,1.7h-109v-10.2l53.6-18.5c1-0.4,2-0.6,3-0.6h52.3
		C350.8,289,351.7,289.7,351.7,290.7z"/>
	<circle fill="#2A2B2A" cx="140.4" cy="374.5" r="31.9"/>
	<g opacity="0.84">
		<circle fill="#3A3A3A" cx="140.4" cy="374.5" r="21.1"/>
	</g>
	<g>
		<path fill="#686969" d="M140.4,398.3c-13.1,0-23.6-10.6-23.6-23.6s10.6-23.6,23.6-23.6c13.1,0,23.6,10.6,23.6,23.6
			C164.1,387.6,153.5,398.3,140.4,398.3z M140.4,355.1c-10.8,0-19.5,8.8-19.5,19.5c0,10.8,8.8,19.5,19.5,19.5
			c10.8,0,19.5-8.8,19.5-19.5C159.9,363.8,151.2,355.1,140.4,355.1z"/>
	</g>
	<g>
		<path fill="#231F20" d="M140.4,387.7c-7.2,0-13.2-5.9-13.2-13.2c0-7.2,5.9-13.2,13.2-13.2s13.2,5.9,13.2,13.2
			C153.5,381.8,147.6,387.7,140.4,387.7z M140.4,364.9c-5.3,0-9.7,4.4-9.7,9.7c0,5.3,4.4,9.7,9.7,9.7c5.3,0,9.7-4.4,9.7-9.7
			C150.1,369.2,145.8,364.9,140.4,364.9z"/>
	</g>
	<circle opacity="0.75" fill="#2A2B2A" enable-background="new    " cx="347.4" cy="327.1" r="1.9"/>
	<path fill="#2A2B2A" d="M74.4,344.4v-15.6l-3,0.4c-1.5,0.2-2.5,0.6-3,0.8c-1.3,0.8-2.2,1.8-2.8,2.9c-0.2,0.4-0.6,1.2-1,2.6l0,0
		c-2.7,7.4-9.1,11.6-9.5,11.9l0,0h13h51.2c1.1-0.9,2.6-1.8,4.2-2.8L74.4,344.4L74.4,344.4z"/>
	<g>
		<path fill="#282425" d="M500.2,363.7L500.2,363.7c1.2,0,2.3,1,2.3,2.3c0,1.2-1,2.3-2.3,2.3l0,0c-1.2,0-2.3-1-2.3-2.3
			C498,364.7,499,363.7,500.2,363.7z"/>
	</g>
	<g>
		<path fill="#282425" d="M521.4,354.4L521.4,354.4c1.2,0,2.3,1,2.3,2.3c0,1.2-1,2.3-2.3,2.3l0,0c-1.2,0-2.3-1-2.3-2.3
			C519.1,355.5,520.2,354.4,521.4,354.4z"/>
	</g>
	<g>
		<path fill="#282425" d="M509.6,299.9L509.6,299.9c1.2,0,2.3,1,2.3,2.3c0,1.2-1,2.3-2.3,2.3l0,0c-1.2,0-2.3-1-2.3-2.3
			C507.3,301,508.3,299.9,509.6,299.9z"/>
	</g>
	<path fill="#3F4040" d="M464.6,309.4l-58.9-13.6l28,19.2h30.2c1.5,0,2.8-1.2,2.8-2.8C466.8,310.8,465.8,309.6,464.6,309.4z"/>
	<path fill="#D74022" d="M390.7,301.6H384c-0.3,0-0.5,0.2-0.5,0.5v5.5c0,0.3,0.2,0.5,0.5,0.5h6.8c0.3,0,0.5-0.2,0.5-0.5v-5.5
		C391.2,301.9,390.9,301.6,390.7,301.6z"/>
	<path fill="#D74022" d="M400.3,301.6h-6.8c-0.3,0-0.5,0.2-0.5,0.5v5.5c0,0.3,0.2,0.5,0.5,0.5h6.8c0.3,0,0.5-0.2,0.5-0.5v-5.5
		C400.7,301.9,400.6,301.6,400.3,301.6z"/>
	<path fill="#D74022" d="M409.9,301.6h-6.8c-0.3,0-0.5,0.2-0.5,0.5v5.5c0,0.3,0.2,0.5,0.5,0.5h6.8c0.3,0,0.5-0.2,0.5-0.5v-5.5
		C410.4,301.9,410.2,301.6,409.9,301.6z"/>
	<circle fill="#A9ACAD" cx="387.3" cy="307.8" r="3.9"/>
	<circle fill="#454748" cx="387.3" cy="307.8" r="2.3"/>
	<circle fill="#A9ACAD" cx="396.8" cy="307.8" r="3.9"/>
	<circle fill="#A9ACAD" cx="406.5" cy="307.8" r="3.9"/>
	<circle fill="#454748" cx="396.8" cy="307.8" r="2.3"/>
	<circle fill="#454748" cx="406.4" cy="307.8" r="2.3"/>
	<path fill="none" stroke="#282425" stroke-miterlimit="10" d="M101.3,378.9"/>
	<path fill="#2A2B2A" d="M175.6,379.5c0,0-0.6,6.2-1.9,8.9H374c0,0-1.8-5.1-2.6-9L175.6,379.5z"/>
	<path fill="#2A2B2A" d="M105,381.1l-30.7-19.1v-3.5H61.6l0.2,0.1h-2.9c0,0,6.6,2.9,12.2,8.5l0,0c0,0,2,1.7,2.2,4.7
		c0,0.1,0,0.1,0,0.2v0.8l0,0l0,0v1c0,0,0.2,2.4-2.6,3.4l0,0l-2.7,1c-0.7,0.3-1,1-0.9,1.7c0.2,0.7,0.9,1.1,1.5,1.1h7.1l0,0H105z"/>
	<path fill="#787E81" d="M96.4,358.6h-40c-0.7,0-1.2-0.6-1.2-1.2v-10.2h41.3V358.6z"/>
	<path fill="#D74022" d="M102,359.3H86.2c-0.3,0-0.5-0.2-0.5-0.5v-16.4c0-0.3,0.2-0.5,0.5-0.5h15.9c0.3,0,0.5,0.2,0.5,0.5v16.4
		C102.5,359.1,102.3,359.3,102,359.3z"/>
	<path fill="#2A2B2A" d="M102.1,359.3h-16c-0.2,0-0.4-0.2-0.4-0.4v-2.8h16.8v2.8C102.5,359.1,102.3,359.3,102.1,359.3z"/>
	<rect x="87.9" y="339.3" fill="#2A2B2A" width="4.3" height="2.9"/>
	<rect x="87.9" y="338.5" fill="#F2F2F2" width="4.3" height="1.1"/>
	<path fill="#E0E0E0" d="M406.2,289.9l1.5-2.3c0.2-0.3,0.6-0.5,1-0.5h18.1c0.9,0,1.6,0.7,1.7,1.5l0.5,6.7L406.2,289.9z"/>
	<circle fill="#A1A2A2" cx="410.3" cy="289" r="1.1"/>
	<circle fill="#767676" cx="410.3" cy="289" r="0.9"/>
	<circle fill="#A1A2A2" cx="417.7" cy="289.5" r="1.1"/>
	<circle fill="#767676" cx="417.7" cy="289.5" r="0.9"/>
	<circle fill="#A1A2A2" cx="425" cy="290.3" r="1.1"/>
	<circle fill="#767676" cx="425" cy="290.3" r="0.9"/>
	<g opacity="0.75">
		<path fill="#282425" d="M229.5,379.7c-5.3-12.7-6.1-24.2-6.2-32.9c-0.2-17.5,1.8-28.8,1.8-28.9l0.8,0.1c0,0.1-1.9,11.3-1.8,28.8
			c0.1,8.6,0.9,20,6.1,32.6L229.5,379.7z"/>
	</g>
	<path fill="#2A2B2A" d="M243.4,308v9.9c0,0.7-0.5,1.1-1.1,1.1h-16.4c-0.6,0-1-0.5-1-1v-3.5c0-0.4,0.2-0.8,0.6-0.9l15.6-7.1
		C242.2,306.1,243.4,306.9,243.4,308z"/>
	<path fill="#2A2B2A" d="M381.1,344.5H157.7c1.3,0.8,2.9,1.6,4.2,2.7h216.9C379.6,346.2,380.4,345.3,381.1,344.5z"/>
	<path fill="#EDECEB" d="M140.4,335.3c-21.6,0-39.3,17.5-39.3,39.3c0,1.3,0.1,3,0.2,4.2l2.8,2.3l1.9,0.2c-1.2-10,1-17.1,2.6-20.7
		c0.5-1,1-1.9,1.5-2.9c1.3-2.3,4.4-6.8,9.1-10.5c0.1,0,0.1-0.1,0.1-0.1c2.1-1.5,4.2-2.9,6.3-3.8c0.2-0.1,0.4-0.2,0.6-0.3
		c0,0,0,0-0.1,0c0.5-0.2,0.9-0.4,1.3-0.6c4-1.5,11-3.4,19.3-1.9c0,0,0,0,0.1,0c1.9,0.4,3.8,0.9,5.7,1.5c0,0,0,0-0.1-0.1
		c3.3,1.1,5.3,2.4,5.3,2.4c20.5,11.3,17.8,35,17.8,35h5.1C183.1,351.7,162.1,335.3,140.4,335.3z"/>
	<path fill="#282425" d="M356.8,318.2v-33.2c0-0.2-0.1-0.4-0.3-0.5l-1.8-1.3h-1.3l2.4,1.7c0.2,0.1,0.3,0.3,0.3,0.5v32.8
		c0,0.5,1.4,43.7-33.4,61.2h1.7C358.2,361.3,356.8,318.7,356.8,318.2z"/>
	<rect x="359.9" y="273.8" fill="#515252" width="9.7" height="2.6"/>
	<path fill="#D2D4D5" d="M372.2,274.1h-14c-0.9,0-1.6-0.8-1.6-1.6v-0.8c0-0.9,0.8-1.6,1.6-1.6h14V274.1z"/>
	<polygon fill="#3F4040" points="357.4,276.4 354.1,283.3 378.4,283.3 374.9,276.4 	"/>
	<path fill="#30302F" d="M377.3,281.2h-7.8c-0.4,0-0.7,0.3-0.7,0.7s0.3,0.7,0.7,0.7h8.4L377.3,281.2z"/>
	<rect x="360.8" y="270.2" fill="#3F4040" width="0.9" height="3.9"/>
	<rect x="370.4" y="270.2" fill="#3F4040" width="1.7" height="3.9"/>
	<rect x="434.7" y="286.4" fill="#A0A09F" width="9.5" height="0.9"/>
	<rect x="434.7" y="275.6" fill="#A0A09F" width="9.5" height="0.9"/>
	<path fill="#73999A" d="M270.7,318.1l19.3-10.9c0.6-0.3,1.2-0.5,1.8-0.5h40.1c1,0,1.9,0.9,1.9,1.9v9.5h1v-9.5c0-1.6-1.3-3-3-3h-40
		c-0.9,0-1.6,0.2-2.4,0.7l-21,11.8L270.7,318.1L270.7,318.1z"/>
	<path opacity="0.52" fill="#73999A" enable-background="new    " d="M348.4,318.1h1.5c1,0,1.7-0.8,1.7-1.7v-25.7
		c0-1-0.8-1.7-1.7-1.7h-52.3c-0.2,0-0.7,0-0.8,0L348.4,318.1z"/>
	<g opacity="0.6">
		<g>
			<polygon fill="#838383" points="464.1,314.9 454.9,308.4 454.7,308.6 463.7,314.9 			"/>
		</g>
		<g>
			<polygon fill="#838383" points="460.9,314.9 450.2,307.6 450,307.6 460.5,314.9 			"/>
		</g>
		<polygon fill="#838383" points="457.7,314.9 445.9,306.7 445.8,306.9 457.4,314.9 		"/>
		<polygon fill="#838383" points="454.5,314.9 441.9,306.2 441.8,306.3 454.1,314.9 		"/>
		<polygon fill="#838383" points="451.5,314.9 437.7,305.4 437.6,305.6 451.2,314.9 		"/>
		<polygon fill="#838383" points="448.4,314.9 433.3,304.4 433.2,304.6 448,314.9 		"/>
		<polygon fill="#838383" points="445.1,314.9 429.1,303.8 428.9,304 444.7,314.9 		"/>
		<polygon fill="#838383" points="441.5,314.9 424.8,303.3 424.7,303.5 441.2,314.9 		"/>
		<polygon fill="#838383" points="438.5,314.9 420.6,302.5 420.5,302.7 438,314.9 		"/>
		<path fill="#838383" d="M466,313.9l-6.9-4.8l-0.1,0.2L466,313.9C465.9,314,466,314,466,313.9z"/>
		<path fill="#838383" d="M466.8,312.3l-3.5-2.5l-0.1,0.2l3.6,2.5C466.7,312.4,466.8,312.3,466.8,312.3z"/>
	</g>
	<path fill="#2A2B2A" d="M522.8,336.3h-23.3c-1,0-1.8-0.7-2.1-1.5c-0.1-0.2-0.1-0.6-0.1-0.8c0-1.2,1-2.3,2.3-2.3h18
		c1.1-0.1,2.1-1,2.1-2.3c0-1.2-1-2.3-2.3-2.3h-15.2l0,0H495c-1.2,0-2.3-1-2.3-2.3c0-1.2,1-2.3,2.3-2.3h6l0,0h6.4
		c1.2,0,2.3-1,2.3-2.3s-1-2.3-2.3-2.3h-7.6l0,0h-1.4c-1.2,0-2.3-0.9-2.5-2.1c-0.1-1.3,1-2.5,2.3-2.5h12h0.1h8c1.2,0,2.3-1,2.3-2.3
		c0-1.2-1-2.3-2.3-2.3H498l0,0h-2.7c-1.2,0-2.3-1-2.3-2.3c0-1.2,1-2.3,2.3-2.3h7.4c1-0.3,1.7-1.1,1.7-2.2c0-1.2-1-2.3-2.3-2.3h-0.8
		l0,0c-1.5,0.2-1.9-1-1.9-1.7c0-0.2,0-0.4,0-0.6c0-0.1,0-0.1,0-0.1l0,0c0-9.9-3.4-17.5-5.3-21c-0.6-1.1-2-1.5-3.1-1L441,298.2
		l41,9.8c0,0,5,1,4.8,4.5v23.3l0,0c0,0-0.1,2.3-1.1,4.1l0,0l-2.7,4.5h-43.3c0.9,0.9,1.6,1.7,2.5,2.7h39.2l-4.4,7.2l0,0l-3.9,6.3
		l-7.7,11.6v0.8l-0.1,0.2l0.1-0.1v0.1l7.8-3.8l0,0c0,0,0.1-0.1,0.3-0.2l0.2-0.1c0.8-0.4,2.1-0.9,3.7-1h0.8c0.1,0,0.3,0,0.4,0l0,0
		h15.5c1.2,0,2.3-1,2.3-2.3c0-1.2-1-2.3-2.3-2.3h-11.5l0,0l0,0c-0.5-0.1-0.9-0.2-1.1-0.5l0,0c-0.1-0.1-0.3-0.2-0.4-0.4l0,0
		c-0.3-0.3-0.4-0.7-0.5-1.1c0-0.2,0-0.3,0-0.3l0,0c0-0.2,0-0.4,0.1-0.6c0-0.1,0.1-0.2,0.1-0.3c0-0.1,0-0.1,0.1-0.2
		c0.1-0.3,0.3-0.5,0.5-0.7l0,0c0.1-0.1,0.2-0.2,0.3-0.3c0,0,0.1,0,0.1-0.1c0.1-0.1,0.2-0.1,0.3-0.1c0,0,0.1,0,0.1-0.1
		c0.2-0.1,0.4-0.2,0.6-0.2h0.3h31.1c1.2,0,2.3-1,2.3-2.3c0-1.2-1-2.3-2.3-2.3H498c-2.1-0.5-2-2.4-2-2.4c0.2-2.1,2.1-2.2,2.1-2.2l0,0
		h12c1.2,0,2.3-1,2.3-2.3c0-1.1-0.9-2.1-2-2.3h-15.6c-0.1,0-0.2,0-0.3,0h-0.1l0,0c-1-0.2-1.7-1-1.8-1.9c0-0.2,0-0.3,0-0.3
		c0-0.2,0-0.4,0.1-0.5c0-0.1,0.1-0.2,0.1-0.3s0-0.1,0.1-0.2c0-0.1,0.1-0.2,0.1-0.3c0-0.1,0.1-0.2,0.2-0.2c0,0,0-0.1,0.1-0.1
		c0.3-0.4,0.8-0.6,1.2-0.7c0.1,0,0.2-0.1,0.2-0.1h0.3h28.3c1.2,0,2.3-1,2.3-2.3C525,337.4,524.1,336.4,522.8,336.3z"/>
	<g>
		<circle fill="#3A3A3A" cx="466.7" cy="292.9" r="3.9"/>
		<circle fill="#2D2D2D" cx="466.7" cy="292.9" r="2.3"/>
		<path d="M467,292.6c-0.1-0.2-0.4-0.2-0.6-0.1c-12.4,9.4-29.4,0.6-29.5,0.5c-3.5-1.3-8-2-12.1-2.3h0.1c0.2,0,0.4-0.2,0.4-0.4
			s-0.2-0.4-0.4-0.4s-1.7,0.1-3.9,0.6c-3.8-0.1-6.1,0.2-6.1,0.2l0,0c-0.4,0-0.8,0.1-1,0.1c-1.9,0.2-3.5,0.4-3.5,0.4
			c3.9-1.2,7.2-1.3,7.2-1.3c0.2,0,0.4-0.2,0.4-0.4c0-0.2-0.2-0.4-0.4-0.4l0,0c-0.1,0-4.9,0.1-9.8,2.2c-3.5,0.1-6.6-0.2-9.1-0.7
			c5.6-2,11.4-1.2,11.5-1.2c0.2,0,0.4-0.1,0.5-0.3c0-0.2-0.1-0.4-0.3-0.5c-0.4-0.1-6.9-0.9-13,1.7c-9.1-2.5-11.9-8.2-12-8.3
			c-4.2-7.7-11.1-9.9-13.2-10.4v0.8c2.1,0.6,8.6,2.8,12.5,10c0.1,0.1,1.6,3.3,6.1,6c1.4,0.9,3.2,1.7,5.4,2.4
			c-1.2,0.6-2.4,1.3-3.5,2.3c-3.8,3.3-5.7,8.3-5.7,14.7c0,0.2,0.2,0.4,0.4,0.4c0.2,0,0.4-0.2,0.4-0.4c0-6.2,1.8-11,5.5-14.1
			c1.2-1.1,2.7-2,4.2-2.6c2.5,0.7,5.3,1,8.8,1c-4.7,2.6-9.1,7.2-9.6,15.7c0,0.2,0.2,0.4,0.4,0.4l0,0c0.2,0,0.4-0.2,0.4-0.4
			c0.4-7.5,3.9-12.9,10.6-15.8l0,0c1.2-0.1,2.7-0.2,4-0.3l0,0c0,0,3-0.4,5-0.5c0.4,0,0.7,0,1.1,0c-2.7,1-5.6,2.4-7.9,5
			c-2.8,3-4.1,7-3.8,11.7c0,0.2,0.2,0.4,0.4,0.4l0,0c0.2,0,0.4-0.2,0.4-0.4c-0.2-4.6,1-8.3,3.6-11.1c3-3.2,7.1-4.8,10.2-5.4
			c4.7,0.1,11.1,0.6,15.6,2.4c0,0,0.1,0,0.1,0.1c0.7,0.4,7.8,3.9,16.2,3.9c4.7,0,9.6-1.1,14.1-4.5
			C467.1,293.1,467.2,292.8,467,292.6z"/>
	</g>
	<g>
		<path fill="#231F20" d="M233.5,384.1h-46.7c-1.6,0-2.8-0.5-3.6-1.4c-1.5-1.8-1-4.6-1-4.7c2.8-25.6-18.9-38.7-19.2-38.9
			c-17.1-10.2-35.3-4-35.5-3.9h-0.1c-3.3,1-5.9,1.9-8.5,2.5c-4.5,1-7.7,1.2-7.8,1.2c0,0-3.2,0.4-7.9-0.5c-2.5-0.4-5.1-1.1-8-2.3
			c0,0-3-1.3-4.7-0.4c-1,0.6-1.4,1.2-1.4,2.7h-0.5c0-1.6,0.5-2.5,1.6-3c1.8-1,4.9,0.4,5.1,0.4c3,1,5.5,1.8,7.9,2.3
			c4.7,0.8,7.7,0.5,7.8,0.5c0,0,3.3-0.3,7.7-1.2c2.6-0.6,5.1-1.4,8.5-2.5h0.1c0.2-0.1,18.6-6.3,35.8,4c0.2,0.1,22.1,13.3,19.3,39.4
			c0,0-0.5,2.7,0.9,4.3c0.7,0.9,1.8,1.2,3.2,1.2h46.7L233.5,384.1L233.5,384.1z"/>
	</g>
	<g>
		<path fill="#231F20" d="M234.6,384.1h-46.7c-1.6,0-2.9-0.5-3.6-1.4c-1.4-1.7-1-4.4-1-4.5c2.8-25-18.9-37.7-19.2-37.8
			c-17.1-9.9-35.3-3.9-35.5-3.8h-0.1c-3.3,1-5.9,1.8-8.5,2.4c-4.5,1-7.7,1.2-7.8,1.2c0,0-3.2,0.4-7.9-0.5c-2.5-0.4-5.1-1.1-8-2.2
			c0,0-3.1-1.3-4.8-0.5c-0.8,0.4-1,0.9-1,1.4h-0.5c0-0.8,0.4-1.4,1.3-1.8c1.8-1,5,0.4,5.1,0.4c3,1,5.5,1.8,7.9,2.2
			c4.7,0.8,7.7,0.5,7.8,0.5c0,0,3.3-0.3,7.7-1.2c2.6-0.6,5.1-1.3,8.4-2.4h0.1c0.2-0.1,18.6-6.1,35.8,3.9
			c0.2,0.1,22.1,13.1,19.3,38.3c0,0-0.5,2.6,0.9,4.2c0.7,0.9,1.8,1.3,3.3,1.3h46.7V384.1z"/>
	</g>
	<path fill="#231F20" d="M379.2,321.1h-0.7c0.4,0.4,0.9,0.9,1.1,1.1c2.7,2.9,3.9,5.6,3.5,8.5c-0.5,4.2-4.4,6.9-4.4,7
		c-17,12.7-17.4,31.3-16.2,41.2c0.2,1.4-0.3,2.9-1.2,4c-1,1-2.4,1.7-3.8,1.7h-41.2v0.5h41.2c1.6,0,3.1-0.7,4.2-1.9
		c1-1.1,1.5-2.8,1.3-4.4c-1.2-9.8-0.8-28.2,16-40.8c0.2-0.1,4.1-2.8,4.6-7.2c0.3-3-1-5.9-3.7-8.8
		C379.9,321.8,379.6,321.5,379.2,321.1z"/>
	<path fill="#231F20" d="M379.8,321.1c2.7,2.9,3.8,5.6,3.5,8.4c-0.5,4.2-4.4,6.9-4.4,7c-17,12.7-17.3,31.3-16.2,41.2
		c0.2,1.4-0.3,2.9-1.2,4c-1,1-2.4,1.7-3.8,1.7h-41.2v0.5h41.2c1.6,0,3.1-0.7,4.2-1.9c1-1.1,1.5-2.8,1.3-4.4
		c-1.2-9.8-0.8-28.2,16-40.8c0.2-0.1,4.1-2.8,4.6-7.2c0.3-2.8-0.9-5.6-3.4-8.5L379.8,321.1L379.8,321.1z"/>
	<g>
		<path fill="#838383" d="M365.2,362.2C365.2,362.2,365.2,362.1,365.2,362.2l-3.3-0.9c-0.2,0-0.3-0.2-0.2-0.4c0-0.2,0.2-0.3,0.4-0.2
			l3.2,0.9c0.2,0,0.3,0.2,0.2,0.4C365.5,362.1,365.4,362.2,365.2,362.2z"/>
	</g>
	<g>
		<path fill="#838383" d="M364.2,373.1C364.1,373.1,364.1,373,364.2,373.1l-3.3-0.7c-0.2,0-0.3-0.2-0.3-0.4s0.2-0.3,0.4-0.3l3.2,0.6
			c0.2,0,0.3,0.2,0.3,0.4C364.4,372.9,364.3,373.1,364.2,373.1z"/>
	</g>
	<g>
		<path fill="#838383" d="M369.3,351c-0.1,0-0.1,0-0.2,0l-3-1.6c-0.2-0.1-0.2-0.3-0.1-0.4c0.1-0.2,0.3-0.2,0.4-0.1l3,1.6
			c0.2,0.1,0.2,0.3,0.1,0.4C369.5,350.9,369.4,351,369.3,351z"/>
	</g>
	<g>
		<path fill="#838383" d="M377.9,340.3c-0.1,0-0.1,0-0.2,0l-3-1.6c-0.2-0.1-0.2-0.3-0.1-0.4c0.1-0.2,0.3-0.2,0.4-0.1l3,1.6
			c0.2,0.1,0.2,0.3,0.1,0.4C378.1,340.2,378,340.3,377.9,340.3z"/>
	</g>
	<g>
		<path fill="#838383" d="M385.2,330.4C385.2,330.4,385.1,330.4,385.2,330.4l-3.3-0.3c-0.2,0-0.3-0.2-0.3-0.4c0-0.2,0.2-0.3,0.4-0.3
			l3.3,0.3c0.2,0,0.3,0.2,0.3,0.4C385.5,330.3,385.3,330.4,385.2,330.4z"/>
	</g>
	<path fill="#EDECEB" d="M459.5,314.9h-78.6c-1.4,0-2.6-1.1-2.6-2.6v-28.9c0-0.1,0-0.1,0-0.1l-0.8-1.5c0,0,0,0-0.1,0h-7.4
		c-0.1,0-0.2,0.2-0.1,0.2c0.6,0.4,1,1,1,1.6v31.1c0,3.5,2.9,6.4,6.4,6.4l78.9-0.1c1,0,1.7,0.8,1.7,1.7v54.4c0,1.8,1.2,3.4,3,3.7
		c2.3,0.4,4.3-1.3,4.3-3.5v-56.8C465.2,317.4,462.7,314.9,459.5,314.9z"/>
	<path opacity="0.3" fill="#DAD9D8" enable-background="new    " d="M459.7,314.9h-26.1l9,6.1h13.8c0.9,0,1.6,0.8,1.6,1.6v54.8
		c0,2,1.6,3.6,3.5,3.6c2,0,3.6-1.6,3.6-3.6v-57.1C465.2,317.4,462.8,314.9,459.7,314.9z"/>
	<path fill="#5C5C5C" d="M316,385.8h-81.1c-0.3,0-0.6-0.3-0.6-0.6v-2.7c0-0.3,0.3-0.6,0.6-0.6H316c0.3,0,0.6,0.3,0.6,0.6v2.7
		C316.5,385.5,316.3,385.8,316,385.8z"/>
	<path fill="#838383" d="M234.4,382.6v1.4h82.1v-1.4c0-0.4-0.3-0.6-0.6-0.6h-81C234.6,382,234.4,382.3,234.4,382.6z"/>
	<path fill="#E5E5E4" d="M410.2,327.5c-24.4,0-44.1,19.7-44.1,44.1c0,2.6,0.2,5.1,0.7,7.6l4.7,0.2c0,0-5.6-19.2,10.1-35.5
		c0,0,16.3-17.8,40.7-10c0,0,19.6,4.5,26.4,25.9c0,0,1.5,4.5,1.3,10.1c0,1.8,0,5.2-0.8,9.5l4.5-0.4c0.4-2.5,0.7-5,0.7-7.5
		C454.3,347.2,434.5,327.5,410.2,327.5z"/>
	<g>
		<circle fill="#2A2B2A" cx="463.7" cy="388" r="2.3"/>
		<path fill="#2A2B2A" d="M456.2,385.7h-12.6c-1-0.2-1.9-1.1-1.9-2.3c0-1.2,1-2.3,2.3-2.3h1.7l0,0h8.3c1.2,0,2.3-1,2.3-2.3
			c0-1.2-1-2.3-2.3-2.3h-6.3c-1.1-0.2-1-1.5-1-1.5l0,0c0.1-1.1,0.2-2.3,0.2-3.4c0-20.3-16.5-36.8-36.8-36.8s-36.8,16.5-36.8,36.8
			c0,20.3,16.5,36.8,36.8,36.8c12.6,0,23.6-6.3,30.3-16l0,0c0,0,0,0,0.1-0.1c0,0,0,0,0-0.1c0.3-0.5,1.5-2,3.7-2l0,0h11.9
			c1.2,0,2.3-1,2.3-2.3C458.5,386.7,457.5,385.7,456.2,385.7z"/>
	</g>
	<path opacity="0.84" fill="#3A3A3A" enable-background="new    " d="M432.7,381c-0.9,0-1.5-0.7-1.5-1.5s0.7-1.5,1.5-1.5h1.1
		c0.6-2,0.9-4.2,0.9-6.4c0-13.5-11-24.5-24.5-24.5c-13.5,0-24.5,11-24.5,24.5s11,24.5,24.5,24.5C420.4,396.1,429.1,389.8,432.7,381
		L432.7,381z"/>
	<path fill="#EDECEB" d="M423,376.9c-0.5,0-0.9-0.4-0.9-0.9c0-0.5,0.4-0.9,0.9-0.9h0.7c0.3-1.1,0.5-2.4,0.5-3.6
		c0-7.7-6.2-13.9-13.9-13.9c-7.7,0-13.9,6.2-13.9,13.9s6.2,13.9,13.9,13.9C416,385.5,421,382,423,376.9L423,376.9z"/>
	<g>
		<path fill="#686969" d="M410.2,397.9c-14.5,0-26.3-11.8-26.3-26.3s11.8-26.3,26.3-26.3s26.3,11.8,26.3,26.3
			C436.5,386.1,424.7,397.9,410.2,397.9z M410.2,349.3c-12.3,0-22.3,10-22.3,22.3s10,22.3,22.3,22.3c12.3,0,22.3-10,22.3-22.3
			S422.5,349.3,410.2,349.3z"/>
	</g>
	<g>
		<path fill="#231F20" d="M410.2,386.7c-8.3,0-15.1-6.8-15.1-15.1c0-8.3,6.8-15.1,15.1-15.1s15.1,6.8,15.1,15.1
			S418.5,386.7,410.2,386.7z M410.2,359.5c-6.8,0-12.2,5.4-12.2,12.2c0,6.8,5.4,12.2,12.2,12.2s12.2-5.4,12.2-12.2
			S416.9,359.5,410.2,359.5z"/>
	</g>
	<circle fill="#231F20" cx="410.2" cy="371.5" r="2.8"/>
	<path fill="#EDECEB" d="M410.4,327.5c-0.1,0-0.1,0-0.2,0c-24.4,0-44.1,19.7-44.1,44.1c0,2.6,0.2,5.1,0.7,7.6l4.7,0.2
		c0,0-5.6-19.2,10.1-35.5c0,0,11.1-12.2,28.9-12V327.5z"/>
	<path fill="#E5E5E4" d="M140.4,335.3L140.4,335.3v4.8c2,0,4.1,0.2,6.3,0.6c0,0,0,0,0.1,0c1.9,0.4,3.8,0.9,5.7,1.5c0,0,0,0-0.1-0.1
		c3.3,1.1,5.3,2.4,5.3,2.4c20.5,11.3,17.8,35,17.8,35h5.1C183.1,351.7,162.1,335.3,140.4,335.3z"/>
	<g>
		<circle fill="#EDECEB" cx="140.4" cy="374.5" r="10.7"/>
	</g>
	<g>
		<circle fill="#231F20" cx="140.4" cy="374.5" r="2.8"/>
	</g>
	<g>
		<path fill="#838383" d="M99.2,339.9c-0.2,0-0.3-0.1-0.3-0.3v-3.3c0-0.2,0.1-0.3,0.3-0.3c0.2,0,0.3,0.1,0.3,0.3v3.3
			C99.5,339.8,99.4,339.9,99.2,339.9z"/>
	</g>
	<g>
		<path fill="#838383" d="M111,341.2c-0.2,0-0.3-0.1-0.3-0.3v-3.3c0-0.2,0.1-0.3,0.3-0.3c0.2,0,0.3,0.1,0.3,0.3v3.3
			C111.4,341.1,111.2,341.2,111,341.2z"/>
	</g>
	<g>
		<path fill="#838383" d="M126.2,338.5c-0.1,0-0.3-0.1-0.3-0.2l-1.1-3.1c-0.1-0.2,0-0.4,0.2-0.4c0.2-0.1,0.4,0,0.4,0.2l1.1,3.1
			C126.6,338.3,126.5,338.5,126.2,338.5C126.3,338.5,126.3,338.5,126.2,338.5z"/>
	</g>
	<g>
		<path fill="#838383" d="M139.5,335.9c-0.2,0-0.3-0.1-0.3-0.3l-0.1-3.3c0-0.2,0.1-0.3,0.3-0.3c0.2,0,0.3,0.1,0.3,0.3l0.1,3.3
			C139.9,335.7,139.7,335.9,139.5,335.9L139.5,335.9z"/>
	</g>
	<g>
		<path fill="#838383" d="M153.2,337.5L153.2,337.5c-0.3-0.1-0.4-0.2-0.3-0.4l1-3.1c0.1-0.2,0.2-0.3,0.4-0.2
			c0.2,0.1,0.3,0.2,0.2,0.4l-1,3.1C153.5,337.4,153.3,337.5,153.2,337.5z"/>
	</g>
	<g>
		<path fill="#838383" d="M164.7,343.4c-0.1,0-0.1,0-0.2-0.1c-0.2-0.1-0.2-0.3-0.1-0.5l1.8-2.8c0.1-0.2,0.3-0.2,0.5-0.1
			c0.2,0.1,0.2,0.3,0.1,0.5l-1.8,2.8C164.9,343.3,164.8,343.4,164.7,343.4z"/>
	</g>
</g>
</svg>
