<?xml version="1.0" encoding="utf-8"?>
<!-- Generator: Adobe Illustrator 18.0.0, SVG Export Plug-In . SVG Version: 6.00 Build 0)  -->
<!DOCTYPE svg PUBLIC "-//W3C//DTD SVG 1.1//EN" "http://www.w3.org/Graphics/SVG/1.1/DTD/svg11.dtd">
<svg version="1.1" id="Layer_1" xmlns="http://www.w3.org/2000/svg" xmlns:xlink="http://www.w3.org/1999/xlink" x="0px" y="0px"
	 viewBox="90 0 611.8 612" enable-background="new 90 0 611.8 612" xml:space="preserve">
<rect x="90.4" y="-0.2" fill="#C7E2DE" width="611.4" height="612.4"/>
<polygon opacity="0.27" fill="#FFF5E7" enable-background="new    " points="261.4,330.9 90.4,257.9 90,405.1 263.2,333.9 "/>
<g>
	<ellipse opacity="0.58" fill="#BCD3CF" cx="419.7" cy="480.8" rx="220.9" ry="18"/>
	<g>
		<circle fill="#FAD9DE" cx="264.4" cy="449" r="31.8"/>
		<circle fill="#CB99A7" cx="264.4" cy="449.2" r="22.2"/>
		<circle fill="#FAD9DE" cx="265.6" cy="449.6" r="7.1"/>
		<path fill="#FAD9DE" d="M274.6,408.2c0,0-35.1-2.4-51,25.5c-0.4,0.8,0.2,2.2,1.4,2.2h49.6V408.2z"/>
		<g>
			<path fill="#CB99A7" d="M224,432.9c-0.2,0.2-0.4,0.6-0.4,0.8c-0.4,0.8,0.2,2.2,1.4,2.2h49.6v-3.3H224V432.9z"/>
		</g>
		<path opacity="0.3" fill="#FFFFFF" enable-background="new    " d="M223.4,434.9c4.9-4.1,20.4-20.4,45.7-21.4l-0.2-5.3
			c0,0-31.4,0-45.7,25.7C223.2,434.1,223.4,434.9,223.4,434.9z"/>
		<rect x="411.9" y="259.7" fill="#CB99A7" width="15.5" height="188.1"/>
		<ellipse fill="#FFF3DF" cx="255.4" cy="332.5" rx="6.5" ry="13.5"/>
		<polygon fill="#FAD9DE" points="271.2,357.8 265,357.8 265,340.3 271.2,334.2 		"/>
		<path fill="#F6B7C6" d="M269.3,337.8L257.5,348c-1.2,0.8-2.7,0.2-2.7-1.2l0.2-29.4c0-1.4,1.8-2,2.7-1.2l11.8,13.7
			C271.8,332.3,271.6,335.8,269.3,337.8z"/>
		<path fill="#FAD9DE" d="M416.4,452.5V246.2c0,0-2-14.5-50-13.3c-8.4,0.2-20,0.4-30.2,2.2c0,0-16.5,3.5-21,14.7l-46.1,92.6
			c0,0-5.9,9.8-5.7,34.9l-0.2,63.2c0,0,0,11.4,12,11.6h141.2V452.5z"/>
		<path fill="#CB99A7" d="M258.1,316.8l-0.2-0.4c-0.8-1.2-2.7-0.4-2.7,1.2L255,347c0,1.4,1.6,2,2.7,1.2l0.2-0.2L258.1,316.8z"/>
		<path opacity="0.14" fill="#FFFFFF" enable-background="new    " d="M366.4,233c-8.4,0.2-20,0.4-30.2,2.2c0,0-16.5,3.5-21,14.7
			l-46.1,92.6c0,0-2.7,4.5-4.5,15.3h151.6V246.2C416.4,246.2,414.6,231.9,366.4,233z"/>
		<rect x="422.3" y="255" fill="#F6B7C6" width="247.2" height="198.5"/>
		<path fill="#A79498" d="M277.1,326.8h5.7l38.1-76.9h-5.5C315.4,249.9,293,291.5,277.1,326.8z"/>
		<polygon fill="#F6B7C6" points="335,249.9 401.7,249.9 401.7,452.5 296.4,452.5 296.4,329.5 		"/>
		<path fill="#A79498" d="M341.5,259.3L313,319.1c-1.8,3.5,0.6,7.8,4.9,7.8h74.9v-67.5H341.5L341.5,259.3z"/>
		<path fill="#A79498" d="M296.4,357.8v94.5h105.3v-94.5H296.4L296.4,357.8z M348.9,408.2l44.7,39.8h-89.4L348.9,408.2z
			 M300.7,444.9v-79.4l44.7,39.8L300.7,444.9z M352.5,405.1l44.7-39.8v79.4L352.5,405.1z M348.9,401.9l-44.7-39.6h89.6L348.9,401.9z
			 M300.7,362.3L300.7,362.3L300.7,362.3L300.7,362.3z"/>
		
			<text transform="matrix(1 0 0 1 482.7641 325.8801)" fill="#CB99A7" font-family="'BrandonGrotesque-Medium'" font-size="27.8733">MENDEL’S</text>
		<path fill="#A79498" d="M390.7,339.9h-9c-0.8,0-1.8-0.6-1.8-1.8v-0.4c0-0.8,0.6-1.8,1.8-1.8h9c0.8,0,1.8,0.6,1.8,1.8v0.4
			C392.3,339,391.7,339.9,390.7,339.9z"/>
		<polygon opacity="0.2" fill="#FFFFFF" enable-background="new    " points="422.3,255 422.3,260.1 670.4,295.4 670.4,255 		"/>
		<path fill="#A79498" d="M422.3,255v201.3h248.3v-93.8v-4.3v-103H422.3V255z M665.7,296.4c-0.2,0-0.4,0-0.6,0c-0.2,0-0.2,0-0.4,0
			l-34.9-35.9c0-0.2,0-0.4,0-0.6s0-0.2,0-0.4h36.1v36.9H665.7z M427,259.5h36.5v0.2c0,0.2,0,0.2,0,0.4L427.6,295c-0.2,0-0.4,0-0.6,0
			L427,259.5L427,259.5z M427,365.2l55.1,41.8L427,448.6V365.2z M430.9,362.3h110l-55.1,41.8L430.9,362.3z M430.9,451.5l55.1-41.8
			l55.1,41.8H430.9z M544.9,448.6l-55.1-41.8l55.1-41.8V448.6z M549.2,451.5L549.2,451.5L549.2,451.5L549.2,451.5z M604.1,406.6
			l-54.9,42v-83.4L604.1,406.6z M549.2,362.3L549.2,362.3L549.2,362.3L549.2,362.3z M553.1,362.3H662L608,403.7L553.1,362.3z
			 M553.1,451.5l54.9-42l55.5,42H553.1z M665.7,447.6l-54.1-40.8l54.1-41.4V447.6z M665.7,362.3L665.7,362.3L665.7,362.3
			L665.7,362.3z M427,357.8v-54.9c2,0,3.9-1.8,3.9-3.9c0-0.2,0-0.2,0-0.4l35.9-34.9c0.2,0,0.4,0,0.6,0c2,0,3.9-1.8,3.9-3.9v-0.2H622
			c0,0.2,0,0.2,0,0.4c0,2,1.8,3.9,3.9,3.9c0.2,0,0.2,0,0.4,0l34.9,35.9c0,0.2,0,0.4,0,0.6c0,2,1.8,3.9,3.9,3.9c0.2,0,0.4,0,0.6,0
			V358H427V357.8z"/>
		<circle fill="#FAD9DE" cx="546.6" cy="446.6" r="34.3"/>
		<circle fill="#CB99A7" cx="546.6" cy="449.6" r="22.4"/>
		<path fill="#A79498" d="M516.8,456.3c-0.4-2-0.6-4.1-0.6-6.1c0-16.7,13.5-30.2,30.2-30.2c16.7,0,30.2,13.5,30.2,30.2
			c0,2-0.2,4.1-0.6,6.1h12.2c0.2-2,0.4-4.1,0.4-6.1c0-23.5-19-42.4-42.4-42.4c-23.5,0-42.4,19-42.4,42.4c0,2,0.2,4.1,0.4,6.1H516.8z
			"/>
		<circle fill="#FAD9DE" cx="546.6" cy="449.6" r="7.1"/>
		<path opacity="0.3" fill="#FFFFFF" enable-background="new    " d="M545.5,445.3c3.9,0,7.1,3.3,7.1,7.1c0,0.2,0,0.4,0,0.4
			c0.4-0.8,0.8-2,0.8-3.5c0-3.9-3.3-7.1-7.1-7.1c-3.7,0-6.5,3.1-6.9,6.3C540.4,447,542.9,445.3,545.5,445.3z"/>
		<polygon opacity="0.15" fill="#FFFFFF" enable-background="new    " points="330.9,281.5 328.1,287 392.5,315.6 392.5,309.5 		"/>
		<polygon opacity="0.15" fill="#FFFFFF" enable-background="new    " points="335.8,271.3 333,276.8 392.5,303.8 392.5,297.4 		"/>
		<path fill="#FFF3DF" d="M396.4,263.8h-60.8v-0.4c0-4.9,3.9-9,9-9h43.2c4.9,0,9,3.9,9,9v0.4H396.4z"/>
		<path fill="#CB99A7" d="M560,295.2c-0.4,0.6-0.8,1.2-1.6,1.8c-1.4,1.6-3.5,2.7-5.5,3.5c-1.2,0.2-2.4,0.2-3.5-0.4
			c-0.2,0-0.4,0-0.4,0c-1.6,0.8-3.5,0.6-5.1,0c-1.8-0.6-3.5-2-4.9-3.7c-0.2-0.2-0.4-0.4-0.6-0.8c-0.6,0.4-1.4,0.8-1.8,1.4
			c-1.4,1.2-2.7,2.2-4.3,3.1c-1.6,0.6-3.3,1.2-4.9,1.2c-2.4,0-4.1-1.4-4.5-3.7c-0.4-1.8,0.2-3.3,1.6-4.5c0.6-0.6,1.6-1.4,2.7-1.8
			c1.4-0.6,2.4-0.6,3.9,0c0.2,0,0.2,0.2,0.4,0.2c0.2,0.2,0.2,0.4,0,0.6c-0.2,0.2-0.4,0.2-0.6,0c0,0-0.2,0-0.2-0.2
			c-0.6-1.2-1.6-0.8-2.4-0.6c-0.6,0.2-1.6,0.4-2,0.8c-0.4,0.4-0.8,0.6-1.4,1.2c-1.8,1.8-1.8,4.5,0.2,6.3c1.2,0.8,2.2,1.2,3.7,0.6
			c2.4-1.2,5.1-2.7,7.1-4.3c0.4-0.4,1.2-0.8,1.6-1.2c0.2-0.2,0.4-0.4,0.6-0.6c0-0.2-0.2-0.4-0.2-0.4c-0.2-0.8-0.4-1.8-0.6-2.7
			c0-0.2,0-0.4,0-0.6s0.2-0.2,0.4-0.2c0.2,0,0.4,0,0.4,0.2s0.2,0.4,0,0.6c-0.2,1.2-0.2,1.8,0.6,2.7c0.2,0,0.4-0.2,0.6-0.2
			c1.4-0.8,3.1-1.4,4.5-1.8c1.8-0.4,4.1-0.2,5.9,0.8c0.8-0.4,1.8-0.8,2.7-0.8c1.4-0.2,2.7-0.2,4.1,0.2c1.4,0.4,2.7,1.2,4.1,1.8
			c0.4-0.6,0.8-1.6,0.4-2.4c0-0.2-0.2-0.4-0.2-0.8c0-0.2,0.2-0.4,0.4-0.4c0.2,0,0.4,0.2,0.4,0.4c0,0.4,0,0.8-0.2,1.4
			c-0.2,0.6-0.4,1.6-0.6,2.2c0,0,0.2,0,0.2,0.2c2,1.6,4.1,3.1,6.1,4.3c0.8,0.6,1.8,0.8,3.1,1.6c1.4,0.6,3.1,0.2,3.9-0.6
			c1.8-1.6,1.8-4.5,0-6.1c-0.6-0.6-1.4-1.2-2.2-1.8c-0.6-0.4-1.4-0.6-2.2-0.6c-0.4,0-0.8,0.2-1.4,0.4c0,0.2-0.2,0.2-0.2,0.4
			c-0.2,0.2-0.6,0.2-0.6,0c-0.2-0.2-0.2-0.6,0.2-0.6c0.4-0.2,1.2-0.4,1.6-0.4c0.8-0.2,1.8,0,2.4,0.4c1.2,0.4,2.2,1.4,3.1,2.2
			c1.8,2,1.6,4.5,0,6.3c-0.6,0.8-1.6,1.2-2.7,1.4c-0.8,0-1.8,0-3.1-0.2c-2.4-0.6-4.5-1.8-6.3-3.5C561.9,296.4,560.8,296,560,295.2z
			 M550,293.4c0.6,1.2,1.2,2,1.2,3.3c-0.2,1.2-0.8,2-1.6,3.1c0,0,0,0,0.2,0.2c0,0,0,0,0.2,0c0.8,0.4,2,0.4,3.3,0.2
			c2.4-0.8,4.9-2.2,6.1-4.5c0,0,0-0.2,0.2-0.4c-0.8-0.4-1.6-0.8-2.4-1.2c-1.6-0.6-3.5-1.2-5.3-0.6
			C551.2,293.1,550.6,293.1,550,293.4z M548.4,293.4c-1.4-0.6-2.7-0.6-4.1-0.4c-1.8,0.2-3.7,1.2-5.3,2c0.6,0.8,1.4,1.8,2,2.4
			c1.6,1.4,3.3,2.2,5.3,2.7c0.8,0.2,1.8,0,2.7-0.6C547,297.6,546.8,295.6,548.4,293.4z M549.2,294c-2,1.4-1.8,3.7,0,5.1
			C551.2,297.4,551,295.4,549.2,294z"/>
		<path fill="#CB99A7" d="M549.8,334.4c0.2,0.2,0.6,0.2,0.8,0.4h0.2c1.4-0.6,2.7-0.8,4.3-0.8c0.4,0,0.8,0,1.4,0.2
			c0.2,0,0.2,0.2,0.4,0.2c0.6,0.4,0.4,1.2-0.2,1.6c-0.4,0.2-1.2,0.2-1.8,0.2c-1.4-0.2-2.7-0.4-4.1-0.8c-0.2,0-0.4,0-0.4,0
			c-0.6,0.4-1.6,0.8-2.2,1.4L548,337c0.2,0,0.2,0.2,0.2,0.2c0.6,0.2,1.4,0.6,2.2,0.8c0.4,0.2,0.8,0.4,1.4,0.6c0.8,0.4,2,0.8,3.1,0.8
			c1.2,0.2,2.2,0,3.5-0.4c0.4-0.2,0.8-0.4,0.8-0.8V338l0.2-0.2l0.2,0.2c0,0.2-0.2,0.4-0.4,0.6c-0.4,0.4-0.8,0.6-1.6,0.8
			c-0.4,0-1.2,0.2-1.6,0.2c-1.6,0.2-2.7-0.2-4.1-0.8c-1.4-0.6-2.7-1.2-4.1-1.8c-0.2,0-0.4,0-0.6,0c-1.8,1.2-3.7,2-5.7,2.4
			c-0.6,0.2-1.2,0.2-1.8,0.2c-0.8-0.2-1.6-0.8-1.6-1.8c0-0.6,0.2-1.2,0.6-1.6c0.6-0.4,1.4-0.6,2.2-0.8c1.6-0.2,3.3,0,4.9,0.2
			c0.4,0.2,0.8,0.2,1.6,0.4c0.2,0,0.2,0,0.4,0c0.6-0.4,1.4-0.8,2.2-1.4c0.2,0,0.2-0.2,0.4-0.2C550.4,334.8,550,334.6,549.8,334.4
			c-0.2,0.2-0.4,0.2-0.6,0.4c-1.4,0.4-2.7,0.6-4.1,0.2c-0.2,0-0.4-0.2-0.6-0.4c-0.2-0.4,0-0.8,0.4-1.2c0.4-0.2,1.2-0.4,1.6-0.2
			c0.6,0.2,1.6,0.4,2.2,0.6l0,0c0.2,0,0.4,0.4,0.6,0.2c0.4-0.2,0.6-0.4,0.6-0.8c0-0.2,0-0.2,0-0.4l0.2-0.2l0.2,0.2
			c0,0.2-0.2,0.4-0.2,0.6C550.6,333.7,550.4,334.2,549.8,334.4z M547.6,337c-0.2-0.2-0.4-0.2-0.6-0.2c-2-0.6-4.3-0.8-6.3-0.4
			c-0.4,0-0.8,0.4-1.2,0.8c0,0.2,0,0.4-0.2,0.8c0,1.2,1.2,2,2.2,1.6c1.6-0.4,3.1-0.8,4.3-1.8C546.6,337.6,547,337.4,547.6,337z
			 M551.4,335.2c0.2,0,0.4,0.2,0.4,0.2c0.8,0.2,2,0.4,3.1,0.6c0.4,0,0.6,0.2,1.2,0c0.6,0,0.8-0.6,0.6-1.2c-0.2-0.2-0.4-0.4-0.8-0.4
			c-0.8-0.2-1.6,0-2.4,0.2C552.9,334.4,552.3,334.6,551.4,335.2z M549.2,334.4L549.2,334.4c-0.6-0.4-1.4-0.6-2.2-0.8
			c-0.2,0-0.4,0-0.6-0.2c-0.4,0-0.8,0.2-0.8,0.6s0,0.6,0.4,0.8c0.2,0,0.2,0.2,0.4,0.2c0.8,0,1.6,0,2.2-0.2
			C549,334.6,549.2,334.6,549.2,334.4z"/>
	</g>
</g>
</svg>
