<?xml version="1.0" encoding="utf-8"?>
<!-- Generator: Adobe Illustrator 18.0.0, SVG Export Plug-In . SVG Version: 6.00 Build 0)  -->
<!DOCTYPE svg PUBLIC "-//W3C//DTD SVG 1.1//EN" "http://www.w3.org/Graphics/SVG/1.1/DTD/svg11.dtd">
<svg version="1.1" id="Layer_1" xmlns="http://www.w3.org/2000/svg" xmlns:xlink="http://www.w3.org/1999/xlink" x="0px" y="0px"
	 viewBox="0 0 300 300" enable-background="new 0 0 300 300" xml:space="preserve">
<rect x="0.2" y="-0.1" fill="#C6DBD8" width="299.7" height="300.2"/>
<polygon opacity="0.27" fill="#FFF5E7" enable-background="new    " points="84,162.2 0.2,126.4 0,198.6 84.9,163.7 "/>
<g>
	<ellipse fill="#BCD3CF" cx="161.6" cy="235.7" rx="108.3" ry="8.8"/>
	<g>
		<circle fill="#FAD9DE" cx="85.5" cy="220.1" r="15.6"/>
		<circle fill="#CB99A7" cx="85.5" cy="220.2" r="10.9"/>
		<circle fill="#FAD9DE" cx="86.1" cy="220.4" r="3.5"/>
		<path fill="#FAD9DE" d="M90.5,200.1c0,0-17.2-1.2-25,12.5c-0.2,0.4,0.1,1.1,0.7,1.1h24.3L90.5,200.1z"/>
		<g>
			<path fill="#CB99A7" d="M65.7,212.2c-0.1,0.1-0.2,0.3-0.2,0.4c-0.2,0.4,0.1,1.1,0.7,1.1h24.3v-1.6H65.7z"/>
		</g>
		<path opacity="0.3" fill="#FFFFFF" enable-background="new    " d="M65.4,213.2c2.4-2,10-10,22.4-10.5l-0.1-2.6
			c0,0-15.4,0-22.4,12.6C65.3,212.8,65.4,213.2,65.4,213.2z"/>
		<rect x="157.8" y="127.3" fill="#CB99A7" width="7.6" height="92.2"/>
		<ellipse fill="#FFF3DF" cx="81.1" cy="163" rx="3.2" ry="6.6"/>
		<polygon fill="#FAD9DE" points="88.8,175.4 85.8,175.4 85.8,166.8 88.8,163.8 		"/>
		<path fill="#F6B7C6" d="M87.9,165.6l-5.8,5c-0.6,0.4-1.3,0.1-1.3-0.6l0.1-14.4c0-0.7,0.9-1,1.3-0.6l5.8,6.7
			C89.1,162.9,89,164.6,87.9,165.6z"/>
		<path fill="#FAD9DE" d="M160,221.8V120.7c0,0-1-7.1-24.5-6.5c-4.1,0.1-9.8,0.2-14.8,1.1c0,0-8.1,1.7-10.3,7.2l-22.6,45.4
			c0,0-2.9,4.8-2.8,17.1L84.9,216c0,0,0,5.6,5.9,5.7H160V221.8z"/>
		<path fill="#CB99A7" d="M82.4,155.3l-0.1-0.2c-0.4-0.6-1.3-0.2-1.3,0.6l-0.1,14.4c0,0.7,0.8,1,1.3,0.6l0.1-0.1L82.4,155.3z"/>
		<path opacity="0.3" fill="#FFFFFF" enable-background="new    " d="M135.5,114.2c-4.1,0.1-9.8,0.2-14.8,1.1c0,0-8.1,1.7-10.3,7.2
			l-22.6,45.4c0,0-1.3,2.2-2.2,7.5h74.3v-54.7C160,120.7,159.1,113.7,135.5,114.2z"/>
		<rect x="162.9" y="125" fill="#F6B7C6" width="121.2" height="97.3"/>
		<path fill="#A79498" d="M91.7,160.2h2.8l18.7-37.7h-2.7C110.5,122.5,99.5,142.9,91.7,160.2z"/>
		<polygon fill="#F6B7C6" points="120.1,122.5 152.8,122.5 152.8,221.8 101.2,221.8 101.2,161.5 		"/>
		<path fill="#A79498" d="M123.3,127.1l-14,29.3c-0.9,1.7,0.3,3.8,2.4,3.8h36.7v-33.1L123.3,127.1L123.3,127.1z"/>
		<path fill="#A79498" d="M101.2,175.4v46.3h51.6v-46.3L101.2,175.4L101.2,175.4z M126.9,200.1l21.9,19.5H105L126.9,200.1z
			 M103.3,218.1v-38.9l21.9,19.5L103.3,218.1z M128.7,198.6l21.9-19.5v38.9L128.7,198.6z M126.9,197L105,177.6h43.9L126.9,197z
			 M103.3,177.6L103.3,177.6L103.3,177.6L103.3,177.6z"/>
		
			<text transform="matrix(1 0 0 1 192.5312 159.7451)" fill="#CB99A7" font-family="'BrandonGrotesque-Medium'" font-size="13.6634">MENDEL’S</text>
		<path fill="#A79498" d="M147.4,166.6h-4.4c-0.4,0-0.9-0.3-0.9-0.9v-0.2c0-0.4,0.3-0.9,0.9-0.9h4.4c0.4,0,0.9,0.3,0.9,0.9v0.2
			C148.2,166.2,147.9,166.6,147.4,166.6z"/>
		<polygon opacity="0.2" fill="#FFFFFF" enable-background="new    " points="162.9,125 162.9,127.5 284.5,144.8 284.5,125 		"/>
		<path fill="#A79498" d="M162.9,125v98.7h121.7v-46v-2.1v-50.5H162.9V125z M282.2,145.3c-0.1,0-0.2,0-0.3,0c-0.1,0-0.1,0-0.2,0
			l-17.1-17.6c0-0.1,0-0.2,0-0.3s0-0.1,0-0.2h17.7V145.3z M165.2,127.2h17.9v0.1c0,0.1,0,0.1,0,0.2l-17.6,17.1c-0.1,0-0.2,0-0.3,0
			V127.2z M165.2,179l27,20.5l-27,20.4V179z M167.1,177.6h53.9l-27,20.5L167.1,177.6z M167.1,221.3l27-20.5l27,20.5H167.1z
			 M223,219.9l-27-20.5l27-20.5V219.9z M225.1,221.3L225.1,221.3L225.1,221.3L225.1,221.3z M252,199.3l-26.9,20.6V179L252,199.3z
			 M225.1,177.6L225.1,177.6L225.1,177.6L225.1,177.6z M227,177.6h53.4l-26.5,20.3L227,177.6z M227,221.3l26.9-20.6l27.2,20.6H227z
			 M282.2,219.4l-26.5-20l26.5-20.3V219.4z M282.2,177.6L282.2,177.6L282.2,177.6L282.2,177.6z M165.2,175.4v-26.9
			c1,0,1.9-0.9,1.9-1.9c0-0.1,0-0.1,0-0.2l17.6-17.1c0.1,0,0.2,0,0.3,0c1,0,1.9-0.9,1.9-1.9v-0.1h73.9c0,0.1,0,0.1,0,0.2
			c0,1,0.9,1.9,1.9,1.9c0.1,0,0.1,0,0.2,0l17.1,17.6c0,0.1,0,0.2,0,0.3c0,1,0.9,1.9,1.9,1.9c0.1,0,0.2,0,0.3,0v26.3H165.2V175.4z"/>
		<circle fill="#FAD9DE" cx="223.8" cy="218.9" r="16.8"/>
		<circle fill="#CB99A7" cx="223.8" cy="220.4" r="11"/>
		<path fill="#A79498" d="M209.2,223.7c-0.2-1-0.3-2-0.3-3c0-8.2,6.6-14.8,14.8-14.8c8.2,0,14.8,6.6,14.8,14.8c0,1-0.1,2-0.3,3h6
			c0.1-1,0.2-2,0.2-3c0-11.5-9.3-20.8-20.8-20.8s-20.8,9.3-20.8,20.8c0,1,0.1,2,0.2,3H209.2z"/>
		<circle fill="#FAD9DE" cx="223.8" cy="220.4" r="3.5"/>
		<path opacity="0.3" fill="#FFFFFF" enable-background="new    " d="M223.3,218.3c1.9,0,3.5,1.6,3.5,3.5c0,0.1,0,0.2,0,0.2
			c0.2-0.4,0.4-1,0.4-1.7c0-1.9-1.6-3.5-3.5-3.5c-1.8,0-3.2,1.5-3.4,3.1C220.8,219.1,222,218.3,223.3,218.3z"/>
		<polygon opacity="0.15" fill="#FFFFFF" enable-background="new    " points="118.1,138 116.7,140.7 148.3,154.7 148.3,151.7 		"/>
		<polygon opacity="0.15" fill="#FFFFFF" enable-background="new    " points="120.5,133 119.1,135.7 148.3,148.9 148.3,145.8 		"/>
		<path fill="#FFF3DF" d="M150.2,129.3h-29.8v-0.2c0-2.4,1.9-4.4,4.4-4.4H146c2.4,0,4.4,1.9,4.4,4.4v0.2H150.2z"/>
		<path fill="#CB99A7" d="M230.4,144.7c-0.2,0.3-0.4,0.6-0.8,0.9c-0.7,0.8-1.7,1.3-2.7,1.7c-0.6,0.1-1.2,0.1-1.7-0.2
			c-0.1,0-0.2,0-0.2,0c-0.8,0.4-1.7,0.3-2.5,0c-0.9-0.3-1.7-1-2.4-1.8c-0.1-0.1-0.2-0.2-0.3-0.4c-0.3,0.2-0.7,0.4-0.9,0.7
			c-0.7,0.6-1.3,1.1-2.1,1.5c-0.8,0.3-1.6,0.6-2.4,0.6c-1.2,0-2-0.7-2.2-1.8c-0.2-0.9,0.1-1.6,0.8-2.2c0.3-0.3,0.8-0.7,1.3-0.9
			c0.7-0.3,1.2-0.3,1.9,0c0.1,0,0.1,0.1,0.2,0.1c0.1,0.1,0.1,0.2,0,0.3c-0.1,0.1-0.2,0.1-0.3,0c0,0-0.1,0-0.1-0.1
			c-0.3-0.6-0.8-0.4-1.2-0.3c-0.3,0.1-0.8,0.2-1,0.4c-0.2,0.2-0.4,0.3-0.7,0.6c-0.9,0.9-0.9,2.2,0.1,3.1c0.6,0.4,1.1,0.6,1.8,0.3
			c1.2-0.6,2.5-1.3,3.5-2.1c0.2-0.2,0.6-0.4,0.8-0.6c0.1-0.1,0.2-0.2,0.3-0.3c0-0.1-0.1-0.2-0.1-0.2c-0.1-0.4-0.2-0.9-0.3-1.3
			c0-0.1,0-0.2,0-0.3c0-0.1,0.1-0.1,0.2-0.1c0.1,0,0.2,0,0.2,0.1c0,0.1,0.1,0.2,0,0.3c-0.1,0.6-0.1,0.9,0.3,1.3
			c0.1,0,0.2-0.1,0.3-0.1c0.7-0.4,1.5-0.7,2.2-0.9c0.9-0.2,2-0.1,2.9,0.4c0.4-0.2,0.9-0.4,1.3-0.4c0.7-0.1,1.3-0.1,2,0.1
			c0.7,0.2,1.3,0.6,2,0.9c0.2-0.3,0.4-0.8,0.2-1.2c0-0.1-0.1-0.2-0.1-0.4c0-0.1,0.1-0.2,0.2-0.2c0.1,0,0.2,0.1,0.2,0.2
			c0,0.2,0,0.4-0.1,0.7c-0.1,0.3-0.2,0.8-0.3,1.1c0,0,0.1,0,0.1,0.1c1,0.8,2,1.5,3,2.1c0.4,0.3,0.9,0.4,1.5,0.8
			c0.7,0.3,1.5,0.1,1.9-0.3c0.9-0.8,0.9-2.2,0-3c-0.3-0.3-0.7-0.6-1.1-0.9c-0.3-0.2-0.7-0.3-1.1-0.3c-0.2,0-0.4,0.1-0.7,0.2
			c0,0.1-0.1,0.1-0.1,0.2c-0.1,0.1-0.3,0.1-0.3,0c-0.1-0.1-0.1-0.3,0.1-0.3c0.2-0.1,0.6-0.2,0.8-0.2c0.4-0.1,0.9,0,1.2,0.2
			c0.6,0.2,1.1,0.7,1.5,1.1c0.9,1,0.8,2.2,0,3.1c-0.3,0.4-0.8,0.6-1.3,0.7c-0.4,0-0.9,0-1.5-0.1c-1.2-0.3-2.2-0.9-3.1-1.7
			C231.3,145.3,230.8,145.1,230.4,144.7z M225.5,143.8c0.3,0.6,0.6,1,0.6,1.6c-0.1,0.6-0.4,1-0.8,1.5c0,0,0,0,0.1,0.1c0,0,0,0,0.1,0
			c0.4,0.2,1,0.2,1.6,0.1c1.2-0.4,2.4-1.1,3-2.2c0,0,0-0.1,0.1-0.2c-0.4-0.2-0.8-0.4-1.2-0.6c-0.8-0.3-1.7-0.6-2.6-0.3
			C226.1,143.7,225.8,143.7,225.5,143.8z M224.7,143.8c-0.7-0.3-1.3-0.3-2-0.2c-0.9,0.1-1.8,0.6-2.6,1c0.3,0.4,0.7,0.9,1,1.2
			c0.8,0.7,1.6,1.1,2.6,1.3c0.4,0.1,0.9,0,1.3-0.3C224,145.9,223.9,144.9,224.7,143.8z M225.1,144.1c-1,0.7-0.9,1.8,0,2.5
			C226.1,145.8,226,144.8,225.1,144.1z"/>
		<path fill="#CB99A7" d="M225.4,163.9c0.1,0.1,0.3,0.1,0.4,0.2h0.1c0.7-0.3,1.3-0.4,2.1-0.4c0.2,0,0.4,0,0.7,0.1
			c0.1,0,0.1,0.1,0.2,0.1c0.3,0.2,0.2,0.6-0.1,0.8c-0.2,0.1-0.6,0.1-0.9,0.1c-0.7-0.1-1.3-0.2-2-0.4c-0.1,0-0.2,0-0.2,0
			c-0.3,0.2-0.8,0.4-1.1,0.7l-0.1,0.1c0.1,0,0.1,0.1,0.1,0.1c0.3,0.1,0.7,0.3,1.1,0.4c0.2,0.1,0.4,0.2,0.7,0.3
			c0.4,0.2,1,0.4,1.5,0.4c0.6,0.1,1.1,0,1.7-0.2c0.2-0.1,0.4-0.2,0.4-0.4v-0.1l0.1-0.1l0.1,0.1c0,0.1-0.1,0.2-0.2,0.3
			c-0.2,0.2-0.4,0.3-0.8,0.4c-0.2,0-0.6,0.1-0.8,0.1c-0.8,0.1-1.3-0.1-2-0.4c-0.7-0.3-1.3-0.6-2-0.9c-0.1,0-0.2,0-0.3,0
			c-0.9,0.6-1.8,1-2.8,1.2c-0.3,0.1-0.6,0.1-0.9,0.1c-0.4-0.1-0.8-0.4-0.8-0.9c0-0.3,0.1-0.6,0.3-0.8c0.3-0.2,0.7-0.3,1.1-0.4
			c0.8-0.1,1.6,0,2.4,0.1c0.2,0.1,0.4,0.1,0.8,0.2c0.1,0,0.1,0,0.2,0c0.3-0.2,0.7-0.4,1.1-0.7c0.1,0,0.1-0.1,0.2-0.1
			C225.7,164.1,225.5,164,225.4,163.9c-0.1,0.1-0.2,0.1-0.3,0.2c-0.7,0.2-1.3,0.3-2,0.1c-0.1,0-0.2-0.1-0.3-0.2
			c-0.1-0.2,0-0.4,0.2-0.6c0.2-0.1,0.6-0.2,0.8-0.1c0.3,0.1,0.8,0.2,1.1,0.3l0,0c0.1,0,0.2,0.2,0.3,0.1c0.2-0.1,0.3-0.2,0.3-0.4
			c0-0.1,0-0.1,0-0.2l0.1-0.1l0.1,0.1c0,0.1-0.1,0.2-0.1,0.3C225.8,163.6,225.7,163.8,225.4,163.9z M224.3,165.2
			c-0.1-0.1-0.2-0.1-0.3-0.1c-1-0.3-2.1-0.4-3.1-0.2c-0.2,0-0.4,0.2-0.6,0.4c0,0.1,0,0.2-0.1,0.4c0,0.6,0.6,1,1.1,0.8
			c0.8-0.2,1.5-0.4,2.1-0.9C223.8,165.5,224,165.4,224.3,165.2z M226.2,164.3c0.1,0,0.2,0.1,0.2,0.1c0.4,0.1,1,0.2,1.5,0.3
			c0.2,0,0.3,0.1,0.6,0c0.3,0,0.4-0.3,0.3-0.6c-0.1-0.1-0.2-0.2-0.4-0.2c-0.4-0.1-0.8,0-1.2,0.1C226.9,163.9,226.6,164,226.2,164.3z
			 M225.1,163.9L225.1,163.9c-0.3-0.2-0.7-0.3-1.1-0.4c-0.1,0-0.2,0-0.3-0.1c-0.2,0-0.4,0.1-0.4,0.3s0,0.3,0.2,0.4
			c0.1,0,0.1,0.1,0.2,0.1c0.4,0,0.8,0,1.1-0.1C225,164,225.1,164,225.1,163.9z"/>
	</g>
</g>
</svg>
