<?xml version="1.0" encoding="utf-8"?>
<!-- Generator: Adobe Illustrator 18.0.0, SVG Export Plug-In . SVG Version: 6.00 Build 0)  -->
<!DOCTYPE svg PUBLIC "-//W3C//DTD SVG 1.1//EN" "http://www.w3.org/Graphics/SVG/1.1/DTD/svg11.dtd">
<svg version="1.1" id="Layer_1" xmlns="http://www.w3.org/2000/svg" xmlns:xlink="http://www.w3.org/1999/xlink" x="0px" y="0px"
	 viewBox="0 0 576 576" enable-background="new 0 0 576 576" xml:space="preserve">
<rect x="0.5" y="-0.2" fill="#BCD3CF" width="575.4" height="576.4"/>
<polygon opacity="0.27" fill="#FFF5E7" enable-background="new    " points="168.5,308.8 0.4,250.4 0.1,369.9 170,311.3 "/>
<g>
	<ellipse opacity="0.58" fill="#B1C4C0" enable-background="new    " cx="321" cy="432.1" rx="180.9" ry="9.9"/>
	<g>
		<circle fill="#FAD9DE" cx="179.5" cy="405.5" r="25.8"/>
		<circle fill="#CB99A7" cx="179.5" cy="405.6" r="18"/>
		<circle fill="#FAD9DE" cx="180.5" cy="406" r="5.8"/>
		<path fill="#FAD9DE" d="M187.8,372.4c0,0-28.4-2-41.4,20.7c-0.3,0.7,0.2,1.8,1.1,1.8h40.2V372.4z"/>
		<g>
			<path fill="#CB99A7" d="M146.8,392.4c-0.2,0.2-0.3,0.5-0.3,0.7c-0.3,0.7,0.2,1.8,1.1,1.8h40.2v-2.7h-41
				C146.8,392.2,146.8,392.4,146.8,392.4z"/>
		</g>
		<path opacity="0.3" fill="#FFFFFF" enable-background="new    " d="M146.2,394c4-3.4,16.5-16.5,37.1-17.3l-0.2-4.3
			c0,0-25.5,0-37.1,20.9C146.2,393.4,146.2,394,146.2,394z"/>
		<rect x="299.2" y="251.9" fill="#CB99A7" width="12.6" height="152.5"/>
		<ellipse fill="#FFF3DF" cx="172.3" cy="310.9" rx="5.3" ry="10.9"/>
		<polygon fill="#FAD9DE" points="185,331.5 180,331.5 180,317.3 185,312.3 		"/>
		<path fill="#F6B7C6" d="M183.5,315.2l-9.6,8.3c-0.9,0.7-2.2,0.2-2.2-0.9l0.2-23.9c0-1.1,1.5-1.6,2.2-0.9l9.6,11.1
			C185.5,310.8,185.4,313.6,183.5,315.2z"/>
		<path fill="#FAD9DE" d="M302.8,408.3V241c0,0-1.6-11.7-40.6-10.8c-6.8,0.2-16.2,0.3-24.5,1.8c0,0-13.4,2.8-17.1,11.9L183.3,319
			c0,0-4.8,7.9-4.7,28.3l-0.2,51.3c0,0,0,9.2,9.7,9.4h114.5L302.8,408.3L302.8,408.3z"/>
		<path fill="#CB99A7" d="M174.4,298.3l-0.2-0.3c-0.7-0.9-2.2-0.3-2.2,0.9l-0.2,23.9c0,1.1,1.3,1.6,2.2,0.9l0.2-0.2L174.4,298.3z"/>
		<path opacity="0.14" fill="#FFFFFF" enable-background="new    " d="M262.2,230.3c-6.8,0.2-16.2,0.3-24.5,1.8
			c0,0-13.4,2.8-17.1,11.9l-37.4,75.1c0,0-2.2,3.6-3.6,12.4h123V241C302.8,241,301.4,229.4,262.2,230.3z"/>
		<rect x="307.6" y="248.1" fill="#F6B7C6" width="200.5" height="161"/>
		<path fill="#A79498" d="M189.8,306.4h4.7l30.9-62.4H221C220.9,244,202.8,277.8,189.8,306.4z"/>
		<polygon fill="#F6B7C6" points="236.8,244 290.9,244 290.9,408.3 205.5,408.3 205.5,308.5 		"/>
		<path fill="#A79498" d="M242.1,251.6L219,300.1c-1.5,2.8,0.5,6.3,4,6.3h60.8v-54.7L242.1,251.6L242.1,251.6z"/>
		<path fill="#A79498" d="M205.5,331.5v76.6h85.4v-76.6H205.5L205.5,331.5z M248.1,372.4l36.3,32.3h-72.5L248.1,372.4z M209,402.1
			v-64.4l36.3,32.3L209,402.1z M251,369.9l36.3-32.3v64.4L251,369.9z M248.1,367.3l-36.3-32.1h72.6L248.1,367.3z M209,335.1
			L209,335.1L209,335.1L209,335.1z"/>
		<g enable-background="new    ">
			<path fill="#CB99A7" d="M364.9,289.9c0.1-0.2,0.3-0.3,0.4-0.3h0.3c0.2,0,0.3,0.1,0.3,0.3l4.7,11.5h0.1l4.7-11.5
				c0.1-0.2,0.3-0.3,0.3-0.3h0.3c0.2,0,0.3,0.2,0.4,0.3l2.8,15.2c0.1,0.3-0.1,0.5-0.4,0.5h-1.5c-0.2,0-0.3-0.2-0.4-0.3l-1.6-10.1
				h-0.1l-4.1,10.4c-0.1,0.2-0.2,0.3-0.3,0.3h-0.4c-0.2,0-0.3-0.1-0.3-0.3l-4.1-10.4h-0.1l-1.6,10.1c0,0.2-0.3,0.3-0.4,0.3h-1.5
				c-0.3,0-0.5-0.2-0.4-0.5L364.9,289.9z"/>
			<path fill="#CB99A7" d="M382.8,290.2c0-0.3,0.2-0.4,0.4-0.4h9c0.3,0,0.4,0.2,0.4,0.4v1.3c0,0.3-0.2,0.4-0.4,0.4h-7.2v4.7h6
				c0.3,0,0.4,0.2,0.4,0.4v1.3c0,0.3-0.2,0.4-0.4,0.4h-6v4.8h7.2c0.3,0,0.4,0.2,0.4,0.4v1.2c0,0.3-0.2,0.4-0.4,0.4h-9
				c-0.3,0-0.4-0.2-0.4-0.4V290.2z"/>
			<path fill="#CB99A7" d="M396.1,290c0-0.3,0.2-0.4,0.4-0.4h0.6l9.8,11.4l0,0v-10.7c0-0.3,0.2-0.4,0.4-0.4h1.5
				c0.3,0,0.4,0.2,0.4,0.4v15.3c0,0.3-0.2,0.4-0.4,0.4h-0.6l-9.8-11.6l0,0v11c0,0.3-0.2,0.4-0.4,0.4h-1.5c-0.3,0-0.4-0.2-0.4-0.4
				V290z"/>
			<path fill="#CB99A7" d="M413.6,290.2c0-0.3,0.2-0.4,0.4-0.4h5.2c4.4,0,7.9,3.5,7.9,7.9c0,4.4-3.5,7.9-7.9,7.9h-5.2
				c-0.3,0-0.4-0.2-0.4-0.4V290.2z M418.9,303.4c3.4,0,5.8-2.4,5.8-5.8c0-3.4-2.4-5.8-5.8-5.8h-3v11.5L418.9,303.4L418.9,303.4z"/>
			<path fill="#CB99A7" d="M430.4,290.2c0-0.3,0.2-0.4,0.4-0.4h1.5c0.3,0,0.4,0.2,0.4,0.4v13.3h6.1c0.3,0,0.4,0.2,0.4,0.4v1.2
				c0,0.3-0.2,0.4-0.4,0.4h-8c-0.3,0-0.4-0.2-0.4-0.4L430.4,290.2L430.4,290.2z"/>
			<path fill="#CB99A7" d="M439.7,295.6c-0.2-0.2-0.1-0.3,0.1-0.5c0.3-0.2,1.5-1.2,1.5-2.8c-0.1,0-0.3,0.1-0.5,0.1
				c-0.8,0-1.4-0.6-1.4-1.4c0-0.8,0.6-1.4,1.5-1.4c0.8,0,1.7,0.5,1.7,2.2c0,2.1-1.3,3.5-2,4.1c-0.2,0.2-0.3,0.2-0.5,0L439.7,295.6z"
				/>
			<path fill="#CB99A7" d="M444.3,303.4c0.2-0.3,0.3-0.6,0.6-0.9c0.3-0.3,0.5-0.3,0.8-0.2c0.2,0.1,1.9,1.6,3.6,1.6
				c1.6,0,2.6-0.9,2.6-2.1c0-1.4-1.2-2.2-3.4-3.1c-2.3-0.9-4.1-2.2-4.1-4.8c0-1.7,1.4-4.2,4.9-4.2c2.2,0,4,1.2,4.2,1.3
				c0.2,0.1,0.3,0.4,0.2,0.8c-0.2,0.3-0.3,0.6-0.6,0.9c-0.2,0.3-0.5,0.4-0.8,0.3c-0.2-0.1-1.7-1.1-3-1.1c-1.9,0-2.6,1.2-2.6,2.1
				c0,1.3,1,2.1,2.8,2.8c2.6,1,4.8,2.3,4.8,5.1c0,2.3-2.1,4.3-5,4.3c-2.8,0-4.5-1.5-4.8-1.8C444.3,303.9,444.1,303.7,444.3,303.4z"
				/>
		</g>
		<path fill="#A79498" d="M282,317h-7.3c-0.7,0-1.5-0.5-1.5-1.5v-0.3c0-0.7,0.5-1.5,1.5-1.5h7.3c0.7,0,1.5,0.5,1.5,1.5v0.3
			C283.3,316.3,282.7,317,282,317z"/>
		<polygon opacity="0.2" fill="#FFFFFF" enable-background="new    " points="307.6,248.1 307.6,252.3 508.9,280.9 508.9,248.1 		
			"/>
		<path fill="#A79498" d="M307.6,248.1v163.3h201.4v-76.1v-3.4v-83.5H307.6V248.1z M505,281.7c-0.2,0-0.3,0-0.5,0
			c-0.2,0-0.2,0-0.3,0l-28.3-29.1c0-0.2,0-0.3,0-0.5c0-0.2,0-0.2,0-0.3h29.3v30H505z M311.4,251.7h29.6v0.2c0,0.2,0,0.2,0,0.3
			L312,280.5c-0.2,0-0.3,0-0.5,0V251.7L311.4,251.7z M311.4,337.5l44.7,33.9l-44.7,33.8V337.5z M314.5,335.1h89.2L359,369
			L314.5,335.1z M314.5,407.4l44.7-33.9l44.7,33.9H314.5z M407,405.1l-44.7-33.9l44.7-33.9V405.1z M410.5,407.4L410.5,407.4
			L410.5,407.4L410.5,407.4z M455.1,371.1l-44.6,34v-67.6L455.1,371.1z M410.5,335.1L410.5,335.1L410.5,335.1L410.5,335.1z
			 M413.7,335.1H502l-43.8,33.6L413.7,335.1z M413.7,407.4l44.6-34l45,34H413.7z M505,404.3l-43.9-33.1l43.9-33.6V404.3z M505,335.1
			L505,335.1L505,335.1L505,335.1z M311.4,331.5V287c1.6,0,3.2-1.5,3.2-3.2c0-0.2,0-0.2,0-0.3l29.1-28.3c0.2,0,0.3,0,0.5,0
			c1.6,0,3.2-1.5,3.2-3.2v-0.2h122.2c0,0.2,0,0.2,0,0.3c0,1.6,1.5,3.2,3.2,3.2c0.2,0,0.2,0,0.3,0l28.3,29.1c0,0.2,0,0.3,0,0.5
			c0,1.6,1.5,3.2,3.2,3.2c0.2,0,0.3,0,0.5,0v43.5H311.4V331.5z"/>
		<circle fill="#FAD9DE" cx="408.4" cy="403.5" r="27.8"/>
		<circle fill="#CB99A7" cx="408.4" cy="406" r="18.2"/>
		<path fill="#A79498" d="M384.2,411.4c-0.3-1.6-0.5-3.4-0.5-4.9c0-13.5,10.9-24.5,24.5-24.5c13.5,0,24.5,10.9,24.5,24.5
			c0,1.6-0.2,3.4-0.5,4.9h10c0.2-1.6,0.3-3.4,0.3-4.9c0-19-15.4-34.4-34.4-34.4c-19,0-34.4,15.4-34.4,34.4c0,1.6,0.2,3.4,0.3,4.9
			H384.2z"/>
		<circle fill="#FAD9DE" cx="408.4" cy="406" r="5.8"/>
		<path opacity="0.3" fill="#FFFFFF" enable-background="new    " d="M407.5,402.4c3.2,0,5.8,2.7,5.8,5.8c0,0.2,0,0.3,0,0.3
			c0.3-0.7,0.7-1.6,0.7-2.8c0-3.2-2.7-5.8-5.8-5.8c-3,0-5.3,2.5-5.6,5.1C403.4,403.8,405.4,402.4,407.5,402.4z"/>
		<polygon opacity="0.1" fill="#FFFFFF" enable-background="new    " points="234.4,267.2 231.7,273.3 283.7,300.9 283.7,293.6 		
			"/>
		<polygon opacity="0.1" fill="#FFFFFF" enable-background="new    " points="238.2,259.2 235.5,265.2 283.7,290.8 283.7,283.4 		
			"/>
		<path fill="#FFF3DF" d="M286.6,255.3h-49.3v-0.3c0-4,3.2-7.3,7.3-7.3h35.1c4,0,7.3,3.2,7.3,7.3v0.3H286.6z"/>
		<path fill="#CB99A7" d="M419.2,280.7c-0.3,0.5-0.7,0.9-1.3,1.5c-1.1,1.3-2.8,2.2-4.5,2.8c-0.9,0.2-2,0.2-2.8-0.3
			c-0.2,0-0.3,0-0.3,0c-1.3,0.7-2.8,0.5-4.1,0c-1.5-0.5-2.8-1.6-4-3c-0.2-0.2-0.3-0.3-0.5-0.7c-0.5,0.3-1.1,0.7-1.5,1.1
			c-1.1,0.9-2.2,1.8-3.4,2.5c-1.3,0.5-2.7,0.9-4,0.9c-2,0-3.4-1.1-3.6-3c-0.3-1.5,0.2-2.7,1.3-3.6c0.5-0.5,1.3-1.1,2.2-1.5
			c1.1-0.5,2-0.5,3.2,0c0.2,0,0.2,0.2,0.3,0.2c0.2,0.2,0.2,0.3,0,0.5c-0.2,0.2-0.3,0.2-0.5,0c0,0-0.2,0-0.2-0.2
			c-0.5-0.9-1.3-0.7-2-0.5c-0.5,0.2-1.3,0.3-1.6,0.7c-0.3,0.3-0.7,0.5-1.1,0.9c-1.5,1.5-1.5,3.6,0.2,5.1c0.9,0.7,1.8,0.9,3,0.5
			c2-0.9,4.1-2.2,5.8-3.4c0.3-0.3,0.9-0.7,1.3-0.9c0.2-0.2,0.3-0.3,0.5-0.5c0-0.2-0.2-0.3-0.2-0.3c-0.2-0.7-0.3-1.5-0.5-2.2
			c0-0.2,0-0.3,0-0.5c0-0.2,0.2-0.2,0.3-0.2c0.2,0,0.3,0,0.3,0.2c0,0.2,0.2,0.3,0,0.5c-0.2,0.9-0.2,1.5,0.5,2.2
			c0.2,0,0.3-0.2,0.5-0.2c1.1-0.7,2.5-1.1,3.6-1.5c1.5-0.3,3.4-0.2,4.8,0.7c0.7-0.3,1.5-0.7,2.2-0.7c1.1-0.2,2.2-0.2,3.4,0.2
			c1.1,0.3,2.2,0.9,3.4,1.5c0.3-0.5,0.7-1.3,0.3-2c0-0.2-0.2-0.3-0.2-0.7c0-0.2,0.2-0.3,0.3-0.3s0.3,0.2,0.3,0.3
			c0,0.3,0,0.7-0.2,1.1c-0.2,0.5-0.3,1.3-0.5,1.8c0,0,0.2,0,0.2,0.2c1.6,1.3,3.4,2.5,4.9,3.4c0.7,0.5,1.5,0.7,2.5,1.3
			c1.1,0.5,2.5,0.2,3.2-0.5c1.5-1.3,1.5-3.6,0-4.9c-0.5-0.5-1.1-0.9-1.8-1.5c-0.5-0.3-1.1-0.5-1.8-0.5c-0.3,0-0.7,0.2-1.1,0.3
			c0,0.2-0.2,0.2-0.2,0.3c-0.2,0.2-0.5,0.2-0.5,0c-0.2-0.2-0.2-0.5,0.2-0.5c0.3-0.2,0.9-0.3,1.3-0.3c0.7-0.2,1.5,0,2,0.3
			c0.9,0.3,1.8,1.1,2.5,1.8c1.5,1.6,1.3,3.6,0,5.1c-0.5,0.7-1.3,0.9-2.2,1.1c-0.7,0-1.5,0-2.5-0.2c-2-0.5-3.6-1.5-5.1-2.8
			C420.8,281.7,419.9,281.4,419.2,280.7z M411.1,279.2c0.5,0.9,0.9,1.6,0.9,2.7c-0.2,0.9-0.7,1.6-1.3,2.5c0,0,0,0,0.2,0.2
			c0,0,0,0,0.2,0c0.7,0.3,1.6,0.3,2.7,0.2c2-0.7,4-1.8,4.9-3.6c0,0,0-0.2,0.2-0.3c-0.7-0.3-1.3-0.7-2-0.9c-1.3-0.5-2.8-0.9-4.3-0.5
			C412.2,279.1,411.7,279.1,411.1,279.2z M409.8,279.2c-1.1-0.5-2.2-0.5-3.4-0.3c-1.5,0.2-3,0.9-4.3,1.6c0.5,0.7,1.1,1.5,1.6,2
			c1.3,1.1,2.7,1.8,4.3,2.2c0.7,0.2,1.5,0,2.2-0.5C408.7,282.7,408.5,281,409.8,279.2z M410.5,279.7c-1.6,1.1-1.5,3,0,4.1
			C412.2,282.5,412,280.9,410.5,279.7z"/>
		<path fill="#CB99A7" d="M411,312.5c0.2,0.2,0.5,0.2,0.7,0.3h0.2c1.1-0.5,2.2-0.7,3.4-0.7c0.3,0,0.7,0,1.1,0.2
			c0.2,0,0.2,0.2,0.3,0.2c0.5,0.3,0.3,0.9-0.2,1.3c-0.3,0.2-0.9,0.2-1.5,0.2c-1.1-0.2-2.2-0.3-3.4-0.7c-0.2,0-0.3,0-0.3,0
			c-0.5,0.3-1.3,0.7-1.8,1.1l-0.2,0.2c0.2,0,0.2,0.2,0.2,0.2c0.5,0.2,1.1,0.5,1.8,0.7c0.3,0.2,0.7,0.3,1.1,0.5
			c0.7,0.3,1.6,0.7,2.5,0.7c0.9,0.2,1.8,0,2.8-0.3c0.3-0.2,0.7-0.3,0.7-0.7v-0.2l0.2-0.2l0.2,0.2c0,0.2-0.2,0.3-0.3,0.5
			c-0.3,0.3-0.7,0.5-1.3,0.7c-0.3,0-0.9,0.2-1.3,0.2c-1.3,0.2-2.2-0.2-3.4-0.7c-1.1-0.5-2.2-0.9-3.4-1.5c-0.2,0-0.3,0-0.5,0
			c-1.5,0.9-3,1.6-4.7,2c-0.5,0.2-0.9,0.2-1.5,0.2c-0.7-0.2-1.3-0.7-1.3-1.5c0-0.5,0.2-0.9,0.5-1.3c0.5-0.3,1.1-0.5,1.8-0.7
			c1.3-0.2,2.7,0,4,0.2c0.3,0.2,0.7,0.2,1.3,0.3c0.2,0,0.2,0,0.3,0c0.5-0.3,1.1-0.7,1.8-1.1c0.2,0,0.2-0.2,0.3-0.2
			C411.5,312.8,411.1,312.7,411,312.5c-0.2,0.2-0.3,0.2-0.5,0.3c-1.1,0.3-2.2,0.5-3.4,0.2c-0.2,0-0.3-0.2-0.5-0.3
			c-0.2-0.3,0-0.7,0.3-0.9c0.3-0.2,0.9-0.3,1.3-0.2c0.5,0.2,1.3,0.3,1.8,0.5l0,0c0.2,0,0.3,0.3,0.5,0.2c0.3-0.2,0.5-0.3,0.5-0.7
			c0-0.2,0-0.2,0-0.3l0.2-0.2l0.2,0.2c0,0.2-0.2,0.3-0.2,0.5C411.7,312,411.5,312.3,411,312.5z M409.2,314.6
			c-0.2-0.2-0.3-0.2-0.5-0.2c-1.6-0.5-3.4-0.7-5.1-0.3c-0.3,0-0.7,0.3-0.9,0.7c0,0.2,0,0.3-0.2,0.7c0,0.9,0.9,1.6,1.8,1.3
			c1.3-0.3,2.5-0.7,3.4-1.5C408.4,315.1,408.7,315,409.2,314.6z M412.3,313.2c0.2,0,0.3,0.2,0.3,0.2c0.7,0.2,1.6,0.3,2.5,0.5
			c0.3,0,0.5,0.2,0.9,0c0.5,0,0.7-0.5,0.5-0.9c-0.2-0.2-0.3-0.3-0.7-0.3c-0.7-0.2-1.3,0-2,0.2C413.5,312.5,413,312.7,412.3,313.2z
			 M410.5,312.5L410.5,312.5c-0.5-0.3-1.1-0.5-1.8-0.7c-0.2,0-0.3,0-0.5-0.2c-0.3,0-0.7,0.2-0.7,0.5c0,0.3,0,0.5,0.3,0.7
			c0.2,0,0.2,0.2,0.3,0.2c0.7,0,1.3,0,1.8-0.2C410.4,312.7,410.5,312.7,410.5,312.5z"/>
	</g>
</g>
</svg>
