<?xml version="1.0" encoding="utf-8"?>
<!-- Generator: Adobe Illustrator 18.0.0, SVG Export Plug-In . SVG Version: 6.00 Build 0)  -->
<!DOCTYPE svg PUBLIC "-//W3C//DTD SVG 1.1//EN" "http://www.w3.org/Graphics/SVG/1.1/DTD/svg11.dtd">
<svg version="1.1" id="Layer_1" xmlns="http://www.w3.org/2000/svg" xmlns:xlink="http://www.w3.org/1999/xlink" x="0px" y="0px"
	 viewBox="0 0 300 300" enable-background="new 0 0 300 300" xml:space="preserve">
<rect fill="#B8C5C5" width="300" height="300"/>
<polygon opacity="7.000000e-02" fill="#FFFFFF" points="0,300 300,0 300,300 "/>
<ellipse opacity="0.28" fill="#707675" cx="148.7" cy="237.4" rx="135.7" ry="12.6"/>
<g>
	<g>
		<polygon fill="#FBD9DE" points="272,126.7 226,126.7 226,188 227.2,188 227.2,188.6 239.9,188.6 239.9,188 258,188 258,188.6 
			270.9,188.6 270.9,188 272,188 		"/>
		<rect x="226.9" y="188.5" fill="#F7B7C6" width="44.1" height="46.3"/>
		<rect x="239.9" y="188" fill="#EAAFC0" width="18.1" height="47"/>
		<rect x="248.1" y="84.1" fill="#645E67" width="1.1" height="0.7"/>
		<rect x="246.8" y="86.8" fill="#FFF3DE" width="3.7" height="4.4"/>
		<rect x="248.6" y="86.8" opacity="0.2" fill="#FFFFFF" width="1.9" height="4.4"/>
		<path fill="#746B78" d="M250.5,86.8h-3.7v-0.3c0-1,0.8-1.9,1.9-1.9l0,0c1,0,1.9,0.8,1.9,1.9V86.8z"/>
		<rect x="270.9" y="126.7" fill="#FFF3DE" width="2.7" height="110.5"/>
		<polygon fill="#89808F" points="277.8,120.1 227.2,120.1 227.2,106.1 258,106.1 		"/>
		<rect x="239.9" y="98.2" fill="#EECDD5" width="18.1" height="89.8"/>
		<rect x="239.9" y="98.2" fill="#FFF3DE" width="18.1" height="2.7"/>
		<g>
			<g>
				<rect x="229.1" y="112.6" fill="#FFEFD1" width="8.8" height="7.4"/>
				<rect x="232.4" y="107.3" fill="#645E67" width="2.3" height="1.5"/>
				<g>
					<rect x="233.2" y="102.2" fill="#645E67" width="0.6" height="5.1"/>
				</g>
				<rect x="230.8" y="114.7" fill="#A79498" width="5.3" height="4.5"/>
				<path fill="#746B78" d="M237.9,112.6h-8.8v0c0-2.4,2-4.4,4.4-4.4l0,0C235.9,108.2,237.9,110.2,237.9,112.6L237.9,112.6z"/>
				<rect x="233.5" y="114.7" opacity="0.3" fill="#FFFFFF" width="2.6" height="4.5"/>
			</g>
			<path opacity="0.1" fill="#FFFFFF" d="M233.8,108.2h-0.3v4.4h4.4v-0.3C237.9,110.1,236,108.2,233.8,108.2z"/>
		</g>
		<g>
			<g>
				<rect x="260.1" y="112.6" fill="#FFEFD1" width="8.8" height="7.4"/>
				<rect x="263.3" y="107.3" fill="#645E67" width="2.3" height="1.5"/>
				<g>
					<rect x="264.2" y="102.2" fill="#645E67" width="0.6" height="5.1"/>
				</g>
				<rect x="261.7" y="114.7" fill="#A79498" width="5.3" height="4.5"/>
				<path fill="#746B78" d="M268.8,112.6h-8.8v0c0-2.4,2-4.4,4.4-4.4l0,0C266.9,108.2,268.8,110.2,268.8,112.6L268.8,112.6z"/>
				<rect x="264.4" y="114.7" opacity="0.3" fill="#FFFFFF" width="2.6" height="4.5"/>
			</g>
			<path opacity="0.1" fill="#FFFFFF" d="M264.7,108.2h-0.3v4.4h4.4v-0.3C268.8,110.1,266.9,108.2,264.7,108.2z"/>
		</g>
		<rect x="239.9" y="100.9" opacity="0.1" width="18.1" height="0.7"/>
		<rect x="248.5" y="74.5" fill="#645E67" width="0.4" height="9.8"/>
		<path fill="#746B78" d="M258,98.2h-18.1v0c0-4.7,3.8-8.5,8.5-8.5h1.2C254.2,89.7,258,93.5,258,98.2L258,98.2z"/>
		<path opacity="0.2" fill="#FFFFFF" d="M248.6,98.2h9.3c0-4.7-3.8-8.5-8.5-8.5h-0.9V98.2z"/>
		<path opacity="0.2" fill="#FFFFFF" d="M248.6,84.6C248.6,84.6,248.6,84.6,248.6,84.6l0,2.1h1.9v-0.3
			C250.5,85.5,249.7,84.6,248.6,84.6z"/>
		<polygon fill="#E4C086" points="273.5,126.7 227.2,126.7 227.2,122.7 277.8,122.7 		"/>
		<polygon fill="#FFEFD1" points="227.2,119.9 227.2,122.7 227.6,122.7 227.6,125.6 228.4,125.6 228.4,122.7 230.5,122.7 
			230.5,125.6 231.3,125.6 231.3,122.7 233.7,122.7 233.7,125.6 234.5,125.6 234.5,122.7 236.8,122.7 236.8,125.6 237.7,125.6 
			237.7,122.7 240,122.7 240,125.6 240.9,125.6 240.9,122.7 243.4,122.7 243.4,125.6 244.2,125.6 244.2,122.7 246.6,122.7 
			246.6,125.6 247.5,125.6 247.5,122.7 249.7,122.7 249.7,125.6 250.6,125.6 250.6,122.7 253,122.7 253,125.6 253.8,125.6 
			253.8,122.7 256.4,122.7 256.4,125.6 257.3,125.6 257.3,122.7 259.7,122.7 259.7,125.6 260.5,125.6 260.5,122.7 262.8,122.7 
			262.8,125.6 263.7,125.6 263.7,122.7 266,122.7 266,125.6 266.9,125.6 266.9,122.7 269.3,122.7 269.3,125.6 270.2,125.6 
			270.2,122.7 272.5,122.7 272.5,125.6 273.4,125.6 273.4,122.7 275.7,122.7 275.7,124.7 276.5,123.9 276.5,122.7 277.8,122.7 
			280.7,119.9 		"/>
		<polygon fill="#C9A87A" points="278.4,122.1 227.2,122.1 227.2,121.7 278.9,121.7 		"/>
		<rect x="227.2" y="126.7" fill="#FFF3DE" width="44.4" height="0.7"/>
		<rect x="244.8" y="104" fill="#FFF3DE" width="8" height="13.7"/>
		<path fill="#A79498" d="M250.6,115.2H247v-8.1c0-1,0.8-1.8,1.8-1.8l0,0c1,0,1.8,0.8,1.8,1.8V115.2z"/>
		<rect x="244.4" y="103.2" fill="#E8DCCE" width="9" height="1.4"/>
		<rect x="243.9" y="116.1" fill="#FFF3DE" width="9.9" height="1.8"/>
		<rect x="248.7" y="104.6" fill="#E8DCCE" width="0.2" height="11.8"/>
		<rect x="244.8" y="107.9" fill="#E8DCCE" width="8.1" height="0.2"/>
		<rect x="227.2" y="140.8" fill="#FFF3DE" width="12.6" height="0.6"/>
		<rect x="227.2" y="141.4" opacity="0.1" width="12.6" height="0.6"/>
		<rect x="227.2" y="161.6" fill="#FFF3DE" width="12.7" height="0.6"/>
		<rect x="227.2" y="146.7" fill="#FFF3DE" width="12.6" height="0.6"/>
		<rect x="239.9" y="146.1" fill="#FFF3DE" width="18.1" height="0.6"/>
		<rect x="239.9" y="166.9" fill="#FFF3DE" width="18.1" height="0.6"/>
		<rect x="258" y="146.7" fill="#FFF3DE" width="14" height="0.6"/>
		<rect x="227.2" y="162.2" opacity="0.1" width="12.6" height="0.6"/>
		<rect x="258" y="161.6" fill="#FFF3DE" width="12.9" height="0.6"/>
		<rect x="258" y="162.2" opacity="0.1" width="12.9" height="0.6"/>
		<rect x="227.2" y="182.4" fill="#FFF3DE" width="12.6" height="0.6"/>
		<rect x="227.2" y="183" opacity="0.1" width="12.6" height="0.6"/>
		<rect x="258" y="182.4" fill="#FFF3DE" width="12.9" height="0.6"/>
		<rect x="258" y="183" opacity="0.1" width="12.9" height="0.6"/>
		<rect x="239.9" y="139.6" fill="#FFF3DE" width="18.1" height="0.6"/>
		<rect x="239.9" y="140.2" opacity="0.1" width="18.1" height="0.6"/>
		<rect x="239.9" y="160.5" fill="#FFF3DE" width="18.1" height="0.6"/>
		<rect x="239.9" y="161.1" opacity="0.1" width="18.1" height="0.6"/>
		<rect x="239.9" y="181.3" fill="#FFF3DE" width="18.1" height="0.6"/>
		<rect x="239.9" y="181.9" opacity="0.1" width="18.1" height="0.6"/>
		<rect x="257.9" y="140.8" fill="#FFF3DE" width="12.9" height="0.6"/>
		<rect x="257.9" y="141.4" opacity="0.1" width="12.9" height="0.6"/>
		<g>
			<rect x="229.4" y="127.5" fill="#FFF3DE" width="8" height="13.7"/>
			<path fill="#A79498" d="M235.2,138.7h-3.6v-8.1c0-1,0.8-1.8,1.8-1.8l0,0c1,0,1.8,0.8,1.8,1.8V138.7z"/>
			<path opacity="0.3" fill="#FFFFFF" d="M233.4,128.8v9.9h1.8v-8.1C235.2,129.6,234.4,128.8,233.4,128.8z"/>
			<rect x="228.9" y="126.7" fill="#E8DCCE" width="9" height="1.4"/>
			<rect x="233.3" y="128.1" fill="#E8DCCE" width="0.2" height="12.7"/>
			<rect x="229.4" y="131.4" fill="#E8DCCE" width="8.1" height="0.2"/>
		</g>
		<g>
			<rect x="229.4" y="148" fill="#FFF3DE" width="8" height="13.7"/>
			<path fill="#A79498" d="M235.2,159.3h-3.6v-8.1c0-1,0.8-1.8,1.8-1.8l0,0c1,0,1.8,0.8,1.8,1.8V159.3z"/>
			<path opacity="0.3" fill="#FFFFFF" d="M233.4,149.3v9.9h1.8v-8.1C235.2,150.1,234.4,149.3,233.4,149.3z"/>
			<rect x="228.9" y="147.2" fill="#E8DCCE" width="9" height="1.4"/>
			<rect x="233.3" y="148.7" fill="#E8DCCE" width="0.2" height="12.7"/>
			<rect x="229.4" y="152" fill="#E8DCCE" width="8.1" height="0.2"/>
		</g>
		<rect x="227.2" y="167.5" fill="#FFF3DE" width="12.7" height="0.6"/>
		<g>
			<rect x="229.4" y="168.9" fill="#FFF3DE" width="8" height="13.7"/>
			<path fill="#A79498" d="M235.2,180.1h-3.6V172c0-1,0.8-1.8,1.8-1.8l0,0c1,0,1.8,0.8,1.8,1.8V180.1z"/>
			<path opacity="0.3" fill="#FFFFFF" d="M233.4,170.1v9.9h1.8V172C235.2,171,234.4,170.1,233.4,170.1z"/>
			<rect x="228.9" y="168.1" fill="#E8DCCE" width="9" height="1.4"/>
			<rect x="233.3" y="169.5" fill="#E8DCCE" width="0.2" height="12.7"/>
			<rect x="229.4" y="172.8" fill="#E8DCCE" width="8.1" height="0.2"/>
		</g>
		<rect x="258" y="167.5" fill="#FFF3DE" width="13.1" height="0.6"/>
		<g>
			<rect x="260.4" y="168.9" fill="#FFF3DE" width="8" height="13.7"/>
			<path fill="#A79498" d="M266.2,180.1h-3.6V172c0-1,0.8-1.8,1.8-1.8l0,0c1,0,1.8,0.8,1.8,1.8V180.1z"/>
			<path opacity="0.3" fill="#FFFFFF" d="M264.4,170.1v9.9h1.8V172C266.2,171,265.4,170.1,264.4,170.1z"/>
			<rect x="259.9" y="168.1" fill="#E8DCCE" width="9" height="1.4"/>
			<rect x="264.2" y="169.5" fill="#E8DCCE" width="0.2" height="12.7"/>
			<rect x="260.3" y="172.8" fill="#E8DCCE" width="8.1" height="0.2"/>
		</g>
		<g>
			<rect x="260.5" y="127.5" fill="#FFF3DE" width="8" height="13.7"/>
			<path fill="#A79498" d="M266.3,138.7h-3.6v-8.1c0-1,0.8-1.8,1.8-1.8l0,0c1,0,1.8,0.8,1.8,1.8V138.7z"/>
			<path opacity="0.3" fill="#FFFFFF" d="M264.5,128.8v9.9h1.8v-8.1C266.3,129.6,265.5,128.8,264.5,128.8z"/>
			<rect x="260" y="126.7" fill="#E8DCCE" width="9" height="1.4"/>
			<rect x="264.3" y="128.1" fill="#E8DCCE" width="0.2" height="12.7"/>
			<rect x="260.4" y="131.4" fill="#E8DCCE" width="8.1" height="0.2"/>
		</g>
		<g>
			<rect x="260.5" y="148" fill="#FFF3DE" width="8" height="13.7"/>
			<path fill="#A79498" d="M266.3,159.3h-3.6v-8.1c0-1,0.8-1.8,1.8-1.8l0,0c1,0,1.8,0.8,1.8,1.8V159.3z"/>
			<path opacity="0.3" fill="#FFFFFF" d="M264.5,149.3v9.9h1.8v-8.1C266.3,150.1,265.5,149.3,264.5,149.3z"/>
			<rect x="260" y="147.2" fill="#E8DCCE" width="9" height="1.4"/>
			<rect x="264.3" y="148.7" fill="#E8DCCE" width="0.2" height="12.7"/>
			<rect x="260.4" y="152" fill="#E8DCCE" width="8.1" height="0.2"/>
		</g>
		<g>
			<rect x="245" y="127.4" fill="#FFF3DE" width="7.2" height="12.4"/>
			<path fill="#A79498" d="M250.3,137.5H247v-7.3c0-0.9,0.7-1.6,1.6-1.6h0c0.9,0,1.6,0.7,1.6,1.6V137.5z"/>
			<rect x="244.6" y="126.7" fill="#E8DCCE" width="8.1" height="1.3"/>
			<rect x="248.5" y="128" fill="#E8DCCE" width="0.2" height="11.5"/>
			<rect x="245" y="130.9" fill="#E8DCCE" width="7.3" height="0.2"/>
		</g>
		<g>
			<rect x="244.8" y="147.4" fill="#FFF3DE" width="7.6" height="13.1"/>
			<path fill="#A79498" d="M250.4,158.1h-3.4v-7.8c0-1,0.8-1.7,1.7-1.7l0,0c1,0,1.7,0.8,1.7,1.7V158.1z"/>
			<rect x="244.4" y="146.7" fill="#E8DCCE" width="8.5" height="1.3"/>
			<rect x="248.5" y="148" fill="#E8DCCE" width="0.2" height="12.1"/>
			<rect x="244.8" y="151.1" fill="#E8DCCE" width="7.7" height="0.2"/>
		</g>
		<g>
			<rect x="244.8" y="168.2" fill="#FFF3DE" width="7.6" height="13.1"/>
			<path fill="#A79498" d="M250.4,178.9h-3.4v-7.8c0-1,0.8-1.7,1.7-1.7l0,0c1,0,1.7,0.8,1.7,1.7V178.9z"/>
			<rect x="244.4" y="167.5" fill="#E8DCCE" width="8.5" height="1.3"/>
			<rect x="248.5" y="168.8" fill="#E8DCCE" width="0.2" height="12.1"/>
			<rect x="244.8" y="172" fill="#E8DCCE" width="7.7" height="0.2"/>
		</g>
		<rect x="227.2" y="188.8" opacity="0.1" width="12.7" height="0.4"/>
		<rect x="227.1" y="188.4" fill="#FFF3DE" width="12.8" height="0.3"/>
		<rect x="258" y="188.8" opacity="0.1" width="12.9" height="0.4"/>
		<rect x="258" y="188.4" fill="#FFF3DE" width="13" height="0.3"/>
		<rect x="239.9" y="188" opacity="0.1" width="18.1" height="0.4"/>
		<rect x="239.9" y="187.7" fill="#FFF3DE" width="18.1" height="0.3"/>
		<g>
			<g>
				<path fill="#FFF3DE" d="M238,187.7h-9v-2.5h9V187.7z M229.1,187.5h8.7v-2.2h-8.7V187.5z"/>
			</g>
			<g opacity="0.2">
				<path d="M237.9,187.5h-8.7v-2.2h8.7V187.5z M229.2,187.4h8.5v-2h-8.5V187.4z"/>
			</g>
			<rect x="229.6" y="189.4" fill="#FFF3DE" width="7.7" height="8.7"/>
			<rect x="230.7" y="189.9" fill="#A79498" width="5.4" height="7.3"/>
			<rect x="233.3" y="189.9" opacity="0.3" fill="#FFFFFF" width="2.8" height="7.3"/>
			<rect x="229" y="187.7" fill="#FFF3DE" width="9" height="2.3"/>
			<rect x="229" y="197.3" fill="#FFF3DE" width="9" height="1.9"/>
			<polygon fill="#FFF3DE" points="234.6,201.1 232.3,201.1 230.7,199.2 236.1,199.2 			"/>
			<rect x="229.4" y="197.6" fill="#E8DCCE" width="8.1" height="0.2"/>
			<rect x="229.4" y="198.7" fill="#E8DCCE" width="8.1" height="0.2"/>
			<rect x="233.2" y="189.9" fill="#E8DCCE" width="0.2" height="7.3"/>
			<rect x="229.6" y="191.9" fill="#E8DCCE" width="7.7" height="0.2"/>
		</g>
		<g>
			<rect x="260.4" y="189.4" fill="#FFF3DE" width="7.7" height="8.7"/>
			<rect x="261.5" y="189.9" fill="#A79498" width="5.4" height="7.3"/>
			<rect x="264.1" y="189.9" opacity="0.3" fill="#FFFFFF" width="2.8" height="7.3"/>
			<rect x="259.8" y="187.7" fill="#FFF3DE" width="9" height="2.3"/>
			<rect x="259.8" y="197.3" fill="#FFF3DE" width="9" height="1.9"/>
			<polygon fill="#FFF3DE" points="265.4,201.1 263.1,201.1 261.5,199.2 266.9,199.2 			"/>
			<rect x="260.2" y="197.6" fill="#E8DCCE" width="8.1" height="0.2"/>
			<rect x="260.2" y="198.7" fill="#E8DCCE" width="8.1" height="0.2"/>
			<rect x="264.1" y="189.9" fill="#E8DCCE" width="0.2" height="7.3"/>
			<rect x="260.4" y="191.9" fill="#E8DCCE" width="7.7" height="0.2"/>
		</g>
		<g>
			<rect x="260.4" y="214.4" fill="#FFF3DE" width="7.7" height="8.7"/>
			<rect x="261.5" y="214.9" fill="#A79498" width="5.4" height="7.3"/>
			<rect x="264.1" y="214.9" opacity="0.3" fill="#FFFFFF" width="2.8" height="7.3"/>
			<rect x="259.8" y="212.7" fill="#FFF3DE" width="9" height="2.3"/>
			<rect x="259.8" y="222.3" fill="#FFF3DE" width="9" height="1.9"/>
			<polygon fill="#FFF3DE" points="265.4,226.1 263.1,226.1 261.5,224.2 266.9,224.2 			"/>
			<rect x="260.2" y="222.6" fill="#E8DCCE" width="8.1" height="0.2"/>
			<rect x="260.2" y="223.7" fill="#E8DCCE" width="8.1" height="0.2"/>
			<rect x="264.1" y="214.9" fill="#E8DCCE" width="0.2" height="7.3"/>
			<rect x="260.4" y="216.9" fill="#E8DCCE" width="7.7" height="0.2"/>
		</g>
		<g>
			<rect x="229.7" y="214.4" fill="#FFF3DE" width="7.7" height="8.7"/>
			<rect x="230.7" y="214.9" fill="#A79498" width="5.4" height="7.3"/>
			<rect x="233.4" y="214.9" opacity="0.3" fill="#FFFFFF" width="2.8" height="7.3"/>
			<rect x="229.1" y="212.7" fill="#FFF3DE" width="9" height="2.3"/>
			<rect x="229.1" y="222.3" fill="#FFF3DE" width="9" height="1.9"/>
			<polygon fill="#FFF3DE" points="234.6,226.1 232.4,226.1 230.8,224.2 236.2,224.2 			"/>
			<rect x="229.5" y="222.6" fill="#E8DCCE" width="8.1" height="0.2"/>
			<rect x="229.5" y="223.7" fill="#E8DCCE" width="8.1" height="0.2"/>
			<rect x="233.3" y="214.9" fill="#E8DCCE" width="0.2" height="7.3"/>
			<rect x="229.7" y="216.9" fill="#E8DCCE" width="7.7" height="0.2"/>
		</g>
		<g>
			<g>
				<path fill="#FFF3DE" d="M253.1,187h-9v-2.5h9V187z M244.3,186.9h8.7v-2.2h-8.7V186.9z"/>
			</g>
			<g opacity="0.2">
				<path d="M253,186.9h-8.7v-2.2h8.7V186.9z M244.4,186.7h8.5v-2h-8.5V186.7z"/>
			</g>
			<rect x="244.8" y="188.8" fill="#FFF3DE" width="7.7" height="8.7"/>
			<rect x="245.8" y="189.2" fill="#A79498" width="5.4" height="7.3"/>
			<rect x="244.2" y="187" fill="#FFF3DE" width="9" height="2.3"/>
			<rect x="244.2" y="196.6" fill="#FFF3DE" width="9" height="1.9"/>
			<polygon fill="#FFF3DE" points="249.7,200.5 247.5,200.5 245.9,198.5 251.2,198.5 			"/>
			<rect x="244.5" y="196.9" fill="#E8DCCE" width="8.1" height="0.2"/>
			<rect x="244.5" y="198" fill="#E8DCCE" width="8.1" height="0.2"/>
			<rect x="248.4" y="189.2" fill="#E8DCCE" width="0.2" height="7.3"/>
			<rect x="244.7" y="191.2" fill="#E8DCCE" width="7.7" height="0.2"/>
		</g>
		<g>
			<rect x="244.8" y="214.4" fill="#FFF3DE" width="7.7" height="8.7"/>
			<rect x="245.8" y="214.9" fill="#A79498" width="5.4" height="7.3"/>
			<rect x="244.2" y="212.7" fill="#FFF3DE" width="9" height="2.3"/>
			<rect x="244.2" y="222.3" fill="#FFF3DE" width="9" height="1.9"/>
			<polygon fill="#FFF3DE" points="249.7,226.1 247.5,226.1 245.9,224.2 251.2,224.2 			"/>
			<rect x="244.5" y="222.6" fill="#E8DCCE" width="8.1" height="0.2"/>
			<rect x="244.5" y="223.7" fill="#E8DCCE" width="8.1" height="0.2"/>
			<rect x="248.4" y="214.9" fill="#E8DCCE" width="0.2" height="7.3"/>
			<rect x="244.7" y="216.9" fill="#E8DCCE" width="7.7" height="0.2"/>
		</g>
		<rect x="248.6" y="98.2" opacity="0.2" fill="#FFFFFF" width="9.4" height="138.9"/>
		<rect x="227.2" y="234.9" fill="#F3E8D6" width="46.3" height="3.3"/>
		<rect x="227.2" y="234.2" fill="#FFF3DE" width="46.3" height="1.5"/>
	</g>
	<g>
		<polygon fill="#FBD9DE" points="28,126.7 74,126.7 74,188 72.8,188 72.8,188.6 60.1,188.6 60.1,188 42,188 42,188.6 29.1,188.6 
			29.1,188 28,188 		"/>
		<rect x="28.9" y="188.5" fill="#F7B7C6" width="44.1" height="46.1"/>
		<rect x="42" y="188" fill="#EAAFC0" width="18.1" height="46.2"/>
		<rect x="50.8" y="84.2" fill="#645E67" width="1.1" height="0.7"/>
		<rect x="49.5" y="86.8" fill="#FFF3DE" width="3.7" height="4.4"/>
		<rect x="49.5" y="86.8" opacity="0.2" fill="#FFFFFF" width="1.9" height="4.4"/>
		<path fill="#746B78" d="M49.5,86.8h3.7v-0.3c0-1-0.8-1.9-1.9-1.9h0c-1,0-1.9,0.8-1.9,1.9V86.8z"/>
		<rect x="26.5" y="126.7" fill="#FFF3DE" width="2.7" height="110.5"/>
		<polygon fill="#89808F" points="22.2,120.1 72.8,120.1 72.8,106.2 42,106.2 		"/>
		<rect x="42" y="98.2" fill="#EECDD5" width="18.1" height="89.8"/>
		<rect x="42" y="98.2" fill="#FFF3DE" width="18.1" height="2.7"/>
		<g>
			<g>
				<rect x="62.1" y="112.7" fill="#FFEFD1" width="8.8" height="7.4"/>
				<rect x="65.3" y="107.4" fill="#645E67" width="2.3" height="1.5"/>
				<g>
					<rect x="66.2" y="102.2" fill="#645E67" width="0.6" height="5.1"/>
				</g>
				<rect x="63.9" y="114.8" fill="#A79498" width="5.3" height="4.5"/>
				<path fill="#746B78" d="M62.1,112.7h8.8v0c0-2.4-2-4.4-4.4-4.4h0C64.1,108.3,62.1,110.2,62.1,112.7L62.1,112.7z"/>
				<rect x="63.9" y="114.8" opacity="0.3" fill="#FFFFFF" width="2.6" height="4.5"/>
			</g>
			<path opacity="0.1" fill="#FFFFFF" d="M66.2,108.3h0.3v4.4h-4.4v-0.3C62.1,110.1,64,108.3,66.2,108.3z"/>
		</g>
		<g>
			<g>
				<rect x="31.2" y="112.7" fill="#FFEFD1" width="8.8" height="7.4"/>
				<rect x="34.4" y="107.4" fill="#645E67" width="2.3" height="1.5"/>
				<g>
					<rect x="35.2" y="102.2" fill="#645E67" width="0.6" height="5.1"/>
				</g>
				<rect x="33" y="114.8" fill="#A79498" width="5.3" height="4.5"/>
				<path fill="#746B78" d="M31.2,112.7h8.8v0c0-2.4-2-4.4-4.4-4.4h0C33.1,108.3,31.2,110.2,31.2,112.7L31.2,112.7z"/>
				<rect x="33" y="114.8" opacity="0.3" fill="#FFFFFF" width="2.6" height="4.5"/>
			</g>
			<path opacity="0.1" fill="#FFFFFF" d="M35.3,108.3h0.3v4.4h-4.4v-0.3C31.2,110.1,33.1,108.3,35.3,108.3z"/>
		</g>
		<rect x="42" y="100.9" opacity="0.1" width="18.1" height="0.7"/>
		<rect x="51.2" y="74.6" fill="#645E67" width="0.4" height="9.8"/>
		<path fill="#746B78" d="M42,98.2h18.1v0c0-4.7-3.8-8.5-8.5-8.5h-1.2C45.8,89.7,42,93.5,42,98.2L42,98.2z"/>
		<path opacity="0.2" fill="#FFFFFF" d="M51.4,98.2H42c0-4.7,3.8-8.5,8.5-8.5h0.9V98.2z"/>
		<path opacity="0.2" fill="#FFFFFF" d="M51.4,84.7C51.4,84.7,51.4,84.7,51.4,84.7l0,2.1h-1.9v-0.3C49.5,85.5,50.3,84.7,51.4,84.7z"
			/>
		<polygon fill="#E4C086" points="26.5,126.7 72.8,126.7 72.8,122.7 22.2,122.7 		"/>
		<polygon fill="#FFEFD1" points="72.8,120 72.8,122.7 72.4,122.7 72.4,125.6 71.6,125.6 71.6,122.7 69.5,122.7 69.5,125.6 
			68.7,125.6 68.7,122.7 66.3,122.7 66.3,125.6 65.5,125.6 65.5,122.7 63.2,122.7 63.2,125.6 62.3,125.6 62.3,122.7 60,122.7 
			60,125.6 59.1,125.6 59.1,122.7 56.6,122.7 56.6,125.6 55.8,125.6 55.8,122.7 53.4,122.7 53.4,125.6 52.5,125.6 52.5,122.7 
			50.3,122.7 50.3,125.6 49.4,125.6 49.4,122.7 47,122.7 47,125.6 46.2,125.6 46.2,122.7 43.6,122.7 43.6,125.6 42.7,125.6 
			42.7,122.7 40.3,122.7 40.3,125.6 39.5,125.6 39.5,122.7 37.2,122.7 37.2,125.6 36.3,125.6 36.3,122.7 34,122.7 34,125.6 
			33.1,125.6 33.1,122.7 30.7,122.7 30.7,125.6 29.8,125.6 29.8,122.7 27.5,122.7 27.5,125.6 26.6,125.6 26.6,122.7 24.3,122.7 
			24.3,124.7 23.5,123.9 23.5,122.7 22.2,122.7 19.3,120 		"/>
		<polygon fill="#C9A87A" points="21.6,122.1 72.8,122.1 72.8,121.7 21.1,121.7 		"/>
		<rect x="28.4" y="126.7" fill="#FFF3DE" width="44.4" height="0.7"/>
		<rect x="47.2" y="104" fill="#FFF3DE" width="8" height="13.7"/>
		<path fill="#A79498" d="M49.4,115.2H53v-8.1c0-1-0.8-1.8-1.8-1.8h0c-1,0-1.8,0.8-1.8,1.8V115.2z"/>
		<rect x="46.7" y="103.2" fill="#E8DCCE" width="9" height="1.4"/>
		<rect x="46.3" y="116.1" fill="#FFF3DE" width="9.9" height="1.8"/>
		<rect x="51.1" y="104.6" fill="#E8DCCE" width="0.2" height="11.8"/>
		<rect x="47.1" y="107.9" fill="#E8DCCE" width="8.1" height="0.2"/>
		<rect x="60.1" y="140.9" fill="#FFF3DE" width="12.6" height="0.6"/>
		<rect x="60.1" y="141.5" opacity="0.1" width="12.6" height="0.6"/>
		<rect x="60.1" y="161.7" fill="#FFF3DE" width="12.7" height="0.6"/>
		<rect x="60.1" y="146.7" fill="#FFF3DE" width="12.6" height="0.6"/>
		<rect x="42" y="146.1" fill="#FFF3DE" width="18.1" height="0.6"/>
		<rect x="42" y="166.9" fill="#FFF3DE" width="18.1" height="0.6"/>
		<rect x="28" y="146.7" fill="#FFF3DE" width="14" height="0.6"/>
		<rect x="60.1" y="162.3" opacity="0.1" width="12.6" height="0.6"/>
		<rect x="29.1" y="161.7" fill="#FFF3DE" width="12.9" height="0.6"/>
		<rect x="29.1" y="162.3" opacity="0.1" width="12.9" height="0.6"/>
		<rect x="60.1" y="182.5" fill="#FFF3DE" width="12.6" height="0.6"/>
		<rect x="60.1" y="183.1" opacity="0.1" width="12.6" height="0.6"/>
		<rect x="29.1" y="182.5" fill="#FFF3DE" width="12.9" height="0.6"/>
		<rect x="29.1" y="183.1" opacity="0.1" width="12.9" height="0.6"/>
		<rect x="42" y="139.7" fill="#FFF3DE" width="18.1" height="0.6"/>
		<rect x="42" y="140.3" opacity="0.1" width="18.1" height="0.6"/>
		<rect x="42" y="160.5" fill="#FFF3DE" width="18.1" height="0.6"/>
		<rect x="42" y="161.1" opacity="0.1" width="18.1" height="0.6"/>
		<rect x="42" y="181.3" fill="#FFF3DE" width="18.1" height="0.6"/>
		<rect x="42" y="181.9" opacity="0.1" width="18.1" height="0.6"/>
		<rect x="29.1" y="140.9" fill="#FFF3DE" width="12.9" height="0.6"/>
		<rect x="29.1" y="141.5" opacity="0.1" width="12.9" height="0.6"/>
		<g>
			<rect x="62.6" y="127.5" fill="#FFF3DE" width="8" height="13.7"/>
			<path fill="#A79498" d="M64.8,138.7h3.6v-8.1c0-1-0.8-1.8-1.8-1.8h0c-1,0-1.8,0.8-1.8,1.8V138.7z"/>
			<path opacity="0.3" fill="#FFFFFF" d="M66.6,128.8v9.9h-1.8v-8.1C64.8,129.6,65.6,128.8,66.6,128.8z"/>
			<rect x="62.1" y="126.7" fill="#E8DCCE" width="9" height="1.4"/>
			<rect x="66.5" y="128.1" fill="#E8DCCE" width="0.2" height="12.7"/>
			<rect x="62.5" y="131.4" fill="#E8DCCE" width="8.1" height="0.2"/>
		</g>
		<g>
			<rect x="62.6" y="148.1" fill="#FFF3DE" width="8" height="13.7"/>
			<path fill="#A79498" d="M64.8,159.3h3.6v-8.1c0-1-0.8-1.8-1.8-1.8h0c-1,0-1.8,0.8-1.8,1.8V159.3z"/>
			<path opacity="0.3" fill="#FFFFFF" d="M66.6,149.3v9.9h-1.8v-8.1C64.8,150.2,65.6,149.3,66.6,149.3z"/>
			<rect x="62.1" y="147.3" fill="#E8DCCE" width="9" height="1.4"/>
			<rect x="66.5" y="148.7" fill="#E8DCCE" width="0.2" height="12.7"/>
			<rect x="62.5" y="152" fill="#E8DCCE" width="8.1" height="0.2"/>
		</g>
		<rect x="60.1" y="167.5" fill="#FFF3DE" width="12.7" height="0.6"/>
		<g>
			<rect x="62.6" y="168.9" fill="#FFF3DE" width="8" height="13.7"/>
			<path fill="#A79498" d="M64.8,180.1h3.6V172c0-1-0.8-1.8-1.8-1.8h0c-1,0-1.8,0.8-1.8,1.8V180.1z"/>
			<path opacity="0.3" fill="#FFFFFF" d="M66.6,170.2v9.9h-1.8V172C64.8,171,65.6,170.2,66.6,170.2z"/>
			<rect x="62.1" y="168.1" fill="#E8DCCE" width="9" height="1.4"/>
			<rect x="66.5" y="169.5" fill="#E8DCCE" width="0.2" height="12.7"/>
			<rect x="62.5" y="172.8" fill="#E8DCCE" width="8.1" height="0.2"/>
		</g>
		<rect x="29" y="167.5" fill="#FFF3DE" width="13.1" height="0.6"/>
		<g>
			<rect x="31.7" y="168.9" fill="#FFF3DE" width="8" height="13.7"/>
			<path fill="#A79498" d="M33.8,180.1h3.6V172c0-1-0.8-1.8-1.8-1.8h0c-1,0-1.8,0.8-1.8,1.8V180.1z"/>
			<path opacity="0.3" fill="#FFFFFF" d="M35.6,170.2v9.9h-1.8V172C33.8,171,34.6,170.2,35.6,170.2z"/>
			<rect x="31.2" y="168.1" fill="#E8DCCE" width="9" height="1.4"/>
			<rect x="35.6" y="169.5" fill="#E8DCCE" width="0.2" height="12.7"/>
			<rect x="31.6" y="172.8" fill="#E8DCCE" width="8.1" height="0.2"/>
		</g>
		<g>
			<rect x="31.5" y="127.5" fill="#FFF3DE" width="8" height="13.7"/>
			<path fill="#A79498" d="M33.7,138.7h3.6v-8.1c0-1-0.8-1.8-1.8-1.8h0c-1,0-1.8,0.8-1.8,1.8V138.7z"/>
			<path opacity="0.3" fill="#FFFFFF" d="M35.5,128.8v9.9h-1.8v-8.1C33.7,129.6,34.5,128.8,35.5,128.8z"/>
			<rect x="31" y="126.7" fill="#E8DCCE" width="9" height="1.4"/>
			<rect x="35.4" y="128.1" fill="#E8DCCE" width="0.2" height="12.7"/>
			<rect x="31.5" y="131.4" fill="#E8DCCE" width="8.1" height="0.2"/>
		</g>
		<g>
			<rect x="31.5" y="148.1" fill="#FFF3DE" width="8" height="13.7"/>
			<path fill="#A79498" d="M33.7,159.3h3.6v-8.1c0-1-0.8-1.8-1.8-1.8h0c-1,0-1.8,0.8-1.8,1.8V159.3z"/>
			<path opacity="0.3" fill="#FFFFFF" d="M35.5,149.3v9.9h-1.8v-8.1C33.7,150.2,34.5,149.3,35.5,149.3z"/>
			<rect x="31" y="147.3" fill="#E8DCCE" width="9" height="1.4"/>
			<rect x="35.4" y="148.7" fill="#E8DCCE" width="0.2" height="12.7"/>
			<rect x="31.5" y="152" fill="#E8DCCE" width="8.1" height="0.2"/>
		</g>
		<g>
			<rect x="47.8" y="127.4" fill="#FFF3DE" width="7.2" height="12.4"/>
			<path fill="#A79498" d="M49.7,137.6H53v-7.3c0-0.9-0.7-1.6-1.6-1.6h0c-0.9,0-1.6,0.7-1.6,1.6V137.6z"/>
			<rect x="47.3" y="126.7" fill="#E8DCCE" width="8.1" height="1.3"/>
			<rect x="51.3" y="128" fill="#E8DCCE" width="0.2" height="11.5"/>
			<rect x="47.7" y="131" fill="#E8DCCE" width="7.3" height="0.2"/>
		</g>
		<g>
			<rect x="47.6" y="147.4" fill="#FFF3DE" width="7.6" height="13.1"/>
			<path fill="#A79498" d="M49.6,158.1h3.4v-7.8c0-1-0.8-1.7-1.7-1.7l0,0c-1,0-1.7,0.8-1.7,1.7V158.1z"/>
			<rect x="47.1" y="146.7" fill="#E8DCCE" width="8.5" height="1.3"/>
			<rect x="51.3" y="148" fill="#E8DCCE" width="0.2" height="12.1"/>
			<rect x="47.5" y="151.2" fill="#E8DCCE" width="7.7" height="0.2"/>
		</g>
		<g>
			<rect x="47.6" y="168.3" fill="#FFF3DE" width="7.6" height="13.1"/>
			<path fill="#A79498" d="M49.6,179h3.4v-7.8c0-1-0.8-1.7-1.7-1.7l0,0c-1,0-1.7,0.8-1.7,1.7V179z"/>
			<rect x="47.1" y="167.5" fill="#E8DCCE" width="8.5" height="1.3"/>
			<rect x="51.3" y="168.9" fill="#E8DCCE" width="0.2" height="12.1"/>
			<rect x="47.5" y="172" fill="#E8DCCE" width="7.7" height="0.2"/>
		</g>
		<rect x="60.1" y="188.8" opacity="0.1" width="12.7" height="0.4"/>
		<rect x="60.1" y="188.5" fill="#FFF3DE" width="12.8" height="0.3"/>
		<rect x="29.1" y="188.8" opacity="0.1" width="12.9" height="0.4"/>
		<rect x="29" y="188.5" fill="#FFF3DE" width="13" height="0.3"/>
		<rect x="42" y="188" opacity="0.1" width="18.1" height="0.4"/>
		<rect x="42" y="187.7" fill="#FFF3DE" width="18.1" height="0.3"/>
		<g>
			<g>
				<path fill="#FFF3DE" d="M62,185.2h9v2.5h-9V185.2z M70.9,185.3h-8.7v2.2h8.7V185.3z"/>
			</g>
			<g opacity="0.2">
				<path d="M62.1,185.3h8.7v2.2h-8.7V185.3z M70.8,185.5h-8.5v2h8.5V185.5z"/>
			</g>
			<rect x="62.7" y="189.5" fill="#FFF3DE" width="7.7" height="8.7"/>
			<rect x="63.9" y="189.9" fill="#A79498" width="5.4" height="7.3"/>
			<rect x="63.9" y="189.9" opacity="0.3" fill="#FFFFFF" width="2.8" height="7.3"/>
			<rect x="62" y="187.7" fill="#FFF3DE" width="9" height="2.3"/>
			<rect x="62" y="197.3" fill="#FFF3DE" width="9" height="1.9"/>
			<polygon fill="#FFF3DE" points="65.4,201.2 67.7,201.2 69.3,199.2 63.9,199.2 			"/>
			<rect x="62.5" y="197.6" fill="#E8DCCE" width="8.1" height="0.2"/>
			<rect x="62.5" y="198.7" fill="#E8DCCE" width="8.1" height="0.2"/>
			<rect x="66.6" y="189.9" fill="#E8DCCE" width="0.2" height="7.3"/>
			<rect x="62.7" y="191.9" fill="#E8DCCE" width="7.7" height="0.2"/>
		</g>
		<g>
			<rect x="31.9" y="189.5" fill="#FFF3DE" width="7.7" height="8.7"/>
			<rect x="33.1" y="189.9" fill="#A79498" width="5.4" height="7.3"/>
			<rect x="33.1" y="189.9" opacity="0.3" fill="#FFFFFF" width="2.8" height="7.3"/>
			<rect x="31.2" y="187.7" fill="#FFF3DE" width="9" height="2.3"/>
			<rect x="31.2" y="197.3" fill="#FFF3DE" width="9" height="1.9"/>
			<polygon fill="#FFF3DE" points="34.6,201.2 36.9,201.2 38.5,199.2 33.1,199.2 			"/>
			<rect x="31.6" y="197.6" fill="#E8DCCE" width="8.1" height="0.2"/>
			<rect x="31.6" y="198.7" fill="#E8DCCE" width="8.1" height="0.2"/>
			<rect x="35.8" y="189.9" fill="#E8DCCE" width="0.2" height="7.3"/>
			<rect x="31.9" y="191.9" fill="#E8DCCE" width="7.7" height="0.2"/>
		</g>
		<g>
			<rect x="31.9" y="214.5" fill="#FFF3DE" width="7.7" height="8.7"/>
			<rect x="33.1" y="214.9" fill="#A79498" width="5.4" height="7.3"/>
			<rect x="33.1" y="214.9" opacity="0.3" fill="#FFFFFF" width="2.8" height="7.3"/>
			<rect x="31.2" y="212.7" fill="#FFF3DE" width="9" height="2.3"/>
			<rect x="31.2" y="222.3" fill="#FFF3DE" width="9" height="1.9"/>
			<polygon fill="#FFF3DE" points="34.6,226.2 36.9,226.2 38.5,224.2 33.1,224.2 			"/>
			<rect x="31.6" y="222.6" fill="#E8DCCE" width="8.1" height="0.2"/>
			<rect x="31.6" y="223.7" fill="#E8DCCE" width="8.1" height="0.2"/>
			<rect x="35.8" y="214.9" fill="#E8DCCE" width="0.2" height="7.3"/>
			<rect x="31.9" y="216.9" fill="#E8DCCE" width="7.7" height="0.2"/>
		</g>
		<g>
			<rect x="62.6" y="214.5" fill="#FFF3DE" width="7.7" height="8.7"/>
			<rect x="63.8" y="214.9" fill="#A79498" width="5.4" height="7.3"/>
			<rect x="63.8" y="214.9" opacity="0.3" fill="#FFFFFF" width="2.8" height="7.3"/>
			<rect x="61.9" y="212.7" fill="#FFF3DE" width="9" height="2.3"/>
			<rect x="61.9" y="222.3" fill="#FFF3DE" width="9" height="1.9"/>
			<polygon fill="#FFF3DE" points="65.4,226.2 67.6,226.2 69.2,224.2 63.8,224.2 			"/>
			<rect x="62.4" y="222.6" fill="#E8DCCE" width="8.1" height="0.2"/>
			<rect x="62.4" y="223.7" fill="#E8DCCE" width="8.1" height="0.2"/>
			<rect x="66.5" y="214.9" fill="#E8DCCE" width="0.2" height="7.3"/>
			<rect x="62.6" y="216.9" fill="#E8DCCE" width="7.7" height="0.2"/>
		</g>
		<g>
			<g>
				<path fill="#FFF3DE" d="M46.9,184.5h9v2.5h-9V184.5z M55.7,184.7H47v2.2h8.7V184.7z"/>
			</g>
			<g opacity="0.2">
				<path d="M47,184.7h8.7v2.2H47V184.7z M55.6,184.8h-8.5v2h8.5V184.8z"/>
			</g>
			<rect x="47.5" y="188.8" fill="#FFF3DE" width="7.7" height="8.7"/>
			<rect x="48.7" y="189.3" fill="#A79498" width="5.4" height="7.3"/>
			<rect x="46.9" y="187" fill="#FFF3DE" width="9" height="2.3"/>
			<rect x="46.9" y="196.6" fill="#FFF3DE" width="9" height="1.9"/>
			<polygon fill="#FFF3DE" points="50.3,200.5 52.5,200.5 54.1,198.6 48.8,198.6 			"/>
			<rect x="47.3" y="197" fill="#E8DCCE" width="8.1" height="0.2"/>
			<rect x="47.3" y="198.1" fill="#E8DCCE" width="8.1" height="0.2"/>
			<rect x="51.4" y="189.3" fill="#E8DCCE" width="0.2" height="7.3"/>
			<rect x="47.5" y="191.3" fill="#E8DCCE" width="7.7" height="0.2"/>
		</g>
		<g>
			<rect x="47.5" y="214.5" fill="#FFF3DE" width="7.7" height="8.7"/>
			<rect x="48.7" y="214.9" fill="#A79498" width="5.4" height="7.3"/>
			<rect x="46.9" y="212.7" fill="#FFF3DE" width="9" height="2.3"/>
			<rect x="46.9" y="222.3" fill="#FFF3DE" width="9" height="1.9"/>
			<polygon fill="#FFF3DE" points="50.3,226.2 52.5,226.2 54.1,224.2 48.8,224.2 			"/>
			<rect x="47.3" y="222.6" fill="#E8DCCE" width="8.1" height="0.2"/>
			<rect x="47.3" y="223.7" fill="#E8DCCE" width="8.1" height="0.2"/>
			<rect x="51.4" y="214.9" fill="#E8DCCE" width="0.2" height="7.3"/>
			<rect x="47.5" y="216.9" fill="#E8DCCE" width="7.7" height="0.2"/>
		</g>
		<rect x="42" y="98.2" opacity="0.2" fill="#FFFFFF" width="9.4" height="138.9"/>
		<rect x="26.5" y="235" fill="#F3E8D6" width="46.3" height="3.3"/>
		<rect x="26.5" y="234.2" fill="#FFF3DE" width="46.3" height="1.5"/>
	</g>
	<rect x="72.8" y="236.6" fill="#F3E8D6" width="154.4" height="3.3"/>
	<rect x="74.1" y="181.6" fill="#F7B7C6" width="151.7" height="51.3"/>
	<rect x="137.6" y="180.8" fill="#FBD9DE" width="25.4" height="52.1"/>
	<rect x="72.8" y="125.3" fill="#FBD9DE" width="154.4" height="13.2"/>
	<rect x="224.6" y="125.3" fill="#FFF3DE" width="2.7" height="13.3"/>
	<rect x="72.8" y="125.3" fill="#FFF3DE" width="2.7" height="13.7"/>
	<rect x="72.8" y="119.5" fill="#FBD9DE" width="154.4" height="5.3"/>
	<rect x="72.8" y="140.2" fill="#FBD9DE" width="154.4" height="5.3"/>
	<polygon fill="#89808F" points="229.7,96.4 70.7,96.4 103.8,80.8 197.1,80.8 	"/>
	<rect x="113.6" y="89" fill="#FFEFD1" width="8.8" height="7.4"/>
	<rect x="116.9" y="83.7" fill="#645E67" width="2.3" height="1.5"/>
	<g>
		<rect x="117.7" y="78.6" fill="#645E67" width="0.6" height="5.1"/>
	</g>
	<rect x="115.3" y="91.1" fill="#A79498" width="5.3" height="4.5"/>
	<polygon fill="#D1BABF" points="157.5,73.4 142.5,73.4 136.8,80.8 163.3,80.8 	"/>
	<rect x="132" y="79.4" fill="#FBD9DE" width="36" height="4.1"/>
	<path fill="#FBD9DE" d="M168.6,92.5v-7.3h-37.2v7.3c0,0-3-0.1-4.2,3.9h4.2h37.2h4.2C171.6,92.5,168.6,92.5,168.6,92.5z"/>
	<polygon fill="#FFEFD1" points="227.2,103.8 72.8,103.8 68.1,96.4 231.9,96.4 	"/>
	<path fill="#746B78" d="M122.4,89h-8.8v0c0-2.4,2-4.4,4.4-4.4h0C120.4,84.6,122.4,86.5,122.4,89L122.4,89z"/>
	<polygon fill="#FFEFD1" points="230.7,98.2 69.2,98.2 68.1,96.4 231.8,96.4 	"/>
	<rect x="117.9" y="91.1" opacity="0.3" fill="#FFFFFF" width="2.6" height="4.5"/>
	<rect x="97.6" y="89" fill="#FFEFD1" width="8.8" height="7.4"/>
	<rect x="100.9" y="83.7" fill="#645E67" width="2.3" height="1.5"/>
	<g>
		<rect x="101.7" y="78.6" fill="#645E67" width="0.6" height="5.1"/>
	</g>
	<rect x="99.3" y="91.1" fill="#A79498" width="5.3" height="4.5"/>
	<path fill="#746B78" d="M106.4,89h-8.8v0c0-2.4,2-4.4,4.4-4.4h0C104.4,84.6,106.4,86.5,106.4,89L106.4,89z"/>
	<rect x="101.9" y="91.1" opacity="0.3" fill="#FFFFFF" width="2.6" height="4.5"/>
	<rect x="81.7" y="89" fill="#FFEFD1" width="8.8" height="7.4"/>
	<rect x="85" y="83.7" fill="#645E67" width="2.3" height="1.5"/>
	<g>
		<rect x="85.8" y="78.6" fill="#645E67" width="0.6" height="5.1"/>
	</g>
	<rect x="83.4" y="91.1" fill="#A79498" width="5.3" height="4.5"/>
	<path fill="#746B78" d="M90.4,89h-8.8v0c0-2.4,2-4.4,4.4-4.4h0C88.5,84.6,90.4,86.5,90.4,89L90.4,89z"/>
	<rect x="86" y="91.1" opacity="0.3" fill="#FFFFFF" width="2.6" height="4.5"/>
	<rect x="209.9" y="89" fill="#FFEFD1" width="8.8" height="7.4"/>
	<rect x="213.2" y="83.7" fill="#645E67" width="2.3" height="1.5"/>
	<g>
		<rect x="214" y="78.6" fill="#645E67" width="0.6" height="5.1"/>
	</g>
	<rect x="211.6" y="91.1" fill="#A79498" width="5.3" height="4.5"/>
	<path fill="#746B78" d="M218.7,89h-8.8v0c0-2.4,2-4.4,4.4-4.4l0,0C216.7,84.6,218.7,86.5,218.7,89L218.7,89z"/>
	<rect x="214.2" y="91.1" opacity="0.3" fill="#FFFFFF" width="2.6" height="4.5"/>
	<rect x="193.9" y="89" fill="#FFEFD1" width="8.8" height="7.4"/>
	<rect x="197.2" y="83.7" fill="#645E67" width="2.3" height="1.5"/>
	<g>
		<rect x="198" y="78.6" fill="#645E67" width="0.6" height="5.1"/>
	</g>
	<rect x="195.6" y="91.1" fill="#A79498" width="5.3" height="4.5"/>
	<path fill="#746B78" d="M202.7,89h-8.8v0c0-2.4,2-4.4,4.4-4.4l0,0C200.7,84.6,202.7,86.5,202.7,89L202.7,89z"/>
	<rect x="198.2" y="91.1" opacity="0.3" fill="#FFFFFF" width="2.6" height="4.5"/>
	<rect x="178" y="89" fill="#FFEFD1" width="8.8" height="7.4"/>
	<rect x="181.3" y="83.7" fill="#645E67" width="2.3" height="1.5"/>
	<g>
		<rect x="182.1" y="78.6" fill="#645E67" width="0.6" height="5.1"/>
	</g>
	<rect x="179.7" y="91.1" fill="#A79498" width="5.3" height="4.5"/>
	<path fill="#746B78" d="M186.8,89H178v0c0-2.4,2-4.4,4.4-4.4l0,0C184.8,84.6,186.8,86.5,186.8,89L186.8,89z"/>
	<rect x="182.3" y="91.1" opacity="0.3" fill="#FFFFFF" width="2.6" height="4.5"/>
	<path fill="#A79498" d="M139.1,87.9L139.1,87.9c1.2,0,2.2,1,2.2,2.2v5.3h-4.5v-5.3C136.8,88.9,137.8,87.9,139.1,87.9z"/>
	<path fill="#A79498" d="M150.2,87.9L150.2,87.9c1.2,0,2.2,1,2.2,2.2v5.3H148v-5.3C148,88.9,149,87.9,150.2,87.9z"/>
	<path fill="#A79498" d="M161.5,87.9L161.5,87.9c1.2,0,2.2,1,2.2,2.2v5.3h-4.5v-5.3C159.3,88.9,160.3,87.9,161.5,87.9z"/>
	<path opacity="0.3" fill="#FFFFFF" d="M139.1,87.9v7.5h2.2v-5.3C141.3,88.9,140.3,87.9,139.1,87.9z"/>
	<path opacity="0.3" fill="#FFFFFF" d="M150.2,87.9v7.5h2.2v-5.3C152.4,88.9,151.4,87.9,150.2,87.9z"/>
	<path opacity="0.3" fill="#FFFFFF" d="M161.5,87.9v7.5h2.2v-5.3C163.7,88.9,162.7,87.9,161.5,87.9z"/>
	<rect x="143.8" y="73.8" fill="#E1C7CC" width="12.5" height="9.7"/>
	<path fill="#A79498" d="M150.2,74.6L150.2,74.6c1.2,0,2.2,1,2.2,2.2v5.3H148v-5.3C148,75.6,149,74.6,150.2,74.6z"/>
	<path opacity="0.3" fill="#FFFFFF" d="M150.2,74.6v7.5h2.2v-5.3C152.4,75.6,151.4,74.6,150.2,74.6z"/>
	<path fill="#FBD9DE" d="M157.9,72.4h-16.1l0,0c0-2.2,1.8-3.9,3.9-3.9h8.2C156.2,68.4,157.9,70.2,157.9,72.4L157.9,72.4z"/>
	<polygon fill="#FFEFD1" points="155.7,64.8 144.5,64.8 142.9,63.3 156.8,63.3 	"/>
	<polygon fill="#D1BABF" points="154.3,68.4 145.5,68.4 147,66.6 145.5,64.8 154.3,64.8 153.2,66.6 	"/>
	<polygon fill="#FBD9DE" points="153.7,63.3 146.4,63.3 150,59.8 	"/>
	<polygon fill="#C9A87A" points="230.8,98.2 69.2,98.2 69.9,99.3 230.1,99.3 	"/>
	<polygon fill="#E4C086" points="69.9,99.3 72.8,103.9 227.2,103.9 230.1,99.3 	"/>
	<polygon fill="#FFEFD1" points="69.5,98.7 69.9,99.3 72.1,99.3 72.1,102.8 73,102.8 73,99.3 75.4,99.3 75.4,102.8 76.2,102.8 
		76.2,99.3 78.6,99.3 78.6,102.8 79.4,102.8 79.4,99.3 81.8,99.3 81.8,102.8 82.7,102.8 82.7,99.3 85.1,99.3 85.1,102.8 85.9,102.8 
		85.9,99.3 88.3,99.3 88.3,102.8 89.1,102.8 89.1,99.3 91.5,99.3 91.5,102.8 92.4,102.8 92.4,99.3 94.7,99.3 94.7,102.8 95.6,102.8 
		95.6,99.3 98,99.3 98,102.8 98.8,102.8 98.8,99.3 101.2,99.3 101.2,102.8 102,102.8 102,99.3 104.4,99.3 104.4,102.8 105.3,102.8 
		105.3,99.3 107.7,99.3 107.7,102.8 108.5,102.8 108.5,99.3 110.9,99.3 110.9,102.8 111.7,102.8 111.7,99.3 114.1,99.3 114.1,102.8 
		115,102.8 115,99.3 117.3,99.3 117.3,102.8 118.2,102.8 118.2,99.3 120.6,99.3 120.6,102.8 121.4,102.8 121.4,99.3 123.8,99.3 
		123.8,102.8 124.6,102.8 124.6,99.3 127,99.3 127,102.8 127.9,102.8 127.9,99.3 130.2,99.3 130.2,102.8 131.1,102.8 131.1,99.3 
		133.5,99.3 133.5,102.8 134.3,102.8 134.3,99.3 136.7,99.3 136.7,102.8 137.5,102.8 137.5,99.3 139.9,99.3 139.9,102.8 
		140.8,102.8 140.8,99.3 143.2,99.3 143.2,102.8 144,102.8 144,99.3 146.4,99.3 146.4,102.8 147.2,102.8 147.2,99.3 149.6,99.3 
		149.6,102.8 150.5,102.8 150.5,99.3 152.8,99.3 152.8,102.8 153.7,102.8 153.7,99.3 156.1,99.3 156.1,102.8 156.9,102.8 
		156.9,99.3 159.3,99.3 159.3,102.8 160.1,102.8 160.1,99.3 162.5,99.3 162.5,102.8 163.4,102.8 163.4,99.3 165.8,99.3 165.8,102.8 
		166.6,102.8 166.6,99.3 169,99.3 169,102.8 169.8,102.8 169.8,99.3 172.2,99.3 172.2,102.8 173.1,102.8 173.1,99.3 175.4,99.3 
		175.4,102.8 176.3,102.8 176.3,99.3 178.7,99.3 178.7,102.8 179.5,102.8 179.5,99.3 181.9,99.3 181.9,102.8 182.7,102.8 
		182.7,99.3 185.1,99.3 185.1,102.8 186,102.8 186,99.3 188.3,99.3 188.3,102.8 189.2,102.8 189.2,99.3 191.6,99.3 191.6,102.8 
		192.4,102.8 192.4,99.3 194.8,99.3 194.8,102.8 195.7,102.8 195.7,99.3 198,99.3 198,102.8 198.9,102.8 198.9,99.3 201.3,99.3 
		201.3,102.8 202.1,102.8 202.1,99.3 204.5,99.3 204.5,102.8 205.3,102.8 205.3,99.3 207.7,99.3 207.7,102.8 208.6,102.8 
		208.6,99.3 210.9,99.3 210.9,102.8 211.8,102.8 211.8,99.3 214.2,99.3 214.2,102.8 215,102.8 215,99.3 217.4,99.3 217.4,102.8 
		218.2,102.8 218.2,99.3 220.6,99.3 220.6,102.8 221.5,102.8 221.5,99.3 223.9,99.3 223.9,102.8 224.7,102.8 224.7,99.3 227.1,99.3 
		227.1,102.8 227.9,102.8 227.9,99.3 230.1,99.3 230.4,98.7 	"/>
	<rect x="72.8" y="105.6" fill="#FBD9DE" width="154.4" height="12.4"/>
	<path fill="#FFF3DE" d="M224.9,103.8L224.9,103.8l-149.7,0v0h-2.4v0v1.7v12.1v0.3v1v0.7v5.1h2.4v-5.1h149.7v5.1h2.4v-6.3v-0.8
		v-13.9H224.9z M224.9,118H75.1v-0.3v-12.1h149.7v12.1V118z"/>
	<rect x="72.8" y="105.6" opacity="0.1" width="154.5" height="0.6"/>
	<rect x="72.8" y="119.6" opacity="0.1" width="154.5" height="0.6"/>
	<path fill="#E6B967" d="M150.1,67.3L150.1,67.3c-0.4,0-0.7-0.3-0.7-0.7v-4.3c0-0.4,0.3-0.7,0.7-0.7l0,0c0.4,0,0.7,0.3,0.7,0.7v4.3
		C150.8,66.9,150.5,67.3,150.1,67.3z"/>
	<rect x="145.8" y="104.7" fill="#FFF3DE" width="8" height="13.7"/>
	<rect x="161.7" y="104.7" fill="#FFF3DE" width="8" height="13.7"/>
	<rect x="177.6" y="104.7" fill="#FFF3DE" width="8" height="13.7"/>
	<rect x="193.6" y="104.7" fill="#FFF3DE" width="8" height="13.7"/>
	<rect x="209.5" y="104.7" fill="#FFF3DE" width="8" height="13.7"/>
	<rect x="82.1" y="104.7" fill="#FFF3DE" width="8" height="13.2"/>
	<rect x="98" y="104.7" fill="#FFF3DE" width="8" height="13.7"/>
	<rect x="113.9" y="104.7" fill="#FFF3DE" width="8" height="13.7"/>
	<rect x="129.9" y="104.7" fill="#FFF3DE" width="8" height="13.7"/>
	<path fill="#A79498" d="M87.9,116.7h-3.6v-8.1c0-1,0.8-1.8,1.8-1.8h0c1,0,1.8,0.8,1.8,1.8V116.7z"/>
	<path opacity="0.3" fill="#FFFFFF" d="M86.1,106.8v9.9h1.8v-8.1C87.9,107.6,87.1,106.8,86.1,106.8z"/>
	<path fill="#A79498" d="M103.8,116.7h-3.6v-8.1c0-1,0.8-1.8,1.8-1.8h0c1,0,1.8,0.8,1.8,1.8V116.7z"/>
	<path opacity="0.3" fill="#FFFFFF" d="M102,106.8v9.9h1.8v-8.1C103.8,107.6,103,106.8,102,106.8z"/>
	<path fill="#A79498" d="M119.7,116.7h-3.6v-8.1c0-1,0.8-1.8,1.8-1.8l0,0c1,0,1.8,0.8,1.8,1.8V116.7z"/>
	<path opacity="0.3" fill="#FFFFFF" d="M117.9,106.8v9.9h1.8v-8.1C119.7,107.6,118.9,106.8,117.9,106.8z"/>
	<path fill="#A79498" d="M135.7,116.7H132v-8.1c0-1,0.8-1.8,1.8-1.8h0c1,0,1.8,0.8,1.8,1.8V116.7z"/>
	<path opacity="0.3" fill="#FFFFFF" d="M133.8,106.8v9.9h1.8v-8.1C135.7,107.6,134.8,106.8,133.8,106.8z"/>
	<path fill="#E6B967" d="M151.6,116.7H148v-8.1c0-1,0.8-1.8,1.8-1.8h0c1,0,1.8,0.8,1.8,1.8V116.7z"/>
	<path opacity="0.3" fill="#FFFFFF" d="M149.8,106.8v9.9h1.8v-8.1C151.6,107.6,150.8,106.8,149.8,106.8z"/>
	<path fill="#A79498" d="M167.5,116.7h-3.6v-8.1c0-1,0.8-1.8,1.8-1.8l0,0c1,0,1.8,0.8,1.8,1.8V116.7z"/>
	<path opacity="0.3" fill="#FFFFFF" d="M165.7,106.8v9.9h1.8v-8.1C167.5,107.6,166.7,106.8,165.7,106.8z"/>
	<path fill="#A79498" d="M183.4,116.7h-3.6v-8.1c0-1,0.8-1.8,1.8-1.8l0,0c1,0,1.8,0.8,1.8,1.8V116.7z"/>
	<path opacity="0.3" fill="#FFFFFF" d="M181.6,106.8v9.9h1.8v-8.1C183.4,107.6,182.6,106.8,181.6,106.8z"/>
	<path fill="#A79498" d="M199.2,116.7h-3.6v-8.1c0-1,0.8-1.8,1.8-1.8h0c1,0,1.8,0.8,1.8,1.8V116.7z"/>
	<path opacity="0.3" fill="#FFFFFF" d="M197.4,106.8v9.9h1.8v-8.1C199.2,107.6,198.4,106.8,197.4,106.8z"/>
	<path fill="#A79498" d="M215.3,116.7h-3.6v-8.1c0-1,0.8-1.8,1.8-1.8l0,0c1,0,1.8,0.8,1.8,1.8V116.7z"/>
	<path opacity="0.3" fill="#FFFFFF" d="M213.5,106.8v9.9h1.8v-8.1C215.3,107.6,214.5,106.8,213.5,106.8z"/>
	<rect x="81.5" y="104.7" fill="#E8DCCE" width="9" height="1.4"/>
	<rect x="97.5" y="104.7" fill="#E8DCCE" width="9" height="1.4"/>
	<rect x="113.4" y="104.7" fill="#E8DCCE" width="9" height="1.4"/>
	<rect x="129.4" y="104.7" fill="#E8DCCE" width="9" height="1.4"/>
	<rect x="145.3" y="104.7" fill="#E8DCCE" width="9" height="1.4"/>
	<rect x="161.2" y="104.7" fill="#E8DCCE" width="9" height="1.4"/>
	<rect x="177.2" y="104.7" fill="#E8DCCE" width="9" height="1.4"/>
	<rect x="193.2" y="104.7" fill="#E8DCCE" width="9" height="1.4"/>
	<rect x="209" y="104.7" fill="#E8DCCE" width="9" height="1.4"/>
	<rect x="85.9" y="106.1" fill="#E8DCCE" width="0.2" height="11.8"/>
	<rect x="82.1" y="109.4" fill="#E8DCCE" width="8" height="0.2"/>
	<rect x="101.8" y="106.1" fill="#E8DCCE" width="0.2" height="11.8"/>
	<rect x="98" y="109.4" fill="#E8DCCE" width="8" height="0.2"/>
	<rect x="117.8" y="106.1" fill="#E8DCCE" width="0.2" height="11.8"/>
	<rect x="113.9" y="109.4" fill="#E8DCCE" width="8.1" height="0.2"/>
	<rect x="133.7" y="106.1" fill="#E8DCCE" width="0.2" height="11.8"/>
	<rect x="129.8" y="109.4" fill="#E8DCCE" width="8.1" height="0.2"/>
	<rect x="149.6" y="106.1" fill="#E8DCCE" width="0.2" height="11.8"/>
	<rect x="145.7" y="109.4" fill="#E8DCCE" width="8.1" height="0.2"/>
	<rect x="165.6" y="106.1" fill="#E8DCCE" width="0.2" height="11.8"/>
	<rect x="161.7" y="109.4" fill="#E8DCCE" width="8.1" height="0.2"/>
	<rect x="181.4" y="106.1" fill="#E8DCCE" width="0.2" height="11.8"/>
	<rect x="177.5" y="109.4" fill="#E8DCCE" width="8.1" height="0.2"/>
	<rect x="197.4" y="106.1" fill="#E8DCCE" width="0.2" height="11.8"/>
	<rect x="193.6" y="109.4" fill="#E8DCCE" width="8" height="0.2"/>
	<rect x="213.4" y="106.1" fill="#E8DCCE" width="0.2" height="11.8"/>
	<rect x="209.5" y="109.4" fill="#E8DCCE" width="8.1" height="0.2"/>
	<rect x="131.4" y="85.2" opacity="0.1" width="37.2" height="0.6"/>
	<path fill="#FFEFD1" d="M155,83.5v-8.6h0.7v-1h3l1-1.8h-19.6l0.9,1.8h3.5v1h0.7v8.6H130l1.4,1.8h1.2v1h0.7v10.2h1.4V86.3h0.6v-1
		h7.9v1h0.7v10.2h1.4V86.3h0.6v-1h8.3v1h0.7v10.2h1.4V86.3h0.6v-1h7.5v1h0.7v10.2h1.4V86.3h0.6v-1h1.2l1.5-1.8H155z M146.7,74.8h0.7
		v-1h5.6v1h0.7v8.6h-6.9V74.8z"/>
	<rect x="72.8" y="124.7" fill="#FFF3DE" width="154.5" height="0.6"/>
	<rect x="72.8" y="125.3" opacity="0.1" width="154.5" height="0.6"/>
	<rect x="145.8" y="126" fill="#FFF3DE" width="8" height="13.7"/>
	<rect x="161.7" y="126" fill="#FFF3DE" width="8" height="13.7"/>
	<rect x="177.6" y="126" fill="#FFF3DE" width="8" height="13.7"/>
	<rect x="193.6" y="126" fill="#FFF3DE" width="8" height="13.7"/>
	<rect x="209.5" y="126" fill="#FFF3DE" width="8" height="13.7"/>
	<rect x="82.1" y="125.3" fill="#FFF3DE" width="8" height="13.2"/>
	<rect x="98" y="126" fill="#FFF3DE" width="8" height="13.7"/>
	<rect x="113.9" y="126" fill="#FFF3DE" width="8" height="13.7"/>
	<rect x="129.9" y="126" fill="#FFF3DE" width="8" height="13.7"/>
	<path fill="#A79498" d="M87.9,137.3h-3.6v-8.1c0-1,0.8-1.8,1.8-1.8h0c1,0,1.8,0.8,1.8,1.8V137.3z"/>
	<path opacity="0.3" fill="#FFFFFF" d="M86.1,127.3v9.9h1.8v-8.1C87.9,128.1,87.1,127.3,86.1,127.3z"/>
	<path fill="#A79498" d="M103.8,137.3h-3.6v-8.1c0-1,0.8-1.8,1.8-1.8h0c1,0,1.8,0.8,1.8,1.8V137.3z"/>
	<path opacity="0.3" fill="#FFFFFF" d="M102,127.3v9.9h1.8v-8.1C103.8,128.1,103,127.3,102,127.3z"/>
	<path fill="#A79498" d="M119.7,137.3h-3.6v-8.1c0-1,0.8-1.8,1.8-1.8l0,0c1,0,1.8,0.8,1.8,1.8V137.3z"/>
	<path opacity="0.3" fill="#FFFFFF" d="M117.9,127.3v9.9h1.8v-8.1C119.7,128.1,118.9,127.3,117.9,127.3z"/>
	<path fill="#A79498" d="M135.7,137.3H132v-8.1c0-1,0.8-1.8,1.8-1.8h0c1,0,1.8,0.8,1.8,1.8V137.3z"/>
	<path opacity="0.3" fill="#FFFFFF" d="M133.8,127.3v9.9h1.8v-8.1C135.7,128.1,134.8,127.3,133.8,127.3z"/>
	<path fill="#A79498" d="M151.6,137.3H148v-8.1c0-1,0.8-1.8,1.8-1.8h0c1,0,1.8,0.8,1.8,1.8V137.3z"/>
	<path opacity="0.3" fill="#FFFFFF" d="M149.8,127.3v9.9h1.8v-8.1C151.6,128.1,150.8,127.3,149.8,127.3z"/>
	<path fill="#E6B967" d="M167.5,137.3h-3.6v-8.1c0-1,0.8-1.8,1.8-1.8l0,0c1,0,1.8,0.8,1.8,1.8V137.3z"/>
	<path opacity="0.3" fill="#FFFFFF" d="M165.7,127.3v9.9h1.8v-8.1C167.5,128.1,166.7,127.3,165.7,127.3z"/>
	<path fill="#A79498" d="M183.4,137.3h-3.6v-8.1c0-1,0.8-1.8,1.8-1.8l0,0c1,0,1.8,0.8,1.8,1.8V137.3z"/>
	<path opacity="0.3" fill="#FFFFFF" d="M181.6,127.3v9.9h1.8v-8.1C183.4,128.1,182.6,127.3,181.6,127.3z"/>
	<path fill="#D67663" d="M199.2,137.3h-3.6v-8.1c0-1,0.8-1.8,1.8-1.8h0c1,0,1.8,0.8,1.8,1.8V137.3z"/>
	<path opacity="0.3" fill="#FFFFFF" d="M197.4,127.3v9.9h1.8v-8.1C199.2,128.1,198.4,127.3,197.4,127.3z"/>
	<path fill="#A79498" d="M215.3,137.3h-3.6v-8.1c0-1,0.8-1.8,1.8-1.8l0,0c1,0,1.8,0.8,1.8,1.8V137.3z"/>
	<path opacity="0.3" fill="#FFFFFF" d="M213.5,127.3v9.9h1.8v-8.1C215.3,128.1,214.5,127.3,213.5,127.3z"/>
	<rect x="81.5" y="125.3" fill="#E8DCCE" width="9" height="1.4"/>
	<rect x="97.5" y="125.3" fill="#E8DCCE" width="9" height="1.4"/>
	<rect x="113.4" y="125.3" fill="#E8DCCE" width="9" height="1.4"/>
	<rect x="129.4" y="125.3" fill="#E8DCCE" width="9" height="1.4"/>
	<rect x="145.3" y="125.3" fill="#E8DCCE" width="9" height="1.4"/>
	<rect x="161.2" y="125.3" fill="#E8DCCE" width="9" height="1.4"/>
	<rect x="177.2" y="125.3" fill="#E8DCCE" width="9" height="1.4"/>
	<rect x="193.1" y="125.3" fill="#E8DCCE" width="9" height="1.4"/>
	<rect x="209" y="125.3" fill="#E8DCCE" width="9" height="1.4"/>
	<rect x="85.9" y="126.7" fill="#E8DCCE" width="0.2" height="11.8"/>
	<rect x="82.1" y="130" fill="#E8DCCE" width="8" height="0.2"/>
	<rect x="101.8" y="126.7" fill="#E8DCCE" width="0.2" height="11.8"/>
	<rect x="98" y="130" fill="#E8DCCE" width="8" height="0.2"/>
	<rect x="117.8" y="126.7" fill="#E8DCCE" width="0.2" height="11.8"/>
	<rect x="113.9" y="130" fill="#E8DCCE" width="8.1" height="0.2"/>
	<rect x="133.7" y="126.7" fill="#E8DCCE" width="0.2" height="11.8"/>
	<rect x="129.8" y="130" fill="#E8DCCE" width="8.1" height="0.2"/>
	<rect x="149.6" y="126.7" fill="#E8DCCE" width="0.2" height="11.8"/>
	<rect x="145.7" y="130" fill="#E8DCCE" width="8.1" height="0.2"/>
	<rect x="165.6" y="126.7" fill="#E8DCCE" width="0.2" height="11.8"/>
	<rect x="161.7" y="130" fill="#E8DCCE" width="8.1" height="0.2"/>
	<rect x="181.4" y="126.7" fill="#E8DCCE" width="0.2" height="11.8"/>
	<rect x="177.5" y="130" fill="#E8DCCE" width="8.1" height="0.2"/>
	<rect x="197.4" y="126.7" fill="#E8DCCE" width="0.2" height="11.8"/>
	<rect x="193.5" y="130" fill="#E8DCCE" width="8.1" height="0.2"/>
	<rect x="213.4" y="126.7" fill="#E8DCCE" width="0.2" height="11.8"/>
	<rect x="209.5" y="130" fill="#E8DCCE" width="8.1" height="0.2"/>
	<rect x="72.8" y="146.1" fill="#FBD9DE" width="154.4" height="13.2"/>
	<rect x="224.6" y="146.1" fill="#FFF3DE" width="2.7" height="13.3"/>
	<rect x="72.8" y="146.1" fill="#FFF3DE" width="2.7" height="13.7"/>
	<rect x="72.8" y="145.5" fill="#FFF3DE" width="154.5" height="0.6"/>
	<rect x="72.8" y="146.1" opacity="0.1" width="154.5" height="0.6"/>
	<rect x="145.8" y="146.1" fill="#FFF3DE" width="8" height="14.1"/>
	<rect x="161.7" y="146.1" fill="#FFF3DE" width="8" height="14.1"/>
	<rect x="177.6" y="146.1" fill="#FFF3DE" width="8" height="14.1"/>
	<rect x="193.6" y="146.1" fill="#FFF3DE" width="8" height="14.1"/>
	<rect x="209.5" y="146.1" fill="#FFF3DE" width="8" height="14.1"/>
	<rect x="82.1" y="146.1" fill="#FFF3DE" width="8" height="14.1"/>
	<rect x="98" y="146.1" fill="#FFF3DE" width="8" height="14.1"/>
	<rect x="113.9" y="146.1" fill="#FFF3DE" width="8" height="14.1"/>
	<rect x="129.9" y="146.1" fill="#FFF3DE" width="8" height="14.1"/>
	<path fill="#A79498" d="M87.9,158.1h-3.6V150c0-1,0.8-1.8,1.8-1.8h0c1,0,1.8,0.8,1.8,1.8V158.1z"/>
	<path opacity="0.3" fill="#FFFFFF" d="M86.1,148.2v9.9h1.8V150C87.9,149,87.1,148.2,86.1,148.2z"/>
	<path fill="#A79498" d="M103.8,158.1h-3.6V150c0-1,0.8-1.8,1.8-1.8h0c1,0,1.8,0.8,1.8,1.8V158.1z"/>
	<path opacity="0.3" fill="#FFFFFF" d="M102,148.2v9.9h1.8V150C103.8,149,103,148.2,102,148.2z"/>
	<path fill="#A79498" d="M119.7,158.1h-3.6V150c0-1,0.8-1.8,1.8-1.8l0,0c1,0,1.8,0.8,1.8,1.8V158.1z"/>
	<path opacity="0.3" fill="#FFFFFF" d="M117.9,148.2v9.9h1.8V150C119.7,149,118.9,148.2,117.9,148.2z"/>
	<path fill="#A79498" d="M135.7,158.1H132V150c0-1,0.8-1.8,1.8-1.8h0c1,0,1.8,0.8,1.8,1.8V158.1z"/>
	<path opacity="0.3" fill="#FFFFFF" d="M133.8,148.2v9.9h1.8V150C135.7,149,134.8,148.2,133.8,148.2z"/>
	<path fill="#A79498" d="M151.6,158.1H148V150c0-1,0.8-1.8,1.8-1.8h0c1,0,1.8,0.8,1.8,1.8V158.1z"/>
	<path opacity="0.3" fill="#FFFFFF" d="M149.8,148.2v9.9h1.8V150C151.6,149,150.8,148.2,149.8,148.2z"/>
	<path fill="#A79498" d="M167.5,158.1h-3.6V150c0-1,0.8-1.8,1.8-1.8l0,0c1,0,1.8,0.8,1.8,1.8V158.1z"/>
	<path opacity="0.3" fill="#FFFFFF" d="M165.7,148.2v9.9h1.8V150C167.5,149,166.7,148.2,165.7,148.2z"/>
	<path fill="#A79498" d="M183.4,158.1h-3.6V150c0-1,0.8-1.8,1.8-1.8l0,0c1,0,1.8,0.8,1.8,1.8V158.1z"/>
	<path opacity="0.3" fill="#FFFFFF" d="M181.6,148.2v9.9h1.8V150C183.4,149,182.6,148.2,181.6,148.2z"/>
	<path fill="#A79498" d="M199.2,158.1h-3.6V150c0-1,0.8-1.8,1.8-1.8h0c1,0,1.8,0.8,1.8,1.8V158.1z"/>
	<path opacity="0.3" fill="#FFFFFF" d="M197.4,148.2v9.9h1.8V150C199.2,149,198.4,148.2,197.4,148.2z"/>
	<path fill="#A79498" d="M215.3,158.1h-3.6V150c0-1,0.8-1.8,1.8-1.8l0,0c1,0,1.8,0.8,1.8,1.8V158.1z"/>
	<path opacity="0.3" fill="#FFFFFF" d="M213.5,148.2v9.9h1.8V150C215.3,149,214.5,148.2,213.5,148.2z"/>
	<rect x="81.5" y="146.1" fill="#E8DCCE" width="9" height="1.4"/>
	<rect x="97.5" y="146.1" fill="#E8DCCE" width="9" height="1.4"/>
	<rect x="113.4" y="146.1" fill="#E8DCCE" width="9" height="1.4"/>
	<rect x="129.4" y="146.1" fill="#E8DCCE" width="9" height="1.4"/>
	<rect x="145.3" y="146.1" fill="#E8DCCE" width="9" height="1.4"/>
	<rect x="161.2" y="146.1" fill="#E8DCCE" width="9" height="1.4"/>
	<rect x="177.2" y="146.1" fill="#E8DCCE" width="9" height="1.4"/>
	<rect x="193.1" y="146.1" fill="#E8DCCE" width="9" height="1.4"/>
	<rect x="209" y="146.1" fill="#E8DCCE" width="9" height="1.4"/>
	<rect x="85.9" y="147.5" fill="#E8DCCE" width="0.2" height="11.8"/>
	<rect x="82.1" y="150.8" fill="#E8DCCE" width="8" height="0.2"/>
	<rect x="101.8" y="147.5" fill="#E8DCCE" width="0.2" height="11.8"/>
	<rect x="98" y="150.8" fill="#E8DCCE" width="8" height="0.2"/>
	<rect x="117.8" y="147.5" fill="#E8DCCE" width="0.2" height="11.8"/>
	<rect x="113.9" y="150.8" fill="#E8DCCE" width="8.1" height="0.2"/>
	<rect x="133.7" y="147.5" fill="#E8DCCE" width="0.2" height="11.8"/>
	<rect x="129.8" y="150.8" fill="#E8DCCE" width="8.1" height="0.2"/>
	<rect x="149.6" y="147.5" fill="#E8DCCE" width="0.2" height="11.8"/>
	<rect x="145.7" y="150.8" fill="#E8DCCE" width="8.1" height="0.2"/>
	<rect x="165.6" y="147.5" fill="#E8DCCE" width="0.2" height="11.8"/>
	<rect x="161.7" y="150.8" fill="#E8DCCE" width="8.1" height="0.2"/>
	<rect x="181.4" y="147.5" fill="#E8DCCE" width="0.2" height="11.8"/>
	<rect x="177.5" y="150.8" fill="#E8DCCE" width="8.1" height="0.2"/>
	<rect x="197.4" y="147.5" fill="#E8DCCE" width="0.2" height="11.8"/>
	<rect x="193.5" y="150.8" fill="#E8DCCE" width="8.1" height="0.2"/>
	<rect x="213.4" y="147.5" fill="#E8DCCE" width="0.2" height="11.8"/>
	<rect x="209.5" y="150.8" fill="#E8DCCE" width="8.1" height="0.2"/>
	<rect x="73" y="117.9" fill="#FFF3DE" width="154.3" height="1.7"/>
	<rect x="72.8" y="138.5" fill="#FFF3DE" width="154.5" height="1.7"/>
	<rect x="72.8" y="140.2" fill="#FFF3DE" width="2.7" height="5.6"/>
	<rect x="224.6" y="140.2" fill="#FFF3DE" width="2.7" height="5.6"/>
	<rect x="72.8" y="140.2" opacity="0.1" width="154.5" height="0.6"/>
	<rect x="72.8" y="161.1" fill="#FBD9DE" width="154.2" height="5.3"/>
	<rect x="72.8" y="166.9" fill="#FBD9DE" width="154.4" height="13.2"/>
	<rect x="224.5" y="166.9" fill="#FFF3DE" width="2.7" height="13.3"/>
	<rect x="72.8" y="166.9" fill="#FFF3DE" width="2.7" height="13.3"/>
	<rect x="72.8" y="166.3" fill="#FFF3DE" width="154.5" height="0.6"/>
	<rect x="72.8" y="166.9" opacity="0.1" width="154.5" height="0.6"/>
	<rect x="193.5" y="166.9" fill="#FFF3DE" width="8" height="13.8"/>
	<rect x="209.5" y="166.9" fill="#FFF3DE" width="8" height="13.8"/>
	<rect x="82" y="166.9" fill="#FFF3DE" width="8" height="13.6"/>
	<rect x="98" y="166.9" fill="#FFF3DE" width="8" height="13.6"/>
	<path fill="#A79498" d="M87.8,178.9h-3.6v-8.1c0-1,0.8-1.8,1.8-1.8l0,0c1,0,1.8,0.8,1.8,1.8V178.9z"/>
	<path opacity="0.3" fill="#FFFFFF" d="M86,169v9.9h1.8v-8.1C87.8,169.8,87,169,86,169z"/>
	<path fill="#A79498" d="M103.8,178.9h-3.6v-8.1c0-1,0.8-1.8,1.8-1.8l0,0c1,0,1.8,0.8,1.8,1.8V178.9z"/>
	<path opacity="0.3" fill="#FFFFFF" d="M102,169v9.9h1.8v-8.1C103.8,169.8,103,169,102,169z"/>
	<path fill="#A79498" d="M199.2,178.9h-3.6v-8.1c0-1,0.8-1.8,1.8-1.8l0,0c1,0,1.8,0.8,1.8,1.8V178.9z"/>
	<path opacity="0.3" fill="#FFFFFF" d="M197.4,169v9.9h1.8v-8.1C199.2,169.8,198.4,169,197.4,169z"/>
	<path fill="#A79498" d="M215.3,178.9h-3.6v-8.1c0-1,0.8-1.8,1.8-1.8h0c1,0,1.8,0.8,1.8,1.8V178.9z"/>
	<path opacity="0.3" fill="#FFFFFF" d="M213.5,169v9.9h1.8v-8.1C215.3,169.8,214.5,169,213.5,169z"/>
	<rect x="81.5" y="166.9" fill="#E8DCCE" width="9" height="1.4"/>
	<rect x="97.5" y="166.9" fill="#E8DCCE" width="9" height="1.4"/>
	<rect x="193.1" y="166.9" fill="#E8DCCE" width="9" height="1.4"/>
	<rect x="209" y="166.9" fill="#E8DCCE" width="9" height="1.4"/>
	<rect x="85.9" y="168.3" fill="#E8DCCE" width="0.2" height="11.8"/>
	<rect x="82" y="171.6" fill="#E8DCCE" width="8" height="0.2"/>
	<rect x="101.8" y="168.3" fill="#E8DCCE" width="0.2" height="11.8"/>
	<rect x="97.9" y="171.6" fill="#E8DCCE" width="8" height="0.2"/>
	<rect x="197.4" y="168.3" fill="#E8DCCE" width="0.2" height="11.8"/>
	<rect x="193.5" y="171.6" fill="#E8DCCE" width="8.1" height="0.2"/>
	<rect x="213.3" y="168.3" fill="#E8DCCE" width="0.2" height="11.8"/>
	<rect x="209.4" y="171.6" fill="#E8DCCE" width="8.1" height="0.2"/>
	<rect x="72.8" y="159.3" fill="#FFF3DE" width="154.5" height="1.7"/>
	<rect x="72.8" y="180.2" fill="#FFF3DE" width="154.4" height="1.7"/>
	<rect x="72.8" y="232.8" fill="#FFF3DE" width="154.4" height="1.2"/>
	<rect x="72.8" y="234.4" fill="#FFF3DE" width="154.4" height="2.5"/>
	<rect x="72.8" y="234" fill="#E9DECD" width="154.4" height="0.8"/>
	<rect x="72.8" y="160.7" fill="#FFF3DE" width="2.7" height="5.8"/>
	<rect x="224.5" y="161.1" fill="#FFF3DE" width="2.7" height="5.5"/>
	<rect x="72.8" y="161.1" opacity="0.1" width="154.5" height="0.6"/>
	<rect x="138.7" y="166.1" fill="#FBD9DE" width="23.9" height="10.2"/>
	<path fill="#DCC2C7" d="M183.2,175c-0.5-0.5-1.3-0.6-2.1-0.5c0,0,0,0-0.1,0c0,0-1.1,0.3-1.5,1.3c-0.2,0.5-0.2,1.2,0.1,1.8
		c0.1,0.2,0.4,0.3,0.6,0.2c0.2-0.1,0.3-0.4,0.2-0.6c-0.2-0.4-0.2-0.7-0.1-1c0.2-0.4,0.7-0.7,0.8-0.7c0.6-0.1,1,0,1.3,0.2
		c0.5,0.4,0.5,1.3,0.5,1.6c0,0,0,0,0,0c0,0.7-0.2,1.2-0.6,1.5c-0.7,0.6-1.9,0.4-1.9,0.4c-1.8-0.4-1.9-2.4-1.9-2.5c0,0,0,0,0,0
		c-0.7-4.6-3.7-7.8-8.7-9.3c-3.2-0.9-6.2-0.9-7.1-0.8c-4-5.3-10.8-5.2-11.4-5.2c-8.9-0.7-12,4.1-12.7,5.4c-6-0.1-10.5,1.2-13.1,3.8
		c-2.5,2.6-2.5,5.4-2.5,5.5c0,0,0,0,0,0c0.2,2.1-0.9,2.6-0.9,2.7c-1.9,0.9-2.9-0.4-2.9-0.4c-0.4-0.5-0.5-1.1-0.5-1.6
		c0.1-0.7,0.8-1.1,0.9-1.2c0.1,0,0.7-0.2,1,0c0.3,0.2,0.4,0.7,0.4,1.1c0,0.3,0.2,0.5,0.5,0.5c0,0,0,0,0,0c0.3,0,0.5-0.2,0.5-0.5
		c0-0.9-0.3-1.6-0.8-1.9c-0.8-0.5-1.8-0.2-1.9-0.1c0,0,0,0,0,0c-0.1,0-1.4,0.7-1.5,2c-0.1,0.7,0.2,1.5,0.7,2.2
		c0.5,0.7,2.1,1.8,4.1,0.7c0,0,0.8-0.4,1.2-1.5c0.2,0.2,0.5,0.4,0.8,0.5c0.2,0.1,0.4,0.1,0.6,0.1c0.4,0,0.8-0.1,1.3-0.4
		c0.1-0.1,0.7-0.4,0.9-1.1c0.2-0.6,0.1-1.4-0.3-2.2c-0.1-0.2-0.4-0.3-0.6-0.2c-0.2,0.1-0.3,0.4-0.2,0.6c0.7,1.5-0.2,2-0.3,2
		c0,0,0,0,0,0c-0.4,0.2-0.8,0.3-1.1,0.2c-0.4-0.1-0.7-0.5-0.9-0.7c0-0.3,0-0.6,0-0.9c0-0.2,0-2.6,2.2-4.8c2.5-2.5,6.8-3.7,12.7-3.5
		c0.2,0,0.4-0.1,0.5-0.3c0,0,0.6-1.5,2.3-2.8c2.9-2.3,6.8-2.5,9.6-2.3c0,0,0,0,0.1,0c0.1,0,7-0.2,10.7,5c0.1,0.1,0.3,0.2,0.4,0.2
		c0,0,3.4-0.3,7,0.8c4.7,1.4,7.4,4.2,8.1,8.5c0,0.1,0,0.1,0,0.2c-0.1,0.2-0.4,0.6-0.9,0.8c-0.3,0.1-0.7,0-1.1-0.2c0,0,0,0,0,0
		c0,0-0.3-0.2-0.5-0.6c-0.1-0.4-0.1-0.9,0.2-1.5c0.1-0.2,0-0.5-0.2-0.6c-0.2-0.1-0.5,0-0.6,0.2c-0.4,0.8-0.5,1.6-0.3,2.2
		c0.3,0.7,0.8,1.1,0.9,1.1c0.4,0.3,0.9,0.4,1.3,0.4c0.2,0,0.4,0,0.6-0.1c0.4-0.1,0.7-0.3,0.9-0.6c0.4,0.9,1.1,1.7,2.4,2
		c0,0,0.3,0.1,0.7,0.1c0.6,0,1.4-0.1,2-0.6c0.6-0.5,0.9-1.2,0.9-2.2C184,177.1,184,175.8,183.2,175z"/>
	<path fill="#FFF3DE" d="M183.9,174.8c-0.5-0.5-1.3-0.6-2.2-0.5c0,0,0,0-0.1,0c0,0-1.1,0.4-1.5,1.3c-0.2,0.6-0.2,1.2,0.1,1.9
		c0.1,0.2,0.4,0.4,0.7,0.2c0.2-0.1,0.4-0.4,0.2-0.7c-0.2-0.4-0.2-0.7-0.1-1c0.2-0.5,0.7-0.7,0.9-0.7c0.6-0.1,1,0,1.3,0.2
		c0.5,0.4,0.5,1.3,0.5,1.6c0,0,0,0,0,0c0,0.7-0.2,1.2-0.6,1.5c-0.7,0.6-2,0.4-2,0.4c-1.8-0.4-2-2.5-2-2.5c0,0,0,0,0,0
		c-0.7-4.7-3.8-8-9-9.5c-3.3-0.9-6.3-0.9-7.2-0.9c-4.1-5.5-11-5.4-11.6-5.3c-9.2-0.7-12.3,4.2-13,5.6c-6.2-0.1-10.7,1.2-13.5,3.9
		c-2.6,2.6-2.5,5.6-2.5,5.7c0,0,0,0,0,0c0.2,2.2-0.9,2.7-1,2.7c-1.9,0.9-3-0.4-3-0.4c-0.4-0.6-0.6-1.1-0.5-1.6
		c0.1-0.7,0.9-1.2,1-1.2c0.1,0,0.7-0.2,1.1,0c0.3,0.2,0.4,0.8,0.4,1.2c0,0.3,0.2,0.5,0.5,0.5c0,0,0,0,0,0c0.3,0,0.5-0.2,0.5-0.5
		c0-0.9-0.3-1.6-0.8-2c-0.8-0.6-1.9-0.2-2-0.1c0,0,0,0,0,0c-0.1,0-1.4,0.7-1.6,2c-0.1,0.8,0.2,1.5,0.7,2.3c0.5,0.7,2.1,1.8,4.2,0.8
		c0,0,0.8-0.4,1.3-1.5c0.2,0.2,0.5,0.4,0.9,0.5c0.2,0.1,0.4,0.1,0.6,0.1c0.4,0,0.9-0.1,1.3-0.4c0.1-0.1,0.7-0.4,1-1.2
		c0.2-0.7,0.1-1.4-0.3-2.3c-0.1-0.2-0.4-0.3-0.7-0.2c-0.2,0.1-0.3,0.4-0.2,0.7c0.7,1.5-0.2,2-0.3,2.1c0,0,0,0,0,0
		c-0.4,0.2-0.8,0.3-1.1,0.2c-0.5-0.1-0.8-0.6-0.9-0.8c0-0.3,0-0.6,0-1c0-0.2,0-2.7,2.3-4.9c2.6-2.6,7-3.8,13-3.6
		c0.2,0,0.4-0.1,0.5-0.3c0,0,0.6-1.5,2.4-2.9c3-2.4,7-2.6,9.8-2.4c0,0,0,0,0.1,0c0.1,0,7.2-0.2,11,5.1c0.1,0.1,0.3,0.2,0.4,0.2
		c0,0,3.5-0.3,7.2,0.8c4.8,1.4,7.6,4.3,8.3,8.7c0,0.1,0,0.1,0,0.2c-0.1,0.2-0.4,0.7-0.9,0.8c-0.3,0.1-0.7,0-1.1-0.2c0,0,0,0,0,0
		c0,0-0.3-0.2-0.5-0.6c-0.1-0.4-0.1-0.9,0.2-1.5c0.1-0.2,0-0.5-0.2-0.7c-0.2-0.1-0.5,0-0.7,0.2c-0.4,0.8-0.5,1.6-0.3,2.3
		c0.3,0.7,0.8,1.1,1,1.2c0.4,0.3,0.9,0.4,1.3,0.4c0.2,0,0.4,0,0.6-0.1c0.4-0.1,0.7-0.3,1-0.6c0.4,0.9,1.1,1.8,2.4,2.1
		c0,0,0.3,0.1,0.7,0.1c0.6,0,1.4-0.1,2.1-0.7c0.6-0.5,0.9-1.3,0.9-2.2C184.7,177,184.8,175.6,183.9,174.8z"/>
	<text transform="matrix(1 0 0 1 127.0107 174.2207)" fill="#E6B967" font-family="'MuseoSlab-500'" font-size="4.8865">GRAND BUDAPEST</text>
	<text transform="matrix(1 0 0 1 147.0093 167.915)" fill="#E6B967" font-family="'MuseoSlab-500'" font-size="3.1923">1867</text>
	<circle fill="#D67663" cx="139.7" cy="168.3" r="0.6"/>
	<circle fill="#D67663" cx="140.9" cy="166.9" r="0.6"/>
	<circle fill="#D67663" cx="142.3" cy="165.5" r="0.6"/>
	<circle fill="#D67663" cx="143.9" cy="164.4" r="0.6"/>
	<circle fill="#D67663" cx="145.9" cy="163.5" r="0.6"/>
	<circle fill="#D67663" cx="147.8" cy="163.2" r="0.6"/>
	<circle fill="#D67663" cx="149.7" cy="163" r="0.6"/>
	<circle fill="#D67663" cx="151.6" cy="163" r="0.6"/>
	<circle fill="#D67663" cx="153.6" cy="163.2" r="0.6"/>
	<circle fill="#D67663" cx="155.7" cy="163.8" r="0.6"/>
	<circle fill="#D67663" cx="157.5" cy="164.6" r="0.6"/>
	<circle fill="#D67663" cx="159.1" cy="165.5" r="0.6"/>
	<circle fill="#D67663" cx="160.5" cy="166.9" r="0.6"/>
	<circle fill="#D67663" cx="161.7" cy="168.1" r="0.6"/>
	<path fill="none" stroke="#E6B967" stroke-width="0.25" stroke-linecap="round" stroke-miterlimit="10" d="M154.8,166
		c0,0,1.2-0.3,1.5,1c0,0,0.3,1.3,1.8,0.6"/>
	<path fill="none" stroke="#E6B967" stroke-width="0.25" stroke-linecap="round" stroke-miterlimit="10" d="M146.5,166
		c0,0-1.2-0.3-1.5,1c0,0-0.3,1.3-1.8,0.6"/>
	<g>
		<g>
			<path fill="#E6B967" d="M131.7,179.7c0.6,0,1.1-0.2,1.1-0.2c5.3-2.6,6.1-2.4,6.3-2.2c0.1,0.1,0,0.2,0,0.2l-0.8,1.8
				c0,0.1,0,0.1,0,0.1c0,0,0.1,0,0.1,0c1.6-2.2,5.3-1.8,5.4-1.7c0.1,0,0.1,0,0.1-0.1c0-0.1,0-0.1-0.1-0.1c0,0-1-0.1-2.1,0.1
				c-1.2,0.2-2.2,0.6-3,1.2l0.5-1.2c0.1-0.1,0.1-0.3,0-0.5c-0.4-0.5-2.6,0.2-6.5,2.2c0,0-1,0.4-2,0c-0.6-0.3-1.1-0.9-1.3-1.9
				c0-0.1-0.1-0.1-0.1-0.1c-0.1,0-0.1,0.1-0.1,0.1c0.3,1,0.7,1.7,1.4,2C131,179.6,131.4,179.7,131.7,179.7z"/>
		</g>
	</g>
	<circle fill="#D67663" cx="128.3" cy="177.5" r="0.6"/>
	<circle fill="#D67663" cx="128.3" cy="179.2" r="0.6"/>
	<g>
		<g>
			<path fill="#E6B967" d="M170,179.7c-0.6,0-1.1-0.2-1.1-0.2c-5.3-2.6-6.1-2.4-6.3-2.2c-0.1,0.1,0,0.2,0,0.2l0.8,1.8
				c0,0.1,0,0.1,0,0.1c0,0-0.1,0-0.1,0c-1.6-2.2-5.3-1.8-5.4-1.7c-0.1,0-0.1,0-0.1-0.1c0-0.1,0-0.1,0.1-0.1c0,0,1-0.1,2.1,0.1
				c1.2,0.2,2.2,0.6,3,1.2l-0.5-1.2c-0.1-0.1-0.1-0.3,0-0.5c0.4-0.5,2.6,0.2,6.5,2.2c0,0,1,0.4,2,0c0.6-0.3,1.1-0.9,1.3-1.9
				c0-0.1,0.1-0.1,0.1-0.1c0.1,0,0.1,0.1,0.1,0.1c-0.3,1-0.7,1.7-1.4,2C170.7,179.6,170.3,179.7,170,179.7z"/>
		</g>
	</g>
	<circle fill="#D67663" cx="173.4" cy="177.5" r="0.6"/>
	<circle fill="#D67663" cx="173.4" cy="179.2" r="0.6"/>
	<rect x="143.7" y="177.2" fill="#FFF3DE" width="14.3" height="3"/>
	<rect x="135.8" y="180.2" fill="#FFF3DE" width="3.7" height="56.5"/>
	<rect x="162" y="181" fill="#FFF3DE" width="3.7" height="55.7"/>
	<rect x="187.8" y="181.9" fill="#FBD9DE" width="38.1" height="6.2"/>
	<rect x="74.9" y="181.9" fill="#FBD9DE" width="38.1" height="6.2"/>
	<rect x="186.5" y="180.2" fill="#FFF3DE" width="2.7" height="53"/>
	<rect x="224.5" y="180.2" fill="#FFF3DE" width="2.7" height="53"/>
	<rect x="72.8" y="180.2" fill="#FFF3DE" width="2.7" height="53"/>
	<rect x="112.1" y="180.2" fill="#FFF3DE" width="2.7" height="53"/>
	<rect x="72.8" y="181.9" opacity="0.1" width="154.5" height="0.6"/>
	<g>
		<path fill="#FFF3DE" d="M100.2,187H86.7v-3.7h13.4V187z M86.9,186.8H100v-3.3H86.9V186.8z"/>
	</g>
	<g opacity="0.2">
		<path d="M100,186.8H86.9v-3.3H100V186.8z M87.1,186.7h12.7v-3H87.1V186.7z"/>
	</g>
	<rect x="75.5" y="188.1" opacity="0.1" width="36.6" height="0.4"/>
	<rect x="189.2" y="188.1" opacity="0.1" width="35.3" height="0.4"/>
	<rect x="75.5" y="187.8" fill="#FFF3DE" width="36.5" height="0.3"/>
	<rect x="188.6" y="187.8" fill="#FFF3DE" width="36.5" height="0.3"/>
	<rect x="87.6" y="188.1" fill="#FFF3DE" width="11.5" height="13"/>
	<rect x="89.2" y="188.8" fill="#E6B967" width="8.1" height="11"/>
	<rect x="93.1" y="188.8" opacity="0.3" fill="#FFFFFF" width="4.2" height="11"/>
	<rect x="86.7" y="187" fill="#FFF3DE" width="13.4" height="1.8"/>
	<rect x="86.7" y="199.8" fill="#FFF3DE" width="13.4" height="2.9"/>
	<polygon fill="#FFF3DE" points="95.1,205.6 91.7,205.6 89.3,202.7 97.3,202.7 	"/>
	<rect x="87.3" y="200.3" fill="#E8DCCE" width="12.2" height="0.2"/>
	<rect x="87.3" y="202" fill="#E8DCCE" width="12.2" height="0.2"/>
	<rect x="93.1" y="188.8" fill="#E8DCCE" width="0.3" height="11"/>
	<rect x="87.6" y="191.8" fill="#E8DCCE" width="11.5" height="0.3"/>
	<rect x="87.6" y="210.6" fill="#FFF3DE" width="11.5" height="13"/>
	<rect x="89.2" y="211.3" fill="#A79498" width="8.1" height="11"/>
	<rect x="93.1" y="211.3" opacity="0.3" fill="#FFFFFF" width="4.2" height="11"/>
	<rect x="86.8" y="209.6" fill="#FFF3DE" width="13.4" height="1.8"/>
	<rect x="86.7" y="222.4" fill="#FFF3DE" width="13.5" height="2.9"/>
	<polygon fill="#FFF3DE" points="95.1,228.1 91.7,228.1 89.3,225.2 97.3,225.2 	"/>
	<rect x="87.3" y="222.8" fill="#E8DCCE" width="12.3" height="0.2"/>
	<rect x="87.3" y="224.5" fill="#E8DCCE" width="12.3" height="0.2"/>
	<rect x="93.1" y="211.3" fill="#E8DCCE" width="0.3" height="11"/>
	<rect x="87.6" y="214.3" fill="#E8DCCE" width="11.5" height="0.3"/>
	<g>
		<path fill="#FFF3DE" d="M213.6,187h-13.4v-3.7h13.4V187z M200.3,186.8h13.1v-3.3h-13.1V186.8z"/>
	</g>
	<g opacity="0.2">
		<path d="M213.4,186.8h-13.1v-3.3h13.1V186.8z M200.5,186.7h12.7v-3h-12.7V186.7z"/>
	</g>
	<rect x="201" y="188.1" fill="#FFF3DE" width="11.5" height="13"/>
	<rect x="202.6" y="188.8" fill="#A79498" width="8.1" height="11"/>
	<rect x="206.5" y="188.8" opacity="0.3" fill="#FFFFFF" width="4.2" height="11"/>
	<rect x="200.1" y="187" fill="#FFF3DE" width="13.4" height="1.8"/>
	<rect x="200.1" y="199.8" fill="#FFF3DE" width="13.4" height="2.9"/>
	<polygon fill="#FFF3DE" points="208.5,205.6 205.1,205.6 202.7,202.7 210.7,202.7 	"/>
	<rect x="200.7" y="200.3" fill="#E8DCCE" width="12.2" height="0.2"/>
	<rect x="200.7" y="202" fill="#E8DCCE" width="12.2" height="0.2"/>
	<rect x="206.5" y="188.8" fill="#E8DCCE" width="0.3" height="11"/>
	<rect x="201" y="191.8" fill="#E8DCCE" width="11.5" height="0.3"/>
	<rect x="201" y="210.6" fill="#FFF3DE" width="11.5" height="13"/>
	<rect x="202.6" y="211.3" fill="#A79498" width="8.1" height="11"/>
	<rect x="206.5" y="211.3" opacity="0.3" fill="#FFFFFF" width="4.2" height="11"/>
	<rect x="200.2" y="209.6" fill="#FFF3DE" width="13.4" height="1.8"/>
	<rect x="200.1" y="222.4" fill="#FFF3DE" width="13.5" height="2.9"/>
	<polygon fill="#FFF3DE" points="208.5,228.1 205.1,228.1 202.7,225.2 210.7,225.2 	"/>
	<rect x="200.7" y="222.8" fill="#E8DCCE" width="12.3" height="0.2"/>
	<rect x="200.7" y="224.5" fill="#E8DCCE" width="12.3" height="0.2"/>
	<rect x="206.5" y="211.3" fill="#E8DCCE" width="0.3" height="11"/>
	<rect x="201" y="214.3" fill="#E8DCCE" width="11.5" height="0.3"/>
	<g>
		<path fill="#FFF3DE" d="M132,187h-13.4v-3.7H132V187z M118.8,186.8h13.1v-3.3h-13.1V186.8z"/>
	</g>
	<g opacity="0.2">
		<path d="M131.8,186.8h-13.1v-3.3h13.1V186.8z M118.9,186.7h12.7v-3h-12.7V186.7z"/>
	</g>
	<rect x="119.5" y="188.1" fill="#FFF3DE" width="11.5" height="13"/>
	<rect x="121.1" y="188.8" fill="#A79498" width="8.1" height="11"/>
	<rect x="125" y="188.8" opacity="0.3" fill="#FFFFFF" width="4.2" height="11"/>
	<rect x="118.6" y="187" fill="#FFF3DE" width="13.4" height="1.8"/>
	<rect x="118.6" y="199.8" fill="#FFF3DE" width="13.4" height="2.9"/>
	<polygon fill="#FFF3DE" points="126.9,205.6 123.5,205.6 121.1,202.7 129.2,202.7 	"/>
	<rect x="119.2" y="200.3" fill="#E8DCCE" width="12.2" height="0.2"/>
	<rect x="119.2" y="202" fill="#E8DCCE" width="12.2" height="0.2"/>
	<rect x="124.9" y="188.8" fill="#E8DCCE" width="0.3" height="11"/>
	<rect x="119.5" y="191.8" fill="#E8DCCE" width="11.5" height="0.3"/>
	<rect x="119.5" y="210.6" fill="#FFF3DE" width="11.5" height="13"/>
	<rect x="121.1" y="211.3" fill="#A79498" width="8.1" height="11"/>
	<rect x="125" y="211.3" opacity="0.3" fill="#FFFFFF" width="4.2" height="11"/>
	<rect x="118.6" y="209.6" fill="#FFF3DE" width="13.4" height="1.8"/>
	<rect x="118.6" y="222.4" fill="#FFF3DE" width="13.5" height="2.9"/>
	<polygon fill="#FFF3DE" points="126.9,228.1 123.5,228.1 121.1,225.2 129.2,225.2 	"/>
	<rect x="119.1" y="222.8" fill="#E8DCCE" width="12.3" height="0.2"/>
	<rect x="119.1" y="224.5" fill="#E8DCCE" width="12.3" height="0.2"/>
	<rect x="124.9" y="211.3" fill="#E8DCCE" width="0.3" height="11"/>
	<rect x="119.5" y="214.3" fill="#E8DCCE" width="11.5" height="0.3"/>
	<g>
		<path fill="#FFF3DE" d="M183.1,187h-13.4v-3.7h13.4V187z M169.8,186.8h13.1v-3.3h-13.1V186.8z"/>
	</g>
	<g opacity="0.2">
		<path d="M182.9,186.8h-13.1v-3.3h13.1V186.8z M170,186.7h12.7v-3H170V186.7z"/>
	</g>
	<rect x="170.5" y="188.1" fill="#FFF3DE" width="11.5" height="13"/>
	<rect x="172.1" y="188.8" fill="#A79498" width="8.1" height="11"/>
	<rect x="176" y="188.8" opacity="0.3" fill="#FFFFFF" width="4.2" height="11"/>
	<rect x="169.6" y="187" fill="#FFF3DE" width="13.4" height="1.8"/>
	<rect x="169.6" y="199.8" fill="#FFF3DE" width="13.4" height="2.9"/>
	<polygon fill="#FFF3DE" points="178,205.6 174.6,205.6 172.2,202.7 180.2,202.7 	"/>
	<rect x="170.2" y="200.3" fill="#E8DCCE" width="12.2" height="0.2"/>
	<rect x="170.2" y="202" fill="#E8DCCE" width="12.2" height="0.2"/>
	<rect x="176" y="188.8" fill="#E8DCCE" width="0.3" height="11"/>
	<rect x="170.5" y="191.8" fill="#E8DCCE" width="11.5" height="0.3"/>
	<rect x="170.5" y="210.6" fill="#FFF3DE" width="11.5" height="13"/>
	<rect x="172.1" y="211.3" fill="#A79498" width="8.1" height="11"/>
	<rect x="176" y="211.3" opacity="0.3" fill="#FFFFFF" width="4.2" height="11"/>
	<rect x="169.7" y="209.6" fill="#FFF3DE" width="13.4" height="1.8"/>
	<rect x="169.6" y="222.4" fill="#FFF3DE" width="13.5" height="2.9"/>
	<polygon fill="#FFF3DE" points="178,228.1 174.6,228.1 172.2,225.2 180.2,225.2 	"/>
	<rect x="170.2" y="222.8" fill="#E8DCCE" width="12.3" height="0.2"/>
	<rect x="170.2" y="224.5" fill="#E8DCCE" width="12.3" height="0.2"/>
	<rect x="176" y="211.3" fill="#E8DCCE" width="0.3" height="11"/>
	<rect x="170.5" y="214.3" fill="#E8DCCE" width="11.5" height="0.3"/>
	<line fill="none" stroke="#D67663" stroke-width="0.5" stroke-miterlimit="10" x1="136.8" y1="186.7" x2="136.8" y2="191.2"/>
	<line fill="none" stroke="#D67663" stroke-width="0.5" stroke-miterlimit="10" x1="137.6" y1="187.8" x2="137.6" y2="192.3"/>
	<line fill="none" stroke="#D67663" stroke-width="0.5" stroke-miterlimit="10" x1="138.5" y1="186.7" x2="138.5" y2="191.2"/>
	<line fill="none" stroke="#D67663" stroke-width="0.5" stroke-miterlimit="10" x1="138.5" y1="230" x2="138.5" y2="225.5"/>
	<line fill="none" stroke="#D67663" stroke-width="0.5" stroke-miterlimit="10" x1="137.6" y1="228.9" x2="137.6" y2="224.4"/>
	<line fill="none" stroke="#D67663" stroke-width="0.5" stroke-miterlimit="10" x1="136.8" y1="230" x2="136.8" y2="225.5"/>
	<line fill="none" stroke="#D67663" stroke-width="0.5" stroke-miterlimit="10" x1="163" y1="186.7" x2="163" y2="191.2"/>
	<line fill="none" stroke="#D67663" stroke-width="0.5" stroke-miterlimit="10" x1="163.8" y1="187.8" x2="163.8" y2="192.3"/>
	<line fill="none" stroke="#D67663" stroke-width="0.5" stroke-miterlimit="10" x1="164.6" y1="186.7" x2="164.6" y2="191.2"/>
	<line fill="none" stroke="#D67663" stroke-width="0.5" stroke-miterlimit="10" x1="164.6" y1="230" x2="164.6" y2="225.5"/>
	<line fill="none" stroke="#D67663" stroke-width="0.5" stroke-miterlimit="10" x1="163.8" y1="228.9" x2="163.8" y2="224.4"/>
	<line fill="none" stroke="#D67663" stroke-width="0.5" stroke-miterlimit="10" x1="163" y1="230" x2="163" y2="225.5"/>
	<rect x="134.4" y="181.6" fill="#FFF3DE" width="6.5" height="1.2"/>
	<rect x="135.2" y="184.4" fill="#ECE1D1" width="4.9" height="0.7"/>
	<rect x="161.4" y="184.4" fill="#ECE1D1" width="4.9" height="0.7"/>
	<rect x="160.6" y="181.6" fill="#FFF3DE" width="6.5" height="1.2"/>
	<rect x="140.8" y="200.4" fill="#FFEFD1" width="19.6" height="2.3"/>
	<path fill="#FFEFD1" d="M150.6,183.1L150.6,183.1c4.8,0,8.7,3.9,8.7,8.7v8.7h-17.4v-8.7C141.9,187,145.8,183.1,150.6,183.1z"/>
	<path fill="#A79498" d="M150.6,184.6L150.6,184.6c4,0,7.2,3.2,7.2,7.2v8.7h-14.5v-8.7C143.4,187.8,146.6,184.6,150.6,184.6z"/>
	<rect x="147.6" y="184.8" fill="#FFEFD1" width="0.3" height="16"/>
	<rect x="153.2" y="184.8" fill="#FFEFD1" width="0.3" height="16"/>
	<rect x="147.7" y="187.6" fill="#FFEFD1" width="5.7" height="0.2"/>
	<rect x="153.4" y="191.1" fill="#FFEFD1" width="5.7" height="0.2"/>
	<rect x="142" y="191.1" fill="#FFEFD1" width="5.7" height="0.2"/>
	<rect x="139.5" y="214.5" fill="#E4C086" width="22.4" height="18.4"/>
	<rect x="141.2" y="216.3" fill="#A79498" width="9.1" height="14.4"/>
	<rect x="151.3" y="216.3" fill="#A79498" width="9.1" height="14.4"/>
	<path fill="none" stroke="#E4C086" stroke-miterlimit="10" d="M155.8,231h-10.1v-9.7c0-2.8,2.3-5,5-5h0c2.8,0,5,2.3,5,5V231z"/>
	<rect x="139.6" y="220.2" fill="#E4C086" width="21.9" height="0.6"/>
	<path fill="#F7B7C6" d="M150.8,206.7c-10.7,0-11.3,2.8-11.3,2.8v3.8H162v-3.8C159.5,206.5,150.8,206.7,150.8,206.7z"/>
	<rect x="139.5" y="212.4" opacity="0.1" width="22.5" height="0.9"/>
	<rect x="139.5" y="213.3" fill="#E4C086" width="1.8" height="5.1"/>
	<rect x="160.4" y="213.3" fill="#E4C086" width="1.6" height="5.1"/>
	<polygon fill="#D67663" points="163.5,206 163.4,205.8 159.3,209.9 157.1,209.9 160.6,205.5 160.5,205.4 156.8,209.9 154.6,209.9 
		157.4,205.1 157.2,205 154.3,209.9 152.2,209.9 154.2,204.6 154,204.5 152,209.9 150.9,209.9 150.9,204.2 150.7,204.2 150.7,209.9 
		149.5,209.9 147.5,204.5 147.3,204.6 149.3,209.9 147.1,209.9 144.2,205 144,205.1 146.9,209.9 144.6,209.9 141,205.4 140.8,205.5 
		144.4,209.9 142.2,209.9 138.1,205.8 137.9,206 141.9,209.9 139.5,209.9 139.5,212.4 139.7,212.4 139.7,210.1 144.2,210.1 
		144.2,211.9 144.4,211.9 144.4,210.1 150.7,210.1 150.7,211.9 150.9,211.9 150.9,210.1 157.2,210.1 157.2,211.9 157.4,211.9 
		157.4,210.1 161.8,210.1 161.8,212.4 162,212.4 162,209.9 159.6,209.9 	"/>
	<polygon fill="#F7B7C6" points="163,237.5 163,235.2 162,235.2 162,232.9 139.5,232.9 139.5,235.2 138.4,235.2 138.4,237.5 
		137.5,237.5 137.5,240.2 163.9,240.2 163.9,237.5 	"/>
	<polygon opacity="7.000000e-02" points="156.3,237.4 156.3,235.1 155,235.1 155,232.8 146.6,232.8 146.6,235.1 145.3,235.1 
		145.3,237.4 144.3,237.4 144.3,240.2 157.2,240.2 157.2,237.4 	"/>
	<path opacity="0.1" fill="#FFFFFF" d="M86.3,84.6H86V89h4.4v-0.3C90.4,86.4,88.6,84.6,86.3,84.6z"/>
	<path opacity="0.1" fill="#FFFFFF" d="M102.2,84.6h-0.3V89h4.4v-0.3C106.4,86.4,104.5,84.6,102.2,84.6z"/>
	<path opacity="0.1" fill="#FFFFFF" d="M118.2,84.6h-0.3V89h4.4v-0.3C122.3,86.4,120.5,84.6,118.2,84.6z"/>
	<path opacity="0.1" fill="#FFFFFF" d="M198.6,84.6h-0.3V89h4.4v-0.3C202.7,86.4,200.9,84.6,198.6,84.6z"/>
	<path opacity="0.1" fill="#FFFFFF" d="M214.5,84.6h-0.3V89h4.4v-0.3C218.7,86.4,216.8,84.6,214.5,84.6z"/>
	<path opacity="0.1" fill="#FFFFFF" d="M182.6,84.6h-0.3V89h4.4v-0.3C186.8,86.4,184.9,84.6,182.6,84.6z"/>
</g>
</svg>
