<?xml version="1.0" encoding="utf-8"?>
<!-- Generator: Adobe Illustrator 18.0.0, SVG Export Plug-In . SVG Version: 6.00 Build 0)  -->
<!DOCTYPE svg PUBLIC "-//W3C//DTD SVG 1.1//EN" "http://www.w3.org/Graphics/SVG/1.1/DTD/svg11.dtd">
<svg version="1.1" id="Layer_1" xmlns="http://www.w3.org/2000/svg" xmlns:xlink="http://www.w3.org/1999/xlink" x="0px" y="0px"
	 viewBox="0 0 1126 652" enable-background="new 0 0 1126 652" xml:space="preserve">
<g>
	<path fill="#2F2F33" d="M1111.9,42.8v571.7c0,13.3-10.8,24.1-24.1,24.1H702.9c-13.3,0-24.1-10.8-24.1-24.1V42.8
		c0-13.3,10.8-24.1,24.1-24.1h384.8C1101.1,18.7,1111.9,29.4,1111.9,42.8z"/>
	<path fill="#CCCCCC" d="M1100.1,33.9v565.5c0,13.1-10.6,23.6-23.6,23.6H702c-13.1,0-23.6-10.6-23.6-23.6V33.9
		c0-13.1,10.6-23.6,23.6-23.6h374.5C1089.5,10.3,1100.1,20.8,1100.1,33.9z"/>
	<path fill="#E0E0E0" d="M1091.4,34.3v565.5c0,13.1-10.6,23.6-23.6,23.6H693.3c-13.1,0-23.6-10.6-23.6-23.6V34.3
		c0-13.1,10.6-23.6,23.6-23.6h374.5C1080.8,10.6,1091.4,21.2,1091.4,34.3z"/>
	<g id="vvIP4h.tif_5_">
		<g>
			<path fill="#FFFFFF" d="M886,350.5c-1.5,0-3,0-4.4,0c-2.2-0.4-4.5-0.6-6.7-1.3c-7.1-2.1-12.5-6.1-14.6-13.6
				c-1.3-4.8-0.2-9.5,1.2-14.1c1.2-3.8,1.1-7.3-0.2-11c-0.8-2.3-1.4-4.6-1.8-7c-1.1-6.6,2.3-14.3,7.7-17.5c4.1,5.2,9.1,8.9,16.2,8.4
				c6.4-0.4,12.5-4.9,14.6-10.9c0.1,0,0.3,0,0.4,0c5,2.1,9.8,4.6,14.1,8c6.3,5.1,7.4,8.9,4.9,16.6c-0.4,1.2-0.9,2.4-1,3.7
				c-0.2,2.5-0.4,5.1,0,7.5c0.5,2.8,1.7,5.5,2.6,8.2c0,0.9,0,1.9,0,2.8c-1.1,3.4-3,6.3-5.7,8.6c-4.9,4-10.4,7.2-16.5,9.1
				C893.3,349.1,889.6,349.7,886,350.5z"/>
			<path fill="#FFFFFF" d="M842,302.1c3.2-1.1,6.2-0.1,9.1,1.2c6.1,2.7,9.9,8.3,9.7,14.2c-6.1,0.6-13.9-2.9-16.8-9.7
				c-0.7-1.6-1.3-3.3-2-4.9C842,302.6,842,302.3,842,302.1z"/>
		</g>
	</g>
	<path opacity="0.27" fill="#FFFFFF" d="M1088.2,611.1c2-3.5,3.2-7.5,3.2-11.8V33.9c0-13.1-10.6-23.6-23.6-23.6H693.3
		c-5.6,0-10.7,1.9-14.7,5.2L1088.2,611.1z"/>
</g>
<g>
	<g>
		<path fill="#2F2F33" d="M625.5,638.6h-93.8c-10.4,0-18.9-8.5-18.9-18.9V379.4c0-10.4,8.5-18.9,18.9-18.9h93.8
			c10.4,0,18.9,8.5,18.9,18.9v240.2C644.4,630.1,635.9,638.6,625.5,638.6z"/>
		<path fill="#FFFFFF" d="M615.3,628.6h-93.8c-10.4,0-18.9-8.5-18.9-18.9V369.4c0-10.4,8.5-18.9,18.9-18.9h93.8
			c10.4,0,18.9,8.5,18.9,18.9v240.2C634.2,620.1,625.7,628.6,615.3,628.6z"/>
		<rect x="511.2" y="389.6" fill="#DD8580" width="112.8" height="199.5"/>
		<path fill="#E0E0E0" d="M576.3,377h-18.1c-1.3,0-2.3-1-2.3-2.3l0,0c0-1.3,1-2.3,2.3-2.3h18.1c1.3,0,2.3,1,2.3,2.3l0,0
			C578.6,375.9,577.6,377,576.3,377z"/>
		<circle fill="#E0E0E0" cx="567.3" cy="364" r="2.5"/>
		<circle fill="#E0E0E0" cx="567.6" cy="607.8" r="11"/>
	</g>
	<polygon opacity="0.12" fill="#FFFFFF" points="510.7,482.8 510.7,507.9 624.4,434.8 624.4,410.4 	"/>
	<polygon opacity="0.12" fill="#FFFFFF" points="510.7,513.1 510.7,528.9 624.4,455.8 624.4,440.7 	"/>
</g>
<g>
	<path fill="#2F2F33" d="M427.6,92.9V64.2c0-23.7,19.2-42.9,42.9-42.9h113.4c23.7,0,42.9,19.2,42.9,42.9v28.7
		c0,23.7-19.2,42.9-42.9,42.9H470.4C446.7,135.8,427.6,116.6,427.6,92.9z"/>
	<path fill="#EFEFEF" d="M423.1,84.6V55.9c0-23.7,19.2-42.9,42.9-42.9h113.4c23.7,0,42.9,19.2,42.9,42.9v28.7
		c0,23.7-19.2,42.9-42.9,42.9H466C442.3,127.5,423.1,108.3,423.1,84.6z"/>
	<g id="vvIP4h.tif_4_">
		<g>
			<path fill="#D7D7D6" d="M454.8,59.8c0.5,0,0.9,0,1.4,0c0.7,0.1,1.4,0.2,2.1,0.4c2.2,0.7,3.9,1.9,4.6,4.3c0.4,1.5,0.1,3-0.4,4.4
				c-0.4,1.2-0.3,2.3,0.1,3.5c0.2,0.7,0.4,1.5,0.6,2.2c0.3,2.1-0.7,4.5-2.4,5.5c-1.3-1.6-2.8-2.8-5.1-2.6c-2,0.1-3.9,1.6-4.6,3.4
				c0,0-0.1,0-0.1,0c-1.6-0.7-3.1-1.4-4.4-2.5c-2-1.6-2.3-2.8-1.6-5.2c0.1-0.4,0.3-0.8,0.3-1.1c0.1-0.8,0.1-1.6,0-2.4
				c-0.2-0.9-0.5-1.7-0.8-2.6c0-0.3,0-0.6,0-0.9c0.3-1.1,0.9-2,1.8-2.7c1.5-1.3,3.3-2.3,5.2-2.9C452.5,60.2,453.7,60,454.8,59.8z"/>
			<path fill="#D7D7D6" d="M469.9,75c-1,0.3-1.9,0-2.9-0.4c-1.9-0.9-3.1-2.6-3-4.5c1.9-0.2,4.4,0.9,5.3,3c0.2,0.5,0.4,1,0.6,1.5
				C469.9,74.8,469.9,74.9,469.9,75z"/>
		</g>
	</g>
	<path opacity="0.38" fill="#FFFFFF" d="M579.4,13.1H467.7l147.2,95.5c4.6-6.8,7.3-15.1,7.3-23.9V55.9
		C622.2,32.2,603,13.1,579.4,13.1z"/>
</g>
<g>
	<polygon fill="#2F2F33" points="469.5,623.2 472.6,636.8 472.6,636.8 472.6,636.8 475.6,623.2 472.6,623.2 	"/>
	<path fill="#2F2F33" d="M481.9,595.1L481.9,595.1V392.8v-16v0V370c0-0.3,0-0.6,0-0.9c-0.5-4.7-4.4-8.4-9.3-8.4
		c-5.1,0-9.3,4.2-9.3,9.3v6.7v16v202.3h0l6.3,28.1h3h3h0L481.9,595.1L481.9,595.1L481.9,595.1z"/>
</g>
<g>
	<rect x="457" y="390.7" fill="#F3BF62" width="18.6" height="202.3"/>
	<rect x="466.6" y="390.7" fill="#E8B15F" width="9.1" height="202.3"/>
	<polygon fill="#2D2D2D" points="463.3,621.1 466.3,634.7 469.3,621.1 	"/>
	<rect x="457" y="374.7" fill="#E0E0E0" width="18.6" height="16"/>
	<rect x="466.6" y="374.7" fill="#C9C9C9" width="9" height="16"/>
	<path fill="#DD8580" d="M475.6,374.7H457V368c0-5.1,4.2-9.3,9.3-9.3h0c5.1,0,9.3,4.2,9.3,9.3V374.7z"/>
	<path fill="#CC7A79" d="M466.6,358.7v16h9V368C475.6,363,471.6,358.9,466.6,358.7z"/>
	<polygon fill="#262626" points="466.3,621.1 466.3,634.7 466.3,634.7 469.3,621.1 	"/>
	<polygon fill="#E0D3BE" points="469.3,621.1 475.6,593 457,593 463.3,621.1 	"/>
	<polygon fill="#C9BEAD" points="469.3,621.1 475.6,593 466.3,593 466.3,621.1 	"/>
</g>
<path fill="#2F2F33" d="M430.8,368.6h-0.9v-3.3c0-1.8-1.4-3.2-3.2-3.2h-6.1h-5.3c-1.8,0-3.2,1.4-3.2,3.2v13.1h-2.2v91.2h0v3.3h0
	v151.3h1.9v8.9c0,2.8,2.3,5.1,5.1,5.1h3.7h4.4c2.8,0,5.1-2.3,5.1-5.1v-8.9h1.6V472.9h0v-3.3h0V464c4.4-0.5,7.8-4.2,7.8-8.7v-77.8
	C439.7,372.6,435.7,368.6,430.8,368.6z M436.4,455.3c0,2.7-2,5-4.5,5.4v-82.3h-1.5v-6.5h0.5c3.1,0,5.5,2.5,5.5,5.5V455.3z"/>
<g>
	<g>
		<path fill="#262626" d="M425.4,460.6h-3.8v-95.5h3.8c4.9,0,8.8,4,8.8,8.8v77.8C434.2,456.7,430.3,460.6,425.4,460.6z M424.9,457.3
			h0.5c3.1,0,5.5-2.5,5.5-5.5V374c0-3.1-2.5-5.5-5.5-5.5h-0.5V457.3z"/>
	</g>
	<rect x="404.5" y="374.9" fill="#E0D3BE" width="21.9" height="245.8"/>
	<rect x="415.1" y="374.9" fill="#C9BEAD" width="11.3" height="245.8"/>
	<g>
		<rect x="404.5" y="466.1" fill="#262626" width="21.9" height="3.3"/>
		<line fill="#262626" x1="426.4" y1="469.4" x2="404.5" y2="469.4"/>
	</g>
	<g>
		<rect x="404.5" y="466.1" fill="#2D2D2D" width="10.6" height="3.3"/>
		<line fill="#2D2D2D" x1="415.1" y1="469.4" x2="404.5" y2="469.4"/>
	</g>
	<path fill="#2D2D2D" d="M421.3,358.6h-11.5c-1.8,0-3.2,1.4-3.2,3.2v13.1h17.8v-13.1C424.5,360.1,423.1,358.6,421.3,358.6z"/>
	<path fill="#262626" d="M421.3,358.6h-6.1v16.2h9.3v-13.1C424.5,360.1,423.1,358.6,421.3,358.6z"/>
	<path fill="#2D2D2D" d="M419.7,634.7h-8.1c-2.8,0-5.1-2.3-5.1-5.1v-8.9h18.4v8.9C424.8,632.4,422.5,634.7,419.7,634.7z"/>
	<path fill="#262626" d="M419.7,634.7h-4.4v-14h9.6v8.9C424.8,632.4,422.5,634.7,419.7,634.7z"/>
</g>
<g>
	<path fill="#2F2F33" d="M639.6,219.1c-14.4-41.6-59.8-63.6-101.4-49.2c-17.2,6-31.1,17.2-40.4,31.3l0,0l-30-15.3
		c-2.8-1.4-6.3-0.3-7.7,2.6l-5.4,11.1c-1.4,2.8-0.2,6.2,2.6,7.6l30.6,14.9l0.1-0.2c-4.8,15.6-4.9,32.8,0.9,49.4
		c14.4,41.6,59.8,63.6,101.4,49.2C632,306,654,260.6,639.6,219.1z"/>
	<path opacity="0.63" fill="#8E7872" d="M543.4,248.6h-31.6c1.3-1.8,2-4.1,2-6.5c0-6.3-5.1-11.3-11.3-11.3h-86
		c-6.3,0-11.3,5.1-11.3,11.3s5.1,11.3,11.3,11.3h12.6h18.4h19.8c4.2,0,7.7,3.4,7.7,7.7c0,4.2-3.4,7.7-7.7,7.7H451
		c0,0,0.1,0.1,0.1,0.1H443c-6,0-10.9,4.9-10.9,10.9c0,6,4.9,10.9,10.9,10.9h86.8c6,0,10.9-4.9,10.9-10.9c0-4-2.2-7.5-5.4-9.4h8.1
		c6,0,10.9-4.9,10.9-10.9C554.3,253.5,549.4,248.6,543.4,248.6z"/>
	<g>
		<circle fill="#F9F9FA" cx="559.5" cy="238.2" r="79.7"/>
		<path fill="#F9F9FA" d="M493.1,194.2l-30-15.3c-2.8-1.4-6.3-0.3-7.7,2.6l-5.4,11.1c-1.4,2.8-0.2,6.2,2.6,7.6l30.6,14.9
			L493.1,194.2z"/>
		<circle fill="#AF9A94" stroke="#8E7872" stroke-miterlimit="10" cx="559.5" cy="238.2" r="57.2"/>
		<path opacity="0.63" fill="#8E7872" d="M546.9,201.2c26.8-9.3,55.7,2.5,68.9,26.6c-0.5-2.8-1.2-5.6-2.2-8.3
			c-10.3-29.9-42.9-45.7-72.8-35.4c-29.9,10.3-45.7,42.9-35.4,72.8c1.1,3.1,2.4,6,3.9,8.8C504.2,238.3,519.8,210.6,546.9,201.2z"/>
		<path fill="#DCDBDB" d="M493.1,194.2L474.9,211l8.3,4.1C483.2,215,486.2,207,493.1,194.2z"/>
	</g>
</g>
<g>
	<path fill="#2F2F33" d="M364.3,344.7h-1.2v-17.2c0-1.7-1.4-3.1-3.1-3.1l0,0l0,0c-0.2,0-0.4,0-0.6,0.1c-0.6,0.1-1.1,0.4-1.6,0.8
		c-0.6,0.6-0.9,1.3-0.9,2.2v17.2h-0.2c-1,0-1.9,0.8-1.9,1.9V374c0,1,0.8,1.9,1.9,1.9h1.6v107.5h0v5.6c0,3.6-2.9,6.5-6.5,6.5
		s-6.5-2.9-6.5-6.5v-5.6h0V340v-0.2v-5.5c0-6.3-5.1-11.3-11.3-11.3c-6.3,0-11.3,5.1-11.3,11.3v5.6v143.4h0v5.6
		c0,3.6-2.9,6.5-6.5,6.5s-6.5-2.9-6.5-6.5v-5.6h0V340v-0.2v-5.5c0-6.3-5.1-11.3-11.3-11.3c-6.3,0-11.3,5.1-11.3,11.3v5.6v143.4h0
		v5.6c0,3.6-2.9,6.5-6.5,6.5c-3.6,0-6.5-2.9-6.5-6.5v-5.6h0v-7.2c1.8-0.3,3.3-1.9,3.3-3.8v-31.7c0-1.9-1.4-3.5-3.3-3.8v-63.2
		c0,0,0.5-9.9-8.9-9.9h-21.1h-1.2v-1.2c0-0.4-0.4-0.8-0.8-0.8h-16c-0.4,0-0.6-0.4-0.5-0.7c0.4-1.4,0.7-2.9,0.7-4.4
		c0-4-1.6-7.6-4.2-10.2c-0.7-0.7-1.7-1.1-2.8-1.1H204c-1,0-2,0.4-2.8,1.1c-3.1,3.1-4.8,7.6-4.1,12.4c0.9,6.4,6.2,11.4,12.6,12.2
		c0.5,0.1,0.9,0.1,1.4,0.1v0h30.6c0.4,0,0.8-0.4,0.8-0.8v-1.8h22.3c0,0,4.1,1.1,4.1,5.1v30.1c0-0.6-0.2-4.7-5.4-4.7h-19.8l0,0h-1.2
		v-1.3c0-0.3-0.3-0.6-0.6-0.6h-16.1c-0.4,0-0.7-0.4-0.5-0.8c0.4-1.4,0.7-2.8,0.7-4.3c0-4-1.6-7.6-4.2-10.2c-0.7-0.7-1.7-1.1-2.8-1.1
		H204c-1,0-2,0.4-2.8,1.1c-3.1,3.1-4.8,7.6-4.1,12.4c0.9,6.4,6.2,11.4,12.6,12.2c0.5,0.1,0.9,0.1,1.4,0.1v0h30.7
		c0.3,0,0.6-0.3,0.6-0.6v-2h21c0,0,4.6-0.3,5.4,5.3v27.7c-1.9,0.2-3.4,1.8-3.4,3.8v31.7c0,2,1.5,3.6,3.4,3.8v7.2v5.6
		c0,6.3,5.1,11.3,11.3,11.3c6.3,0,11.3-5.1,11.3-11.3v-5.6V340h0v-5.6c0-3.6,2.9-6.5,6.5-6.5s6.5,2.9,6.5,6.5v5.5h0v143.5v5.6
		c0,6.3,5.1,11.3,11.3,11.3c6.3,0,11.3-5.1,11.3-11.3v-5.6V340h0v-5.6c0-3.6,2.9-6.5,6.5-6.5s6.5,2.9,6.5,6.5v5.5h0v143.5v5.6
		c0,6.3,5.1,11.3,11.3,11.3c6.3,0,11.3-5.1,11.3-11.3v-5.6V375.8h1.2c1,0,1.9-0.8,1.9-1.9v-27.4
		C366.1,345.6,365.3,344.7,364.3,344.7z"/>
	<g>
		<path fill="#F9F9FA" d="M352.8,342.2h7.6c1,0,1.9,0.8,1.9,1.9v27.4c0,1-0.8,1.9-1.9,1.9h-7.6c-1,0-1.9-0.8-1.9-1.9v-27.4
			C351,343.1,351.8,342.2,352.8,342.2z"/>
		<path fill="#F9F9FA" d="M265.6,434.4h3.8c2.1,0,3.8,1.7,3.8,3.8v31.7c0,2.1-1.7,3.8-3.8,3.8h-3.8c-2.1,0-3.8-1.7-3.8-3.8v-31.7
			C261.7,436.1,263.4,434.4,265.6,434.4z"/>
		<path fill="#F9F9FA" d="M193.3,356.5c0.9,6.4,6.2,11.4,12.6,12.2c0.5,0.1,0.9,0.1,1.4,0.1v0h30.6c0.4,0,0.8-0.4,0.8-0.8v-7.8
			c0-0.4-0.4-0.8-0.8-0.8h-16c-0.4,0-0.6-0.4-0.5-0.7c0.4-1.4,0.7-2.9,0.7-4.4c0-4-1.6-7.6-4.2-10.2c-0.7-0.7-1.7-1.1-2.8-1.1h-14.9
			c-1,0-2,0.4-2.8,1.1C194.3,347.2,192.6,351.7,193.3,356.5z"/>
		<path fill="#F9F9FA" d="M193.3,391.8c0.9,6.4,6.2,11.4,12.6,12.2c0.5,0.1,0.9,0.1,1.4,0.1v0H238c0.3,0,0.6-0.3,0.6-0.6v-8.1
			c0-0.3-0.3-0.6-0.6-0.6H222c-0.4,0-0.7-0.4-0.5-0.8c0.4-1.4,0.7-2.8,0.7-4.3c0-4-1.6-7.6-4.2-10.2c-0.7-0.7-1.7-1.1-2.8-1.1h-14.9
			c-1,0-2,0.4-2.8,1.1C194.3,382.5,192.6,387,193.3,391.8z"/>
		<path fill="#F9F9FA" d="M259.7,396.6h-22.2v4.8h22.2c0,0,5.2,0,5.4,5.3v74.2v5.6c0,6.3,5.1,11.3,11.3,11.3s11.3-5.1,11.3-11.3
			v-5.6V337.5h0v-5.6c0-3.6,2.9-6.5,6.5-6.5s6.5,2.9,6.5,6.5v5.5h0v143.5v5.6c0,6.3,5.1,11.3,11.3,11.3s11.3-5.1,11.3-11.3v-5.6
			V337.5h0v-5.6c0-3.6,2.9-6.5,6.5-6.5s6.5,2.9,6.5,6.5v5.5h0v143.5v5.6c0,6.3,5.1,11.3,11.3,11.3s11.3-5.1,11.3-11.3v-5.6V373h-4.8
			v107.9h0v5.6c0,3.6-2.9,6.5-6.5,6.5c-3.6,0-6.5-2.9-6.5-6.5v-5.6h0V337.5v-0.2v-5.5c0-6.3-5.1-11.3-11.3-11.3s-11.3,5.1-11.3,11.3
			v5.6v143.4h0v5.6c0,3.6-2.9,6.5-6.5,6.5s-6.5-2.9-6.5-6.5v-5.6h0V337.5v-0.2v-5.5c0-6.3-5.1-11.3-11.3-11.3s-11.3,5.1-11.3,11.3
			v5.6v143.4h0v5.6c0,3.6-2.9,6.5-6.5,6.5s-6.5-2.9-6.5-6.5v-5.6h0V371.2c0,0,0.5-9.9-8.9-9.9h-23.5v4.8H261c0,0,4.1,1.1,4.1,5.1
			v28.7C265.1,399.3,264.3,396.8,259.7,396.6z"/>
		<path fill="#D7D7D6" d="M356.2,322L356.2,322c1.7,0,3.1,1.4,3.1,3.1v17.2h-6.2v-17.2C353.1,323.4,354.5,322,356.2,322z"/>
		<path fill="#C4C4C3" d="M356.2,342.2V322c-1.7,0-3.1,1.4-3.1,3.1v17.2H356.2z"/>
		<polygon fill="#E5E5E5" points="238.7,361.4 239.9,366.2 238.7,366.2 		"/>
		<polygon fill="#E5E5E5" points="238.7,396.6 239.9,401.4 238.7,401.4 		"/>
	</g>
	<polygon fill="#E5E5E5" points="354.5,373.4 359.3,374.7 359.3,373.4 	"/>
	<path fill="#E5E5E5" d="M265.1,473.7l4.8,1.6v-1.5C269.9,473.7,266.7,474.1,265.1,473.7z"/>
	<path fill="#E5E5E5" d="M265.1,399.9l-0.7,4.1c0,0,0.5,0.7,0.7,2.5V399.9z"/>
</g>
<g>
	<path fill="#2F2F33" d="M372.2,18h-14.8h-5.5h-5.5H215.5l0,0h-17.8l0,0h0v265.6h0l5.2,8.2h12.6v13.3c0,0.7,0.8,1,1.3,0.7l9.1-6.7
		l9.1,6.7c0.5,0.4,1.3,0,1.3-0.7v-13.3h112l0,0.1h4.9l0-0.1h0l0,0.1h5.2l0-0.1h13.9c0.2,0,0.3,0,0.4,0l0.5,0c0,0,0.7,0,1.7-0.3
		c3.1-0.6,5.9-2.1,8-4.4c0.1-0.1,0.2-0.2,0.3-0.3c2.1-2.3,3.4-5.3,3.7-8.6c0,0,0-0.1,0-0.1l0-0.3c0-0.2,0-0.5,0-0.7v-8.2v-228v-8.2
		C386.9,24.6,380.3,18,372.2,18z"/>
	<g>
		<path fill="#EFEFEF" d="M366.7,20.9H197.3v257.4h-5.2l5.2,8.2h169.4c8.1,0,14.7-6.6,14.7-14.7V35.6
			C381.3,27.5,374.8,20.9,366.7,20.9z"/>
		<path fill="#DEDDDD" d="M381.3,263.6l0,9.2c-1.6,13-13.6,13.7-13.6,13.7l-175-7.3l-0.5-0.9L381.3,263.6z"/>
		<path fill="#DD8580" d="M229.4,300.4l-9.1-6.7l-9.1,6.7c-0.5,0.4-1.3,0-1.3-0.7v-28.2h20.7v28.2
			C230.6,300.4,229.9,300.8,229.4,300.4z"/>
		<polygon fill="#C67775" points="209.9,278.2 230.6,284.1 230.6,278.2 		"/>
		<path fill="#3DAF9C" d="M366.7,278.2H192.1V12.7h174.6c8.1,0,14.7,6.6,14.7,14.7v236.2C381.3,271.7,374.8,278.2,366.7,278.2z"/>
		<rect x="239.9" y="95.8" fill="#369B88" width="75.9" height="12.6"/>
		<rect x="253.7" y="112.3" fill="#369B88" width="48.2" height="8"/>
		<rect x="340.8" y="12.7" fill="#2F2F33" width="11.1" height="265.6"/>
		<rect x="340.8" y="12.7" fill="#3C3C3F" width="5.5" height="265.6"/>
		<rect x="192.1" y="12.7" fill="#369B88" width="17.8" height="265.6"/>
		<polygon fill="#2F2F33" points="340.8,278.2 342.7,286.5 347.6,286.5 346.3,278.2 		"/>
		<polygon fill="#242426" points="346.3,278.2 347.6,286.5 352.8,286.5 351.8,278.2 		"/>
	</g>
</g>
<g>
	<g>
		<path fill="#2F2F33" d="M210.8,514.1c0.1,0.1,0.3,0.1,0.4,0.2C211.3,514.3,211.1,514.3,210.8,514.1z"/>
		<path fill="#2F2F33" d="M368.4,587.1L368.4,587.1c-1.1-1.1-2.3-2.1-3.8-2.9l0,0c-5.8-4.1-18.3-10.3-44.8-17.4
			c0,0-33.6-10.1-61.6-23.5c-1-6.5-17.8-15.9-36.9-24.5c0.1-0.8-0.3-1.7-1.1-2.1c-0.9-0.5-1.9-0.2-2.5,0.5c-2.3-1-4.7-2.1-7-3.1
			c0,0,0,0,0,0c0,0,0,0,0.1,0c0,0,0,0-0.1,0c0.2-0.9-0.2-1.8-1.1-2.3c-0.9-0.5-2.1-0.2-2.7,0.7c-1.9-0.8-4.2-1.8-7-2.9
			c0.4-1,0-2.1-0.9-2.6c-1-0.5-2.2-0.2-2.8,0.8l-0.1,0.2c-2.1-0.8-4.2-1.7-6.5-2.6c0.3-0.9-0.1-2-1-2.5l0,0c-1-0.6-2.3-0.2-2.9,0.8
			l-0.1,0.1c-2.2-0.9-4.5-1.8-6.8-2.6c0.5-0.9,0.2-2.1-0.8-2.7c-1-0.6-2.2-0.3-2.8,0.7l-0.3,0.5c-2.8-1-5.6-2-8.1-2.9c0,0,0,0,0,0
			c0,0,0,0,0,0c-0.7-0.2-1.4-0.5-2.1-0.7c-3.5-1.2-10.8-3.9-17-7.4c-5.8-3.3-9.8-6.4-11.1-7.4c-2.6-2.3-12.4-8.2-8.7,36.7
			c-1.7,1.7-2.7,2.8-2.7,2.8c-14,12.3-32.1,13.8-32.1,13.8c-29.5,3.5-32.1-14.8-32.1-14.8c-2.6-13.2-8.6-14.8-8.6-14.8
			c-0.7-0.2-1.4-0.3-2-0.3c0,0,0,0,0,0l0,0c0.2-2-0.3-3.6-1-4.8c0,0,0,0,0,0c0,0-0.1-0.1-0.2-0.3c-1.1-1.6-2.7-2.5-3.7-3
			c0,0,0,0,0,0c0,0,0,0-0.1-0.1c-0.4-0.2-0.6-0.3-0.6-0.3c0,0,0,0,0,0c-0.1,0-0.1,0-0.2-0.1c-0.8-0.3-1.7-0.5-2.7-0.7
			c-1.8-0.3-4.1-0.2-6.5,0.8c-0.7,0.3-1.3,0.6-1.8,1c0,0,0,0-0.1,0c0,0,0,0,0,0c-0.5,0.4-1,0.8-1.4,1.2c-1.5,1.4-2.8,3.6-3.4,6.9
			c0,0.1,0,0.1,0,0.2c0,0,0,0,0,0c-0.2,0.9-0.2,1.5-0.2,1.5c0,0,0,0,0,0c-0.1,0.8-0.1,1.6-0.1,2.6c0,0-0.3,10.7,9.7,16.6
			c-1.9,4.7-3.6,8.7-4.7,11.4c-0.8,1.8,0,3.9,1.8,4.8l2,1c0,0-9.7,11.3-5.7,43.7l0,0c0,0-2,2.2-4.4,6.1c-1.1,1.8-2.3,3.9-3.4,6.2
			c0,0,0,0,0,0c0,0-4.5,8.7-4.4,16.4c0,0,0,0,0,0.1c0,0.1,0,0.3,0,0.4c0,0,0,0,0,0c0,1.5,0.3,3.2,0.9,4.8c0.1,0.3,0.2,0.6,0.4,0.9
			c0,0,0,0,0,0.1c0.1,0.3,0.3,0.6,0.5,0.9c0.1,0.2,0.3,0.4,0.4,0.6c0,0.1,0.1,0.1,0.2,0.2c0.2,0.3,0.4,0.6,0.7,0.8
			c4.7,5.4,18,12.3,54.9,12.2c0,0,156.7,2.8,240.2,0c0,0,50.7-2.9,57-26.5l0,0c0,0,0,0,0,0c0.3-1.3,0.5-2.6,0.6-4
			C376.1,593.7,368.4,587.1,368.4,587.1z M39,502.4c0.3,0,0.7,0,1,0.1c2.1,0.3,3.2,1.7,3.6,2.2c0.3,0.5,0.7,1.2,1,1.9
			c0.2,0.5,0.3,1,0.4,1.3c-0.7,1.3-1,2.5-1,2.5c-0.7,2.2-1.5,4.3-2.3,6.5C39.7,515.1,33.1,508.1,39,502.4z"/>
	</g>
	<g>
		<path fill="#212123" d="M44,501.2c0,0,3.4-13.3-9.2-13.5c0,0-12.6-2.9-12.6,13.5c0,0-0.3,11.3,10.4,17.1L36,509
			c0,0-10.4-8.6-2.8-15.4c0,0,4.7-0.7,6.2,8.7"/>
		<path fill="#262628" d="M29.6,494.3c-2.1,0.7-4.9,1.9-7.2,4.3c0,0,0.3-6.6,5-9.8c0,0,0,0,0,0c0,0,0,0,0.1,0c0.5-0.4,1.2-0.7,1.8-1
			c2.4-1,4.7-1,6.5-0.8c1,0.1,1.9,0.4,2.7,0.7c0.1,0,0.1,0,0.2,0.1c0,0,0,0,0,0c0,0,0.2,0.1,0.6,0.3c0.1,0,0.1,0.1,0.1,0.1
			c0,0,0,0,0,0c0.9,0.4,2.5,1.4,3.7,3c0.2,0.2,0.2,0.3,0.2,0.3c0,0,0,0,0,0c0.8,1.2,1.3,2.8,1,4.8l-2.4,8.2l-3.2-4.2
			c0,0-0.2-2-1.3-3.8c0,0.1,0,0.1,0,0.2c0,0-1.1-2.1-3.7-2.5C32.7,493.9,31.3,493.9,29.6,494.3z"/>
		<path fill="#212123" d="M160.4,488.5c0,0-16.4-2.8-29.1-14.9c0,0-13.8-15.7-9.1,37.7C122.1,511.2,159.5,503.6,160.4,488.5z"/>
		<path fill="#262628" d="M252.1,534.9l-46.2,66c0,0,119.5,10.5,142.6,3.2c0,0,24.7-4.5,15-23.5c0,0-3.2-9.9-49.8-22.3
			C313.7,558.4,280,548.3,252.1,534.9z"/>
		<path fill="#47464C" d="M252.1,534.9c-2.3-15.2-92.1-46.6-92.1-46.6c-15.1-3.8-40.8,24-40.8,24c-14,12.3-32.1,13.8-32.1,13.8
			C57.6,529.7,55,511.3,55,511.3c-2.6-13.2-8.6-14.8-8.6-14.8c-7.2-2-8.6,5.6-8.6,5.6c-3.5,10.6-8.2,21.8-10.5,27.1
			c-0.8,1.8,0,3.9,1.8,4.8l2,1l55.9,71.8h112.2C199.1,606.8,263.4,610.5,252.1,534.9z"/>
		<path fill="#FFFFFF" d="M43.7,527.7c-0.4-0.1-0.5,0.5-0.2,0.6l105.7,41.1c0,0,23.5,9.2,29.4-7.3c0,0,6.4-12.6-18.2-38.4
			c-0.3-0.3-0.7,0-0.5,0.4c2.1,4.1,6.1,13,3.5,19.4c0,0-3.3,10.3-18,7.4L43.7,527.7z"/>
		<path fill="#F4F4F4" d="M148.1,552.9c14.7,2.9,18-7.4,18-7.4c2.6-6.4-1.3-15.3-3.5-19.4c0,0,0-0.1,0-0.1c-0.7-0.8-1.4-1.5-2.2-2.3
			c-0.3-0.3-0.7,0-0.5,0.4c2.1,4.1,6.1,13,3.5,19.4c0,0-3.3,10.3-18,7.4L43.7,527.7c-0.4-0.1-0.5,0.5-0.2,0.6l5,1.9L148.1,552.9z"/>
		<path fill="#262628" d="M31,534.9c0,0-9.7,11.3-5.7,43.7l76.6,7.4C101.9,586.1,95,551.1,31,534.9z"/>
		<path fill="#212123" d="M31,534.9c0,0,55.1,16.3,65.8,50.5l5.1,0.6C101.9,586.1,96.1,551.2,31,534.9z"/>
		<path fill="#212123" d="M147,490.6c0,0,12.1-1.3,51.8,12.6c0,0-24.8-10.1-38.8-14.9c0,0-17.4-4-28.8-14.9L147,490.6z"/>
		<path fill="#212123" d="M130.2,472.5c0,0,12.8,10.8,30.2,15.9C160.4,488.5,121,486.1,130.2,472.5z"/>
		<path fill="#47464C" d="M165,493.1l-14.4-3.3c-1.4-0.3-3-0.1-4.2,0.7c-2.8,1.7-7.7,4.8-9.8,6.4C136.6,497,165,512.7,165,493.1z"/>
		<path fill="#212123" d="M152,490.2c0,0,41.7,10.7,53.1,15.7c0,0-34.6-15-50.7-19.5L152,490.2z"/>
		<path fill="#212123" d="M161,488.5c0,0-10.7-3.3-19.3-8.1C141.7,480.3,146.8,490.8,161,488.5z"/>
		<g>
			<path fill="#FFFFFF" d="M166.6,503.3l6.3-10.4c0.6-1,0.3-2.2-0.7-2.8l0,0c-1-0.6-2.2-0.3-2.8,0.7l-6.3,10.4
				c-0.6,1-0.3,2.2,0.7,2.8l0,0C164.7,504.6,166,504.3,166.6,503.3z"/>
		</g>
		<g>
			<path fill="#FFFFFF" d="M208.7,523.1l6.3-12c0.5-1,0.1-2.3-0.9-2.8v0c-1-0.5-2.3-0.1-2.8,0.9l-6.3,12c-0.5,1-0.1,2.3,0.9,2.8h0
				C206.9,524.5,208.2,524.1,208.7,523.1z"/>
		</g>
		<g>
			<path fill="#FFFFFF" d="M177.3,508.4l6.2-11c0.6-1,0.2-2.3-0.8-2.9l0,0c-1-0.6-2.3-0.2-2.9,0.8l-6.2,11c-0.6,1-0.2,2.3,0.8,2.9h0
				C175.5,509.8,176.7,509.4,177.3,508.4z"/>
		</g>
		<g>
			<path fill="#FFFFFF" d="M198.3,517.9l6.1-11.7c0.5-1,0.1-2.3-0.9-2.8l0,0c-1-0.5-2.3-0.1-2.8,0.9l-6.1,11.7
				c-0.5,1-0.1,2.3,0.9,2.8l0,0C196.6,519.3,197.8,518.9,198.3,517.9z"/>
		</g>
		<g>
			<path fill="#FFFFFF" d="M187.5,513l6.3-11.6c0.5-1,0.2-2.2-0.8-2.8l0,0c-1-0.5-2.2-0.2-2.8,0.8l-6.3,11.6c-0.5,1-0.2,2.2,0.8,2.8
				l0,0C185.7,514.4,187,514,187.5,513z"/>
		</g>
		<path fill="#EFEFEF" d="M13.1,607.5C13.1,607.5,13.1,607.4,13.1,607.5c-0.1-7.8,4.4-16.5,4.4-16.5c0,0,0,0,0,0
			c1.1-2.3,2.3-4.4,3.4-6.2c2.4-3.9,4.4-6.1,4.4-6.1c39,1.6,108.2,11.3,148.7,17.4c38.4,5.3,65.5,7.4,69.3,7.6
			c24,1.6,53.8,2.8,89.2,2.6c13-0.9,21.1-3.5,26-6.7c13.3-10.1,0-23.9,0-23.9c1.5,0.8,2.7,1.8,3.8,2.9l0,0c0,0,7.7,6.6,6.6,19.3
			c-0.1,1.4-0.3,2.7-0.6,4c0,0,0,0,0,0l0,0c-6.3,23.6-57,26.5-57,26.5c-83.4,2.8-240.2,0-240.2,0c-37,0.1-50.2-6.8-54.9-12.2
			c-0.2-0.3-0.5-0.5-0.7-0.8c-0.1-0.1-0.1-0.1-0.2-0.2c-0.2-0.2-0.3-0.4-0.4-0.6c-0.2-0.3-0.4-0.6-0.5-0.9c0,0,0,0,0-0.1
			c-0.2-0.3-0.3-0.6-0.4-0.9c-0.6-1.7-0.9-3.3-0.9-4.8c0,0,0,0,0,0C13.1,607.8,13.1,607.6,13.1,607.5z"/>
		<path fill="#E5E5E5" d="M171.4,598.1c39.5,5.5,67.2,7.6,71.2,7.9c24.6,1.7,55.3,2.9,91.6,2.7c13.4-0.9,21.7-3.6,26.7-6.8
			c12.3-9.3,2.5-21.7,0.4-24.1c-0.8-0.7-1.7-1.4-2.8-2c0,0,13.3,13.8,0,23.9c-4.9,3.2-12.9,5.7-26,6.7c-35.4,0.2-65.3-1-89.2-2.6
			c-3.8-0.3-30.9-2.3-69.3-7.6c-40.5-6-109.7-15.7-148.7-17.4c0,0-0.6,0.7-1.5,1.9C64.6,582.8,131.5,592.2,171.4,598.1z"/>
	</g>
	<path fill="#212123" d="M252.1,534.9c0,0,11,42.6-20.7,67.7l-7.8-0.7C223.6,601.9,260.7,592.3,252.1,534.9z"/>
</g>
</svg>
