<?xml version="1.0" encoding="utf-8"?>
<!-- Generator: Adobe Illustrator 18.0.0, SVG Export Plug-In . SVG Version: 6.00 Build 0)  -->
<!DOCTYPE svg PUBLIC "-//W3C//DTD SVG 1.1//EN" "http://www.w3.org/Graphics/SVG/1.1/DTD/svg11.dtd">
<svg version="1.1" id="Layer_1" xmlns="http://www.w3.org/2000/svg" xmlns:xlink="http://www.w3.org/1999/xlink" x="0px" y="0px"
	 viewBox="0 0 576 576" enable-background="new 0 0 576 576" xml:space="preserve">
<rect y="-0.4" fill="#EAE9E8" width="576" height="576"/>
<g>
	<circle fill="#EA5F39" cx="286.9" cy="352.2" r="67.7"/>
	<path fill="#F3F1EE" d="M384.6,286.5c0-24.7-9.2-47.2-24.2-64.5l1.5-0.5c4.4-20.1-8.6-59.6-8.6-59.6c-9.8-3.7-32.3,0-32.3,0
		c-4,2.9-6.9,18.1-8.6,30.2c-8.1-2.1-16.7-3.4-25.6-3.4c-7.8,0-15.5,0.9-22.8,2.8c-7-48.9-28.8-54.2-28.8-54.2
		c-24,22.7-22.5,81.2-22.5,81.2c0.5,0.9,1.1,1.7,1.8,2.3c-15.8,17.3-25.4,40.4-25.4,65.7c0,27.9,11.8,53.1,30.6,70.9l0,0l0,0
		c6.4,6.1,13.8,11.3,21.6,15.5l45.5,32.5l57-36.1l0.3-3.8C368.7,347.8,384.6,319,384.6,286.5z"/>
	<circle fill="#F8C05D" cx="286.3" cy="428.4" r="10.4"/>
	<path fill="#E5E4E3" d="M238.4,157.4c0,0-7.8,15.8-6.3,49.3c0,0,17-5.8,17.9-8C250.8,196.5,248,162.3,238.4,157.4z"/>
	<path fill="#E5E4E3" d="M335.2,157c0,0,7.8,15.8,6.3,49.3c0,0-17-5.8-17.9-8C322.8,196,325.5,161.9,335.2,157z"/>
	<polygon fill="#E5E4E3" points="351.9,160.6 339.3,181.6 323.1,162 	"/>
	<path fill="#FCFCFB" d="M262.4,392.1l24.5-8l18.5,8l16.1-5.5l22.4-17.2l-7.2-24.5l-26-19.9l-51.8-1.8c0,0-19.9,13.5-23.6,46.3
		L262.4,392.1"/>
	<g>
		<circle fill="#3B5062" cx="305.3" cy="357.5" r="4.4"/>
		<circle fill="#3B5062" cx="321.5" cy="355.8" r="4.4"/>
		<circle fill="#3B5062" cx="314.3" cy="369.2" r="4.4"/>
		<circle fill="#3B5062" cx="254.5" cy="355.8" r="4.4"/>
		<circle fill="#3B5062" cx="270.7" cy="357.5" r="4.4"/>
		<circle fill="#3B5062" cx="262.6" cy="369.2" r="4.4"/>
		<path fill="#3B5062" d="M228.6,295.9c1.7,0,2.9-1.4,2.9-2.9c0-5.1,4.1-9,9-9c5.1,0,9,4.1,9,9c0,1.7,1.4,2.9,2.9,2.9
			s2.9-1.4,2.9-2.9c0-8.3-6.7-14.9-14.9-14.9c-8.3,0-14.9,6.7-14.9,14.9C225.7,294.7,226.9,295.9,228.6,295.9z"/>
		<path fill="#3B5062" d="M332.6,278.1c-8.3,0-14.9,6.7-14.9,14.9c0,1.7,1.4,2.9,2.9,2.9c1.7,0,2.9-1.4,2.9-2.9c0-5.1,4.1-9,9-9
			c5.1,0,9,4.1,9,9c0,1.7,1.4,2.9,2.9,2.9c1.7,0,2.9-1.4,2.9-2.9C347.4,284.7,340.8,278.1,332.6,278.1z"/>
		<path fill="#3B5062" d="M388,281.9c-1.2-20.8-8.9-40.6-21.7-56.7c-0.3-26.8-3.4-48.9-8.7-65.7c0-0.2-0.2-0.3-0.2-0.3l0,0l0,0
			c0,0,0-0.2-0.2-0.2c0-0.2-0.2-0.2-0.2-0.3l-0.2-0.2l-0.2-0.2l-0.2-0.2l-0.2-0.2l-0.2-0.2c-0.2,0-0.2-0.2-0.3-0.2
			c0,0-0.2,0-0.2-0.2c-0.2,0-0.2-0.2-0.3-0.2h-0.2c-0.2,0-0.2,0-0.3-0.2h-0.2c-0.2,0-0.3,0-0.5,0h-34c-0.2,0-0.3,0-0.5,0h-0.2
			c-0.2,0-0.2,0-0.3,0h-0.2c-0.2,0-0.2,0-0.3,0.2c0,0-0.2,0-0.2,0.2c-0.2,0-0.2,0.2-0.3,0.2l-0.2,0.2l-0.2,0.2l-0.2,0.2l-0.2,0.2
			c0,0,0,0.2-0.2,0.2c0,0.2-0.2,0.2-0.2,0.3c0,0,0,0.2-0.2,0.2c0,0.2-0.2,0.2-0.2,0.3l0,0l0,0c-5.4,11.8-7.4,23-8.1,29.4l0,0l0,0
			c0,0.5-0.2,0.9-0.2,1.4l0,0l0,0c0,0,0,0,0,0.2c-4.6-0.9-9.2-1.7-13.9-2c-2.3-0.2-4.7-0.3-7-0.3c-7,0-13.8,0.8-20.4,2.1
			c-0.3-2.9-0.8-5.8-1.4-8.4l0,0c-2.5-12.6-8.6-32.2-24.2-46.6c-1.4-1.2-3.2-2-5.1-2c-2,0-4,0.9-5.5,2.5
			c-7.7,8.3-20.5,31.1-21.3,89.8c-14.2,16.8-22.5,38.7-22.5,62.5c0,16.1,3.7,31.6,11,45.8c0,0,0,0.2,0.2,0.2
			c0.5,0.6,7.5,12.4,17.2,23.1c1.7,16.2,8.7,31.4,20.4,43c10.6,10.7,24,17.6,38.6,20.1c-1.7,2.3-2.6,4.9-2.6,8
			c-0.2,7.7,6,13.9,13.6,13.9c7.7,0.2,13.9-6,13.9-13.6c0-2.9-0.9-5.7-2.5-8c31.4-4.6,56.2-29.6,60.5-61l0,0
			C378.8,339.2,389.7,311,388,281.9z M381.3,282.4c1.5,27.1-8.6,53.5-28,72.4l-0.2,0.2c-2.8,3.1-5.8,6-8.9,8.9
			c-4.9-24.2-20.4-37.7-27.1-42.4c-2.6-2-5.8-2.9-9-2.9h-9c0.3-2,0.6-4,0.9-6.1c0.2-0.3,0.2-0.5,0.2-0.8
			c4.7-34.3,20.7-55.7,33.2-67.7c11.2-10.6,21.6-15.8,25.3-17.5C372.1,242,380.2,261.6,381.3,282.4z M258.3,328.1l26.3,23.1v30.2
			c-1.5,2.1-8.3,9-25.4,3.4c-0.3-0.2-0.5-0.2-0.8-0.2c-8.1-5.7-14.9-11-20.4-15.9v-0.2C241.7,343.8,251.9,332.6,258.3,328.1z
			 M287.7,387c4.4,4.3,10,6.1,15.3,6.4c-6.3,3.7-11.5,6.3-14.4,7.8c-0.8,0.3-1.2,0.5-1.5,0.5c-0.2,0-0.3,0-0.8-0.3
			c-5.4-2.8-10.3-5.5-14.9-8.4C279.9,393,285.1,389.6,287.7,387z M316.6,385c-0.3,0-0.5,0.2-0.8,0.2c-0.2,0-16.2,6.6-25.3-4.1v-29.9
			l27.9-21c7.4,6.6,17.6,19,20.4,38.1l0,0C331.7,374.8,323.8,380.4,316.6,385z M347.3,163.9l-9.8,12.1l-10-12.1H347.3z M236.4,139.8
			c0.2-0.2,0.3-0.2,0.5-0.2s0.3,0,0.6,0.2c14.9,13.6,20.5,33.2,22.5,44.7l0,0l0,0c0.2,0.6,0.2,1.2,0.3,1.7c0,0.3,0.8,6.6,1.2,11.8
			c0,0.2,0,0.2,0,0.2l0,0c0,0.6,0.2,1.4,0.2,2c0.2,2.1,2.1,3.7,4.3,3.2c1.7-0.3,2.9-2,2.8-3.7c0-0.9-0.2-2-0.3-3.2
			c6.4-1.4,13-2.1,19.8-2.1c0,0,12.6,0,20.4,2.1l0,0l-0.3,2.8v0.2v0.2l0,0l0,0c0,2,1.5,3.7,3.5,3.7c2,0,3.5-1.5,3.7-3.5l0.3-6.3l0,0
			c0.3-5.2,0.9-9.6,1.1-10c0.9-4.7,2.3-10.6,4.7-16.8l3.8,4.6c-2.5,7.2-4.4,16.5-4,27.1c0,1.5,1.4,2.9,2.9,2.9c0,0,7.7,0.5,15.3,5.8
			c0.5,0.3,1.1,0.6,1.7,0.6c0.9,0,1.8-0.5,2.5-1.2c0.9-1.4,0.6-3.2-0.8-4.3c-6.1-4.3-12.3-5.8-15.6-6.4c0-7,1.1-13.3,2.6-18.7
			l5.1,6.1c0.6,0.8,1.5,1.2,2.6,1.2l0,0c1.1,0,2-0.5,2.6-1.2l12.9-15.8c3.5,13.2,5.7,29.4,6.4,48.2c0,0.6-0.3,2.9-4,4.7
			c-0.3,0.2-0.5,0.3-0.8,0.3l0,0l0,0c-0.2,0.2-0.5,0.2-0.6,0.3l0,0l0,0l0,0c-5.1,2.5-14.6,7.8-24.8,17.5
			c-12.3,11.6-27.6,31.7-34,62.9l0,0c0,0,0,0,0,0.2c-0.5,2.5-0.9,5.1-1.4,7.8c-0.5,2.6-0.9,5.7-1.4,8.7h-9.5
			c-2-17.9-5.5-27.9-5.5-27.9l0,0c-7.5-24.8-20.7-41.5-31.4-51.6c-10.3-9.6-19.8-15-24.8-17.5l0,0l0,0c-0.3-0.2-0.5-0.3-0.8-0.3
			c-0.8-0.5-1.4-0.8-1.7-1.1c-1.5-1.4-1.7-2.9-1.7-3.4C218.9,164.5,231,145.8,236.4,139.8z M194.6,287.9c0-23.3,8.6-44.7,22.7-61.1
			c4.1,2,13.9,7.2,24.4,17c10.6,10.1,23.9,27,30.5,52.7c1.5,6.6,2.8,14.9,3.7,21.7h-6.9c-2,0-3.8,0.3-5.8,0.8l0,0
			c-2.8,0.6-5.4,1.8-7.7,3.4c-8.1,5.5-18.5,17.3-22.8,41.2c-0.8-0.8-1.5-1.4-2.3-2.1l-0.2-0.2c-12.7-10.3-24.5-29.4-25.4-30.9
			C197.9,317.3,194.6,302.9,194.6,287.9z M286.2,435.6c-4,0-7-3.2-7-7.2c0-3.8,3.2-7,7.2-7l0,0c3.8,0,7,3.2,7,7.2
			C293.2,432.4,290,435.6,286.2,435.6z M286.9,414.6c-17.3,0-33.5-6.9-45.8-19.1c-8.4-8.4-14.2-18.8-17-30.2
			c0.5,0.5,1.1,0.9,1.5,1.4c11.2,10.9,30.2,26.6,57.4,40.9c1.2,0.6,2.6,0.9,3.8,0.9c1.8,0,3.4-0.6,4.6-1.2
			c8.7-4.3,35.8-18.5,57.7-38.7C341.3,395.3,316.3,414.7,286.9,414.6z"/>
		<path fill="#3B5062" d="M233.2,209.4c0.6,0,1.2-0.2,1.8-0.6c7.8-5.5,15.6-6,15.8-6c1.7,0,2.9-1.4,3.1-3.1
			c1.1-26-11.8-44.1-12.4-44.9c-1.1-1.4-2.9-1.7-4.4-0.8c-1.4,1.1-1.7,2.9-0.8,4.4c0.2,0.2,11.2,15.8,11.3,38.3
			c-3.5,0.6-9.8,2.3-16.1,6.7c-1.4,0.9-1.8,2.9-0.8,4.4C231.2,208.9,232.1,209.4,233.2,209.4z"/>
	</g>
</g>
</svg>
