<?xml version="1.0" encoding="utf-8"?>
<!-- Generator: Adobe Illustrator 18.0.0, SVG Export Plug-In . SVG Version: 6.00 Build 0)  -->
<!DOCTYPE svg PUBLIC "-//W3C//DTD SVG 1.1//EN" "http://www.w3.org/Graphics/SVG/1.1/DTD/svg11.dtd">
<svg version="1.1" id="Layer_1" xmlns="http://www.w3.org/2000/svg" xmlns:xlink="http://www.w3.org/1999/xlink" x="0px" y="0px"
	 viewBox="0 0 300 300" enable-background="new 0 0 300 300" xml:space="preserve">
<rect fill="#F2F2F2" width="300" height="300"/>
<g>
	<g>
		<g>
			<g>
				<path fill="#444A50" d="M143.3,166c-1.2,0-2.2-0.9-2.3-2c-3.3-24-14.7-39-23.5-47.4C108,107.5,99.1,104.1,99,104
					c-1.2-0.5-1.8-1.8-1.4-3c0.5-1.2,1.8-1.8,3-1.4c0.4,0.1,9.7,3.7,19.9,13.4c9.4,8.9,21.5,24.9,25,50.3c0.2,1.3-0.7,2.5-2,2.6
					C143.5,166,143.4,166,143.3,166z"/>
			</g>
		</g>
	</g>
	<g>
		<g>
			<g>
				<path fill="#444A50" d="M156.2,165.9c-0.1,0-0.2,0-0.3,0c-1.3-0.2-2.2-1.4-2-2.6c3.5-25.4,15.4-41.4,24.8-50.2
					c10.2-9.7,19.5-13.2,19.9-13.4c1.2-0.5,2.6,0.2,3,1.4c0.5,1.2-0.2,2.6-1.4,3l0,0c-0.1,0-9,3.5-18.5,12.6
					c-8.8,8.4-19.9,23.3-23.2,47.3C158.4,165.1,157.4,165.9,156.2,165.9z"/>
			</g>
		</g>
	</g>
	<g>
		<g>
			<g>
				<path fill="#444A50" d="M131.4,166.1"/>
			</g>
		</g>
	</g>
	<g>
		<g>
			<g>
				<path fill="#444A50" d="M149.3,246.4c-13.2-0.2-25.6-5.4-34.9-14.8c-9.4-9.5-14.6-22.1-14.5-35.4c0-1.3,1.1-2.3,2.4-2.3
					c1.3,0,2.3,1.1,2.3,2.4c-0.1,12.1,4.6,23.5,13.1,32.1c8.5,8.6,19.9,13.4,32,13.4c25,0.1,45.4-20.1,45.5-45.1
					c0-1.3,1.1-2.3,2.4-2.3c0,0,0,0,0,0c1.3,0,2.3,1.1,2.3,2.4c-0.1,27.6-22.6,49.9-50.2,49.8C149.6,246.4,149.5,246.4,149.3,246.4z
					"/>
			</g>
		</g>
	</g>
	<g>
		<g>
			<path fill="#444A50" d="M100.3,97.2c0,0-0.2,1.8,1.9,3.1C102.3,100.3,98.2,99,100.3,97.2z"/>
		</g>
	</g>
	<g>
		<g>
			<path fill="#444A50" d="M101.2,99.5c0,0,0.4,0.6,2,1.3C103.2,100.8,101.1,103,101.2,99.5z"/>
		</g>
	</g>
	<g>
		<g>
			<path fill="#444A50" d="M199.9,96.6c0,0,0.2,1.5-0.8,2.3C199.2,98.8,201.7,99.2,199.9,96.6z"/>
		</g>
	</g>
	<g>
		<g>
			<g>
				<path fill="#444A50" d="M110.3,93.8c-0.7,0-1.5-0.3-1.9-1c-0.7-1.1-0.5-2.5,0.6-3.3c4.7-3.3,9.4-4.5,12.1-5
					c0-16.9-8.3-28.6-8.4-28.7c-0.8-1.1-0.5-2.5,0.5-3.3c1.1-0.8,2.5-0.5,3.3,0.5c0.4,0.6,10,14.1,9.3,33.6c0,1.2-1,2.2-2.2,2.3
					c-0.1,0-5.9,0.4-11.8,4.4C111.2,93.7,110.8,93.8,110.3,93.8z"/>
			</g>
		</g>
	</g>
	<g>
		<g>
			<path fill="#444A50" d="M191.3,89.5c-4.7-3.3-9.4-4.5-12.1-5c0-6,1.1-11.4,2.5-15.8l-3.5-4.3c-2.1,5.8-3.9,13.4-3.6,22.3
				c0,1.2,1,2.2,2.2,2.3c0.1,0,5.9,0.3,11.8,4.4c0.4,0.3,0.9,0.4,1.3,0.4c0.7,0,1.5-0.3,1.9-1C192.6,91.7,192.3,90.3,191.3,89.5z"/>
		</g>
	</g>
	<g>
		<g>
			<g>
				<path fill="#444A50" d="M187.8,205.5c-1,0-1.9-0.8-2.1-1.8c-2.5-16.9-13.2-26.3-17.7-29.5c-1.1-0.8-2.5-1.3-3.9-1.3h-27.5
					c-2.5,0-4.9,0.7-7,2.1c-4.3,3-12,10.6-14.6,28.6c-0.2,1.2-1.2,2-2.4,1.8c-1.2-0.2-2-1.2-1.8-2.4c2.7-18.6,10.4-27.4,16.4-31.5
					c2.7-1.9,6-2.9,9.4-2.9h27.5c2.3,0,4.5,0.7,6.4,2c4.9,3.5,16.7,13.8,19.4,32.3c0.2,1.2-0.6,2.2-1.8,2.4
					C188,205.5,187.9,205.5,187.8,205.5z"/>
			</g>
		</g>
	</g>
	<g>
		<g>
			<g>
				<path fill="#444A50" d="M149.2,261c-5.3-0.1-9.6-4.5-9.5-9.8s4.5-9.6,9.8-9.5c5.3,0.1,9.6,4.5,9.5,9.8
					C158.9,256.8,154.5,261.1,149.2,261z M149.3,246.4c-2.7,0-5,2.2-5,4.9s2.2,5,4.9,5c2.7,0,5-2.2,5-4.9
					C154.3,248.7,152.1,246.5,149.3,246.4z"/>
			</g>
		</g>
	</g>
	<g>
		<g>
			<g>
				<g>
					<circle fill="#444A50" cx="162.1" cy="196" r="3.1"/>
				</g>
			</g>
		</g>
	</g>
	<g>
		<g>
			<g>
				<g>
					<circle fill="#444A50" cx="173.5" cy="194.8" r="3.1"/>
				</g>
			</g>
		</g>
	</g>
	<g>
		<g>
			<g>
				<g>
					<circle fill="#444A50" cx="168.5" cy="204.3" r="3.1"/>
				</g>
			</g>
		</g>
	</g>
	<g>
		<g>
			<g>
				<g>
					<circle fill="#444A50" cx="126.5" cy="194.8" r="3.1"/>
				</g>
			</g>
		</g>
	</g>
	<g>
		<g>
			<g>
				<g>
					<circle fill="#444A50" cx="137.9" cy="196" r="3.1"/>
				</g>
			</g>
		</g>
	</g>
	<g>
		<g>
			<g>
				<g>
					<circle fill="#444A50" cx="132.2" cy="204.3" r="3.1"/>
				</g>
			</g>
		</g>
	</g>
	<g>
		<g>
			<path fill="#444A50" d="M172.3,216.6c-0.5-1.1-1.7-1.6-2.8-1.2c-0.1,0-11.4,4.7-17.6-2.8v-20.9l20.6-15.5c0.8-1-3.6-4.1-4.2-5.2
				c-0.6-1.2-1.7-1.9-3-1.9h-32.1c-0.8,0-1.5,0.4-1.9,1.1c-0.4,0.7-3.9,3.4-3.5,4l19.8,17.4v21.1c-1.1,1.5-5.8,6.3-17.7,2.4
				c-1.1-0.4-2.3,0.2-2.7,1.4c-0.4,1.1,0.2,2.3,1.4,2.7c3.8,1.2,7,1.7,9.7,1.7c6,0,9.6-2.4,11.5-4.3c3.5,3.4,8,4.5,12.2,4.5
				c3.6,0,7-0.9,9.2-1.8C172.3,219,172.8,217.7,172.3,216.6z"/>
		</g>
	</g>
	<g>
		<g>
			<path fill="#444A50" d="M220,143.2c-0.8-14.6-6.2-28.4-15.2-39.7c-0.3-18.7-2.3-34.2-6.1-46c0-0.1-0.1-0.2-0.1-0.2c0,0,0,0,0,0
				c0,0,0,0,0,0c0,0-0.1-0.1-0.1-0.1c0-0.1-0.1-0.1-0.1-0.2c0,0-0.1-0.1-0.1-0.1c0-0.1-0.1-0.1-0.1-0.1c0,0-0.1-0.1-0.1-0.1
				c0,0-0.1-0.1-0.1-0.1c0,0-0.1-0.1-0.1-0.1c-0.1,0-0.1-0.1-0.2-0.1c0,0-0.1,0-0.1-0.1c-0.1,0-0.1-0.1-0.2-0.1c0,0-0.1,0-0.1,0
				c-0.1,0-0.1,0-0.2-0.1c0,0-0.1,0-0.1,0c-0.1,0-0.2,0-0.4,0h-23.8c-0.1,0-0.2,0-0.3,0c0,0-0.1,0-0.1,0c-0.1,0-0.1,0-0.2,0
				c0,0-0.1,0-0.1,0c-0.1,0-0.1,0-0.2,0.1c0,0-0.1,0-0.1,0.1c-0.1,0-0.1,0.1-0.2,0.1c0,0-0.1,0.1-0.1,0.1c-0.1,0-0.1,0.1-0.2,0.1
				c0,0-0.1,0.1-0.1,0.1c0,0-0.1,0.1-0.1,0.1c0,0-0.1,0.1-0.1,0.1c0,0.1-0.1,0.1-0.1,0.2c0,0,0,0.1-0.1,0.1c0,0.1-0.1,0.1-0.1,0.2
				c0,0,0,0,0,0c0,0,0,0,0,0c-3.7,8.2-5.2,16.1-5.7,20.5h0c0,0,0,0,0,0c0,0.4-0.1,0.7-0.1,1c-3.2-0.7-6.4-1.1-9.7-1.4
				c-1.6-0.1-3.3-0.2-4.9-0.2c-4.9,0-9.7,0.5-14.3,1.5c-0.3-2-0.6-4.1-1-5.9l0,0c-1.7-8.8-6-22.5-17-32.5c-1-0.9-2.2-1.4-3.6-1.4
				c-1.4,0-2.8,0.6-3.8,1.7c-5.3,5.8-14.3,21.7-14.9,62.7c-9.7,12-15.6,27.3-15.6,44c0,11.3,2.6,22,7.7,32c0,0,0.1,0.1,0.1,0.1
				c0.4,0.6,9,14.8,18.8,22.8c7.8,7.6,21.1,18.7,40.1,28.6c0.9,0.5,1.8,0.7,2.7,0.7c1.3,0,2.4-0.5,3.2-0.9
				c6.9-3.4,30.7-16,46.5-33.3C213.5,183.2,221.1,163.5,220,143.2z M191.5,60.6l-6.9,8.5l-7-8.5H191.5z M164.2,83.5
				c-0.1,0.7-0.1,1.4-0.2,2.1c-0.1,1.5,1,2.7,2.5,2.8c1.4,0,2.5-1.1,2.6-2.4l0.2-4.4v0c0.2-3.7,0.7-6.7,0.7-6.9
				c0.6-3.3,1.6-7.4,3.3-11.8l9.5,11.5c0.4,0.5,1.1,0.9,1.8,0.9c0,0,0,0,0,0c0.7,0,1.4-0.3,1.8-0.9l9-11c2.5,9.3,4,20.6,4.5,33.8
				c0,0.5-0.3,2.3-3.4,3.6c0,0,0.1,0,0.1,0c-0.2,0.1-0.4,0.2-0.5,0.2c0,0-0.1,0-0.1,0l0,0c0.2,0.2,0.3,0.3,0.5,0.5
				c11.1,11.3,17.8,26.2,18.7,42.2c1.1,19-6,37.4-19.6,50.7c0,0-0.1,0.1-0.1,0.1c-15.2,16.8-38.4,29-45.2,32.3
				c-0.5,0.3-0.9,0.4-1.1,0.4c-0.1,0-0.2,0-0.5-0.2c-18.6-9.7-31.5-20.5-39.1-27.9c-0.1,0-0.1-0.1-0.2-0.1
				c-8.9-7.2-17.2-20.6-17.8-21.6c-4.8-9.3-7.2-19.3-7.2-29.8c0-18,7.3-34.4,19.2-46.2c-0.1,0-0.1,0-0.2-0.1
				c-0.1-0.1-0.3-0.1-0.4-0.2c-0.1,0-0.1-0.1-0.2-0.1c-0.1-0.1-0.2-0.1-0.3-0.2c-0.1,0-0.1-0.1-0.2-0.1c-0.1-0.1-0.2-0.1-0.3-0.2
				c0,0-0.1-0.1-0.1-0.1c-0.1-0.1-0.2-0.1-0.2-0.2c0,0-0.1-0.1-0.1-0.1c-0.1-0.1-0.2-0.1-0.2-0.2c0,0,0,0-0.1-0.1
				c-1.2-0.9-1.1-1.8-1.1-1.8c1.3-36.7,9.8-50,13.6-54.1c0.1-0.1,0.2-0.1,0.3-0.1c0.1,0,0.2,0,0.4,0.2c10.4,9.6,14.3,23.2,15.7,31.3
				l0,0c0,0,0,0,0,0c0.1,0.4,0.1,0.8,0.2,1.2c0,0.3,0.5,4.6,0.8,8.3c0,0.1,0,0.1,0,0.1c0,0,0,0,0,0c0,0.5,0.1,0.9,0.1,1.4
				c0.1,1.5,1.5,2.6,3,2.3c1.2-0.3,2-1.3,2-2.6c0-0.7-0.1-1.4-0.2-2.3c4.4-1,9.1-1.5,13.8-1.5"/>
		</g>
	</g>
	<g>
		<path fill="#444A50" d="M125.2,152.9c-1.1,0-2-0.9-2-2c0-3.5-2.8-6.3-6.3-6.3c-3.5,0-6.3,2.8-6.3,6.3c0,1.1-0.9,2-2,2
			c-1.1,0-2-0.9-2-2c0-5.8,4.7-10.4,10.4-10.4c5.8,0,10.4,4.7,10.4,10.4C127.2,152,126.3,152.9,125.2,152.9z"/>
	</g>
	<g>
		<path fill="#444A50" d="M189.5,152.9c-1.1,0-2-0.9-2-2c0-3.5-2.8-6.3-6.3-6.3c-3.5,0-6.3,2.8-6.3,6.3c0,1.1-0.9,2-2,2
			c-1.1,0-2-0.9-2-2c0-5.8,4.7-10.4,10.4-10.4c5.8,0,10.4,4.7,10.4,10.4C191.6,152,190.7,152.9,189.5,152.9z"/>
	</g>
	<g>
		<path fill="#444A50" d="M142.6,149.1c0,0,3.8,10.8,4.6,29.7h-4.6c0,0-1.3-15.4-3.7-25.4L142.6,149.1z"/>
	</g>
	<g>
		<path fill="#444A50" d="M156.4,178.9c0,0,2.2-19.1,4.4-26.2l-5.9,4.4c0,0-3.3,18.9-3.3,21.4L156.4,178.9z"/>
	</g>
</g>
</svg>
