<?xml version="1.0" encoding="utf-8"?>
<!-- Generator: Adobe Illustrator 18.0.0, SVG Export Plug-In . SVG Version: 6.00 Build 0)  -->
<!DOCTYPE svg PUBLIC "-//W3C//DTD SVG 1.1//EN" "http://www.w3.org/Graphics/SVG/1.1/DTD/svg11.dtd">
<svg version="1.1" id="Layer_1" xmlns="http://www.w3.org/2000/svg" xmlns:xlink="http://www.w3.org/1999/xlink" x="0px" y="0px"
	 viewBox="0 0 300 300" enable-background="new 0 0 300 300" xml:space="preserve">
<rect y="-0.2" fill="#EAE9E8" width="300" height="300"/>
<g>
	<circle fill="#EA5F39" cx="149.3" cy="192" r="44.2"/>
	<path fill="#F3F1EE" d="M213.1,149.1c0-16.1-6-30.8-15.8-42.1l1-0.3c2.9-13.1-5.6-38.9-5.6-38.9c-6.4-2.4-21.1,0-21.1,0
		c-2.6,1.9-4.5,11.8-5.6,19.7c-5.3-1.4-10.9-2.2-16.7-2.2c-5.1,0-10.1,0.6-14.9,1.8c-4.6-31.9-18.8-35.4-18.8-35.4
		c-15.7,14.8-14.7,53-14.7,53c0.3,0.6,0.7,1.1,1.2,1.5c-10.3,11.3-16.6,26.4-16.6,42.9c0,18.2,7.7,34.7,20,46.3l0,0l0,0
		c4.2,4,9,7.4,14.1,10.1l29.7,21.2l37.2-23.6l0.2-2.5C202.7,189.1,213.1,170.3,213.1,149.1z"/>
	<circle fill="#F8C05D" cx="148.9" cy="241.7" r="6.8"/>
	<path fill="#E5E4E3" d="M117.6,64.8c0,0-5.1,10.3-4.1,32.2c0,0,11.1-3.8,11.7-5.2C125.7,90.3,123.9,68,117.6,64.8z"/>
	<path fill="#E5E4E3" d="M180.8,64.5c0,0,5.1,10.3,4.1,32.2c0,0-11.1-3.8-11.7-5.2C172.7,90,174.5,67.7,180.8,64.5z"/>
	<polygon fill="#E5E4E3" points="191.7,66.9 183.5,80.6 172.9,67.8 	"/>
	<path fill="#FCFCFB" d="M133.3,218l16-5.2l12.1,5.2l10.5-3.6l14.6-11.2l-4.7-16l-17-13L131,173c0,0-13,8.8-15.4,30.2L133.3,218"/>
	<g>
		<circle fill="#3B5062" cx="161.3" cy="195.4" r="2.9"/>
		<circle fill="#3B5062" cx="171.9" cy="194.3" r="2.9"/>
		<circle fill="#3B5062" cx="167.2" cy="203.1" r="2.9"/>
		<circle fill="#3B5062" cx="128.1" cy="194.3" r="2.9"/>
		<circle fill="#3B5062" cx="138.7" cy="195.4" r="2.9"/>
		<circle fill="#3B5062" cx="133.4" cy="203.1" r="2.9"/>
		<path fill="#3B5062" d="M111.2,155.2c1.1,0,1.9-0.9,1.9-1.9c0-3.3,2.7-5.9,5.9-5.9c3.3,0,5.9,2.7,5.9,5.9c0,1.1,0.9,1.9,1.9,1.9
			s1.9-0.9,1.9-1.9c0-5.4-4.4-9.7-9.7-9.7c-5.4,0-9.7,4.4-9.7,9.7C109.3,154.4,110.1,155.2,111.2,155.2z"/>
		<path fill="#3B5062" d="M179.1,143.6c-5.4,0-9.7,4.4-9.7,9.7c0,1.1,0.9,1.9,1.9,1.9c1.1,0,1.9-0.9,1.9-1.9c0-3.3,2.7-5.9,5.9-5.9
			c3.3,0,5.9,2.7,5.9,5.9c0,1.1,0.9,1.9,1.9,1.9c1.1,0,1.9-0.9,1.9-1.9C188.8,147.9,184.5,143.6,179.1,143.6z"/>
		<path fill="#3B5062" d="M215.3,146.1c-0.8-13.6-5.8-26.5-14.2-37c-0.2-17.5-2.2-31.9-5.7-42.9c0-0.1-0.1-0.2-0.1-0.2c0,0,0,0,0,0
			c0,0,0,0,0,0c0,0,0-0.1-0.1-0.1c0-0.1-0.1-0.1-0.1-0.2c0,0-0.1-0.1-0.1-0.1c0,0-0.1-0.1-0.1-0.1c0,0-0.1-0.1-0.1-0.1
			c0,0-0.1-0.1-0.1-0.1c0,0-0.1-0.1-0.1-0.1c-0.1,0-0.1-0.1-0.2-0.1c0,0-0.1,0-0.1-0.1c-0.1,0-0.1-0.1-0.2-0.1c0,0-0.1,0-0.1,0
			c-0.1,0-0.1,0-0.2-0.1c0,0-0.1,0-0.1,0c-0.1,0-0.2,0-0.3,0h-22.2c-0.1,0-0.2,0-0.3,0c0,0-0.1,0-0.1,0c-0.1,0-0.1,0-0.2,0
			c0,0-0.1,0-0.1,0c-0.1,0-0.1,0-0.2,0.1c0,0-0.1,0-0.1,0.1c-0.1,0-0.1,0.1-0.2,0.1c0,0-0.1,0.1-0.1,0.1c0,0-0.1,0.1-0.1,0.1
			c0,0-0.1,0.1-0.1,0.1c0,0-0.1,0.1-0.1,0.1c0,0,0,0.1-0.1,0.1c0,0.1-0.1,0.1-0.1,0.2c0,0,0,0.1-0.1,0.1c0,0.1-0.1,0.1-0.1,0.2
			c0,0,0,0,0,0c0,0,0,0,0,0c-3.5,7.7-4.8,15-5.3,19.2h0c0,0,0,0,0,0c0,0.3-0.1,0.6-0.1,0.9l0,0l0,0c0,0,0,0,0,0.1
			c-3-0.6-6-1.1-9.1-1.3c-1.5-0.1-3.1-0.2-4.6-0.2c-4.6,0-9,0.5-13.3,1.4c-0.2-1.9-0.5-3.8-0.9-5.5l0,0c-1.6-8.2-5.6-21-15.8-30.4
			c-0.9-0.8-2.1-1.3-3.3-1.3c-1.3,0-2.6,0.6-3.6,1.6c-5,5.4-13.4,20.3-13.9,58.6C90,120.2,84.6,134.5,84.6,150
			c0,10.5,2.4,20.6,7.2,29.9c0,0,0,0.1,0.1,0.1c0.3,0.4,4.9,8.1,11.2,15.1c1.1,10.6,5.7,20.5,13.3,28.1c6.9,7,15.7,11.5,25.2,13.1
			c-1.1,1.5-1.7,3.2-1.7,5.2c-0.1,5,3.9,9.1,8.9,9.1c5,0.1,9.1-3.9,9.1-8.9c0-1.9-0.6-3.7-1.6-5.2c20.5-3,36.7-19.3,39.5-39.8
			c0,0,0,0,0,0C209.3,183.5,216.4,165.1,215.3,146.1z M210.9,146.4c1,17.7-5.6,34.9-18.3,47.3c0,0-0.1,0.1-0.1,0.1
			c-1.8,2-3.8,3.9-5.8,5.8c-3.2-15.8-13.3-24.6-17.7-27.7c-1.7-1.3-3.8-1.9-5.9-1.9h-5.9c0.2-1.3,0.4-2.6,0.6-4
			c0.1-0.2,0.1-0.3,0.1-0.5c3.1-22.4,13.5-36.4,21.7-44.2c7.3-6.9,14.1-10.3,16.5-11.4C204.9,120,210.2,132.8,210.9,146.4z
			 M130.6,176.2l17.2,15.1V211c-1,1.4-5.4,5.9-16.6,2.2c-0.2-0.1-0.3-0.1-0.5-0.1c-5.3-3.7-9.7-7.2-13.3-10.4c0,0,0-0.1,0-0.1
			C119.8,186.5,126.4,179.2,130.6,176.2z M149.8,214.7c2.9,2.8,6.5,4,10,4.2c-4.1,2.4-7.5,4.1-9.4,5.1c-0.5,0.2-0.8,0.3-1,0.3
			c-0.1,0-0.2,0-0.5-0.2c-3.5-1.8-6.7-3.6-9.7-5.5C144.7,218.6,148.1,216.4,149.8,214.7z M168.7,213.4c-0.2,0-0.3,0.1-0.5,0.1
			c-0.1,0-10.6,4.3-16.5-2.7v-19.5l18.2-13.7c4.8,4.3,11.5,12.4,13.3,24.9c0,0,0,0,0,0C178.5,206.7,173.4,210.4,168.7,213.4z
			 M188.7,69l-6.4,7.9l-6.5-7.9H188.7z M116.3,53.3c0.1-0.1,0.2-0.1,0.3-0.1c0.1,0,0.2,0,0.4,0.1c9.7,8.9,13.4,21.7,14.7,29.2l0,0
			c0,0,0,0,0,0c0.1,0.4,0.1,0.8,0.2,1.1c0,0.2,0.5,4.3,0.8,7.7c0,0.1,0,0.1,0,0.1c0,0,0,0,0,0c0,0.4,0.1,0.9,0.1,1.3
			c0.1,1.4,1.4,2.4,2.8,2.1c1.1-0.2,1.9-1.3,1.8-2.4c0-0.6-0.1-1.3-0.2-2.1c4.2-0.9,8.5-1.4,12.9-1.4c0,0,8.2,0,13.3,1.4
			c0,0,0,0,0,0l-0.2,1.8c0,0,0,0.1,0,0.1c0,0,0,0.1,0,0.1l0,0l0,0c0,1.3,1,2.4,2.3,2.4c1.3,0,2.3-1,2.4-2.3l0.2-4.1l0,0
			c0.2-3.4,0.6-6.3,0.7-6.5c0.6-3.1,1.5-6.9,3.1-11l2.5,3c-1.6,4.7-2.9,10.8-2.6,17.7c0,1,0.9,1.9,1.9,1.9c0,0,5,0.3,10,3.8
			c0.3,0.2,0.7,0.4,1.1,0.4c0.6,0,1.2-0.3,1.6-0.8c0.6-0.9,0.4-2.1-0.5-2.8c-4-2.8-8-3.8-10.2-4.2c0-4.6,0.7-8.7,1.7-12.2l3.3,4
			c0.4,0.5,1,0.8,1.7,0.8c0,0,0,0,0,0c0.7,0,1.3-0.3,1.7-0.8l8.4-10.3c2.3,8.6,3.7,19.2,4.2,31.5c0,0.4-0.2,1.9-2.6,3.1
			c-0.2,0.1-0.3,0.2-0.5,0.2c0,0,0,0,0,0h0c-0.1,0.1-0.3,0.1-0.4,0.2l0,0l0,0c0,0,0,0,0,0c-3.3,1.6-9.5,5.1-16.2,11.4
			c-8,7.6-18,20.7-22.2,41.1l0,0c0,0,0,0,0,0.1c-0.3,1.6-0.6,3.3-0.9,5.1c-0.3,1.7-0.6,3.7-0.9,5.7h-6.2
			c-1.3-11.7-3.6-18.2-3.6-18.2l0,0c-4.9-16.2-13.5-27.1-20.5-33.7c-6.7-6.3-12.9-9.8-16.2-11.4l0,0c0,0,0,0,0,0
			c-0.2-0.1-0.3-0.2-0.5-0.2c-0.5-0.3-0.9-0.5-1.1-0.7c-1-0.9-1.1-1.9-1.1-2.2C104.9,69.4,112.8,57.2,116.3,53.3z M89,150
			c0-15.2,5.6-29.2,14.8-39.9c2.7,1.3,9.1,4.7,15.9,11.1c6.9,6.6,15.6,17.6,19.9,34.4c1,4.3,1.8,9.7,2.4,14.2h-4.5
			c-1.3,0-2.5,0.2-3.8,0.5c0,0,0,0,0,0c-1.8,0.4-3.5,1.2-5,2.2c-5.3,3.6-12.1,11.3-14.9,26.9c-0.5-0.5-1-0.9-1.5-1.4
			c0,0-0.1-0.1-0.1-0.1c-8.3-6.7-16-19.2-16.6-20.2C91.2,169.2,89,159.8,89,150z M148.8,246.4c-2.6,0-4.6-2.1-4.6-4.7
			c0-2.5,2.1-4.6,4.7-4.6c0,0,0,0,0,0c2.5,0,4.6,2.1,4.6,4.7C153.4,244.3,151.3,246.4,148.8,246.4z M149.3,232.7
			c-11.3,0-21.9-4.5-29.9-12.5c-5.5-5.5-9.3-12.3-11.1-19.7c0.3,0.3,0.7,0.6,1,0.9c7.3,7.1,19.7,17.4,37.5,26.7
			c0.8,0.4,1.7,0.6,2.5,0.6c1.2,0,2.2-0.4,3-0.8c5.7-2.8,23.4-12.1,37.7-25.3C184.8,220.1,168.5,232.8,149.3,232.7z"/>
		<path fill="#3B5062" d="M114.2,98.7c0.4,0,0.8-0.1,1.2-0.4c5.1-3.6,10.2-3.9,10.3-3.9c1.1,0,1.9-0.9,2-2c0.7-17-7.7-28.8-8.1-29.3
			c-0.7-0.9-1.9-1.1-2.9-0.5c-0.9,0.7-1.1,1.9-0.5,2.9c0.1,0.1,7.3,10.3,7.4,25c-2.3,0.4-6.4,1.5-10.5,4.4c-0.9,0.6-1.2,1.9-0.5,2.9
			C112.9,98.4,113.5,98.7,114.2,98.7z"/>
	</g>
</g>
</svg>
