<?xml version="1.0" encoding="utf-8"?>
<!-- Generator: Adobe Illustrator 18.0.0, SVG Export Plug-In . SVG Version: 6.00 Build 0)  -->
<!DOCTYPE svg PUBLIC "-//W3C//DTD SVG 1.1//EN" "http://www.w3.org/Graphics/SVG/1.1/DTD/svg11.dtd">
<svg version="1.1" id="Layer_1" xmlns="http://www.w3.org/2000/svg" xmlns:xlink="http://www.w3.org/1999/xlink" x="0px" y="0px"
	 viewBox="0 0 432 576" enable-background="new 0 0 432 576" xml:space="preserve">
<g>
	<circle fill="#39383F" cx="216.3" cy="287.7" r="211.4"/>
</g>
<g>
	<path fill="#F7E8DB" stroke="#F6E7DA" stroke-width="2" stroke-miterlimit="10" d="M301.1,304.4l3.3,2c1,0.6,2.3-0.4,2-1.6
		c-2.7-9.1-10.4-34.7-15.1-50.7c-0.7-2.3-2.9-3.6-5.3-3.2c-1.4,0.3-3,0.6-4.5,0.7c-8.2,0.9-16.1-0.3-23-2c-0.9-0.3-1.7-0.6-2.7-0.9
		l0,0l0,0c-0.7-0.3-1.6-0.6-2.3-0.7c-5-1.9-14.4-6-17.3-7.5c-0.1,0-0.1-0.1-0.3-0.1c-0.4-0.1-0.7-0.3-0.7-0.3l0,0
		c-1.3-0.6-2.7-1.2-4.2-1.6l0,0c0,0-12.4-4.2-31.7-3.5l0,0c-0.6,0-1.2,0-1.4,0.1h-0.1l0,0l0,0c-0.1,0-0.1,0-0.3,0s-0.3,0-0.3,0l0,0
		c-0.1,0-0.1,0-0.1,0l0,0c-1.3,0.3-2.6,0.9-3.5,1.6c-8.9,7.5-17.6,15.1-26.5,22.8c-0.9,0.7-0.7,2,0,2.6c8.1,6,16.6,6.5,25.3-0.3
		c13-9.9,25.2-7.5,37.7,0c23,13.7,45.9,27.5,69,41.3l0,0l0.6,0.4C300.4,304,300.7,304.1,301.1,304.4
		C301,304.4,301.1,304.4,301.1,304.4z"/>
</g>
<g>
	<path fill="#DBBFB0" d="M243.5,350.3c0,0-19.7-13.8-22-15.4c-0.6-0.4-1.3-0.1-1.4,0.6l-3.5,13.8c-0.6,2.2,0.1,4.5,1.7,6l0,0
		c0,0,0.3,0.6,5.3,3.7l0,0c3.2,2.2,7.2,4.8,10.2,6.3c0.4,0.3,0.9,0.4,1.3,0.7c0,0,0,0,0.1,0l0,0c4,1.6,8.6,0.1,10.9-3.7
		C248.4,358.3,247.4,353.1,243.5,350.3z"/>
</g>
<g>
	<g>
		<path fill="#F7E8DB" stroke="#F6E7DA" stroke-miterlimit="10" d="M215.6,332c-1.3-2.2-3.2-3.7-5.6-4.6c-2-0.7-4.3-0.6-6.3,0.1
			c-2.3,0.9-4.2,2.9-5,5.3l-6.6,20.6c-1.2,5.2,2.2,10.4,7.5,11.5c0.7,0.1,1.4,0.3,2.2,0.3l0,0c3.7,0,7.2-2.2,8.8-5.6l5.9-21.2
			C216.9,336.1,216.6,333.8,215.6,332z"/>
	</g>
	<g>
		<path fill="#F7E8DB" stroke="#F6E7DA" stroke-miterlimit="10" d="M174.9,324.5c0.1-0.3,0.2-0.6,0.3-1l0.2-1.4
			c0.2-1.2,0-2.2-0.3-3.2c-0.1-0.7-0.4-1-0.4-1.2c-1.1-2.2-3.1-3.8-5.4-4.5c-0.9-0.3-1.6-0.3-2.4-0.3c-3.7,0-7.2,2.4-8.7,5.9
			c-0.7,1.9-1.6,4.2-2.7,7.3c-0.6,1.7-1.3,3.7-2.1,5.9l-0.6,1.9c-0.6,1.9-1.2,5.6,0.9,8.7c1,1.5,2.4,2.6,4.3,3.2
			c0.3,0.1,0.4,0.1,0.7,0.3c0.9,0.3,1.6,0.3,2.4,0.3c2.7,0,5.3-1.2,7.1-3.4l0.9-1.1c0.1-0.3,0.4-0.7,0.6-1s0.4-1,4.2-12.2
			L174.9,324.5z"/>
	</g>
	<g>
		<path fill="#F7E8DB" stroke="#F6E7DA" stroke-miterlimit="10" d="M196.4,327.8v-0.1l0.3-1.3c0.4-4-2-8.1-5.9-9.4
			c-0.9-0.3-1.9-0.4-2.7-0.4c-3.6,0-6.8,2.2-8.2,5.5c-1.2,3-4.9,13.1-7.6,21.2c-1.7,4.8,0.9,10.1,5.6,11.8c1,0.4,2.2,0.6,3.2,0.6
			c3,0,5.9-1.4,7.6-3.9l1-1.9c0-0.1,0.1-0.3,0.3-0.6v-0.1V349c1.3-3.7,5-16.1,6-19.7L196.4,327.8z"/>
	</g>
	<g>
		<path fill="#F7E8DB" stroke="#F6E7DA" stroke-miterlimit="10" d="M154.6,318.5c0.1-1,0-1.9-0.1-2.7c-0.1-0.6-0.3-0.9-0.3-1
			c-0.9-1.9-2.6-3.3-4.6-3.9c-0.6-0.1-1.3-0.3-2-0.3c-3,0-5.8,1.9-7.1,4.8c-0.4,1.2-0.6,1.6-0.9,2.2l-2.3,6.2
			c-0.7,1.9-0.6,4,0.3,5.9s2.4,3.2,4.5,3.9c0.7,0.3,1.6,0.4,2.3,0.4c3.2,0,6-2,7.1-5.2c0.9-2.7,3-9.1,3-9.4L154.6,318.5z"/>
	</g>
</g>
<g>
	<path fill="#DBBFB0" stroke="#DBBFB0" stroke-miterlimit="10" d="M298.5,307.4l-5.2-3c-14.7-8.8-53.9-32.4-53.9-32.4
		c-2.2-1.3-4.2-2.6-6.3-3.9c-13.5-8.5-26.1-12.1-40.8-1.3c-10.5,7.8-23.6,4.8-30.8-4.6c-0.6-0.9-0.6-2,0.3-2.6
		c2.7-2.4,8.8-7.9,11.1-10.1c0.6-0.4,0.6-1.3,0.1-1.9l-0.9-1c-0.3-0.4-0.9-0.6-1.4-0.4c-1.3,0.4-3.7,1.2-6.6,2c0,0-7.1,2-11.2,3.5
		c-0.9,0.3-1.7,0.6-2.6,0.9l0,0l0,0c-1.7,0.7-3,1.6-3.6,3.2l-20.2,53.1c-0.3,0.7-0.4,1.6-0.4,2.3l0,0c0,0-0.7,3,5.2,7.5l0,0l0.6,0.4
		l1.6,1.3c0.9,0.6,2,0.3,2.3-0.7c0.6-2.2,1.7-5.3,3.7-8.1c1.2-1.4,2.9-3.2,5.3-3.7h0.1c0.3,0,0.6-0.1,0.9-0.1c2.3-0.3,5.6,0,8.5,3.2
		c0.4,0.6,0.9,1.2,1.3,1.7c0.6,0.7,1.6,1,2.3,0.4c6.6-5.2,15.8-3.9,19.7,3.5c0.4,0.7,1.3,0.9,1.9,0.4c8.6-6.9,18.7-3,21,6.9
		c0.1,0.9,1.2,1.4,2,1.3c2.7-0.6,5.6-0.1,7.8,0.3c1.2,0.3,4,1.2,7.6,3.6l35.9,23.8l0,0l1,0.7c4,2.6,9.8,1.7,12.5-2.2
		c3-4.3,1.9-10.2-2.6-13l-32.3-19.6c-0.7-0.6-1-1.6-0.6-2.4c0.4-0.9,1.6-1.2,2.4-0.7c1.6,0.9,3.2,1.7,4.8,2.7
		c6.3,3.9,24.8,14.8,35.1,21c4,2.4,9.4,1.2,12-2.7l0,0c2.7-4.2,1.4-9.8-2.9-12.4L258,309l-15.3-9.5c-0.9-0.6-1.3-1.7-0.7-2.6
		c0.6-1,1.7-1.3,2.7-0.7l35.7,21.3l0.4,0.3c0,0,8.8,5.5,10.4,5.9l0,0c4,1.4,8.6-0.1,10.8-3.9C304.3,315.5,302.7,309.9,298.5,307.4z"
		/>
</g>
<g>
	<ellipse fill="#343338" cx="216.3" cy="410.2" rx="95.9" ry="13.1"/>
</g>
<g>
	<g>
		<path fill="#FFFFFF" d="M200.2,201.7c-0.9,0-1.7-0.4-2.2-1.3l-15.1-27.4c-0.7-1.3-0.3-2.7,1-3.5c1.3-0.7,2.7-0.3,3.5,1l15.1,27.4
			c0.7,1.3,0.3,2.7-1,3.5C201,201.6,200.6,201.7,200.2,201.7z"/>
	</g>
	<g>
		<path fill="#FFFFFF" d="M180,210.7c-0.7,0-1.3-0.3-1.9-0.9l-13.2-14.3c-1-1-0.9-2.6,0.1-3.6s2.6-0.9,3.6,0.1l13.2,14.3
			c1,1,0.9,2.6-0.1,3.6C181.3,210.5,180.6,210.7,180,210.7z"/>
	</g>
	<g>
		<path fill="#FFFFFF" d="M234.4,202.6c-0.4,0-0.9-0.1-1.3-0.4c-1.2-0.7-1.6-2.3-0.9-3.5l17.1-28.4c0.7-1.2,2.3-1.6,3.5-0.9
			c1.2,0.7,1.6,2.3,0.9,3.5l-17.1,28.4C236.2,202.2,235.3,202.6,234.4,202.6z"/>
	</g>
	<g>
		<path fill="#FFFFFF" d="M252.7,213.4c-0.7,0-1.4-0.3-1.9-0.9c-0.9-1-0.7-2.7,0.3-3.6l15.1-12.8c1-0.9,2.7-0.7,3.6,0.3
			s0.7,2.7-0.3,3.6l-15.1,12.8C253.9,213.3,253.3,213.4,252.7,213.4z"/>
	</g>
	<g>
		<path fill="#FFFFFF" d="M216,195.3c-1.4,0-2.6-1.2-2.6-2.6v-22.2c0-1.4,1.2-2.6,2.6-2.6c1.4,0,2.6,1.2,2.6,2.6v22.2
			C218.6,194.1,217.4,195.3,216,195.3z"/>
	</g>
</g>
<path fill="#E2A85D" d="M146.5,246.9l-26.7,70.3c-0.7,1.8-2.6,2.7-4.4,2l-54.3-20.6l29.1-76.7l54.3,20.6
	C146.3,243.1,147.2,245.1,146.5,246.9z"/>
<path fill="#E2A85D" d="M313.2,316.8l-20.8-72.2c-0.5-1.8,0.5-3.7,2.3-4.2l55.8-16.1l22.7,78.8l-55.8,16.1
	C315.6,319.6,313.8,318.6,313.2,316.8z"/>
<g>
	<defs>
		<circle id="SVGID_1_" cx="216.3" cy="287.7" r="211.4"/>
	</defs>
	<clipPath id="SVGID_2_">
		<use xlink:href="#SVGID_1_"  overflow="visible"/>
	</clipPath>
	<g clip-path="url(#SVGID_2_)">
		<path fill="#F7F7F7" d="M140.8,236.8l-31.7,83.6c-0.7,1.9-2.9,2.9-4.8,2.2L-17.3,276L17,185.4L138.7,232
			C140.6,232.7,141.5,234.9,140.8,236.8z"/>
		<path fill="#F7F7F7" d="M323.8,321.4l-24.7-86c-0.6-2,0.6-4,2.5-4.6l139-40.9l26.8,93.1l-139,40.9
			C326.4,324.5,324.4,323.4,323.8,321.4z"/>
	</g>
</g>
</svg>
