<?xml version="1.0" encoding="utf-8"?>
<!-- Generator: Adobe Illustrator 18.0.0, SVG Export Plug-In . SVG Version: 6.00 Build 0)  -->
<!DOCTYPE svg PUBLIC "-//W3C//DTD SVG 1.1//EN" "http://www.w3.org/Graphics/SVG/1.1/DTD/svg11.dtd">
<svg version="1.1" id="Layer_1" xmlns="http://www.w3.org/2000/svg" xmlns:xlink="http://www.w3.org/1999/xlink" x="0px" y="0px"
	 viewBox="0 0 300 300" enable-background="new 0 0 300 300" xml:space="preserve">
<g>
	<circle fill="#39383F" cx="150.2" cy="149.8" r="146.8"/>
</g>
<g>
	<path fill="#FFFFFF" d="M251.3,96.3l14.5,48.8c1,3.4-0.9,7.1-4.4,8.1l-35.6,10.6c-3.4,1-7.1-0.9-8.1-4.4l-14.5-48.8
		c-1-3.4,0.9-7.1,4.4-8.1L243.2,92C246.6,90.9,250.3,92.9,251.3,96.3z"/>
</g>
<g>
	<path fill="#F7E8DB" d="M209.1,151.2l2.3,1.4c0.7,0.4,1.6-0.3,1.4-1.1c-1.9-6.3-7.2-24.1-10.5-35.2c-0.5-1.6-2-2.5-3.7-2.2
		c-1,0.2-2.1,0.4-3.1,0.5c-5.7,0.6-11.2-0.2-16-1.4c-0.6-0.2-1.2-0.4-1.9-0.6v0c0,0,0,0,0,0c-0.5-0.2-1.1-0.4-1.6-0.5
		c-3.5-1.3-10-4.2-12-5.2c-0.1,0-0.1-0.1-0.2-0.1c-0.3-0.1-0.5-0.2-0.5-0.2c0,0,0,0,0,0c-0.9-0.4-1.9-0.8-2.9-1.1c0,0,0,0,0,0
		c0,0-8.6-2.9-22-2.4c0,0,0,0,0,0c-0.4,0-0.8,0-1,0.1c0,0-0.1,0-0.1,0c0,0,0,0,0,0c0,0,0,0,0,0c-0.1,0-0.1,0-0.2,0
		c-0.1,0-0.2,0-0.2,0c0,0,0,0,0,0c-0.1,0-0.1,0-0.1,0c0,0,0,0,0,0c-0.9,0.2-1.8,0.6-2.4,1.1c-6.2,5.2-12.2,10.5-18.4,15.8
		c-0.6,0.5-0.5,1.4,0,1.8c5.6,4.2,11.5,4.5,17.6-0.2c9-6.9,17.5-5.2,26.2,0c16,9.5,31.9,19.1,47.9,28.7l0,0l0.4,0.3
		C208.6,150.9,208.8,151,209.1,151.2C209,151.2,209.1,151.2,209.1,151.2z"/>
</g>
<g>
	<circle fill="#EDBC4E" cx="241.6" cy="105.7" r="6.4"/>
</g>
<g>
	<path fill="#FFFFFF" d="M53.3,95.4l-17.7,47.5c-1.3,3.4,0.5,7.2,3.9,8.5L74,164.3c3.4,1.3,7.2-0.5,8.5-3.9l17.7-47.5
		c1.3-3.4-0.5-7.2-3.9-8.5L61.8,91.5C58.4,90.2,54.6,92,53.3,95.4z"/>
</g>
<g>
	<circle fill="#EDBC4E" cx="63" cy="105.3" r="6.4"/>
</g>
<g>
	<path fill="#DBBFB0" d="M169.1,183.1c0,0-13.7-9.6-15.3-10.7c-0.4-0.3-0.9-0.1-1,0.4l-2.4,9.6c-0.4,1.5,0.1,3.1,1.2,4.2
		c0,0,0,0,0,0c0,0,0.2,0.4,3.7,2.6c0,0,0,0,0,0c2.2,1.5,5,3.3,7.1,4.4c0.3,0.2,0.6,0.3,0.9,0.5c0,0,0,0,0.1,0c0,0,0,0,0,0
		c2.8,1.1,6,0.1,7.6-2.6C172.5,188.6,171.8,185,169.1,183.1z"/>
</g>
<g>
	<g>
		<path fill="#F5E7DA" d="M150,170.6c-0.9-1.5-2.2-2.6-3.9-3.2c-1.4-0.5-3-0.4-4.4,0.1c-1.6,0.6-2.9,2-3.5,3.7l-4.6,14.3
			c-0.8,3.6,1.5,7.2,5.2,8c0.5,0.1,1,0.2,1.5,0.2c0,0,0,0,0,0c2.6,0,5-1.5,6.1-3.9l4.1-14.7C150.9,173.5,150.7,171.9,150,170.6z"/>
	</g>
	<g>
		<path fill="#F5E7DA" d="M121.5,165.2c0.1-0.2,0.1-0.4,0.2-0.7l0.1-1c0.1-0.8,0-1.5-0.2-2.2c-0.1-0.5-0.3-0.7-0.3-0.8
			c-0.8-1.5-2.2-2.6-3.8-3.1c-0.6-0.2-1.1-0.2-1.7-0.2c-2.6,0-5,1.7-6,4.2c-0.5,1.3-1.1,2.9-1.8,5.1c-0.4,1.2-0.9,2.6-1.4,4.1
			l-0.4,1.3c-0.4,1.3-0.8,3.9,0.7,6c0.7,1,1.7,1.8,3,2.2c0.2,0.1,0.3,0.1,0.5,0.2c0.6,0.2,1.1,0.2,1.7,0.2c1.9,0,3.7-0.9,4.9-2.4
			l0.6-0.8c0.1-0.2,0.3-0.5,0.4-0.7c0.1-0.2,0.3-0.7,2.8-8.5L121.5,165.2z"/>
	</g>
	<g>
		<path fill="#F5E7DA" d="M136.6,167.5c0,0,0-0.1,0-0.1l0.2-0.9c0.3-2.8-1.4-5.6-4.1-6.5c-0.6-0.2-1.3-0.3-1.9-0.3
			c-2.5,0-4.7,1.5-5.7,3.8c-0.8,2.1-3.4,9.1-5.3,14.7c-1.2,3.3,0.6,7,3.9,8.2c0.7,0.3,1.5,0.4,2.2,0.4c2.1,0,4.1-1,5.3-2.7l0.7-1.3
			c0-0.1,0.1-0.2,0.2-0.4c0,0,0-0.1,0-0.1l0-0.1c0.9-2.6,3.5-11.2,4.2-13.7L136.6,167.5z"/>
	</g>
	<g>
		<path fill="#F5E7DA" d="M107.1,161.2c0.1-0.7,0-1.3-0.1-1.9c-0.1-0.4-0.2-0.6-0.2-0.7c-0.6-1.3-1.8-2.3-3.2-2.7
			c-0.4-0.1-0.9-0.2-1.4-0.2c-2.1,0-4,1.3-4.9,3.3c-0.3,0.8-0.4,1.1-0.6,1.5l-1.6,4.3c-0.5,1.3-0.4,2.8,0.2,4.1
			c0.6,1.3,1.7,2.2,3.1,2.7c0.5,0.2,1.1,0.3,1.6,0.3c2.2,0,4.2-1.4,4.9-3.6c0.6-1.9,2.1-6.3,2.1-6.5L107.1,161.2z"/>
	</g>
</g>
<g>
	<path fill="#DBBFB0" d="M207.3,153.3l-3.6-2.1c-10.2-6.1-37.4-22.5-37.4-22.5c-1.5-0.9-2.9-1.8-4.4-2.7c-9.4-5.9-18.1-8.4-28.3-0.9
		c-7.3,5.4-16.4,3.3-21.4-3.2c-0.4-0.6-0.4-1.4,0.2-1.8c1.9-1.7,6.1-5.5,7.7-7c0.4-0.3,0.4-0.9,0.1-1.3l-0.6-0.7
		c-0.2-0.3-0.6-0.4-1-0.3c-0.9,0.3-2.6,0.8-4.6,1.4c0,0-4.9,1.4-7.8,2.4c-0.6,0.2-1.2,0.4-1.8,0.6c0,0,0,0,0,0h0
		c-1.2,0.5-2.1,1.1-2.5,2.2l-14,36.9c-0.2,0.5-0.3,1.1-0.3,1.6l0,0c0,0-0.5,2.1,3.6,5.2l0,0l0.4,0.3l1.1,0.9
		c0.6,0.4,1.4,0.2,1.6-0.5c0.4-1.5,1.2-3.7,2.6-5.6c0.8-1,2-2.2,3.7-2.6c0,0,0.1,0,0.1,0c0.2,0,0.4-0.1,0.6-0.1
		c1.6-0.2,3.9,0,5.9,2.2c0.3,0.4,0.6,0.8,0.9,1.2c0.4,0.5,1.1,0.7,1.6,0.3c4.6-3.6,11-2.7,13.7,2.4c0.3,0.5,0.9,0.6,1.3,0.3
		c6-4.8,13-2.1,14.6,4.8c0.1,0.6,0.8,1,1.4,0.9c1.9-0.4,3.9-0.1,5.4,0.2c0.8,0.2,2.8,0.8,5.3,2.5l24.9,16.5l0,0l0.7,0.5
		c2.8,1.8,6.8,1.2,8.7-1.5c2.1-3,1.3-7.1-1.8-9l-22.4-13.6c-0.5-0.4-0.7-1.1-0.4-1.7c0.3-0.6,1.1-0.8,1.7-0.5
		c1.1,0.6,2.2,1.2,3.3,1.9c4.4,2.7,17.2,10.3,24.4,14.6c2.8,1.7,6.5,0.8,8.3-1.9v0c1.9-2.9,1-6.8-2-8.6l-17.6-10.6l-10.6-6.6
		c-0.6-0.4-0.9-1.2-0.5-1.8c0.4-0.7,1.2-0.9,1.9-0.5l24.8,14.8l0.3,0.2c0,0,6.1,3.8,7.2,4.1c0,0,0,0,0,0c2.8,1,6-0.1,7.5-2.7
		C211.3,158.9,210.2,155,207.3,153.3z"/>
</g>
<g opacity="0.45">
	<path fill="#EAEAE8" d="M258.7,121.4l-48.4,13.1l7.3,24.7c1,3.5,4.8,5.5,8.3,4.5l35.2-10.5c3.5-1,5.5-4.8,4.5-8.3L258.7,121.4z"/>
</g>
<g opacity="0.45">
	<path fill="#EAEAE8" d="M44.5,118.9l-9.1,24.3c-1.2,3.2,0.4,6.9,3.7,8.1l35.2,13.1c3.2,1.2,6.9-0.4,8.1-3.7l8.8-23.5L44.5,118.9z"
		/>
</g>
<g>
	<ellipse fill="#343338" cx="150.2" cy="222.8" rx="66.6" ry="9.1"/>
</g>
<g>
	<g>
		<path fill="#FFFFFF" d="M139,90.1c-0.6,0-1.2-0.3-1.5-0.9l-10.5-19c-0.5-0.9-0.2-1.9,0.7-2.4c0.9-0.5,1.9-0.2,2.4,0.7l10.5,19
			c0.5,0.9,0.2,1.9-0.7,2.4C139.6,90,139.3,90.1,139,90.1z"/>
	</g>
	<g>
		<path fill="#FFFFFF" d="M125,96.3c-0.5,0-0.9-0.2-1.3-0.6l-9.2-9.9c-0.7-0.7-0.6-1.8,0.1-2.5c0.7-0.7,1.8-0.6,2.5,0.1l9.2,9.9
			c0.7,0.7,0.6,1.8-0.1,2.5C125.9,96.2,125.4,96.3,125,96.3z"/>
	</g>
	<g>
		<path fill="#FFFFFF" d="M162.8,90.7c-0.3,0-0.6-0.1-0.9-0.3c-0.8-0.5-1.1-1.6-0.6-2.4l11.9-19.7c0.5-0.8,1.6-1.1,2.4-0.6
			c0.8,0.5,1.1,1.6,0.6,2.4l-11.9,19.7C164,90.4,163.4,90.7,162.8,90.7z"/>
	</g>
	<g>
		<path fill="#FFFFFF" d="M175.5,98.2c-0.5,0-1-0.2-1.3-0.6c-0.6-0.7-0.5-1.9,0.2-2.5l10.5-8.9c0.7-0.6,1.9-0.5,2.5,0.2
			c0.6,0.7,0.5,1.9-0.2,2.5l-10.5,8.9C176.3,98.1,175.9,98.2,175.5,98.2z"/>
	</g>
	<g>
		<path fill="#FFFFFF" d="M150,85.6c-1,0-1.8-0.8-1.8-1.8V68.4c0-1,0.8-1.8,1.8-1.8s1.8,0.8,1.8,1.8v15.4
			C151.8,84.8,151,85.6,150,85.6z"/>
	</g>
</g>
</svg>
