<?xml version="1.0" encoding="utf-8"?>
<!-- Generator: Adobe Illustrator 18.0.0, SVG Export Plug-In . SVG Version: 6.00 Build 0)  -->
<!DOCTYPE svg PUBLIC "-//W3C//DTD SVG 1.1//EN" "http://www.w3.org/Graphics/SVG/1.1/DTD/svg11.dtd">
<svg version="1.1" id="Layer_1" xmlns="http://www.w3.org/2000/svg" xmlns:xlink="http://www.w3.org/1999/xlink" x="0px" y="0px"
	 viewBox="0 0 506.7 507.9" enable-background="new 0 0 506.7 507.9" xml:space="preserve">
<circle fill="#38373E" cx="253.3" cy="252.4" r="248.5"/>
<g>
	<path fill="#2F2F32" d="M182.1,390.6L182,107.1l-16.3-27.3l-7.4-12.4v0l0-0.1l-7.4,12.5l-16.3,27.4l0,6.6l0,0l0.1,292.1v0.1h0
		l0,10.5c0,9.9,8,18,18,17.9l5.8,0l6,0c9.8,0,17.7-7.9,17.7-17.7l0-2.9l0-7.8h0L182.1,390.6L182.1,390.6z"/>
	<g>
		<g>
			<path fill="#D18080" d="M156.4,432.7l-15,0c-9,0-16.3-7.3-16.3-16.3l0-13l47.5,0l0,13C172.7,425.4,165.4,432.7,156.4,432.7z"/>
			<path opacity="0.15" fill="#FFFFFF" d="M148.9,403.4l0,29.3l6,0c9.8,0,17.7-7.9,17.7-17.7l0-11.6L148.9,403.4z"/>
			<polygon fill="#E0D4C0" points="156.3,78.1 172.6,105.4 172.6,120.6 125.1,120.6 125.1,105.4 141.4,78.1 			"/>
			<polygon fill="#1C1C1D" points="148.8,65.6 141.4,78.1 156.3,78.1 			"/>
			<polygon opacity="0.13" fill="#FFFFFF" points="148.8,121.5 172.6,121.5 172.6,105.4 156.3,78.1 148.8,78.1 			"/>
			<polygon opacity="7.000000e-02" fill="#FFFFFF" points="148.9,65.6 148.9,78.1 156.3,78.1 			"/>
			<polygon opacity="0.15" fill="#FFFFFF" points="148.9,404.2 172.7,404.2 172.6,107.1 161.5,118.1 148.8,105.9 			"/>
			<rect x="125.1" y="105.4" fill="#E2AA60" width="47.5" height="298.7"/>
			<rect x="139" y="105.4" fill="#F2BF63" width="19.7" height="298.7"/>
			<rect x="148.8" y="105.4" opacity="0.13" fill="#FFFFFF" width="23.8" height="298.7"/>
		</g>
		<rect x="125.1" y="389" fill="#D3D3D3" width="47.5" height="15.2"/>
		<rect x="148.9" y="389" opacity="0.17" fill="#FFFFFF" width="23.7" height="15.2"/>
	</g>
</g>
<g>
	<path fill="#2F2F32" d="M284.5,190.7L284.5,190.7L284.5,190.7l0-24.9v-0.4c0-1.3-1-2.3-2.3-2.3h-0.4h-6.2l-6.2-17v-0.4h-0.1
		c0,0,0.6-8.5,6.7-11.9c0.7-0.4,1.1-1.3,0.8-2.1l-18.5-51.7h-1.5V115c1.1,0.8,1.9,2.1,1.9,3.5c0,2.3-1.9,4.2-4.2,4.2
		c-2.3,0-4.2-1.9-4.2-4.2c0-1.4,0.7-2.6,1.7-3.4V79.9h-1.5l-18.5,51.7c-0.3,0.8,0,1.7,0.8,2.1c2.3,1.3,6.9,4.7,6.9,12v0h-0.1
		l-6.4,17.4h-6.6c-1.3,0-2.3,1-2.3,2.3v25.3h0c0,0,9.6,182.8,18.5,233.3c0.3,6.2,5.4,11.1,11.6,11.1h0c2.9,0,5.6-1.1,7.6-2.9
		c0.7-0.6,1.3-1.3,1.8-2c0.1,0,0.1-0.1,0.2-0.2c0.1-0.1,0.2-0.3,0.3-0.5c0.5-0.8,0.9-1.7,1.2-2.6c0.3-0.9,0.5-1.9,0.5-2.9
		c0,0,0.1-0.4,0.2-1.3c0.1-0.5,0.1-1.1,0.2-1.9c3.4-19.7,7.1-63.2,7.1-63.2c2.3-22.5,4.7-48.9,6.7-76c0.1-1.8,0.3-3.6,0.4-5.4
		c0.1-1.9,0.3-3.9,0.4-5.8c0.5-7.2,1-14.4,1.4-21.5c0.5-9.1,1-18.1,1.3-27c0.3-6.7,0.5-13.4,0.6-19.8l0,0l0-0.3
		C284.4,197.9,284.5,194.3,284.5,190.7L284.5,190.7z"/>
	<g>
		<path fill="#D3D3D3" d="M268,127.2l-18.5-51.7H248v35.1c1.1,0.8,1.9,2.1,1.9,3.5c0,2.3-1.9,4.2-4.2,4.2c-2.3,0-4.2-1.9-4.2-4.2
			c0-1.4,0.7-2.6,1.7-3.4V75.5h-1.5l-18.5,51.7c-0.3,0.8,0,1.7,0.8,2.1c2.3,1.3,6.9,4.7,6.9,12c0,0-1.2,4.2,0,4.2
			c1.2,0,29.8,0,29.8,0v-4.2h-0.1c0,0,0.6-8.5,6.7-11.9C268,128.9,268.3,128,268,127.2z"/>
		<path opacity="0.25" fill="#FFFFFF" d="M268,127.2l-18.5-51.7H248v35.1c1.1,0.8,1.9,2.1,1.9,3.5c0,2.3-1.9,4.2-4.2,4.2
			c0,0,0,0-0.1,0v27.1c7.5,0,15,0,15,0v-4.2h-0.1c0,0,0.6-8.5,6.7-11.9C268,128.9,268.3,128,268,127.2z"/>
		<polygon fill="#B7B7B7" points="268,161.8 223.2,161.8 230.7,141.3 260.5,141.3 		"/>
		<polygon opacity="0.25" fill="#FFFFFF" points="245.6,161.8 268,161.8 260.5,141.3 245.6,141.3 		"/>
		<path fill="#B0AFB0" d="M275.7,186.3h-60.3v-25.5c0-1.2,1-2.1,2.1-2.1h56c1.2,0,2.1,1,2.1,2.1V186.3z"/>
		<path fill="#43AE9B" d="M264.7,353.2c4.9-48,10.5-113.6,11-166.9H268h-44.8h-7.7c0,0,9.6,182.8,18.5,233.3
			c0.3,6.2,5.4,11.1,11.6,11.1h0c3.9,0,7.4-1.9,9.5-4.9l0,0c0.1-0.1,0.3-0.4,0.5-0.7c1-1.6,1.6-3.5,1.7-5.5c0,0,0.1-1.1,0.4-3.2
			C261,396.7,264.7,353.2,264.7,353.2L264.7,353.2z"/>
		<path opacity="7.000000e-02" fill="#FFFFFF" d="M273,158.7h-27.4v27.6h30.1v-24.9C275.7,159.9,274.5,158.7,273,158.7z"/>
		<polygon opacity="0.71" fill="#3B9987" points="215.4,186.3 275.5,197.6 275.7,186.3 		"/>
		<path opacity="7.000000e-02" fill="#FFFFFF" d="M268,186.3h-22.4v244.4h0c3.9,0,7.4-1.9,9.5-4.9c0.1-0.1,0.3-0.4,0.5-0.7
			c1-1.6,1.6-3.5,1.7-5.5c0,0,0.1-1.1,0.4-3.2c3.4-19.7,7.1-63.2,7.1-63.2c4.9-48,10.5-113.6,11-166.9H268z"/>
	</g>
	<path fill="#2F2F32" d="M275.1,70.1c-0.8,0-1.5,0.5-1.8,1.3h-24v-1.8h-4.8v1.8h-24c-0.2-0.7-0.9-1.3-1.8-1.3c-1,0-1.9,0.8-1.9,1.9
		c0,1,0.8,1.9,1.9,1.9c0.8,0,1.5-0.5,1.8-1.3h24v1.8h4.8v-1.8h24c0.2,0.7,0.9,1.3,1.8,1.3c1,0,1.9-0.8,1.9-1.9
		C276.9,70.9,276.1,70.1,275.1,70.1z"/>
	<g>
		<rect x="243.3" y="67.1" fill="#D3D3D3" width="4.8" height="4.8"/>
	</g>
	<g>
		<rect x="217.5" y="68.9" fill="#D3D3D3" width="56.4" height="1.2"/>
	</g>
	<g>
		<circle fill="#D3D3D3" cx="217.5" cy="69.5" r="1.9"/>
	</g>
	<g>
		<circle fill="#D3D3D3" cx="273.9" cy="69.5" r="1.9"/>
	</g>
</g>
<g>
	<path fill="#2F2F32" d="M372.1,107.4V91.1v-0.2c0-1.5-1.2-2.7-2.7-2.7h-0.2h-2.8v-6.8c0-0.8-0.3-1.6-0.9-2.1
		c-0.2-0.2-0.4-0.3-0.6-0.5l-6.2-3.5v0l-5.7-3.2c-0.9-0.5-2,0.1-2,1.1v14.9h-2.5c-1.5,0-2.7,1.2-2.7,2.7v16.4h0l-10.6,28V173v239.2
		h2.1v3.8l-7.4-4.2c-1-0.6-1.7-1.7-1.7-2.9v-97.4c0-2.3-1.7-4.3-4-4.4c-0.4,0-0.8,0-1.1,0.1c0,0,0,0,0,0c0,0,0,0,0,0
		c-0.9,0.2-1.6,0.7-2.2,1.3c-0.1,0.1-0.1,0.1-0.2,0.2c-0.1,0.1-0.2,0.2-0.2,0.3c-0.1,0.1-0.1,0.2-0.2,0.3c-0.1,0.1-0.1,0.2-0.1,0.3
		c-0.1,0.2-0.1,0.3-0.2,0.5c0,0.1-0.1,0.2-0.1,0.3c-0.1,0.3-0.1,0.5-0.1,0.8l0,0v100c0,2.6,1.2,5,3.3,6.5c0.4,0.3,0.7,0.5,1.1,0.7
		l13,6.6v2.3c0,3.3,2.7,5.9,5.9,5.9h30.9c3.3,0,5.9-2.7,5.9-5.9v-0.4v-14.7h2.5V173v-37.6L372.1,107.4z"/>
	<path fill="#2C2C2D" d="M320.6,405.6v-97.4c0-2.3-1.7-4.3-4-4.4c-2.4-0.1-4.4,1.8-4.4,4.2v100c0,3,1.7,5.8,4.4,7.2l13.3,6.8v-9
		l-7.7-4.4C321.2,407.9,320.6,406.8,320.6,405.6z"/>
	<path fill="#212023" d="M319.8,412c-2.7-1.4-4.4-4.2-4.4-7.2v-100c0-0.3,0-0.6,0.1-0.9c-1.9,0.4-3.3,2.1-3.3,4.1v100
		c0,3,1.7,5.8,4.4,7.2l13.3,6.8v-4.8L319.8,412z"/>
	<path fill="#212023" d="M367,430h-32.1c-2.9,0-5.3-2.4-5.3-5.3v-17.1h42.8v17.1C372.4,427.6,370,430,367,430z"/>
	<path opacity="7.000000e-02" fill="#FFFFFF" d="M351,407.5V430h16.1c2.9,0,5.3-2.4,5.3-5.3v-17.2H351z"/>
	<rect x="327.6" y="132.1" fill="#D18080" width="47.3" height="276.8"/>
	<rect x="351" y="132.1" opacity="0.15" fill="#FFFFFF" width="23.8" height="276.8"/>
	<rect x="327.6" y="132.1" fill="#CE676C" width="47.3" height="26.8"/>
	<rect x="351.1" y="132.1" opacity="0.15" fill="#FFFFFF" width="23.8" height="26.7"/>
	<path fill="#E2E2E2" d="M364.4,105.1h-26.2V87.4c0-1.3,1.1-2.4,2.4-2.4H362c1.3,0,2.4,1.1,2.4,2.4V105.1z"/>
	<path fill="#181719" d="M358.7,85h-15.4V70.1c0-1,1.1-1.6,2-1.2l11.9,6.6c0.9,0.5,1.5,1.5,1.5,2.6V85z"/>
	<path opacity="0.31" fill="#FFFFFF" d="M361.5,85h-10.7v19.1h13.6V87.9C364.4,86.3,363.1,85,361.5,85z"/>
	<path opacity="7.000000e-02" fill="#FFFFFF" d="M357.2,75.6l-6.2-3.5V85h7.7v-6.8C358.7,77.1,358.1,76.1,357.2,75.6z"/>
	<polygon fill="#D3D3D3" points="364.4,104.1 338.2,104.1 327.6,132.1 374.8,132.1 	"/>
	<polygon opacity="0.15" fill="#FFFFFF" points="351,132.1 374.8,132.1 364.4,104.1 351,104.1 	"/>
</g>
</svg>
