<?xml version="1.0" encoding="utf-8"?>
<!-- Generator: Adobe Illustrator 18.0.0, SVG Export Plug-In . SVG Version: 6.00 Build 0)  -->
<!DOCTYPE svg PUBLIC "-//W3C//DTD SVG 1.1//EN" "http://www.w3.org/Graphics/SVG/1.1/DTD/svg11.dtd">
<svg version="1.1" id="Layer_1" xmlns="http://www.w3.org/2000/svg" xmlns:xlink="http://www.w3.org/1999/xlink" x="0px" y="0px"
	 viewBox="0 734.5 4272 1859.6" enable-background="new 0 734.5 4272 1859.6" xml:space="preserve">
<path fill="#2F2F33" d="M4263.2,826.7v1699.1c0,27.2-21.5,48.7-48.7,48.7H3056.9c-27.2,0-48.7-21.5-48.7-48.7V826.7
	c0-27.2,21.5-48.7,48.7-48.7h1157.5C4241.7,779.4,4263.2,800.9,4263.2,826.7L4263.2,826.7z"/>
<path fill="#969696" d="M4228.8,803.8v1681.9c0,27.2-21.5,47.3-47.3,47.3H3054.1c-27.2,0-47.3-21.5-47.3-47.3V803.8
	c0-27.2,21.5-47.3,47.3-47.3h1127.5C4207.3,753.7,4228.8,775.1,4228.8,803.8z"/>
<path fill="#D3D3D3" d="M4204.4,803.8v1681.9c0,27.2-21.5,47.3-47.3,47.3H3029.7c-27.2,0-47.3-21.5-47.3-47.3V803.8
	c0-27.2,21.5-47.3,47.3-47.3h1127.5C4181.5,755.1,4204.4,778,4204.4,803.8z"/>
<g id="vvIP4h.tif_2_">
	<path fill="#FFFFFF" d="M3577,1545.9h12.9c5.7,1.4,12.9,1.4,18.6,2.9c20.1,5.7,35.8,17.2,41.5,38.7c2.9,14.3,0,27.2-2.9,40.1
		c-2.9,11.5-2.9,21.5,0,31.5c1.4,5.7,4.3,12.9,4.3,20.1c2.9,18.6-5.7,41.5-22.9,51.6c-11.5-14.3-25.8-25.8-47.3-24.4
		c-18.6,1.4-35.8,14.3-41.5,31.5h-1.4c-14.3-5.7-28.7-12.9-40.1-22.9c-18.6-14.3-21.5-25.8-14.3-47.3c1.4-2.9,2.9-7.2,2.9-10
		c0-7.2,1.4-14.3,0-21.5c-1.4-8.6-4.3-15.8-7.2-24.4v-8.6c2.9-10,8.6-18.6,17.2-24.4c14.3-11.5,30.1-21.5,47.3-27.2
		C3555.5,1551.6,3565.5,1548.7,3577,1545.9L3577,1545.9z"/>
	<path fill="#FFFFFF" d="M3711.6,1686.3c-8.6,2.9-18.6,0-27.2-2.9c-17.2-7.2-28.7-24.4-28.7-41.5c17.2-1.4,40.1,8.6,48.7,28.7
		c1.4,4.3,2.9,10,5.7,14.3C3711.6,1684.8,3711.6,1686.3,3711.6,1686.3L3711.6,1686.3z"/>
</g>
<path fill="#2F2F33" d="M2876.4,2573h-329.5c-21.5,0-38.7-17.2-38.7-38.7v-782.2c0-21.5,17.2-38.7,38.7-38.7h329.5
	c21.5,0,38.7,17.2,38.7,38.7v783.6C2913.7,2557.3,2896.5,2573,2876.4,2573z"/>
<path fill="#FFFFFF" d="M2852.1,2550.1h-329.5c-21.5,0-38.7-17.2-38.7-38.7v-783.6c0-21.5,17.2-38.7,38.7-38.7h329.5
	c21.5,0,38.7,17.2,38.7,38.7v783.6C2890.7,2530.1,2875,2550.1,2852.1,2550.1z"/>
<rect x="2511.1" y="1809.5" fill="#E58889" width="349.6" height="616"/>
<path fill="#D8D8D8" d="M2714.5,1770.8h-60.2c-2.9,0-4.3-1.4-4.3-4.3v-4.3c0-2.9,1.4-4.3,4.3-4.3h60.2c2.9,0,4.3,1.4,4.3,4.3v4.3
	C2720.3,1767.9,2717.4,1770.8,2714.5,1770.8z"/>
<circle fill="#D8D8D8" cx="2684.5" cy="1732.1" r="0"/>
<circle fill="#D8D8D8" cx="2685.9" cy="2485.7" r="34.4"/>
<circle fill="#EAEAEA" cx="2685.9" cy="2485.7" r="28.7"/>
<g opacity="0.1" enable-background="new    ">
	<polygon fill="#FFFFFF" points="2509.7,2169.1 2509.7,2247.9 2860.7,1949.9 2860.7,1875.4 	"/>
</g>
<g opacity="0.1" enable-background="new    ">
	<polygon fill="#FFFFFF" points="2509.7,2263.6 2509.7,2312.3 2860.7,2014.3 2860.7,1968.5 	"/>
</g>
<path fill="#2F2F33" d="M2334.9,1008.7V875.4c0-47.3,38.7-87.4,87.4-87.4h375.3c47.3,0,87.4,38.7,87.4,87.4v133.2
	c0,47.3-38.7,87.4-87.4,87.4h-375.3C2373.6,1094.6,2334.9,1055.9,2334.9,1008.7z"/>
<path fill="#FCFCFC" d="M2322,984.3V851.1c0-47.3,38.7-87.4,87.4-87.4h375.3c47.3,0,87.4,38.7,87.4,87.4v133.2
	c0,47.3-38.7,87.4-87.4,87.4h-375.3C2360.7,1073.1,2322,1033,2322,984.3z"/>
<path fill="#2F2F33" d="M2386.5,2530.1l8.6,40.1l8.6-40.1l18.6-84.5v-673.3v-2.9c-1.4-14.3-12.9-25.8-28.7-25.8
	c-15.8,0-28.7,12.9-28.7,28.7v673.3L2386.5,2530.1L2386.5,2530.1z"/>
<rect x="2349.2" y="1835.3" fill="#F3BF62" width="55.9" height="606"/>
<rect x="2349.2" y="1835.3" fill="#E8B15F" width="27.2" height="606"/>
<polygon fill="#2D2D2D" points="2386.5,2525.8 2377.9,2564.5 2367.8,2525.8 "/>
<rect x="2349.2" y="1785.1" fill="#E0E0E0" width="55.9" height="47.3"/>
<rect x="2349.2" y="1785.1" fill="#C9C9C9" width="27.2" height="47.3"/>
<path fill="#DD8580" d="M2349.2,1785.1h55.9v-28.7c0-10-8.6-18.6-18.6-18.6h-18.6c-10,0-18.6,8.6-18.6,18.6L2349.2,1785.1
	L2349.2,1785.1z"/>
<path fill="#CC7A79" d="M2376.4,1739.3v47.3h-27.2v-20.1C2349.2,1752.2,2360.7,1739.3,2376.4,1739.3L2376.4,1739.3z"/>
<polygon fill="#262626" points="2377.9,2525.8 2377.9,2564.5 2377.9,2564.5 2367.8,2525.8 "/>
<polygon fill="#E0D3BE" points="2367.8,2525.8 2349.2,2441.3 2405.1,2441.3 2386.5,2525.8 "/>
<polygon fill="#C9BEAD" points="2367.8,2525.8 2349.2,2441.3 2377.9,2441.3 2377.9,2525.8 "/>
<path fill="#2F2F33" d="M2217.4,1795.2v232.1c0,12.9,10,24.4,22.9,25.8v479.9h4.3v27.2c0,8.6,7.2,15.8,15.8,15.8h24.4
	c8.6,0,15.8-7.2,15.8-15.8v-27.2h5.7v-736.4h-5.7v-38.7c0-5.7-4.3-10-10-10h-34.4c-5.7,0-10,4.3-10,10v10h-2.9
	C2228.9,1767.9,2217.4,1780.8,2217.4,1795.2L2217.4,1795.2z M2226,1795.2c0-8.6,7.2-17.2,17.2-17.2h1.4v20.1h-4.3v246.4
	c-7.2-1.4-12.9-8.6-12.9-15.8L2226,1795.2z"/>
<path fill="#262626" d="M2201.7,2018.6v-233.5c0-14.3,11.5-27.2,27.2-27.2h11.5v286.5h-11.5
	C2211.7,2043,2201.7,2030.1,2201.7,2018.6L2201.7,2018.6z M2228.9,1767.9c-10,0-18.6,7.2-18.6,17.2v233.5c0,8.6,7.2,17.2,17.2,17.2
	h1.4V1767.9z"/>
<rect x="2224.6" y="1786.6" fill="#E0D3BE" width="65.9" height="736.4"/>
<rect x="2224.6" y="1786.6" fill="#C9BEAD" width="34.4" height="736.4"/>
<rect x="2224.6" y="2058.7" fill="#262626" width="65.9" height="10"/>
<line fill="none" x1="2224.6" y1="2070.2" x2="2289.1" y2="2070.2"/>
<rect x="2257.5" y="2058.7" fill="#2D2D2D" width="31.5" height="10"/>
<line fill="none" x1="2257.5" y1="2070.2" x2="2289.1" y2="2070.2"/>
<path fill="#2D2D2D" d="M2236,1739.3h40.1c2.9,0,5.7,2.9,5.7,5.7v41.5h-53V1745C2230.3,1742.1,2233.2,1739.3,2236,1739.3z"/>
<path fill="#262626" d="M2236,1739.3h21.5v48.7h-28.7v-43C2230.3,1742.1,2233.2,1739.3,2236,1739.3z"/>
<path fill="#2D2D2D" d="M2240.3,2564.5h34.4c5.7,0,10-4.3,10-10v-31.5h-54.4v31.5C2228.9,2560.2,2233.2,2564.5,2240.3,2564.5
	L2240.3,2564.5z"/>
<path fill="#262626" d="M2240.3,2564.5h18.6v-41.5h-28.7v31.5C2228.9,2560.2,2233.2,2564.5,2240.3,2564.5L2240.3,2564.5z"/>
<path fill="#2F2F33" d="M2809.1,1245c-86-83.1-223.5-81.7-306.6,4.3c-34.4,35.8-54.4,80.2-60.2,126.1h-91.7
	c-8.6,0-15.8,7.2-15.8,15.8v34.4c0,8.6,7.2,15.8,15.8,15.8l93.1-1.4c7.2,43,28.7,86,63,118.9c86,83.1,223.5,81.7,306.6-4.3
	C2896.5,1467.1,2895,1328.1,2809.1,1245z"/>
<path fill="#2F2F33" d="M2180.2,786.6H1620v856.7l17.2,27.2h40.1v43c0,1.4,1.4,2.9,4.3,1.4l30.1-21.5l30.1,21.5
	c1.4,1.4,4.3,0,4.3-1.4v-43h435.5h1.4h1.4h5.7c10-1.4,18.6-7.2,25.8-14.3c7.2-7.2,11.5-17.2,11.5-28.7V832.4
	C2228.9,808.1,2206,786.6,2180.2,786.6L2180.2,786.6z"/>
<path fill="#EFEFEF" d="M2158.7,786.6h-545.8v829.5h-17.2l17.2,27.2h545.8c25.8,0,47.3-21.5,47.3-47.3V835.3
	C2206,808.1,2184.5,786.6,2158.7,786.6z"/>
<path fill="#DEDDDD" d="M2206,1570.2v30.1c-4.3,41.5-44.4,44.4-44.4,44.4l-564.4-24.4l-1.4-2.9L2206,1570.2L2206,1570.2z"/>
<path fill="#E58889" d="M1716,1689.1l-30.1-21.5l-30.1,21.5c-1.4,1.4-4.3,0-4.3-1.4v-90.3h67.3v90.3
	C1720.3,1689.1,1717.4,1689.1,1716,1689.1z"/>
<polygon fill="#D17D7D" points="1653,1617.5 1720.3,1634.7 1720.3,1617.5 "/>
<path fill="#3DAF9C" d="M2175.9,1617.5h-580.2V762.2h580.2c15.8,0,30.1,12.9,30.1,30.1v796.5
	C2206,1603.2,2193.1,1617.5,2175.9,1617.5z"/>
<rect x="1750.4" y="1030.1" fill="#369B88" width="245" height="40.1"/>
<rect x="1794.8" y="1083.2" fill="#369B88" width="154.7" height="25.8"/>
<rect x="2075.6" y="762.2" fill="#2F2F33" width="35.8" height="856.7"/>
<rect x="2075.6" y="762.2" fill="#3C3C3F" width="17.2" height="856.7"/>
<rect x="1595.7" y="762.2" fill="#369B88" width="57.3" height="856.7"/>
<polygon fill="#242426" points="2111.4,1617.5 2092.8,1617.5 2075.6,1617.5 2081.3,1643.3 2097.1,1643.3 2114.3,1643.3 "/>
<circle fill="#F9F9FA" cx="2648.6" cy="1381.1" r="214.9"/>
<path fill="#F9F9FA" d="M2435.2,1355.3h-90.3c-8.6,0-15.8,7.2-15.8,15.8v32.9c0,8.6,7.2,15.8,15.8,14.3l91.7-1.4L2435.2,1355.3
	L2435.2,1355.3z"/>
<circle fill="#AF8974" cx="2648.6" cy="1381.1" r="154.7"/>
<path fill="#916B57" d="M2648.6,1541.6c-87.4,0-157.6-70.2-157.6-157.6s71.6-157.6,157.6-157.6c86,0,157.6,70.2,157.6,157.6
	S2736,1541.6,2648.6,1541.6z M2648.6,1230.7c-83.1,0-150.4,67.3-150.4,150.4s67.3,150.4,150.4,150.4s150.4-67.3,150.4-150.4
	S2731.7,1230.7,2648.6,1230.7z"/>
<path fill="#D3D3D3" d="M2435.2,1355.3l-24.4,63h25.8C2436.6,1419.8,2433.7,1395.5,2435.2,1355.3z"/>
<g opacity="0.63" enable-background="new    ">
	<circle fill="#916B57" cx="2657.2" cy="1326.7" r="5.7"/>
</g>
<g opacity="0.63" enable-background="new    ">
	<circle fill="#916B57" cx="2680.2" cy="1369.7" r="11.5"/>
</g>
<g opacity="0.63" enable-background="new    ">
	<circle fill="#916B57" cx="2687.3" cy="1338.2" r="5.7"/>
</g>
<g opacity="0.63" enable-background="new    ">
	<path fill="#916B57" d="M2747.5,1262.2c-63-51.6-156.2-45.8-212,14.3c-57.3,63-54.4,159,7.2,216.3c5.7,5.7,12.9,11.5,20.1,15.8
		l7.2-14.3c1.4-2.9,0-7.2-2.9-7.2l-10-1.4c-7.2,0-10-4.3-11.5-7.2v-1.4c-1.4-5.7-1.4-11.5,2.9-15.8c7.2-7.2,8.6-18.6,1.4-27.2
		l-8.6-11.5c-8.6-11.5,1.4-22.9,1.4-24.4l2.9-4.3c0,0,7.2-7.2,14.3-8.6l8.6-1.4c5.7-1.4,8.6-7.2,7.2-12.9l-2.9-14.3
		c-1.4-5.7-1.4-12.9-1.4-18.6c0-18.6,11.5-22.9,17.2-24.4h1.4l22.9-2.9c17.2-1.4,32.9-14.3,40.1-31.5c0-1.4,7.2-15.8,25.8-11.5h1.4
		c0,0,5.7,2.9,12.9,12.9l2.9,5.7c2.9,5.7,10,8.6,15.8,4.3l10-5.7c1.4,0,4.3-1.4,7.2-1.4h1.4c4.3,0,10,0,14.3-2.9h1.4
		c2.9-1.4,8.6-2.9,15.8,0c1.4,0,2.9,1.4,5.7,2.9C2763.2,1276.6,2756.1,1269.4,2747.5,1262.2L2747.5,1262.2z"/>
</g>
<path fill="#2F2F33" d="M421,768c-11.5,0-22.9,1.4-34.4,4.3h-2.9c-11.5-4.3-22.9-5.7-35.8-5.7v1.4c-8.6,0-18.6-1.4-28.7-1.4v4.3
	c17.2,0,34.4,1.4,50.1,4.3h-2.9h-11.5c-139,0-250.7,111.7-250.7,250.7v160.5h-10c-15.8,0-27.2,12.9-27.2,27.2v113.2
	c0,15.8,12.9,27.2,27.2,27.2H676c15.8,0,27.2-12.9,27.2-27.2v-111.7c0-15.8-12.9-27.2-27.2-27.2h-10v-160.5
	c0-139-111.7-250.7-250.7-250.7h-15.8h-2.9"/>
<path fill="#B1876B" d="M363.6,755.1h-2.9c-154.7,0-279.4,126.1-279.4,280.8v133.2H643v-133.2C643,879.7,518.4,755.1,363.6,755.1z"
	/>
<g opacity="5.000000e-02" enable-background="new    ">
	<path fill="#FFFFFF" d="M362.2,755.1v411.2H643v-130.4C643,879.7,518.4,755.1,362.2,755.1L362.2,755.1z"/>
</g>
<g opacity="0.3" enable-background="new    ">
	<g>
		<defs>
			<path id="SVGID_1_" d="M363.6,755.1h-2.9c-154.7,0-279.4,124.6-279.4,279.4v131.8H643v-131.8C643,879.7,518.4,755.1,363.6,755.1z
				"/>
		</defs>
		<clipPath id="SVGID_2_">
			<use xlink:href="#SVGID_1_"  overflow="visible"/>
		</clipPath>
		<g clip-path="url(#SVGID_2_)">
			<path fill="#916B57" d="M372.2,753.7c15.8-2.9,32.9-4.3,50.1-4.3v-4.3H398c-11.5,0-22.9,1.4-34.4,5.7h-2.9
				c-11.5-4.3-22.9-5.7-35.8-5.7v1.4c-8.6,0-18.6-1.4-28.7-1.4v4.3c17.2,0,34.4,1.4,50.1,4.3C223.3,786.6,131.6,898.3,131.6,1033
				v134.7h4.3V1033c0-127.5,86-236.4,202-270.8c-64.5,40.1-110.3,146.1-110.3,270.8v134.7h4.3V1033c0-133.2,53-245,124.6-275.1
				v409.7h4.3V758C432.4,788,485.4,899.8,485.4,1033v134.7h4.3V1033c0-123.2-44.4-227.8-107.4-269.3
				c113.2,37.2,194.8,143.3,194.8,269.3v134.7h4.3V1033C587.1,898.3,495.4,786.6,372.2,753.7z"/>
		</g>
	</g>
</g>
<polygon fill="#916B57" points="81.4,1166.2 643,1166.2 81.4,1144.8 "/>
<path fill="#2F2F33" d="M1253.3,1947h224.9c17.2,0,31.5-14.3,31.5-31.5V803.8c0-18.6-14.3-32.9-32.9-32.9H826.4
	c-18.6,0-32.9,14.3-32.9,32.9v1110.3c0,17.2,14.3,31.5,31.5,31.5h242.1L1253.3,1947L1253.3,1947z"/>
<path fill="#2F2F33" d="M1059.9,1952.7H899.4l-65.9,14.3v2.9h-10c-1.4,0-4.3,1.4-4.3,4.3s1.4,4.3,4.3,4.3h10v2.9l65.9,15.8h160.5
	c0,5.7,5.7,8.6,11.5,8.6h163.3c5.7,0,10-4.3,11.5-8.6h183.4c12.9,0,22.9-10,22.9-22.9c0-12.9-10-22.9-22.9-22.9h-181.9"/>
<path fill="#D3D3D3" d="M776.2,1911.2V779.4c0-12.9,10-22.9,22.9-22.9H1471c12.9,0,22.9,10,22.9,22.9v1131.8
	c0,11.5-10,21.5-21.5,21.5H799.2C786.3,1932.7,776.2,1921.2,776.2,1911.2L776.2,1911.2z"/>
<path fill="#C9C9C9" d="M1141.5,755.1H802c-12.9,0-24.4,11.5-24.4,24.4v1128.9c0,11.5,10,21.5,21.5,21.5h342.4V755.1z"/>
<polygon fill="#38373D" points="893.7,1942.7 889.4,1942.7 823.5,1957 823.5,1971.4 889.4,1987.1 893.7,1987.1 "/>
<path fill="#262628" d="M893.7,1942.7h-2.9l-65.9,14.3v2.9h-10c-1.4,0-4.3,1.4-4.3,4.3c0,1.4,1.4,4.3,4.3,4.3h10v2.9l65.9,15.8h2.9
	V1942.7z"/>
<path fill="#7A7A7A" d="M1432.4,1892.6H839.3c-7.2-1.4-14.3-7.2-14.3-14.3V808.1c0-7.2,5.7-12.9,12.9-12.9h594.5
	c7.2,0,14.3,5.7,14.3,14.3v1068.7C1446.7,1885.4,1439.5,1892.6,1432.4,1892.6z M837.8,800.9c-5.7,0-10,4.3-10,10v1068.7
	c0,5.7,4.3,10,10,11.5h593.1c5.7,0,11.5-4.3,11.5-11.5V811c0-5.7-4.3-10-10-10H837.8L837.8,800.9z"/>
<rect x="1241.8" y="951.4" fill="#47464C" width="204.9" height="160.5"/>
<rect x="824.9" y="951.4" fill="#47464C" width="206.3" height="160.5"/>
<rect x="1029.8" y="951.4" fill="#47464C" width="212" height="160.5"/>
<path fill="#3DAF9C" d="M1135.8,1094.6c-1.4,0-1.4-1.4-1.4-1.4V978.6c0-1.4,1.4-1.4,1.4-1.4l1.4,1.4v114.6
	C1137.2,1093.2,1137.2,1094.6,1135.8,1094.6z"/>
<path fill="#7A7A7A" d="M1369.3,1216.4h-20.1c-1.4,0-1.4-1.4-1.4-1.4l1.4-1.4h20.1c1.4,0,1.4,1.4,1.4,1.4L1369.3,1216.4z"/>
<path fill="#7A7A7A" d="M1343.5,1207.8c-1.4,0-1.4-1.4-1.4-1.4v-20.1c0-1.4,1.4-1.4,1.4-1.4l1.4,1.4v20.1
	C1345,1204.9,1345,1207.8,1343.5,1207.8z"/>
<path fill="#7A7A7A" d="M1343.5,1818.1c-1.4,0-1.4-1.4-1.4-1.4v-20.1c0-1.4,1.4-1.4,1.4-1.4l1.4,1.4v20.1
	C1345,1818.1,1345,1818.1,1343.5,1818.1z"/>
<path fill="#7A7A7A" d="M1369.3,1789.4h-20.1c-1.4,0-1.4-1.4-1.4-1.4l1.4-1.4h20.1c1.4,0,1.4,1.4,1.4,1.4L1369.3,1789.4z"/>
<g opacity="0.67" enable-background="new    ">
	<path fill="#2A292D" d="M893.7,1964.2v-21.5h-2.9l-65.9,14.3v2.9h-10c-1.4,0-4.3,1.4-4.3,4.3H893.7z"/>
</g>
<path fill="#313035" d="M1398,1987.1h21.5c12.9,0,22.9-10,22.9-22.9c0-12.9-10-22.9-22.9-22.9H1398V1987.1L1398,1987.1z"/>
<rect x="1234.7" y="1942.7" fill="#D3D3D3" width="163.3" height="44.4"/>
<g opacity="0.1" enable-background="new    ">
	<rect x="1234.7" y="1964.2" fill="#38373D" width="163.3" height="22.9"/>
</g>
<g opacity="0.67" enable-background="new    ">
	<path fill="#2A292D" d="M1442.4,1964.2H1398v22.9h21.5C1432.4,1987.1,1442.4,1978.5,1442.4,1964.2z"/>
</g>
<rect x="889.4" y="1942.7" fill="#313035" width="202" height="44.4"/>
<g opacity="0.67" enable-background="new    ">
	<rect x="889.4" y="1964.2" fill="#2A292D" width="204.9" height="22.9"/>
</g>
<path fill="#262628" d="M1051.3,1990v-57.3h184.8v57.3c0,4.3-2.9,7.2-7.2,7.2h-170.5C1054.2,1997.1,1051.3,1992.8,1051.3,1990z"/>
<g opacity="0.67" enable-background="new    ">
	<path fill="#2A292D" d="M1141.5,1932.7h-90.3v53c0,5.7,4.3,11.5,11.5,11.5h78.8V1932.7z"/>
</g>
<path fill="#2F2F33" d="M667.4,1909.8c-2.9-7.2-8.6-14.3-12.9-21.5c0-1.4-1.4-2.9-2.9-4.3c-2.9-4.3-5.7-7.2-8.6-11.5
	c-8.6-11.5-17.2-22.9-28.7-32.9c-4.3-4.3-8.6-7.2-12.9-11.5c-1.4-1.4-4.3-2.9-7.2-5.7c-5.7-4.3-11.5-10-18.6-14.3
	c-1.4-1.4-4.3-2.9-5.7-4.3c-11.5-7.2-24.4-14.3-37.2-20.1c-2.9-1.4-5.7-1.4-8.6-2.9c-4.3-1.4-8.6-2.9-12.9-4.3
	c-5.7-1.4-12.9-4.3-20.1-5.7c-21.5-5.7-43-10-67.3-10v-48.7l-38.7-35.8h-41.5l-38.7,35.8v44.4c-150.4,5.7-270.8,128.9-270.8,280.8
	v459.9c0,43,35.8,78.8,78.8,78.8h502.8h8.6c40.1-4.3,71.6-37.2,71.6-78.8v-459.9C698.9,1990,687.4,1947,667.4,1909.8L667.4,1909.8z
	 M388,1714.9v40.1h-41.5v-40.1H388z"/>
<path fill="#2F2F33" d="M605.8,1531.6h12.9c5.7,0,8.6-4.3,8.6-8.6v-7.2c0-5.7-4.3-8.6-8.6-8.6h-14.3c-8.6-44.4-47.3-77.4-94.6-77.4
	c-48.7,0-88.8,35.8-96,83.1l-17.2-17.2c-2.9-2.9-8.6-5.7-14.3-5.7h-45.8c-5.7,0-10,1.4-14.3,5.7l-17.2,17.2
	c-5.7-47.3-45.8-83.1-96-83.1c-45.8,0-86,34.4-94.6,77.4H100c-5.7,0-8.6,4.3-8.6,8.6v7.2c0,5.7,4.3,8.6,8.6,8.6h12.9
	c1.4,22.9,11.5,44.4,27.2,60.2l-41.5,54.4c-5.7,7.2-4.3,18.6,2.9,24.4c8.6,5.7,20.1,2.9,24.4-5.7l30.1-63
	c15.8,11.5,35.8,17.2,55.9,17.2c45.8,0,84.5-32.9,94.6-74.5h108.9c8.6,43,47.3,75.9,94.6,75.9c21.5,0,40.1-7.2,55.9-18.6l31.5,61.6
	c4.3,8.6,15.8,11.5,24.4,5.7c7.2-5.7,8.6-15.8,2.9-24.4l-44.4-54.4C592.9,1574.5,602.9,1553,605.8,1531.6L605.8,1531.6z
	 M306.3,1531.6v-7.2l22.9-22.9c1.4-1.4,4.3-2.9,7.2-2.9h45.8c2.9,0,5.7,0,7.2,2.9l22.9,22.9v7.2H306.3L306.3,1531.6z"/>
<rect x="282" y="1684.8" fill="#262628" width="38.7" height="58.7"/>
<g opacity="0.15" enable-background="new    ">
	<rect x="282" y="1684.8" fill="#515056" width="20.1" height="58.7"/>
</g>
<rect x="363.6" y="1684.8" fill="#262628" width="38.7" height="58.7"/>
<g opacity="0.15" enable-background="new    ">
	<rect x="363.6" y="1684.8" fill="#515056" width="20.1" height="58.7"/>
</g>
<polygon fill="#222223" points="282,1689.1 403.8,1689.1 403.8,1684.8 363.6,1649 320.7,1649 282,1684.8 "/>
<polygon fill="#0B0B0B" points="363.6,1649 342.2,1649 342.2,1689.1 403.8,1689.1 403.8,1684.8 "/>
<path fill="#D3D3D3" d="M674.5,2435.5V2010c0-154.7-126.1-280.8-280.8-280.8H292c-154.7,0-280.8,126.1-280.8,280.8v425.5H674.5
	L674.5,2435.5z"/>
<g opacity="0.29" enable-background="new    ">
	<path fill="#F7F7F7" d="M393.7,1729.3h-50.1v706.3h330.9V2010C674.5,1856.8,548.5,1729.3,393.7,1729.3z"/>
</g>
<path fill="#47464C" d="M11.2,2425.5v44.4c0,43,35.8,78.8,78.8,78.8h504.3c43,0,78.8-35.8,78.8-78.8v-44.4H11.2L11.2,2425.5z"/>
<g opacity="0.11" enable-background="new    ">
	<path fill="#F7F7F7" d="M342.2,2425.5v124.6h252.1c43,0,78.8-35.8,78.8-78.8v-44.4L342.2,2425.5L342.2,2425.5z"/>
</g>
<path fill="#262628" d="M574.2,2508.6H108.6c-27.2,0-50.1-22.9-50.1-50.1v-273.6c0-27.2,22.9-50.1,50.1-50.1h465.6
	c27.2,0,50.1,22.9,50.1,50.1v275.1C624.4,2485.7,601.5,2508.6,574.2,2508.6z"/>
<path fill="#916B57" d="M436.7,1928.4l-81.7-81.7c-7.2-7.2-18.6-7.2-25.8,0l-80.2,80.2c-7.2,7.2-7.2,18.6,0,25.8l81.7,81.7
	c7.2,7.2,18.6,7.2,25.8,0l80.2-80.2C443.9,1949.9,443.9,1935.5,436.7,1928.4z M333.6,1978.5c0,4.3-4.3,8.6-8.6,8.6
	c-4.3,0-10-2.9-10-8.6V1904c0-4.3,4.3-8.6,8.6-8.6c4.3,0,8.6,4.3,8.6,8.6L333.6,1978.5z M373.7,1981.4c0,4.3-4.3,8.6-8.6,8.6
	c-4.3,0-8.6-4.3-8.6-8.6v-74.5c0-4.3,4.3-8.6,8.6-8.6c4.3,0,8.6,4.3,8.6,8.6V1981.4z"/>
<g opacity="6.000000e-02" enable-background="new    ">
	<path fill="#F7F7F7" d="M571.4,2133.2H342.2v375.3h227.8c30.1,0,53-24.4,53-53v-270.8C624.4,2156.2,600,2133.2,571.4,2133.2
		L571.4,2133.2z"/>
</g>
<rect x="58.5" y="2239.3" fill="#F9F9FA" width="565.9" height="7.2"/>
<path fill="#F9F9FA" d="M117.2,2302.3h-7.2c-2.9,0-5.7-2.9-5.7-5.7v-54.4H123v54.4C123,2300.9,120.1,2302.3,117.2,2302.3
	L117.2,2302.3z"/>
<g opacity="0.11" enable-background="new    ">
	<path fill="#F7F7F7" d="M436.7,1928.4l-81.7-81.7c-2.9-2.9-7.2-4.3-11.5-5.7v197.7c4.3,0,10-1.4,12.9-5.7l80.2-80.2
		C443.9,1949.9,443.9,1935.5,436.7,1928.4L436.7,1928.4z M373.7,1981.4c0,4.3-4.3,8.6-8.6,8.6c-4.3,0-8.6-4.3-8.6-8.6v-74.5
		c0-4.3,4.3-8.6,8.6-8.6c4.3,0,8.6,4.3,8.6,8.6V1981.4z"/>
</g>
<path fill="#A87E47" d="M141.6,1574.5l-47.3,57.3c-5.7,7.2-4.3,18.6,2.9,24.4c8.6,5.7,20.1,2.9,24.4-5.7l32.9-65.9L141.6,1574.5z"/>
<path fill="#A87E47" d="M571.4,1574.5l47.3,57.3c5.7,7.2,4.3,18.6-2.9,24.4c-8.6,5.7-20.1,2.9-24.4-5.7l-32.9-65.9L571.4,1574.5z"/>
<path fill="#826037" d="M138.7,1577.4l7.2,21.5l4.3-10C151.6,1588.9,151.6,1574.5,138.7,1577.4z"/>
<polygon fill="#826037" points="574.2,1577.4 565.6,1596 561.3,1588.9 561.3,1574.5 "/>
<rect x="296.3" y="1517.2" fill="#A87E47" width="121.8" height="12.9"/>
<path fill="#826037" d="M303.5,1517.2l5.7,12.9h-10C299.2,1531.6,296.3,1517.2,303.5,1517.2L303.5,1517.2z"/>
<polygon fill="#826037" points="409.5,1517.2 403.8,1531.6 416.7,1531.6 "/>
<path fill="#F3BF62" d="M597.2,1517.2h20.1c2.9,0,5.7-2.9,5.7-5.7v-14.3c0-2.9-2.9-5.7-5.7-5.7h-20.1V1517.2L597.2,1517.2z"/>
<path fill="#F3BF62" d="M415.2,1514.4l-28.7-28.7c-1.4-1.4-4.3-2.9-7.2-2.9h-45.8c-2.9,0-5.7,0-7.2,2.9l-27.2,27.2l-5.7-5.7
	l27.2-27.2c2.9-2.9,8.6-5.7,14.3-5.7h45.8c5.7,0,10,1.4,14.3,5.7l28.7,28.7L415.2,1514.4z"/>
<path fill="#F3BF62" d="M115.8,1517.2H95.8c-2.9,0-5.7-2.9-5.7-5.7v-14.3c0-2.9,2.9-5.7,5.7-5.7h20.1V1517.2L115.8,1517.2z"/>
<g opacity="0.12" enable-background="new    ">
	<circle fill="#F3BF62" cx="207.5" cy="1510.1" r="88.8"/>
</g>
<g opacity="0.12" enable-background="new    ">
	<circle fill="#F3BF62" cx="505.5" cy="1510.1" r="88.8"/>
</g>
<g opacity="0.1" enable-background="new    ">
	<polygon fill="#F9F9FA" points="133,1557.3 280.6,1474.2 294.9,1494.3 153.1,1574.5 	"/>
</g>
<g opacity="0.1" enable-background="new    ">
	<polygon fill="#F9F9FA" points="121.5,1541.6 279.1,1452.8 284.9,1462.8 131.6,1548.7 	"/>
</g>
<g opacity="0.1" enable-background="new    ">
	<polygon fill="#F9F9FA" points="431,1557.3 578.5,1474.2 592.9,1494.3 451,1574.5 	"/>
</g>
<g opacity="0.1" enable-background="new    ">
	<polygon fill="#F9F9FA" points="418.1,1541.6 577.1,1452.8 582.8,1462.8 429.5,1548.7 	"/>
</g>
<path fill="#F3BF62" d="M207.5,1414.1c-53,0-96,43-96,96s43,96,96,96s96-43,96-96C303.5,1455.6,260.5,1414.1,207.5,1414.1
	L207.5,1414.1z M207.5,1591.7c-44.4,0-81.7-35.8-81.7-81.7s35.8-81.7,81.7-81.7s81.7,35.8,81.7,81.7S251.9,1591.7,207.5,1591.7
	L207.5,1591.7z"/>
<path fill="#F3BF62" d="M409.5,1510.1c0,53,43,96,96,96c53,0,96-43,96-96s-43-96-96-96C452.5,1414.1,409.5,1455.6,409.5,1510.1z
	 M423.8,1510.1c0-44.4,35.8-81.7,81.7-81.7s81.7,35.8,81.7,81.7s-35.8,81.7-81.7,81.7S423.8,1555.9,423.8,1510.1z"/>
<path fill="#FFFFFF" d="M584.3,2478.5H476.8c-2.9,0-5.7-1.4-5.7-5.7v-73.1c0-2.9,1.4-5.7,5.7-5.7h107.4c2.9,0,5.7,1.4,5.7,5.7v73.1
	C590,2477.1,587.1,2478.5,584.3,2478.5z"/>
<path fill="none" d="M575.7,2464.2h-8.6v15.8h7.2h7.2c0,0,1.4,0,2.9,0s0,0,0,0L575.7,2464.2L575.7,2464.2z"/>
<rect x="567.1" y="2471.3" fill="#CFCECE" width="1.4" height="1.4"/>
<rect x="572.8" y="2471.3" fill="#CFCECE" width="1.4" height="1.4"/>
<path fill="#CFCECE" d="M580,2472.8l-2.9-1.4v1.4H580z"/>
<rect x="554.2" y="2464.2" fill="none" width="12.9" height="15.8"/>
<rect x="554.2" y="2471.3" fill="#CFCECE" width="1.4" height="1.4"/>
<rect x="558.5" y="2471.3" fill="#CFCECE" width="1.4" height="1.4"/>
<rect x="562.8" y="2471.3" fill="#CFCECE" width="1.4" height="1.4"/>
<rect x="539.9" y="2464.2" fill="none" width="12.9" height="15.8"/>
<rect x="541.3" y="2471.3" fill="#CFCECE" width="1.4" height="1.4"/>
<rect x="545.6" y="2471.3" fill="#CFCECE" width="1.4" height="1.4"/>
<rect x="549.9" y="2471.3" fill="#CFCECE" width="1.4" height="1.4"/>
<rect x="525.5" y="2464.2" fill="none" width="12.9" height="15.8"/>
<rect x="527" y="2471.3" fill="#CFCECE" width="1.4" height="1.4"/>
<rect x="531.3" y="2471.3" fill="#CFCECE" width="1.4" height="1.4"/>
<rect x="535.6" y="2471.3" fill="#CFCECE" width="1.4" height="1.4"/>
<rect x="512.6" y="2464.2" fill="none" width="12.9" height="15.8"/>
<rect x="514.1" y="2471.3" fill="#CFCECE" width="1.4" height="1.4"/>
<rect x="518.4" y="2471.3" fill="#CFCECE" width="1.4" height="1.4"/>
<rect x="522.7" y="2471.3" fill="#CFCECE" width="1.4" height="1.4"/>
<rect x="498.3" y="2464.2" fill="none" width="12.9" height="15.8"/>
<rect x="499.7" y="2471.3" fill="#CFCECE" width="1.4" height="1.4"/>
<rect x="504" y="2471.3" fill="#CFCECE" width="1.4" height="1.4"/>
<rect x="508.3" y="2471.3" fill="#CFCECE" width="1.4" height="1.4"/>
<rect x="485.4" y="2464.2" fill="none" width="12.9" height="15.8"/>
<rect x="485.4" y="2471.3" fill="#CFCECE" width="1.4" height="1.4"/>
<rect x="489.7" y="2471.3" fill="#CFCECE" width="1.4" height="1.4"/>
<rect x="495.4" y="2471.3" fill="#CFCECE" width="1.4" height="1.4"/>
<path fill="none" d="M485.4,2464.2l-15.8,1.4v1.4v2.9c0,1.4,0,1.4,1.4,2.9l2.9,2.9c1.4,0,1.4,1.4,2.9,1.4c1.4,0,2.9,0,4.3,0
	c1.4,0,2.9,0,2.9,0L485.4,2464.2L485.4,2464.2z"/>
<path fill="#CFCECE" d="M476.8,2471.3l1.4-2.9h-1.4V2471.3L476.8,2471.3z"/>
<path fill="#CFCECE" d="M479.7,2472.8v-1.4V2472.8C478.3,2472.8,479.7,2472.8,479.7,2472.8z"/>
<polygon fill="#CFCECE" points="484,2472.8 484,2471.3 482.6,2471.3 481.1,2472.8 "/>
<polygon fill="none" points="485.4,2464.2 485.4,2454.1 469.7,2454.1 469.7,2468.5 "/>
<rect x="476.8" y="2454.1" fill="#CFCECE" width="1.4" height="1.4"/>
<rect x="476.8" y="2457" fill="#CFCECE" width="1.4" height="1.4"/>
<rect x="476.8" y="2462.7" fill="#CFCECE" width="1.4" height="1.4"/>
<rect x="469.7" y="2439.8" fill="none" width="15.8" height="12.9"/>
<rect x="476.8" y="2441.3" fill="#CFCECE" width="1.4" height="1.4"/>
<rect x="476.8" y="2444.1" fill="#CFCECE" width="1.4" height="1.4"/>
<rect x="476.8" y="2449.8" fill="#CFCECE" width="1.4" height="1.4"/>
<rect x="469.7" y="2425.5" fill="none" width="15.8" height="12.9"/>
<rect x="476.8" y="2426.9" fill="#CFCECE" width="1.4" height="1.4"/>
<rect x="476.8" y="2429.8" fill="#CFCECE" width="1.4" height="1.4"/>
<rect x="476.8" y="2435.5" fill="#CFCECE" width="1.4" height="1.4"/>
<rect x="469.7" y="2412.6" fill="none" width="15.8" height="12.9"/>
<rect x="476.8" y="2414" fill="#CFCECE" width="1.4" height="1.4"/>
<rect x="476.8" y="2416.9" fill="#CFCECE" width="1.4" height="1.4"/>
<rect x="476.8" y="2421.2" fill="#CFCECE" width="1.4" height="1.4"/>
<path fill="none" d="M485.4,2412.6v-4.3l-10-14.3c0,0-1.4,0-1.4,1.4c0,0-1.4,1.4-1.4,2.9c0,1.4,0,2.9,0,4.3v8.6L485.4,2412.6
	L485.4,2412.6z"/>
<path fill="#CFCECE" d="M476.8,2401.1C478.3,2401.1,478.3,2401.1,476.8,2401.1v-1.4C478.3,2399.7,476.8,2399.7,476.8,2401.1
	L476.8,2401.1z"/>
<polygon fill="#CFCECE" points="476.8,2406.9 478.3,2406.9 478.3,2405.4 476.8,2402.6 "/>
<rect x="476.8" y="2406.9" fill="#CFCECE" width="1.4" height="1.4"/>
<path fill="none" d="M485.4,2406.9h8.6v-15.8h-7.2h-7.2c0,0-1.4,0-2.9,0s0,0,0,0L485.4,2406.9L485.4,2406.9z"/>
<rect x="489.7" y="2399.7" fill="#CFCECE" width="1.4" height="1.4"/>
<rect x="485.4" y="2399.7" fill="#CFCECE" width="1.4" height="1.4"/>
<path fill="#CFCECE" d="M479.7,2399.7l2.9,1.4v-1.4H479.7C481.1,2399.7,479.7,2399.7,479.7,2399.7z"/>
<rect x="492.6" y="2392.5" fill="none" width="12.9" height="15.8"/>
<rect x="502.6" y="2399.7" fill="#CFCECE" width="1.4" height="1.4"/>
<rect x="498.3" y="2399.7" fill="#CFCECE" width="1.4" height="1.4"/>
<rect x="494" y="2399.7" fill="#CFCECE" width="1.4" height="1.4"/>
<rect x="506.9" y="2392.5" fill="none" width="12.9" height="15.8"/>
<rect x="516.9" y="2399.7" fill="#CFCECE" width="1.4" height="1.4"/>
<rect x="512.6" y="2399.7" fill="#CFCECE" width="1.4" height="1.4"/>
<rect x="508.3" y="2399.7" fill="#CFCECE" width="1.4" height="1.4"/>
<rect x="521.2" y="2392.5" fill="none" width="12.9" height="15.8"/>
<rect x="529.8" y="2399.7" fill="#CFCECE" width="1.4" height="1.4"/>
<rect x="525.5" y="2399.7" fill="#CFCECE" width="1.4" height="1.4"/>
<rect x="521.2" y="2399.7" fill="#CFCECE" width="1.4" height="1.4"/>
<rect x="534.1" y="2392.5" fill="none" width="12.9" height="15.8"/>
<rect x="544.2" y="2399.7" fill="#CFCECE" width="1.4" height="1.4"/>
<rect x="539.9" y="2399.7" fill="#CFCECE" width="1.4" height="1.4"/>
<rect x="535.6" y="2399.7" fill="#CFCECE" width="1.4" height="1.4"/>
<rect x="547" y="2392.5" fill="none" width="12.9" height="15.8"/>
<rect x="557" y="2399.7" fill="#CFCECE" width="1.4" height="1.4"/>
<rect x="554.2" y="2399.7" fill="#CFCECE" width="1.4" height="1.4"/>
<rect x="548.5" y="2399.7" fill="#CFCECE" width="1.4" height="1.4"/>
<rect x="561.3" y="2392.5" fill="none" width="12.9" height="15.8"/>
<rect x="571.4" y="2399.7" fill="#CFCECE" width="1.4" height="1.4"/>
<rect x="567.1" y="2399.7" fill="#CFCECE" width="1.4" height="1.4"/>
<rect x="562.8" y="2399.7" fill="#CFCECE" width="1.4" height="1.4"/>
<path fill="none" d="M574.2,2406.9l15.8-1.4v-1.4v-2.9c0,0,0-1.4-1.4-2.9c0-1.4-1.4-1.4-2.9-2.9c-1.4,0-1.4-1.4-2.9-1.4h-4.3h-2.9
	L574.2,2406.9L574.2,2406.9z"/>
<path fill="#CFCECE" d="M584.3,2401.1l-1.4,2.9h1.4V2401.1L584.3,2401.1z"/>
<path fill="#CFCECE" d="M581.4,2399.7"/>
<polygon fill="#CFCECE" points="575.7,2399.7 575.7,2399.7 578.5,2399.7 578.5,2399.7 "/>
<polygon fill="none" points="575.7,2406.9 575.7,2419.8 591.4,2419.8 591.4,2405.4 "/>
<rect x="582.8" y="2415.5" fill="#CFCECE" width="1.4" height="1.4"/>
<rect x="582.8" y="2412.6" fill="#CFCECE" width="1.4" height="1.4"/>
<rect x="582.8" y="2406.9" fill="#CFCECE" width="1.4" height="1.4"/>
<rect x="575.7" y="2419.8" fill="none" width="15.8" height="12.9"/>
<rect x="582.8" y="2428.4" fill="#CFCECE" width="1.4" height="1.4"/>
<rect x="582.8" y="2425.5" fill="#CFCECE" width="1.4" height="1.4"/>
<rect x="582.8" y="2421.2" fill="#CFCECE" width="1.4" height="1.4"/>
<rect x="575.7" y="2434.1" fill="none" width="15.8" height="12.9"/>
<rect x="582.8" y="2442.7" fill="#CFCECE" width="1.4" height="1.4"/>
<rect x="582.8" y="2439.8" fill="#CFCECE" width="1.4" height="1.4"/>
<rect x="582.8" y="2435.5" fill="#CFCECE" width="1.4" height="1.4"/>
<rect x="575.7" y="2448.4" fill="none" width="15.8" height="12.9"/>
<rect x="582.8" y="2457" fill="#CFCECE" width="1.4" height="1.4"/>
<rect x="582.8" y="2454.1" fill="#CFCECE" width="1.4" height="1.4"/>
<rect x="582.8" y="2448.4" fill="#CFCECE" width="1.4" height="1.4"/>
<path fill="none" d="M575.7,2459.9v4.3l10,14.3c0,0,1.4,0,1.4-1.4c0,0,1.4-1.4,1.4-2.9v-4.3v-8.6L575.7,2459.9L575.7,2459.9z"/>
<path fill="#CFCECE" d="M584.3,2471.3C582.8,2471.3,582.8,2471.3,584.3,2471.3C582.8,2472.8,582.8,2472.8,584.3,2471.3
	C582.8,2471.3,584.3,2471.3,584.3,2471.3z"/>
<polygon fill="#CFCECE" points="584.3,2465.6 582.8,2465.6 582.8,2468.5 584.3,2469.9 "/>
<rect x="582.8" y="2462.7" fill="#CFCECE" width="1.4" height="1.4"/>
<g opacity="0.54" enable-background="new    ">
	<rect x="496.9" y="2419.8" fill="#CFCECE" width="68.8" height="14.3"/>
</g>
<g opacity="0.54" enable-background="new    ">
	<rect x="505.5" y="2439.8" fill="#CFCECE" width="50.1" height="10"/>
</g>
<path fill="#38373D" d="M1084.2,2435.5"/>
<path fill="#2F2F33" d="M1665.9,2213.5C1667.3,2213.5,1665.9,2213.5,1665.9,2213.5z"/>
<path fill="#2F2F33" d="M2125.7,2426.9c-2.9-2.9-7.2-5.7-11.5-8.6c-17.2-11.5-53-30.1-130.4-50.1c0,0-98.8-30.1-179.1-68.8
	c-2.9-18.6-51.6-45.8-107.4-71.6c0-1.4,0-4.3-2.9-5.7c-2.9-1.4-5.7,0-7.2,1.4c-7.2-2.9-14.3-5.7-20.1-8.6c0-2.9,0-5.7-2.9-7.2
	s-5.7,0-7.2,1.4c-5.7-1.4-12.9-5.7-20.1-8.6c1.4-2.9,0-5.7-2.9-7.2s-5.7,0-8.6,1.4c-5.7-1.4-12.9-4.3-18.6-7.2c0-2.9,0-5.7-2.9-7.2
	c-2.9-1.4-7.2,0-8.6,1.4c-5.7-2.9-12.9-4.3-20.1-7.2c1.4-2.9,0-5.7-1.4-7.2c-2.9-1.4-5.7,0-8.6,1.4v1.4c-8.6-2.9-15.8-5.7-24.4-8.6
	c-1.4,0-4.3-1.4-5.7-1.4c-10-2.9-31.5-11.5-50.1-21.5c-17.2-10-28.7-18.6-32.9-21.5c-7.2-7.2-35.8-24.4-25.8,107.4
	c-4.3,4.3-7.2,8.6-7.2,8.6c-40.1,35.8-94.6,40.1-94.6,40.1c-86,10-94.6-43-94.6-43c-7.2-38.7-25.8-43-25.8-43h-5.7
	c0-5.7,0-10-2.9-14.3c-2.9-4.3-7.2-7.2-10-8.6h-1.4c-1.4,0-4.3-1.4-7.2-1.4c-5.7,0-11.5,0-18.6,1.4c-1.4,0-2.9,1.4-5.7,2.9
	c-1.4,0-2.9,1.4-4.3,2.9c-4.3,4.3-8.6,10-10,20.1v4.3v7.2c0,0,0,31.5,28.7,48.7c-5.7,12.9-10,25.8-14.3,32.9
	c-1.4,5.7,0,11.5,4.3,14.3l5.7,2.9c0,0-28.7,32.9-17.2,127.5c0,0-5.7,5.7-12.9,17.2c-2.9,5.7-7.2,11.5-10,18.6
	c0,0-12.9,25.8-12.9,47.3v1.4c0,4.3,0,8.6,2.9,14.3v2.9c0,0,0,1.4,1.4,2.9c0,0,0,1.4,1.4,1.4l1.4,1.4c14.3,15.8,53,35.8,160.5,35.8
	c0,0,458.4,8.6,702,0c0,0,147.6-8.6,166.2-77.4c0-2.9,1.4-7.2,1.4-11.5C2148.7,2445.5,2125.7,2426.9,2125.7,2426.9L2125.7,2426.9z
	 M1163,2177.7h2.9c5.7,0,8.6,4.3,10,5.7c0,1.4,1.4,2.9,2.9,5.7v2.9c-1.4,2.9-2.9,7.2-2.9,7.2c-1.4,5.7-4.3,12.9-7.2,18.6
	C1165.9,2214.9,1145.8,2196.3,1163,2177.7L1163,2177.7z"/>
<path fill="#212123" d="M1177.4,2173.4c0,0,10-38.7-27.2-38.7c0,0-35.8-8.6-35.8,38.7c0,0,0,32.9,30.1,50.1l10-27.2
	c0,0-30.1-25.8-8.6-44.4c0,0,14.3-1.4,18.6,25.8"/>
<path fill="#262628" d="M1135.8,2156.2c-5.7,1.4-14.3,5.7-21.5,12.9c0,0,0-18.6,14.3-28.7c1.4,0,2.9-1.4,5.7-2.9
	c7.2-2.9,12.9-2.9,18.6-1.4c2.9,0,5.7,0,7.2,1.4h1.4c2.9,1.4,7.2,4.3,10,8.6c1.4,2.9,2.9,8.6,2.9,14.3l-7.2,24.4l-8.6-14.3
	c0,0,0-5.7-2.9-11.5c0,0-2.9-5.7-10-7.2C1144.4,2154.7,1140.1,2154.7,1135.8,2156.2L1135.8,2156.2z"/>
<path fill="#212123" d="M1518.3,2139c0,0-47.3-8.6-84.5-43c0,0-40.1-45.8-27.2,110.3C1406.6,2204.9,1515.5,2183.4,1518.3,2139z"/>
<path fill="#262628" d="M1786.2,2273.6L1651.6,2467c0,0,349.6,31.5,416.9,10c0,0,71.6-12.9,43-68.8c0,0-10-28.7-144.7-65.9
	C1965.3,2342.4,1867.9,2313.8,1786.2,2273.6L1786.2,2273.6z"/>
<path fill="#47464C" d="M1786.2,2273.6c-7.2-44.4-269.3-136.1-269.3-136.1c-44.4-11.5-118.9,70.2-118.9,70.2
	c-40.1,35.8-94.6,40.1-94.6,40.1c-86,10-94.6-43-94.6-43c-7.2-38.7-25.8-43-25.8-43c-21.5-5.7-25.8,15.8-25.8,15.8
	c-10,31.5-24.4,63-31.5,78.8c-1.4,5.7,0,11.5,4.3,14.3l5.7,2.9l166.2,210.6h328.1C1631.5,2484.2,1819.2,2494.3,1786.2,2273.6z"/>
<path fill="#FFFFFF" d="M1177.4,2253.6c0,0-1.4,1.4,0,1.4l309.4,120.3c0,0,68.8,27.2,86-21.5c0,0,18.6-37.2-53-111.7h-1.4
	c5.7,11.5,17.2,37.2,10,57.3c0,0-10,30.1-53,21.5L1177.4,2253.6z"/>
<path fill="#F4F4F4" d="M1482.5,2326.6c43,8.6,53-21.5,53-21.5c7.2-18.6-2.9-44.4-10-57.3c-1.4-1.4-4.3-4.3-5.7-7.2h-1.4
	c5.7,11.5,17.2,37.2,10,57.3c0,0-10,30.1-53,21.5l-296.5-68.8c0,0-1.4,1.4,0,1.4l14.3,5.7L1482.5,2326.6L1482.5,2326.6z"/>
<path fill="#262628" d="M1140.1,2273.6c0,0-28.7,32.9-17.2,127.5l223.5,21.5C1346.4,2422.6,1326.4,2320.9,1140.1,2273.6z"/>
<path fill="#212123" d="M1140.1,2273.6c0,0,160.5,47.3,192,147.6l14.3,1.4C1346.4,2422.6,1330.6,2320.9,1140.1,2273.6z"/>
<path fill="#212123" d="M1478.2,2143.3c0,0,35.8-2.9,151.9,37.2c0,0-71.6-30.1-113.2-43c0,0-51.6-11.5-84.5-43L1478.2,2143.3
	L1478.2,2143.3z"/>
<path fill="#212123" d="M1429.5,2091.7c0,0,37.2,31.5,88.8,45.8C1518.3,2139,1402.3,2130.4,1429.5,2091.7z"/>
<path fill="#47464C" d="M1531.2,2150.4l-41.5-10c-4.3,0-8.6,0-12.9,1.4c-8.6,4.3-22.9,14.3-28.7,18.6
	C1448.1,2163.3,1531.2,2207.7,1531.2,2150.4L1531.2,2150.4z"/>
<path fill="#212123" d="M1492.5,2141.8c0,0,121.8,31.5,154.7,45.8c0,0-101.7-44.4-147.6-57.3L1492.5,2141.8z"/>
<path fill="#212123" d="M1519.8,2139c0,0-31.5-10-55.9-24.4C1462.4,2113.2,1478.2,2143.3,1519.8,2139z"/>
<path fill="#FFFFFF" d="M1535.5,2182l18.6-30.1c1.4-2.9,0-5.7-1.4-8.6c-2.9-1.4-5.7,0-8.6,1.4l-18.6,30.1c-1.4,2.9,0,5.7,1.4,8.6
	C1529.8,2184.8,1534.1,2184.8,1535.5,2182z"/>
<path fill="#FFFFFF" d="M1658.7,2239.3l18.6-35.8c1.4-2.9,0-5.7-1.4-8.6c-2.9-1.4-5.7,0-8.6,1.4l-18.6,35.8c-1.4,2.9,0,5.7,1.4,8.6
	C1654.4,2242.1,1657.3,2242.1,1658.7,2239.3z"/>
<path fill="#FFFFFF" d="M1567,2197.7l18.6-32.9c1.4-2.9,0-7.2-1.4-8.6c-2.9-1.4-7.2,0-8.6,1.4l-18.6,32.9c-1.4,2.9,0,7.2,1.4,8.6
	C1561.3,2199.1,1565.6,2199.1,1567,2197.7z"/>
<path fill="#FFFFFF" d="M1628.6,2224.9l17.2-34.4c1.4-2.9,0-5.7-2.9-8.6c-2.9-1.4-5.7,0-8.6,2.9l-17.2,34.4c-1.4,2.9,0,5.7,2.9,8.6
	C1624.3,2227.8,1627.2,2227.8,1628.6,2224.9z"/>
<path fill="#FFFFFF" d="M1597.1,2210.6l18.6-34.4c1.4-2.9,0-5.7-1.4-8.6c-2.9-1.4-5.7,0-8.6,1.4l-18.6,34.4c-1.4,2.9,0,5.7,1.4,8.6
	C1592.8,2213.5,1595.7,2213.5,1597.1,2210.6z"/>
<path fill="#E5E5E5" d="M1549.8,2457c114.6,15.8,196.3,21.5,207.7,22.9c71.6,4.3,161.9,8.6,267.9,7.2c38.7-2.9,63-10,77.4-20.1
	c35.8-27.2,7.2-63,0-70.2c-1.4-1.4-4.3-4.3-8.6-5.7c0,0,38.7,40.1,0,70.2c-14.3,8.6-37.2,17.2-75.9,20.1
	c-103.1,0-190.5-2.9-260.7-7.2c-11.5,0-90.3-7.2-202-22.9c-117.5-17.2-320.9-45.8-434.1-50.1c0,0-1.4,1.4-4.3,5.7
	C1237.5,2414,1433.8,2441.3,1549.8,2457L1549.8,2457z"/>
<path fill="#212123" d="M1786.2,2273.6c0,0,32.9,124.6-60.2,197.7h-22.9C1703.1,2469.9,1810.6,2442.7,1786.2,2273.6L1786.2,2273.6z"
	/>
<path fill="#FFFFFF" d="M2107.1,2401.1c-2.9-2.9-7.2-5.7-11.5-8.6c0,0,38.7,40.1,0,70.2c-14.3,8.6-37.2,17.2-75.9,20.1
	c-103.1,0-190.5-2.9-260.7-7.2c-11.5,0-90.3-7.2-202-22.9c-117.5-17.2-320.9-45.8-434.1-50.1c0,0-5.7,5.7-12.9,17.2
	c-2.9,4.3-5.7,8.6-8.6,14.3c0,0-1.4,2.9-2.9,7.2c0,1.4-20.1,44.4,1.4,77.4c5.7,8.6,21.5,21.5,55.9,25.8h2.9h1.4h5.7
	c17.2,0,48.7,2.9,75.9,2.9h12.9c0,0,458.4,8.6,702,0c0,0,147.6-8.6,166.2-77.4c0-2.9,1.4-7.2,1.4-11.5
	C2130,2421.2,2107.1,2401.1,2107.1,2401.1L2107.1,2401.1z"/>
<g opacity="0.29">
	
		<image overflow="visible" enable-background="new    " width="359" height="359" xlink:href="4EA1DDF2225DEBCE.png"  transform="matrix(0.411 0 0 0.4097 1574.0466 2115.1921)">
	</image>
</g>
<path fill="#2F2F33" d="M1045.6,2356.7c0-43-20.1-81.7-53-106v-2.9l-25.8-103.1c-1.4-4.3-4.3-7.2-10-7.2h-93.1
	c-4.3,0-8.6,2.9-10,7.2l-22.9,106c-4.3,2.9-8.6,7.2-12.9,11.5c-5.7,5.7-11.5,12.9-15.8,20.1c-14.3,21.5-22.9,47.3-22.9,74.5
	c0,43,20.1,81.7,51.6,106l1.4,5.7l21.5,100.3c0,4.3,4.3,7.2,10,7.2h93.1c4.3,0,8.6-2.9,10-7.2l25.8-104.6
	C1024.1,2437,1045.6,2399.7,1045.6,2356.7L1045.6,2356.7z"/>
<path fill="#EAEAEA" d="M975.4,2445.5L948.1,2553c0,4.3-4.3,7.2-10,7.2H845c-4.3,0-8.6-2.9-10-7.2L812,2445.5H975.4z"/>
<path fill="#FFFFFF" d="M893.7,2445.5v116h44.4c4.3,0,8.6-2.9,10-7.2l27.2-107.4h-81.7L893.7,2445.5L893.7,2445.5z"/>
<g opacity="0.69" enable-background="new    ">
	<path fill="#C1C1C0" d="M810.6,2442.7l1.4,11.5c0,0,34.4,28.7,80.2,27.2c0,0,38.7,2.9,78.8-27.2l2.9-12.9L810.6,2442.7
		L810.6,2442.7z"/>
</g>
<path fill="#EAEAEA" d="M976.8,2235l-27.2-108.9c0-4.3-5.7-7.2-10-7.2H845c-4.3,0-8.6,2.9-10,8.6L812,2236.4L976.8,2235z"/>
<path fill="#FFFFFF" d="M895.1,2235v-117.5H941c4.3,0,8.6,2.9,10,7.2l27.2,108.9L895.1,2235L895.1,2235z"/>
<g opacity="0.69" enable-background="new    ">
	<path fill="#C1C1C0" d="M812,2240.7l2.9-12.9c0,0,34.4-28.7,80.2-27.2c0,0,38.7-2.9,80.2,27.2l2.9,12.9H812L812,2240.7z"/>
</g>
<circle fill="#F3BF62" cx="893.7" cy="2342.4" r="120.3"/>
<g opacity="0.38" enable-background="new    ">
	<path fill="#A87E47" d="M895.1,2219.2c-67.3,0-121.8,54.4-121.8,121.8c0,67.3,54.4,121.8,121.8,121.8V2219.2z"/>
</g>
<g opacity="0.7" enable-background="new    ">
	<path fill="#A87E47" d="M796.3,2363.9c0-67.3,54.4-121.8,121.8-121.8c28.7,0,54.4,10,74.5,25.8c-21.5-30.1-57.3-50.1-98.8-50.1
		c-67.3,0-121.8,54.4-121.8,121.8c0,38.7,18.6,73.1,45.8,96C804.9,2415.5,796.3,2391.1,796.3,2363.9L796.3,2363.9z"/>
</g>
<path fill="#EFEFEF" d="M890.8,2345.3H888c-2.9-1.4-4.3-4.3-1.4-8.6l32.9-63c1.4-2.9,4.3-4.3,8.6-1.4c2.9,1.4,4.3,4.3,1.4,8.6
	l-32.9,63C895.1,2345.3,893.7,2345.3,890.8,2345.3z"/>
<path fill="#47464C" d="M933.8,2372.5H931l-43-27.2c-2.9-1.4-2.9-5.7-1.4-8.6c1.4-2.9,5.7-2.9,8.6-1.4l43,27.2
	c2.9,1.4,2.9,5.7,1.4,8.6C938.1,2372.5,936.7,2372.5,933.8,2372.5z"/>
<g>
	<defs>
		<circle id="SVGID_3_" cx="893.7" cy="2342.4" r="128.9"/>
	</defs>
	<clipPath id="SVGID_4_">
		<use xlink:href="#SVGID_3_"  overflow="visible"/>
	</clipPath>
	<g clip-path="url(#SVGID_4_)">
		<path fill="#E5E5E5" d="M893.7,2242.1c-2.9,0-7.2-2.9-7.2-7.2v-38.7c0-2.9,2.9-7.2,7.2-7.2s7.2,2.9,7.2,7.2v38.7
			C900.9,2240.7,898,2242.1,893.7,2242.1z"/>
		<path fill="#E5E5E5" d="M893.7,2492.8c-2.9,0-7.2-2.9-7.2-7.2V2447c0-2.9,2.9-7.2,7.2-7.2s7.2,2.9,7.2,7.2v38.7
			C900.9,2491.4,898,2492.8,893.7,2492.8z"/>
		<path fill="#E5E5E5" d="M787.7,2349.6H749c-2.9,0-7.2-2.9-7.2-7.2c0-2.9,2.9-7.2,7.2-7.2h38.7c2.9,0,7.2,2.9,7.2,7.2
			C794.9,2345.3,790.6,2349.6,787.7,2349.6z"/>
		<path fill="#E5E5E5" d="M1038.4,2349.6h-38.7c-2.9,0-7.2-2.9-7.2-7.2c0-2.9,2.9-7.2,7.2-7.2h38.7c2.9,0,7.2,2.9,7.2,7.2
			C1045.6,2345.3,1042.7,2349.6,1038.4,2349.6z"/>
		<path fill="#E5E5E5" d="M790.6,2451.3c-1.4,0-2.9,0-4.3-1.4c-2.9-2.9-2.9-7.2,0-10l27.2-27.2c2.9-2.9,7.2-2.9,10,0
			c2.9,2.9,2.9,7.2,0,10l-27.2,27.2C794.9,2449.8,793.4,2451.3,790.6,2451.3z"/>
		<path fill="#E5E5E5" d="M968.2,2273.6c-1.4,0-2.9,0-4.3-1.4c-2.9-2.9-2.9-7.2,0-10l27.2-27.2c2.9-2.9,7.2-2.9,10,0
			c2.9,2.9,2.9,7.2,0,10l-27.2,27.2C972.5,2272.2,971.1,2273.6,968.2,2273.6L968.2,2273.6z"/>
		<path fill="#E5E5E5" d="M995.4,2451.3c-1.4,0-2.9,0-4.3-1.4l-27.2-27.2c-2.9-2.9-2.9-7.2,0-10c2.9-2.9,7.2-2.9,10,0l27.2,27.2
			c2.9,2.9,2.9,7.2,0,10C999.7,2449.8,998.3,2451.3,995.4,2451.3L995.4,2451.3z"/>
		<path fill="#E5E5E5" d="M817.8,2273.6c-1.4,0-2.9,0-4.3-1.4l-27.2-27.2c-2.9-2.9-2.9-7.2,0-10c2.9-2.9,7.2-2.9,10,0l27.2,27.2
			c2.9,2.9,2.9,7.2,0,10C822.1,2272.2,820.6,2273.6,817.8,2273.6z"/>
	</g>
</g>
<g opacity="0.18" enable-background="new    ">
	<polygon fill="#F9F9FA" points="784.8,2399.7 978.2,2253.6 988.3,2267.9 793.4,2414 	"/>
</g>
<g opacity="0.18" enable-background="new    ">
	<polygon fill="#F9F9FA" points="797.7,2419.8 989.7,2270.8 1009.7,2292.3 813.5,2439.8 	"/>
</g>
<path fill="#EAEAEA" d="M893.7,2207.7c-73.1,0-133.2,60.2-133.2,133.2s60.2,133.2,133.2,133.2s133.2-60.2,133.2-133.2
	C1026.9,2269.3,966.8,2207.7,893.7,2207.7L893.7,2207.7z M893.7,2457c-64.5,0-116-51.6-116-116s51.6-116,116-116s116,51.6,116,116
	S956.7,2457,893.7,2457z"/>
<path fill="#FFFFFF" d="M895.1,2457c-64.5,0-116-51.6-116-116s51.6-116,116-116v-17.2c-74.5,0-134.7,60.2-134.7,134.7
	c0,74.5,60.2,134.7,134.7,134.7V2457L895.1,2457z"/>
<path display="none" fill="#2F2F33" d="M2112.8,6156h-34.4v-8.6c0-2.9-1.4-5.7-5.7-5.7h-176.2c-2.9,0-5.7,1.4-5.7,5.7v64.5
	c0,2.9,1.4,5.7,5.7,5.7h174.8c2.9,0,5.7-1.4,5.7-5.7v-7.2h34.4c1.4,0,2.9-1.4,2.9-2.9v-40.1C2115.7,6156,2114.3,6156,2112.8,6156
	L2112.8,6156z"/>
<g display="none">
	<path display="inline" fill="#C6C6C5" d="M2104.3,6188.9h-114.6v-47.3h114.6c1.4,0,1.4,0,1.4,1.4v43
		C2105.7,6188.9,2105.7,6188.9,2104.3,6188.9z"/>
	<path display="inline" fill="#D3D3D3" d="M2105.7,6164.6v-20.1c0-1.4-1.4-2.9-2.9-2.9h-113.2v24.4h116L2105.7,6164.6L2105.7,6164.6
		z"/>
	
		<rect x="2085.6" y="6153.1" display="inline" opacity="0.6" fill="#47464C" enable-background="new    " width="8.6" height="8.6"/>
	
		<rect x="2085.6" y="6167.4" display="inline" opacity="0.6" fill="#47464C" enable-background="new    " width="8.6" height="8.6"/>
	<path display="inline" fill="#F3BF62" d="M2065.6,6203.2h-179.1c-1.4,0-2.9-1.4-2.9-2.9v-68.8c0-1.4,1.4-2.9,2.9-2.9h179.1
		c1.4,0,2.9,1.4,2.9,2.9v68.8C2069.9,6200.4,2067,6203.2,2065.6,6203.2z"/>
	<path display="inline" fill="#E0A95F" d="M1882.2,6196.1c0,2.9,2.9,5.7,5.7,5.7h174.8c2.9,0,5.7-2.9,5.7-5.7v-31.5h-186.2
		L1882.2,6196.1L1882.2,6196.1z"/>
</g>
<path display="none" fill="#2F2F33" d="M2137.2,6296.4c0-11.5-8.6-20.1-20.1-20.1h-96c-11.5,0-20.1,8.6-20.1,20.1v14.3
	c0,8.6,4.3,15.8,12.9,18.6c1.4,0,1.4,0,2.9,1.4h4.3h96h4.3c0,0,2.9,0,2.9-1.4c1.4,0,2.9-1.4,4.3-2.9l1.4-1.4
	c2.9-2.9,4.3-8.6,4.3-12.9L2137.2,6296.4L2137.2,6296.4z"/>
<g display="none">
	<path display="inline" fill="#DD8580" d="M2117.1,6322.2h-116c-5.7,0-10-4.3-10-10v-34.4c0-5.7,4.3-10,10-10h116
		c5.7,0,10,4.3,10,10v34.4C2128.6,6315,2122.9,6322.2,2117.1,6322.2z"/>
	<path display="inline" fill="#CC7A79" d="M1991.1,6293.5v7.2c0,11.5,8.6,20.1,20.1,20.1h96c11.5,0,20.1-8.6,20.1-20.1v-7.2H1991.1
		L1991.1,6293.5z"/>
</g>
<path display="none" fill="#2F2F33" d="M2137.2,6385.2c0-11.5-8.6-20.1-20.1-20.1h-96c-11.5,0-20.1,8.6-20.1,20.1v14.3
	c0,8.6,4.3,15.8,12.9,18.6c1.4,0,1.4,0,2.9,1.4h4.3h96h4.3c0,0,2.9,0,2.9-1.4c1.4,0,2.9-1.4,4.3-2.9l1.4-1.4
	c2.9-2.9,4.3-8.6,4.3-12.9L2137.2,6385.2L2137.2,6385.2z"/>
<g display="none">
	<path display="inline" fill="#E0D3BE" d="M2117.1,6408.1h-116c-5.7,0-10-4.3-10-10v-34.4c0-5.7,4.3-10,10-10h116
		c5.7,0,10,4.3,10,10v34.4C2128.6,6403.8,2122.9,6408.1,2117.1,6408.1z"/>
	<path display="inline" fill="#C9BEAD" d="M1991.1,6382.3v7.2c0,11.5,8.6,20.1,20.1,20.1h96c11.5,0,20.1-8.6,20.1-20.1v-7.2H1991.1
		L1991.1,6382.3z"/>
</g>
<path display="none" fill="#2F2F33" d="M1355,5976.9v-101.7c0-4.3-2.9-7.2-7.2-7.2H814.9c-4.3,0-8.6,2.9-8.6,8.6v98.8
	c0,4.3,2.9,8.6,8.6,8.6h532.9C1350.7,5984.1,1355,5981.2,1355,5976.9z M1300.6,5926.8c0-8.6,5.7-14.3,14.3-14.3s14.3,5.7,14.3,14.3
	s-5.7,14.3-14.3,14.3S1300.6,5935.4,1300.6,5926.8z"/>
<g display="none">
	<path display="inline" fill="#3DAF9C" d="M1334.9,5852.3H803.5c-4.3,0-8.6,2.9-8.6,8.6v98.8c0,4.3,2.9,8.6,8.6,8.6h532.9
		c4.3,0,7.2-2.9,7.2-7.2v-100.3C1343.5,5855.1,1339.2,5852.3,1334.9,5852.3L1334.9,5852.3z M1287.7,5912.4c0-8.6,5.7-14.3,14.3-14.3
		c8.6,0,14.3,5.7,14.3,14.3s-5.7,14.3-14.3,14.3C1294.8,5926.8,1287.7,5921,1287.7,5912.4z"/>
	<path display="inline" fill="#359A87" d="M1302,5898.1c8.6,0,14.3,5.7,14.3,14.3h25.8v-53c0-4.3-2.9-7.2-7.2-7.2H802
		c-4.3,0-8.6,2.9-8.6,8.6v51.6h494.2C1287.7,5905.3,1294.8,5898.1,1302,5898.1L1302,5898.1z"/>
	<g display="inline">
		<line fill="none" stroke="#FFFFFF" stroke-miterlimit="10" x1="1332.1" y1="5852.3" x2="1332.1" y2="5898.1"/>
		<line fill="none" stroke="#FFFFFF" stroke-miterlimit="10" x1="1254.7" y1="5852.3" x2="1254.7" y2="5898.1"/>
		<line fill="none" stroke="#FFFFFF" stroke-miterlimit="10" x1="1177.4" y1="5852.3" x2="1177.4" y2="5898.1"/>
		<line fill="none" stroke="#FFFFFF" stroke-miterlimit="10" x1="1100" y1="5852.3" x2="1100" y2="5898.1"/>
		<line fill="none" stroke="#FFFFFF" stroke-miterlimit="10" x1="1022.6" y1="5852.3" x2="1022.6" y2="5898.1"/>
		<line fill="none" stroke="#FFFFFF" stroke-miterlimit="10" x1="946.7" y1="5852.3" x2="946.7" y2="5898.1"/>
		<line fill="none" stroke="#FFFFFF" stroke-miterlimit="10" x1="869.4" y1="5852.3" x2="869.4" y2="5898.1"/>
		<line fill="none" stroke="#FFFFFF" stroke-miterlimit="10" x1="1293.4" y1="5852.3" x2="1293.4" y2="5885.2"/>
		<line fill="none" stroke="#FFFFFF" stroke-miterlimit="10" x1="1216" y1="5852.3" x2="1216" y2="5885.2"/>
		<line fill="none" stroke="#FFFFFF" stroke-miterlimit="10" x1="1138.7" y1="5852.3" x2="1138.7" y2="5885.2"/>
		<line fill="none" stroke="#FFFFFF" stroke-miterlimit="10" x1="1061.3" y1="5852.3" x2="1061.3" y2="5885.2"/>
		<line fill="none" stroke="#FFFFFF" stroke-miterlimit="10" x1="985.4" y1="5852.3" x2="985.4" y2="5885.2"/>
		<line fill="none" stroke="#FFFFFF" stroke-miterlimit="10" x1="908" y1="5852.3" x2="908" y2="5885.2"/>
		<line fill="none" stroke="#FFFFFF" stroke-miterlimit="10" x1="830.7" y1="5852.3" x2="830.7" y2="5885.2"/>
		<line fill="none" stroke="#FFFFFF" stroke-miterlimit="10" x1="1319.2" y1="5852.3" x2="1319.2" y2="5878"/>
		<line fill="none" stroke="#FFFFFF" stroke-miterlimit="10" x1="1307.7" y1="5852.3" x2="1307.7" y2="5878"/>
		<line fill="none" stroke="#FFFFFF" stroke-miterlimit="10" x1="1280.5" y1="5852.3" x2="1280.5" y2="5878"/>
		<line fill="none" stroke="#FFFFFF" stroke-miterlimit="10" x1="1269" y1="5852.3" x2="1269" y2="5878"/>
		<line fill="none" stroke="#FFFFFF" stroke-miterlimit="10" x1="1241.8" y1="5852.3" x2="1241.8" y2="5878"/>
		<line fill="none" stroke="#FFFFFF" stroke-miterlimit="10" x1="1230.4" y1="5852.3" x2="1230.4" y2="5878"/>
		<line fill="none" stroke="#FFFFFF" stroke-miterlimit="10" x1="1203.1" y1="5852.3" x2="1203.1" y2="5878"/>
		<line fill="none" stroke="#FFFFFF" stroke-miterlimit="10" x1="1191.7" y1="5852.3" x2="1191.7" y2="5878"/>
		<line fill="none" stroke="#FFFFFF" stroke-miterlimit="10" x1="1165.9" y1="5852.3" x2="1165.9" y2="5878"/>
		<line fill="none" stroke="#FFFFFF" stroke-miterlimit="10" x1="1151.6" y1="5852.3" x2="1151.6" y2="5878"/>
		<line fill="none" stroke="#FFFFFF" stroke-miterlimit="10" x1="1127.2" y1="5852.3" x2="1127.2" y2="5878"/>
		<line fill="none" stroke="#FFFFFF" stroke-miterlimit="10" x1="1114.3" y1="5852.3" x2="1114.3" y2="5878"/>
		<line fill="none" stroke="#FFFFFF" stroke-miterlimit="10" x1="1088.5" y1="5852.3" x2="1088.5" y2="5878"/>
		<line fill="none" stroke="#FFFFFF" stroke-miterlimit="10" x1="1075.6" y1="5852.3" x2="1075.6" y2="5878"/>
		<line fill="none" stroke="#FFFFFF" stroke-miterlimit="10" x1="1049.9" y1="5852.3" x2="1049.9" y2="5878"/>
		<line fill="none" stroke="#FFFFFF" stroke-miterlimit="10" x1="1037" y1="5852.3" x2="1037" y2="5878"/>
		<line fill="none" stroke="#FFFFFF" stroke-miterlimit="10" x1="1011.2" y1="5852.3" x2="1011.2" y2="5878"/>
		<line fill="none" stroke="#FFFFFF" stroke-miterlimit="10" x1="998.3" y1="5852.3" x2="998.3" y2="5878"/>
		<line fill="none" stroke="#FFFFFF" stroke-miterlimit="10" x1="972.5" y1="5852.3" x2="972.5" y2="5878"/>
		<line fill="none" stroke="#FFFFFF" stroke-miterlimit="10" x1="958.2" y1="5852.3" x2="958.2" y2="5878"/>
		<line fill="none" stroke="#FFFFFF" stroke-miterlimit="10" x1="933.8" y1="5852.3" x2="933.8" y2="5878"/>
		<line fill="none" stroke="#FFFFFF" stroke-miterlimit="10" x1="920.9" y1="5852.3" x2="920.9" y2="5878"/>
		<line fill="none" stroke="#FFFFFF" stroke-miterlimit="10" x1="895.1" y1="5852.3" x2="895.1" y2="5878"/>
		<line fill="none" stroke="#FFFFFF" stroke-miterlimit="10" x1="882.2" y1="5852.3" x2="882.2" y2="5878"/>
		<line fill="none" stroke="#FFFFFF" stroke-miterlimit="10" x1="856.5" y1="5852.3" x2="856.5" y2="5878"/>
		<line fill="none" stroke="#FFFFFF" stroke-miterlimit="10" x1="843.6" y1="5852.3" x2="843.6" y2="5878"/>
		<line fill="none" stroke="#FFFFFF" stroke-miterlimit="10" x1="817.8" y1="5852.3" x2="817.8" y2="5878"/>
		<line fill="none" stroke="#FFFFFF" stroke-miterlimit="10" x1="804.9" y1="5852.3" x2="804.9" y2="5878"/>
	</g>
</g>
<g display="none">
	<path display="inline" fill="#2F2F33" d="M1446.7,5890.9v60.2c0,11.5-8.6,20.1-20.1,20.1s-20.1-8.6-20.1-20.1v-78.8
		c0-7.2,5.7-14.3,14.3-14.3s14.3,5.7,14.3,14.3v64.5c0,4.3-4.3,8.6-8.6,8.6s-8.6-4.3-8.6-8.6v-34.4c0-1.4,0-1.4,1.4-1.4
		c1.4,0,1.4,0,1.4,1.4v34.4c0,2.9,1.4,4.3,4.3,4.3s4.3-1.4,4.3-4.3v-64.5c0-5.7-4.3-10-10-10c-5.7,0-10,4.3-10,10v78.8
		c0,8.6,7.2,15.8,15.8,15.8s15.8-7.2,15.8-15.8v-60.2c0-1.4,0-1.4,1.4-1.4C1445.3,5888.1,1446.7,5888.1,1446.7,5890.9L1446.7,5890.9
		z"/>
</g>
<g display="none">
	<path display="inline" fill="#FFFFFF" d="M1441,5892.4v60.2c0,11.5-8.6,20.1-20.1,20.1s-20.1-8.6-20.1-20.1v-78.8
		c0-7.2,5.7-14.3,14.3-14.3c7.2,0,14.3,5.7,14.3,14.3v64.5c0,4.3-4.3,8.6-8.6,8.6s-8.6-4.3-8.6-8.6v-34.4c0-1.4,0-1.4,1.4-1.4
		s1.4,0,1.4,1.4v34.4c0,2.9,1.4,4.3,4.3,4.3c2.9,0,4.3-1.4,4.3-4.3v-64.5c0-5.7-4.3-10-10-10c-5.7,0-10,4.3-10,10v78.8
		c0,8.6,7.2,15.8,15.8,15.8c8.6,0,15.8-7.2,15.8-15.8v-60.2c0-1.4,0-1.4,1.4-1.4C1441,5892.4,1441,5892.4,1441,5892.4L1441,5892.4z"
		/>
</g>
<g display="none">
	<path display="inline" fill="#2F2F33" d="M1516.9,5890.9v60.2c0,11.5-8.6,20.1-20.1,20.1s-20.1-8.6-20.1-20.1v-78.8
		c0-7.2,5.7-14.3,14.3-14.3c7.2,0,14.3,5.7,14.3,14.3v64.5c0,4.3-4.3,8.6-8.6,8.6s-8.6-4.3-8.6-8.6v-34.4c0-1.4,0-1.4,1.4-1.4
		s1.4,0,1.4,1.4v34.4c0,2.9,1.4,4.3,4.3,4.3c2.9,0,4.3-1.4,4.3-4.3v-64.5c0-5.7-4.3-10-10-10c-5.7,0-10,4.3-10,10v78.8
		c0,8.6,7.2,15.8,15.8,15.8c8.6,0,15.8-7.2,15.8-15.8v-60.2c0-1.4,0-1.4,1.4-1.4C1516.9,5888.1,1516.9,5888.1,1516.9,5890.9
		L1516.9,5890.9z"/>
</g>
<g display="none">
	<path display="inline" fill="#FFFFFF" d="M1512.6,5892.4v60.2c0,11.5-8.6,20.1-20.1,20.1s-20.1-8.6-20.1-20.1v-78.8
		c0-7.2,5.7-14.3,14.3-14.3c7.2,0,14.3,5.7,14.3,14.3v64.5c0,4.3-4.3,8.6-8.6,8.6s-8.6-4.3-8.6-8.6v-34.4c0-1.4,0-1.4,1.4-1.4
		s1.4,0,1.4,1.4v34.4c0,2.9,1.4,4.3,4.3,4.3c2.9,0,4.3-1.4,4.3-4.3v-64.5c0-5.7-4.3-10-10-10s-10,4.3-10,10v78.8
		c0,8.6,7.2,15.8,15.8,15.8c8.6,0,15.8-7.2,15.8-15.8v-60.2c0-1.4,0-1.4,1.4-1.4C1511.2,5892.4,1512.6,5892.4,1512.6,5892.4
		L1512.6,5892.4z"/>
</g>
<path fill="#2F2F33" d="M2075.6,1785.1v2.9h44.4c4.3,0,8.6,2.9,8.6,8.6v1.4c0,0,0,2.9-1.4,4.3c-1.4,1.4-2.9,1.4-5.7,1.4H2077
	c0,2.9-1.4,4.3-4.3,4.3h-71.6c-2.9,0-4.3-1.4-4.3-4.3v-2.9h-298c-10,0-17.2,7.2-17.2,17.2c0,10,7.2,17.2,17.2,17.2h404
	c15.8,0,30.1,12.9,30.1,30.1c0,15.8-12.9,30.1-30.1,30.1h-405.4c-10,0-17.2,7.2-17.2,17.2c0,10,7.2,17.2,17.2,17.2h404
	c15.8,0,30.1,12.9,30.1,30.1c0,15.8-12.9,30.1-30.1,30.1H1696c-10,0-17.2,7.2-17.2,17.2c0,10,7.2,17.2,17.2,17.2h32.9
	c0-4.3,4.3-8.6,10-8.6h83.1c4.3,0,8.6,2.9,10,8.6h166.2c0,0,25.8-1.4,25.8,22.9v58.7h2.9c1.4,0,1.4,0,1.4,1.4v41.5
	c0,0,0,1.4,1.4,1.4c2.9-1.4,7.2-1.4,11.5-1.4c10,0,20.1,4.3,27.2,11.5c1.4,1.4,2.9,4.3,2.9,7.2v38.7c0,2.9,0,5.7-2.9,7.2
	c-8.6,8.6-20.1,12.9-32.9,10c-17.2-1.4-30.1-15.8-31.5-32.9v-2.9v-80.2c0-1.4,0-1.4,1.4-1.4h4.3v-58.7c0,0-2.9-10-12.9-10H1918
	c1.4,0,12.9,0,12.9,14.3v54.4h2.9c0,0,1.4,0,1.4,1.4v41.5c0,0,0,1.4,1.4,1.4c2.9-1.4,7.2-1.4,11.5-1.4c10,0,20.1,4.3,27.2,11.5
	c1.4,1.4,2.9,4.3,2.9,7.2v38.7c0,2.9,0,5.7-2.9,7.2c-8.6,8.6-20.1,12.9-32.9,10c-17.2-1.4-30.1-15.8-31.5-32.9v-2.9v-80.2
	c0,0,0-1.4,1.4-1.4h5.7v-55.9c0,0,0-11.5-14.3-14.3h-71.6c0,4.3-4.3,8.6-10,8.6h-83.1c-4.3,0-8.6-2.9-10-8.6H1696
	c-15.8,0-30.1-12.9-30.1-30.1c0-17.2,12.9-30.1,30.1-30.1h408.3c10,0,17.2-7.2,17.2-17.2s-7.2-17.2-17.2-17.2h-406.9
	c-15.8,0-30.1-12.9-30.1-30.1c0-15.8,12.9-30.1,30.1-30.1h404c10,0,17.2-7.2,17.2-17.2s-7.2-17.2-17.2-17.2H1696
	c-15.8,0-30.1-12.9-30.1-30.1c0-15.8,12.9-30.1,30.1-30.1h296.5v-2.9c0-2.9,1.4-4.3,4.3-4.3h71.6
	C2074.2,1780.8,2075.6,1782.3,2075.6,1785.1L2075.6,1785.1z"/>
<path fill="#F9F9FA" d="M2064.1,1795.2v-21.5c0-1.4-1.4-2.9-2.9-2.9h-73.1c-1.4,0-2.9,1.4-2.9,2.9v21.5c0,1.4,1.4,2.9,2.9,2.9h73.1
	C2062.7,1799.4,2064.1,1796.6,2064.1,1795.2z"/>
<path fill="#F9F9FA" d="M1822,2024.4V2010c0-4.3-2.9-7.2-7.2-7.2h-87.4c-4.3,0-7.2,2.9-7.2,7.2v14.3c0,4.3,2.9,7.2,7.2,7.2h87.4
	C1819.2,2033,1822,2028.7,1822,2024.4z"/>
<path fill="#F9F9FA" d="M2026.9,2212c-17.2-1.4-30.1-15.8-31.5-32.9v-2.9V2096c0-1.4,0-1.4,1.4-1.4h20.1c1.4,0,1.4,0,1.4,1.4v41.5
	c0,0,0,1.4,1.4,1.4c2.9-1.4,7.2-1.4,11.5-1.4c10,0,20.1,4.3,27.2,11.5c1.4,1.4,2.9,4.3,2.9,7.2v38.7c0,2.9,0,5.7-2.9,7.2
	C2051.2,2207.7,2039.8,2213.5,2026.9,2212L2026.9,2212z"/>
<path fill="#F9F9FA" d="M1933.8,2212c-17.2-1.4-30.1-15.8-31.5-32.9v-2.9V2096c0,0,0-1.4,1.4-1.4h21.5c0,0,1.4,0,1.4,1.4v41.5
	c0,0,0,1.4,1.4,1.4c2.9-1.4,7.2-1.4,11.5-1.4c10,0,20.1,4.3,27.2,11.5c1.4,1.4,2.9,4.3,2.9,7.2v38.7c0,2.9,0,5.7-2.9,7.2
	C1958.1,2207.7,1946.7,2213.5,1933.8,2212L1933.8,2212z"/>
<path fill="#F9F9FA" d="M1920.9,2035.8v58.7H1908v-58.7c0,0,0-12.9-14.3-14.3h-209.2c-15.8,0-30.1-12.9-30.1-30.1
	c0-15.8,12.9-30.1,30.1-30.1h405.4c10,0,17.2-7.2,17.2-17.2c0-10-7.2-17.2-17.2-17.2h-405.4c-15.8,0-30.1-12.9-30.1-30.1
	c0-15.8,12.9-30.1,30.1-30.1h405.4c10,0,17.2-7.2,17.2-17.2c0-10-7.2-17.2-17.2-17.2h-405.4c-15.8,0-30.1-12.9-30.1-30.1
	c0-15.8,12.9-30.1,30.1-30.1h298v12.9h-298c-10,0-17.2,7.2-17.2,17.2c0,10,7.2,17.2,17.2,17.2h405.4c15.8,0,30.1,12.9,30.1,30.1
	s-12.9,30.1-30.1,30.1h-405.4c-10,0-17.2,7.2-17.2,17.2c0,10,7.2,17.2,17.2,17.2h404c15.8,0,30.1,12.9,30.1,30.1
	c0,15.8-12.9,30.1-30.1,30.1h-405.4c-10,0-17.2,7.2-17.2,17.2c0,10,7.2,17.2,17.2,17.2h300.8c0,0,25.8-1.4,25.8,22.9v61.6h-12.9v-63
	c0,0-2.9-10-12.9-10h-74.5C1915.1,2024.4,1920.9,2025.8,1920.9,2035.8L1920.9,2035.8z"/>
<path fill="#D7D7D6" d="M2117.1,1785.1v-4.3c0-2.9-2.9-5.7-5.7-5.7h-47.3v15.8h47.3C2114.3,1792.3,2117.1,1789.4,2117.1,1785.1
	L2117.1,1785.1z"/>
<path fill="#C4C4C3" d="M2064.1,1785.1h53c0,4.3-2.9,8.6-8.6,8.6h-44.4L2064.1,1785.1L2064.1,1785.1z"/>
<polygon fill="#E5E5E5" points="2014,2091.7 2001.1,2090.3 2001.1,2091.7 "/>
<polygon fill="#E5E5E5" points="1920.9,2091.7 1909.4,2090.3 1909.4,2091.7 "/>
<polygon fill="#E5E5E5" points="1982.5,1789.4 1979.6,1775.1 1982.5,1775.1 "/>
<path fill="#E5E5E5" d="M1718.9,2024.4l-4.3-12.9h4.3V2024.4z"/>
<path fill="#E5E5E5" d="M1913.7,2024.4l-10,1.4c0,0-1.4-1.4-7.2-1.4H1913.7z"/>
<path fill="#B1876B" d="M663.1,1336.7H61.4c-10,0-17.2-7.2-17.2-17.2v-134.7c0-10,7.2-17.2,17.2-17.2h601.7c10,0,17.2,7.2,17.2,17.2
	v134.7C680.3,1326.7,673.1,1336.7,663.1,1336.7z"/>
<rect x="280.6" y="1209.2" fill="#FFFFFF" width="164.7" height="87.4"/>
<rect x="280.6" y="1269.4" fill="none" width="15.8" height="15.8"/>
<rect x="287.7" y="1269.4" fill="#CFCECE" width="1.4" height="2.9"/>
<rect x="287.7" y="1276.6" fill="#CFCECE" width="1.4" height="2.9"/>
<rect x="287.7" y="1280.8" fill="#CFCECE" width="1.4" height="2.9"/>
<rect x="280.6" y="1255.1" fill="none" width="15.8" height="15.8"/>
<rect x="287.7" y="1255.1" fill="#CFCECE" width="1.4" height="2.9"/>
<rect x="287.7" y="1259.4" fill="#CFCECE" width="1.4" height="2.9"/>
<rect x="287.7" y="1266.5" fill="#CFCECE" width="1.4" height="2.9"/>
<rect x="280.6" y="1237.9" fill="none" width="15.8" height="15.8"/>
<rect x="287.7" y="1240.7" fill="#CFCECE" width="1.4" height="2.9"/>
<rect x="287.7" y="1245" fill="#CFCECE" width="1.4" height="2.9"/>
<rect x="287.7" y="1250.8" fill="#CFCECE" width="1.4" height="2.9"/>
<rect x="280.6" y="1223.5" fill="none" width="15.8" height="15.8"/>
<rect x="287.7" y="1226.4" fill="#CFCECE" width="1.4" height="2.9"/>
<rect x="287.7" y="1230.7" fill="#CFCECE" width="1.4" height="2.9"/>
<rect x="287.7" y="1236.4" fill="#CFCECE" width="1.4" height="2.9"/>
<rect x="294.9" y="1207.8" fill="none" width="12.9" height="15.8"/>
<rect x="304.9" y="1214.9" fill="#CFCECE" width="1.4" height="1.4"/>
<rect x="300.6" y="1214.9" fill="#CFCECE" width="1.4" height="1.4"/>
<rect x="296.3" y="1214.9" fill="#CFCECE" width="1.4" height="1.4"/>
<rect x="307.8" y="1207.8" fill="none" width="12.9" height="15.8"/>
<rect x="317.8" y="1214.9" fill="#CFCECE" width="1.4" height="1.4"/>
<rect x="313.5" y="1214.9" fill="#CFCECE" width="1.4" height="1.4"/>
<rect x="309.2" y="1214.9" fill="#CFCECE" width="1.4" height="1.4"/>
<rect x="322.1" y="1207.8" fill="none" width="12.9" height="15.8"/>
<rect x="332.1" y="1214.9" fill="#CFCECE" width="1.4" height="1.4"/>
<rect x="327.8" y="1214.9" fill="#CFCECE" width="1.4" height="1.4"/>
<rect x="323.5" y="1214.9" fill="#CFCECE" width="1.4" height="1.4"/>
<rect x="335" y="1207.8" fill="none" width="12.9" height="15.8"/>
<rect x="345" y="1214.9" fill="#CFCECE" width="1.4" height="1.4"/>
<rect x="340.7" y="1214.9" fill="#CFCECE" width="1.4" height="1.4"/>
<rect x="336.4" y="1214.9" fill="#CFCECE" width="1.4" height="1.4"/>
<rect x="349.3" y="1207.8" fill="none" width="12.9" height="15.8"/>
<rect x="359.3" y="1214.9" fill="#CFCECE" width="1.4" height="1.4"/>
<rect x="353.6" y="1214.9" fill="#CFCECE" width="1.4" height="1.4"/>
<rect x="349.3" y="1214.9" fill="#CFCECE" width="1.4" height="1.4"/>
<rect x="362.2" y="1207.8" fill="none" width="12.9" height="15.8"/>
<rect x="372.2" y="1214.9" fill="#CFCECE" width="1.4" height="1.4"/>
<rect x="367.9" y="1214.9" fill="#CFCECE" width="1.4" height="1.4"/>
<rect x="363.6" y="1214.9" fill="#CFCECE" width="1.4" height="1.4"/>
<rect x="376.5" y="1207.8" fill="none" width="12.9" height="15.8"/>
<rect x="385.1" y="1214.9" fill="#CFCECE" width="1.4" height="1.4"/>
<rect x="380.8" y="1214.9" fill="#CFCECE" width="1.4" height="1.4"/>
<rect x="376.5" y="1214.9" fill="#CFCECE" width="1.4" height="1.4"/>
<rect x="389.4" y="1207.8" fill="none" width="12.9" height="15.8"/>
<rect x="399.5" y="1214.9" fill="#CFCECE" width="1.4" height="1.4"/>
<rect x="395.2" y="1214.9" fill="#CFCECE" width="1.4" height="1.4"/>
<rect x="389.4" y="1214.9" fill="#CFCECE" width="1.4" height="1.4"/>
<rect x="402.3" y="1207.8" fill="none" width="12.9" height="15.8"/>
<rect x="412.4" y="1214.9" fill="#CFCECE" width="1.4" height="1.4"/>
<rect x="408.1" y="1214.9" fill="#CFCECE" width="1.4" height="1.4"/>
<rect x="403.8" y="1214.9" fill="#CFCECE" width="1.4" height="1.4"/>
<rect x="415.2" y="1207.8" fill="none" width="12.9" height="15.8"/>
<rect x="425.2" y="1214.9" fill="#CFCECE" width="1.4" height="1.4"/>
<rect x="421" y="1214.9" fill="#CFCECE" width="1.4" height="1.4"/>
<rect x="416.7" y="1214.9" fill="#CFCECE" width="1.4" height="1.4"/>
<rect x="429.5" y="1223.5" fill="none" width="15.8" height="15.8"/>
<rect x="435.3" y="1236.4" fill="#CFCECE" width="1.4" height="2.9"/>
<rect x="435.3" y="1230.7" fill="#CFCECE" width="1.4" height="2.9"/>
<rect x="435.3" y="1226.4" fill="#CFCECE" width="1.4" height="2.9"/>
<rect x="429.5" y="1237.9" fill="none" width="15.8" height="15.8"/>
<rect x="435.3" y="1250.8" fill="#CFCECE" width="1.4" height="2.9"/>
<rect x="435.3" y="1245" fill="#CFCECE" width="1.4" height="2.9"/>
<rect x="435.3" y="1240.7" fill="#CFCECE" width="1.4" height="2.9"/>
<rect x="429.5" y="1255.1" fill="none" width="15.8" height="15.8"/>
<rect x="435.3" y="1266.5" fill="#CFCECE" width="1.4" height="2.9"/>
<rect x="435.3" y="1259.4" fill="#CFCECE" width="1.4" height="2.9"/>
<rect x="435.3" y="1255.1" fill="#CFCECE" width="1.4" height="2.9"/>
<rect x="429.5" y="1269.4" fill="none" width="15.8" height="15.8"/>
<rect x="435.3" y="1280.8" fill="#CFCECE" width="1.4" height="2.9"/>
<rect x="435.3" y="1276.6" fill="#CFCECE" width="1.4" height="2.9"/>
<rect x="435.3" y="1269.4" fill="#CFCECE" width="1.4" height="2.9"/>
<rect x="415.2" y="1283.7" fill="none" width="12.9" height="15.8"/>
<rect x="416.7" y="1290.9" fill="#CFCECE" width="1.4" height="1.4"/>
<rect x="421" y="1290.9" fill="#CFCECE" width="1.4" height="1.4"/>
<rect x="425.2" y="1290.9" fill="#CFCECE" width="1.4" height="1.4"/>
<rect x="402.3" y="1283.7" fill="none" width="12.9" height="15.8"/>
<rect x="403.8" y="1290.9" fill="#CFCECE" width="1.4" height="1.4"/>
<rect x="408.1" y="1290.9" fill="#CFCECE" width="1.4" height="1.4"/>
<rect x="412.4" y="1290.9" fill="#CFCECE" width="1.4" height="1.4"/>
<rect x="389.4" y="1283.7" fill="none" width="12.9" height="15.8"/>
<rect x="389.4" y="1290.9" fill="#CFCECE" width="1.4" height="1.4"/>
<rect x="395.2" y="1290.9" fill="#CFCECE" width="1.4" height="1.4"/>
<rect x="399.5" y="1290.9" fill="#CFCECE" width="1.4" height="1.4"/>
<rect x="376.5" y="1283.7" fill="none" width="12.9" height="15.8"/>
<rect x="376.5" y="1290.9" fill="#CFCECE" width="1.4" height="1.4"/>
<rect x="380.8" y="1290.9" fill="#CFCECE" width="1.4" height="1.4"/>
<rect x="385.1" y="1290.9" fill="#CFCECE" width="1.4" height="1.4"/>
<rect x="362.2" y="1283.7" fill="none" width="12.9" height="15.8"/>
<rect x="363.6" y="1290.9" fill="#CFCECE" width="1.4" height="1.4"/>
<rect x="367.9" y="1290.9" fill="#CFCECE" width="1.4" height="1.4"/>
<rect x="372.2" y="1290.9" fill="#CFCECE" width="1.4" height="1.4"/>
<rect x="349.3" y="1283.7" fill="none" width="12.9" height="15.8"/>
<rect x="349.3" y="1290.9" fill="#CFCECE" width="1.4" height="1.4"/>
<rect x="353.6" y="1290.9" fill="#CFCECE" width="1.4" height="1.4"/>
<rect x="359.3" y="1290.9" fill="#CFCECE" width="1.4" height="1.4"/>
<rect x="335" y="1283.7" fill="none" width="12.9" height="15.8"/>
<rect x="336.4" y="1290.9" fill="#CFCECE" width="1.4" height="1.4"/>
<rect x="340.7" y="1290.9" fill="#CFCECE" width="1.4" height="1.4"/>
<rect x="345" y="1290.9" fill="#CFCECE" width="1.4" height="1.4"/>
<rect x="322.1" y="1283.7" fill="none" width="12.9" height="15.8"/>
<rect x="323.5" y="1290.9" fill="#CFCECE" width="1.4" height="1.4"/>
<rect x="327.8" y="1290.9" fill="#CFCECE" width="1.4" height="1.4"/>
<rect x="332.1" y="1290.9" fill="#CFCECE" width="1.4" height="1.4"/>
<rect x="307.8" y="1283.7" fill="none" width="12.9" height="15.8"/>
<rect x="309.2" y="1290.9" fill="#CFCECE" width="1.4" height="1.4"/>
<rect x="313.5" y="1290.9" fill="#CFCECE" width="1.4" height="1.4"/>
<rect x="317.8" y="1290.9" fill="#CFCECE" width="1.4" height="1.4"/>
<rect x="294.9" y="1283.7" fill="none" width="12.9" height="15.8"/>
<rect x="296.3" y="1290.9" fill="#CFCECE" width="1.4" height="1.4"/>
<rect x="300.6" y="1290.9" fill="#CFCECE" width="1.4" height="1.4"/>
<rect x="304.9" y="1290.9" fill="#CFCECE" width="1.4" height="1.4"/>
<rect x="287.7" y="1219.2" fill="#CFCECE" width="1.4" height="2.9"/>
<polygon fill="#CFCECE" points="287.7,1216.4 287.7,1219.2 289.2,1219.2 289.2,1216.4 289.2,1216.4 289.2,1216.4 "/>
<rect x="292" y="1214.9" fill="#CFCECE" width="1.4" height="1.4"/>
<rect x="431" y="1214.9" fill="#CFCECE" width="2.9" height="1.4"/>
<polygon fill="#CFCECE" points="438.1,1216.4 435.3,1216.4 435.3,1216.4 435.3,1216.4 435.3,1219.2 438.1,1219.2 "/>
<rect x="435.3" y="1219.2" fill="#CFCECE" width="1.4" height="1.4"/>
<rect x="436.7" y="1285.1" fill="#CFCECE" width="1.4" height="2.9"/>
<polygon fill="#CFCECE" points="438.1,1293.7 438.1,1290.9 436.7,1290.9 436.7,1290.9 435.3,1290.9 435.3,1293.7 "/>
<rect x="431" y="1290.9" fill="#CFCECE" width="1.4" height="1.4"/>
<rect x="292" y="1290.9" fill="#CFCECE" width="2.9" height="1.4"/>
<polygon fill="#CFCECE" points="287.7,1293.7 289.2,1293.7 289.2,1290.9 289.2,1290.9 289.2,1290.9 287.7,1290.9 "/>
<rect x="287.7" y="1285.1" fill="#CFCECE" width="1.4" height="1.4"/>
<rect x="314.9" y="1240.7" fill="#CFCECE" width="93.1" height="8.6"/>
<rect x="333.6" y="1257.9" fill="#CFCECE" width="57.3" height="8.6"/>
<g opacity="0.11" enable-background="new    ">
	<path fill="#FFFFFF" d="M2995.3,2520c8.6,8.6,20.1,14.3,34.4,14.3h1127.5c27.2,0,47.3-21.5,47.3-47.3V803.8
		c0-8.6-1.4-15.8-5.7-22.9L2995.3,2520L2995.3,2520z"/>
</g>
<g id="vvIP4h.tif_1_" opacity="0.43">
	<path fill="#D3D3D3" d="M2412.3,892.6h4.3c0,0,4.3,0,5.7,1.4c5.7,1.4,11.5,5.7,12.9,11.5c1.4,4.3,0,8.6,0,12.9v10
		c0,1.4,1.4,4.3,1.4,5.7c0,5.7-1.4,12.9-7.2,15.8c-2.9-4.3-8.6-7.2-14.3-7.2c-5.7,0-11.5,4.3-12.9,10c-4.3-1.4-8.6-4.3-12.9-7.2
		c-5.7-4.3-7.2-8.6-4.3-14.3v-2.9c0,0,0-4.3,0-7.2c0-1.4-1.4-4.3-1.4-7.2v-2.9c0-2.9,2.9-5.7,4.3-7.2c4.3-2.9,8.6-5.7,14.3-8.6
		C2406.5,894,2409.4,894,2412.3,892.6z"/>
	<path fill="#D3D3D3" d="M2455.2,937h-8.6c-5.7-1.4-8.6-7.2-8.6-12.9c5.7,0,12.9,2.9,14.3,8.6C2455.2,932.7,2455.2,932.7,2455.2,937
		L2455.2,937L2455.2,937z"/>
</g>
<path fill="#38373D" d="M1446.7,954.2V809.5c0-7.2-5.7-12.9-12.9-12.9h-596c-7.2,0-12.9,5.7-12.9,12.9v146.1h621.7V954.2z"/>
<g opacity="0.32" enable-background="new    ">
	<path fill="#47464C" d="M824.9,954.2h621.7V809.5c0-2.9-2.9-7.2-5.7-8.6L824.9,954.2L824.9,954.2z"/>
</g>
<rect x="1240.4" y="954.2" fill="#313035" width="2.9" height="154.7"/>
<rect x="1029.8" y="954.2" fill="#313035" width="2.9" height="154.7"/>
<path fill="#7A7A7A" d="M935.3,1789.4h-20.1c-1.4,0-1.4-1.4-1.4-1.4l1.4-1.4h20.1c1.4,0,1.4,1.4,1.4,1.4S936.7,1789.4,935.3,1789.4z
	"/>
<path fill="#7A7A7A" d="M941,1818.1c-1.4,0-1.4-1.4-1.4-1.4v-20.1c0-1.4,1.4-1.4,1.4-1.4l1.4,1.4v20.1
	C942.4,1818.1,941,1818.1,941,1818.1z"/>
<path fill="#7A7A7A" d="M941,1204.9C939.6,1204.9,939.6,1203.5,941,1204.9l-1.4-21.5c0-1.4,1.4-1.4,1.4-1.4l1.4,1.4L941,1204.9
	C942.4,1202.1,941,1204.9,941,1204.9z"/>
<path fill="#7A7A7A" d="M935.3,1212.1h-20.1c-1.4,0-1.4-1.4-1.4-1.4h1.4h20.1C936.7,1210.7,936.7,1212.1,935.3,1212.1
	C936.7,1212.1,936.7,1212.1,935.3,1212.1z"/>
</svg>
