<?xml version="1.0" encoding="utf-8"?>
<!-- Generator: Adobe Illustrator 18.0.0, SVG Export Plug-In . SVG Version: 6.00 Build 0)  -->
<!DOCTYPE svg PUBLIC "-//W3C//DTD SVG 1.1//EN" "http://www.w3.org/Graphics/SVG/1.1/DTD/svg11.dtd">
<svg version="1.1" id="Layer_1" xmlns="http://www.w3.org/2000/svg" xmlns:xlink="http://www.w3.org/1999/xlink" x="0px" y="0px"
	 viewBox="0 0 576 576" enable-background="new 0 0 576 576" xml:space="preserve">
<rect x="0.2" y="-0.4" fill="#FCB958" width="575.7" height="576.1"/>
<g>
	<ellipse opacity="0.3" fill="#E0923E" cx="273" cy="430.6" rx="216.3" ry="5.6"/>
	<path fill="#3F4040" d="M456.1,381.7c3.2-5.1,1.9-9.4,1.9-14.6c0-23.2-18.8-42-42-42c-23.2,0-42,18.8-42,42c0,5.2-0.7,19.4,4.2,23
		L456.1,381.7z"/>
	<path fill="#D2D4D5" d="M498.1,336.3l-9.2,22.5l-4.2,10.3l-27.6,13.5c-0.2,0.1-0.3,0.1-0.5,0.1c-0.8,0,0.3-1.1,0.6-1.8
		c1.7-4.1,1.1-7.2,1.1-11.8c0-19.4-19.4-37.9-42-37.9c-9,0-16.9,2.6-23.3,6.8c0.1,0,0.1,0,0.2-0.1c0,0-27.3,15.9-15.9,49.8l-208.4,0
		c2.6-10.3,0.4-19.5,0.4-19.5l0,0c-3.8-16.8-18.7-28.9-36.5-28.7c-20.5,0.2-36.8,17.4-36.8,37.8c0,1.8,0,3.5,0,5.3H57.7
		c-0.7,0-1.4-0.5-1.6-1.2c-0.2-0.8,0.2-1.5,0.9-1.8l5.7-2.1c0.2-0.1,0.3-0.2,0.3-0.4l-0.4-6.7c0-0.2,0.4-1.4,0.2-1.4l-12.5-10.1
		h36.1l0.1-11.9L55.9,347v-15.5c1.1-1.8,3.4-1.6,4-3.3L193,313.5l102.6-32.9c1.1-0.4,2.3-0.6,3.6-0.6l83.6,0l114.1,27
		c1.7,0.4,0.5,4.1,1,5.8l0.1,18.1L498.1,336.3z"/>
	<path fill="#5C5C5C" d="M379.5,313.1h93c1.6,0,2.9-1.3,2.9-2.9v0c0-1.4-0.9-2.6-2.3-2.9l-90.7-21.1h-7.1
		C375.4,286.2,379.4,313,379.5,313.1z"/>
	<path fill="#231F20" d="M438.3,293.3l52.6-23.9c1.2-0.6,2.7-0.1,3.3,1.1c2.8,5.2,9.2,19.7,3,37.5c0,0-0.5-0.7-1.8-1L438.3,293.3
		L438.3,293.3z"/>
	<polygon fill="#CACACB" points="441.8,284 451.8,284 461.9,299.5 435.7,293.3 	"/>
	<rect x="441.9" y="272.3" fill="#ADADAD" width="9.9" height="10.8"/>
	<rect x="441.9" y="272.3" fill="#CACACB" width="5.2" height="10.8"/>
	<path fill="#959595" d="M451.8,275.1c-1.2,0.4-2,1.5-2,2.8c0,1.3,0.9,2.4,2,2.8V275.1z"/>
	<polygon fill="#ADADAD" points="461.6,298.8 451.8,284 447,284 446.9,295.3 	"/>
	<path fill="#3F4040" d="M168,390.1c2.3-2.8,3.5-7.9,3.2-15.9c-0.7-24.4-17.1-38.1-38.1-38.1c-21.1,0-38.1,17.1-38.1,38.1
		c0,2.8-2.6,5.5-2,8.1L168,390.1z"/>
	<path fill="#82AFB5" d="M354.7,287.7v27c0,1-0.8,1.8-1.8,1.8H238.5v-10.7l56.2-19.4c1-0.4,2.1-0.6,3.2-0.6h54.9
		C353.8,285.9,354.7,286.7,354.7,287.7z"/>
	<circle fill="#2A2B2A" cx="133" cy="375.7" r="33.5"/>
	<g opacity="0.84">
		<circle fill="#3A3A3A" cx="133" cy="375.7" r="22.1"/>
	</g>
	<g>
		<path fill="#686969" d="M133,400.6c-13.7,0-24.8-11.1-24.8-24.8c0-13.7,11.1-24.8,24.8-24.8s24.8,11.1,24.8,24.8
			C157.9,389.4,146.7,400.6,133,400.6z M133,355.3c-11.3,0-20.5,9.2-20.5,20.5c0,11.3,9.2,20.5,20.5,20.5s20.5-9.2,20.5-20.5
			C153.5,364.4,144.3,355.3,133,355.3z"/>
	</g>
	<g>
		<path fill="#231F20" d="M133,389.5c-7.6,0-13.8-6.2-13.8-13.8c0-7.6,6.2-13.8,13.8-13.8c7.6,0,13.8,6.2,13.8,13.8
			C146.8,383.3,140.6,389.5,133,389.5z M133,365.6c-5.6,0-10.2,4.6-10.2,10.2c0,5.6,4.6,10.2,10.2,10.2c5.6,0,10.2-4.6,10.2-10.2
			C143.2,370.1,138.7,365.6,133,365.6z"/>
	</g>
	<circle opacity="0.75" fill="#2A2B2A" cx="350.2" cy="325.9" r="2"/>
	<path fill="#2A2B2A" d="M63.7,344.1v-16.4l-3.1,0.4c-1.6,0.2-2.6,0.6-3.1,0.8c-1.4,0.8-2.3,1.9-2.9,3c-0.2,0.4-0.6,1.3-1.1,2.7l0,0
		c-2.8,7.8-9.6,12.2-10,12.5l0,0l13.6,0h53.7c1.2-0.9,2.7-1.9,4.4-2.9H63.7z"/>
	<g>
		<path fill="#282425" d="M510.6,364.3L510.6,364.3c1.3,0,2.4,1.1,2.4,2.4c0,1.3-1.1,2.4-2.4,2.4l0,0c-1.3,0-2.4-1.1-2.4-2.4
			C508.2,365.4,509.3,364.3,510.6,364.3z"/>
	</g>
	<g>
		<path fill="#282425" d="M532.8,354.6L532.8,354.6c1.3,0,2.4,1.1,2.4,2.4c0,1.3-1.1,2.4-2.4,2.4l0,0c-1.3,0-2.4-1.1-2.4-2.4
			C530.4,355.7,531.5,354.6,532.8,354.6z"/>
	</g>
	<g>
		<path fill="#282425" d="M520.4,297.4L520.4,297.4c1.3,0,2.4,1.1,2.4,2.4c0,1.3-1.1,2.4-2.4,2.4l0,0c-1.3,0-2.4-1.1-2.4-2.4
			C518,298.5,519.1,297.4,520.4,297.4z"/>
	</g>
	<path fill="#3F4040" d="M473.2,307.3l-61.8-14.3l29.4,20.1h31.7c1.6,0,2.9-1.3,2.9-2.9C475.5,308.8,474.5,307.6,473.2,307.3z"/>
	<path fill="#D74022" d="M395.7,299.2h-7.1c-0.3,0-0.5,0.2-0.5,0.5v5.8c0,0.3,0.2,0.5,0.5,0.5h7.1c0.3,0,0.5-0.2,0.5-0.5v-5.8
		C396.2,299.5,395.9,299.2,395.7,299.2z"/>
	<path fill="#D74022" d="M405.7,299.2h-7.1c-0.3,0-0.5,0.2-0.5,0.5v5.8c0,0.3,0.2,0.5,0.5,0.5h7.1c0.3,0,0.5-0.2,0.5-0.5v-5.8
		C406.2,299.5,406,299.2,405.7,299.2z"/>
	<path fill="#D74022" d="M415.8,299.2h-7.1c-0.3,0-0.5,0.2-0.5,0.5v5.8c0,0.3,0.2,0.5,0.5,0.5h7.1c0.3,0,0.5-0.2,0.5-0.5v-5.8
		C416.3,299.5,416.1,299.2,415.8,299.2z"/>
	<circle fill="#A9ACAD" cx="392.1" cy="305.7" r="4.1"/>
	<circle fill="#454748" cx="392.1" cy="305.7" r="2.4"/>
	<circle fill="#A9ACAD" cx="402.1" cy="305.7" r="4.1"/>
	<circle fill="#A9ACAD" cx="412.2" cy="305.7" r="4.1"/>
	<circle fill="#454748" cx="402.1" cy="305.7" r="2.4"/>
	<circle fill="#454748" cx="412.1" cy="305.7" r="2.4"/>
	<path fill="none" stroke="#282425" stroke-miterlimit="10" d="M92,380.3"/>
	<path fill="#2A2B2A" d="M169.9,380.9c0,0-0.6,6.5-2,9.3l210.2,0c0,0-1.9-5.3-2.7-9.4L169.9,380.9z"/>
	<path fill="#2A2B2A" d="M95.9,382.6l-32.2-20v-3.7H50.3l0.2,0.1h-3c0,0,6.9,3,12.8,8.9l0,0c0,0,2.1,1.8,2.3,4.9c0,0.1,0,0.1,0,0.2
		l0,0.8c0,0,0,0,0,0l0,0l0,1.1c0,0,0.2,2.5-2.7,3.6l0,0l-2.8,1.1c-0.7,0.3-1.1,1.1-0.9,1.8c0.2,0.7,0.9,1.2,1.6,1.2h7.4l0,0
		L95.9,382.6z"/>
	<path fill="#787E81" d="M86.8,359h-42c-0.7,0-1.3-0.6-1.3-1.3V347h43.3V359z"/>
	<path fill="#D74022" d="M92.7,359.7H76.1c-0.3,0-0.5-0.2-0.5-0.5v-17.2c0-0.3,0.2-0.5,0.5-0.5h16.7c0.3,0,0.5,0.2,0.5,0.5v17.2
		C93.2,359.5,93,359.7,92.7,359.7z"/>
	<path fill="#2A2B2A" d="M92.8,359.7H76c-0.2,0-0.4-0.2-0.4-0.4v-2.9h17.6v2.9C93.2,359.5,93,359.7,92.8,359.7z"/>
	<rect x="77.9" y="338.7" fill="#2A2B2A" width="4.5" height="3"/>
	<rect x="77.9" y="337.9" fill="#F2F2F2" width="4.5" height="1.2"/>
	<path fill="#E0E0E0" d="M411.9,286.9l1.6-2.4c0.2-0.3,0.6-0.5,1-0.5h19c0.9,0,1.7,0.7,1.8,1.6l0.5,7L411.9,286.9z"/>
	<circle fill="#A1A2A2" cx="416.2" cy="285.9" r="1.2"/>
	<circle fill="#767676" cx="416.2" cy="285.9" r="0.9"/>
	<circle fill="#A1A2A2" cx="424" cy="286.5" r="1.2"/>
	<circle fill="#767676" cx="424" cy="286.5" r="0.9"/>
	<circle fill="#A1A2A2" cx="431.6" cy="287.3" r="1.2"/>
	<circle fill="#767676" cx="431.6" cy="287.3" r="0.9"/>
	<g opacity="0.75">
		<path fill="#282425" d="M226.5,381.1c-5.6-13.3-6.4-25.4-6.5-34.5c-0.2-18.4,1.9-30.2,1.9-30.3l0.8,0.1c0,0.1-2,11.9-1.9,30.2
			c0.1,9,0.9,21,6.4,34.2L226.5,381.1z"/>
	</g>
	<path fill="#2A2B2A" d="M241.1,305.9v10.4c0,0.7-0.5,1.2-1.2,1.2h-17.2c-0.6,0-1-0.5-1-1v-3.7c0-0.4,0.2-0.8,0.6-0.9l16.4-7.4
		C239.8,303.9,241.1,304.7,241.1,305.9z"/>
	<path fill="#2A2B2A" d="M385.6,344.2H151.2c1.4,0.8,3,1.7,4.4,2.8h227.6C384,346,384.8,345,385.6,344.2z"/>
	<path fill="#EDECEB" d="M133,334.5c-22.7,0-41.2,18.4-41.2,41.2c0,1.4,0.1,3.1,0.2,4.4l2.9,2.4l2,0.2c-1.3-10.5,1-17.9,2.7-21.7
		c0.5-1,1-2,1.6-3c1.4-2.4,4.6-7.1,9.5-11c0.1,0,0.1-0.1,0.1-0.1c2.2-1.6,4.4-3,6.6-4c0.2-0.1,0.4-0.2,0.6-0.3c0,0,0,0-0.1,0
		c0.5-0.2,0.9-0.4,1.4-0.6c4.2-1.6,11.5-3.6,20.3-2c0,0,0,0,0.1,0c2,0.4,4,0.9,6,1.6c0,0,0,0-0.1-0.1c3.5,1.2,5.6,2.5,5.6,2.5
		c21.5,11.9,18.7,36.7,18.7,36.7l5.4,0C177.8,351.7,155.8,334.5,133,334.5z"/>
	<path fill="#282425" d="M360.1,316.6v-34.8c0-0.2-0.1-0.4-0.3-0.5l-1.9-1.4h-1.4l2.5,1.8c0.2,0.1,0.3,0.3,0.3,0.5l0,34.4
		c0,0.5,1.5,45.9-35,64.2h1.8C361.6,361.8,360.1,317.1,360.1,316.6z"/>
	<rect x="363.3" y="270" fill="#515252" width="10.2" height="2.7"/>
	<path fill="#D2D4D5" d="M376.2,270.3h-14.7c-0.9,0-1.7-0.8-1.7-1.7v-0.8c0-0.9,0.8-1.7,1.7-1.7h14.7V270.3z"/>
	<polygon fill="#3F4040" points="360.7,272.7 357.3,280 382.8,280 379.1,272.7 	"/>
	<path fill="#30302F" d="M381.6,277.7h-8.2c-0.4,0-0.7,0.3-0.7,0.7c0,0.4,0.3,0.7,0.7,0.7h8.8L381.6,277.7z"/>
	<rect x="364.3" y="266.2" fill="#3F4040" width="0.9" height="4.1"/>
	<rect x="374.4" y="266.2" fill="#3F4040" width="1.8" height="4.1"/>
	<rect x="441.8" y="283.2" fill="#A0A09F" width="10" height="0.9"/>
	<rect x="441.8" y="271.9" fill="#A0A09F" width="10" height="0.9"/>
	<path fill="#73999A" d="M269.7,316.5l20.3-11.4c0.6-0.3,1.3-0.5,1.9-0.5h42.1c1.1,0,2,0.9,2,2v10h1.1v-10c0-1.7-1.4-3.1-3.1-3.1
		H292c-0.9,0-1.7,0.2-2.5,0.7l-22,12.4H269.7z"/>
	<path opacity="0.52" fill="#73999A" d="M351.3,316.5h1.6c1,0,1.8-0.8,1.8-1.8v-27c0-1-0.8-1.8-1.8-1.8h-54.9c-0.2,0-0.7,0-0.8,0
		L351.3,316.5z"/>
	<g opacity="0.6">
		<g>
			<polygon fill="#838383" points="472.7,313.1 463,306.3 462.8,306.5 472.3,313.1 			"/>
		</g>
		<g>
			<polygon fill="#838383" points="469.3,313.1 458.1,305.4 457.9,305.5 468.9,313.1 			"/>
		</g>
		<polygon fill="#838383" points="466,313.1 453.6,304.5 453.5,304.7 465.6,313.1 		"/>
		<polygon fill="#838383" points="462.6,313.1 449.4,304 449.3,304.1 462.2,313.1 		"/>
		<polygon fill="#838383" points="459.5,313.1 445,303.1 444.9,303.3 459.1,313.1 		"/>
		<polygon fill="#838383" points="456.2,313.1 440.4,302.1 440.2,302.3 455.8,313.1 		"/>
		<polygon fill="#838383" points="452.7,313.1 435.9,301.5 435.7,301.7 452.3,313.1 		"/>
		<polygon fill="#838383" points="449,313.1 431.4,300.9 431.3,301.1 448.6,313.1 		"/>
		<polygon fill="#838383" points="445.8,313.1 427,300.1 426.9,300.3 445.3,313.1 		"/>
		<path fill="#838383" d="M474.7,312.1l-7.2-5l-0.1,0.2l7.2,4.9C474.6,312.2,474.7,312.2,474.7,312.1z"/>
		<path fill="#838383" d="M475.5,310.4l-3.7-2.6l-0.1,0.2l3.8,2.6C475.4,310.5,475.5,310.4,475.5,310.4z"/>
	</g>
	<path fill="#2A2B2A" d="M534.3,335.6h-24.5c-1,0-1.9-0.7-2.2-1.6c-0.1-0.2-0.1-0.6-0.1-0.8c0-1.3,1.1-2.4,2.4-2.4h18.9
		c1.2-0.1,2.2-1.1,2.2-2.4c0-1.3-1.1-2.4-2.4-2.4h-15.9l0,0h-7.6c-1.3,0-2.4-1.1-2.4-2.4c0-1.3,1.1-2.4,2.4-2.4h6.3l0,0h6.7
		c1.3,0,2.4-1.1,2.4-2.4c0-1.3-1.1-2.4-2.4-2.4h-8l0,0h-1.5c-1.3,0-2.4-0.9-2.6-2.2c-0.1-1.4,1-2.6,2.4-2.6H521c0,0,0.1,0,0.1,0h8.4
		c1.3,0,2.4-1.1,2.4-2.4c0-1.3-1.1-2.4-2.4-2.4h-21.2v0l-2.8,0c-1.3,0-2.4-1.1-2.4-2.4c0-1.3,1.1-2.4,2.4-2.4h7.8
		c1-0.3,1.8-1.2,1.8-2.3c0-1.3-1.1-2.4-2.4-2.4h-0.8c0,0,0,0,0,0c-1.6,0.2-2-1-2-1.8c0-0.2,0-0.4,0-0.6c0-0.1,0-0.1,0-0.1l0,0
		c0-10.4-3.6-18.4-5.6-22c-0.6-1.2-2.1-1.6-3.3-1.1l-52.6,23.9l43,10.3c0,0,5.2,1,5,4.7v24.5l0,0c0,0-0.1,2.4-1.2,4.3l0,0l-2.8,4.7
		h-45.4c0.9,0.9,1.7,1.8,2.6,2.8h41.1l-4.6,7.6l0,0l-4.1,6.6l-8.1,12.2l0,0.8l-0.1,0.2l0.1-0.1l0,0.1l8.2-4c0,0,0,0,0,0
		c0,0,0.1-0.1,0.3-0.2l0.2-0.1c0.8-0.4,2.2-0.9,3.9-1h0.8c0.1,0,0.3,0,0.4,0c0,0,0,0,0,0h16.3c1.3,0,2.4-1.1,2.4-2.4
		c0-1.3-1.1-2.4-2.4-2.4h-12.1l0,0c0,0,0,0,0,0c-0.5-0.1-0.9-0.2-1.2-0.5c0,0,0,0,0,0c-0.1-0.1-0.3-0.2-0.4-0.4c0,0,0,0,0,0
		c-0.3-0.3-0.4-0.7-0.5-1.2c0-0.2,0-0.3,0-0.3v0c0-0.2,0-0.4,0.1-0.6c0-0.1,0.1-0.2,0.1-0.3c0-0.1,0-0.1,0.1-0.2
		c0.1-0.3,0.3-0.5,0.5-0.7l0,0c0.1-0.1,0.2-0.2,0.3-0.3c0,0,0.1,0,0.1-0.1c0.1-0.1,0.2-0.1,0.3-0.1c0,0,0.1,0,0.1-0.1
		c0.2-0.1,0.4-0.2,0.6-0.2h0.3h32.6c1.3,0,2.4-1.1,2.4-2.4c0-1.3-1.1-2.4-2.4-2.4h-16.7c-2.2-0.5-2.1-2.5-2.1-2.5
		c0.2-2.2,2.2-2.3,2.2-2.3s0,0,0,0h12.6c1.3,0,2.4-1.1,2.4-2.4c0-1.2-0.9-2.2-2.1-2.4h-16.4c-0.1,0-0.2,0-0.3,0h-0.1c0,0,0,0,0,0
		c-1-0.2-1.8-1-1.9-2c0-0.2,0-0.3,0-0.3c0-0.2,0-0.4,0.1-0.5c0-0.1,0.1-0.2,0.1-0.3c0-0.1,0-0.1,0.1-0.2c0-0.1,0.1-0.2,0.1-0.3
		c0-0.1,0.1-0.2,0.2-0.2c0,0,0-0.1,0.1-0.1c0.3-0.4,0.8-0.6,1.3-0.7c0.1,0,0.2-0.1,0.2-0.1h0.3h29.7c1.3,0,2.4-1.1,2.4-2.4
		C536.6,336.7,535.6,335.7,534.3,335.6z"/>
	<g>
		<circle fill="#3A3A3A" cx="475.4" cy="290" r="4.1"/>
		<circle fill="#2D2D2D" cx="475.4" cy="290" r="2.4"/>
		<path d="M475.7,289.7c-0.1-0.2-0.4-0.2-0.6-0.1c-13,9.9-30.8,0.6-31,0.5c-3.7-1.4-8.4-2.1-12.7-2.4c0,0,0.1,0,0.1,0
			c0.2,0,0.4-0.2,0.4-0.4c0-0.2-0.2-0.4-0.4-0.4c-0.2,0-1.8,0.1-4.1,0.6c-4-0.1-6.4,0.2-6.4,0.2l0,0c-0.4,0-0.8,0.1-1.1,0.1
			c-2,0.2-3.7,0.4-3.7,0.4c4.1-1.3,7.6-1.4,7.6-1.4c0.2,0,0.4-0.2,0.4-0.4c0-0.2-0.2-0.4-0.4-0.4h0c-0.1,0-5.1,0.1-10.3,2.3
			c-3.7,0.1-6.9-0.2-9.6-0.7c5.9-2.1,12-1.3,12.1-1.3c0.2,0,0.4-0.1,0.5-0.3c0-0.2-0.1-0.4-0.3-0.5c-0.4-0.1-7.2-0.9-13.6,1.8
			c-9.5-2.6-12.5-8.6-12.6-8.7c-4.4-8.1-11.7-10.4-13.8-10.9v0.8c2.2,0.6,9,2.9,13.1,10.5c0.1,0.1,1.7,3.5,6.4,6.3
			c1.5,0.9,3.4,1.8,5.7,2.5c-1.3,0.6-2.5,1.4-3.7,2.4c-4,3.5-6,8.7-6,15.4c0,0.2,0.2,0.4,0.4,0.4c0.2,0,0.4-0.2,0.4-0.4
			c0-6.5,1.9-11.5,5.8-14.8c1.3-1.2,2.8-2.1,4.4-2.7c2.6,0.7,5.6,1.1,9.2,1.1c-4.9,2.7-9.6,7.6-10.1,16.5c0,0.2,0.2,0.4,0.4,0.4
			c0,0,0,0,0,0c0.2,0,0.4-0.2,0.4-0.4c0.4-7.9,4.1-13.5,11.1-16.6c0,0,0,0,0,0c1.3-0.1,2.8-0.2,4.2-0.3c0,0,0,0,0,0
			c0,0,3.1-0.4,5.2-0.5c0.4,0,0.7,0,1.2,0c-2.8,1-5.9,2.5-8.3,5.2c-2.9,3.2-4.3,7.3-4,12.3c0,0.2,0.2,0.4,0.4,0.4c0,0,0,0,0,0
			c0.2,0,0.4-0.2,0.4-0.4c-0.2-4.8,1-8.7,3.8-11.7c3.1-3.4,7.5-5,10.7-5.7c4.9,0.1,11.6,0.6,16.4,2.5c0,0,0.1,0,0.1,0.1
			c0.7,0.4,8.2,4.1,17,4.1c4.9,0,10.1-1.2,14.8-4.7C475.8,290.2,475.9,289.9,475.7,289.7z"/>
	</g>
	<g>
		<path fill="#231F20" d="M230.7,385.7h-49c-1.7,0-2.9-0.5-3.8-1.5c-1.6-1.9-1.1-4.8-1-4.9c2.9-26.9-19.8-40.6-20.1-40.8
			c-17.9-10.7-37-4.2-37.2-4.1l-0.1,0c-3.5,1.1-6.2,2-8.9,2.6c-4.7,1-8.1,1.3-8.2,1.3c0,0-3.4,0.4-8.3-0.5c-2.6-0.4-5.3-1.2-8.4-2.4
			c0,0-3.1-1.4-4.9-0.4c-1.1,0.6-1.5,1.3-1.5,2.8l-0.5,0c0-1.7,0.5-2.6,1.7-3.2c1.9-1,5.1,0.4,5.3,0.4c3.1,1.1,5.8,1.9,8.3,2.4
			c4.9,0.8,8.1,0.5,8.2,0.5c0,0,3.5-0.3,8.1-1.3c2.7-0.6,5.4-1.5,8.9-2.6l0.1,0c0.2-0.1,19.5-6.6,37.6,4.2
			c0.2,0.1,23.2,14,20.3,41.3c0,0-0.5,2.8,0.9,4.5c0.7,0.9,1.9,1.3,3.4,1.3h49V385.7z"/>
	</g>
	<g>
		<path fill="#231F20" d="M231.8,385.7h-49c-1.7,0-3-0.5-3.8-1.5c-1.5-1.8-1-4.6-1-4.7c2.9-26.2-19.8-39.6-20.1-39.7
			c-17.9-10.4-37-4.1-37.2-4l-0.1,0c-3.5,1.1-6.2,1.9-8.9,2.5c-4.7,1-8.1,1.3-8.2,1.3c0,0-3.4,0.4-8.3-0.5c-2.6-0.4-5.3-1.2-8.4-2.3
			c0,0-3.3-1.4-5-0.5c-0.8,0.4-1.1,0.9-1.1,1.5h-0.5c0-0.8,0.4-1.5,1.4-1.9c1.9-1,5.2,0.4,5.4,0.4c3.1,1.1,5.8,1.9,8.3,2.3
			c4.9,0.8,8.1,0.5,8.2,0.5c0,0,3.5-0.3,8.1-1.3c2.7-0.6,5.4-1.4,8.8-2.5l0.1,0c0.2-0.1,19.5-6.4,37.6,4.1
			c0.2,0.1,23.2,13.7,20.3,40.2c0,0-0.5,2.7,0.9,4.4c0.7,0.9,1.9,1.4,3.5,1.4h49V385.7z"/>
	</g>
	<path fill="#231F20" d="M383.6,319.6h-0.7c0.4,0.4,0.9,0.9,1.2,1.2c2.8,3,4.1,5.9,3.7,8.9c-0.5,4.4-4.6,7.2-4.6,7.3
		c-17.8,13.3-18.3,32.8-17,43.2c0.2,1.5-0.3,3-1.3,4.2c-1,1.1-2.5,1.8-4,1.8h-43.2v0.5h43.2c1.7,0,3.3-0.7,4.4-2
		c1.1-1.2,1.6-2.9,1.4-4.6c-1.3-10.3-0.8-29.6,16.8-42.8c0.2-0.1,4.3-2.9,4.8-7.6c0.3-3.1-1-6.2-3.9-9.2
		C384.3,320.4,384,320,383.6,319.6z"/>
	<path fill="#231F20" d="M384.2,319.6c2.8,3,4,5.9,3.7,8.8c-0.5,4.4-4.6,7.2-4.6,7.3c-17.8,13.3-18.2,32.8-17,43.2
		c0.2,1.5-0.3,3-1.3,4.2c-1,1.1-2.5,1.8-4,1.8h-43.2v0.5H361c1.7,0,3.3-0.7,4.4-2c1.1-1.2,1.6-2.9,1.4-4.6
		c-1.3-10.3-0.8-29.6,16.8-42.8c0.2-0.1,4.3-2.9,4.8-7.6c0.3-2.9-0.9-5.9-3.6-8.9H384.2z"/>
	<g>
		<path fill="#838383" d="M368.9,362.7C368.9,362.7,368.9,362.6,368.9,362.7l-3.5-0.9c-0.2,0-0.3-0.2-0.2-0.4c0-0.2,0.2-0.3,0.4-0.2
			l3.4,0.9c0.2,0,0.3,0.2,0.2,0.4C369.2,362.6,369.1,362.7,368.9,362.7z"/>
	</g>
	<g>
		<path fill="#838383" d="M367.8,374.2C367.7,374.2,367.7,374.1,367.8,374.2l-3.5-0.7c-0.2,0-0.3-0.2-0.3-0.4c0-0.2,0.2-0.3,0.4-0.3
			l3.4,0.6c0.2,0,0.3,0.2,0.3,0.4C368.1,374,367.9,374.2,367.8,374.2z"/>
	</g>
	<g>
		<path fill="#838383" d="M373.2,351c-0.1,0-0.1,0-0.2,0l-3.1-1.7c-0.2-0.1-0.2-0.3-0.1-0.4c0.1-0.2,0.3-0.2,0.4-0.1l3.1,1.7
			c0.2,0.1,0.2,0.3,0.1,0.4C373.4,350.9,373.3,351,373.2,351z"/>
	</g>
	<g>
		<path fill="#838383" d="M382.2,339.8c-0.1,0-0.1,0-0.2,0l-3.1-1.7c-0.2-0.1-0.2-0.3-0.1-0.4c0.1-0.2,0.3-0.2,0.4-0.1l3.1,1.7
			c0.2,0.1,0.2,0.3,0.1,0.4C382.4,339.7,382.3,339.8,382.2,339.8z"/>
	</g>
	<g>
		<path fill="#838383" d="M389.9,329.4C389.9,329.4,389.8,329.4,389.9,329.4l-3.5-0.3c-0.2,0-0.3-0.2-0.3-0.4c0-0.2,0.2-0.3,0.4-0.3
			l3.5,0.3c0.2,0,0.3,0.2,0.3,0.4C390.2,329.3,390,329.4,389.9,329.4z"/>
	</g>
	<path fill="#EDECEB" d="M467.9,313.1h-82.5c-1.5,0-2.7-1.2-2.7-2.7v-30.3c0-0.1,0-0.1,0-0.1l-0.8-1.6c0,0,0,0-0.1,0H374
		c-0.1,0-0.2,0.2-0.1,0.2c0.6,0.4,1,1,1,1.7l0,32.6c0,3.7,3,6.7,6.7,6.7l82.8-0.1c1,0,1.8,0.8,1.8,1.8v57.1c0,1.9,1.3,3.6,3.1,3.9
		c2.4,0.4,4.5-1.4,4.5-3.7V319C473.8,315.7,471.2,313.1,467.9,313.1z"/>
	<path opacity="0.3" fill="#DAD9D8" d="M468.1,313.1h-27.4l9.4,6.4l14.5,0c0.9,0,1.7,0.8,1.7,1.7v57.5c0,2.1,1.7,3.8,3.7,3.8
		c2.1,0,3.8-1.7,3.8-3.8v-59.9C473.8,315.7,471.3,313.1,468.1,313.1z"/>
	<path fill="#5C5C5C" d="M317.3,387.5h-85.1c-0.3,0-0.6-0.3-0.6-0.6v-2.8c0-0.3,0.3-0.6,0.6-0.6h85.1c0.3,0,0.6,0.3,0.6,0.6v2.8
		C317.8,387.2,317.6,387.5,317.3,387.5z"/>
	<path fill="#838383" d="M231.6,384.2v1.5h86.2v-1.5c0-0.4-0.3-0.6-0.6-0.6h-85C231.9,383.5,231.6,383.8,231.6,384.2z"/>
	<path fill="#E5E5E4" d="M416.1,326.3c-25.6,0-46.3,20.7-46.3,46.3c0,2.7,0.2,5.4,0.7,8l4.9,0.2c0,0-5.9-20.1,10.6-37.2
		c0,0,17.1-18.7,42.7-10.5c0,0,20.6,4.7,27.7,27.2c0,0,1.6,4.7,1.4,10.6c0,1.9,0,5.5-0.8,10l4.7-0.4c0.4-2.6,0.7-5.2,0.7-7.9
		C462.4,347,441.6,326.3,416.1,326.3z"/>
	<g>
		<circle fill="#2A2B2A" cx="472.3" cy="389.8" r="2.4"/>
		<path fill="#2A2B2A" d="M464.4,387.4h-13.2c-1.1-0.2-2-1.2-2-2.4c0-1.3,1.1-2.4,2.4-2.4h1.8c0,0,0,0,0,0h8.7
			c1.3,0,2.4-1.1,2.4-2.4c0-1.3-1.1-2.4-2.4-2.4h-6.6c-1.2-0.2-1-1.6-1-1.6l0,0c0.1-1.2,0.2-2.4,0.2-3.6c0-21.3-17.3-38.6-38.6-38.6
			c-21.3,0-38.6,17.3-38.6,38.6c0,21.3,17.3,38.6,38.6,38.6c13.2,0,24.8-6.6,31.8-16.8c0,0,0,0,0,0c0,0,0,0,0.1-0.1c0,0,0,0,0-0.1
			c0.3-0.5,1.6-2.1,3.9-2.1c0,0,0,0,0,0h12.5c1.3,0,2.4-1.1,2.4-2.4C466.8,388.5,465.7,387.4,464.4,387.4z"/>
	</g>
	<path opacity="0.84" fill="#3A3A3A" d="M439.7,382.5c-0.9,0-1.6-0.7-1.6-1.6c0-0.9,0.7-1.6,1.6-1.6h1.2c0.6-2.1,0.9-4.4,0.9-6.7
		c0-14.2-11.5-25.7-25.7-25.7c-14.2,0-25.7,11.5-25.7,25.7c0,14.2,11.5,25.7,25.7,25.7C426.8,398.3,435.9,391.7,439.7,382.5
		L439.7,382.5z"/>
	<path fill="#EDECEB" d="M429.5,378.2c-0.5,0-0.9-0.4-0.9-0.9c0-0.5,0.4-0.9,0.9-0.9h0.7c0.3-1.2,0.5-2.5,0.5-3.8
		c0-8.1-6.5-14.6-14.6-14.6c-8.1,0-14.6,6.5-14.6,14.6c0,8.1,6.5,14.6,14.6,14.6C422.2,387.2,427.4,383.5,429.5,378.2L429.5,378.2z"
		/>
	<g>
		<path fill="#686969" d="M416.1,400.2c-15.2,0-27.6-12.4-27.6-27.6c0-15.2,12.4-27.6,27.6-27.6s27.6,12.4,27.6,27.6
			C443.7,387.8,431.3,400.2,416.1,400.2z M416.1,349.2c-12.9,0-23.4,10.5-23.4,23.4c0,12.9,10.5,23.4,23.4,23.4s23.4-10.5,23.4-23.4
			C439.5,359.7,429,349.2,416.1,349.2z"/>
	</g>
	<g>
		<path fill="#231F20" d="M416.1,388.5c-8.7,0-15.8-7.1-15.8-15.8c0-8.7,7.1-15.8,15.8-15.8c8.7,0,15.8,7.1,15.8,15.8
			C431.9,381.4,424.8,388.5,416.1,388.5z M416.1,359.9c-7.1,0-12.8,5.7-12.8,12.8c0,7.1,5.7,12.8,12.8,12.8
			c7.1,0,12.8-5.7,12.8-12.8C428.9,365.6,423.2,359.9,416.1,359.9z"/>
	</g>
	<circle fill="#231F20" cx="416.1" cy="372.5" r="2.9"/>
	<path fill="#EDECEB" d="M416.3,326.3c-0.1,0-0.1,0-0.2,0c-25.6,0-46.3,20.7-46.3,46.3c0,2.7,0.2,5.4,0.7,8l4.9,0.2
		c0,0-5.9-20.1,10.6-37.2c0,0,11.7-12.8,30.3-12.6V326.3z"/>
	<path fill="#E5E5E4" d="M133,334.5L133,334.5v5c2.1,0,4.3,0.2,6.6,0.6c0,0,0,0,0.1,0c2,0.4,4,0.9,6,1.6c0,0,0,0-0.1-0.1
		c3.5,1.2,5.6,2.5,5.6,2.5c21.5,11.9,18.7,36.7,18.7,36.7h5.4C177.8,351.7,155.8,334.5,133,334.5z"/>
	<g>
		<circle fill="#EDECEB" cx="133" cy="375.7" r="11.2"/>
	</g>
	<g>
		<circle fill="#231F20" cx="133" cy="375.7" r="2.9"/>
	</g>
	<g>
		<path fill="#838383" d="M89.8,339.3c-0.2,0-0.3-0.1-0.3-0.3v-3.5c0-0.2,0.1-0.3,0.3-0.3c0.2,0,0.3,0.1,0.3,0.3v3.5
			C90.1,339.2,90,339.3,89.8,339.3z"/>
	</g>
	<g>
		<path fill="#838383" d="M102.2,340.7c-0.2,0-0.3-0.1-0.3-0.3v-3.5c0-0.2,0.1-0.3,0.3-0.3c0.2,0,0.3,0.1,0.3,0.3v3.5
			C102.6,340.6,102.4,340.7,102.2,340.7z"/>
	</g>
	<g>
		<path fill="#838383" d="M118.1,337.9c-0.1,0-0.3-0.1-0.3-0.2l-1.2-3.3c-0.1-0.2,0-0.4,0.2-0.4c0.2-0.1,0.4,0,0.4,0.2l1.2,3.3
			c0.1,0.2,0,0.4-0.2,0.4C118.2,337.9,118.2,337.9,118.1,337.9z"/>
	</g>
	<g>
		<path fill="#838383" d="M132.1,335.1c-0.2,0-0.3-0.1-0.3-0.3l-0.1-3.5c0-0.2,0.1-0.3,0.3-0.3c0.2,0,0.3,0.1,0.3,0.3l0.1,3.5
			C132.5,334.9,132.3,335.1,132.1,335.1C132.1,335.1,132.1,335.1,132.1,335.1z"/>
	</g>
	<g>
		<path fill="#838383" d="M146.4,336.8c0,0-0.1,0-0.1,0c-0.2-0.1-0.3-0.2-0.2-0.4l1.1-3.3c0.1-0.2,0.2-0.3,0.4-0.2
			c0.2,0.1,0.3,0.2,0.2,0.4l-1.1,3.3C146.7,336.7,146.5,336.8,146.4,336.8z"/>
	</g>
	<g>
		<path fill="#838383" d="M158.5,343c-0.1,0-0.1,0-0.2-0.1c-0.2-0.1-0.2-0.3-0.1-0.5l1.9-2.9c0.1-0.2,0.3-0.2,0.5-0.1
			c0.2,0.1,0.2,0.3,0.1,0.5l-1.9,2.9C158.7,342.9,158.6,343,158.5,343z"/>
	</g>
</g>
</svg>
