<?xml version="1.0" encoding="utf-8"?>
<!-- Generator: Adobe Illustrator 18.0.0, SVG Export Plug-In . SVG Version: 6.00 Build 0)  -->
<!DOCTYPE svg PUBLIC "-//W3C//DTD SVG 1.1//EN" "http://www.w3.org/Graphics/SVG/1.1/DTD/svg11.dtd">
<svg version="1.1" id="Layer_1" xmlns="http://www.w3.org/2000/svg" xmlns:xlink="http://www.w3.org/1999/xlink" x="0px" y="0px"
	 viewBox="0 0 300 300" enable-background="new 0 0 300 300" xml:space="preserve">
<rect x="0.1" y="-0.4" fill="#E0B88C" width="300" height="300.4"/>
<g>
	<ellipse fill="#DBAD83" cx="151.5" cy="225.2" rx="103" ry="4.6"/>
	<g>
		<g>
			<path fill="#4F3F48" d="M42.6,178.5c0-25,20.4-45.4,45.4-45.4s45.4,20.4,45.4,45.4S113.1,224,88,224S42.6,203.6,42.6,178.5z
				 M46.4,178.5c0,22.9,18.7,41.6,41.6,41.6s41.6-18.7,41.6-41.6S111,136.9,88,136.9S46.4,155.6,46.4,178.5z"/>
		</g>
	</g>
	<g>
		<path fill="#7DB588" d="M48.6,178.5c0-21.8,17.7-39.4,39.4-39.4s39.4,17.7,39.4,39.4S109.8,218,88,218S48.6,200.3,48.6,178.5z
			 M50.2,178.5c0,20.9,17,37.8,37.8,37.8s37.8-17,37.8-37.8s-17-37.8-37.8-37.8S50.2,157.7,50.2,178.5z"/>
	</g>
	<g>
		<g>
			<g>
				<g>
					<g>
						<g>
							<rect x="144.1" y="181.2" fill="none" width="6.4" height="7.5"/>
						</g>
						<rect x="144.6" y="184.4" fill-rule="evenodd" clip-rule="evenodd" fill="#4F3F48" width="1.2" height="0.8"/>
						<rect x="146.7" y="184.4" fill-rule="evenodd" clip-rule="evenodd" fill="#4F3F48" width="1.2" height="0.8"/>
						<rect x="148.8" y="184.4" fill-rule="evenodd" clip-rule="evenodd" fill="#4F3F48" width="1.2" height="0.8"/>
					</g>
				</g>
				<g>
					<g>
						<g>
							<rect x="137.7" y="181.2" fill="none" width="6.4" height="7.5"/>
						</g>
						<rect x="138.2" y="184.4" fill-rule="evenodd" clip-rule="evenodd" fill="#4F3F48" width="1.2" height="0.8"/>
						<rect x="140.3" y="184.4" fill-rule="evenodd" clip-rule="evenodd" fill="#4F3F48" width="1.2" height="0.8"/>
						<rect x="142.4" y="184.4" fill-rule="evenodd" clip-rule="evenodd" fill="#4F3F48" width="1.2" height="0.8"/>
					</g>
				</g>
				<g>
					<g>
						<g>
							<rect x="131.3" y="181.2" fill="none" width="6.4" height="7.5"/>
						</g>
						<rect x="131.8" y="184.4" fill-rule="evenodd" clip-rule="evenodd" fill="#4F3F48" width="1.2" height="0.8"/>
						<rect x="133.9" y="184.4" fill-rule="evenodd" clip-rule="evenodd" fill="#4F3F48" width="1.2" height="0.8"/>
						<rect x="136" y="184.4" fill-rule="evenodd" clip-rule="evenodd" fill="#4F3F48" width="1.2" height="0.8"/>
					</g>
				</g>
				<g>
					<g>
						<g>
							<rect x="124.9" y="181.2" fill="none" width="6.4" height="7.5"/>
						</g>
						<rect x="125.3" y="184.4" fill-rule="evenodd" clip-rule="evenodd" fill="#4F3F48" width="1.2" height="0.8"/>
						<rect x="127.5" y="184.4" fill-rule="evenodd" clip-rule="evenodd" fill="#4F3F48" width="1.2" height="0.8"/>
						<rect x="129.6" y="184.4" fill-rule="evenodd" clip-rule="evenodd" fill="#4F3F48" width="1.2" height="0.8"/>
					</g>
				</g>
				<g>
					<g>
						<g>
							<rect x="118.5" y="181.2" fill="none" width="6.4" height="7.5"/>
						</g>
						<rect x="118.9" y="184.4" fill-rule="evenodd" clip-rule="evenodd" fill="#4F3F48" width="1.2" height="0.8"/>
						<rect x="121.1" y="184.4" fill-rule="evenodd" clip-rule="evenodd" fill="#4F3F48" width="1.2" height="0.8"/>
						<rect x="123.2" y="184.4" fill-rule="evenodd" clip-rule="evenodd" fill="#4F3F48" width="1.2" height="0.8"/>
					</g>
				</g>
				<g>
					<g>
						<g>
							<rect x="112" y="181.2" fill="none" width="6.4" height="7.5"/>
						</g>
						<rect x="112.5" y="184.4" fill-rule="evenodd" clip-rule="evenodd" fill="#4F3F48" width="1.2" height="0.8"/>
						<rect x="114.7" y="184.4" fill-rule="evenodd" clip-rule="evenodd" fill="#4F3F48" width="1.2" height="0.8"/>
						<rect x="116.8" y="184.4" fill-rule="evenodd" clip-rule="evenodd" fill="#4F3F48" width="1.2" height="0.8"/>
					</g>
				</g>
				<g>
					<g>
						<g>
							<rect x="105.6" y="181.2" fill="none" width="6.4" height="7.5"/>
						</g>
						<rect x="106.1" y="184.4" fill-rule="evenodd" clip-rule="evenodd" fill="#4F3F48" width="1.2" height="0.8"/>
						<rect x="108.2" y="184.4" fill-rule="evenodd" clip-rule="evenodd" fill="#4F3F48" width="1.2" height="0.8"/>
						<rect x="110.4" y="184.4" fill-rule="evenodd" clip-rule="evenodd" fill="#4F3F48" width="1.2" height="0.8"/>
					</g>
				</g>
				<g>
					<g>
						<g>
							<rect x="99.2" y="181.2" fill="none" width="6.4" height="7.5"/>
						</g>
						<rect x="99.7" y="184.4" fill-rule="evenodd" clip-rule="evenodd" fill="#4F3F48" width="1.2" height="0.8"/>
						<rect x="101.8" y="184.4" fill-rule="evenodd" clip-rule="evenodd" fill="#4F3F48" width="1.2" height="0.8"/>
						<rect x="104" y="184.4" fill-rule="evenodd" clip-rule="evenodd" fill="#4F3F48" width="1.2" height="0.8"/>
					</g>
				</g>
				<g>
					<g>
						<g>
							<rect x="92.8" y="181.2" fill="none" width="6.4" height="7.5"/>
						</g>
						<rect x="93.3" y="184.4" fill-rule="evenodd" clip-rule="evenodd" fill="#4F3F48" width="1.2" height="0.8"/>
						<rect x="95.4" y="184.4" fill-rule="evenodd" clip-rule="evenodd" fill="#4F3F48" width="1.2" height="0.8"/>
						<rect x="97.6" y="184.4" fill-rule="evenodd" clip-rule="evenodd" fill="#4F3F48" width="1.2" height="0.8"/>
					</g>
				</g>
				<g>
					<g>
						<g>
							<rect x="86.4" y="181.2" fill="none" width="6.4" height="7.5"/>
						</g>
						<rect x="86.9" y="184.4" fill-rule="evenodd" clip-rule="evenodd" fill="#4F3F48" width="1.2" height="0.8"/>
						<rect x="89" y="184.4" fill-rule="evenodd" clip-rule="evenodd" fill="#4F3F48" width="1.2" height="0.8"/>
						<rect x="91.1" y="184.4" fill-rule="evenodd" clip-rule="evenodd" fill="#4F3F48" width="1.2" height="0.8"/>
					</g>
				</g>
			</g>
		</g>
	</g>
	<g>
		<g>
			<g>
				<g>
					<g>
						<g>
							<rect x="144.1" y="168.2" fill="none" width="6.4" height="7.5"/>
						</g>
						<rect x="144.6" y="171.5" fill-rule="evenodd" clip-rule="evenodd" fill="#4F3F48" width="1.2" height="0.8"/>
						<rect x="146.7" y="171.5" fill-rule="evenodd" clip-rule="evenodd" fill="#4F3F48" width="1.2" height="0.8"/>
						<rect x="148.8" y="171.5" fill-rule="evenodd" clip-rule="evenodd" fill="#4F3F48" width="1.2" height="0.8"/>
					</g>
				</g>
				<g>
					<g>
						<g>
							<rect x="137.7" y="168.2" fill="none" width="6.4" height="7.5"/>
						</g>
						<rect x="138.2" y="171.5" fill-rule="evenodd" clip-rule="evenodd" fill="#4F3F48" width="1.2" height="0.8"/>
						<rect x="140.3" y="171.5" fill-rule="evenodd" clip-rule="evenodd" fill="#4F3F48" width="1.2" height="0.8"/>
						<rect x="142.4" y="171.5" fill-rule="evenodd" clip-rule="evenodd" fill="#4F3F48" width="1.2" height="0.8"/>
					</g>
				</g>
				<g>
					<g>
						<g>
							<rect x="131.3" y="168.2" fill="none" width="6.4" height="7.5"/>
						</g>
						<rect x="131.8" y="171.5" fill-rule="evenodd" clip-rule="evenodd" fill="#4F3F48" width="1.2" height="0.8"/>
						<rect x="133.9" y="171.5" fill-rule="evenodd" clip-rule="evenodd" fill="#4F3F48" width="1.2" height="0.8"/>
						<rect x="136" y="171.5" fill-rule="evenodd" clip-rule="evenodd" fill="#4F3F48" width="1.2" height="0.8"/>
					</g>
				</g>
				<g>
					<g>
						<g>
							<rect x="124.9" y="168.2" fill="none" width="6.4" height="7.5"/>
						</g>
						<rect x="125.3" y="171.5" fill-rule="evenodd" clip-rule="evenodd" fill="#4F3F48" width="1.2" height="0.8"/>
						<rect x="127.5" y="171.5" fill-rule="evenodd" clip-rule="evenodd" fill="#4F3F48" width="1.2" height="0.8"/>
						<rect x="129.6" y="171.5" fill-rule="evenodd" clip-rule="evenodd" fill="#4F3F48" width="1.2" height="0.8"/>
					</g>
				</g>
				<g>
					<g>
						<g>
							<rect x="118.5" y="168.2" fill="none" width="6.4" height="7.5"/>
						</g>
						<rect x="118.9" y="171.5" fill-rule="evenodd" clip-rule="evenodd" fill="#4F3F48" width="1.2" height="0.8"/>
						<rect x="121.1" y="171.5" fill-rule="evenodd" clip-rule="evenodd" fill="#4F3F48" width="1.2" height="0.8"/>
						<rect x="123.2" y="171.5" fill-rule="evenodd" clip-rule="evenodd" fill="#4F3F48" width="1.2" height="0.8"/>
					</g>
				</g>
				<g>
					<g>
						<g>
							<rect x="112" y="168.2" fill="none" width="6.4" height="7.5"/>
						</g>
						<rect x="112.5" y="171.5" fill-rule="evenodd" clip-rule="evenodd" fill="#4F3F48" width="1.2" height="0.8"/>
						<rect x="114.7" y="171.5" fill-rule="evenodd" clip-rule="evenodd" fill="#4F3F48" width="1.2" height="0.8"/>
						<rect x="116.8" y="171.5" fill-rule="evenodd" clip-rule="evenodd" fill="#4F3F48" width="1.2" height="0.8"/>
					</g>
				</g>
				<g>
					<g>
						<g>
							<rect x="105.6" y="168.2" fill="none" width="6.4" height="7.5"/>
						</g>
						<rect x="106.1" y="171.5" fill-rule="evenodd" clip-rule="evenodd" fill="#4F3F48" width="1.2" height="0.8"/>
						<rect x="108.2" y="171.5" fill-rule="evenodd" clip-rule="evenodd" fill="#4F3F48" width="1.2" height="0.8"/>
						<rect x="110.4" y="171.5" fill-rule="evenodd" clip-rule="evenodd" fill="#4F3F48" width="1.2" height="0.8"/>
					</g>
				</g>
				<g>
					<g>
						<g>
							<rect x="99.2" y="168.2" fill="none" width="6.4" height="7.5"/>
						</g>
						<rect x="99.7" y="171.5" fill-rule="evenodd" clip-rule="evenodd" fill="#4F3F48" width="1.2" height="0.8"/>
						<rect x="101.8" y="171.5" fill-rule="evenodd" clip-rule="evenodd" fill="#4F3F48" width="1.2" height="0.8"/>
						<rect x="104" y="171.5" fill-rule="evenodd" clip-rule="evenodd" fill="#4F3F48" width="1.2" height="0.8"/>
					</g>
				</g>
				<g>
					<g>
						<g>
							<rect x="92.8" y="168.2" fill="none" width="6.4" height="7.5"/>
						</g>
						<rect x="93.3" y="171.5" fill-rule="evenodd" clip-rule="evenodd" fill="#4F3F48" width="1.2" height="0.8"/>
						<rect x="95.4" y="171.5" fill-rule="evenodd" clip-rule="evenodd" fill="#4F3F48" width="1.2" height="0.8"/>
						<rect x="97.6" y="171.5" fill-rule="evenodd" clip-rule="evenodd" fill="#4F3F48" width="1.2" height="0.8"/>
					</g>
				</g>
				<g>
					<g>
						<g>
							<rect x="86.4" y="168.2" fill="none" width="6.4" height="7.5"/>
						</g>
						<rect x="86.9" y="171.5" fill-rule="evenodd" clip-rule="evenodd" fill="#4F3F48" width="1.2" height="0.8"/>
						<rect x="89" y="171.5" fill-rule="evenodd" clip-rule="evenodd" fill="#4F3F48" width="1.2" height="0.8"/>
						<rect x="91.1" y="171.5" fill-rule="evenodd" clip-rule="evenodd" fill="#4F3F48" width="1.2" height="0.8"/>
					</g>
				</g>
			</g>
		</g>
	</g>
	<g>
		<path fill="#4F3F48" d="M147.2,206.4h11c1.3,0,2.4-1.1,2.4-2.4s-1.1-2.4-2.4-2.4h-11c-1.3,0-2.4,1.1-2.4,2.4
			S145.9,206.4,147.2,206.4z"/>
	</g>
	<g>
		<path fill="#3F323A" d="M171.9,178.5c0-25,20.4-45.4,45.4-45.4s45.4,20.4,45.4,45.4S242.3,224,217.3,224S171.9,203.6,171.9,178.5z
			 M175.7,178.5c0,22.9,18.7,41.6,41.6,41.6s41.6-18.7,41.6-41.6s-18.7-41.6-41.6-41.6S175.7,155.6,175.7,178.5z"/>
	</g>
	<g>
		<path fill="#7DB588" d="M177.8,178.5c0-21.8,17.7-39.4,39.4-39.4s39.4,17.7,39.4,39.4S239,218,217.3,218S177.8,200.3,177.8,178.5z
			 M179.4,178.5c0,20.9,17,37.8,37.8,37.8s37.8-17,37.8-37.8s-17-37.8-37.8-37.8S179.4,157.7,179.4,178.5z"/>
	</g>
	<g>
		<g>
			<path fill="#4F3F48" d="M80.5,178.5c0-4.2,3.4-7.5,7.5-7.5c4.2,0,7.5,3.4,7.5,7.5c0,4.2-3.4,7.5-7.5,7.5
				C83.9,186.1,80.5,182.7,80.5,178.5z M84.8,178.5c0,1.8,1.4,3.2,3.2,3.2c1.8,0,3.2-1.4,3.2-3.2s-1.4-3.2-3.2-3.2
				C86.3,175.3,84.8,176.8,84.8,178.5z"/>
		</g>
	</g>
	<path fill="#4F3F48" d="M218.7,220.1c22.3-0.8,40.2-19.1,40.2-41.6S241,137.7,218.7,137v-3.8c24.4,0.8,44,20.8,44,45.4
		s-19.6,44.6-44,45.4V220.1z"/>
	<path fill="#3F323A" d="M88,133.1v3.8c-22.9,0-41.6,18.7-41.6,41.6s18.7,41.6,41.6,41.6v3.8c-25,0-45.4-20.4-45.4-45.4
		S63,133.1,88,133.1z"/>
	<path fill="#8BCB99" d="M218.7,216.3c20.2-0.8,36.4-17.4,36.4-37.8s-16.2-37-36.4-37.8v-1.6c21.1,0.8,38,18.1,38,39.4
		s-16.9,38.6-38,39.4V216.3z"/>
	<path fill="#8BCB99" d="M88,216.4c20.9,0,37.8-17,37.8-37.8s-17-37.8-37.8-37.8v-1.6c21.8,0,39.4,17.7,39.4,39.4S109.8,218,88,218
		V216.4z"/>
	<path fill="#3F323A" d="M147.2,201.5h5.7v4.9h-5.7c-1.3,0-2.4-1.1-2.4-2.4C144.8,202.6,145.9,201.5,147.2,201.5z"/>
	<g>
		<path fill="#EAE0D3" d="M152.7,204.2c1.3,0,2.4-1.1,2.4-2.4v-18c0-1.3-1.1-2.4-2.4-2.4s-2.4,1.1-2.4,2.4v18
			C150.3,203.1,151.4,204.2,152.7,204.2z"/>
	</g>
	<path fill="#DDD4CA" d="M152.7,181.3c0.1,0,0.2,0,0.2,0v22.8c-0.1,0-0.2,0-0.2,0c-1.3,0-2.4-1.1-2.4-2.4v-18
		C150.3,182.4,151.4,181.3,152.7,181.3z"/>
	<path fill="#3F323A" d="M88,171v4.3c-1.8,0-3.2,1.4-3.2,3.2c0,1.8,1.4,3.2,3.2,3.2v4.3c-4.2,0-7.5-3.4-7.5-7.5
		C80.5,174.4,83.9,171,88,171z"/>
	<g>
		<g>
			<path fill="#4F3F48" d="M209.7,178.5c0-4.2,3.4-7.5,7.5-7.5c4.2,0,7.5,3.4,7.5,7.5c0,4.2-3.4,7.5-7.5,7.5
				C213.1,186.1,209.7,182.7,209.7,178.5z M214.1,178.5c0,1.8,1.4,3.2,3.2,3.2c1.8,0,3.2-1.4,3.2-3.2s-1.4-3.2-3.2-3.2
				C215.5,175.3,214.1,176.8,214.1,178.5z"/>
		</g>
	</g>
	<g>
		<path fill="#EAE0D3" d="M88,180.5h64c0.9,0,1.6-0.7,1.6-1.6c0-0.9-0.7-1.6-1.6-1.6H91.1l35.7-52.8c0.5-0.7,0.3-1.8-0.4-2.3
			c-0.7-0.5-1.8-0.3-2.3,0.4l-37.4,55.4c-0.3,0.5-0.4,1.1-0.1,1.7C86.9,180.2,87.4,180.5,88,180.5z"/>
	</g>
	<path fill="#EAE0D3" d="M117.1,110.1l6.8,13.9c0,0.1,0,0.2,0.1,0.2l4.7,9.5l0,0c0,0,0,0,0,0l24.8,50.3c0.3,0.5,0.8,0.9,1.4,0.9
		c0,0,0.1,0,0.1,0c0.5,0,1.1-0.3,1.4-0.7l39.2-59.8c0.3-0.5,0.4-1.1,0.1-1.7c-0.3-0.5-0.8-0.9-1.4-0.9h-67.6l-6.5-13.2
		c-0.4-0.8-1.4-1.1-2.2-0.7C117.1,108.3,116.7,109.2,117.1,110.1z M131.6,132.3C131.6,132.3,131.6,132.3,131.6,132.3l-3.5-7.2h63
		l-36,54.9L131.6,132.3z"/>
	<path fill="#3F323A" d="M217.3,171v4.3c-1.8,0-3.2,1.4-3.2,3.2c0,1.8,1.4,3.2,3.2,3.2v4.3c-4.2,0-7.5-3.4-7.5-7.5
		C209.7,174.4,213.1,171,217.3,171z"/>
	<polygon fill="#DDD4CA" points="191.1,125.1 192.5,123.5 127.1,123.5 128.1,125.1 	"/>
	<polygon fill="#DDD4CA" points="118.7,109.7 150.9,175.6 149.3,175.6 117.1,110.1 	"/>
	<path fill="#4F3F48" d="M131.7,108c1.5-0.2,1.7-2.4,0.2-2.8c-7.8-2.5-21.5-6.9-29-6.1c0,0-6.1,0.5-4.4,7.8c0,0,1.1,5.6,10.1,4.5
		L131.7,108z"/>
	<path fill="#3F323A" d="M98.6,104.2c0,0,1.1,5.6,10.1,4.5l23-3.4c0.1,0,0.2-0.1,0.2-0.1c1.5,0.5,1.3,2.6-0.2,2.8l-23,3.4
		c-9,1.1-10.1-4.5-10.1-4.5c-0.4-1.5-0.4-2.7-0.2-3.7C98.5,103.6,98.5,103.9,98.6,104.2z"/>
	<polygon fill="#DDD4CA" points="124.4,125.1 88,178.5 91.1,177.2 125.3,126.6 	"/>
	<polygon fill="#DDD4CA" points="88,178.5 146.3,178.5 146.3,177.2 91.1,177.2 	"/>
	<g>
		<path fill="#EAE0D3" d="M217.1,180.5c0.2,0,0.4,0,0.6-0.1c0.8-0.3,1.2-1.3,0.9-2.1l-32-81.4H165c-0.2,0-5.4,0-8.4,3.8
			c-2.1,2.5-2.7,6.1-1.7,10.5c0.6,2.9,3.9,7.9,11.7,6.3c0.9-0.2,1.4-1,1.3-1.9c-0.2-0.9-1-1.4-1.9-1.3c-6.4,1.3-7.7-3.3-7.8-3.8
			c-0.7-3.4-0.3-6,1.1-7.7c2.1-2.5,5.9-2.6,5.9-2.6l0,0h19.3l31.2,79.3C215.8,180.1,216.4,180.5,217.1,180.5z"/>
	</g>
	<path fill="#4F3F48" d="M156.6,100.7c3.1-3.8,8.2-3.8,8.4-3.8h10.3v3.3H165c0,0-3.8,0.1-5.9,2.6c-1.4,1.7-1.8,4.3-1.1,7.7
		c0.1,0.5,1.4,5.2,7.8,3.8c0.9-0.2,1.7,0.4,1.9,1.3c0.2,0.9-0.4,1.7-1.3,1.9c-7.8,1.6-11-3.4-11.7-6.3
		C153.9,106.7,154.5,103.2,156.6,100.7z"/>
	<path fill="#DDD4CA" d="M217.5,180.2l-32.2-81.9h-10v1.8h9l31.1,79C215.5,179.2,216,180.5,217.5,180.2z"/>
	<path fill="#3F323A" d="M175.3,98.3h-10.4c0,0-8.8-0.1-8.8,8.8c0,0-0.3,11.8,11.6,8.2c0,0-0.4-1.2-1.8-1c0,0-8.4,2.3-8.2-7.2
		c0,0-0.6-6.1,6.9-6.9l10.7,0V98.3z"/>
	<rect x="143" y="121.8" fill="#7DB588" width="26.8" height="3.3"/>
	<rect x="143" y="121.8" fill="#8BCB99" width="26.8" height="1.6"/>
	<polygon fill="#DDD4CA" points="193.9,124.3 158.2,177.9 159.4,179.4 195.5,124.4 	"/>
	<circle fill="#4F3F48" cx="153.3" cy="179.4" r="8.2"/>
	<path fill="#3F323A" d="M153.3,171.2v16.5c-4.5,0-8.2-3.7-8.2-8.2C145,174.8,148.7,171.2,153.3,171.2z"/>
	<g>
		<path fill="#EAE0D3" d="M152.9,181.8c1.3,0,2.4-1.1,2.4-2.4v-18c0-1.3-1.1-2.4-2.4-2.4s-2.4,1.1-2.4,2.4v18
			C150.5,180.7,151.6,181.8,152.9,181.8z"/>
	</g>
	<path fill="#DDD4CA" d="M152.9,159c0.1,0,0.2,0,0.3,0v22.8c-0.1,0-0.2,0-0.3,0c-1.3,0-2.4-1.1-2.4-2.4v-18
		C150.5,160.1,151.6,159,152.9,159z"/>
	<g>
		<path fill="#4F3F48" d="M147.2,161.7h11c1.3,0,2.4-1.1,2.4-2.4s-1.1-2.4-2.4-2.4h-11c-1.3,0-2.4,1.1-2.4,2.4
			S145.9,161.7,147.2,161.7z"/>
	</g>
	<path fill="#3F323A" d="M147.2,156.8h6.1v4.9h-6.1c-1.3,0-2.4-1.1-2.4-2.4C144.8,157.9,145.9,156.8,147.2,156.8z"/>
</g>
</svg>
