<?xml version="1.0" encoding="utf-8"?>
<!-- Generator: Adobe Illustrator 18.0.0, SVG Export Plug-In . SVG Version: 6.00 Build 0)  -->
<!DOCTYPE svg PUBLIC "-//W3C//DTD SVG 1.1//EN" "http://www.w3.org/Graphics/SVG/1.1/DTD/svg11.dtd">
<svg version="1.1" id="Layer_1" xmlns="http://www.w3.org/2000/svg" xmlns:xlink="http://www.w3.org/1999/xlink" x="0px" y="0px"
	 viewBox="0 0 300 300" enable-background="new 0 0 300 300" xml:space="preserve">
<g>
	<path fill="#46454C" d="M150,4C69.6,4,4,69.6,4,150s65.6,146,146,146s146-65.6,146-146S230.4,4,150,4z M276.6,150.3
		c0,69.9-57,126.9-126.9,126.9s-126.6-57-126.6-126.9S80.1,23.4,150,23.4S276.6,80.1,276.6,150.3z"/>
	<path fill="#46454C" d="M174.4,167.5c0.3,0,14.2-1.3,17.1-15.5l0,0c0,0,1-6.9-3-12.5c-3-4-7.6-6.2-13.8-6.9h-44.8
		c-11.2,0-32.6-7.2-33.6-34.6c0-0.3-0.3-27.7,28.3-34.3c0.3,0,5.2-0.6,7.6-0.6h57.3c6.2,0,11.2,5,11.2,11.2v15.5c0,5-4,8.9-8.9,8.9
		s-8.9-4-8.9-8.9v-9.2h-52.7c-0.6,0-16.2,0.3-16.8,18.1c0,0.3,0.3,14.8,16.8,15.2h41.2c0,0,0.3,0,1,0c4.3,0,26,1,34.3,21.4
		c0,0,3,5.9,3,13.8c0,6.9-2.3,17.1-12.2,26.4c4.3,4,13.2,14.2,12.2,30.3c0,0.3-2.6,29.7-34.9,30.7l0,0h-67.2
		c-6.2,0-11.2-5-11.2-11.2v-69.2c0-5,4-8.6,8.6-8.6c5,0,8.9,4,8.9,8.6v63.6h62.9c0.6,0,12.5-1.3,14.8-15.2c0-0.6,1.6-17.1-17.1-19.8
		h-34.9c-5.9,0-7.9-4.6-7.9-8.2c0-4,1.6-8.6,7.9-8.6L174.4,167.5z"/>
</g>
</svg>
