<?xml version="1.0" encoding="utf-8"?>
<!-- Generator: Adobe Illustrator 18.0.0, SVG Export Plug-In . SVG Version: 6.00 Build 0)  -->
<!DOCTYPE svg PUBLIC "-//W3C//DTD SVG 1.1//EN" "http://www.w3.org/Graphics/SVG/1.1/DTD/svg11.dtd">
<svg version="1.1" id="Layer_1" xmlns="http://www.w3.org/2000/svg" xmlns:xlink="http://www.w3.org/1999/xlink" x="0px" y="0px"
	 viewBox="55.9 145.4 500.7 500.7" enable-background="new 55.9 145.4 500.7 500.7" xml:space="preserve">
<g>
	<path fill="#DC847F" d="M306.3,145.4c-137.9,0-250.3,112.5-250.3,250.3s112.5,250.3,250.3,250.3s250.3-112.5,250.3-250.3
		S444.2,145.4,306.3,145.4z M523.3,396.3c0,119.8-97.8,217.6-217.6,217.6s-217-97.8-217-217.6s97.8-217.6,217.6-217.6
		S523.3,275.9,523.3,396.3z"/>
	<path fill="#DC847F" d="M348.1,425.7c0.6,0,24.3-2.3,29.4-26.6l0,0c0,0,1.7-11.9-5.1-21.5c-5.1-6.8-13-10.7-23.7-11.9h-76.9
		c-19.2,0-55.9-12.4-57.6-59.3c0-0.6-0.6-47.5,48.6-58.8c0.6,0,9-1.1,13-1.1h98.3c10.7,0,19.2,8.5,19.2,19.2v26.6
		c0,8.5-6.8,15.3-15.3,15.3c-8.5,0-15.3-6.8-15.3-15.3v-15.8h-90.4c-1.1,0-27.7,0.6-28.8,31.1c0,0.6,0.6,25.4,28.8,26H343
		c0,0,0.6,0,1.7,0c7.3,0,44.6,1.7,58.8,36.7c0,0,5.1,10.2,5.1,23.7c0,11.9-4,29.4-20.9,45.2c7.3,6.8,22.6,24.3,20.9,52
		c0,0.6-4.5,50.9-59.9,52.6l0,0H233.4c-10.7,0-19.2-8.5-19.2-19.2V405.9c0-8.5,6.8-14.7,14.7-14.7c8.5,0,15.3,6.8,15.3,14.7V515
		h107.9c1.1,0,21.5-2.3,25.4-26c0-1.1,2.8-29.4-29.4-33.9h-59.9c-10.2,0-13.6-7.9-13.6-14.1c0-6.8,2.8-14.7,13.6-14.7L348.1,425.7z"
		/>
</g>
</svg>
