<?xml version="1.0" encoding="utf-8"?>
<!-- Generator: Adobe Illustrator 18.0.0, SVG Export Plug-In . SVG Version: 6.00 Build 0)  -->
<!DOCTYPE svg PUBLIC "-//W3C//DTD SVG 1.1//EN" "http://www.w3.org/Graphics/SVG/1.1/DTD/svg11.dtd">
<svg version="1.1" id="Layer_1" xmlns="http://www.w3.org/2000/svg" xmlns:xlink="http://www.w3.org/1999/xlink" x="0px" y="0px"
	 viewBox="0 0 792 612" enable-background="new 0 0 792 612" xml:space="preserve">
<g>
	<g>
		<path fill="#46454C" d="M1612.4,512.2c3.4-2.3,7.2-6.7,7.2-12.2c0-4.3-1.8-8.2-5.1-11.1c-3.2-2.8-7.7-4.4-12.4-4.4h-17.8
			c-1.4,0-2.5,1.1-2.5,2.5v51.6c0,1.4,1.1,2.5,2.5,2.5h18.9c10.3,0,18.1-6.9,18.1-16.1c0-3.5-1.3-6.7-3.8-9.3
			C1616,514.4,1614.3,513.1,1612.4,512.2z M1593.9,507.4v-11.5h7.3c3.4,0,5.6,2.2,5.6,5.6c0,3.4-2.4,6-5.6,6H1593.9z M1608.3,523.8
			c0,1.7-0.6,3.2-1.7,4.3c-1.1,1.1-2.6,1.7-4.2,1.7h-8.4v-11.7h7.4C1604.7,518.1,1608.3,520.4,1608.3,523.8z"/>
		<path fill="#46454C" d="M1676.4,483.7c-7.8,0-15.1,3-20.6,8.5c-5.5,5.5-8.5,12.8-8.5,20.7c0,7.8,3,15.1,8.5,20.6
			c5.5,5.5,12.8,8.5,20.6,8.5c7.8,0,15.2-3,20.6-8.5c5.5-5.5,8.5-12.8,8.5-20.6c0-7.8-3-15.2-8.5-20.7
			C1691.5,486.8,1684.2,483.7,1676.4,483.7z M1693.2,512.9c0,9.3-7.6,16.8-16.9,16.8c-9.3,0-16.8-7.5-16.8-16.8
			c0-9.3,7.5-16.9,16.8-16.9c4.5,0,8.7,1.8,11.9,5C1691.5,504.2,1693.2,508.5,1693.2,512.9z"/>
		<path fill="#46454C" d="M1760.1,483.7c-7.8,0-15.1,3-20.6,8.5c-5.5,5.5-8.5,12.8-8.5,20.7c0,7.8,3,15.1,8.5,20.6
			c5.5,5.5,12.8,8.5,20.6,8.5c7.8,0,15.2-3,20.6-8.5c5.5-5.5,8.5-12.8,8.5-20.6c0-7.8-3-15.2-8.5-20.7
			C1775.2,486.8,1767.9,483.7,1760.1,483.7z M1776.9,512.9c0,9.3-7.6,16.8-16.9,16.8c-9.3,0-16.8-7.5-16.8-16.8
			c0-9.3,7.5-16.9,16.8-16.9c4.5,0,8.7,1.8,11.9,5C1775.2,504.2,1776.9,508.5,1776.9,512.9z"/>
		<path fill="#46454C" d="M1849.2,484.5h-34.1c-1.4,0-2.5,1.1-2.5,2.5v6.4c0,1.4,1.1,2.5,2.5,2.5h10.9v42.7c0,1.4,1.2,2.5,2.5,2.5
			h7.2c1.4,0,2.5-1.2,2.5-2.5V496h10.9c1.4,0,2.5-1.1,2.5-2.5v-6.4C1851.7,485.7,1850.6,484.5,1849.2,484.5z"/>
		<path fill="#46454C" d="M1900.9,506.9c-7.5-3.1-8.5-5.5-8.5-7.7c0-3,3.5-4.4,5.8-4.4c2.4,0,6.1,1.5,10.1,4l0.1,0.1
			c0.4,0.3,0.9,0.4,1.4,0.4c1,0,2.1-0.6,2.8-1.7l2.9-4.4c0.4-0.6,0.6-1.5,0.4-2.3c-0.2-0.8-0.6-1.4-1.2-1.8c-1.3-1-7.7-5.4-16.2-5.4
			c-12.8,0-18.6,8.3-18.6,16c0,10.4,8.7,15.2,15.3,17.8c6.5,2.6,9.2,5.1,9.2,8.4c0,2.8-2.6,4.9-6,4.9c-2.8,0-6.7-1.6-10.9-4.5
			c-0.1-0.1-0.2-0.1-0.2-0.1c-0.5-0.4-1.1-0.6-1.7-0.6c-1,0-2,0.5-2.5,1.4l-2.8,4.8c-1.1,2-0.2,2.9,0.6,3.6
			c1.6,1.5,7.5,6.4,17.9,6.4c5.4,0,10.3-1.8,13.8-5c3.3-3.1,5.2-7.2,5.2-11.5C1917.8,515.1,1909.3,510.2,1900.9,506.9z"/>
		<path fill="#46454C" d="M1999.5,485.8c-0.2-1.2-1.2-2.1-2.5-2.1h-1.2c-1,0-1.8,0.5-2.3,1.4l-16.3,35l-16.3-35
			c-0.4-0.9-1.3-1.4-2.3-1.4h-1.2c-1.3,0-2.3,0.8-2.5,2.1l-9.3,52.4c-0.1,0.8,0.1,1.6,0.6,2.2c0.5,0.5,1.2,0.8,2,0.8h7
			c1.3,0,2.3-1.1,2.5-2.1l4-26.4l12.5,27.7l0,0c0.5,0.9,1.3,1.4,2.3,1.4h1.4c1.1,0,2-0.6,2.3-1.5l12.3-27.7l4.1,26.4l0,0.1
			c0.3,1,1.3,1.9,2.5,1.9h7.1c0.8,0,1.5-0.3,2-0.9c0.5-0.6,0.6-1.3,0.4-2.2L1999.5,485.8z"/>
		<path fill="#46454C" d="M2087.6,537.7l-24-52.5c-0.2-0.4-0.7-1.4-2.3-1.4h-0.8c-1,0-1.8,0.5-2.3,1.5l-24.2,52.4
			c-0.4,0.8-0.3,1.7,0.1,2.4c0.5,0.7,1.2,1.1,2.2,1.1h6.8c1.5,0,2.7-0.8,3.2-2.2l3.5-7.8h21.9l3.5,7.8l0,0c0.6,1.1,1.3,2.1,3.2,2.1
			h6.8c0.9,0,1.7-0.4,2.2-1.1C2087.9,539.4,2087.9,538.5,2087.6,537.7z M2064.8,520.4h-12.4l6.1-13.8L2064.8,520.4z"/>
	</g>
	<path fill="#46454C" d="M1648.7,100.8c-0.6-2.1-1.3-3.9-2-5.3c-6.1-13.8-16.2-18.9-18.1-19.7c-7-3.8-15.5-5.7-25.2-5.7
		c-1.8,0-3.8,0.1-5.6,0.2c-0.2,0-0.4,0-0.7,0c-12.4,1.3-33.1,6.1-57.4,22.3c-4.6,3.1-9.3,6.5-13.9,10.2
		c-37.8,29.5-62.1,66.4-63,67.9c-1.9,2.6-19.1,26-26.9,56.5c-2.4,8.7-4.8,21.8-3.1,34.9c0.3,2.5,0.8,5.2,1.5,7.7
		c1.7,6.2,4.3,11.6,7.7,16.1c5.4,7.9,13,14.9,22.5,20.9l0,0.1l3.8,2.2c2,1.1,4,2.2,6.2,3.3l38.2,20.2c6.3,3.9,11.4,7.4,15.3,10.6
		c3.8,3.3,10.3,10.2,11.3,19.7c0.1,1.6,0.2,3.3,0.1,4.8l0,0.2c-2.8,26.3-23,52.2-23.8,53.2c-30.8,35.1-55.2,46.2-55.5,46.4
		c-4.9,2.4-7.6,2.7-9,2.6c-1.2-0.1-1.5-0.5-1.7-0.7c-1.3-1.6-1.3-5.5-1-7.3l0-0.3c2.1-24.8,25.8-53.3,39.7-68
		c4.4-4.6,10.3-10.3,13.4-13.3c2.1-2,3-4.9,2.3-7.7c-0.6-2.8-2.6-5.1-5.4-6c-5.5-1.9-11.3-3.1-17.4-3.5c-0.8-0.1-1.5-0.1-2.3-0.1
		l-0.3,0c-33.7,1-54.7,26.2-64.2,41.2c-17.2,27.9-19.5,55.3-19.5,56.5c-2.2,27.6,7.8,42.2,16.5,49.4c0.2,0.2,0.5,0.5,1.1,1l0.3,0.2
		c6.4,4.6,14.2,7.3,23.2,8c1.5,0.1,3.1,0.2,4.6,0.2c5.2,0,10.7-0.6,16.5-1.9c11.5-2.6,34.9-10.5,63-33.7l0.1-0.1
		c6.7-5.6,13-11.4,18.7-17.2l1.4-1.4c53.8-55.3,51-104,49.9-113.2c-0.1-0.5-0.1-1-0.2-1.5c-0.6-3.9-1.7-7.8-3.1-11.7
		c-5.5-13.7-17.6-24.9-26.8-31.9c-3.3-2.3-7.5-5.1-12.5-8.3c-2.2-1.4-4.5-2.8-7-4.4c-5.4-3.1-10.6-6.1-15.4-8.9
		c-14.5-8-21.4-12.6-23.7-14.2l-1.3-1c-4.7-3.4-8.4-7-11-10.9l-0.2-0.3c-1-1.2-1.4-2-1.4-2c-0.5-1.1-1-2.2-1.4-3.6
		c-0.8-2.3-0.8-3.7-0.8-3.7l0-0.4c0-0.9-0.1-1.8,0-2.7c0.3-14.9,9.6-32.4,15.1-41.5l6.2-9.5c17.3-26.4,42.1-47.6,59.8-60.8
		c20-15.3,28.7-19.1,32-20c0.1,0,0.9-0.2,1.8-0.1c1.6,0.1,2.6,0.8,3.4,2.3c0.9,2.4,2.3,9.7-2.2,27.3c-1.3,5.9-3.2,11.9-5.4,17.6
		l-0.1,0.2c-11.3,28.2-31.5,46.6-42.5,55.1c-2.5,1.9-5.2,3.8-7.8,5.5c-5.4,3.4-10.1,5.5-13.1,6.6c-3,1.1-5,3.8-5.3,6.9
		c-0.3,3.1,1.2,6.1,3.9,7.8c0.5,0.3,1.1,0.7,1.5,0.9l0.4,0.2c3.6,2,7.6,3.6,11.9,4.9c1.8,0.5,4.6,1.1,8.2,1.5c0.3,0,1.3,0.2,2.9,0.3
		c1.4,0.1,2.8,0.2,4.2,0.2h0c3.8,0,7.6-0.4,11.3-1c0.7-0.1,2.8-0.4,5.7-1.3c2.7-0.8,5.4-1.8,7.9-2.9c0.6-0.2,2.7-1.1,5.8-3
		c1.5-0.9,2.9-1.8,4.2-2.8c5.3-3.7,10.5-8.4,15.7-13.9c4.8-5.1,9.4-10.8,13.7-17.1l0.3-0.4c1-1.4,1.9-2.9,2.9-4.4c1.3-2,2.5-4,3.5-6
		c6-10.6,10.7-21.8,14-33.3c2.3-8.1,3.4-14.6,3.8-18.6c1.4-8.2,2.1-15.9,2.3-23C1651.7,115.4,1650.9,107.6,1648.7,100.8z"/>
	<path fill="#46454C" d="M2177.8,467.5c-0.3-0.4-0.6-0.8-0.9-1.3c-0.3-0.4-0.6-0.8-0.9-1.4l-3.1-4.6c-6.8-10.7-11.8-24.2-14.9-40.1
		c-1.9-8-3-18-3.2-29.7c-0.3-9.7,0.1-16.3,0.2-17.6c1.6-39.3,10.2-81,10.5-82.9c0.7-5.4-1.3-10.8-5.4-14.3
		c-13.5-11.7-24.3-15.8-29.5-17.2c-1.3-0.4-2.6-0.7-3.9-0.8c-2.3-0.2-4.7,0.1-6.9,0.8c-2.5,0.9-5.6,2.6-8.7,5.9l-0.2,0.2
		c-2.1,2.4-5.5,6.6-9.6,12.7c-1.5,2.1-2.9,4.1-4.2,6.1c-4.7,6.7-9.4,13.9-14,21.4c3.5-12.7,7.2-26.5,9.2-34.7
		c5.4-21.4,12.2-49.4,20.4-83.4l9.6-39.6c2.8-11.3,0.9-19.5,0.3-21.7c-6.5-21.2-25.2-36.6-25.5-36.8c-1.4-1-3.1-1.4-4.9-1.2
		c-3.1,0.3-5.7,2.4-6.5,5.5c-3.2,11.5-19.9,72.5-35.4,147.5c-0.2,0.9-14.5,65.2-21.8,132l-0.6,1.9c-7.6,22.1-22,31.7-22.1,31.8
		c-1.6,1-2.9,1.5-3.6,1.7l0,0l-0.9,0.3c-1.6,0.5-2.8,0.3-3.8-0.5c-1.7-1.7-2.6-6.2-2.5-12.1c1.1-26.3,18-88.5,24.2-107.7l10.6-29.5
		c1.1-3,0.5-6.3-1.5-8.7c-4.6-5.7-10-10-16.3-12.9c-3.7-1.3-7.3-1.5-10.5-0.6c-3.5,1-7.2,4.3-10.9,10l-2,3.4
		c-3.4-3.1-7.2-5.8-10-7.5c-1.1-0.7-2-1.3-2.6-1.6l0-0.1l-1.6-0.9c-0.7-0.3-1.3-0.7-2-1c-5.6-2.6-11.2-3.9-16.7-3.9
		c-1.8,0-3.6,0.2-5.5,0.5c-4.1,0.9-8.4,2.7-12.5,5.4c0,0-0.5,0.3-1.3,0.9c-3,2.1-5.9,4.6-8.8,7.6c-0.9,0.9-1.7,1.9-2.5,2.8
		c-8.2,8.9-16.1,20.3-23.4,33.7c-25.1,44.1-29.8,85.4-30.5,94.5l-0.1,0l-0.2,1.7c-0.6,6.1-0.9,12.4-0.9,18.6
		c-8.4,10.8-15.6,14.8-16.8,15.4c-0.9,0.4-1.8,0.6-2.5,0.6c-0.3,0-1.2,0-1.4-1.1c-0.1-0.5-0.3-1.1-0.3-1.7c0-0.1,0-0.2,0-0.3l0-0.2
		c0-1.4,0.2-3.3,0.6-5.6c0.2-0.9,0.5-2.5,0.9-4.5c4-15.8,11.2-41.7,16.4-60.7c7.3-23.9,8-30.1,8.1-31c0.1-0.8,0.2-1.5,0.3-2.3
		c0.1-0.7,0.1-1.3,0.2-2l0-0.3c0.1-1.5,0.1-2.9,0-4.3l0,0c-0.1-3.6-0.9-6.9-2.1-9.9c-1.3-3.5-3.6-6.9-6.3-9.8
		c-1.1-1.2-2.4-2.4-3.8-3.6c-1.8-1.5-3.9-3-6.2-4.5l0,0c-1.3-1-3.6-2.4-6.4-4.1c-1.3-0.8-2.5-1.5-3.7-2.2l-2.1-1.2
		c-12.3-7-28.5-15.6-28.5-15.6l-16.5-8.8c-0.7-0.4-0.4-0.9-0.4-0.9l0.1-0.1c0.1-0.1,0.3-0.3,0.9-0.2l28.9,10.9
		c1.1,0.4,2.3-0.3,2.4-1.5c0.5-3.8,0.3-7.6-0.6-11.2c-1.6-5.7-4.6-10.5-8.8-14.2c-5.1-4.4-11-6.6-17.4-6.5l-0.3,0
		c-7,0.1-12.3,2.9-13.8,3.7l-0.2,0.1c-2.9,1.8-5.5,4.1-7.6,6.8c-0.2,0.3-0.5,0.6-0.7,0.9c-0.9,1.2-3.8,5.5-5.4,11.6
		c-2.2,8.7-0.7,17.5,4.4,25.3l0.1,0.2c0.1,0.2,0.3,0.4,0.4,0.7c3.7,5.3,8.2,9.2,10.5,11c0.2,0.1,0.3,0.4,0.2,0.6
		c-1.2,3.9-2.4,7.6-3.6,11.2c-6.4,19.5-19.1,56.2-32.1,82.6l-0.4,0.7c-7.2,14.3-15.4,30.6-21,34.1c-2.5,1.5-4.5,1.6-5.9,0.3
		c-1.8-1.7-2.7-6.5-2.6-12.6c0.4-10.1,3.1-24.7,6.6-40.2c9.4-38.4,18.2-66.5,23.6-82.4l5.4-15.1l0,0l1.7-4.7c1.1-3,0.5-6.4-1.5-8.9
		c-4.8-5.9-10.5-10.5-17-13.5c-3.8-1.4-7.6-1.6-10.9-0.6c-3.7,1-7.5,4.5-11.3,10.4l-2.2,3.7c-3.5-3.3-7.6-6.1-10.5-7.9
		c-1.2-0.8-2.1-1.4-2.8-1.8l0-0.1l-1.6-0.8c-0.7-0.4-1.3-0.7-2.1-1.1c-5.8-2.7-11.6-4.1-17.3-4c-1.9,0-3.8,0.2-5.7,0.5
		c-4.3,0.9-8.7,2.8-13,5.6c-0.1,0-0.5,0.3-1.3,0.9c-3.1,2.2-6.2,4.8-9.2,7.9c-0.9,1-1.8,2-2.6,2.9c-8.6,9.3-16.8,21.1-24.3,35
		c-26.2,46.1-31,89.2-31.7,98.4l-0.1,0l-0.2,1.7c-0.7,7.3-1,14.6-0.9,21.9c0.4,7.8,1.5,18.8,4.5,27.4c1.5,4.1,5,12.1,11.6,19.1
		c2.3,2.4,10.9,10,25,9.9c5.5-0.1,11.4-1.3,17.4-3.8c15.2-7.2,24.9-22.2,29.4-30.5c0.3-0.6,0.6-1.1,0.8-1.7
		c2.1,5.5,6.7,15.6,14.2,23.6c1.9,2.1,4,3.8,6.1,5.4c3.8,2.5,9.9,5.5,18.1,5.4c5.7-0.1,11.7-1.6,17.7-4.6c1.7-0.8,3.5-1.8,5.2-2.9
		l0.8-0.5c3.6-2.3,7.2-5.4,10.8-9.1c5-5.1,10-11.5,14.9-19l0.5-0.7c4-6.2,7.9-13.2,11.7-20.9l0,0l0.1-0.3c6-12.2,10.6-24,13.4-31.6
		c12.2-31.6,23.3-66.7,24.2-69.6c1.5,0.6,3.6,1.7,5.3,3.1c1.1,0.9,2.7,2.6,3.5,5.4c0.1,0.4,0.2,0.8,0.3,1.2c0,0,0,0.1,0,0.1
		c0.3,1.6,0.4,3.7,0.1,6l0,0c0,0,0,0.1,0,0.2c-0.1,0.6-0.2,1.3-0.4,2l0,0.1c-0.2,0.6-0.3,1.2-0.5,1.8l-0.2,0.4c0,0,0,0,0,0
		c-1.8,6.2-4.8,15.7-4.8,15.7l-15.6,50.6c-1.7,6.5-3.2,12.9-4.3,18.7l-0.1,0.6c-0.1,0.6-0.3,1.2-0.4,1.8c-0.6,3.1-1,5.6-1.2,7.4
		c0,0.2,0,0.4-0.1,0.6l0,0.4c-0.7,5.2-0.8,9.4-0.5,12.5l0,0.2c0.1,1.8,0.2,3.4,0.4,4.9c0.2,1.6,0.6,3.2,0.9,4.5
		c0,0.2,4.5,21.1,28.7,19.6l0.3,0c0.6,0,2.4-0.1,5.1-0.7l0.2,0c6.9-1.5,19.9-6.3,36.4-21.4c3.4,6.4,9.2,14.4,18.5,19.3
		c0.2,0.1,0.4,0.2,0.6,0.3l0.3,0.2c1.9,0.9,7.1,2.9,14,2.8l0.3,0c3.2-0.1,6.5-0.6,9.5-1.6c12.6-3.3,21.9-15.4,27.6-25
		c2.1-3.6,3.9-7.1,5.3-10.1c0.5,4.4,1.3,9.6,2.3,12.5c4,11.5,11.2,19.2,20.8,22.1c1.6,0.5,3.3,0.8,5.1,1.1c1.9,0.3,3.8,0.4,5.7,0.3
		c2,0,4-0.2,5.9-0.5c0.4-0.1,0.8-0.1,1.2-0.2l0.9-0.2c1-0.2,2.1-0.5,3.2-0.8c3.8-1.1,7.8-2.8,11.6-5.1c4.3-2.6,8.8-6.4,13.6-11.6
		c0,3.3,0,6.6,0.1,9.8c0.1,4.5,3.8,8.1,8.4,8l22-0.5c4.3-0.1,7.8-3.5,8-7.8c0.6-12.3,2-24.5,4.2-36.3c0.2-1.1,0.4-2.2,0.5-3.2
		c0.1-0.4,0.4-1.7,0.9-4c3.5-16.1,7.2-25.7,7.4-26.2c6.6-19.9,17.5-46.1,33.3-61.5c-2.9,16.7-10.3,65.6-4.1,101.8
		c0.3,1.8,0.6,3.6,1,5.4c0.1,0.6,10.4,56.3,57.8,55.8l0,0c1.8,0,3.6-0.1,5.4-0.3c1.2-0.1,2.3-0.3,3.5-0.4c2.7-0.3,5-2.1,6-4.6
		C2179.7,472.2,2179.2,469.5,2177.8,467.5z M1704.9,292.8c-0.4,1.3-0.8,2.6-1.1,3.9c0,0,0,0,0,0c-0.1,0.2-0.1,0.3-0.2,0.5
		c-3.3,11.4-6.8,21.9-10.4,31.6l0,0c0,0-0.1,0.1-0.1,0.3c-4.2,11.4-8.4,21.6-12.6,30.7c-6.7,15.3-15.2,32.9-23.2,44.9
		c-2.3,3.7-4.3,6.2-5.9,7.9c0,0-0.1,0.1-0.1,0.1c0,0,0,0,0,0c-2,2-3.4,2.9-4.4,3.2c-1.2,0.3-2-0.1-2.4-0.6c-2.3-3-3.5-13.2-3.5-13.2
		l0,0c-0.3-2-0.4-4-0.5-6.1c0-0.1,0-0.2,0-0.2l0,0c-0.7-18.2,4.5-39.2,6.5-46.6c17-56.1,35.5-73.7,36.2-74.4c2.1-1.8,4-2.9,5.6-3.4
		c0.8-0.2,1.7-0.2,2.5-0.3c4.3,0,8.1,2,11.3,6C1702.6,277.2,1707.4,284.1,1704.9,292.8z M1972.3,295.6
		c-22.7,78.5-50.5,106.4-55.9,111.2l-0.3,1.7l0.1-1.8l-0.3-0.5c-0.5-0.7-1-1.8-1.5-3.5c-8.3-23.7,7.6-69.5,10.8-78.2l0,0l0.5-1.5
		c0,0,0,0,0,0l0.6-1.5l0,0c6.4-17.5,14.1-29.8,19.6-37c3.9-4.9,7.8-8.1,10.9-9c5-1,9.5,0.9,13.2,5.4
		C1970.1,281,1974.7,287.4,1972.3,295.6z"/>
</g>
<g>
	<path fill="#46454C" d="M204.8,252.1c4.4-5.3,8.6-11.3,12.4-17.8l0.3-0.5c0.9-1.5,1.7-3,2.6-4.6c1.1-2.1,2.2-4.2,3.1-6.1
		c5.2-10.8,9.1-22.2,11.6-33.8c1.7-8.2,2.3-14.7,2.5-18.6c0.8-8.2,1-15.8,0.7-22.8c-0.1-8.4-1.5-16-4.1-22.6c-0.7-2-1.6-3.8-2.3-5.1
		c-7-13.2-17.3-17.5-19.1-18.2c-7.2-3.2-15.6-4.6-25.2-3.9c-1.8,0.1-3.7,0.3-5.5,0.6c-0.2,0-0.4,0-0.7,0.1
		c-12.2,2.1-32.2,8.3-55.1,25.9c-4.4,3.4-8.7,7-13,11c-35.3,31.6-56.7,69.7-57.5,71.2c-1.7,2.7-17.1,26.9-22.7,57.6
		c-1.7,8.7-3.3,21.8-0.7,34.6c0.4,2.5,1.1,5,2,7.5c2,6,5,11.1,8.7,15.3c5.9,7.4,13.8,13.8,23.6,19.1l0,0.1l3.9,1.9
		c2.1,1,4.1,1.9,6.3,2.8l39,17.3c6.4,3.4,11.8,6.5,15.8,9.4c3.9,3,10.8,9.4,12.5,18.7c0.2,1.6,0.4,3.2,0.4,4.7l0,0.2
		c-1,26.1-19.2,53-19.9,54.1c-28,36.7-51.3,49.3-51.6,49.5c-4.7,2.7-7.3,3.2-8.7,3.2c-1.2,0-1.5-0.4-1.7-0.6
		c-1.3-1.5-1.6-5.3-1.5-7.1l0-0.3c0.4-24.6,21.9-54.3,34.6-69.7c4-4.8,9.4-10.8,12.3-14c1.9-2.1,2.6-5,1.8-7.8
		c-0.8-2.8-2.9-4.8-5.7-5.6c-5.5-1.5-11.4-2.3-17.4-2.3c-0.8,0-1.5,0-2.3,0l-0.3,0c-33.2,3.3-52.1,29.6-60.5,45
		C8,468.9,7.6,496.1,7.6,497.2c-0.3,27.4,10.6,41,19.6,47.6c0.2,0.2,0.6,0.4,1.1,0.9l0.3,0.2c6.6,4.1,14.5,6.2,23.5,6.3
		c1.5,0,3,0,4.6-0.1c5.1-0.3,10.5-1.3,16.2-3c11.1-3.4,33.7-12.8,59.8-37.5l0.1-0.1c6.2-6,12-12.1,17.3-18.3l1.2-1.5
		c49.3-58.2,43.3-106,41.5-115c-0.1-0.5-0.2-1-0.3-1.5c-0.9-3.8-2.2-7.6-3.8-11.3c-6.3-13.2-19-23.4-28.6-29.6
		c-3.4-2.1-7.8-4.5-12.9-7.3c-2.3-1.2-4.6-2.5-7.2-3.8c-5.6-2.7-10.9-5.3-15.8-7.8c-14.8-6.9-22-10.9-24.4-12.4l-1.4-0.9
		c-4.9-3-8.7-6.4-11.6-10l-0.2-0.3c-1-1.1-1.5-1.8-1.5-1.9c-0.6-1-1.1-2.1-1.6-3.4c-0.9-2.2-1.1-3.6-1.1-3.6l0-0.4
		c-0.1-0.9-0.2-1.8-0.2-2.7c-0.7-14.7,7.3-32.6,12.1-41.9l5.5-9.8c15.2-27.2,38.3-49.8,54.9-64c18.7-16.5,27-20.8,30.2-21.9
		c0.1,0,0.8-0.3,1.8-0.2c1.6,0,2.6,0.6,3.5,2c1,2.3,2.9,9.4-0.3,27.1c-0.9,6-2.3,11.9-4.2,17.7l-0.1,0.2
		c-9.2,28.6-27.9,48.1-38.2,57.2c-2.4,2.1-4.8,4.1-7.3,6c-5.1,3.7-9.6,6.1-12.5,7.4c-2.8,1.3-4.7,4.1-4.7,7.2
		c-0.1,3.1,1.6,6,4.3,7.4c0.6,0.3,1.1,0.6,1.6,0.8l0.4,0.2c3.7,1.7,7.7,3.1,12.1,4c1.8,0.3,4.6,0.8,8.1,1c0.3,0,1.3,0.1,2.9,0.1
		c1.4,0,2.8,0,4.2-0.1l0,0c3.7-0.3,7.5-0.9,11.1-1.8c0.7-0.1,2.7-0.6,5.5-1.7c2.6-0.9,5.2-2.1,7.6-3.4c0.5-0.3,2.6-1.3,5.5-3.4
		c1.4-1,2.7-2,4-3C195.2,262.8,200.1,257.9,204.8,252.1z"/>
	<path fill="#46454C" d="M782.3,430.3c-0.2-0.2-0.3-0.4-0.5-0.6c-0.1-0.1-0.1-0.2-0.2-0.2c0,0,0,0,0,0c0,0,0,0,0,0
		c-0.2-0.3-0.5-0.6-0.8-1l-3.3-4.4c-5.6-7.9-10.1-17.4-13.7-28.5l0,0c-2.1-5.8-3.8-12.3-5-19.1c-1.2-6-2-12.9-2.6-20.5
		c-0.5-6.4-0.6-11.4-0.7-14.4c-0.7-29.9,2.8-58.1,3.7-65h0c0.4-2.8,0.2-5.4,0-7c-0.5-4.1-3.2-7.8-5-9.8l-17.3-18.1
		c-2.7-2.9-5.4-5.4-7.5-7.3c-3.4-3.2-6.2-4.3-7-4.5c-2.4-0.7-4.7-0.6-6.8-0.2c-0.1,0-0.2,0-0.3,0.1c-1,0.2-2,0.5-2.9,0.9
		c-3.7,1.6-6.8,5-8.9,7.7c-1.6,2.3-3.5,5.1-5.6,8.5c-1.3,2.1-2.6,4.2-3.9,6.3c-4,6.4-8,13.1-11.9,20.2c-0.2,0.3-0.6,0.1-0.5-0.2
		c2.7-12.2,5.5-25.1,7-32.9c2.7-13.3,5.8-29.3,9.3-47.6l17.6-87c0.7-3.5,0.1-7.1-1.8-10c-11.4-18-20.8-27.5-25.8-32
		c-2.6-2.2-4.3-3.1-5.4-3.5c0,0-0.1,0-0.1,0l0,0c-1.7-0.5-3.1-0.2-4.1,0.1c-0.1,0-0.2,0.1-0.4,0.1c-0.2,0.1-0.4,0.2-0.6,0.3
		c-1.5,0.8-2.4,2.2-2.8,3c-0.5,1.1-1.2,2.6-1.6,4.9c-0.6,2.9-1.5,6.9-2.6,12l0,0c-0.6,2.9-1.3,6.2-2.1,9.8
		c-6.8,32.7-28.5,142.8-37.2,256.5c-0.3,6.4-0.6,12.8-0.8,19.4l-0.1,3.8c-10.6,16.9-19.7,15.1-19.7,15.1c-9.2-1.8-9.4-19.1-7.8-34.4
		c0.9-6.7,2.1-14.1,3.6-21.6c7.7-37.5,15.2-65,19.9-80.6l4.7-14.8l0,0l1.5-4.6c0.9-3,0.3-6.3-1.8-8.6c-4.9-5.6-10.5-9.8-16.9-12.4
		c-3.7-1.2-7.4-1.2-10.6-0.2c-3.5,1.1-7.1,4.6-10.6,10.5l-2,3.6c-3.6-3-7.5-5.6-10.4-7.3c-1.2-0.7-2.1-1.3-2.7-1.6l0-0.1l-1.5-0.7
		c-0.7-0.3-1.3-0.6-2.1-0.9c-5.7-2.4-11.4-3.5-16.9-3.3c-1.8,0.1-3.6,0.3-5.5,0.7c-4.1,1-8.3,3-12.4,5.9c0,0-0.5,0.3-1.2,0.9
		c-2.9,2.2-5.8,4.9-8.6,8c-0.8,1-1.7,2-2.4,2.9c-8,9.3-15.5,21-22.3,34.8c-23.7,45.5-26.8,87.5-27.2,96.4l-0.1,0l-0.1,1.7
		c-0.4,7.1-0.4,14.2-0.1,21.3c0,0.2,0,0.4,0.1,0.5c-7.7,10.8-14.5,15.1-15.6,15.7c-0.9,0.4-1.7,0.7-2.4,0.7c-0.3,0-1.2,0.1-1.5-1
		c-0.2-0.5-0.3-1.1-0.4-1.7c0-0.1,0-0.2,0-0.3l0-0.2c-0.1-1.4,0-3.3,0.3-5.6c0.1-0.9,0.3-2.4,0.7-4.5c3.2-15.8,9-41.8,13.3-60.7
		c6.1-23.9,6.5-30.1,6.5-31c0.1-0.8,0.2-1.5,0.2-2.3c0-0.6,0.1-1.3,0.1-1.9l0-0.3c0-1.4-0.1-2.9-0.2-4.3l0,0
		c-0.3-3.6-1.2-6.8-2.5-9.7c-1.4-3.4-3.9-6.6-6.7-9.4c-1.2-1.1-2.5-2.3-3.9-3.4c-1.9-1.4-4-2.8-6.3-4.2l0,0
		c-1.3-0.9-3.7-2.2-6.6-3.7c-1.3-0.7-2.6-1.4-3.8-2l-2.1-1.1c-12.5-6.3-28.9-14-28.9-14l-16.7-7.9c-0.7-0.3-0.4-0.9-0.4-0.9l0-0.1
		c0.1-0.1,0.3-0.4,0.8-0.2l29.1,9.3c1.1,0.3,2.2-0.4,2.3-1.6c0.3-3.8,0-7.5-1.2-11.1c-1.9-5.6-5-10.2-9.4-13.6
		c-5.3-4.1-11.2-5.9-17.5-5.6l-0.3,0c-6.9,0.5-12,3.5-13.4,4.4l-0.2,0.1c-2.8,1.9-5.3,4.3-7.2,7.1c-0.2,0.3-0.4,0.6-0.7,0.9
		c-0.8,1.2-3.5,5.6-4.8,11.7c-1.8,8.7,0.1,17.3,5.6,24.8l0.2,0.2c0.2,0.2,0.3,0.4,0.5,0.6c3.9,5.1,8.5,8.7,10.9,10.4
		c0.2,0.1,0.3,0.4,0.2,0.6c-1,3.9-2,7.6-3,11.2c-5.4,19.6-16.2,56.4-27.7,83.1l-0.3,0.7c-6.5,14.5-13.8,30.9-19.1,34.7
		c-2.4,1.6-4.4,1.8-5.8,0.6c-1.8-1.6-3-6.3-3.2-12.4c-0.1-10,1.9-24.5,4.6-40c7.4-38.3,14.8-66.5,19.4-82.4l4.6-15.1l0,0l1.4-4.7
		c0.9-3,0.2-6.4-1.9-8.7c-5-5.6-10.8-9.8-17.4-12.5c-3.8-1.2-7.6-1.2-10.8-0.1c-3.6,1.2-7.2,4.8-10.7,10.8l-2,3.7
		c-3.7-3.1-7.8-5.6-10.7-7.3c-1.3-0.7-2.2-1.3-2.8-1.6l0-0.1l-1.6-0.7c-0.7-0.3-1.4-0.6-2.1-0.9c-5.9-2.4-11.7-3.5-17.3-3.1
		c-1.8,0.1-3.7,0.4-5.6,0.8c-4.2,1.1-8.5,3.2-12.5,6.2c0,0-0.5,0.3-1.3,0.9c-2.9,2.3-5.9,5-8.7,8.2c-0.8,1-1.7,2-2.5,3
		c-8,9.6-15.5,21.6-22.3,35.7c-23.7,46.7-26.3,89.5-26.6,98.7l-0.1,0l-0.1,1.7c-0.3,7.2-0.3,14.5,0.1,21.7
		c0.8,7.6,2.4,18.5,5.7,26.9c1.7,4,5.5,11.7,12.4,18.3c2.4,2.2,11.3,9.4,25.2,8.5c5.5-0.3,11.2-1.9,17-4.6
		c14.7-7.8,23.6-23.1,27.6-31.6c0.3-0.6,0.5-1.2,0.8-1.7c2.4,5.4,7.3,15.1,15.2,22.6c2,1.9,4.1,3.6,6.3,5c3.8,2.3,10.1,5,18.1,4.5
		c5.6-0.3,11.4-2.2,17.2-5.4c1.7-0.9,3.3-1.9,5-3.1l0.7-0.5c3.4-2.5,6.9-5.7,10.2-9.5c4.7-5.3,9.3-11.8,13.8-19.5l0.4-0.7
		c3.6-6.3,7.2-13.4,10.6-21.2l0,0l0.1-0.3c5.4-12.4,9.3-24.2,11.7-31.8c10.5-31.8,19.8-66.9,20.6-69.9c1.5,0.6,3.6,1.5,5.4,2.8
		c1.1,0.8,2.7,2.5,3.7,5.2c0.1,0.4,0.2,0.7,0.3,1.2c0,0,0,0.1,0,0.1c0.4,1.6,0.6,3.6,0.4,6l0,0c0,0,0,0.1,0,0.2
		c-0.1,0.6-0.2,1.3-0.3,2l0,0.1c-0.1,0.6-0.3,1.2-0.4,1.8l-0.1,0.4c0,0,0,0,0,0c-1.4,6.2-4,15.7-4,15.7l-12.9,50.7
		c-1.3,6.5-2.5,12.9-3.4,18.7l-0.1,0.6c-0.1,0.6-0.2,1.2-0.3,1.8c-0.5,3-0.8,5.6-0.8,7.4c0,0.2,0,0.4,0,0.6l0,0.4
		c-0.4,5.2-0.4,9.3,0.1,12.4l0,0.2c0.2,1.8,0.4,3.3,0.6,4.8c0.3,1.6,0.7,3.2,1.1,4.4c0.1,0.2,5.4,20.6,29.3,18l0.3,0
		c0.6,0,2.4-0.2,5-0.9l0.2,0c6.7-1.8,19.2-7.2,34.7-22.6c2,3.2,4.5,6.7,7.9,10c2.3,2.2,10.9,9.3,24.6,8.6c1.2-0.1,2.3-0.2,3.5-0.3
		c0,0,0,0,0,0c0.1,0,0.1,0,0.2,0c0.2,0,0.4-0.1,0.6-0.1c28.6-4,40.4-36.1,40.4-36.1s1.5,3.8,4.4,8.8c0.1,0.2,0.3,0.4,0.4,0.7
		c0.1,0.2,0.2,0.4,0.3,0.6c1.4,2.4,3.1,4.8,5,7.2c0,0.1,0.1,0.1,0.1,0.2c0.3,0.4,0.6,0.7,0.9,1.1c0.2,0.2,0.3,0.4,0.5,0.6
		c0.2,0.2,0.4,0.5,0.6,0.7c0.3,0.3,0.6,0.6,0.9,1c0.1,0.1,0.2,0.2,0.3,0.3c1.3,1.4,2.7,2.7,4.2,3.9v0l0,0c0.6,0.5,1.2,0.9,1.8,1.4
		c4,2.8,14.8,8.3,30.2,2.1c4.2-1.7,10.8-5.4,16.7-12.2c0.1,2,0.2,4.1,0.4,6.1c0.3,4.4,4.2,7.8,8.7,7.5l21.7-1.5
		c4.2-0.3,7.6-3.8,7.6-8.1c0-2.5,0.1-5.1,0.1-7.6c0.8-22.6,4.1-42.1,8-57.7c5.5-21,12.4-36.7,18.3-47.6l0,0.1c0,0,0.1-0.2,0.3-0.5
		c1.5-2.7,2.9-5.1,4.2-7.2c2.4-3.9,5.5-8.5,8-11.2c0.4-0.4,1.1-0.1,1,0.5c-1.3,7.3-5.7,36.9-3,77.8c0.7,7.7,1.7,15.3,3.3,22.3
		c0.4,1.7,0.8,3.5,1.3,5.2c0.1,0.5,12,51,54.6,52.4l-0.1,0c0,0,4.8,0.2,9.6-0.5c0.3,0,0.5-0.1,0.8-0.1c2.4-0.4,4.2-1,5.5-1.7
		c0.3-0.1,0.5-0.3,0.8-0.4l0,0c1.1-0.6,2-1.4,2.5-2.4c0,0,0,0,0,0c0,0,0,0,0,0c0.1-0.3,0.3-0.5,0.3-0.8c0.2-0.5,0.2-0.9,0.3-1.4
		C784.6,434.1,783.2,431.6,782.3,430.3z M309,281.1c-0.3,1.3-0.6,2.6-0.9,3.9c0,0,0,0,0,0c0,0.2-0.1,0.3-0.1,0.5
		c-2.7,11.4-5.7,22-8.7,31.7c0,0,0,0,0,0s0,0.1-0.1,0.3c-3.6,11.4-7.3,21.7-11,30.9c-5.9,15.4-13.4,33.2-20.7,45.5
		c-2.1,3.8-3.9,6.3-5.5,8.1c0,0-0.1,0.1-0.1,0.1l0,0c-1.8,2.1-3.2,3-4.2,3.4c-1.2,0.4-1.9,0-2.4-0.5c-2.4-2.8-4.1-12.9-4.1-12.9l0,0
		c-0.4-1.9-0.6-3.9-0.8-6c0-0.1,0-0.2,0-0.2l0,0c-1.6-17.9,2.5-39,4.2-46.4c14.1-56.2,31.5-74.5,32.2-75.2c2-1.9,3.8-3.1,5.4-3.6
		c0.8-0.2,1.6-0.3,2.4-0.4c4.2-0.3,8.1,1.6,11.4,5.4C305.9,265.8,311,272.3,309,281.1z M576.1,269.3c-0.3,1.3-0.6,2.5-1,3.8
		c0,0,0,0,0,0c0,0.2-0.1,0.3-0.1,0.5c-1.1,4.3-2.2,8.5-3.4,12.5c0,0,0,0,0,0c0,0-0.3,1.1-0.9,3.1c-0.1,0.4-0.2,0.7-0.3,1.1
		c-2.8,9.6-10.2,34.2-19.1,56.7c-2.1,5.5-4.2,10.4-6.2,14.7c0,0,0,0.1,0,0.1l0,0c-1.1,2.2-2.1,4.2-3.1,6.1h0c0,0-0.1,0.2-0.3,0.5
		c-2.2,4.2-4.3,7.6-6.2,10.3c-3.9,5.9-8.6,12-11.8,12.1c0,0,0,0,0,0c-0.8,0.1-1.4-0.2-1.8-0.6c-2.4-2.8-3.9-12.7-3.9-12.7l0,0
		c-0.3-1.9-0.6-3.9-0.7-5.9c0-0.1,0-0.2,0-0.2l0,0c-1.4-17.6,2.9-38.2,4.6-45.4c14.4-55,31.7-72.7,32.3-73.4c2-1.8,3.8-3,5.3-3.5
		c0.8-0.2,1.6-0.3,2.4-0.3c4.1-0.2,7.9,1.6,11.2,5.4C573.2,254.2,578.2,260.7,576.1,269.3z"/>
	<path fill="#46454C" d="M762.9,509c-0.4-4.3-1.4-8.1-2.9-11.5c0-0.1,0-0.1,0-0.1l0,0c-8.9-20.5-33.8-25.7-33.8-25.7
		c-40.6-8.4-80.9-13.3-120.2-15.8c0.2,0.1,0.3,0.1,0.3,0.1c-175-10.1-304.9,26.7-304.9,26.7c0.1-0.1,0.2-0.1,0.3-0.2
		c-76.1,19.9-127.3,43-127.3,43c-0.7,0.4-1.4,0.9-2,1.3c-0.3,0.2-0.5,0.4-0.8,0.5c-0.2,0.1-0.3,0.2-0.5,0.4
		c-4.5,3.6-4.5,7.5-4.1,9.6c0.1,0.3,0.1,0.6,0.2,1c0,0,0,0.1,0,0.1c0.2,0.5,0.4,1,0.6,1.4c0,0,0,0.1,0,0.1c0.1,0.1,0.2,0.2,0.2,0.3
		c1,1.4,3.3,3.6,8,3.9c1.1,0,2.4,0,3.7-0.2c0,0,0.1,0,0.1,0c2.2-0.2,4.7-0.7,7.5-1.4c18.3-4.8,36.1-9.1,53.5-13
		c-0.2,0.1-0.4,0.2-0.5,0.2c0,0,75.7-17.6,174.4-26.8c-0.1,0-0.2,0.1-0.3,0.1c0,0,206.3-18.7,326.5,27.1c0,0,0,0,0,0v0
		c5.9,2.4,9.9,1.8,11.2,1.6c1.4-0.4,2.7-1,3.8-1.7C763.2,525.3,763.8,516.3,762.9,509z"/>
</g>
</svg>
