<?xml version="1.0" encoding="utf-8"?>
<!-- Generator: Adobe Illustrator 18.0.0, SVG Export Plug-In . SVG Version: 6.00 Build 0)  -->
<!DOCTYPE svg PUBLIC "-//W3C//DTD SVG 1.1//EN" "http://www.w3.org/Graphics/SVG/1.1/DTD/svg11.dtd">
<svg version="1.1" id="Layer_1" xmlns="http://www.w3.org/2000/svg" xmlns:xlink="http://www.w3.org/1999/xlink" x="0px" y="0px"
	 viewBox="0 0 108.3 109.5" enable-background="new 0 0 108.3 109.5" xml:space="preserve">
<g>
	<path fill="#EF9884" d="M54.2,10.4c-24.4,0-44.3,19.9-44.3,44.3s19.9,44.3,44.3,44.3c24.4,0,44.3-19.9,44.3-44.3
		S78.6,10.4,54.2,10.4z M92.6,54.8c0,21.2-17.3,38.5-38.5,38.5S15.7,76,15.7,54.8S33,16.3,54.2,16.3S92.6,33.5,92.6,54.8z"/>
	<path fill="#EF9884" d="M61.6,60c0.1,0,4.3-0.4,5.2-4.7v0c0,0,0.3-2.1-0.9-3.8c-0.9-1.2-2.3-1.9-4.2-2.1H48.1
		c-3.4,0-9.9-2.2-10.2-10.5c0-0.1-0.1-8.4,8.6-10.4c0.1,0,1.6-0.2,2.3-0.2l17.4,0c1.9,0,3.4,1.5,3.4,3.4v4.7c0,1.5-1.2,2.7-2.7,2.7
		c-1.5,0-2.7-1.2-2.7-2.7v-2.8h-16c-0.2,0-4.9,0.1-5.1,5.5c0,0.1,0.1,4.5,5.1,4.6l12.5,0c0,0,0.1,0,0.3,0c1.3,0,7.9,0.3,10.4,6.5
		c0,0,0.9,1.8,0.9,4.2c0,2.1-0.7,5.2-3.7,8c1.3,1.2,4,4.3,3.7,9.2c0,0.1-0.8,9-10.6,9.3l0,0H41.3c-1.9,0-3.4-1.5-3.4-3.4V56.5
		c0-1.5,1.2-2.6,2.6-2.6c1.5,0,2.7,1.2,2.7,2.6v19.3h19.1c0.2,0,3.8-0.4,4.5-4.6c0-0.2,0.5-5.2-5.2-6l-10.6,0
		c-1.8,0-2.4-1.4-2.4-2.5c0-1.2,0.5-2.6,2.4-2.6L61.6,60z"/>
</g>
</svg>
