<?xml version="1.0" encoding="utf-8"?>
<!-- Generator: Adobe Illustrator 18.0.0, SVG Export Plug-In . SVG Version: 6.00 Build 0)  -->
<!DOCTYPE svg PUBLIC "-//W3C//DTD SVG 1.1//EN" "http://www.w3.org/Graphics/SVG/1.1/DTD/svg11.dtd">
<svg version="1.1" id="Layer_1" xmlns="http://www.w3.org/2000/svg" xmlns:xlink="http://www.w3.org/1999/xlink" x="0px" y="0px"
	 viewBox="0 0 300 300" enable-background="new 0 0 300 300" xml:space="preserve">
<rect x="-0.3" fill="#E9E2DB" width="300" height="300"/>
<polygon opacity="0.1" fill="#FFFFFF" enable-background="new    " points="-1,300 299,0 299,300 "/>
<g>
	<g>
		<g>
			<path fill="#4C443F" d="M138.3,192.1V188c0-0.2,0.2-0.4,0.4-0.4l0,0l0,0h2.2c0.2,0,0.4,0.2,0.4,0.4s-0.2,0.4-0.4,0.4H139v1.3h1.6
				c0.2,0,0.4,0.2,0.4,0.4s-0.2,0.4-0.4,0.4H139v1.3h1.9c0.2,0,0.4,0.2,0.4,0.4s-0.2,0.4-0.4,0.4h-2.2l0,0l0,0
				C138.5,192.4,138.3,192.3,138.3,192.1z"/>
			<path fill="#4C443F" d="M143.3,191.2c0.1-0.2,0.4-0.2,0.5,0c0.3,0.2,0.8,0.5,1.3,0.5c0.3,0,0.7-0.1,0.9-0.3s0.3-0.3,0.3-0.5
				c0-0.1,0-0.2-0.1-0.2c0-0.1-0.1-0.1-0.2-0.2c-0.2-0.1-0.5-0.2-0.9-0.3l0,0c-0.3-0.1-0.6-0.1-0.9-0.3c-0.3-0.1-0.5-0.3-0.6-0.5
				s-0.2-0.4-0.2-0.6c0-0.4,0.2-0.8,0.6-1c0.3-0.2,0.7-0.4,1.2-0.4c0.7,0,1.2,0.3,1.5,0.6c0.2,0.1,0.2,0.3,0.1,0.5
				c-0.1,0.2-0.3,0.2-0.5,0.1c-0.4-0.2-0.7-0.4-1.1-0.4c-0.3,0-0.6,0.1-0.8,0.2c-0.2,0.1-0.3,0.3-0.3,0.4c0,0.1,0,0.1,0,0.2
				c0,0.1,0.1,0.1,0.2,0.2c0.2,0.1,0.5,0.2,0.9,0.3l0,0c0.4,0.1,0.7,0.2,1,0.3s0.5,0.3,0.7,0.6c0.1,0.2,0.2,0.4,0.2,0.6
				c0,0.4-0.2,0.8-0.6,1.1c-0.3,0.2-0.8,0.4-1.3,0.4c-0.7,0-1.4-0.4-1.8-0.7C143.2,191.6,143.2,191.4,143.3,191.2z"/>
			<path fill="#4C443F" d="M152.1,188.4H151v3.7c0,0.2-0.2,0.4-0.4,0.4s-0.4-0.2-0.4-0.4v-3.7h-1.1c-0.2,0-0.4-0.2-0.4-0.4
				s0.2-0.4,0.4-0.4h2.9c0.2,0,0.4,0.2,0.4,0.4S152.3,188.4,152.1,188.4z"/>
			<path fill="#4C443F" d="M159,188v4.1c0,0.2-0.2,0.4-0.4,0.4s-0.4-0.2-0.4-0.4v-3.4l-0.3,0.2c-0.1,0-0.1,0.1-0.2,0.1
				c-0.1,0-0.3-0.1-0.3-0.2c-0.1-0.2-0.1-0.4,0.1-0.5l0.8-0.5l0,0l0,0l0,0l0,0l0,0l0,0l0,0l0,0l0,0l0,0l0,0l0,0l0,0l0,0l0,0l0,0l0,0
				l0,0l0,0l0,0l0,0C159,187.9,159,187.9,159,188C159,187.9,159,188,159,188L159,188z"/>
			<path fill="#4C443F" d="M161,189.3c0-0.9,0.8-1.7,1.7-1.7s1.6,0.7,1.7,1.5l0,0c0,0.1,0,0.3,0,0.4c0,0.5-0.1,1-0.2,1.4
				c-0.2,0.5-0.5,0.9-0.9,1.2c-0.3,0.2-0.6,0.3-1,0.3c-0.2,0-0.4-0.2-0.4-0.4s0.2-0.4,0.4-0.4c0.3,0,0.5-0.1,0.6-0.2
				c0.2-0.1,0.3-0.3,0.4-0.5c0-0.1,0.1-0.1,0.1-0.2c-0.2,0.1-0.4,0.1-0.7,0.1C161.8,190.9,161,190.2,161,189.3z M161.8,189.3
				c0,0.5,0.4,0.9,0.9,0.9s0.9-0.4,0.9-0.9s-0.4-0.9-0.9-0.9C162.2,188.4,161.8,188.8,161.8,189.3z"/>
			<path fill="#4C443F" d="M169.8,190.8c0,0.9-0.7,1.6-1.6,1.6c-0.9,0-1.7-0.7-1.7-1.6c0-0.6,0.3-1.1,0.7-1.4
				c-0.1-0.2-0.2-0.4-0.2-0.7c0-0.6,0.5-1.1,1.1-1.1s1.1,0.5,1.1,1.1c0,0.3-0.1,0.5-0.2,0.7C169.5,189.7,169.8,190.2,169.8,190.8z
				 M169,190.8c0-0.5-0.4-0.9-0.9-0.9s-0.9,0.4-0.9,0.9s0.4,0.9,0.9,0.9S169,191.3,169,190.8z M167.7,188.7c0,0.2,0.2,0.4,0.4,0.4
				s0.4-0.2,0.4-0.4s-0.2-0.4-0.4-0.4C167.9,188.4,167.7,188.5,167.7,188.7z"/>
			<path fill="#4C443F" d="M175.4,190.8c0,0.9-0.8,1.7-1.7,1.7s-1.6-0.7-1.7-1.5l0,0c0-0.1,0-0.3,0-0.4c0-0.5,0.1-1,0.2-1.4
				c0.2-0.5,0.5-0.9,0.9-1.2c0.3-0.2,0.6-0.3,1-0.3c0.2,0,0.4,0.2,0.4,0.4s-0.2,0.4-0.4,0.4c-0.3,0-0.5,0.1-0.6,0.2
				c-0.2,0.1-0.3,0.3-0.4,0.5c0,0.1-0.1,0.1-0.1,0.2c0.2-0.1,0.4-0.1,0.7-0.1C174.6,189.1,175.4,189.8,175.4,190.8z M174.6,190.8
				c0-0.5-0.4-0.9-0.9-0.9s-0.9,0.4-0.9,0.9s0.4,0.9,0.9,0.9C174.2,191.7,174.6,191.3,174.6,190.8z"/>
		</g>
		<g>
			<rect x="126.9" y="189.4" fill="#4C443F" width="6.3" height="0.6"/>
		</g>
		<g>
			<rect x="179.8" y="189.4" fill="#4C443F" width="6.3" height="0.6"/>
		</g>
	</g>
	<g>
		<path fill="#4C443F" d="M81.2,177.3v-7.2c0-0.4,0.3-0.7,0.7-0.7s0.7,0.3,0.7,0.7v2.9h3.2v-2.9c0-0.4,0.3-0.7,0.7-0.7
			c0.4,0,0.7,0.3,0.7,0.7v7.2c0,0.4-0.3,0.7-0.7,0.7c-0.4,0-0.7-0.3-0.7-0.7v-2.9h-3.2v2.9c0,0.4-0.3,0.7-0.7,0.7
			S81.2,177.7,81.2,177.3z"/>
		<path fill="#4C443F" d="M95.4,176h-3l-0.6,1.6c-0.1,0.3-0.4,0.4-0.6,0.4c-0.1,0-0.2,0-0.2,0c-0.4-0.1-0.5-0.5-0.4-0.9l2.7-7.2
			c0.1-0.3,0.4-0.4,0.6-0.4c0.3,0,0.5,0.2,0.6,0.4l2.7,7.2c0.1,0.4,0,0.7-0.4,0.9c-0.1,0-0.1,0-0.2,0c-0.3,0-0.5-0.2-0.6-0.4
			L95.4,176z M94.9,174.7l-1-2.6l-1,2.6H94.9z"/>
		<path fill="#4C443F" d="M102.3,177.3c0,0.4-0.3,0.7-0.7,0.7c-0.4,0-0.7-0.3-0.7-0.7v-7.1l0,0c0-0.2,0.1-0.4,0.3-0.6
			c0.3-0.2,0.7-0.1,0.9,0.1l3.9,5.5v-5c0-0.4,0.3-0.7,0.7-0.7c0.4,0,0.7,0.3,0.7,0.7v7.1c0,0.4-0.3,0.7-0.7,0.7
			c-0.2,0-0.4-0.1-0.5-0.2c0,0,0,0-0.1-0.1l-3.9-5.4L102.3,177.3L102.3,177.3z"/>
		<path fill="#4C443F" d="M111.7,177.3v-7.2c0-0.4,0.3-0.7,0.7-0.7h1.4c2.4,0,4.3,1.9,4.3,4.3c0,2.4-1.9,4.3-4.3,4.3h-1.4
			C112,178,111.7,177.7,111.7,177.3z M113,176.7h0.8c1.6,0,2.9-1.3,2.9-2.9c0-1.6-1.3-2.9-2.9-2.9H113V176.7z"/>
		<path fill="#4C443F" d="M129.8,170.1v7.2c0,0.4-0.3,0.7-0.7,0.7s-0.7-0.3-0.7-0.7v-5.1l-1.8,2.4c-0.1,0.2-0.3,0.3-0.5,0.3l0,0l0,0
			c-0.2,0-0.4-0.1-0.6-0.3l-1.7-2.4v5.1c0,0.4-0.3,0.7-0.7,0.7c-0.4,0-0.7-0.3-0.7-0.7v-7.2c0-0.4,0.3-0.7,0.7-0.7l0,0
			c0.2,0,0.4,0.1,0.5,0.3l2.4,3.4l2.4-3.4c0.1-0.2,0.3-0.3,0.5-0.3l0,0C129.4,169.5,129.8,169.8,129.8,170.1z"/>
		<path fill="#4C443F" d="M138.2,176h-3l-0.6,1.6c-0.1,0.3-0.4,0.4-0.6,0.4c-0.1,0-0.2,0-0.2,0c-0.4-0.1-0.5-0.5-0.4-0.9l2.7-7.2
			c0.1-0.3,0.4-0.4,0.6-0.4c0.3,0,0.5,0.2,0.6,0.4l2.7,7.2c0.1,0.4,0,0.7-0.4,0.9c-0.1,0-0.1,0-0.2,0c-0.3,0-0.5-0.2-0.6-0.4
			L138.2,176z M137.7,174.7l-1-2.6l-1,2.6H137.7z"/>
		<path fill="#4C443F" d="M143.7,177.3v-7.2c0-0.4,0.3-0.7,0.7-0.7h1.4c2.4,0,4.3,1.9,4.3,4.3c0,2.4-1.9,4.3-4.3,4.3h-1.4
			C144,178,143.7,177.7,143.7,177.3z M145.1,176.7h0.8c1.6,0,2.9-1.3,2.9-2.9c0-1.6-1.3-2.9-2.9-2.9h-0.8V176.7z"/>
		<path fill="#4C443F" d="M153.9,177.3v-7.2c0-0.4,0.3-0.7,0.7-0.7l0,0l0,0h4c0.4,0,0.7,0.3,0.7,0.7s-0.3,0.7-0.7,0.7h-3.3v2.2h2.8
			c0.4,0,0.7,0.3,0.7,0.7s-0.3,0.7-0.7,0.7h-2.8v2.2h3.3c0.4,0,0.7,0.3,0.7,0.7s-0.3,0.7-0.7,0.7h-4l0,0l0,0
			C154.1,178,153.9,177.7,153.9,177.3z"/>
		<path fill="#4C443F" d="M167.6,177.3v-7.2c0-0.4,0.3-0.7,0.7-0.7l0,0l0,0h1.7c1.3,0,2.3,1,2.3,2.3c0,0.5-0.2,1-0.5,1.4
			c0.7,0.5,1.2,1.3,1.2,2.2c0,1.5-1.2,2.6-2.6,2.6h-2.2l0,0l0,0C167.9,178,167.6,177.7,167.6,177.3z M168.9,172.8h1c0.5,0,1-0.5,1-1
			s-0.4-1-1-1h-1V172.8z M168.9,176.7h1.5c0.7,0,1.3-0.6,1.3-1.3s-0.6-1.2-1.3-1.3h-1.5V176.7z"/>
		<path fill="#4C443F" d="M180.3,178c-2,0-3.5-1.6-3.5-3.5v-4.3c0-0.4,0.3-0.7,0.7-0.7s0.7,0.3,0.7,0.7v4.3c0,1.2,1,2.2,2.2,2.2
			s2.2-1,2.2-2.2v-4.3c0-0.4,0.3-0.7,0.7-0.7s0.7,0.3,0.7,0.7v4.3C183.9,176.4,182.3,178,180.3,178z"/>
		<path fill="#4C443F" d="M194,177c0.1,0.4-0.1,0.7-0.4,0.9c0,0-0.1,0-0.3,0l0,0c-0.1,0-0.3,0-0.5-0.1s-0.3-0.3-0.4-0.4
			c-0.2-0.4-0.3-0.8-0.3-1.5c0-0.2-0.1-0.4-0.1-0.5c-0.1-0.1-0.2-0.3-0.4-0.4c-0.3-0.2-0.6-0.3-0.7-0.3h-1.4v2.7
			c0,0.4-0.3,0.7-0.7,0.7s-0.7-0.3-0.7-0.7v-7.2c0-0.4,0.3-0.7,0.7-0.7l0,0h2.2c1.5,0,2.6,1.2,2.6,2.6c0,0.8-0.4,1.5-1,2
			c0.2,0.1,0.3,0.3,0.4,0.5c0.2,0.4,0.4,0.8,0.4,1.3c0,0.4,0,0.6,0,0.7C193.8,176.6,194,176.8,194,177z M192.3,172.1
			c0-0.7-0.6-1.3-1.3-1.3h-1.5v2.5h1.5C191.8,173.3,192.3,172.8,192.3,172.1z"/>
		<path fill="#4C443F" d="M197.6,173.6c0-2.5,2-4.4,4.5-4.4c1,0,2,0.4,2.8,1c0.3,0.2,0.4,0.7,0.1,1c-0.2,0.3-0.7,0.4-1,0.1
			c-0.5-0.4-1.2-0.7-1.9-0.7c-0.9,0-1.6,0.3-2.2,0.9c-0.6,0.6-0.9,1.3-0.9,2.1s0.3,1.6,0.9,2.1c0.6,0.6,1.3,0.9,2.2,0.9
			c0.6,0,1.2-0.2,1.7-0.5v-1.7H202c-0.4,0-0.7-0.3-0.7-0.7s0.3-0.7,0.7-0.7h2.4l0,0l0,0c0.4,0,0.7,0.3,0.7,0.7v2.7
			c0,0.1,0,0.1,0,0.2c0,0,0,0,0,0.1l0,0c0,0.1-0.1,0.2-0.2,0.3c-0.8,0.6-1.7,1-2.8,1C199.6,178,197.6,176.1,197.6,173.6z"/>
		<path fill="#4C443F" d="M209.9,177.3v-7.2c0-0.4,0.3-0.7,0.7-0.7l0,0l0,0h4c0.4,0,0.7,0.3,0.7,0.7s-0.3,0.7-0.7,0.7h-3.3v2.2h2.8
			c0.4,0,0.7,0.3,0.7,0.7s-0.3,0.7-0.7,0.7h-2.8v2.2h3.3c0.4,0,0.7,0.3,0.7,0.7s-0.3,0.7-0.7,0.7h-4l0,0l0,0
			C210.2,178,209.9,177.7,209.9,177.3z"/>
		<path fill="#4C443F" d="M225,177c0.1,0.4-0.1,0.7-0.4,0.9c0,0-0.1,0-0.3,0l0,0c-0.1,0-0.3,0-0.5-0.1s-0.3-0.3-0.4-0.4
			c-0.2-0.4-0.3-0.8-0.3-1.5c0-0.2-0.1-0.4-0.1-0.5c-0.1-0.1-0.2-0.3-0.4-0.4c-0.3-0.2-0.6-0.3-0.7-0.3h-1.4v2.7
			c0,0.4-0.3,0.7-0.7,0.7s-0.7-0.3-0.7-0.7v-7.2c0-0.4,0.3-0.7,0.7-0.7l0,0h2.2c1.5,0,2.6,1.2,2.6,2.6c0,0.8-0.4,1.5-1,2
			c0.2,0.1,0.3,0.3,0.4,0.5c0.2,0.4,0.4,0.8,0.4,1.3c0,0.4,0,0.6,0,0.7C224.7,176.6,224.9,176.8,225,177z M223.2,172.1
			c0-0.7-0.6-1.3-1.3-1.3h-1.5v2.5h1.5C222.7,173.3,223.2,172.8,223.2,172.1z"/>
		<path fill="#4C443F" d="M228.6,175.9c0.2-0.3,0.6-0.3,0.9-0.1c0.5,0.4,1.5,1,2.3,0.9c0.6,0,1.2-0.2,1.5-0.5
			c0.4-0.3,0.5-0.6,0.5-0.9c0-0.2,0-0.3-0.1-0.4c-0.1-0.1-0.2-0.2-0.4-0.4c-0.4-0.2-1-0.4-1.7-0.6l0,0c-0.6-0.1-1.1-0.3-1.6-0.5
			s-0.9-0.5-1.1-1c-0.2-0.3-0.3-0.6-0.3-1c0-0.7,0.4-1.4,1-1.8c0.6-0.4,1.3-0.6,2.1-0.6c1.2,0,2,0.6,2.7,1c0.3,0.2,0.4,0.6,0.2,0.9
			c-0.2,0.3-0.6,0.4-0.9,0.2c-0.6-0.4-1.2-0.8-2-0.8c-0.6,0-1,0.2-1.4,0.4c-0.3,0.2-0.5,0.5-0.5,0.8c0,0.1,0,0.2,0.1,0.3
			s0.2,0.2,0.3,0.3c0.3,0.2,0.9,0.4,1.5,0.5l0,0c0.6,0.1,1.2,0.3,1.7,0.5s0.9,0.6,1.2,1c0.2,0.3,0.3,0.7,0.3,1c0,0.8-0.4,1.5-1,1.9
			s-1.4,0.7-2.3,0.7c-1.3,0-2.4-0.7-3.1-1.2C228.5,176.6,228.4,176.2,228.6,175.9z"/>
	</g>
	<g>
		<path fill="#4C443F" d="M267.4,128.4c4.4-1.7,5.4-6.7,5.5-8.8c0-0.4-0.3-0.8-0.8-0.7l-4,0.8c-0.5,0.1-0.8,0.5-0.7,1
			c0.7,3-0.1,5.7-0.7,7.1C266.6,128.1,267,128.5,267.4,128.4z"/>
		<path fill="#4C443F" d="M284.1,132.9c-0.8-0.7-2.1-0.8-2.9-0.8c-0.1,0-0.1,0-0.2,0s-0.1,0-0.2,0h-0.1c-0.1,0-0.2,0-0.2,0l0,0
			c-3,0.2-5.3,2.3-5.3,2.3l0,0c-3.4,2.8-6.1,7.8-6.9,9.4c-0.1,0.3,0,0.6,0.3,0.7c1.2,0.4,2.7,0.1,3.5-0.1c0.3-0.1,0.6-0.3,0.8-0.6
			c0,0,0.7-1.9,1.8-3.9l0,0c0,0,0.8-1.7,1.6-2.6c0,0-1.4,2-0.7,4.8c0,0.1,0.1,0.2,0.1,0.4l0,0c0,0,0.8,2.1,1.1,3.2
			c0.3,1.3,0.4,3-0.3,4.3l0,0c-0.2,0.3-0.3,0.5-0.5,0.7c-0.6,0.5-1.3,0.5-1.9,0.4l0,0c-0.1,0-0.2,0-0.2-0.1l0,0l0,0
			c-1-0.4-1.7-1.6-2-2.1c0-0.1-0.1-0.2-0.1-0.3l0,0l0,0c-0.3-0.5-0.5-0.8-0.8-1c-0.2-0.2-0.5-0.1-0.6,0.1c-1.6,2.3-3.3,3.5-4.5,4.2
			c-0.9,0.5-1.1,1.7-0.4,2.5c1.3,1.6,3.1,2.7,3.1,2.7c3.1,1.5,5.9,1.6,8,1.2c3.6-0.8,5.4-3.5,5.4-3.5c2.4-3.3,1.6-7.5,0.5-10.5l0,0
			c-0.4-1.2-1.4-3.1-1.9-3.9c-0.7-1.3-0.7-2.6-0.4-3.5c0.7-2.6,2.9-2.9,3.4-3c0,0,0,0,0.1,0l0,0c0.1,0,0.3,0,0.4,0
			c0,0,0.2,0,0.3-0.3v-0.1l0,0C284.4,133.2,284.3,133,284.1,132.9z"/>
		<path fill="#4C443F" d="M258.6,150.3c-2.2,1.5-3.8,0.2-3.8,0.2c-2.1-1.2,1-5.6,1-5.6c5.2-8.1,3.8-11.6,3.8-11.6
			c-1.1-2.7-3.8-2.7-3.8-2.7c-1,0-2,0.3-3,0.8l0,0c0,0,0,0-0.1,0c-0.6,0.3-1.2,0.7-1.8,1.1c-0.5,0.3-1,0.7-1.5,1.1
			c-2.5,2.1-3.6,4-3.6,4c0.2-0.5,0.5-1.5,0.7-2.3l0.2-0.7c0-0.4-0.2-0.7-0.5-0.9c-1.6-0.8-3.7-1.3-4.9-1.6c-0.5-0.1-1,0.2-1.1,0.7
			c-1.9,10.2-6.1,15.3-6.1,15.3c-3,4.5-4.7,2.5-4.7,2.5c-1.3-0.9,0-4.2,0-4.2c2.5-5.9,5.4-10,6.9-12.1c0.3-0.5,0-1.2-0.6-1.1
			l-6.4,0.3c-0.4,0-0.8,0.3-1,0.6l-0.5,1.4l-0.1,0.3l0,0l-0.2,0.5l0,0l0,0c-0.1-0.3-0.3-0.6-0.5-0.9c-1.2-1.6-3.2-1.9-3.2-1.9l0,0
			c-1-0.2-1.8-0.1-1.8-0.1c-10.5,0.3-13.6,14.6-13.6,14.6c-1.2,3-2.6,3.9-3.5,4.1c-0.4,0-0.6,0-0.9,0c-0.9-0.4-0.5-1.5-0.4-1.9
			l2-4.4l4.8-9.6l0,0c1.2-2.2,2.3-4.4,3.5-6.4c5.6,0.6,13.2,0.6,21.9-1.4c0.5-0.1,0.7-0.7,0.4-1.1l-0.8-1.1c-0.4-0.5-1-0.8-1.7-0.7
			c-2.7,0.5-10,1.5-18.2,0.6c1.4-3.2,2.4-5.7,2.8-6.8c0.2-0.5,0.1-1-0.2-1.3c-1.7-2.1-3.8-3.3-5-3.8c-0.6-0.3-1.2,0.1-1.3,0.6
			c-0.6,2.6-2,6.1-3.5,9.9c-0.7-0.2-1.4-0.4-2.1-0.7c0,0-0.2-0.1-0.6-0.2c1.5-3.1,2.7-5.3,3.2-6.4c0.2-0.4,0.1-0.9-0.2-1.2
			c-2.5-3.1-4.3-4.4-5.2-4.9c-0.4-0.2-0.8,0-1,0.3l-4.2,9.8c-0.4-0.1-0.9-0.2-1.3-0.4l0,0c0,0-0.1,0-0.4-0.1c-2.8-0.7-6-1.5-9.4-2
			c-6.2-0.8-14.7-1.1-22.9,1.5c-1.8,0.7-3.6,1.7-5.3,2.8c-0.6,0.4-0.6,1.3-0.1,1.8c1.1,1,3,2.6,4.9,3.5c0.9,0.4,1.8,0.4,2.7,0.1
			c0.1-0.1,0.3-0.1,0.5-0.2c14.1-5.8,29.1-2.1,29.1-2.1l-0.1,0.2c-7.7,17.6-10.2,22-10.2,22c-2.6,3.3-4,1.7-4,1.7
			c-1.3-0.9,0-4.2,0-4.2c2.5-5.9,5.4-10,6.9-12.1c0.3-0.5,0-1.2-0.6-1.1l-6.4,0.3c-0.3,0-0.7,0.2-0.9,0.4l-0.9,2.4l0,0l0,0l0,0l0,0
			c-0.1-0.3-0.3-0.6-0.5-0.8c-0.8-1.1-1.9-1.6-2.6-1.8c-0.2-0.1-0.4-0.1-0.5-0.1l0,0l0,0c-1-0.2-1.8-0.1-1.8-0.1
			c-10.5,0.3-13.6,14.6-13.6,14.6v0.5v-0.3c-1.7,6.2-4.3,4.4-4.3,4.4c-1.3-1.2-0.1-4.7,0.5-6.3c0.1-0.2,0.1-0.3,0.1-0.3
			c0.1-0.2,0.2-0.4,0.2-0.6l0,0l0,0c4-10,2.3-13.5,0.9-14.7c0,0-0.9-0.9-2.5-0.8l0,0l0,0c-0.1,0-0.1,0-0.2,0c-0.1,0-0.1,0-0.2,0
			h-0.1c-0.1,0-0.1,0-0.2,0c-0.4,0.1-0.8,0.2-1.2,0.5c-0.7,0.3-1.4,0.9-2.2,1.5c-0.4,0.4-0.8,0.7-1.1,1.1c-1.9,2-3.6,4.2-3.6,4.2
			v-0.1l0,0c-0.1,0.1-0.1,0.2-0.2,0.2c-0.2,0,0.3-0.9,0.3-0.9l3.4-6.7c1.8-3.3,3-5.9,3.8-7.9l0,0l0,0c0.4-1.1,0.8-2,1-2.8l0.7-1.9
			c0.3-0.9,0-2-0.7-2.6l-1.2-1c-0.4-0.3-0.8-0.7-1.3-1.1c-0.3-0.3-0.7-0.5-0.9-0.7l-0.7-0.5c-0.7-0.5-1.6-0.2-1.8,0.6l-0.5,1.8
			c-7,22.7-12.1,32.1-12.1,32.1c-3.7,6.4-6.5,4.8-6.5,4.8c-2.1-1.2,1-5.6,1-5.6c5.2-8.1,3.8-11.6,3.8-11.6c-1.1-2.7-3.8-2.7-3.8-2.7
			c-1.5-0.1-3.2,0.7-4.7,1.8l0,0l0,0c-0.8,0.5-1.5,1.1-2.1,1.7c-0.2,0.2-0.4,0.4-0.6,0.5c-1.8,1.7-2.6,3.1-2.6,3.1
			c0.2-0.6,0.6-2,0.8-2.7l0.1-0.4c0-0.4-0.2-0.7-0.5-0.9c-1.6-0.8-3.7-1.3-4.9-1.6c-0.5-0.1-1,0.2-1.1,0.7
			c-1.9,10.2-6.1,15.3-6.1,15.3c-3,4.5-4.7,2.5-4.7,2.5c-1.3-0.9,0-4.2,0-4.2c2.5-5.9,5.4-10,6.9-12.1c0.3-0.5,0-1.2-0.6-1.1
			l-6.4,0.3c-0.3,0-0.6,0.2-0.9,0.4l-0.9,2.4c-0.1-0.3-0.3-0.6-0.5-0.9c-0.7-1-1.8-1.5-2.5-1.7l0,0c0,0,0,0-0.1,0
			c-0.2-0.1-0.4-0.1-0.6-0.2l0,0l0,0c-1-0.2-1.8-0.1-1.8-0.1c-10.3,0.7-13.4,15-13.4,15s-1,3.5-3.5,3.2c0,0-1.9,0.1-1.1-4.1
			c0.2-1.6,0.9-3.4,1.5-4.8l0,0l0,0c0.5-1.1,0.9-1.9,0.9-1.9c8.5-17.3,15.4-31.4,15.4-31.4c0.3-0.6-0.2-1.2-0.8-1l-9.5,2.3
			c-1.2,0.3-2.3,1-3,2.1c-0.6,0.9-1.4,2.1-2.2,3.3l-3.1,5.1l-10.2,16.9l-1.7,3h-0.3l3.4-13L70,127l0,0l4.1-14.8
			c0.2-0.6-0.3-1.1-0.9-1c-2,0.4-5.7,1.2-8,2c-0.7,0.2-1.3,0.6-1.7,1.1l0,0l0,0c-0.2,0.3-0.4,0.6-0.6,0.9c0,0-0.1,0.2-0.4,0.6
			c-1.9,3-6.3,10-11.1,17.6l0,0c-2.6,4-5.4,8.1-8,11.7c0,0-15.8-7.1-24.2,1.5c-1,0.9-1.7,2-2.2,3.1c0,0-0.1,0.3-0.3,0.8
			c-0.5,1.4-2.8,8.2,3,12.7c2.8,2.1,7.6,4,15.1,2.2c7.6-2.4,11.6-8.2,11.6-8.2s-5.7-3.9-10.8-3.4l0,0c-1.1,0.8-2.2,1.5-3.3,2.1
			c-2.4,1-4.7,1-6.5,0c0,0-0.7-0.4-1-1.2c-0.2-0.5-0.2-0.9-0.1-1.3c0,0,0,0,0-0.1c0-0.2,0.1-0.3,0.2-0.5c0.5-1.1,2.3-3.2,8-2.8
			c0.1,0,0.1,0,0.2,0l0,0l0,0c1.3,0.1,3.6,0.8,5.3,1.5c0,0,4.9,1.6,8.1,5.8c0,0,4.3,3.8,5.9,11.6c0.1,0.4,0.6,0.5,0.8,0.2l4.8-4.9
			c0.5-0.6,0.7-1.4,0.4-2.1c0,0-1.4-5.9-6.6-11.1l5.1-10.6c0.4-0.8,0.9-1.8,1.3-2.7l2.6-5.4l1.6-3.4h0.3l-1.9,8.9v0.1l-0.1,0.5
			l-3.2,14.4c-0.2,0.7,0.4,1.4,1.2,1.3l3.3-0.4c1.4-0.1,2.6-0.9,3.3-2.1l7.2-11.1l0,0l7.2-11.9l0.8-0.1l-2.2,4.6
			c0,0-3.2,6.2-5.2,11.4l-0.2,0.5c-0.8,1.8-1.2,3.4-1.4,4.7v0.1l0,0c-0.3,1.7-0.2,3.1,0.1,4.1c0,0,0.7,4.7,6.1,3.9l0,0
			c3.2-0.4,5.8-3,5.8-3c0.6-0.6,0.7-0.8,0.7-0.8c2.1,3.8,5.1,4.1,5.1,4.1c5.2,1,8-3.4,8-3.4l0.5-0.7l0.5,0.8c5.1,6.4,12-2.1,12-2.1
			c0.1,0-0.1,0.8-0.1,0.8l-0.1,1.9c0,0.3,0.2,0.6,0.4,0.8c0.2,0.1,0.3,0.2,0.5,0.3c0.6,0.3,1.5,0.7,2.8,1.1c0.5,0.2,1,0.3,1.4,0.3
			c0.4,0.1,0.8,0.1,1.2,0.2c0.4,0,0.7-0.3,0.6-0.6c0,0,0-0.1,0-0.2c0-0.1,0-0.1,0-0.1c-1-8.6,4.2-16.3,4.2-16.3
			c2.1-3.1,3.6-4.3,4.5-4.8l0,0l0,0c0.3-0.1,1.2-0.4,1.7,0.6c0.2,0.6,0.2,1.7-0.5,3.4c-0.4,1-0.9,2-1.2,2.4c0,0.1-0.1,0.2-0.1,0.3
			c-6.3,12.2-0.5,14.4-0.5,14.4c5.8,2.4,9.7-3.8,10.5-5.2l0.1-0.1c0-0.1,0.1-0.1,0.1-0.1c0.1-0.2,0.1-0.3,0.2-0.4l0.4-0.8L136,151
			l0,0l0,0c0,0.1,0,0.1,0,0.2l-0.1,0.4c-0.1,1-0.3,2.4,0.1,3.1c0.1,0.2,0.3,0.4,0.5,0.6c0.2,0.2,0.6,0.5,1.2,0.8l0,0
			c0,0,1.8,1.1,5.2,1.8c0.2,0,0.3,0.1,0.4,0.1c0.2,0,0.4-0.1,0.4-0.3c0.1-0.4,0-0.9,0-0.9c-1.6-11.4,6.4-20.5,6.4-20.5
			c0.7-0.8,1.4-1.1,1.8-1.1c0,0,1.6-0.2-0.4,3.9l0,0c-7.1,14.5-0.7,17.9-0.7,17.9c5,3.1,9.2-2.3,10-3.4c2.1,3.4,4.9,3.7,4.9,3.7
			c0.6,0.1,1.2,0.2,1.7,0.1l0,0l0,0c1.4,0,2.6-0.5,3.5-1c0,0,0.1,0,0.1-0.1c0,0,0.1,0,0.1-0.1c2-1.2,3-3,3-3s1,1.8,3,2.6
			c0.1,0,0.2,0.1,0.3,0.1l0,0c0.3,0.1,0.7,0.2,1,0.2l0,0c3.2,0.4,6.3-2.4,7.5-3.7c0,0,0.9,4.3,5.1,4.6c0,0,0.9,0.2,2.3-0.2l0,0
			c0,0,2.9-0.8,4.1-3.6c0,0,0,0.4,0.1,0.9l0,0l0,0c0.3,0.9,1,2.3,3.4,2.8c0.1,0,0.2,0.1,0.4,0.1l0,0l0,0c0.4,0.1,0.8,0.1,1.2,0
			c0,0,3.5-0.2,5.6-3.7c2.1,3.8,5.1,4.1,5.1,4.1c1.1,0.2,2.1,0.2,3,0l0,0l0,0c0.1,0,0.2,0,0.3-0.1c3.9-1,5.1-4.2,5.1-4.2
			s0.6,1.4,2.2,2.4c0.6,0.4,1.1,0.6,1.7,0.7l0,0l0,0c4.4,1,8.7-4.3,8.7-4.3c0.1,0-0.1,0.8-0.1,0.8l-0.1,1.9c0,0.3,0.2,0.6,0.4,0.8
			c0.2,0.1,0.3,0.2,0.5,0.3c0.6,0.3,1.5,0.7,2.8,1.1c0.5,0.2,1,0.3,1.4,0.3c0.4,0.1,0.8,0.1,1.2,0.2c0.4,0,0.7-0.3,0.6-0.6
			c0,0,0-0.1,0-0.2c0-0.1,0-0.1,0-0.1c-1-8.6,4.2-16.3,4.2-16.3c3.7-5.6,5.6-5.1,5.6-5.1c2.6,0.3-1.2,6.9-1.2,6.9
			c-6.3,12.2-0.5,14.4-0.5,14.4c6.5,2.7,10.6-5.5,10.6-5.5C260.2,150.5,259.3,149.9,258.6,150.3z M96.3,150.5c0,0-2.3,2-3.9,1.5l0,0
			c-4.6-1,0.1-8.6,0.1-8.6l0,0c1-1.7,2.6-3.5,5.1-4.9c0,0,2.8-1.5,4.7-0.7C102.4,137.8,98,146.8,96.3,150.5z M173.1,150.1
			c0,0-2.5,2.1-4.1,1.5c-3.4-0.9-1.3-5.7-0.2-7.7c0.9-2,2.6-4.1,5.6-5.8c0,0,2.8-1.5,4.7-0.7C179.2,137.4,174.8,146.4,173.1,150.1z
			 M198.1,147c-2.4,4.8-3.9,5.3-4.6,5.1c-2-0.2-0.4-3-0.4-3l7.1-14.3l0,0c1.2-2.3,2.4-4.6,3.4-6.8c0.3,0.1,0.6,0.1,0.9,0.2
			c0,0,0.8,0.3,2.2,0.6C202.7,137.8,198.1,147,198.1,147z M220.8,150.5c0,0-2.4,2.1-4.1,1.5c-3.5-0.9-1.1-6.1-0.1-7.9
			c0.9-1.9,2.6-3.9,5.5-5.6c0,0,2.8-1.5,4.7-0.7C226.9,137.8,222.5,146.8,220.8,150.5z"/>
	</g>
</g>
</svg>
