<?xml version="1.0" encoding="utf-8"?>
<!-- Generator: Adobe Illustrator 18.0.0, SVG Export Plug-In . SVG Version: 6.00 Build 0)  -->
<!DOCTYPE svg PUBLIC "-//W3C//DTD SVG 1.1//EN" "http://www.w3.org/Graphics/SVG/1.1/DTD/svg11.dtd">
<svg version="1.1" id="Layer_1" xmlns="http://www.w3.org/2000/svg" xmlns:xlink="http://www.w3.org/1999/xlink" x="0px" y="0px"
	 viewBox="0 0 516 520.5" enable-background="new 0 0 516 520.5" xml:space="preserve">
<circle fill="#38373E" cx="258" cy="260.2" r="250.8"/>
<ellipse opacity="0.73" fill="#2F2F33" cx="257.8" cy="417.6" rx="153.5" ry="20.3"/>
<path fill="#E2E2E2" d="M209.4,403.7"/>
<path fill="#E2E2E2" d="M290.4,355.8h121.7c10.7,0,19.5-8.8,19.5-19.5V134.9c0-9.5-7.7-17.2-17.2-17.2l0,0H101.5
	c-9.5,0-17.2,7.7-17.2,17.2v203.7c0,9.5,7.7,17.2,17.2,17.2h124"/>
<path fill="#D8D8D8" d="M257.9,355.8h154.2c10.7,0,19.5-8.8,19.5-19.5V134.9c0-9.5-7.7-17.2-17.2-17.2H257.8"/>
<path fill="#313035" d="M414.5,117.5h-313c-9.5,0-17.2,7.7-17.2,17.2c0,0,0,172.7,0,172.7c0,0,347.2-0.1,347.4,0V134.7
	C431.7,125.2,424,117.5,414.5,117.5z"/>
<circle fill="#F2F2F2" cx="257.8" cy="331.6" r="12.1"/>
<path opacity="0.85" fill="#262628" d="M414.5,117.5H257.9v189.8c86.8,0,173.7,0,173.8,0V134.7C431.7,125.2,424,117.5,414.5,117.5z"
	/>
<path fill="#43AE9B" d="M411.4,137.6v149.6c-0.7,0-306.9,0.2-307,0V137.6C104.3,137.6,411.4,137.6,411.4,137.6z"/>
<path fill="#41A592" d="M411.4,137.6v149.6c-0.3,0-153.4,0.2-153.5,0V137.6C257.8,137.6,411.4,137.6,411.4,137.6z"/>
<path fill="none" stroke="#D2D2D2" stroke-width="0.7" stroke-miterlimit="10" d="M431.7,307.4v-174c0-8.7-7-15.7-15.7-15.7H100
	c-8.7,0-15.7,7-15.7,15.7v177.3V339c0,9.2,7.5,16.7,16.7,16.7h311.8c10.4,0,18.8-8.4,18.8-18.8L431.7,307.4z"/>
<g>
	<path fill="#F7F7F7" d="M316.3,249.6H199.4c-2.1,0-3.8-1.7-3.8-3.8v-77.5c0-1.6,1.3-2.9,2.9-2.9h118.9c1.6,0,2.9,1.3,2.9,2.9v77.5
		C320.2,247.9,318.4,249.6,316.3,249.6z"/>
	<path opacity="0.77" fill="#D3D3D3" d="M320.2,178.1H195.5v-9.9c0-1.5,1.2-2.7,2.7-2.7h119.2c1.5,0,2.7,1.2,2.7,2.7V178.1z"/>
	<circle fill="#E38987" cx="203.4" cy="171.8" r="3"/>
	<circle fill="#F2C051" cx="212.1" cy="171.8" r="3"/>
	<circle fill="#3FA390" cx="220.7" cy="171.8" r="3"/>
	<path opacity="0.77" fill="#D3D3D3" d="M317,165.5h-59.2v12.6h62.3v-10.2C320.2,166.5,318.8,165.5,317,165.5z"/>
	<path fill="#E2E2E2" d="M268.1,239.5h-60.6c-0.7,0-1.3-0.6-1.3-1.3v-48.6c0-0.7,0.6-1.3,1.3-1.3h60.6c0.7,0,1.3,0.6,1.3,1.3v48.6
		C269.4,238.9,268.8,239.5,268.1,239.5z"/>
	<path fill="#E2E2E2" d="M305.9,211.4h-22c-0.7,0-1.3-0.6-1.3-1.3v-20.5c0-0.7,0.6-1.3,1.3-1.3h22c0.7,0,1.3,0.6,1.3,1.3v20.5
		C307.2,210.9,306.6,211.4,305.9,211.4z"/>
	<path fill="#E2E2E2" d="M306.3,218.5h-22.7c-0.5,0-0.9-0.4-0.9-0.9V216c0-0.5,0.4-0.9,0.9-0.9h22.7c0.5,0,0.9,0.4,0.9,0.9v1.6
		C307.2,218.1,306.8,218.5,306.3,218.5z"/>
	<path fill="#E2E2E2" d="M306.3,225h-22.7c-0.5,0-0.9-0.4-0.9-0.9v-1.6c0-0.5,0.4-0.9,0.9-0.9h22.7c0.5,0,0.9,0.4,0.9,0.9v1.6
		C307.2,224.6,306.8,225,306.3,225z"/>
	<path fill="#E2E2E2" d="M306.3,231.5h-22.7c-0.5,0-0.9-0.4-0.9-0.9V229c0-0.5,0.4-0.9,0.9-0.9h22.7c0.5,0,0.9,0.4,0.9,0.9v1.6
		C307.2,231.1,306.8,231.5,306.3,231.5z"/>
	<g>
		
			<polyline fill="none" stroke="#FDFDFE" stroke-width="3" stroke-linecap="round" stroke-linejoin="round" stroke-miterlimit="10" points="
			230.6,205.9 220.7,213.5 230.6,222 		"/>
		
			<polyline fill="none" stroke="#FDFDFE" stroke-width="3" stroke-linecap="round" stroke-linejoin="round" stroke-miterlimit="10" points="
			245,205.9 254.9,213.5 245,222 		"/>
		
			<line fill="none" stroke="#FDFDFE" stroke-width="3" stroke-linecap="round" stroke-linejoin="round" stroke-miterlimit="10" x1="240.2" y1="205.9" x2="235.5" y2="222"/>
	</g>
</g>
<path fill="#D3D3D3" d="M296.6,277.8h-77.4c-1.7,0-3,1.3-3,3v6.5h83.5v-6.5C299.6,279.1,298.2,277.8,296.6,277.8z"/>
<circle fill="#EFEFEF" cx="234.7" cy="277.8" r="4.8"/>
<circle fill="#EFEFEF" cx="250.1" cy="277.8" r="4.8"/>
<circle fill="#EFEFEF" cx="265.6" cy="277.8" r="4.8"/>
<circle fill="#EFEFEF" cx="281" cy="277.8" r="4.8"/>
<polygon opacity="0.1" fill="#FAFCFD" points="104.3,287.2 411.4,137.6 411.4,287.2 "/>
<path fill="#E2E2E2" d="M257.8,319.5v24.1c6.7,0,12.1-5.4,12.1-12.1C269.9,324.9,264.5,319.5,257.8,319.5z"/>
<circle opacity="0.74" fill="#3A3A3A" cx="257.9" cy="128.2" r="4.3"/>
<path fill="#D8D8D8" d="M257.9,355.8"/>
<path fill="#C6C6C5" d="M290.4,384.1v-28.1h-64.9v28.6c0,8.3-1,18.4-16.2,19.1h97.3C306.6,403.8,290.4,404.4,290.4,384.1z"/>
<path fill="#AEADAE" d="M210.4,402.8h95.1c0.6,0,1.1,0.5,1.1,1.1v3.8c0,0.6-0.5,1.1-1.1,1.1h-95.1c-0.6,0-1.1-0.5-1.1-1.1v-3.8
	C209.4,403.3,209.8,402.8,210.4,402.8z"/>
<g>
	<path fill="#BABABA" d="M290.4,384.1v-28.1H258v47.7h48.2C303.8,403.7,290.4,402.6,290.4,384.1z"/>
	<path fill="#BABABA" d="M306.6,403.8h-0.4C306.5,403.8,306.6,403.8,306.6,403.8z"/>
</g>
<polygon opacity="0.33" fill="#9B9A9A" points="225.6,356.1 290.4,367.9 290.4,356.1 "/>
<path fill="#A3A2A2" d="M305.5,402.8h-47.6v6h47.6c0.6,0,1.1-0.5,1.1-1.1v-3.8C306.6,403.3,306.1,402.8,305.5,402.8z"/>
<polygon opacity="0.23" fill="#9B9A9A" points="318.7,307.4 309.3,356.1 318.7,356.1 "/>
<ellipse opacity="0.47" fill="#29292B" cx="355.1" cy="417.9" rx="49.3" ry="7.2"/>
<g>
	<path fill="#F2F2F2" d="M326.9,276.5h56.4c4.4,0,8.1,3.6,8.1,8.1v126.2c0,4.4-3.6,8.1-8.1,8.1h-56.4c-4.4,0-8.1-3.6-8.1-8.1V284.5
		C318.9,280.1,322.5,276.5,326.9,276.5z"/>
	<path fill="#FFFFFF" d="M355.1,276.5h-28.2c-4.4,0-8.1,3.6-8.1,8.1v126.2c0,4.4,3.6,8.1,8.1,8.1h28.2V276.5z"/>
	<path fill="#E38987" d="M326.9,297.9h56.4v91.3h-56.4V297.9z"/>
	<path opacity="0.87" fill="#E27D7D" d="M355.1,297.9h28.2v91.3h-28.2V297.9z"/>
	<path fill="#D3D3D3" d="M346.9,289h16.3c0.8,0,1.4,0.6,1.4,1.4s-0.6,1.4-1.4,1.4h-16.3c-0.8,0-1.4-0.6-1.4-1.4S346.1,289,346.9,289
		z"/>
	<path fill="#D3D3D3" d="M355.1,397.3c3.7,0,6.7,3,6.7,6.7c0,3.7-3,6.7-6.7,6.7s-6.7-3-6.7-6.7C348.4,400.3,351.4,397.3,355.1,397.3
		z"/>
	<circle fill="#D3D3D3" cx="355.1" cy="285.4" r="1.8"/>
	<path opacity="0.83" fill="#E16269" d="M362.5,336.6h-14.8c-1,0-1.8-0.8-1.8-1.8v-14.8c0-1,0.8-1.8,1.8-1.8h14.8
		c1,0,1.8,0.8,1.8,1.8v14.8C364.3,335.8,363.5,336.6,362.5,336.6z"/>
	<path fill="#EAA9A9" d="M374.5,348.9h-38.8c-0.5,0-1-0.4-1-1v-6.1c0-0.5,0.4-1,1-1h38.8c0.5,0,1,0.4,1,1v6.1
		C375.5,348.5,375,348.9,374.5,348.9z"/>
	<path fill="#EAA9A9" d="M374.6,359.5h-38.9c-0.5,0-0.9-0.4-0.9-0.9v-6.3c0-0.5,0.4-0.9,0.9-0.9h38.9c0.5,0,0.9,0.4,0.9,0.9v6.3
		C375.5,359.1,375.1,359.5,374.6,359.5z"/>
	<polygon opacity="0.1" fill="#FAFCFD" points="340.6,297.9 383.3,370.5 383.3,297.9 	"/>
	<path opacity="0.26" fill="#A09F9F" d="M355.1,397.3v13.4c3.7,0,6.7-3,6.7-6.7C361.8,400.3,358.8,397.3,355.1,397.3z"/>
	<path opacity="0.26" fill="#A09F9F" d="M363.3,289h-8.1v2.9h8.1c0.8,0,1.4-0.6,1.4-1.4C364.7,289.6,364.1,289,363.3,289z"/>
	<path opacity="0.26" fill="#A09F9F" d="M355.1,283.6v3.6c1,0,1.8-0.8,1.8-1.8C356.9,284.4,356.1,283.6,355.1,283.6z"/>
</g>
</svg>
