<?xml version="1.0" encoding="utf-8"?>
<!-- Generator: Adobe Illustrator 18.0.0, SVG Export Plug-In . SVG Version: 6.00 Build 0)  -->
<!DOCTYPE svg PUBLIC "-//W3C//DTD SVG 1.1//EN" "http://www.w3.org/Graphics/SVG/1.1/DTD/svg11.dtd">
<svg version="1.1" id="Layer_1" xmlns="http://www.w3.org/2000/svg" xmlns:xlink="http://www.w3.org/1999/xlink" x="0px" y="0px"
	 viewBox="0 0 576 576" enable-background="new 0 0 576 576" xml:space="preserve">
<rect fill="#EEE9E3" width="576" height="576"/>
<g>
	<g>
		<g>
			<path fill="#894040" d="M367,340L367,340c-2.5-3-3.3-8.4-3.3-8.4l0,0c-0.5-3.5-1.7-5.9-2.8-7.7c0,0-0.2-0.5-1.1-1.4l-0.2-0.2
				c0-0.2-0.2-0.2-0.2-0.2c-0.2-0.2-0.2-0.4-0.4-0.4l0,0c0,0,0,0-0.2-0.2c-0.5-0.7-1.6-1.6-2.5-2.5l0,0c0,0-3.3-3-5.3-5.6
				c-0.4-0.4-0.5-1.1-1.1-1.4c-1.4-2.8-3.2-7.2-4.6-11.2l-2.5-8.8c-1.9-8.6-5.9-16.4-5.9-16.4c-9,1.4-14.9,7.4-17,10.1
				c0,0.2-2.8,3.5-1.9,8.2c1.2,3,3.5,7,8.4,11.2c0.4,0.4,1.1,0.7,1.4,1.2l0,0c0,0,0,0,0.2,0.2c0.4,0.2,0.5,0.5,1.1,0.7
				c0.2,0,0.2,0.2,0.4,0.2c2.5,1.7,7,5.5,10.1,8.4c6.3,5.9,11.8,18.6,12.2,22.3l1.7,0.2l0,0l0,0c0,0,0,0,0-0.2l0,0
				c0-0.2,0-0.7,0-1.4l0,0c0-0.2,0-0.2,0-0.4l0,0c0-1.1,0-1.7-0.2-2.5v-0.7v-0.2c0,0,0,0,0-0.2c-0.4-1.7-1.1-3.2-1.1-3.2
				s3,2.3,2.8,8.8c4.6,3.8,10.3,3.7,10.3,3.7l0,0c1.7,0,3.5-0.4,3.5-0.4v-0.7C368.3,341.1,367.5,340.5,367,340
				C367.2,340.2,367.2,340,367,340z"/>
		</g>
		<g>
			<path fill="#894040" d="M245.7,350.2c-0.2-0.4-0.2-1.1-0.4-1.4c-0.2-2.1,0.2-5.1,0.4-6.7c0-0.2,0.2-0.5,0.2-0.7l0,0l0,0
				c0.7-5.8-1.1-9.3-2.5-11.2l0,0l0,0c0-0.2-0.2-0.2-0.2-0.4l0,0l-1.2-1.4l-1.2-1.7c-1.1-1.9-1.4-3.3-1.6-3.7
				c-0.2-0.5-0.4-1.2-0.4-1.7c0,0,0-0.4-0.2-1.1c-0.7-3.2-1.1-5.8-1.1-8c0-0.5,0-1.2,0-1.9c0.2-1.1,0.4-2.3,0.5-3.3l0,0v-0.2
				c0.2-0.5,0.2-1.1,0.4-1.6l0,0c3.3-13.3-0.4-19.8-0.4-19.8l0,0c-1.4-0.7-2.8-1.6-2.8-1.6s-2.5,14.3-17.9,21.4
				c0,0,0.4,9.1,8.4,18.5l0,0c0.2,0.4,0.5,0.5,0.7,1.1c0.7,1.1,1.7,2.1,2.5,3.3c0.7,1.4,1.6,2.8,2.1,4.2c0,0.2,0.2,0.4,0.2,0.5l0,0
				c0,0,0,0.2,0.2,0.5l0,0l0,0c0,0.2,0,0.2,0.2,0.4c0,0.2,0,0.4,0.2,0.4c0,0.2,0.2,0.4,0.2,0.7c0,0.2,0,0.2,0.2,0.4l0,0l-0.5-1.7
				c0.4,1.4,1.7,6.5,1.7,10.5l1.9,1.6v-0.2c0,0,1.2-6.5,0.4-9.5c0,0,3,3.7,1.2,12.1c0,0,1.2,2.1,4.8,4c0.4,0.2,0.7,0.4,1.2,0.5
				c0,0,0,0,0.2,0s0.2,0.2,0.4,0.2l0,0c0,0,0,0,0.2,0h0.2h0.2c0.4,0.2,0.5,0.2,1.1,0.4h0.2l0,0l0,0c0,0,0,0,0.2,0
				c1.4,0.4,2.5,0.4,3,0.4v-1.1C246.6,352.5,246.1,351.2,245.7,350.2z"/>
		</g>
		<g>
			<path fill="#894040" d="M435.7,233.6c-2.3-1.6-5.8-0.7-5.8-0.7c0.4,1.4,1.9,3.7,1.9,3.7c1.4,1.4,2.8,1.2,3.2,1.1
				c0.5-0.2,1.4-1.2,1.4-1.2c0.4-0.7,0.4-1.4,0.4-1.7C436.4,234.1,435.7,233.6,435.7,233.6z"/>
		</g>
		<g>
			<path fill="#894040" d="M415.9,226.5c1.7,2.3,5.1,3,5.1,3c0-1.4-0.4-4-0.4-4c-0.7-1.7-1.9-2.1-2.5-2.1H418
				c-0.7,0-1.6,0.5-1.6,0.5c-0.7,0.5-1.1,1.1-1.1,1.6c0,0,0,0.4,0.2,0.5C415.7,225.9,415.9,226.5,415.9,226.5z"/>
		</g>
		<g>
			<path fill="#894040" d="M408.9,232.2c2.3,1.6,5.8,0.7,5.8,0.7c-0.2-1.4-2.1-3.7-2.1-3.7c-1.4-1.4-2.5-1.4-3-1.2
				c-1.1,0.4-1.4,1.2-1.4,1.2c-0.4,0.7-0.4,1.2-0.4,1.7C408.1,231.8,408.9,232.2,408.9,232.2z"/>
		</g>
		<g>
			<path fill="#894040" d="M415.2,241.1c0,0-0.4,0.7-0.5,1.6l0,0c0,0-0.4,1.7,1.7,2.3h0.2c0.2,0,0.4,0,0.4,0c0.2,0,0.2,0,0.4,0l0,0
				h0.2c0.7,0,1.6-0.4,1.7-1.6c0.5-3-1.7-5.6-1.7-5.6C416.7,238.9,415.2,241.1,415.2,241.1z"/>
		</g>
		<g>
			<path fill="#894040" d="M423.2,222.3L423.2,222.3C423.2,222.5,423.2,222.5,423.2,222.3c0,0.4,0,0.4,0,0.5l0,0
				c0.5,2.8,3.2,4.6,3.2,4.6c0.7-1.2,1.6-3.8,1.6-3.8c0.2-1.9-0.7-2.8-1.4-3c-0.7-0.4-1.7-0.4-1.7-0.4c-0.4,0-0.5,0.2-0.7,0.2l0,0
				c0,0-0.2,0-0.2,0.2c0,0-0.2,0-0.2,0.2l0,0C423.4,221.1,422.8,221.7,423.2,222.3z"/>
		</g>
		<g>
			<path fill="#894040" d="M423.4,236c0,0-0.7,3.2,0.4,5.1c0,0.2,0.2,0.2,0.2,0.4c0,0,0,0.2,0.2,0.2l0,0c0.5,0.5,1.2,1.1,1.6,1.1
				c0,0,1.1,0,1.7-0.4c1.4-1.1,0.5-3,0.5-3.2C426.4,236.9,423.4,236,423.4,236z"/>
		</g>
		<g>
			<path fill="#894040" d="M428,229c-0.2-0.2-0.5-0.4-0.7-0.2l-12,5.6c-6.3,2.5-12.1,4-17,5.1c-3.5,0.7-9.3,1.4-9.5,1.4
				c0,0-2.8,0.2-3.5,0.2c-2.1,0-5.9-0.4-5.9-0.4c-1.7-0.2-3.3-0.5-4.2-1.1c-0.2,0-0.4,0-0.5,0.2c-3.7-1.6-4.6-3.3-4.6-3.3
				c1.6,0.4,3.5,0.7,5.3,1.1l0,0c0,0,0.2,0,0.4,0c4.2,0.4,8.4,0.4,9.3,0.4c3.7-0.2,7.4-0.7,9.9-2.5c0,0,0,0,0.2-0.2
				c0.2-0.2,0.7-0.7,1.6-1.7l0,0v-0.2l0,0c0.5-1.1,1.2-1.6,1.6-2.1c0.5-0.4,1.7-1.2,3-1.1c0.2,0,0.5,0,0.7,0.2c0,0,0,0,0.2,0
				c0.5,0.2,1.6,0.2,2.3-0.5l0,0l0,0l0,0c1.1-0.7,1.6-2.3,1.9-4l0,0c0-0.2,0-0.2,0-0.4c0.2-0.7,0.2-1.6,0.2-2.5
				c0.4-4.8,0-8-0.4-10.1l0,0v-0.4l0,0c-0.2-0.5-0.2-1.2-0.4-1.6c-0.2-0.5-0.2-0.7-0.2-0.7l0,0c-0.2-0.4-0.4-0.7-0.5-1.2l0,0l0,0
				l0,0c-1.1-1.6-2.1-2.1-3.2-2.1l0,0c0,0-0.4,0-1.2,0.2l0,0h-0.4c-0.2,0-0.4,0.2-0.4,0.2l0,0l0,0l0,0l0,0c0,0-0.2,0-0.2,0.2
				c-0.2,0-0.2,0.2-0.4,0.2c-0.4,0.2-0.7,0.5-1.4,1.2l0,0c0,0-1.4,1.4-2.1,1.9c0,0-0.2,0-0.2,0.2c0,0,0,0-0.2,0
				c-1.2,0.5-2.3,1.1-3,1.1c-3.3,0.4-9.3,0.5-16-1.6c0,0-2.5-0.5-7.2-2.5c0,0-12.6-5.1-19.5-3.5c0,0-4.2,1.1-9.5,1.4h-0.2h-0.1
				c-0.7,0-1.4,0-2.1,0l0,0c-1.9,0-3.7-0.4-5.3-1.1c-2.3-0.7-5.5-2.5-5.5-2.5l0,0c-2.5-1.4-6.7-3-12.4-3.5l0,0
				c-3-0.2-4.6-0.7-5.3-1.1c-0.7-0.4-1.6-0.7-2.3-1.2c-0.7-0.4-1.4-0.5-1.7-0.2l0,0l0,0l0,0c0,0-0.2,0.2-0.2,0.4l0,0l0,0l0,0l0,0
				c-0.2,0.4-0.4,1.4-0.2,3l0,0c0,0,0,12.2,7.7,17.5l0.2,0.2c0,0,0,0,0.2,0.2l0,0c1.9,1.2,4.2,2.1,7.2,2.1h0.2
				c-3.2,2.5-12.4,7-38.4,4.6c-2.3-0.2-4.8-0.5-6.9-0.7c-11.8-1.9-26.1-5.3-26.1-5.3l0,0c-12.8-3.5-22.5-2.5-29.6-0.2l0,0
				c0,0-8,2.3-14.1,8.6l0,0l0,0l-0.2,0.2c-1.1,1.1-1.9,1.9-3,3c-0.2,0.2-0.4,0.4-0.5,0.5c-0.2,0.2-0.4,0.4-0.5,0.4
				c-0.5,0.5-1.4,1.1-1.9,1.4l0,0c-0.7,0.5-1.6,1.1-2.3,1.4c0.2-1.7,0-3,0-3c-0.2-1.9-1.1-3.5-1.7-4.6l0,0l-0.2-0.2
				c-0.4-0.5-1.1-1.1-1.4-1.4l0,0c-0.2-0.2-0.2-0.2-0.4-0.2c-3.5-2.5-7.2-1.6-7.2-1.6l0,0c-1.2,0.2-3,1.1-4,2.8
				c-0.4,0.4-0.5,0.7-0.7,1.2l0,0l0,0c-0.4,0.7-0.5,1.2-0.5,1.2l0,0c-0.2,0.5-0.4,1.4-0.2,2.3l0,0l0,0c0,0.4,0,1.9,1.2,3.7l0.2,0.2
				c0.2,0.2,0.4,0.5,0.5,0.7l0.2,0.2c0.2,0.2,0.4,0.5,0.7,0.7c0.2,0.2,0.5,0.4,0.7,0.7l0,0c0,0,0.2,0,0.4,0.2l0,0l0,0
				c0.7,0.5,3.2,1.7,6.5,1.9c-1.2,1.9-5.3,4-10.5,4.2v1.1c8.4,1.2,12.2-2.3,13.9-4.2l0.2-0.2c0,0,0,0,0-0.2c0.2-0.4,0.4-0.7,0.5-1.1
				c0.4-0.2,0.7-0.2,1.1-0.4c0,0,0,0,0.2,0c0.5-0.2,1.1-0.5,1.1-0.5s-1.4,2.8-2.3,6.9c0,0.2,0,0.2-0.2,0.4c-0.5,1.7-0.7,3.7-1.1,5.8
				c0,0,0,0,0,0.2l0,0c0,0.2,0,0.4,0,0.5c-0.5,5.6,0.2,12.6,3.7,19.3l0,0c0,0,3.3,5.5,3.3,10.7c0,0.4,0,0.7-0.2,1.4
				c-0.4,1.4-1.2,3-3,4.8l-0.5,0.5c-2.8,2.3-3.8,4.2-4.2,5.5c-0.2,0.4-0.2,0.7-0.4,1.2c-0.2,0.7-0.5,3.3,0.2,7.6
				c0,0.4,0.2,0.5,0.2,1.2l0,0l0,0c0.5,3,1.1,8.4-0.5,14.9c0,0,0,0,0,0.2c-0.2,1.1-2.5,7.4-2.5,7.4l0,0c-1.9,5.1-4.9,8.6-4.9,8.6
				c0.7,2.1,1.1,2.8,1.1,2.8s4.2-4,5.1-6.9c0,0,0.4,5.1-4.8,8.6c0,0,0,0,0,0.2l0,0c-0.2,0.7-1.2,3.7-1.1,7.6c0,0.7,0,1.6,0.2,2.1
				c0.2,1.4,0.5,2.8,1.2,4h1.2c0,0-0.2-5.8,6.7-8.4l0,0c4.9-1.6,6.7-6.9,7-9.9l0,0l0,0c0-0.4,0.2-1.1,0.2-1.2l0,0c0-0.2,0-0.2,0-0.2
				c0.2-1.2,0.4-2.5,0.5-3c0-0.4,0.2-0.5,0.4-1.1c0.2-0.4,0.4-0.7,0.5-1.2c0.5-1.1,1.4-2.3,1.9-3.3l1.9-2.8c0.2-0.2,0.2-0.4,0.4-0.4
				l0.2-0.2l0,0c4.8-7.6,3.3-15.6,3.3-15.6s8.6-4.6,13.2-8.6l0.2-0.2c0.5-0.4,1.1-1.1,1.4-1.4l0,0c0.4-0.5,1.1-1.1,1.4-1.6l0.2-0.2
				l0,0l0,0c3.3-3.8,5.8-8.4,6.9-14.1c0-0.4,0.2-1.1,0.2-1.6c0-1.7-0.2-3.7-1.1-5.8c0,0,4,4.6,4.2,9c6.5,3.7,22.7,10.1,50.7,3.8
				c0,0-0.5-6.9,7-10.9c0,0-1.9,2.3-3.2,5.8c-0.2,0.4-0.2,0.7-0.4,1.4l0,0c-0.2,1.2-0.4,2.1-0.4,3.3c0,0.5,0,1.2,0,1.9v0.2
				c0.2,1.7,0.5,3.5,1.6,5.5l0,0c0.2,0.4,0.4,1.1,0.4,1.4l0,0l0.2,0.4c0.2,0.5,0.4,1.2,0.5,1.7l1.7,4.8l0,0c0,0,0.5,1.9,0.5,3.8
				c-0.2,2.1-1.1,4.6-3.2,6.7l0,0c-0.4,0.2-0.5,0.5-1.1,0.7c-1.1,1.1-1.9,1.9-3.2,3.3c-0.2,0.2-0.2,0.2-0.4,0.4l0,0
				c-5.3,6.5-6.7,12.1-6.7,12.1l1.1,1.7c0,0,2.8-5.8,6.5-6.9c0,0-3.2,3.2-4.9,8.8c-0.5,1.9-1.2,6.3,0,11.6h0.4l0,0h1.6
				c0.5-2.8,3-5.6,5.1-7.7c1.2-1.1,3-2.1,3-2.1l0,0c5.5-3.5,7-8,7-8l0,0c0.2-0.4,0.4-0.7,0.4-1.2l0,0l0,0c0.2-0.4,0.2-0.5,0.2-0.7
				l1.1-3.2c0.4-1.1,1.1-2.8,1.6-4.2c0.4-0.7,0.7-1.4,1.2-2.1l0,0c0.7-1.6,1.9-3.3,3.2-4.9c0,0,0,0,0.2-0.2c0.2-0.2,0.2-0.4,0.4-0.5
				c1.1-1.2,2.5-3,2.5-3l0,0c2.8-3.3,2.8-6.7,2.8-6.7c-0.2-3.3,0.4-6.7,0.4-6.9c0.7-3.7,2.8-8.6,7.7-12.2c0,0,2.1-1.7,4.9-3.2
				c1.1-0.4,3.3-1.6,5.9-2.1c0.5-0.2,1.4-0.2,1.9-0.4c0,0,0,0,0.2,0l0,0c12.8-2.8,20.7-8.4,24.8-12.2l0,0l0,0
				c0.4-0.4,0.7-0.7,1.2-1.2c0,0,0,0,0.2-0.2l0,0l0,0c3.8-3.7,8-6.9,11.1-8.8c0.5-0.4,4.2-2.8,8.8-4.6c0.2,0,0.5-0.2,0.7-0.4
				c0,0,0.4-0.2,0.7-0.4l0,0l0,0c1.2-0.5,3.5-1.6,4.8-3.2c1.7,0,4.8-0.2,9.5-1.2l0.7-0.2h0.2h0.5c6.7-1.2,12.6-3.2,19.1-6.3l0,0
				c2.1-1.1,9.9-4.9,10.1-5.1c0.2,0,0.4-0.2,0.4-0.4c0-0.2,0-0.4,0-0.5L428,229z M193.4,234.5c-3.2,0.4-5.3-0.7-6.3-1.7
				c0,0,0,0-0.2-0.2c-0.4-0.4-0.5-0.5-0.5-0.5l0,0l0,0l0,0c-0.2-0.4-0.4-0.7-0.5-1.1c-0.2-0.2-0.2-0.4-0.2-0.5s-0.2-0.4-0.2-0.4
				c-0.4-1.2,0-1.9,0.4-2.5c0.2-0.4,0.7-1.1,1.7-1.2c0.2,0,0.2,0,0.4,0s0.2,0,0.4,0c0.5,0,1.2,0.2,1.7,0.5c0,0,1.4,0.7,2.5,2.3
				c0.4,0.5,1.1,1.7,1.2,3.5C193.6,233.2,193.6,233.9,193.4,234.5z"/>
		</g>
		<g>
			<path fill="#894040" d="M435.5,222.9c-0.2,0-0.4-0.2-0.5-0.2l0,0l0,0l0,0l0,0c-0.4,0-2.5,0-3.7,3.8c-0.2,0.5-0.4,1.1-0.4,1.4l0,0
				l0,0c0,0.2,0,0.4,0,0.4c0.4,0,0.5,0,1.2,0c3.3,0,4.8-1.2,5.1-2.1c0,0,0,0,0-0.2c0.2-0.5,0.2-1.1,0.2-1.1
				C437.3,224,436.4,223.1,435.5,222.9z"/>
		</g>
	</g>
	<g>
		<g>
			<path fill="#894040" d="M508.6,395.8c-1.1-0.4-2.3-0.9-3.5-1.2l0,0l0,0c-1.6-0.5-3.5-1.2-5.6-1.9l0,0c-0.5-0.2-1.2-0.4-1.7-0.5
				l0,0c-2.8-0.9-5.9-1.9-9.3-3l0,0c-0.2,0-0.5-0.2-0.7-0.2l0,0c-0.2,0-0.2,0-0.4,0c-18.7-5.9-49-15.4-69.8-20.7l0,0
				c-74.4-19.4-118.2-9.6-118.2-9.6l0,0c-18.9,3.2-28.2,8.2-30.3,9.9c0,0-21.9-8.6-71.1-4.2c-10.3,0.9-20.4,2.3-29.8,4
				c-0.9,0.2-1.9,0.4-2.8,0.5l0,0c-0.7,0.2-1.6,0.4-2.3,0.4l-0.4,0.2c-2.5,0.5-4.9,0.9-7.2,1.4l0,0c-2.1,0.4-4.2,0.9-5.9,1.2
				c-23.5,5.1-50.7,12.4-82,23.5c-2.6,0.9-4.2,3.3-4.2,5.9c0,3.5,2.8,6.3,6.3,6.3H206h9.1h8.8h9.1l273.4-0.2c3.3,0,5.9-2.6,5.9-5.9
				C512.4,399,510.9,396.9,508.6,395.8z M308.6,368.5c0,0,12.8-7.4,21.9-7.4c0,0-5.8,0.2-17,9.5l0,0c-3.8,3.2-7.9,6.7-10.9,10.3
				c-2.3-1.2-4.8-2.3-6.9-3.3c1.2-1.1,2.5-2.1,3.8-3.2C301.7,373.1,304.8,370.8,308.6,368.5C308.4,368.5,308.4,368.5,308.6,368.5
				C308.4,368.5,308.4,368.5,308.6,368.5z M305.7,363c-9.7,4.4-16.2,9-18.6,11.1c-2.1-0.9-4.2-1.6-5.9-2.1
				C287.8,367.2,299.2,364.3,305.7,363z M104.2,399c-0.5-2.5-2.3-7.6-3.2-9.5c0.4-0.2,6.3,4,8,9.5H104.2z M93.9,399
				c0-1.9-0.7-5.3-1.4-7.2c0.7,0.4,3.7,3.2,5.9,7.2H93.9z M85.5,399c-0.4-2.5-0.4-3.5-0.9-5.6c0.7,0.4,2.8,2.3,4.6,5.6H85.5z
				 M115.6,399c-1.4-5.3-3.2-8.6-4.8-11.8c1.9,1.1,8.6,5.1,10.3,11.8H115.6z M126.9,399c-0.5-3.5-3-9.9-5.6-14.1
				c1.4,0.5,9.7,5.9,11.4,14.1H126.9z M144.6,399h-5.8c-0.9-4.8-2.6-10.7-6.3-16.2C132.4,382.8,141.7,387.4,144.6,399z M151.3,399
				c-3.2-9.5-4.2-9.5-9-18.7c0.2,0,11.6,6.7,15.6,18.7H151.3z M164.7,399c-1.6-5.9-5.6-13-12-21c9.5,4,15.6,13,18.9,21H164.7z
				 M179.1,399c-1.9-5.9-7.4-14.5-14.7-23c7.7,3.5,16.2,8,23.3,23H179.1z M195.2,399c-2.1-6.1-11.6-18.6-20.6-25.9
				c9.5,1.9,22.8,11.2,29.6,25.9H195.2z M212.5,399c-2.6-7-12.2-20.8-23.3-28c6.7,2.3,23.3,8,32.3,28H212.5z M230.8,399
				c-2.8-7.7-12.1-21.9-29-30.3c5.9,1.6,29.6,6.5,38.3,30.3H230.8z M248,399c-5.9-16.4-24.8-29.6-28.2-31.1c0,0,25.9,4.8,38.6,31.1
				H248z M273.7,399h-7c0,0-9.9-22.5-25.9-28.6c0,0,24.4,1.9,36,28.6H273.7z M285.2,399c0,0-5.9-15.4-23.3-26.3
				c0,0,25.9,7.6,33.5,26.3H285.2z M304.8,399c-7.9-11.1-13.5-15.3-16.6-17c5.5,1.6,23,11.4,29.1,17H304.8z M317.3,389.3
				c-1.9-1.2-3.8-2.5-5.9-3.5c0.5-0.7,1.1-1.4,1.6-2.1l0,0c0,0,0.7-0.9,1.7-2.3c2.8-3.3,5.6-5.9,8.4-7.9c5.9-4.6,15.4-9.7,26.5-12
				c0,0-5.6,1.2-13.5,6.7c-0.4,0.2-0.7,0.5-1.1,0.9c-0.5,0.4-1.2,0.9-1.7,1.4C323.1,378.8,318,387.2,317.3,389.3
				C317.3,389,317.3,389.2,317.3,389.3z M330.7,398.8c-1.7-1.4-3.7-2.8-5.5-4c0,0,0.7-1.4,2.1-3.7c4.9-7.6,17.9-24.6,40-27.4
				c-25.4,12.2-33.5,34.9-33.5,34.9L330.7,398.8z M343.8,398.8c12.6-24.9,26.9-29.8,40.2-32.6c-18.5,6.7-29,25.6-31.8,32.6H343.8z
				 M362.2,398.8c6.7-17,23.1-26.3,35.1-29c-16.2,9.7-23.7,23-25.8,29H362.2z M380.5,398.8c6.3-12.8,17.9-23.5,29.8-25.4
				c-12,7.2-19.1,20.8-20.6,25.4H380.5z M406.8,399h-8.4c5.1-10.9,13.9-19.8,25.2-22.1c-10.5,7-15.3,17.4-16.6,21.7
				C406.8,398.8,406.8,399,406.8,399z M414,398.8L414,398.8L414,398.8L414,398.8z M422.2,397.3c0,0.4-0.2,0.9-0.2,1.2
				c0,0.4,0,0.4,0,0.4h-7.7c4.2-9.1,9.3-14.1,13-16.6c1.6-1.1,3.3-2.1,5.3-2.8c0,0-7.6,6.9-10,16.8
				C422.4,396.7,422.2,396.9,422.2,397.3z M428.5,398.8c5.3-15.8,14.9-17,14.9-17c-7.2,7.6-7.6,13.7-8.6,17.2L428.5,398.8z
				 M447.8,398.8h-5.9c3.5-11.1,12-14.9,12-14.9C450.4,389.2,448.7,394.1,447.8,398.8z M459.6,398.8h-4.8c3.3-10.3,8.6-12,8.6-12
				S459.9,393.5,459.6,398.8z M471,398.7C471,398.7,470.8,398.8,471,398.7l-4.2,0.2c1.2-7.7,5.9-10,5.9-10S470.8,394.3,471,398.7z
				 M476.2,398.8c0.7-5.6,4-7.9,4-7.9s-0.4,4.8,0.4,7.9H476.2z M485.2,398.8c0.2-4.8,2.8-6.3,2.8-6.3s-0.5,3.5,0.9,6.5L485.2,398.8z
				"/>
		</g>
	</g>
</g>
</svg>
