<?xml version="1.0" encoding="utf-8"?>
<!-- Generator: Adobe Illustrator 18.0.0, SVG Export Plug-In . SVG Version: 6.00 Build 0)  -->
<!DOCTYPE svg PUBLIC "-//W3C//DTD SVG 1.1//EN" "http://www.w3.org/Graphics/SVG/1.1/DTD/svg11.dtd">
<svg version="1.1" id="Layer_1" xmlns="http://www.w3.org/2000/svg" xmlns:xlink="http://www.w3.org/1999/xlink" x="0px" y="0px"
	 viewBox="0 0 900 900" enable-background="new 0 0 900 900" xml:space="preserve">
<rect x="2.2" opacity="0.6" fill="#D6CCB9" width="900" height="900"/>
<g>
	<g>
		<g>
			<g>
				<g>
					<path fill="#42413E" d="M236.3,782.3c-16.1,0-29.2-13.1-29.2-29.2s13.1-29.2,29.2-29.2c16.1,0,29.2,13.1,29.2,29.2
						S252.4,782.3,236.3,782.3z M236.3,728.4c-13.6,0-24.7,11.1-24.7,24.7c0,13.6,11.1,24.7,24.7,24.7c13.6,0,24.7-11.1,24.7-24.7
						C261,739.4,249.9,728.4,236.3,728.4z"/>
				</g>
			</g>
		</g>
		<g>
			<g>
				<g>
					<path fill="#42413E" d="M328.8,782.8c-13.1,0-23.8-10.7-23.8-23.8c0-13.1,10.7-23.8,23.8-23.8c13.1,0,23.8,10.7,23.8,23.8
						C352.5,772.2,341.9,782.8,328.8,782.8z M328.8,739.8c-10.6,0-19.2,8.6-19.2,19.2c0,10.6,8.6,19.2,19.2,19.2s19.2-8.6,19.2-19.2
						C348,748.4,339.4,739.8,328.8,739.8z"/>
				</g>
			</g>
		</g>
		<g>
			<g>
				<g>
					<path fill="#42413E" d="M228.7,721.1c-0.2,0-0.4,0-0.7-0.1c-1.2-0.4-1.9-1.6-1.5-2.8l10.1-33.5c0.4-1.2,1.6-1.9,2.8-1.5
						c1.2,0.4,1.9,1.6,1.5,2.8l-10.1,33.5C230.6,720.5,229.7,721.1,228.7,721.1z"/>
				</g>
			</g>
		</g>
		<g>
			<g>
				<g>
					<path fill="#42413E" d="M299,763.7h-28.4c-1.3,0-2.3-1-2.3-2.3v-11.9c0-7.6-2.9-14.4-8.5-19.8c-6.4-6.2-15.4-9.6-24.7-9.3
						c-7.3,0.3-13.9,2.5-18.9,6.5c-1,0.8-2.4,0.6-3.2-0.4c-0.8-1-0.6-2.4,0.4-3.2c5.9-4.6,13.3-7.2,21.6-7.5
						c10.5-0.4,20.7,3.5,28.1,10.6c6.4,6.2,9.9,14.4,9.8,23.1v9.6h24c0.5-7.1,4-28.1,27.2-30.6c6.3-0.7,12.7,0.3,17.5,2.7V726
						c-4.2-2.2-20.6-9.6-48.5-9.1c-1,0-1.9-0.6-2.2-1.5l-10.3-29.7c-0.4-1.2,0.2-2.5,1.4-2.9c1.2-0.4,2.5,0.2,2.9,1.4l9.7,28.2
						c32.8-0.2,49.7,9.9,50.4,10.4c0.7,0.4,1.1,1.1,1.1,1.9v10.6c0,0.9-0.5,1.7-1.3,2c-0.8,0.4-1.7,0.3-2.4-0.3
						c-4-3.2-11-4.8-17.9-4c-9.9,1.1-16.8,6.1-20.5,14.9c-2.9,6.8-2.7,13.4-2.7,13.4c0,0.6-0.2,1.2-0.6,1.6
						C300.2,763.4,299.7,763.7,299,763.7z"/>
				</g>
			</g>
		</g>
		<g>
			<g>
				<g>
					<path fill="#42413E" d="M328.4,772.3c-7.1,0-12.9-5.8-12.9-12.9c0-7.1,5.8-12.9,12.9-12.9c7.1,0,12.9,5.8,12.9,12.9
						C341.3,766.5,335.5,772.3,328.4,772.3z M328.4,751c-4.6,0-8.4,3.8-8.4,8.4c0,4.6,3.8,8.4,8.4,8.4c4.6,0,8.4-3.8,8.4-8.4
						C336.8,754.8,333,751,328.4,751z"/>
				</g>
			</g>
		</g>
		<g>
			<g>
				<g>
					<circle fill="#42413E" cx="328.4" cy="759.4" r="3.8"/>
				</g>
			</g>
		</g>
		<g>
			<g>
				<g>
					<circle fill="#42413E" cx="236.3" cy="753.1" r="3.9"/>
				</g>
			</g>
		</g>
		<g>
			<g>
				<g>
					<path fill="#42413E" d="M236.3,768.2c-8.4,0-15.1-6.8-15.1-15.2c0-8.4,6.8-15.1,15.1-15.1c8.4,0,15.2,6.8,15.2,15.1
						C251.4,761.4,244.6,768.2,236.3,768.2z M236.3,742.4c-5.9,0-10.6,4.8-10.6,10.6c0,5.9,4.8,10.6,10.6,10.6
						c5.9,0,10.6-4.8,10.6-10.6C246.9,747.2,242.1,742.4,236.3,742.4z"/>
				</g>
			</g>
		</g>
		<g>
			<g>
				<g>
					<path fill="#42413E" d="M326.1,720.4c-0.1,0-0.3,0-0.4,0l-9-1.8c-1.1-0.2-1.8-1.1-1.8-2.2v-16.4c0-1.3,1-2.3,2.3-2.3h9
						c1.3,0,2.3,1,2.3,2.3v18.2c0,0.7-0.3,1.3-0.8,1.8C327.1,720.2,326.6,720.4,326.1,720.4z M319.4,714.4l4.5,0.9v-13.2h-4.5V714.4
						z"/>
				</g>
			</g>
		</g>
		<g>
			<g>
				<g>
					<path fill="#42413E" d="M321.6,702.1c-1.3,0-2.3-1-2.3-2.3v-8.2c0-1.3,1-2.3,2.3-2.3c1.3,0,2.3,1,2.3,2.3v8.2
						C323.9,701.1,322.9,702.1,321.6,702.1z"/>
				</g>
			</g>
		</g>
		<g>
			<g>
				<g>
					<path fill="#42413E" d="M286,739.3h-10.8c-1,0-2-0.7-2.2-1.7c-0.2-0.9-6-22.5-34.1-23.8c-0.7,0-1.3-0.4-1.7-0.9
						c-0.4-0.6-0.5-1.3-0.4-1.9l5.2-18.9c0.3-1,1.2-1.7,2.2-1.7h32.8c0.9,0,1.8,0.6,2.1,1.5l9.1,24.1c0.1,0.3,0.1,0.5,0.1,0.8V737
						C288.3,738.2,287.3,739.3,286,739.3z M276.8,734.7h6.9V717l-8.4-22.3h-29.5l-4,14.6c14.7,1.4,23.5,8.2,28.3,13.9
						C274,727.9,276,732.4,276.8,734.7z"/>
				</g>
			</g>
		</g>
		<g>
			<g>
				<g>
					<path fill="#42413E" d="M284.3,716.1h-31.9c-1.3,0-2.3-1-2.3-2.3c0-1.3,1-2.3,2.3-2.3h31.9c1.3,0,2.3,1,2.3,2.3
						C286.5,715.1,285.5,716.1,284.3,716.1z"/>
				</g>
			</g>
		</g>
		<g>
			<g>
				<g>
					<path fill="#42413E" d="M247.2,714.3c-0.2,0-0.4,0-0.5-0.1c-1.2-0.3-2-1.5-1.7-2.7l4.7-19c0.3-1.2,1.5-2,2.7-1.7
						c1.2,0.3,2,1.5,1.7,2.7l-4.7,19C249.2,713.6,248.2,714.3,247.2,714.3z"/>
				</g>
			</g>
		</g>
		<g>
			<g>
				<g>
					<path fill="#42413E" d="M293,763.7c-1.3,0-2.3-1-2.3-2.3v-46.7c0-1.3,1-2.3,2.3-2.3c1.3,0,2.3,1,2.3,2.3v46.7
						C295.3,762.7,294.3,763.7,293,763.7z"/>
				</g>
			</g>
		</g>
		<g>
			<g>
				<g>
					<path fill="#42413E" d="M263.8,709.4c-0.5,0-1-0.2-1.5-0.5l-6.3-5.4c-0.9-0.8-1.1-2.2-0.2-3.2c0.8-0.9,2.2-1.1,3.2-0.2l6.3,5.4
						c0.9,0.8,1.1,2.2,0.2,3.2C265.1,709.1,264.4,709.4,263.8,709.4z"/>
				</g>
			</g>
		</g>
		<g>
			<g>
				<g>
					<path fill="#42413E" d="M273,707.1c-0.5,0-1-0.2-1.5-0.5l-5.8-5c-0.9-0.8-1.1-2.2-0.2-3.2c0.8-0.9,2.2-1.1,3.2-0.2l5.8,5
						c0.9,0.8,1.1,2.2,0.2,3.2C274.3,706.8,273.7,707.1,273,707.1z"/>
				</g>
			</g>
		</g>
		<g>
			<g>
				<g>
					<path fill="#42413E" d="M289.3,687.2h-57.1c-1.3,0-2.3-1-2.3-2.3c0-1.3,1-2.3,2.3-2.3h57.1c1.3,0,2.3,1,2.3,2.3
						C291.6,686.2,290.6,687.2,289.3,687.2z"/>
				</g>
			</g>
		</g>
	</g>
	<g>
		<g>
			<g>
				<g>
					<path fill="#42413E" d="M294.7,421.6c-0.1,0-0.2,0-0.3,0c-1.2-0.2-2.1-1.3-2-2.5c0.8-6.1-1.8-12.1-6.9-15.6
						c-3.6-2.5-7.9-3.4-12.2-2.7c-4.3,0.8-8,3.2-10.5,6.8c-2.3,3.3-3.3,7.3-2.8,11.3c0.2,1.2-0.7,2.4-2,2.5c-1.2,0.2-2.4-0.7-2.5-2
						c-0.6-5.1,0.6-10.3,3.6-14.5c3.2-4.6,8-7.6,13.5-8.6c5.5-1,11,0.2,15.6,3.4c6.4,4.5,9.8,12.1,8.8,19.9
						C296.8,420.8,295.8,421.6,294.7,421.6z"/>
				</g>
			</g>
		</g>
		<g>
			<g>
				<g>
					<path fill="#42413E" d="M299.7,467.3c-0.3,0-0.6-0.1-0.9-0.2c-24.1-10.4-44.9-0.2-45.1-0.1c-1.1,0.6-2.5,0.1-3-1
						c-0.6-1.1-0.1-2.5,1-3c0.9-0.5,23-11.3,48.9-0.1c1.1,0.5,1.7,1.8,1.2,3C301.4,466.8,300.6,467.3,299.7,467.3z"/>
				</g>
			</g>
		</g>
		<g>
			<g>
				<g>
					<path fill="#42413E" d="M276.1,496.7c-6.7,0-14.4-1.3-22.5-5.2c-1.9-0.9-3.2-2.9-3.2-5.1v-31.9c-8.1-0.8-15.1-6.1-17.8-14
						c-3-8.6,0-18.4,7.4-23.7c5-3.6,11.3-4.9,17.2-3.4c1.2,0.3,2,1.5,1.7,2.7c-0.3,1.2-1.5,2-2.7,1.7c-4.7-1.1-9.6-0.1-13.5,2.7
						c-5.8,4.2-8.2,11.8-5.8,18.5c2.4,6.7,8.8,11.2,15.8,11c0.6,0,1.2,0.2,1.6,0.7c0.4,0.4,0.7,1,0.7,1.6v34.1c0,0.4,0.2,0.8,0.6,1
						c19.5,9.3,36.5,2.4,41.3,0.1c0.4-0.2,0.6-0.6,0.6-1l0.1-34.2c0-0.6,0.2-1.2,0.7-1.6c0.4-0.4,1.1-0.7,1.6-0.6c0.1,0,0.3,0,0.4,0
						c6.9,0,13.1-4.3,15.4-10.9c2.4-6.7,0.1-14.3-5.6-18.6c-3.9-2.9-8.8-3.9-13.5-2.8c-1.2,0.3-2.4-0.5-2.7-1.7
						c-0.3-1.2,0.5-2.4,1.7-2.7c6-1.4,12.2-0.1,17.2,3.6c7.4,5.4,10.3,15.2,7.2,23.8c-2.8,7.8-9.9,13.1-17.9,13.8l-0.1,32
						c0,2.2-1.2,4.1-3.1,5.1C295.6,493.2,287.1,496.7,276.1,496.7z"/>
				</g>
			</g>
		</g>
		<g>
			<g>
				<g>
					<path fill="#42413E" d="M299.7,486.5c-0.5,0-0.9-0.1-1.3-0.4c-10.6-7.6-27.7-5.2-33.1-3c-1.2,0.5-2.5-0.1-3-1.2
						c-0.5-1.2,0.1-2.5,1.2-3c7.2-3,25.6-5.1,37.5,3.5c1,0.7,1.2,2.1,0.5,3.2C301.1,486.2,300.4,486.5,299.7,486.5z"/>
				</g>
			</g>
		</g>
		<g>
			<g>
				<g>
					<path fill="#42413E" d="M263.1,463c-1.3,0-2.3-1-2.3-2.3v-18.5c0-1.3,1-2.3,2.3-2.3c1.3,0,2.3,1,2.3,2.3v18.5
						C265.3,462,264.3,463,263.1,463z"/>
				</g>
			</g>
		</g>
		<g>
			<g>
				<g>
					<path fill="#42413E" d="M275.6,461.7c-1.3,0-2.3-1-2.3-2.3v-12.9c0-1.3,1-2.3,2.3-2.3c1.3,0,2.3,1,2.3,2.3v12.9
						C277.8,460.7,276.8,461.7,275.6,461.7z"/>
				</g>
			</g>
		</g>
		<g>
			<g>
				<g>
					<path fill="#42413E" d="M288.3,463c-1.3,0-2.3-1-2.3-2.3v-18.5c0-1.3,1-2.3,2.3-2.3s2.3,1,2.3,2.3v18.5
						C290.6,462,289.6,463,288.3,463z"/>
				</g>
			</g>
		</g>
		<g>
			<g>
				<g>
					<path fill="#42413E" d="M286.8,417.9c-1,0-1.9-0.7-2.2-1.7c-2-8.3-8.8-7.1-9.6-6.9c-1.2,0.3-2.4-0.5-2.7-1.7
						c-0.3-1.2,0.5-2.4,1.7-2.7c4.1-0.9,12.5,0,15,10.3c0.3,1.2-0.4,2.4-1.7,2.7C287.1,417.8,286.9,417.9,286.8,417.9z"/>
				</g>
			</g>
		</g>
	</g>
	<g>
		<g>
			<g>
				<g>
					<path fill="#42413E" d="M276.3,618.4c-12,0-21.8-9.8-21.8-21.8v-41.7c0-1.3,1-2.3,2.3-2.3c1.3,0,2.3,1,2.3,2.3v41.7
						c0,9.5,7.8,17.3,17.3,17.3c9.5,0,17.3-7.8,17.3-17.3v-41.7c0-1.3,1-2.3,2.3-2.3s2.3,1,2.3,2.3v41.7
						C298.1,608.6,288.3,618.4,276.3,618.4z"/>
				</g>
			</g>
		</g>
		<g>
			<g>
				<g>
					<path fill="#42413E" d="M276.3,642.5c-1.3,0-2.3-1-2.3-2.3v-24.1c0-17-18.2-27.1-18.4-27.2c-1.1-0.6-1.5-2-0.9-3.1
						c0.6-1.1,2-1.5,3.1-0.9c0.8,0.5,20.8,11.5,20.8,31.2v24.1C278.6,641.5,277.5,642.5,276.3,642.5z"/>
				</g>
			</g>
		</g>
		<g>
			<g>
				<g>
					<path fill="#42413E" d="M276.3,642.5c-1.3,0-2.3-1-2.3-2.3v-24.1c0-19.7,19.9-30.7,20.8-31.2c1.1-0.6,2.5-0.2,3.1,0.9
						c0.6,1.1,0.2,2.5-0.9,3.1c-0.2,0.1-18.4,10.2-18.4,27.2v24.1C278.6,641.5,277.5,642.5,276.3,642.5z"/>
				</g>
			</g>
		</g>
		<g>
			<g>
				<g>
					<path fill="#42413E" d="M270.4,583.3c-1.3,0-2.3-1-2.3-2.3v-39.5c0-1.3,1-2.3,2.3-2.3s2.3,1,2.3,2.3V581
						C272.7,582.3,271.6,583.3,270.4,583.3z"/>
				</g>
			</g>
		</g>
		<g>
			<g>
				<g>
					<path fill="#42413E" d="M282.1,583.3c-1.3,0-2.3-1-2.3-2.3v-39.5c0-1.3,1-2.3,2.3-2.3s2.3,1,2.3,2.3V581
						C284.3,582.3,283.3,583.3,282.1,583.3z"/>
				</g>
			</g>
		</g>
		<g>
			<g>
				<g>
					<path fill="#42413E" d="M276.3,609.2c-1.3,0-2.3-1-2.3-2.3c0-31-17.5-34.5-17.7-34.6c-1.2-0.2-2.1-1.4-1.8-2.6
						c0.2-1.2,1.4-2,2.6-1.8c0.9,0.2,21.4,4.2,21.4,39C278.6,608.2,277.5,609.2,276.3,609.2z"/>
				</g>
			</g>
		</g>
		<g>
			<g>
				<g>
					<path fill="#42413E" d="M276.3,609.2c-1.3,0-2.3-1-2.3-2.3c0-34.8,20.6-38.9,21.4-39c1.2-0.2,2.4,0.6,2.6,1.8
						c0.2,1.2-0.6,2.4-1.8,2.6c-0.8,0.1-17.7,3.8-17.7,34.6C278.6,608.2,277.5,609.2,276.3,609.2z"/>
				</g>
			</g>
		</g>
	</g>
	<g>
		<g>
			<g>
				<g>
					<path fill="#42413E" d="M278.6,349.8c-21,0-38.1-17.1-38.1-38.1c0-21,17.1-38.1,38.1-38.1s38.1,17.1,38.1,38.1
						C316.7,332.7,299.6,349.8,278.6,349.8z M278.6,278.1c-18.5,0-33.6,15.1-33.6,33.6c0,18.5,15.1,33.6,33.6,33.6
						s33.6-15.1,33.6-33.6C312.1,293.1,297.1,278.1,278.6,278.1z"/>
				</g>
			</g>
		</g>
		<g>
			<g>
				<g>
					<path fill="#42413E" d="M278.6,338c-9,0-16.3-7.3-16.3-16.3s7.3-16.3,16.3-16.3s16.3,7.3,16.3,16.3S287.5,338,278.6,338z
						 M278.6,309.9c-6.5,0-11.8,5.3-11.8,11.8s5.3,11.8,11.8,11.8s11.8-5.3,11.8-11.8S285,309.9,278.6,309.9z"/>
				</g>
			</g>
		</g>
		<g>
			<g>
				<g>
					<g>
						<path fill="#42413E" d="M273.4,325c3.7,0,3.7-5.7,0-5.7S269.7,325,273.4,325L273.4,325z"/>
					</g>
				</g>
			</g>
		</g>
		<g>
			<g>
				<g>
					<g>
						<path fill="#42413E" d="M283.7,325c3.7,0,3.7-5.7,0-5.7C280.1,319.4,280.1,325,283.7,325L283.7,325z"/>
					</g>
				</g>
			</g>
		</g>
		<g>
			<g>
				<g>
					<path fill="#42413E" d="M307.9,293.4c-0.7,0-1.4-0.4-1.9-1l0,0c-0.1-0.1-6.3-8.9-16.6-12.5c-0.8-0.3-1.3-0.9-1.5-1.7
						c-0.1-0.8,0.1-1.6,0.8-2.1c0.6-0.5,14.4-12.2,25.7-11.5c0.7,0,1.3,0.4,1.7,0.9c0.4,0.6,0.5,1.3,0.4,1.9l-6.5,24.3
						c-0.2,0.9-0.9,1.5-1.8,1.6C308.2,293.4,308.1,293.4,307.9,293.4z M294.7,277.2c5.5,2.7,9.6,6.4,12.2,9.1l4.5-17.1
						C305.3,270.1,298.5,274.5,294.7,277.2z"/>
				</g>
			</g>
		</g>
		<g>
			<g>
				<g>
					<path fill="#42413E" d="M249.2,293.4c-0.1,0-0.3,0-0.4,0c-0.9-0.2-1.6-0.8-1.8-1.6l-6.5-24.3c-0.2-0.7,0-1.4,0.4-1.9
						c0.4-0.6,1-0.9,1.7-0.9c11.3-0.7,25.2,11,25.7,11.5c0.6,0.5,0.9,1.3,0.8,2.1c-0.1,0.8-0.7,1.5-1.5,1.7
						c-10.3,3.7-16.5,12.4-16.6,12.5C250.6,293,249.9,293.4,249.2,293.4z M245.7,269.2l4.5,17.1c2.5-2.7,6.7-6.4,12.2-9.1
						C258.6,274.5,251.8,270.1,245.7,269.2z"/>
				</g>
			</g>
		</g>
	</g>
	<g>
		<g>
			<g>
				<g>
					<path fill="#42413E" d="M463.6,490.5c-7.2,0-13.6-4.8-15.6-11.8l-11.8-41c-0.1-0.2-0.1-0.4-0.1-0.6c0-14.5,11.8-26.3,26.3-26.3
						c14.5,0,26.3,11.8,26.3,26.3c0,0.2,0,0.3-0.1,0.5l-9.1,40.3C477.8,485.3,471.3,490.5,463.6,490.5z M440.6,436.8l11.7,40.7
						c1.4,5,6.1,8.5,11.3,8.5c5.5,0,10.2-3.8,11.4-9.1l9.1-40c-0.1-11.9-9.8-21.5-21.8-21.5C450.5,415.3,440.8,424.9,440.6,436.8z"
						/>
				</g>
			</g>
		</g>
		<g>
			<g>
				<g>
					<path fill="#42413E" d="M446.6,421.3c-0.1,0-0.2,0-0.3,0c-4.7-0.7-13.8-5-14.8-16.5c-0.1-1.2,0.8-2.3,2.1-2.5
						c1.2-0.1,2.3,0.8,2.5,2.1c1,10.9,10.8,12.4,10.9,12.4c1.2,0.2,2.1,1.3,1.9,2.6C448.7,420.5,447.7,421.3,446.6,421.3z"/>
				</g>
			</g>
		</g>
		<g>
			<g>
				<g>
					<path fill="#42413E" d="M478.2,421.3c-1.1,0-2.1-0.8-2.2-1.9c-0.2-1.2,0.7-2.4,1.9-2.6c0.4-0.1,10-1.7,11-12.4
						c0.1-1.2,1.2-2.2,2.5-2.1c1.2,0.1,2.2,1.2,2.1,2.5c-1,11.5-10.1,15.8-14.8,16.5C478.4,421.3,478.3,421.3,478.2,421.3z"/>
				</g>
			</g>
		</g>
		<g>
			<g>
				<g>
					<path fill="#42413E" d="M438.4,439.3h-19.7c-0.8,0-1.5-0.4-2-1.1c-0.4-0.7-0.4-1.5,0-2.2c6.8-12.2,18.6-10.9,23.9-8.5
						c1.1,0.5,1.6,1.9,1.1,3c-0.5,1.1-1.9,1.6-3,1.1c-0.4-0.2-9.2-3.9-15.7,3.2h15.4c1.3,0,2.3,1,2.3,2.3S439.6,439.3,438.4,439.3z"
						/>
				</g>
			</g>
		</g>
		<g>
			<g>
				<g>
					<path fill="#42413E" d="M507.4,439.3h-19.7c-1.3,0-2.3-1-2.3-2.3s1-2.3,2.3-2.3H503c-6.5-7.2-15.3-3.4-15.7-3.2
						c-1.1,0.5-2.5,0-3-1.1c-0.5-1.1,0-2.5,1.1-3c5.3-2.4,17.1-3.7,23.9,8.5c0.4,0.7,0.4,1.6,0,2.2
						C508.9,438.9,508.2,439.3,507.4,439.3z"/>
				</g>
			</g>
		</g>
		<g>
			<g>
				<g>
					<g>
						<path fill="#42413E" d="M459,479.7c3.7,0,3.7-5.7,0-5.7C455.4,474.1,455.4,479.7,459,479.7L459,479.7z"/>
					</g>
				</g>
			</g>
		</g>
		<g>
			<g>
				<g>
					<g>
						<path fill="#42413E" d="M468.6,479.7c3.7,0,3.7-5.7,0-5.7S464.9,479.7,468.6,479.7L468.6,479.7z"/>
					</g>
				</g>
			</g>
		</g>
	</g>
	<g>
		<g>
			<g>
				<g>
					<g>
						<path fill="#42413E" d="M695,450.9c-1.3,0-2.3-1-2.3-2.3v-15.4c0-1.3,1-2.3,2.3-2.3c1.3,0,2.3,1,2.3,2.3v15.4
							C697.3,449.8,696.3,450.9,695,450.9z"/>
					</g>
				</g>
			</g>
			<g>
				<g>
					<g>
						<g>
							<path fill="#42413E" d="M586.4,481.1c-13.4,0-24.3-10.9-24.3-24.3s10.9-24.3,24.3-24.3c13.4,0,24.3,10.9,24.3,24.3
								S599.8,481.1,586.4,481.1z M586.4,436.9c-10.9,0-19.8,8.9-19.8,19.8s8.9,19.8,19.8,19.8c10.9,0,19.8-8.9,19.8-19.8
								S597.3,436.9,586.4,436.9z"/>
						</g>
					</g>
				</g>
				<g>
					<g>
						<g>
							<path fill="#42413E" d="M586.4,465.3c-4.7,0-8.6-3.8-8.6-8.6s3.8-8.6,8.6-8.6c4.7,0,8.6,3.8,8.6,8.6S591.1,465.3,586.4,465.3
								z M586.4,452.7c-2.2,0-4,1.8-4,4c0,2.2,1.8,4,4,4c2.2,0,4-1.8,4-4C590.4,454.5,588.6,452.7,586.4,452.7z"/>
						</g>
					</g>
				</g>
				<g>
					<g>
						<g>
							<path fill="#42413E" d="M652.8,481.1h-66.4c-1.3,0-2.3-1-2.3-2.3s1-2.3,2.3-2.3h66.4c10.9,0,19.8-8.9,19.8-19.8
								s-8.9-19.8-19.8-19.8h-66.4c-1.3,0-2.3-1-2.3-2.3c0-1.3,1-2.3,2.3-2.3h66.4c13.4,0,24.3,10.9,24.3,24.3
								S666.2,481.1,652.8,481.1z"/>
						</g>
					</g>
				</g>
				<g>
					<g>
						<g>
							<path fill="#42413E" d="M674.9,459c-0.3,0-0.5,0-0.8-0.1c-1.2-0.4-1.8-1.7-1.3-2.9l5.9-15.9c0.3-0.9,1.2-1.5,2.1-1.5H695
								c1.3,0,2.3,1,2.3,2.3c0,1.3-1,2.3-2.3,2.3h-12.7l-5.4,14.4C676.7,458.4,675.8,459,674.9,459z"/>
						</g>
					</g>
				</g>
				<g>
					<g>
						<g>
							<path fill="#42413E" d="M604.2,492.1c-1.3,0-2.3-1-2.3-2.3v-10.2c0-1.3,1-2.3,2.3-2.3c1.3,0,2.3,1,2.3,2.3v10.2
								C606.4,491.1,605.4,492.1,604.2,492.1z"/>
						</g>
					</g>
				</g>
				<g>
					<g>
						<g>
							<path fill="#42413E" d="M645.9,492.1c-1.3,0-2.3-1-2.3-2.3v-10.2c0-1.3,1-2.3,2.3-2.3c1.3,0,2.3,1,2.3,2.3v10.2
								C648.1,491.1,647.1,492.1,645.9,492.1z"/>
						</g>
					</g>
				</g>
				<g>
					<g>
						<g>
							<path fill="#42413E" d="M615.1,492.1h-21.9c-1.3,0-2.3-1-2.3-2.3c0-1.3,1-2.3,2.3-2.3h21.9c1.3,0,2.3,1,2.3,2.3
								C617.4,491.1,616.4,492.1,615.1,492.1z"/>
						</g>
					</g>
				</g>
				<g>
					<g>
						<g>
							<path fill="#42413E" d="M656.8,492.1h-21.9c-1.3,0-2.3-1-2.3-2.3c0-1.3,1-2.3,2.3-2.3h21.9c1.3,0,2.3,1,2.3,2.3
								C659.1,491.1,658.1,492.1,656.8,492.1z"/>
						</g>
					</g>
				</g>
				<g>
					<g>
						<g>
							<path fill="#42413E" d="M642.1,436.9h-18.4c-1.3,0-2.3-1-2.3-2.3v-12.3c0-1.3,1-2.3,2.3-2.3h18.4c1.3,0,2.3,1,2.3,2.3v12.3
								C644.3,435.9,643.3,436.9,642.1,436.9z M625.9,432.4h13.9v-7.8h-13.9V432.4z"/>
						</g>
					</g>
				</g>
				<g>
					<g>
						<g>
							<path fill="#42413E" d="M642.1,424.6h-18.4c-0.5,0-1-0.2-1.4-0.5l-12.4-9.3c-0.8-0.6-1.1-1.6-0.8-2.5
								c0.3-0.9,1.2-1.5,2.1-1.5h43c1,0,1.8,0.6,2.1,1.5c0.3,0.9,0,1.9-0.8,2.5l-12.2,9.3C643,424.4,642.6,424.6,642.1,424.6z
								 M624.4,420.1h16.9l6.2-4.8h-29.5L624.4,420.1z"/>
						</g>
					</g>
				</g>
				<g>
					<g>
						<g>
							<path fill="#42413E" d="M584.1,489.5c-0.7,0-1.3-0.3-1.7-0.8c-0.8-1-0.7-2.4,0.3-3.2c3.1-2.5,4.6-5,4.6-7.4
								c0-2.8-2.3-4.7-2.3-4.8c0,0-0.1-0.1-0.1-0.1c-2.4-2.2-3.7-4.8-3.7-7.7c-0.1-5.1,3.9-9,4-9.2c0.9-0.9,2.3-0.9,3.2,0
								c0.9,0.9,0.9,2.3,0,3.2l0,0c0,0-2.7,2.8-2.7,5.9c0,1.6,0.8,3,2.2,4.4c0.6,0.5,3.9,3.5,4,8.2c0,3.8-2.1,7.5-6.3,10.9
								C585.2,489.3,584.6,489.5,584.1,489.5z"/>
						</g>
					</g>
				</g>
				<g>
					<g>
						<g>
							<path fill="#42413E" d="M623.3,407.2c-1.3,0-2.3-1-2.3-2.3v-14.7c0-1.3,1-2.3,2.3-2.3c1.3,0,2.3,1,2.3,2.3v14.7
								C625.6,406.2,624.6,407.2,623.3,407.2z"/>
						</g>
					</g>
				</g>
				<g>
					<g>
						<g>
							<path fill="#42413E" d="M632.1,407.2c-1.3,0-2.3-1-2.3-2.3v-14.7c0-1.3,1-2.3,2.3-2.3c1.3,0,2.3,1,2.3,2.3v14.7
								C634.4,406.2,633.4,407.2,632.1,407.2z"/>
						</g>
					</g>
				</g>
				<g>
					<g>
						<g>
							<path fill="#42413E" d="M640.3,407.2c-1.3,0-2.3-1-2.3-2.3v-14.7c0-1.3,1-2.3,2.3-2.3c1.3,0,2.3,1,2.3,2.3v14.7
								C642.6,406.2,641.5,407.2,640.3,407.2z"/>
						</g>
					</g>
				</g>
			</g>
		</g>
		<g>
			<g>
				<g>
					<path fill="#42413E" d="M666.8,453.8c-0.9,0-1.8-0.6-2.1-1.5c-2.6-7.4-8.7-7.5-8.8-7.5l0,0c0,0,0,0,0,0c-1.2,0-2.3-1-2.3-2.3
						s1-2.3,2.3-2.3c0,0,0,0,0,0c0.4,0,9.5,0.1,13.1,10.6c0.4,1.2-0.2,2.5-1.4,2.9C667.3,453.8,667,453.8,666.8,453.8z"/>
				</g>
			</g>
		</g>
	</g>
	<g>
		<g>
			<g>
				<g>
					<path fill="#42413E" d="M511.9,336.5h-2c-1.3,0-2.3-1-2.3-2.3c0-1.3,1-2.3,2.3-2.3h2c1.5,0,2.7-1.2,2.7-2.7
						c0-1.5-1.2-2.7-2.7-2.7h-1.6c-2.8,0-5-2.3-5-5s2.3-5,5-5h3.1c0.7,0,1.2-0.5,1.2-1.2c0-0.7-0.5-1.2-1.2-1.2h-13.2
						c-1.3,0-2.3-1-2.3-2.3c0-1.3,1-2.3,2.3-2.3h13.2c3.2,0,5.7,2.6,5.7,5.7c0,3.1-2.6,5.7-5.7,5.7h-3.1c-0.3,0-0.5,0.2-0.5,0.5
						s0.2,0.5,0.5,0.5h1.6c4,0,7.3,3.3,7.3,7.3C519.2,333.2,515.9,336.5,511.9,336.5z"/>
				</g>
			</g>
		</g>
		<g>
			<g>
				<g>
					<path fill="#42413E" d="M416.1,336.5h-2c-4,0-7.3-3.3-7.3-7.3c0-4,3.3-7.3,7.3-7.3h1.6c0.3,0,0.5-0.2,0.5-0.5s-0.2-0.5-0.5-0.5
						h-3.1c-3.1,0-5.7-2.6-5.7-5.7c0-3.2,2.6-5.7,5.7-5.7h12.9c1.3,0,2.3,1,2.3,2.3c0,1.3-1,2.3-2.3,2.3h-12.9
						c-0.7,0-1.2,0.5-1.2,1.2c0,0.7,0.5,1.2,1.2,1.2h3.1c2.8,0,5,2.3,5,5s-2.3,5-5,5h-1.6c-1.5,0-2.7,1.2-2.7,2.7
						c0,1.5,1.2,2.7,2.7,2.7h2c1.3,0,2.3,1,2.3,2.3C418.4,335.5,417.3,336.5,416.1,336.5z"/>
				</g>
			</g>
		</g>
		<g>
			<g>
				<g>
					<path fill="#42413E" d="M474,280.2c-1.3,0-2.3-1-2.3-2.3v-11.5c0-4.7-3.8-8.5-8.5-8.5s-8.5,3.8-8.5,8.5v11.5
						c0,1.3-1,2.3-2.3,2.3c-1.3,0-2.3-1-2.3-2.3v-11.5c0-7.2,5.9-13.1,13.1-13.1s13.1,5.9,13.1,13.1v11.5
						C476.2,279.1,475.2,280.2,474,280.2z"/>
				</g>
			</g>
		</g>
		<g>
			<g>
				<g>
					<path fill="#42413E" d="M487.3,351.9h-48.9c-2.7,0-4.8-2.2-4.8-4.8v-22.2c0-1.3,1-2.3,2.3-2.3h54c1.3,0,2.3,1,2.3,2.3v22.2
						C492.2,349.7,490,351.9,487.3,351.9z M438.1,327.2v19.9c0,0.2,0.1,0.3,0.3,0.3h48.9c0.2,0,0.3-0.1,0.3-0.3v-19.9H438.1z"/>
				</g>
			</g>
		</g>
		<g>
			<g>
				<g>
					<path fill="#42413E" d="M492.9,361h-60.1c-5,0-9-4-9-9v-40.2c0-1.3,1-2.3,2.3-2.3c0.1,0,6.7-0.1,12-5.6
						c4.8-5,7.2-12.8,6.9-23.2c0-1.1,0.4-2.1,1.2-2.9c0.8-0.8,1.8-1.2,2.9-1.2h28.5c1.1,0,2.1,0.4,2.9,1.2c0.8,0.8,1.2,1.8,1.1,2.9
						c-0.2,10.6,2.1,18.6,6.9,23.5c5,5.1,10.9,5.3,11.1,5.3c1.2,0,2.3,1,2.3,2.3V352C501.9,356.9,497.9,361,492.9,361z M428.4,313.8
						V352c0,2.5,2,4.4,4.4,4.4h60.1c2.5,0,4.4-2,4.4-4.4v-38.2c-2.8-0.5-7.7-1.9-12.1-6.3c-5.7-5.8-8.4-14.7-8.2-26.3h-27.4
						c0.2,11.5-2.6,20.2-8.3,26C436.8,311.9,431.4,313.4,428.4,313.8z"/>
				</g>
			</g>
		</g>
	</g>
	<g>
		<g>
			<g>
				<g>
					<path fill="#42413E" d="M438,777.3c-8.6,0-16.7-4.1-21.8-11c-0.7-1-0.5-2.4,0.5-3.2l51.9-38.2c1-0.7,2.4-0.5,3.2,0.5l14.6,19.9
						c0.4,0.5,0.5,1.1,0.4,1.7c-0.1,0.6-0.4,1.1-0.9,1.5L454,772C449.3,775.4,443.8,777.3,438,777.3z M421.3,765.3
						c4.2,4.7,10.3,7.4,16.7,7.4c4.8,0,9.4-1.5,13.3-4.4l30.2-22.2l-12-16.3L421.3,765.3z"/>
				</g>
			</g>
		</g>
		<g>
			<g>
				<g>
					<path fill="#42413E" d="M475.6,736.7c-0.7,0-1.4-0.3-1.8-0.9l-5.6-7.7c-0.4-0.5-0.5-1.1-0.4-1.7c0.1-0.6,0.4-1.1,0.9-1.5
						l30.3-22.3c1.2-0.9,2.6-1.4,4.2-1.4c2.2,0,4.3,1.1,5.7,2.9c1.1,1.5,1.6,3.4,1.3,5.2c-0.3,1.9-1.3,3.5-2.8,4.6L477,736.2
						C476.6,736.5,476.1,736.7,475.6,736.7z M473.2,727.2l2.9,4l28.5-20.9c0.5-0.4,0.9-1,1-1.6c0.1-0.7-0.1-1.3-0.5-1.8
						c-0.8-1.1-2.4-1.3-3.5-0.5L473.2,727.2z"/>
				</g>
			</g>
		</g>
		<g>
			<g>
				<g>
					<path fill="#42413E" d="M421.8,752c-0.3,0-0.5,0-0.8-0.1c-1.2-0.4-1.8-1.7-1.4-2.9l7.7-21.4c0.4-1.2,1.7-1.8,2.9-1.4
						c1.2,0.4,1.8,1.7,1.4,2.9l-7.7,21.4C423.6,751.4,422.7,752,421.8,752z"/>
				</g>
			</g>
		</g>
		<g>
			<g>
				<g>
					<path fill="#42413E" d="M437.5,742.3c-0.3,0-0.5,0-0.8-0.1c-1.2-0.4-1.8-1.7-1.4-2.9l7.9-21.7c0.4-1.2,1.7-1.8,2.9-1.4
						c1.2,0.4,1.8,1.7,1.4,2.9l-7.9,21.7C439.3,741.8,438.4,742.3,437.5,742.3z"/>
				</g>
			</g>
		</g>
		<g>
			<g>
				<g>
					<path fill="#42413E" d="M452.8,731.8c-0.3,0-0.6-0.1-0.8-0.2c-1.2-0.5-1.7-1.8-1.3-2.9l8.1-20.2c0.5-1.2,1.8-1.7,2.9-1.3
						c1.2,0.5,1.7,1.8,1.3,2.9l-8.1,20.2C454.5,731.3,453.7,731.8,452.8,731.8z"/>
				</g>
			</g>
		</g>
		<g>
			<g>
				<g>
					<path fill="#42413E" d="M432.9,776.7c-0.7,0-1.4-0.3-1.9-1c-0.7-1-0.5-2.4,0.6-3.2l47.6-33.4c1-0.7,2.4-0.5,3.2,0.6
						c0.7,1,0.5,2.4-0.6,3.2l-47.6,33.4C433.8,776.6,433.3,776.7,432.9,776.7z"/>
				</g>
			</g>
		</g>
	</g>
	<g>
		<g>
			<g>
				<g>
					<path fill="#42413E" d="M586.7,320.5c-1.3,0-2.3-1-2.3-2.3v-22.9c0-1.3,1-2.3,2.3-2.3c1.3,0,2.3,1,2.3,2.3v22.9
						C589,319.5,588,320.5,586.7,320.5z"/>
				</g>
			</g>
		</g>
		<g>
			<g>
				<g>
					<path fill="#42413E" d="M650.7,330.8c-1.3,0-2.3-1-2.3-2.3v-22.4c0-1.3,1-2.3,2.3-2.3s2.3,1,2.3,2.3v22.4
						C653,329.7,651.9,330.8,650.7,330.8z"/>
				</g>
			</g>
		</g>
		<g>
			<g>
				<g>
					<path fill="#42413E" d="M630.9,333.3c-4,0-8-0.1-11.8-0.4c-0.8-0.1-1.6-0.6-1.9-1.4c-1.1-2.6-3.7-4.2-6.5-4.2
						c-2.1,0-4.1,0.9-5.5,2.6c-0.5,0.7-1.4,1-2.2,0.8c-8.5-1.8-18.6-5.3-18.6-11.7c0-1.3,1-2.3,2.3-2.3c1.3,0,2.3,1,2.3,2.3
						c0,1.5,3.7,4.6,13.7,7c2.1-2,5-3.2,8-3.2c4.1,0,7.9,2.2,10,5.7c3.4,0.2,6.8,0.3,10.2,0.3c6.9,0,13.5,0,18.9-2.3
						c1.2-0.5,2.5,0,3,1.2c0.5,1.1,0,2.5-1.2,3C645.3,333.3,638.3,333.3,630.9,333.3z"/>
				</g>
			</g>
		</g>
		<g>
			<g>
				<g>
					<path fill="#42413E" d="M636.7,326.9c-3.6,0-6.5-2.9-6.5-6.5c0-3.6,2.9-6.5,6.5-6.5c3.6,0,6.5,2.9,6.5,6.5
						C643.2,324,640.3,326.9,636.7,326.9z M636.7,318.5c-1.1,0-1.9,0.9-1.9,1.9c0,1.1,0.9,1.9,1.9,1.9c1.1,0,1.9-0.9,1.9-1.9
						C638.7,319.3,637.8,318.5,636.7,318.5z"/>
				</g>
			</g>
		</g>
		<g>
			<g>
				<g>
					<path fill="#42413E" d="M590.7,324.6c-3.5,0-6.3-2.8-6.3-6.3c0-3.5,2.8-6.3,6.3-6.3c3.5,0,6.3,2.8,6.3,6.3
						C597,321.7,594.2,324.6,590.7,324.6z M590.7,316.5c-1,0-1.8,0.8-1.8,1.8c0,1,0.8,1.8,1.8,1.8c1,0,1.8-0.8,1.8-1.8
						C592.5,317.3,591.7,316.5,590.7,316.5z"/>
				</g>
			</g>
		</g>
		<g>
			<g>
				<g>
					<path fill="#42413E" d="M675,321.2c-0.1,0-0.2,0-0.3,0l-24.3-3.3c-1.2-0.2-2.1-1.3-1.9-2.5c0.2-1.2,1.3-2.1,2.5-1.9l21.8,2.9
						V316c-2.6-1.3-4.3-3.9-4.3-6.9c0-3,1.7-5.6,4.3-6.9v-6.7c0-1.3,1-2.3,2.3-2.3c1.3,0,2.3,1,2.3,2.3v8.3c0,1.1-0.7,2-1.7,2.2
						c-1.5,0.3-2.5,1.7-2.5,3.2c0,1.5,1,2.8,2.5,3.2c1,0.2,1.7,1.2,1.7,2.2v4.6c0,0.7-0.3,1.3-0.8,1.7
						C676.1,321.1,675.6,321.2,675,321.2z"/>
				</g>
			</g>
		</g>
		<g>
			<g>
				<g>
					<path fill="#42413E" d="M619.8,315c-3.3,0-6-2.7-6-6c0-1.3,1-2.3,2.3-2.3s2.3,1,2.3,2.3c0,0.8,0.7,1.5,1.5,1.5s1.5-0.7,1.5-1.5
						c0-1.3,1-2.3,2.3-2.3c1.3,0,2.3,1,2.3,2.3C625.8,312.3,623.1,315,619.8,315z"/>
				</g>
			</g>
		</g>
		<g>
			<g>
				<g>
					<path fill="#42413E" d="M664.6,317.9c-0.1,0-0.3,0-0.4,0c-1.2-0.2-2-1.4-1.8-2.7c0.2-1-0.4-1.9-1.4-2.1c-0.5-0.1-0.9,0-1.3,0.3
						c-0.4,0.3-0.7,0.7-0.7,1.1c-0.2,1.2-1.4,2-2.7,1.8c-1.2-0.2-2-1.4-1.8-2.7c0.3-1.7,1.3-3.1,2.7-4c1.4-0.9,3.1-1.3,4.7-1
						c3.4,0.7,5.6,4,5,7.4C666.6,317.2,665.6,317.9,664.6,317.9z"/>
				</g>
			</g>
		</g>
		<g>
			<g>
				<g>
					<path fill="#42413E" d="M630.9,309.6c-5.2,0-10.2-0.2-15-0.7c-7.4-0.7-31.4-3.8-31.4-13.6c0-4.6,5.5-8.4,15.9-11
						c0.9-0.2,1.9,0.1,2.4,0.9c0.7,1,1.8,1.6,2.9,1.6c1.6,0,3.1-1.2,3.4-2.8c0.2-0.9,1-1.6,1.9-1.8c6.2-0.8,12.9-1.3,19.8-1.3
						c11.5,0,22.4,1.2,30.8,3.4c0.7,0.2,1.3,0.7,1.6,1.5c0.3,0.8,1.4,1.6,3.1,1.6c0.6,0,1.1-0.1,1.7-0.3c0.6-0.2,1.2-0.2,1.8,0
						c4.9,2.3,7.4,5,7.4,8.2c0,1.5-0.6,2.9-1.8,4.3c-0.5,0.6-1.2,0.8-2,0.8l-28.4-3.3l7.2,7.4c0.6,0.6,0.8,1.5,0.5,2.3
						s-1,1.4-1.8,1.5C644.7,309.2,637.9,309.6,630.9,309.6z M600.1,289c-8.8,2.4-11.1,5.1-11.1,6.3c0,2.6,8.7,7.3,27.3,9.1
						c4.7,0.5,9.6,0.7,14.6,0.7c5.2,0,10.2-0.2,15-0.7l-8.5-8.7c-0.7-0.7-0.8-1.7-0.4-2.6c0.4-0.9,1.3-1.4,2.3-1.2l33.4,3.9
						c0-0.1,0.1-0.3,0.1-0.4c0-0.8-1.1-2.2-4-3.7c-0.8,0.2-1.6,0.3-2.4,0.3c-2.9,0-5.5-1.4-6.8-3.5c-7.9-1.9-18.1-3-28.7-3
						c-6.2,0-12.2,0.3-17.8,1c-1.3,2.8-4.1,4.7-7.3,4.7C603.6,291.3,601.6,290.5,600.1,289z"/>
				</g>
			</g>
		</g>
	</g>
	<g>
		<g>
			<g>
				<g>
					<path fill="#42413E" d="M670.6,621.9c-2.2,0-4.3-0.4-6.4-1.1c-5-1.7-9-5.3-11.2-10c-2.3-4.7-2.6-10-0.9-15
						c2.7-7.9,10.2-13.2,18.6-13.2c2.2,0,4.3,0.4,6.4,1.1c5,1.7,9,5.3,11.2,10c2.3,4.7,2.6,10,0.9,15
						C686.4,616.6,678.9,621.9,670.6,621.9z M670.6,587.2c-6.4,0-12.2,4.1-14.3,10.2c-1.3,3.8-1.1,7.9,0.7,11.5s4.8,6.4,8.7,7.7
						c1.6,0.6,3.3,0.8,4.9,0.8c6.4,0,12.2-4.1,14.3-10.2c1.3-3.8,1.1-7.9-0.7-11.5s-4.8-6.4-8.7-7.7
						C673.9,587.4,672.2,587.2,670.6,587.2z"/>
				</g>
			</g>
		</g>
		<g>
			<g>
				<g>
					<path fill="#42413E" d="M659.3,618c-2.2,0-4.4-0.4-6.4-1.1c-5-1.7-9-5.3-11.2-10c-2.3-4.7-2.6-10-0.9-15
						c2.7-7.9,10.2-13.2,18.6-13.2c2.2,0,4.3,0.4,6.4,1.1c2.1,0.7,4.1,1.9,6,3.3c0.7,0.6,1,1.6,0.7,2.5c-0.3,0.9-1.2,1.5-2.1,1.5
						c-6.3,0.1-12,4.2-14,10.2c-2.1,6-0.1,12.7,4.8,16.7c0.7,0.6,1,1.6,0.7,2.5c-0.3,0.9-1.2,1.5-2.1,1.5L659.3,618z M659.3,583.3
						c-6.4,0-12.2,4.1-14.3,10.2c-1.3,3.8-1.1,7.9,0.7,11.5c1.7,3.4,4.5,6.1,8,7.4c-3-4.9-3.7-11-1.8-16.6
						c1.9-5.6,6.3-9.9,11.7-11.9C662.2,583.5,660.8,583.3,659.3,583.3z"/>
				</g>
			</g>
		</g>
		<g>
			<g>
				<g>
					<path fill="#42413E" d="M648.3,614.2c-2.2,0-4.4-0.4-6.4-1.1c-5-1.7-9-5.3-11.2-10c-2.3-4.7-2.6-10-0.9-15
						c2.7-7.9,10.2-13.2,18.6-13.2c2.2,0,4.3,0.4,6.4,1.1c2.1,0.7,4.1,1.9,6,3.3c0.7,0.6,1,1.6,0.7,2.5c-0.3,0.9-1.2,1.5-2.1,1.5
						c-6.3,0.1-12,4.2-14,10.2c-2.1,6-0.1,12.7,4.8,16.7c0.7,0.6,1,1.6,0.7,2.5c-0.3,0.9-1.2,1.5-2.1,1.5L648.3,614.2z M648.3,579.5
						c-6.4,0-12.2,4.1-14.3,10.2c-1.3,3.8-1.1,7.9,0.7,11.5c1.7,3.4,4.5,6.1,8,7.4c-3-4.9-3.7-11-1.8-16.6
						c1.9-5.6,6.3-9.9,11.7-11.9C651.2,579.7,649.8,579.5,648.3,579.5z"/>
				</g>
			</g>
		</g>
		<g>
			<g>
				<g>
					<path fill="#42413E" d="M642.6,613.3c-0.2,0-0.5,0-0.7-0.1l-47.1-16.3c-5-1.7-9-5.3-11.2-10c-2.3-4.7-2.6-10-0.9-15
						c1.7-5,5.3-9,10-11.2c4.7-2.3,10-2.6,15-0.9l47.1,16.3c1.2,0.4,1.8,1.7,1.4,2.9c-0.4,1.2-1.7,1.8-2.9,1.4L606.2,564
						c-3.8-1.3-7.9-1.1-11.5,0.7c-3.6,1.8-6.4,4.8-7.7,8.7c-1.3,3.8-1.1,7.9,0.7,11.5s4.8,6.4,8.7,7.7l47.1,16.3
						c1.2,0.4,1.8,1.7,1.4,2.9C644.5,612.7,643.6,613.3,642.6,613.3z"/>
				</g>
			</g>
		</g>
		<g>
			<g>
				<g>
					<path fill="#42413E" d="M571.4,578.7c-0.9,0-1.8-0.6-2.1-1.5c-0.4-1.2,0.2-2.5,1.4-2.9l11.2-3.9l-5.7-10
						c-0.6-1.1-0.2-2.5,0.9-3.1c1.1-0.6,2.5-0.2,3.1,0.9l7,12.4c0.3,0.6,0.4,1.3,0.1,1.9c-0.2,0.6-0.7,1.1-1.4,1.3l-13.8,4.8
						C571.9,578.7,571.7,578.7,571.4,578.7z"/>
				</g>
			</g>
		</g>
		<g>
			<g>
				<g>
					<path fill="#42413E" d="M585.2,574c-0.3,0-0.6-0.1-0.8-0.2l-9.9-4c-1.2-0.5-1.7-1.8-1.2-2.9c0.5-1.2,1.8-1.7,2.9-1.2l9.9,4
						c1.2,0.5,1.7,1.8,1.2,2.9C586.9,573.4,586.1,574,585.2,574z"/>
				</g>
			</g>
		</g>
		<g>
			<g>
				<g>
					<g>
						<path fill="#42413E" d="M671.9,594.4c2.4,0,2.4-3.8,0-3.8C669.5,590.6,669.5,594.4,671.9,594.4L671.9,594.4z"/>
					</g>
				</g>
			</g>
		</g>
		<g>
			<g>
				<g>
					<g>
						<path fill="#42413E" d="M661.8,600.3c2.4,0,2.4-3.8,0-3.8C659.4,596.5,659.4,600.3,661.8,600.3L661.8,600.3z"/>
					</g>
				</g>
			</g>
		</g>
		<g>
			<g>
				<g>
					<g>
						<path fill="#42413E" d="M670.6,603.3c2.4,0,2.4-3.8,0-3.8S668.1,603.3,670.6,603.3L670.6,603.3z"/>
					</g>
				</g>
			</g>
		</g>
		<g>
			<g>
				<g>
					<g>
						<path fill="#42413E" d="M675.8,611.9c2.4,0,2.4-3.8,0-3.8S673.4,611.9,675.8,611.9L675.8,611.9z"/>
					</g>
				</g>
			</g>
		</g>
		<g>
			<g>
				<g>
					<g>
						<path fill="#42413E" d="M679.7,602.4c2.4,0,2.4-3.8,0-3.8S677.3,602.4,679.7,602.4L679.7,602.4z"/>
					</g>
				</g>
			</g>
		</g>
		<g>
			<g>
				<g>
					<g>
						<path fill="#42413E" d="M665.1,611.9c2.4,0,2.4-3.8,0-3.8C662.7,608.2,662.7,611.9,665.1,611.9L665.1,611.9z"/>
					</g>
				</g>
			</g>
		</g>
	</g>
	<g>
		<g>
			<g>
				<g>
					<path fill="#42413E" d="M463.3,632.6c-10.3,0-23.6-4.8-30.2-15.4c-4.5-7.3-7.7-20.3,2.7-41.1c0.4-0.9,1.4-1.4,2.4-1.2
						c1,0.2,1.7,0.9,1.9,1.9c0,0.1,1.2,7.2,5,11.8c0-8.8,2.3-26.7,20.2-39c0.8-0.6,1.9-0.5,2.7,0.1c0.8,0.6,1.1,1.7,0.7,2.6
						c-0.1,0.2-6.2,15.4,3.5,22.6c1.2,0.7,11.1,7.3,12.9,20.8c2.1-2.1,4.7-5.2,6.4-8.8c0.4-0.9,1.3-1.4,2.3-1.3
						c0.9,0.1,1.7,0.8,2,1.7c0.2,0.8,5.4,20.8-4.9,34.1C485.1,628.8,475.8,632.6,463.3,632.6z M437.3,583.7
						c-5.1,12.5-5.2,23.2-0.4,31.1c5.7,9.2,17.3,13.3,26.3,13.3c11.1,0,19.1-3.2,23.9-9.4c5.8-7.6,5.8-18.1,5.1-24.5
						c-3.5,4.8-7.6,8-7.8,8.1c-0.7,0.5-1.6,0.6-2.4,0.2c-0.8-0.4-1.3-1.2-1.3-2.1c0.3-14.8-11-21.8-11.1-21.8
						c-0.1,0-0.1-0.1-0.2-0.1c-7.9-5.7-8.1-14.7-7-21c-15.7,14.8-12.8,34.7-12.6,35.6c0.1,0.8-0.2,1.7-0.9,2.2
						c-0.7,0.5-1.6,0.6-2.3,0.2C441.7,593.1,438.9,587.9,437.3,583.7z"/>
				</g>
			</g>
		</g>
		<g>
			<g>
				<g>
					<path fill="#42413E" d="M465.4,632.6c-5.4,0-13.2-2.4-17.3-9c-2.7-4.3-4.6-12.1,1.5-24.2c0.4-0.9,1.4-1.4,2.4-1.2
						c1,0.2,1.7,0.9,1.9,1.9c0.1,0.8,0.5,2.1,1,3.5c0.6-5.6,3.1-13.6,11.6-19.5c0.8-0.6,1.9-0.5,2.7,0.1c0.8,0.6,1.1,1.7,0.7,2.6
						c0,0.1-3.1,7.9,1.6,11.5c1.4,0.8,11.6,7.1,10.8,17.7c0,5.6-3.4,16.2-16.2,16.7C465.8,632.6,465.6,632.6,465.4,632.6z
						 M451.4,606.7c-1.9,5.8-1.7,10.7,0.6,14.5c2.9,4.7,8.8,6.9,13.4,6.9l0.5,0c11.5-0.4,11.9-11,11.9-12.2c0-0.1,0-0.1,0-0.2
						c0.7-8.2-8.5-13.5-8.6-13.5c-0.1,0-0.2-0.1-0.2-0.1c-3.7-2.7-4.6-6.5-4.6-9.8c-6.3,7.7-4.9,17-4.9,17.1
						c0.1,0.8-0.2,1.7-0.9,2.2c-0.7,0.5-1.6,0.6-2.3,0.2C454,610.5,452.5,608.6,451.4,606.7z"/>
				</g>
			</g>
		</g>
	</g>
	<g>
		<g>
			<g>
				<g>
					<g>
						<path fill="#42413E" d="M663.2,783.4c-1.2,0-2.3-0.5-3.2-1.3l-21.4-21.4c-1.8-1.8-1.8-4.6,0-6.4l5.7-5.7
							c1.7-1.7,4.7-1.7,6.4,0l21.4,21.4c1.8,1.8,1.8,4.6,0,6.4l-5.7,5.7C665.6,782.9,664.4,783.4,663.2,783.4z M647.6,751.7
							l-5.7,5.7l21.4,21.4l5.7-5.7L647.6,751.7z"/>
					</g>
				</g>
			</g>
			<g>
				<g>
					<g>
						<path fill="#42413E" d="M611.3,731.6c-1.3,0-2.6-0.5-3.6-1.5c0,0-0.1-0.1-0.1-0.1l-20.7-24.3c-0.8-1-0.7-2.4,0.3-3.2
							s2.4-0.7,3.2,0.3l20.7,24.2c0.3,0.2,0.6,0.3,0.8,0l5.3-5.3c0.2-0.2,0.2-0.6,0-0.8l-24.5-20.3c-1-0.8-1.1-2.2-0.3-3.2
							c0.8-1,2.2-1.1,3.2-0.3l24.6,20.4c0.1,0,0.1,0.1,0.2,0.1c2,2,2,5.3,0,7.3l-5.3,5.3C613.9,731.1,612.6,731.6,611.3,731.6z"/>
					</g>
				</g>
			</g>
			<g>
				<g>
					<g>
						<path fill="#42413E" d="M642.6,754.7c-0.6,0-1.2-0.2-1.6-0.7l-26.6-26.6c-0.9-0.9-0.9-2.3,0-3.2s2.3-0.9,3.2,0l26.6,26.6
							c0.9,0.9,0.9,2.3,0,3.2C643.7,754.5,643.1,754.7,642.6,754.7z"/>
					</g>
				</g>
			</g>
		</g>
		<g>
			<g>
				<g>
					<g>
						<path fill="#42413E" d="M594.7,782.8c-1.2,0-2.3-0.5-3.2-1.3l-5.7-5.7c-1.8-1.8-1.8-4.6,0-6.4l21.4-21.4
							c1.7-1.7,4.7-1.7,6.4,0l5.7,5.7c1.8,1.8,1.8,4.6,0,6.4l-21.4,21.4C597.1,782.3,596,782.8,594.7,782.8z M610.4,751.2L589,772.6
							l5.7,5.7l21.4-21.4L610.4,751.2z"/>
					</g>
				</g>
			</g>
			<g>
				<g>
					<g>
						<path fill="#42413E" d="M615.4,754.2c-0.6,0-1.2-0.2-1.6-0.7c-0.9-0.9-0.9-2.3,0-3.2l25.7-25.7c0.9-0.9,2.3-0.9,3.2,0
							s0.9,2.3,0,3.2L617,753.5C616.6,753.9,616,754.2,615.4,754.2z"/>
					</g>
				</g>
			</g>
			<g>
				<g>
					<g>
						<path fill="#42413E" d="M652.2,736.5c-1.8,0-3.6-0.7-4.9-2L632.9,720c-1.3-1.3-2-3-2-4.9c0-1.8,0.7-3.6,2-4.9l15.8-15.8
							c1.3-1.3,3-2,4.9-2c1.8,0,3.6,0.7,4.9,2l14.4,14.4c2.7,2.7,2.7,7.1,0,9.8L657,734.4C655.7,735.7,654,736.5,652.2,736.5z
							 M653.6,697c-0.6,0-1.2,0.2-1.7,0.7l-15.8,15.8c-0.4,0.4-0.7,1-0.7,1.7c0,0.6,0.2,1.2,0.7,1.7l14.4,14.4
							c0.9,0.9,2.5,0.9,3.4,0l15.8-15.8c0.9-0.9,0.9-2.4,0-3.4l-14.4-14.4C654.8,697.2,654.2,697,653.6,697z"/>
					</g>
				</g>
			</g>
			<g>
				<g>
					<g>
						<path fill="#42413E" d="M646.6,723c-0.6,0-1.2-0.2-1.6-0.7c-0.9-0.9-0.9-2.3,0-3.2l12.6-12.6c0.9-0.9,2.3-0.9,3.2,0
							c0.9,0.9,0.9,2.3,0,3.2l-12.6,12.6C647.7,722.8,647.1,723,646.6,723z"/>
					</g>
				</g>
			</g>
			<g>
				<g>
					<g>
						<path fill="#42413E" d="M654,725.9c-0.6,0-1.2-0.2-1.6-0.7c-0.9-0.9-0.9-2.3,0-3.2l7.5-7.5c0.9-0.9,2.3-0.9,3.2,0
							c0.9,0.9,0.9,2.3,0,3.2l-7.5,7.5C655.2,725.6,654.6,725.9,654,725.9z"/>
					</g>
				</g>
			</g>
			<g>
				<g>
					<g>
						<path fill="#42413E" d="M643.7,715.6c-0.6,0-1.2-0.2-1.6-0.7c-0.9-0.9-0.9-2.3,0-3.2l7.5-7.5c0.9-0.9,2.3-0.9,3.2,0
							c0.9,0.9,0.9,2.3,0,3.2l-7.5,7.5C644.9,715.4,644.3,715.6,643.7,715.6z"/>
					</g>
				</g>
			</g>
		</g>
	</g>
</g>
<g>
	<g>
		<path fill="#42413E" d="M340.7,168.9c0.1-1.3,0.1-2.2,0.1-2.6c0-0.9-0.3-2.2-0.9-3.9c-0.6-1.8-0.9-3.3-0.9-4.5
			c0-1,0.1-2.5,0.3-4.5c0.2-2,0.4-3.4,0.4-4.4c0-0.9,0.3-2.6,0.9-5.4c0.6-2.8,1-4.8,1-6.1c0-2.2-1.4-3.8-4.1-3.8
			c-0.4,0-1.6,0.2-2.2,0.2c-1,0-1.9-1.1-1.9-2.3c0-0.5,0.3-0.7,1-0.7c1,0,3.1,0.4,4.1,0.4c0.9,0,2.2,0,3.8-0.1
			c1.7-0.1,3-0.1,3.8-0.1c1.3,0,4.9-0.2,6.5-0.2c1.2,0,1.8,0.4,1.8,1.2c0,0.9-0.6,1.3-2,1.3c-0.3,0-1.4-0.1-1.8-0.1
			c-1.4,0-2.2,1-2.2,3c0,0.6,0.1,1.9,0.1,2.5c0,1.5,0.2,3.8,0.7,6.8c0.5,3,0.7,5.3,0.7,6.8c0,0.7-0.1,1.8-0.2,3.4
			c-0.1,1.4-0.2,2.5-0.2,3.2c0,0.7,0.2,2.6,0.2,3.3l-0.1,2.5c-0.1,1.7-0.2,3.8-0.3,6.1c-0.1,2.3-0.2,4.2-0.2,5.8
			c0,4.2,0.6,5.3,2.1,5.3c0.3,0,1.3-0.1,1.8-0.1c0.5,0,0.7,0.5,0.7,1.5c0,0.9,0.1,1.2-1.2,1.2c-0.9,0-3.8-0.6-5-0.6h-10.5l-2.9,0.2
			c-0.9-0.1-1.3-0.6-1.3-1.5c0-0.3,0.8-0.6,2.5-0.6c0.4,0,1.3,0.1,1.6,0.1c2.5,0,3.6-2.6,3.6-10.3V168.9z M342.9,163.3
			c0-0.8,0.1-3.3,0.2-7.4c0.2-4.1,0.2-7.1,0.2-8.9c0-1.4,0-2.3-0.1-2.7c0,0.4-0.2,2.6-0.6,6.4s-0.6,6.8-0.6,8.9c0,1,0.1,2.3,0.3,3.8
			c0.2,1.4,0.4,2.2,0.4,2.4V163.3z M343.2,170.1c-0.2,1-0.1,6.7-0.6,9.2c0.5-0.6,0.8-1.4,0.9-2.5
			C343.4,174.4,343.3,172.2,343.2,170.1z M347.3,180.8c-0.3-1.2-0.5-3.1-0.5-5.8c0-2.6,0.2-6.4,0.4-11.1c0.3-4.7,0.5-8.3,0.5-10.8
			c0-1.5-0.3-3.8-0.9-6.9c-0.6-3.1-0.9-5.4-0.9-6.9c0-0.2,0.1-0.6,0.1-0.9c-0.2,1.3-0.4,3.2-0.4,5.7c0,2.7,0.2,6.9,0.4,12.4
			c0.3,5.5,0.5,9.6,0.5,12.2c0,0.9-0.1,2.3-0.3,4.3c-0.2,1.9-0.2,3.3-0.2,4.1C346,179,346.4,180.3,347.3,180.8z"/>
		<path fill="#42413E" d="M352.7,184.8c-0.4,0-1.2-0.1-2.2-0.2c-1-0.1-2.2-0.3-2.9-0.3h-10.5l-2.8,0.2c-1.2-0.1-1.8-0.8-1.8-2
			c0-0.7,0.9-1,2.9-1.1c0.2,0,0.6,0,0.9,0c0.3,0,0.5,0,0.7,0c1.6,0,3.1-1.2,3.1-9.8v-2.7c0.1-1.3,0.1-2.2,0.1-2.6
			c0-0.8-0.3-2.1-0.9-3.8c-0.6-1.9-0.9-3.5-0.9-4.7c0-1.2,0.1-2.7,0.3-4.5c0.2-1.9,0.4-3.4,0.4-4.3c0-0.9,0.3-2.6,0.9-5.5
			c0.6-2.8,0.9-4.8,0.9-6c0-2.1-1.3-3.3-3.6-3.3c-0.2,0-0.5,0-0.8,0.1c-0.5,0.1-1,0.1-1.4,0.1c-1.2,0-2.4-1.4-2.4-2.8
			c0-0.4,0.1-1.2,1.5-1.2c0.6,0,1.4,0.1,2.2,0.2c0.7,0.1,1.5,0.2,1.9,0.2c0.9,0,2.1,0,3.8-0.1c1.7-0.1,3-0.1,3.9-0.1
			c0.6,0,1.7,0,2.8-0.1c1.3,0,2.8-0.1,3.7-0.1c2.1,0,2.3,1.2,2.3,1.7c0,1.2-0.8,1.8-2.5,1.8c-0.2,0-0.5,0-0.9,0c-0.3,0-0.7,0-0.9,0
			c-0.5,0-1.7,0-1.7,2.5c0,0.3,0,0.7,0,1.2c0,0.5,0,1,0,1.3c0,1.5,0.2,3.7,0.7,6.7c0.5,2.9,0.7,5.3,0.7,6.9c0,0.5,0,1.3-0.1,2.2
			l-0.1,2.3c-0.1,0.9-0.1,1.5-0.1,2c0,0.4,0,1,0.1,1.7c0,0.6,0.1,1.3,0.1,1.6l-0.1,2.5c0,0.6-0.1,1.3-0.1,2.1
			c-0.1,1.2-0.2,2.6-0.2,4l0,1.2c-0.1,1.8-0.1,3.3-0.1,4.7c0,4.4,0.7,4.8,1.6,4.8c0.1,0,0.4,0,0.7,0c0.4,0,0.9,0,1.2,0
			c0.8,0,1.2,0.7,1.2,2l0,0.1c0,0.5,0,0.9-0.3,1.2C353.8,184.8,353.4,184.8,352.7,184.8z M347.7,183.3c0.7,0,1.9,0.2,3,0.3
			c0.9,0.1,1.7,0.2,2,0.2c0.5,0,0.7-0.1,0.7-0.1c0,0,0-0.3,0-0.5l0-0.1c0-0.7-0.1-1-0.2-1c-0.3,0-0.7,0-1.1,0c-0.3,0-0.6,0-0.7,0
			c-2.2,0-2.6-1.9-2.6-5.8c0-1.3,0.1-2.9,0.1-4.7l0-1.2c0.1-1.5,0.1-2.8,0.2-4c0-0.7,0.1-1.4,0.1-2l0.1-2.5c0-0.3,0-0.9-0.1-1.5
			c0-0.7-0.1-1.4-0.1-1.8c0-0.5,0-1.2,0.1-2.1l0.1-2.3c0.1-0.9,0.1-1.6,0.1-2.1c0-1.5-0.2-3.8-0.7-6.7c-0.5-3.1-0.7-5.3-0.7-6.9
			c0-0.3,0-0.7,0-1.2c0-0.5,0-1,0-1.3c0-3.1,1.7-3.5,2.7-3.5c0.2,0,0.5,0,0.9,0c0.3,0,0.7,0,0.8,0c1.5,0,1.5-0.5,1.5-0.8
			c0-0.2,0-0.7-1.3-0.7c-0.9,0-2.3,0-3.7,0.1c-1.2,0-2.3,0.1-2.9,0.1c-0.9,0-2.1,0-3.8,0.1c-1.7,0.1-3,0.1-3.9,0.1
			c-0.5,0-1.2-0.1-2-0.2c-0.8-0.1-1.5-0.2-2-0.2c-0.5,0-0.5,0.1-0.5,0.2c0,1,0.8,1.8,1.4,1.8c0.3,0,0.8-0.1,1.3-0.1
			c0.4-0.1,0.8-0.1,0.9-0.1c2.9,0,4.6,1.7,4.6,4.3c0,1.4-0.3,3.4-1,6.3c-0.5,2.7-0.9,4.5-0.9,5.3c0,1-0.2,2.5-0.4,4.4
			c-0.2,1.7-0.3,3.2-0.3,4.4c0,1.2,0.3,2.6,0.9,4.4c0.6,1.8,0.9,3.2,0.9,4.1c0,0.5,0,1.4-0.1,2.7l0,2.7c0,6.5-0.7,10.8-4.1,10.8
			c-0.2,0-0.4,0-0.7,0c-0.3,0-0.6,0-0.8,0c-1.3,0.1-1.8,0.2-2,0.3c0,0.7,0.4,0.8,0.8,0.9l2.8-0.2L347.7,183.3z M348.1,181.9
			l-1.1-0.7c-1-0.7-1.6-2.1-1.6-4.2c0-0.8,0.1-2.2,0.2-4.1c0.3-2.3,0.3-3.7,0.3-4.3c0-2.6-0.2-6.7-0.5-12.2
			c-0.2-5.7-0.4-9.7-0.4-12.4c0-2.4,0.1-4.4,0.4-5.8l1,0.1c0,0.1,0,0.3,0,0.5c0,0.1,0,0.3,0,0.4c0,1.4,0.3,3.5,0.9,6.9
			c0.6,3.4,0.9,5.6,0.9,7c0,2.5-0.2,6.1-0.5,10.8c-0.2,4.1-0.4,8.2-0.4,11.1c0,2.6,0.2,4.5,0.5,5.7L348.1,181.9z M346.2,145.2
			c0,2.6,0.2,6.3,0.4,11.3c0.1,2.2,0.2,4.1,0.3,5.8c0.2-3.9,0.4-7,0.4-9.2c0-1.4-0.3-3.5-0.9-6.9
			C346.3,145.9,346.2,145.5,346.2,145.2z M341.5,181.5l0.5-2.3c0.4-1.6,0.4-4.6,0.5-6.7c0-1.2,0.1-2,0.1-2.4l0.7-4.1l0.3,4.1
			c0.2,2.1,0.2,4.3,0.2,6.7c-0.1,1.1-0.4,2-1,2.8L341.5,181.5z M343.4,165.6h-1c0-0.1-0.1-0.7-0.2-1.3l-0.2-1
			c-0.2-1.3-0.3-2.6-0.3-3.8c0-2.3,0.2-5.4,0.6-8.9c0.4-4,0.6-6,0.6-6.3l1-0.1c0.1,0.4,0.1,1.4,0.1,2.8c0,1.8-0.1,4.8-0.2,9
			c-0.2,4.1-0.2,6.6-0.2,7.4V165.6z"/>
	</g>
	<g>
		<path fill="#42413E" d="M408,145.3c-0.9,0-1.4-0.6-1.4-1.6c-0.4-7.1-6.5-11.6-15.9-11.6c-4.6,0-8.7,2-12.1,5.9
			c-3.4,3.9-5.2,8.4-5.2,13.4c0,0.6,0.2,2.2,0.2,2.9c0,2.6-0.8,5.8-0.8,8.1c0,1.6,0.8,3.8,1,5.3c0.4,3.3,0.6,4.9,0.6,5
			c0.9,3.6,2.4,6.1,4,7.4c0.9,0.6,1.9,1.1,3.3,1.5c2.6,0.6,4.4,0.7,7.9,0.7c4.5,0,7.6-0.6,9.6-1.2c1-0.3,2.2-1,3.4-2.2
			c1.2-1.2,2.2-2.2,2.9-3c0.7-0.8,1.9-2.3,3.7-4.6c0.2-0.6,1.5,0,1.5,1.4c0,1.4-0.5,3-1.4,4.9c-0.9,1.8-1.7,3.1-2.5,3.7
			c-3.6,2.6-7.6,3.8-11.9,3.8c-6.5,0-12.2-0.8-18.3-3.4c-8.7-3.7-15-11.1-15.1-24.1c0-7.6,1.4-13.2,4.5-17c3.1-3.9,6.4-6.1,11.7-8.5
			c5.2-2.3,9.3-3.5,12.3-3.5c2.6,0,7,0.7,13.2,2.1c4.9,1,6.7,4.7,6.7,11.8C409.9,144,409.2,145.3,408,145.3z M370.6,141.7
			c-4,3.9-6,9.2-6,15.9c0,5.5,1,9.6,2.8,12.2c0-0.4-0.2-1.2-0.4-2.3c-0.2-1.2-0.4-2-0.4-2.4c0-0.9,0.2-2.6,0.2-3.5
			c0-0.7-0.1-1.8-0.2-3.4c-0.1-1.5-0.2-2.7-0.2-3.4c0-2.3,0.8-5.3,2.4-9.1C369.6,143.9,370.2,142.5,370.6,141.7z M374.5,139.3
			c-1.8,2.2-3.3,5.1-4.2,8.7c-1,3.5-1.4,6.9-1.4,10.3c0,3.8,0.3,6.8,0.6,8.1c0.2,1.3,0.9,3.8,1.1,4.7c0.3,1.4,1.1,2.9,2.3,4.5
			c-1.5-4-2.2-8.3-2.2-12.8c0-0.7,0.1-2.1,0.3-3.9c0.2-1.8,0.3-3.4,0.3-4.7c0-0.6-0.2-2.2-0.2-2.8c0-0.6,0.2-1.7,0.7-3.1
			c0.5-1.5,0.7-2.6,0.7-3.2C372.5,143.3,373.2,141.3,374.5,139.3z"/>
		<path fill="#42413E" d="M394.8,185.9c-7.2,0-12.9-1-18.5-3.4c-10-4.2-15.3-12.7-15.4-24.6c0-8,1.5-13.5,4.6-17.3
			c3.3-4.2,6.9-6.4,11.9-8.7c5.4-2.4,9.5-3.6,12.5-3.6c2.6,0,6.8,0.7,13.4,2.1c5,1.1,7.1,4.7,7.1,12.3c0,1.5-0.8,3.1-2.4,3.1
			c-1.1,0-1.8-0.8-1.9-2.1c-0.4-6.9-6.3-11.1-15.4-11.1c-4.5,0-8.4,1.9-11.8,5.7c-3.4,3.8-5.1,8.2-5.1,13.1c0,0.3,0.1,0.8,0.1,1.4
			c0.1,0.6,0.1,1.1,0.1,1.5c0,1.3-0.2,2.9-0.4,4.3c-0.2,1.4-0.4,2.7-0.4,3.8c0,0.8,0.3,1.9,0.5,2.9c0.2,0.8,0.4,1.6,0.5,2.4
			c0.3,2.1,0.4,3.5,0.5,4.3c0,0.3,0.1,0.6,0.1,0.7c0.8,3.2,2.1,5.7,3.8,7.1c0.8,0.6,1.8,1,3.1,1.4c2.6,0.6,4.4,0.7,7.8,0.7
			c3.5,0,6.6-0.4,9.4-1.2c0.9-0.3,2-1,3.1-2c1.2-1.2,2.1-2.1,2.8-2.9c0.7-0.8,1.8-2.2,3.6-4.5c0.1-0.3,0.4-0.5,0.8-0.5
			c0.7,0,1.7,0.8,1.7,2.1c0,1.4-0.5,3.1-1.4,5.1c-1,2.1-1.8,3.3-2.6,3.9C403.3,184.6,399.2,185.9,394.8,185.9z M389.9,129.4
			c-2.9,0-6.9,1.1-12.1,3.5c-4.9,2.3-8.3,4.4-11.5,8.4c-3,3.7-4.4,9-4.4,16.7c0.1,11.6,5,19.5,14.8,23.6c5.5,2.3,10.9,3.3,18.1,3.3
			c4.2,0,8.1-1.3,11.6-3.7c0.7-0.5,1.4-1.6,2.3-3.5c0.9-1.8,1.3-3.4,1.3-4.7c0-0.7-0.4-1.1-0.6-1.1c-1.8,2.4-3,3.9-3.7,4.7
			c-0.7,0.8-1.7,1.7-2.9,2.9c-1.3,1.2-2.5,2-3.6,2.3c-2.9,0.8-6.1,1.2-9.7,1.2c-3.5,0-5.3-0.1-8-0.7c-1.4-0.4-2.5-0.9-3.4-1.6
			c-1.9-1.6-3.4-4.3-4.2-7.7l0-0.1c0,0,0-0.3-0.1-0.6c-0.1-0.8-0.3-2.2-0.5-4.3c-0.1-0.7-0.2-1.4-0.4-2.2c-0.3-1.1-0.5-2.2-0.5-3.2
			c0-1.2,0.2-2.5,0.4-3.9c0.2-1.4,0.4-2.9,0.4-4.2c0-0.3-0.1-0.8-0.1-1.4c-0.1-0.6-0.1-1.1-0.1-1.5c0-5.1,1.8-9.7,5.3-13.7
			c3.5-4,7.7-6.1,12.5-6.1c9.7,0,16,4.6,16.4,12c0.1,1,0.5,1.1,0.9,1.1c1,0,1.4-1.1,1.4-2.1c0-7.1-1.8-10.4-6.3-11.3
			C396.6,130,392.4,129.4,389.9,129.4z M374.6,178.7l-2.1-2.8c-1.3-1.7-2.1-3.2-2.4-4.7l-0.1-0.5c-0.3-1.2-0.8-3.1-1-4.3
			c-0.3-1.4-0.6-4.4-0.6-8.2c0-3.4,0.5-6.9,1.5-10.4c0.9-3.6,2.4-6.5,4.3-8.9l0.8,0.6c-1.3,1.9-2,3.8-2,5.4c0,0.7-0.2,1.7-0.7,3.3
			c-0.5,1.4-0.7,2.4-0.7,3c0,0.3,0.1,0.8,0.1,1.3c0.1,0.6,0.1,1.1,0.1,1.5c0,1.5-0.1,3.1-0.3,4.8c-0.3,2.2-0.3,3.5-0.3,3.8
			c0,4.6,0.7,8.8,2.2,12.7L374.6,178.7z M372,144.7c-0.5,1.1-0.8,2.3-1.2,3.5c-0.9,3.5-1.4,6.9-1.4,10.2c0,4,0.3,6.9,0.5,8
			c0.2,0.9,0.6,2.5,0.9,3.7c-0.4-2.3-0.7-4.8-0.7-7.3c0-0.4,0-1.7,0.3-4c0.2-1.6,0.3-3.2,0.3-4.6c0-0.3-0.1-0.8-0.1-1.3
			c-0.1-0.6-0.1-1.1-0.1-1.5c0-0.7,0.2-1.8,0.7-3.3c0.5-1.5,0.7-2.5,0.7-3C372,144.9,372,144.8,372,144.7z M367.9,171.3L367,170
			c-1.9-2.7-2.9-6.9-2.9-12.5c0-6.8,2.1-12.2,6.1-16.2l1.9-1.9l-1.3,2.9c-0.4,0.9-0.9,2-1.5,3.5c-1.6,3.7-2.4,6.7-2.4,8.9
			c0,0.5,0,1.3,0.1,2.3l0.1,2.3c0.1,0.9,0.1,1.7,0.1,2.2c0,0.4,0,1.1-0.1,1.8c0,0.6-0.1,1.3-0.1,1.7c0,0.3,0.2,1.2,0.4,2.3
			c0.3,1.3,0.4,2,0.4,2.4V171.3z M368.7,144.6c-2.4,3.5-3.6,7.7-3.6,12.9c0,3.5,0.4,6.4,1.2,8.7c-0.1-0.6-0.2-1-0.2-1.2
			c0-0.4,0-1.1,0.1-1.8c0-0.6,0.1-1.3,0.1-1.7c0-0.5,0-1.2-0.1-2.1l-0.1-2.3c-0.1-1-0.1-1.8-0.1-2.4c0-2.4,0.8-5.5,2.4-9.3
			C368.5,145.2,368.6,144.9,368.7,144.6z"/>
	</g>
	<g>
		<path fill="#42413E" d="M440.7,130.1c1.8-0.4,4.5-1,6.6-1c3.3,0,6.5,0.8,9.7,2.3c3.3,1.5,5.8,3.5,7.8,5.8c1,1.1,3,3.1,3.7,4.4
			c2.5,4.6,3.8,9.3,3.8,14.1c0,4.9-1.5,10.8-4.5,17.6c-1.4,3-2.8,5.1-4.1,6.3c-2,1.8-4.9,3.2-8.8,4.2s-6.7,1.6-8.5,1.6
			s-4.5-0.6-7.9-1.9c-3.4-1.3-6.2-2.6-8.4-3.8c-0.6-0.3-1.2-0.7-1.8-1.3c-1.2-1.2-3-3.3-3.4-3.8c-4.9-5-7.3-11.6-7.3-19.9
			c0-5,1.6-9.7,4.8-14.1c3.3-4.4,7.2-7.3,11.8-8.9C435.6,131.6,439.1,130.5,440.7,130.1z M425.9,141.7c-3.6,4.6-5.4,9.6-5.4,14.8
			c0,3.3,0.7,6.5,2.1,9.7c-0.2-1.4-0.4-3-0.4-4.5C422.2,153.5,423.4,146.8,425.9,141.7z M429.7,176c-1.8-4.1-2.7-8.8-2.7-14
			c0-0.7,0.1-2.1,0.3-3.9s0.3-3.4,0.3-4.7c0-0.6-0.2-2.2-0.2-2.8s0.2-1.7,0.7-3.1c0.5-1.5,0.7-2.6,0.7-3.2c0-2.4,1.3-5.1,3.9-8.1
			c-5.3,4.4-8.1,13.2-8.1,26.4c0,3.7,0.7,6.9,2.2,9.9C427.4,173.8,428.4,175,429.7,176z M451.5,181.5c2.8-0.7,4.5-1.3,5.3-1.8
			c0.6-0.5,1.2-1.5,1.8-3s1.1-2.9,1.4-4c0-0.1,0.2-1.8,0.6-5c0.2-1.6,1-3.8,1-5.3c0-2.3-0.8-5.6-0.8-8.1c0-0.6,0.2-2.2,0.2-2.9
			c0-4.4-1.5-8.6-4.6-12.7c-3-4.1-6.7-6.1-11-6.1s-8,1.9-11.1,5.7c-3,3.8-4.5,8-4.5,12.7c0,0.6,0.2,2.2,0.2,2.9
			c0,2.6-0.8,5.8-0.8,8.1c0,1.6,0.8,3.8,1,5.3c0.4,3.3,0.6,4.9,0.6,5c0.6,2.6,1.4,4.5,2.5,5.5c1.4,1.3,3.4,2.4,5.9,3.4
			c2.6,0.9,4.7,1.4,6.5,1.4C446.7,182.4,448.7,182.1,451.5,181.5z M455.6,134.5c1.5,1.3,2.7,2.6,3.6,3.9c-0.6-1.4-1-2.4-1.5-3.1
			C457.3,134.9,456.5,134.6,455.6,134.5z M461.6,142.9c0.2,0.6,0.3,1.2,0.3,1.9c1,3.7,1.4,5.7,1.4,6.3c0,0.6-0.2,2.2-0.2,2.8
			c0,1.3,0.1,2.9,0.3,4.7s0.3,3.2,0.3,3.9c0,6.1-1.3,11.5-3.8,16c1.7-0.9,3.1-2.5,4.1-4.9c1-2.5,1.6-5.2,1.6-8
			c0-4.4-0.2-8.1-0.8-11.2c-0.5-3.1-1.4-6.6-2.8-10.5L461.6,142.9z M464.7,142.5c-1.5-1.9-2.5-3.1-2.7-3.6c0.7,1.5,2.1,3.5,2.4,4.1
			c2.6,7,3.8,13.8,3.8,20.4c0.7-3,1-5.6,1-7.9c0-3.4-0.5-6.4-1.5-8.7C467.3,145.9,466.3,144.4,464.7,142.5z"/>
		<path fill="#42413E" d="M446.3,186c-1.9,0-4.6-0.7-8.1-1.9c-3.3-1.2-6.1-2.5-8.4-3.8c-0.6-0.3-1.3-0.8-1.9-1.4
			c-1.2-1.2-3.1-3.3-3.5-3.9c-4.9-5-7.4-11.8-7.4-20.2c0-5.1,1.6-10,4.9-14.4c3.3-4.5,7.4-7.5,12.1-9c0.7-0.2,1.8-0.5,3-0.8
			c1.3-0.4,2.7-0.8,3.6-1c1.7-0.4,4.5-1,6.7-1c3.3,0,6.6,0.8,9.9,2.4c3.2,1.5,5.8,3.5,8,6c0.3,0.3,0.6,0.7,1,1.1
			c1,1.1,2.2,2.4,2.8,3.4c2.5,4.7,3.8,9.6,3.8,14.4c0,4.9-1.5,10.9-4.6,17.8c-1.3,2.9-2.8,5.2-4.3,6.5c-2.1,1.8-5.1,3.3-9,4.3
			C451,185.5,448.2,186,446.3,186z M447.4,129.6c-2.2,0-4.9,0.6-6.5,0.9c-0.9,0.2-2.2,0.6-3.5,1c-1.2,0.4-2.4,0.7-3,0.8
			c-4.5,1.5-8.3,4.3-11.5,8.7c-3.1,4.3-4.7,8.9-4.7,13.8c0,8.1,2.4,14.6,7.1,19.5c0.4,0.6,2.2,2.6,3.4,3.8c0.5,0.5,1.1,0.9,1.6,1.2
			c2.3,1.3,5.1,2.5,8.3,3.7c3.4,1.2,6,1.9,7.7,1.9c1.7,0,4.5-0.5,8.4-1.6c3.7-1,6.6-2.4,8.6-4.1c1.4-1.2,2.8-3.3,4-6.1
			c3-6.8,4.5-12.6,4.5-17.4c0-4.6-1.2-9.3-3.7-13.9c-0.5-0.9-1.7-2.2-2.6-3.2c-0.4-0.4-0.7-0.8-1-1.1c-2-2.4-4.6-4.3-7.6-5.7
			C453.7,130.4,450.5,129.6,447.4,129.6z M445.7,182.9c-1.8,0-4-0.4-6.7-1.4c-2.7-1-4.7-2.2-6.1-3.5c-1.2-1.1-2-3-2.6-5.8l0-0.1
			c0,0,0-0.3-0.1-0.6c-0.1-0.8-0.3-2.2-0.5-4.3c-0.1-0.7-0.2-1.4-0.4-2.2c-0.3-1.1-0.5-2.2-0.5-3.2c0-1.2,0.2-2.5,0.4-3.9
			c0.2-1.4,0.4-2.9,0.4-4.2c0-0.3-0.1-0.8-0.1-1.4c-0.1-0.6-0.1-1.1-0.1-1.5c0-4.8,1.6-9.2,4.7-13c3.2-3.9,7.1-5.9,11.5-5.9
			c4.4,0,8.3,2.1,11.4,6.3c3.1,4.1,4.7,8.5,4.7,13c0,0.3-0.1,0.9-0.1,1.5c-0.1,0.5-0.1,1.1-0.1,1.4c0,1.3,0.2,2.8,0.4,4.2
			c0.2,1.4,0.4,2.8,0.4,3.9c0,1-0.3,2.1-0.5,3.2c-0.2,0.8-0.4,1.6-0.4,2.2c-0.3,2.1-0.4,3.5-0.5,4.3c-0.1,0.4-0.1,0.6-0.1,0.7
			c-0.2,1.2-0.7,2.5-1.4,4.2c-0.5,1.1-1.2,2.5-2,3.2c-0.8,0.5-2.4,1.1-5.5,1.9C448.9,182.6,446.8,182.9,445.7,182.9z M431.3,172.1
			c0.5,2.6,1.3,4.3,2.3,5.2c1.3,1.2,3.2,2.3,5.7,3.2c2.6,0.9,4.7,1.3,6.4,1.3c1,0,3-0.3,5.7-0.9c1.8-0.5,4.3-1.1,5.1-1.7
			c0.2-0.2,0.9-0.9,1.7-2.8c0.7-1.6,1.1-2.9,1.3-3.9c0-0.1,0-0.4,0.1-0.7c0.1-0.8,0.3-2.2,0.5-4.3c0.1-0.7,0.3-1.5,0.5-2.3
			c0.2-1,0.5-2.1,0.5-2.9c0-1.1-0.2-2.4-0.4-3.8c-0.2-1.5-0.4-3-0.4-4.3c0-0.3,0.1-0.9,0.1-1.5c0.1-0.5,0.1-1.1,0.1-1.4
			c0-4.3-1.5-8.5-4.5-12.4c-2.9-3.9-6.5-5.9-10.6-5.9c-4.1,0-7.6,1.8-10.7,5.5c-2.9,3.6-4.4,7.8-4.4,12.4c0,0.3,0.1,0.8,0.1,1.4
			c0.1,0.6,0.1,1.1,0.1,1.5c0,1.3-0.2,2.9-0.4,4.3c-0.2,1.4-0.4,2.7-0.4,3.8c0,0.8,0.3,1.9,0.5,2.9c0.2,0.8,0.4,1.6,0.5,2.4
			c0.3,2.1,0.4,3.5,0.5,4.3C431.2,171.8,431.3,172,431.3,172.1z M458.7,179.8l0.8-1.4c2.4-4.5,3.7-9.8,3.7-15.8c0-0.3,0-1.6-0.3-3.8
			c-0.2-1.6-0.3-3.3-0.3-4.8c0-0.3,0.1-0.9,0.1-1.5c0.1-0.5,0.1-1,0.1-1.3c0-0.5-0.5-2.6-1.4-6.2l0-0.1c0-0.7-0.1-1.3-0.3-1.7
			l0.9-0.4l0.6,1c1.4,4,2.4,7.6,2.8,10.6c0.5,3,0.8,6.7,0.8,11.3c0,2.8-0.6,5.6-1.6,8.2c-1,2.5-2.5,4.2-4.4,5.2L458.7,179.8z
			 M463.8,151.4c0,0.3-0.1,0.8-0.1,1.2c-0.1,0.5-0.1,1-0.1,1.3c0,1.5,0.1,3,0.3,4.6c0.2,1.6,0.3,3,0.3,4c0,5.4-1,10.2-2.9,14.5
			c0.9-0.9,1.7-2.1,2.3-3.6c1-2.5,1.6-5.1,1.6-7.8c0-4.5-0.3-8.2-0.8-11.2C464.3,153.5,464.1,152.5,463.8,151.4z M431,177.6
			l-1.6-1.2c-1.4-1-2.4-2.3-3-3.6c-1.5-3-2.2-6.3-2.2-10.1c0-13.3,2.8-22.3,8.2-26.8l0.7,0.7c-2.5,2.8-3.8,5.4-3.8,7.7
			c0,0.7-0.2,1.7-0.7,3.3c-0.5,1.4-0.7,2.4-0.7,3c0,0.3,0.1,0.8,0.1,1.3c0.1,0.6,0.1,1.1,0.1,1.5c0,1.5-0.1,3.1-0.3,4.8
			c-0.3,2.2-0.3,3.5-0.3,3.8c0,5.2,0.9,9.8,2.7,13.8L431,177.6z M428.5,143c-2.2,4.8-3.3,11.4-3.3,19.8c0,3.6,0.7,6.8,2.1,9.7
			c0.3,0.6,0.7,1.2,1.1,1.7c-1.3-3.6-1.9-7.6-1.9-12c0-0.4,0-1.7,0.3-4c0.2-1.6,0.3-3.2,0.3-4.6c0-0.3-0.1-0.8-0.1-1.3
			c-0.1-0.6-0.1-1.1-0.1-1.5c0-0.7,0.2-1.8,0.7-3.3c0.5-1.5,0.7-2.5,0.7-3C428.4,143.9,428.4,143.4,428.5,143z M423.7,170.3
			l-1.6-3.9c-1.4-3.3-2.1-6.6-2.1-9.9c0-5.3,1.9-10.4,5.5-15.1l2.9-3.8l-2.1,4.3c-2.5,5.1-3.7,11.7-3.7,19.8c0,1.4,0.1,2.9,0.4,4.5
			L423.7,170.3z M423.7,145.9c-1.8,3.4-2.7,6.9-2.7,10.6c0,1.8,0.2,3.7,0.7,5.5c0-0.1,0-0.2,0-0.3
			C421.7,155.6,422.3,150.4,423.7,145.9z M467.7,167.7v-4.2c0-6.5-1.3-13.3-3.8-20.3c-0.1-0.2-0.3-0.6-0.7-1.1c-0.5-0.9-1.3-2-1.7-3
			l0.9-0.4c0.2,0.4,1.1,1.5,2.4,3.1l0.3,0.4c1.8,2.1,2.7,3.5,3.1,4.5c1,2.3,1.5,5.3,1.5,8.9c0,2.5-0.4,5.2-1.1,8L467.7,167.7z
			 M465.2,144c1.8,5.2,2.9,10.2,3.3,15.1c0.2-1.2,0.2-2.4,0.2-3.5c0-3.5-0.5-6.3-1.5-8.5C467,146.4,466.3,145.4,465.2,144z
			 M458.8,138.7c-0.8-1.3-2-2.5-3.5-3.8l-1.4-1.2l1.8,0.3c1.2,0.2,1.9,0.5,2.3,0.9c0.5,0.8,1,1.7,1.6,3.3L458.8,138.7z"/>
	</g>
	<g>
		<path fill="#42413E" d="M489.4,143.8c0.1,0.6,0.1,1.4,0.1,2.5c0,1.5-0.2,3.8-0.4,6.9c-0.2,3.1-0.3,5.4-0.3,6.9c0,0.6,0,1.5,0.1,3
			c0.2,2.9,0.6,8,0.6,11.8c0.1,3.3,1.5,5.6,3.4,6.3c2,0.7,2.7,0.8,3.8,0.8h0.1c0.4,0,0.6,0.3,0.6,1c0,0.4-0.2,0.6-0.6,0.7
			c-1.4,0-3.4,0-6.1-0.1c-2.6-0.1-4.5-0.2-5.3-0.2c-1,0-3.7,0.5-5.3,0.5c-0.6,0-1-0.6-1-1.8c5.7-0.2,7.3-3.8,7.3-10.2
			c0-0.8,0-2-0.1-3.7c-0.1-1.7-0.1-2.9-0.1-3.8c0-1-0.5-3.4-0.5-4.3c0.5-8.8,0.7-13.2,0.7-13.2v-0.8c0-3.5,0-4.9-0.6-8.1
			c-0.6-3.3-2.3-4.9-4.9-4.9c-0.3,0-1.7,0.4-2,0.4c-1,0-1.6-0.6-1.6-1.6c0-1.4,1.4-2,4.2-2c4.1,0,6.6,0.5,7.5,1.4
			c0.9,0.9,4,4.5,9.2,10.9c0.6,0.6,1.6,1.8,3.1,3.7l3.7,4.2c0.9,1,2.1,2.4,3.6,4.2l3.9,4.4c1,1.1,2.2,2.5,3.5,4
			c2.8,3,4.3,4.5,6.1,6.3c2.8,2.5,4.1,3.3,4.1,1.8c0-0.7-0.2-2-0.6-3.8c-0.4-1.8-0.6-3.3-0.6-4.2c0-1.4,0.1-3.4,0.2-6.2
			s0.2-4.9,0.2-6.2c0-0.7-0.1-1.8-0.2-3.2c-0.1-1.5-0.2-2.6-0.2-3.4c0-1.2,0.1-3.5,0.1-4.2c0-4.4-1.2-6.2-6.1-6.6
			c-1.1-0.1-1.7-0.6-1.7-1.4c0-0.5,0.5-0.7,1.4-0.8c2.2,0.2,4.7,0.2,7.5,0.2c0.9,0,3.4,0.1,4.4,0.1s3.8-0.3,4.9-0.3
			c0.9,0,1,1.7-0.5,2.1c-1.8,0.4-5.7-0.2-5.7,5.4c0,3-0.2,7.3-0.6,12.6c-0.4,5.3-0.6,9.3-0.6,11.8c0,1.4,0.9,4.2,0.9,6.1
			c0,1.6,0,3.8,0.1,6.7c0.1,2.9,0.1,5,0.1,6.5c0,2-0.6,3-1.6,3s-1.3-2.1-2.2-3.4c-1.8-2.5-5.3-5.7-10.3-9.8c-5-4.1-9.1-6.9-12-8.3
			c-1.5-0.7-3.9-3-7-6.8c-3.1-3.8-4.9-6.5-5.3-8.2L489.4,143.8z M519.7,169.6c-2.7-3.1-7.8-8.8-15.4-16.9c-7.6-8.1-12.8-14-16-17.8
			c0.6,1.2,1.9,3.3,3.9,6.4c2.1,3.1,3.4,4.9,3.9,5.6c6.3,7.6,13,14.3,20.1,20.1C516.5,167.2,517.6,168.1,519.7,169.6z M488.9,140.3
			c0.2,1.7,0.7,3.3,1.4,4.7c0.8,1.4,2,3,3.5,5c1.5,2,2.7,3.5,3.4,4.7c1.2,1.8,4.2,4.5,6.5,6.2l5,3.7l4.8,3.4
			c-5.7-4.7-12-11.2-19.2-19.6c-0.6-0.6-1.4-2.2-2.6-4.5c-1.2-2.3-2.2-3.9-3-4.8L488.9,140.3z M518.5,171.8c2.2,1.8,3.8,4,5.2,6.5
			c0.1,0.2,0.6,0.6,1.3,1.1l-0.2-1.4c-0.6-1.4-1.3-2.6-2.3-3.4L518.5,171.8z"/>
		<path fill="#42413E" d="M527.6,185.5c-1,0-1.4-1-1.8-2c-0.2-0.6-0.5-1.1-0.8-1.6c-1.8-2.4-5.2-5.7-10.2-9.7c-5-4.1-9-6.9-11.9-8.2
			c-1.7-0.8-4.2-3.2-7.2-6.9c-3.4-4.1-5-6.7-5.4-8.4l-0.2-0.9c-0.1,1.4-0.2,3.2-0.4,5.6c-0.3,3.4-0.3,5.6-0.3,6.9
			c0,0.6,0,1.5,0.1,2.9c0.3,3.1,0.6,8.2,0.6,11.8c0.1,2.9,1.3,5.2,3.1,5.8c1.9,0.7,2.6,0.8,3.6,0.8c0.5,0,1.1,0.2,1.1,1.5
			c0,0.6-0.4,1.1-1,1.2c-1.4,0-3.5,0-6.2-0.1c-1,0-1.8-0.1-2.6-0.1c-1.3,0-2.2-0.1-2.7-0.1c-0.4,0-1.1,0.1-1.9,0.2
			c-1.1,0.1-2.4,0.3-3.4,0.3c-0.7,0-1.5-0.4-1.5-2.3v-0.5l0.5,0c4.9-0.2,6.8-2.8,6.8-9.7c0-0.8,0-2-0.1-3.6
			c-0.1-1.7-0.1-2.9-0.1-3.8c0-0.4-0.1-1.3-0.2-2.1c-0.1-0.9-0.2-1.7-0.2-2.2c0.4-7.9,0.7-13.1,0.7-13.3v-0.8c0-3.5,0-4.9-0.6-8
			c-0.6-3-2.1-4.5-4.5-4.5c-0.1,0-0.6,0.1-0.9,0.2c-0.6,0.1-0.9,0.2-1.1,0.2c-1.3,0-2.1-0.8-2.1-2.1c0-1.7,1.6-2.5,4.7-2.5
			c4.2,0,6.9,0.5,7.9,1.5c1,1,4.4,5.1,9.2,11c0.5,0.5,1.3,1.4,2.5,2.9l0.6,0.8l3.7,4.2c0.9,1,2.2,2.5,3.6,4.2l3.9,4.4
			c0.6,0.6,1.2,1.3,1.8,2.1c0.5,0.6,1.1,1.2,1.7,1.9c2.8,2.9,4.3,4.5,6.1,6.3c2.2,1.9,3,2.4,3.3,2.4c0,0,0-0.1,0-0.2
			c0-0.4-0.1-1.5-0.5-3.7c-0.4-1.7-0.6-3.2-0.6-4.3c0-1.4,0.1-3.5,0.2-6.3c0.2-2.8,0.2-4.9,0.2-6.2c0-0.7-0.1-1.7-0.2-3.1l-0.1-1.2
			c-0.1-0.9-0.1-1.7-0.1-2.2c0-0.7,0-1.7,0-2.6c0-0.7,0-1.3,0-1.6c0-4.4-1.3-5.8-5.6-6.1c-1.9-0.1-2.1-1.3-2.1-1.9
			c0-0.8,0.6-1.2,1.8-1.3c2.3,0.2,4.8,0.2,7.5,0.2c0.4,0,1.2,0,2,0c0.9,0,1.8,0,2.3,0c0.5,0,1.5-0.1,2.4-0.2c1-0.1,1.9-0.2,2.5-0.2
			c0.6,0,1.1,0.4,1.1,1.1c0.1,0.7-0.3,1.7-1.5,2c-0.3,0.1-0.7,0.1-1,0.2c-1.9,0.2-4.3,0.5-4.3,4.8c0,3.4-0.2,7.7-0.6,12.6
			c-0.4,4.8-0.6,9-0.6,11.8c0,0.6,0.2,1.5,0.4,2.5c0.2,1.2,0.5,2.5,0.5,3.6c0,1.6,0,3.8,0.1,6.7c0.1,2.9,0.1,5,0.1,6.6
			C529.7,184.9,528.6,185.5,527.6,185.5z M524.4,179.6c0.5,0.6,1,1.1,1.4,1.7c0.4,0.6,0.7,1.2,0.9,1.8c0.3,0.7,0.6,1.4,0.9,1.4
			c0.7,0,1.1-0.8,1.1-2.5c0-1.5,0-3.7-0.1-6.5c-0.1-2.9-0.1-5.1-0.1-6.7c0-0.9-0.3-2.2-0.5-3.4c-0.2-1-0.4-2-0.4-2.7
			c0-2.8,0.2-7,0.6-11.8c0.4-4.9,0.6-9.2,0.6-12.6c0-5.2,3.3-5.6,5.2-5.8c0.3,0,0.7-0.1,0.9-0.1c0.6-0.2,0.8-0.6,0.7-0.9
			c0,0,0-0.2-0.2-0.2c-0.5,0-1.5,0.1-2.4,0.2c-1,0.1-1.9,0.2-2.5,0.2c-0.5,0-1.5,0-2.4,0c-0.8,0-1.6,0-2,0c-2.8,0-5.3-0.1-7.5-0.2
			c-0.5,0.1-0.8,0.2-0.8,0.3c0,0.2,0,0.8,1.2,0.9c4.9,0.4,6.5,2.2,6.5,7.1c0,0.3,0,0.9,0,1.6c0,0.9,0,1.9,0,2.6c0,0.5,0,1.2,0.1,2.2
			l0.1,1.2c0.2,1.5,0.2,2.5,0.2,3.2c0,1.4-0.1,3.5-0.2,6.3c-0.2,2.8-0.2,4.9-0.2,6.2c0,1,0.2,2.5,0.5,4.1c0.4,1.7,0.6,3.1,0.6,3.9
			c0,1.1-0.7,1.2-1,1.2c-0.7,0-1.8-0.7-4-2.7c-1.8-1.8-3.4-3.4-6.2-6.3c-0.6-0.7-1.2-1.3-1.7-1.9c-0.6-0.8-1.2-1.4-1.8-2.1l-3.9-4.4
			c-1.4-1.7-2.7-3.3-3.6-4.2l-4.3-5c-1.2-1.4-2-2.4-2.4-2.9c-5.6-6.9-8.4-10.2-9.2-10.9c-0.4-0.4-1.8-1.2-7.1-1.2
			c-2.5,0-3.7,0.5-3.7,1.5c0,0.8,0.3,1.1,1.1,1.1c0.1,0,0.6-0.1,0.9-0.2c0.6-0.1,0.9-0.2,1.1-0.2c2,0,4.6,0.9,5.4,5.4
			c0.6,3.2,0.6,4.7,0.6,8.2v0.8c0,0.1-0.1,2.4-0.7,13.3c0,0.4,0.1,1.3,0.2,2.1c0.1,0.9,0.2,1.7,0.2,2.2c0,0.9,0,2.1,0.1,3.7
			c0.1,1.7,0.1,2.9,0.1,3.7c0,5.3-0.9,10.2-7.2,10.7c0.1,0.5,0.2,0.8,0.4,0.8c0.9,0,2.2-0.2,3.3-0.3c0.9-0.1,1.6-0.2,2.1-0.2
			c0.6,0,1.5,0,2.8,0.1c0.7,0,1.6,0.1,2.6,0.1c2.7,0.1,4.7,0.1,6,0.1c0.1,0,0.1-0.1,0.1-0.2c0-0.4-0.1-0.5-0.1-0.5
			c-1.2,0-2-0.1-4-0.8c-2.2-0.8-3.7-3.4-3.8-6.8c-0.1-3.6-0.4-8.7-0.6-11.8c-0.1-1.5-0.1-2.4-0.1-3c0-1.3,0.1-3.5,0.3-7
			c0.3-3.3,0.4-5.4,0.4-6.9c0-1.1,0-1.9-0.1-2.4l0.4-0.1c-0.4-1.1-0.7-2.2-0.9-3.4l-0.4-2.7l1,1c0.8,0.8,1.8,2.3,3.1,4.9
			c1.2,2.3,2,3.8,2.5,4.4c7.3,8.5,13.6,14.9,19.2,19.6l-0.6,0.8l-4.8-3.4l-5-3.7c-2.3-1.7-5.3-4.5-6.6-6.4c-0.6-1-1.5-2.2-2.7-3.7
			l-0.7-1c-1.2-1.6-2.1-2.9-2.8-4l0.5,1.9c0.4,1.5,2,4.1,5.3,8c2.9,3.6,5.3,5.9,6.8,6.6c3,1.4,7.1,4.2,12.2,8.4
			c3.2,2.6,5.7,4.9,7.7,6.8c-1.3-2.3-2.9-4.3-4.9-6l0.6-0.8l3.9,2.9c1.1,0.8,1.9,2,2.5,3.6l0.5,2.7L524.4,179.6z M522.5,175.4
			c0.6,0.8,1.2,1.7,1.7,2.7c0,0,0.1,0.1,0.1,0.1l0-0.1C523.8,177,523.2,176.1,522.5,175.4z M489.5,140.9c0.3,1.4,0.7,2.7,1.3,3.9
			c0.7,1.2,1.8,2.8,3.5,4.9l0.7,1c1.2,1.5,2.1,2.8,2.7,3.8c1.1,1.7,4,4.4,6.3,6.1l2.9,2.1c-4-3.9-8.3-8.5-13-14
			c-0.6-0.7-1.4-2.2-2.6-4.6C490.6,142.7,490.1,141.7,489.5,140.9z M523,172.6l-3.6-2.6c-1.8-1.3-3.2-2.4-3.5-2.7
			c-7.1-5.8-13.8-12.6-20.1-20.1c-0.5-0.6-1.8-2.4-3.9-5.6l-0.6-0.9c-1.7-2.7-2.8-4.4-3.3-5.5l-1.6-3.5l2.5,3
			c3.3,4,8.8,10.1,15.9,17.8c9.2,9.9,13.8,15.1,15.4,16.9L523,172.6z M491.9,139.8c0.1,0.1,0.1,0.2,0.2,0.3l0.6,0.9
			c2.1,3.2,3.3,4.9,3.9,5.5c6,7.2,12.4,13.7,19.2,19.3c-2.6-2.8-6.4-7-11.8-12.8C499.1,147.8,495,143.4,491.9,139.8z"/>
	</g>
	<g>
		<path fill="#42413E" d="M570.3,132.6c0.9,1.4,1.3,3.8,1.3,7.4c0,1-0.4,1.4-1.3,1.4c-1.3,0.4-0.6-3.8-5.9-7.9
			c-1.2-0.9-3-1.4-5.2-1.4c-6.1,0-7.8,2.2-7.8,7.5c0,3.2,1,6.6,3.2,10.4s4.5,6.5,6.9,8.2c1.5,1.2,2.7,2.1,3.4,2.7
			c0.8,0.6,1.7,1.6,2.7,2.8c2.2,2.3,3,5,3,8.5c0,3.6-1.4,6.5-4.1,8.9c-2.7,2.3-6.2,3.5-10.5,3.5c-5.7,0-9.6-0.9-11.8-2.6
			c-2.2-1.8-3.4-5.2-3.4-10.2c0-0.9,0.3-1.3,1-1.3c1.9-0.1,3,11.2,12,11.1c3.1,0,5.7-0.3,7.7-1c0-3.9-1.4-9.3-3.4-11.9
			c-0.8-1-2.1-2.7-3.9-4.9l-4.1-5.3c-1.8-2.6-4.5-6.9-5.8-10.7c-0.5-1.4-0.7-2.6-0.7-3.6c0-4.1,1.3-7.5,3.9-10.3
			c2.6-2.8,6-4.2,9.9-4.2c2.8,0,5.1,0.1,7,0.2C567.4,130.4,569.4,131.3,570.3,132.6z M555.6,155.5c-4.1-5.5-6.2-10.7-6.2-15.6
			c0-1.3,0.1-2.4,0.3-3.4c-1.8,2.2-2.7,4.7-2.7,7.5c0,1.1,0.6,2.7,2,4.9s2.7,3.8,4,4.9C553.4,154.1,554.3,154.7,555.6,155.5z
			 M557.9,162.2c4.2,4.2,7,7.7,8.4,10.6c0-3.3-2.2-6.9-4.9-9.4c-2.8-2.5-5.3-4.1-6.9-4.9C554.7,158.8,555.8,160.1,557.9,162.2z
			 M560.7,168.6c0.5,1,1.1,2.6,1.8,4.9c0.8,2.3,1.3,4.3,1.4,6c0.7-0.6,1-1.3,1-2.2c0-2.2-1.7-5.5-4.9-9.9L560.7,168.6z"/>
		<path fill="#42413E" d="M556,185.3c-5.8,0-9.8-0.9-12.1-2.7c-2.4-2-3.5-5.4-3.5-10.6c0-1.5,0.8-1.8,1.5-1.8c0,0,0,0,0,0
			c0.9,0,1.5,1.2,2.3,2.9c1.5,3.3,3.8,8.2,9.6,8.2c3,0,5.4-0.3,7.3-0.8c-0.1-3.9-1.5-8.9-3.3-11.2l-0.2-0.3c-0.8-1-2-2.6-3.7-4.7
			l-4.1-5.3c-2-2.7-4.6-7-5.9-10.8c-0.5-1.4-0.7-2.7-0.7-3.8c0-4.2,1.4-7.8,4-10.6c2.7-2.9,6.2-4.4,10.3-4.4c2.8,0,5.1,0.1,7.1,0.2
			c3.2,0.2,5.4,1.2,6.4,2.7c0.9,1.4,1.4,3.9,1.4,7.7c0,1.6-1,1.9-1.7,1.9c-0.1,0-0.2,0-0.2,0c-0.7,0-1-0.7-1.4-1.7
			c-0.6-1.5-1.5-3.9-4.7-6.4c-1.1-0.8-2.8-1.3-4.9-1.3c-5.5,0-7.3,1.7-7.3,7c0,3.2,1,6.5,3.1,10.1c2.1,3.6,4.3,6.3,6.7,8.1
			c0.6,0.4,1.1,0.8,1.5,1.2c0.8,0.6,1.5,1.1,1.9,1.6c0.8,0.6,1.7,1.6,2.8,2.8c2.1,2.3,3.1,5,3.1,8.9c0,3.7-1.4,6.8-4.2,9.3
			C564,184.1,560.3,185.3,556,185.3z M541.8,171.2c-0.3,0-0.6,0-0.6,0.8c0,4.9,1,8.1,3.2,9.8c2.1,1.7,6,2.5,11.5,2.5
			c4.1,0,7.6-1.1,10.2-3.4c2.6-2.3,3.9-5.1,3.9-8.6c0-3.6-0.9-6.1-2.8-8.2c-1-1.2-1.9-2.1-2.7-2.7c-0.5-0.4-1.1-0.9-1.9-1.5
			c-0.5-0.4-1-0.7-1.5-1.2c-2.5-1.8-4.9-4.6-7-8.4c-2.2-3.8-3.3-7.3-3.3-10.6c0-5.8,2.3-8,8.3-8c2.3,0,4.2,0.5,5.5,1.5
			c3.4,2.6,4.4,5.2,5,6.8c0.2,0.4,0.4,1,0.5,1l0.1,0c0.5,0,0.8-0.1,0.8-0.9c0-3.6-0.4-5.9-1.2-7.1c-0.8-1.2-2.7-2-5.6-2.2
			c-1.9-0.2-4.2-0.2-7-0.2c-3.8,0-7,1.4-9.5,4.1c-2.5,2.7-3.8,5.9-3.8,9.9c0,1,0.2,2.1,0.7,3.4c1.3,3.7,3.9,8,5.8,10.6l4.1,5.3
			c1.7,2,2.9,3.6,3.7,4.7l0.2,0.3c2,2.6,3.5,8,3.5,12.2v0.4l-0.3,0.1c-2,0.7-4.7,1-7.8,1c-6.5,0-9.1-5.5-10.6-8.8
			C542.8,172.6,542.2,171.2,541.8,171.2z M563.4,180.5l0-1c-0.1-1.6-0.5-3.5-1.3-5.8c-0.7-2.2-1.3-3.9-1.8-4.9l-0.7-1.1l0.8-0.6
			c3.4,4.6,5,7.9,5,10.2c0,1.1-0.4,1.9-1.2,2.5L563.4,180.5z M562.7,172.5c0.1,0.3,0.2,0.6,0.3,0.9c0.6,1.9,1.1,3.5,1.3,4.9
			c0.1-0.3,0.2-0.6,0.2-0.9C564.4,176.2,563.8,174.6,562.7,172.5z M566.8,175.1l-1-2.1c-1.3-2.8-3.9-6.1-8.3-10.5
			c-1.6-1.6-2.7-2.8-3.2-3.3c-0.2-0.2-0.3-0.3-0.3-0.4l-1.8-1.8l2.4,1c1.8,0.8,4.4,2.6,7.1,5c3.1,2.8,5.1,6.6,5.1,9.8V175.1z
			 M557.1,160.7c0.3,0.4,0.7,0.7,1.2,1.2c3.2,3.2,5.5,5.9,7,8.2c-0.7-2.2-2.3-4.5-4.3-6.3C559.7,162.6,558.4,161.6,557.1,160.7z
			 M557.6,157.3l-2.3-1.4c-1.2-0.8-2.2-1.4-2.7-1.8c-1.5-1.4-2.8-3.1-4.1-5.1c-1.4-2.2-2.1-3.9-2.1-5.1c0-2.9,0.9-5.5,2.8-7.8
			l1.4-1.6l-0.5,2.1c-0.2,0.9-0.3,1.9-0.3,3.3c0,4.9,2,9.9,6.1,15.3L557.6,157.3z M548.9,138.4c-1,1.7-1.4,3.5-1.4,5.5
			c0,1,0.6,2.6,1.9,4.6c1.2,1.9,2.5,3.5,3.9,4.8c0.1,0.1,0.2,0.2,0.4,0.3c-3.2-4.8-4.8-9.4-4.8-13.8
			C548.8,139.3,548.8,138.8,548.9,138.4z"/>
	</g>
</g>
</svg>
