<?xml version="1.0" encoding="utf-8"?>
<!-- Generator: Adobe Illustrator 18.0.0, SVG Export Plug-In . SVG Version: 6.00 Build 0)  -->
<!DOCTYPE svg PUBLIC "-//W3C//DTD SVG 1.1//EN" "http://www.w3.org/Graphics/SVG/1.1/DTD/svg11.dtd">
<svg version="1.1" id="Layer_1" xmlns="http://www.w3.org/2000/svg" xmlns:xlink="http://www.w3.org/1999/xlink" x="0px" y="0px"
	 viewBox="0 0 300 300" enable-background="new 0 0 300 300" xml:space="preserve">
<rect fill="#EDEBEB" width="300" height="300"/>
<polygon opacity="0.2" fill="#FFFFFF" points="0,300 300,0 300,300 "/>
<g>
	<g>
		<path fill="#A04C46" d="M172.8,176C172.8,176,172.8,176,172.8,176c-0.8-1-1.1-2.8-1.1-2.8c0,0,0,0,0,0c-0.2-1.2-0.6-2.1-1-2.6
			c0,0-0.1-0.2-0.3-0.4c0,0,0-0.1-0.1-0.1c0,0,0-0.1-0.1-0.1c0-0.1-0.1-0.1-0.1-0.1c0,0,0,0,0,0c0,0,0,0,0,0
			c-0.2-0.2-0.5-0.5-0.9-0.8c0,0,0,0,0,0s-1.1-1-1.8-1.9c-0.1-0.2-0.2-0.3-0.3-0.5c-0.5-0.9-1-2.4-1.5-3.8l-0.9-2.9
			c-0.6-2.9-2-5.5-2-5.5c-3,0.4-5,2.5-5.7,3.4c0,0-0.9,1.2-0.6,2.7c0.4,1,1.2,2.4,2.8,3.8c0.1,0.1,0.3,0.3,0.5,0.4c0,0,0,0,0,0
			c0,0,0,0,0.1,0c0.1,0.1,0.2,0.2,0.3,0.2c0,0,0.1,0.1,0.1,0.1c0.8,0.6,2.4,1.9,3.4,2.8c2.1,2,3.9,6.2,4.2,7.5l0.6,0.1c0,0,0,0,0,0
			c0,0,0,0,0,0c0,0,0,0,0,0c0,0,0,0,0,0c0-0.1,0-0.3,0-0.5l0,0c0,0,0-0.1,0-0.1c0,0,0,0,0,0c0-0.3,0-0.6-0.1-0.9c0,0,0,0,0-0.1
			c0,0,0,0,0-0.1c0,0,0,0,0-0.1c-0.1-0.6-0.3-1-0.3-1s1,0.8,0.9,3c1.5,1.3,3.5,1.2,3.5,1.2l0,0c0.6,0,1.2-0.1,1.2-0.1l0-0.3
			C173.3,176.4,173,176.2,172.8,176C172.9,176.1,172.8,176,172.8,176z"/>
		<path fill="#A04C46" d="M131.9,179.1c0-0.2-0.1-0.3-0.1-0.5c-0.1-0.7,0-1.7,0.1-2.2c0-0.1,0-0.2,0-0.3c0,0,0,0,0,0c0,0,0,0,0,0
			c0.3-1.9-0.3-3.2-0.8-3.8l0,0c0,0,0,0,0,0c0,0-0.1-0.1-0.1-0.1c0,0,0,0,0,0l-0.4-0.5l-0.4-0.6c-0.3-0.6-0.5-1.1-0.5-1.3
			c-0.1-0.2-0.1-0.4-0.1-0.6c0,0,0-0.1-0.1-0.3c-0.2-1-0.3-1.9-0.4-2.7c0-0.2,0-0.4,0-0.6c0-0.4,0.1-0.8,0.2-1.1l0,0c0,0,0,0,0-0.1
			c0-0.2,0.1-0.3,0.1-0.5c0,0,0,0,0,0c1.1-4.5-0.1-6.7-0.1-6.7l0,0c-0.5-0.3-0.9-0.5-0.9-0.5s-0.8,4.8-6,7.2c0,0,0.1,3.1,2.8,6.2
			l0,0c0.1,0.1,0.2,0.2,0.3,0.3c0.3,0.3,0.6,0.7,0.8,1.1c0.3,0.4,0.5,0.9,0.7,1.5c0,0.1,0,0.1,0.1,0.2l0,0c0,0,0,0.1,0.1,0.2
			c0,0,0,0,0,0l0,0c0,0,0,0.1,0,0.1c0,0.1,0,0.1,0,0.2c0,0.1,0,0.2,0.1,0.2c0,0,0,0.1,0,0.1c0,0,0,0,0,0l-0.2-0.6
			c0.1,0.4,0.6,2.2,0.6,3.5l0.6,0.5c0,0,0-0.1,0-0.1c0,0,0.4-2.2,0.1-3.2c0,0,0.9,1.1,0.3,4c0,0,0.5,0.8,1.6,1.5
			c0.1,0.1,0.3,0.1,0.4,0.2c0,0,0,0,0,0c0,0,0.1,0,0.1,0.1l0,0c0,0,0,0,0,0c0,0,0,0,0.1,0c0,0,0,0,0.1,0c0.1,0,0.2,0.1,0.3,0.1
			c0,0,0,0,0,0l0,0v0c0,0,0,0,0.1,0c0.5,0.1,0.8,0.1,1,0.1l0-0.4C132.2,179.9,132,179.5,131.9,179.1z"/>
		<path fill="#A04C46" d="M195.8,139.6c-0.8-0.5-2-0.3-2-0.3c0.1,0.4,0.7,1.2,0.7,1.2c0.5,0.5,0.9,0.4,1,0.3c0.2,0,0.5-0.4,0.5-0.4
			c0.2-0.2,0.2-0.4,0.1-0.6C196,139.8,195.8,139.6,195.8,139.6z"/>
		<path fill="#A04C46" d="M189.1,137.2c0.6,0.8,1.7,1,1.7,1c0-0.5-0.2-1.4-0.2-1.4c-0.2-0.6-0.7-0.7-0.8-0.7c0,0-0.1,0-0.1,0
			c-0.3,0-0.5,0.2-0.5,0.2c-0.2,0.2-0.3,0.3-0.3,0.5c0,0,0,0.2,0,0.2C189,137,189.1,137.2,189.1,137.2z"/>
		<path fill="#A04C46" d="M186.7,139.2c0.8,0.5,2,0.3,2,0.3c-0.1-0.5-0.7-1.2-0.7-1.2c-0.5-0.5-0.8-0.4-1-0.4
			c-0.3,0.1-0.5,0.4-0.5,0.4c-0.2,0.2-0.2,0.4-0.1,0.6C186.5,139,186.7,139.2,186.7,139.2z"/>
		<path fill="#A04C46" d="M188.9,142.2c0,0-0.2,0.2-0.2,0.5l0,0c0,0-0.1,0.6,0.6,0.8c0,0,0,0,0.1,0c0,0,0.1,0,0.2,0c0,0,0.1,0,0.1,0
			l0,0c0,0,0,0,0.1,0c0.2,0,0.5-0.2,0.6-0.5c0.2-1-0.6-1.9-0.6-1.9C189.4,141.4,188.9,142.2,188.9,142.2z"/>
		<path fill="#A04C46" d="M191.6,135.9C191.6,135.9,191.6,135.9,191.6,135.9C191.6,135.9,191.6,135.9,191.6,135.9c0,0.1,0,0.1,0,0.2
			l0,0c0.2,0.9,1.1,1.5,1.1,1.5c0.2-0.4,0.5-1.3,0.5-1.3c0.1-0.7-0.3-0.9-0.4-1c-0.3-0.1-0.6-0.1-0.6-0.1c-0.1,0-0.2,0-0.3,0.1l0,0
			c0,0,0,0-0.1,0.1c0,0,0,0-0.1,0c0,0,0,0,0,0C191.6,135.4,191.5,135.6,191.6,135.9z"/>
		<path fill="#A04C46" d="M191.6,140.4c0,0-0.3,1,0.1,1.7c0,0,0,0.1,0.1,0.1c0,0,0,0,0,0.1l0,0c0.2,0.2,0.4,0.3,0.5,0.3
			c0,0,0.3,0,0.6-0.1c0.4-0.4,0.2-1,0.2-1C192.7,140.7,191.6,140.4,191.6,140.4z"/>
		<path fill="#A04C46" d="M193.2,138.1c-0.1-0.1-0.2-0.1-0.3-0.1l-4,1.9c-2.1,0.9-4.1,1.4-5.7,1.7c-1.2,0.3-3.2,0.4-3.2,0.4
			c0,0-0.9,0-1.2,0c-0.8,0-2.1-0.1-2.1-0.1c-0.6-0.1-1.1-0.2-1.4-0.3c-0.1,0-0.1,0-0.2,0c-1.2-0.5-1.5-1.1-1.5-1.1
			c0.5,0.2,1.2,0.3,1.8,0.3c0,0,0,0,0,0c0,0,0.1,0,0.1,0c1.4,0.2,2.8,0.2,3.1,0.2c1.2,0,2.5-0.2,3.3-0.8c0,0,0,0,0.1,0
			c0.1-0.1,0.3-0.2,0.5-0.6c0,0,0,0,0,0c0,0,0,0,0-0.1l0,0c0.2-0.3,0.4-0.5,0.5-0.7c0.2-0.2,0.6-0.4,1-0.3c0.1,0,0.2,0,0.3,0
			c0,0,0,0,0,0c0.2,0.1,0.5,0.1,0.8-0.2v0c0,0,0,0,0,0c0,0,0,0,0,0c0.3-0.2,0.5-0.8,0.7-1.4c0,0,0,0,0,0c0,0,0-0.1,0-0.1
			c0-0.3,0.1-0.5,0.1-0.8c0.1-1.5,0-2.7-0.1-3.4c0,0,0,0,0,0c0,0,0,0,0,0l0,0c0-0.2-0.1-0.4-0.1-0.5c0-0.2-0.1-0.3-0.1-0.3
			c0,0,0,0,0,0c-0.1-0.1-0.1-0.3-0.2-0.4l0,0c0,0,0,0,0,0c0,0,0,0,0,0c-0.3-0.6-0.7-0.7-1.1-0.7l0,0c0,0-0.1,0-0.4,0c0,0,0,0,0,0
			c0,0,0,0-0.1,0c-0.1,0-0.1,0-0.1,0.1c0,0,0,0,0,0c0,0,0,0,0,0l0,0l0,0c0,0,0,0-0.1,0c0,0-0.1,0-0.1,0.1c-0.1,0.1-0.3,0.2-0.4,0.4
			c0,0,0,0,0,0c0,0-0.4,0.4-0.7,0.6c0,0,0,0-0.1,0c0,0,0,0,0,0c-0.4,0.2-0.8,0.3-1,0.3c-1.1,0.1-3.1,0.2-5.4-0.5
			c0,0-0.8-0.2-2.4-0.9c0,0-4.3-1.7-6.6-1.2c0,0-1.5,0.3-3.2,0.4c0,0,0,0-0.1,0c0,0,0,0-0.1,0c-0.2,0-0.5,0-0.7,0l0,0
			c-0.6,0-1.2-0.2-1.8-0.3c-0.8-0.3-1.8-0.9-1.8-0.9l0,0c-0.9-0.5-2.2-1-4.2-1.2c0,0,0,0,0,0c-1-0.1-1.5-0.3-1.8-0.4
			c-0.2-0.1-0.5-0.2-0.8-0.4c-0.3-0.2-0.5-0.2-0.6-0.1l0,0c0,0,0,0,0,0c0,0,0,0,0,0c0,0,0,0.1-0.1,0.1c0,0,0,0,0,0c0,0,0,0,0,0
			c0,0,0,0,0,0c0,0,0,0,0,0c-0.1,0.2-0.1,0.5-0.1,1l0,0c0,0,0,4.1,2.7,5.9c0,0,0,0,0.1,0.1c0,0,0,0,0,0l0,0c0.6,0.4,1.4,0.7,2.4,0.8
			l0,0c-1,0.8-4.2,2.3-12.9,1.5c-0.8-0.1-1.6-0.2-2.3-0.3c-3.9-0.6-8.8-1.8-8.8-1.8c0,0,0,0,0,0c-4.3-1.2-7.6-0.9-9.9-0.1
			c0,0,0,0,0,0c0,0-2.7,0.8-4.7,2.9l0,0c0,0,0,0,0,0c0,0,0,0-0.1,0.1c-0.3,0.4-0.7,0.7-1,1c-0.1,0.1-0.1,0.1-0.2,0.2
			c-0.1,0.1-0.1,0.1-0.2,0.2c-0.2,0.2-0.4,0.3-0.6,0.5l0,0c-0.3,0.2-0.5,0.3-0.8,0.5c0-0.6,0-1,0-1c-0.1-0.7-0.3-1.2-0.6-1.5l0,0
			c0,0,0,0-0.1-0.1c-0.2-0.2-0.3-0.4-0.4-0.5c0,0,0,0,0,0c0,0-0.1-0.1-0.1-0.1c-1.2-0.9-2.4-0.5-2.4-0.5l0,0c-0.4,0.1-1,0.3-1.4,0.9
			c-0.1,0.1-0.2,0.3-0.2,0.4c0,0,0,0,0,0l0,0c-0.1,0.2-0.2,0.4-0.2,0.4l0,0c-0.1,0.2-0.1,0.5-0.1,0.8c0,0,0,0,0,0c0,0,0,0,0,0
			c0,0.1,0,0.6,0.4,1.3c0,0,0,0.1,0.1,0.1c0.1,0.1,0.1,0.2,0.2,0.3c0,0,0.1,0.1,0.1,0.1c0.1,0.1,0.2,0.2,0.3,0.3
			c0.1,0.1,0.2,0.2,0.3,0.2c0,0,0,0,0,0c0,0,0,0,0.1,0.1c0,0,0,0,0,0l0,0c0.3,0.2,1,0.6,2.1,0.7c-0.4,0.6-1.8,1.3-3.5,1.4l0,0.3
			c2.8,0.4,4.1-0.8,4.7-1.4c0,0,0,0,0.1-0.1c0,0,0,0,0,0c0.1-0.1,0.2-0.2,0.2-0.3c0.1,0,0.3-0.1,0.4-0.1c0,0,0,0,0,0
			c0.2-0.1,0.3-0.2,0.3-0.2s-0.4,0.9-0.8,2.3c0,0,0,0.1,0,0.1c-0.2,0.6-0.3,1.3-0.3,2c0,0,0,0,0,0l0,0c0,0.1,0,0.1,0,0.2
			c-0.2,1.9,0.1,4.2,1.3,6.5c0,0,0,0,0,0c0,0,1.1,1.9,1.1,3.6c0,0.1,0,0.3,0,0.4c-0.1,0.4-0.4,1-1,1.6l-0.2,0.2
			c-0.9,0.8-1.3,1.5-1.4,1.8c-0.1,0.1-0.1,0.3-0.1,0.4c-0.1,0.2-0.2,1.1,0,2.6c0,0.1,0,0.2,0.1,0.4c0,0,0,0,0,0l0,0
			c0.2,1,0.3,2.8-0.2,5c0,0,0,0,0,0c-0.1,0.3-0.8,2.5-0.8,2.5l0,0c-0.7,1.7-1.6,2.9-1.6,2.9c0.2,0.8,0.3,0.9,0.3,0.9
			s1.4-1.4,1.7-2.3c0,0,0.1,1.7-1.6,2.9c0,0,0,0,0,0.1c0,0,0,0,0,0c-0.1,0.3-0.4,1.2-0.3,2.6c0,0.3,0,0.5,0.1,0.7
			c0.1,0.4,0.2,0.9,0.4,1.4l0.4,0c0,0-0.1-2,2.2-2.8l0,0c1.7-0.5,2.2-2.3,2.4-3.3l0,0c0,0,0,0,0,0c0-0.2,0-0.3,0.1-0.4c0,0,0,0,0,0
			c0,0,0-0.1,0-0.1c0.1-0.4,0.1-0.8,0.2-1c0-0.1,0.1-0.2,0.1-0.3c0.1-0.1,0.1-0.3,0.2-0.4c0.2-0.3,0.4-0.8,0.7-1.1l0.6-0.9
			c0-0.1,0.1-0.1,0.1-0.2l0-0.1c0,0,0,0,0,0c1.6-2.6,1.1-5.3,1.1-5.3s2.9-1.5,4.4-2.9c0,0,0,0,0.1-0.1c0.2-0.2,0.3-0.3,0.5-0.5
			c0,0,0,0,0,0c0.2-0.2,0.3-0.3,0.5-0.5c0,0,0,0,0.1-0.1c0,0,0,0,0,0l0,0c1.1-1.3,2-2.8,2.3-4.7c0-0.2,0-0.3,0.1-0.5
			c0-0.6-0.1-1.2-0.3-2c0,0,1.4,1.5,1.4,3c2.2,1.2,7.6,3.4,17.1,1.3c0,0-0.2-2.3,2.3-3.6c0,0-0.6,0.8-1,2c0,0.1-0.1,0.3-0.1,0.4
			c0,0,0,0,0,0c-0.1,0.4-0.1,0.7-0.2,1.1c0,0.2,0,0.4,0,0.6c0,0,0,0,0,0.1c0.1,0.6,0.2,1.2,0.5,1.9l0,0c0.1,0.2,0.1,0.3,0.2,0.5
			c0,0,0,0,0,0l0.1,0.1c0.1,0.2,0.1,0.4,0.2,0.6l0.6,1.6l0,0c0,0,0.2,0.7,0.2,1.3c0,0.7-0.3,1.5-1.1,2.2l0,0
			c-0.1,0.1-0.2,0.2-0.3,0.3c-0.3,0.3-0.7,0.7-1,1.1c0,0-0.1,0.1-0.1,0.1c0,0,0,0,0,0c-1.8,2.2-2.3,4.1-2.3,4.1l0.4,0.6
			c0,0,0.9-2,2.1-2.3c0,0-1.1,1-1.6,3c-0.2,0.6-0.4,2.1,0,3.9l0.1,0c0,0,0,0,0,0l0.5,0c0.2-0.9,1-1.9,1.7-2.6c0.4-0.3,1-0.7,1-0.7
			l0,0c1.8-1.2,2.3-2.7,2.3-2.7c0,0,0,0,0,0c0.1-0.1,0.1-0.3,0.2-0.4l0,0l0,0c0-0.1,0.1-0.2,0.1-0.3l0.3-1c0.1-0.3,0.3-0.9,0.5-1.4
			c0.1-0.2,0.2-0.5,0.4-0.7c0,0,0,0,0,0c0.3-0.5,0.6-1.1,1.1-1.6c0,0,0,0,0,0c0-0.1,0.1-0.1,0.1-0.2c0.3-0.4,0.8-1,0.8-1
			c0,0,0,0,0,0c0.9-1.1,0.9-2.2,0.9-2.2c-0.1-1.1,0.1-2.3,0.1-2.3c0.2-1.2,0.9-2.9,2.6-4.1c0,0,0.7-0.6,1.7-1.1
			c0.3-0.2,1.1-0.5,2-0.8c0.2,0,0.4-0.1,0.6-0.1c0,0,0,0,0,0l0,0c4.3-0.9,7-2.8,8.3-4.1l0,0c0,0,0,0,0,0c0.2-0.1,0.3-0.3,0.4-0.4
			c0,0,0,0,0,0l0,0c0,0,0,0,0,0c1.3-1.2,2.7-2.3,3.7-3c0.2-0.1,1.4-0.9,2.9-1.5c0.1,0,0.2-0.1,0.3-0.1c0,0,0.1,0,0.3-0.1
			c0,0,0,0,0,0l0,0c0.4-0.2,1.2-0.5,1.6-1c0.6,0,1.6-0.1,3.2-0.4l0.2,0c0,0,0,0,0,0l0.2,0c2.2-0.4,4.3-1.1,6.4-2.1c0,0,0,0,0,0
			c0.7-0.3,3.3-1.6,3.4-1.7c0.1,0,0.1-0.1,0.1-0.1c0-0.1,0-0.1,0-0.2L193.2,138.1z M114.3,140c-1,0.2-1.7-0.3-2.1-0.6c0,0,0,0,0,0
			c-0.1-0.1-0.2-0.2-0.2-0.2c0,0,0,0,0,0l0,0h0c-0.1-0.1-0.2-0.2-0.2-0.4c0-0.1-0.1-0.1-0.1-0.2c0-0.1,0-0.1-0.1-0.2
			c-0.1-0.4,0-0.7,0.1-0.9c0.1-0.1,0.3-0.3,0.6-0.4c0,0,0.1,0,0.1,0c0,0,0.1,0,0.1,0c0.2,0,0.4,0.1,0.6,0.2c0,0,0.5,0.2,0.8,0.8
			c0.1,0.2,0.3,0.6,0.4,1.2C114.3,139.5,114.3,139.7,114.3,140z"/>
		<path fill="#A04C46" d="M195.7,136c-0.1,0-0.1,0-0.2,0c0,0,0,0,0,0c0,0,0,0,0,0c0,0,0,0,0,0c0,0,0,0,0,0c-0.1,0-0.8,0-1.3,1.3
			c-0.1,0.2-0.1,0.3-0.1,0.4c0,0,0,0,0,0l0,0c0,0.1,0,0.1,0,0.1c0.1,0,0.2,0,0.4,0c1.1,0,1.5-0.4,1.7-0.7c0,0,0,0,0,0
			c0.1-0.2,0.1-0.3,0.1-0.3C196.3,136.4,196,136.1,195.7,136z"/>
	</g>
	<g>
		<path fill="#A04C46" d="M249.6,197.7c-0.5-0.2-1-0.4-1.6-0.6l0,0c0,0,0,0,0,0c-0.7-0.3-1.6-0.5-2.5-0.8c0,0,0,0,0,0
			c-0.3-0.1-0.5-0.2-0.8-0.3c0,0,0,0,0,0c-1.3-0.4-2.7-0.9-4.3-1.4c0,0,0,0,0,0c-0.1,0-0.2-0.1-0.3-0.1l0,0c0,0-0.1,0-0.1,0
			c-8.7-2.8-22.5-7.1-32.1-9.5l0,0c-34.2-9-54.3-4.5-54.3-4.5l0,0c-8.7,1.4-13,3.8-14,4.5c0,0-10.1-4-32.6-1.9
			c-4.8,0.4-9.4,1-13.8,1.8c-0.4,0.1-0.9,0.1-1.3,0.2c0,0,0,0,0,0c-0.4,0.1-0.7,0.1-1.1,0.2l-0.2,0.1c-1.1,0.2-2.2,0.4-3.3,0.6
			c0,0,0,0,0,0c-0.9,0.2-1.9,0.4-2.8,0.6c-10.8,2.3-23.3,5.7-37.6,10.8c-1.2,0.4-1.9,1.5-1.9,2.7c0,1.6,1.3,2.9,2.9,2.9l62.6,0
			l4.2,0l4.1,0l4.2,0l125.7-0.1c1.5,0,2.7-1.2,2.7-2.7C251.3,199.1,250.6,198.1,249.6,197.7z M157.6,185.1c0,0,5.8-3.4,10.1-3.4
			c0,0-2.6,0.1-7.8,4.3l0,0c-1.8,1.4-3.6,3.1-5,4.8c-1.1-0.5-2.1-1-3.1-1.5c0.5-0.4,1.1-0.9,1.7-1.4
			C154.5,187.1,155.9,186.1,157.6,185.1C157.6,185.1,157.6,185.1,157.6,185.1C157.6,185.1,157.6,185.1,157.6,185.1z M156.3,182.6
			c-4.5,2-7.4,4.1-8.6,5.1c-0.9-0.4-1.9-0.7-2.7-1C148.1,184.5,153.4,183.1,156.3,182.6z M63.8,199.1c-0.2-1.1-1.1-3.5-1.5-4.4
			c0.2,0,3,1.9,3.8,4.4L63.8,199.1z M59,199.1c0-0.9-0.3-2.4-0.6-3.3c0.3,0.2,1.7,1.4,2.7,3.3L59,199.1z M55.2,199.1
			c-0.2-1.1-0.1-1.6-0.4-2.5c0.3,0.2,1.3,1,2.1,2.5L55.2,199.1z M69,199.1c-0.6-2.4-1.4-4-2.2-5.4c0.9,0.4,4,2.3,4.8,5.4L69,199.1z
			 M74.2,199.1c-0.3-1.6-1.3-4.5-2.6-6.4c0.6,0.2,4.5,2.7,5.3,6.4L74.2,199.1z M82.4,199.1l-2.7,0c-0.4-2.1-1.2-4.9-2.9-7.4
			C76.7,191.7,81,193.8,82.4,199.1z M85.4,199.1c-1.4-4.4-1.9-4.4-4.2-8.7c0,0,5.3,3.1,7.1,8.7L85.4,199.1z M91.5,199.1
			c-0.7-2.7-2.6-6-5.4-9.7c4.4,1.8,7.1,5.9,8.7,9.7L91.5,199.1z M98.2,199.1c-0.9-2.7-3.4-6.7-6.8-10.6c3.5,1.6,7.4,3.7,10.7,10.6
			L98.2,199.1z M105.5,199.1c-1-2.9-5.3-8.6-9.4-11.9c4.4,0.9,10.5,5.2,13.6,11.9L105.5,199.1z M113.6,199.1
			c-1.2-3.2-5.6-9.6-10.7-12.9c3.1,1,10.7,3.7,14.9,12.9L113.6,199.1z M121.9,199.1c-1.3-3.6-5.5-10.1-13.3-13.9
			c2.8,0.7,13.6,3,17.6,13.9L121.9,199.1z M129.8,199.1c-2.8-7.5-11.3-13.6-13-14.3c0,0,11.9,2.1,17.7,14.3L129.8,199.1z M141.6,199
			l-3.3,0c0,0-4.5-10.3-11.9-13.1c0,0,11.2,0.9,16.5,13.1L141.6,199z M147,199c0,0-2.7-7-10.7-12c0,0,11.9,3.5,15.4,12L147,199z
			 M155.9,199c-3.7-5.1-6.2-7-7.6-7.8c2.4,0.8,10.5,5.2,13.3,7.8L155.9,199z M161.6,194.6c-0.9-0.6-1.8-1.1-2.7-1.6
			c0.2-0.3,0.5-0.7,0.7-1l0,0c0,0,0.3-0.4,0.8-1c1.3-1.5,2.6-2.7,3.9-3.6c2.7-2.1,7.1-4.4,12.2-5.5c0,0-2.6,0.6-6.2,3.1
			c-0.2,0.1-0.3,0.2-0.5,0.4c-0.3,0.2-0.5,0.4-0.8,0.6c-4.7,3.7-7,7.7-7.4,8.5C161.6,194.5,161.6,194.6,161.6,194.6z M167.8,199
			c-0.8-0.7-1.6-1.3-2.5-1.9c0,0,0.3-0.6,1-1.6c2.2-3.5,8.3-11.3,18.3-12.5c-11.7,5.6-15.4,16-15.4,16L167.8,199z M173.8,199
			c5.8-11.4,12.3-13.8,18.5-15c-8.5,3.1-13.3,11.7-14.6,15L173.8,199z M182.3,199c3.1-7.8,10.6-12.1,16.1-13.2
			c-7.4,4.5-10.9,10.6-11.8,13.2H182.3z M190.7,199c2.9-5.9,8.3-10.8,13.7-11.7c-5.4,3.4-8.8,9.6-9.5,11.7L190.7,199z M202.7,199.1
			h-3.9c2.3-5,6.3-9.1,11.6-10.2c-4.8,3.3-7,8-7.6,10C202.8,199,202.7,199.1,202.7,199.1z M206.1,199L206.1,199
			C206.1,199,206.1,199,206.1,199C206.1,199,206.1,199,206.1,199z M209.8,198.3c0,0.2-0.1,0.4-0.1,0.6c0,0.1,0,0.2,0,0.2h-3.6
			c1.9-4.2,4.3-6.5,6-7.7c0.7-0.5,1.5-0.9,2.4-1.2c0,0-3.5,3.2-4.6,7.7C209.9,198,209.9,198.1,209.8,198.3z M212.8,199
			c2.4-7.2,6.8-7.8,6.8-7.8c-3.3,3.5-3.5,6.3-3.9,7.8L212.8,199z M221.6,199l-2.8,0c1.6-5.1,5.5-6.8,5.5-6.8
			C222.8,194.6,222.1,196.8,221.6,199z M227,199l-2.2,0c1.5-4.8,4-5.5,4-5.5S227.2,196.6,227,199z M232.2,198.9
			C232.2,198.9,232.2,199,232.2,198.9l-1.9,0.1c0.6-3.5,2.7-4.6,2.7-4.6S232.2,196.9,232.2,198.9z M234.7,199
			c0.3-2.6,1.8-3.7,1.8-3.7s-0.2,2.1,0.1,3.7L234.7,199z M238.9,199c0.1-2.1,1.3-3,1.3-3s-0.2,1.6,0.4,3L238.9,199z"/>
	</g>
	<g>
		<path fill="#A04C46" d="M61,217.7l-0.4,1.1H59l2.6-6h1.6l2.5,6h-1.6l-0.4-1.1H61z M62.3,214.3l-0.9,2.2h1.7L62.3,214.3z"/>
		<path fill="#A04C46" d="M69.9,217.1L69.9,217.1h-1.2v1.7h-1.5v-6h2.7c1.6,0,2.5,0.8,2.5,2.1c0,0.9-0.4,1.6-1.1,1.9l1.3,2h-1.7
			L69.9,217.1z M69.9,215.9c0.7,0,1.1-0.3,1.1-1c0-0.6-0.4-0.9-1.1-0.9h-1.2v1.9H69.9z"/>
		<path fill="#A04C46" d="M77.2,214v4.8h-1.5V214h-1.8v-1.2H79v1.2H77.2z"/>
		<path fill="#A04C46" d="M80.6,218.8v-6h1.5v6H80.6z"/>
		<path fill="#A04C46" d="M89,213.4l-0.6,1.2c-0.6-0.4-1.4-0.6-1.9-0.6c-0.4,0-0.7,0.1-0.7,0.4c0,1,3.2,0.4,3.2,2.6
			c0,1.2-1.1,1.8-2.4,1.8c-1,0-2-0.4-2.8-1l0.6-1.2c0.6,0.5,1.6,0.9,2.2,0.9c0.5,0,0.8-0.2,0.8-0.5c0-1.1-3.2-0.4-3.2-2.6
			c0-1.1,1-1.8,2.4-1.8C87.5,212.7,88.4,213,89,213.4z"/>
		<path fill="#A04C46" d="M92.2,217.7l-0.4,1.1h-1.6l2.6-6h1.6l2.5,6h-1.6l-0.4-1.1H92.2z M93.5,214.3l-0.9,2.2h1.7L93.5,214.3z"/>
		<path fill="#A04C46" d="M102.6,218.8l-2.8-3.7v3.7h-1.4v-6h1.4l2.8,3.7v-3.7h1.4v6H102.6z"/>
		<path fill="#A04C46" d="M110.7,212.8c1.9,0,3.2,1.2,3.2,3c0,1.8-1.3,3-3.3,3h-2.5v-6H110.7z M109.7,217.6h1.1
			c0.9,0,1.6-0.7,1.6-1.8c0-1.1-0.7-1.8-1.7-1.8h-1V217.6z"/>
		<path fill="#A04C46" d="M116.9,214v1.2h2.9v1.2h-2.9v1.2h3.3v1.2h-4.8v-6h4.7v1.2H116.9z"/>
		<path fill="#A04C46" d="M126.2,217.5v1.3h-4.1v-6h1.5v4.8H126.2z"/>
		<path fill="#A04C46" d="M127.9,218.8v-6h1.5v6H127.9z"/>
		<path fill="#A04C46" d="M138.2,218.3c-0.5,0.4-1.1,0.6-1.7,0.6c-1.2,0-2.1-0.7-2.1-1.8c0-0.8,0.6-1.3,1.2-1.6
			c-0.4-0.5-0.5-0.9-0.5-1.4c0-0.9,0.7-1.5,1.7-1.5c1,0,1.7,0.6,1.7,1.4c0,0.8-0.7,1.3-1.4,1.7c0.3,0.3,0.6,0.6,1,1
			c0.2-0.3,0.3-0.6,0.4-1l0.9,0.7c-0.1,0.4-0.3,0.8-0.6,1.1l0.9,0.9l-0.8,0.7L138.2,218.3z M137.4,217.5c-0.5-0.5-0.9-0.9-1.2-1.3
			c-0.3,0.2-0.6,0.5-0.6,0.8c0,0.5,0.4,0.8,0.9,0.8C136.8,217.8,137.1,217.7,137.4,217.5z M136.6,215c0.5-0.3,0.8-0.5,0.8-0.9
			c0-0.3-0.2-0.5-0.5-0.5c-0.4,0-0.6,0.3-0.6,0.6C136.3,214.4,136.4,214.7,136.6,215z"/>
		<path fill="#A04C46" d="M149.6,213.7l-0.9,1.1c-0.4-0.5-1-0.8-1.5-0.8c-1,0-1.7,0.8-1.7,1.8c0,1,0.7,1.8,1.7,1.8
			c0.5,0,1.1-0.3,1.5-0.7l0.9,0.9c-0.6,0.7-1.6,1.1-2.5,1.1c-1.8,0-3.2-1.3-3.2-3.1c0-1.7,1.4-3.1,3.2-3.1
			C148.1,212.7,149,213.1,149.6,213.7z"/>
		<path fill="#A04C46" d="M154,217.1L154,217.1h-1.2v1.7h-1.5v-6h2.7c1.6,0,2.5,0.8,2.5,2.1c0,0.9-0.4,1.6-1.1,1.9l1.3,2h-1.7
			L154,217.1z M154,215.9c0.7,0,1.1-0.3,1.1-1c0-0.6-0.4-0.9-1.1-0.9h-1.2v1.9H154z"/>
		<path fill="#A04C46" d="M159.8,217.7l-0.4,1.1h-1.6l2.6-6h1.6l2.5,6h-1.6l-0.4-1.1H159.8z M161.2,214.3l-0.9,2.2h1.7L161.2,214.3z
			"/>
		<path fill="#A04C46" d="M167.6,214v1.4h2.7v1.2h-2.7v2.2h-1.5v-6h4.5v1.2H167.6z"/>
		<path fill="#A04C46" d="M175.3,214v4.8h-1.5V214h-1.8v-1.2h5.2v1.2H175.3z"/>
		<path fill="#A04C46" d="M183.8,212.8c1.4,0,2.2,0.6,2.2,1.5c0,0.6-0.4,1.1-1,1.3c0.8,0.1,1.2,0.7,1.2,1.5c0,1-0.9,1.7-2.3,1.7h-3
			v-6H183.8z M182.5,215.2h1.2c0.4,0,0.7-0.2,0.7-0.6s-0.3-0.6-0.7-0.6h-1.2V215.2z M182.5,217.6h1.2c0.6,0,0.9-0.3,0.9-0.7
			c0-0.4-0.4-0.7-0.9-0.7h-1.2V217.6z"/>
		<path fill="#A04C46" d="M193.5,216.3c0,1.6-1.1,2.6-2.8,2.6c-1.7,0-2.8-1-2.8-2.6v-3.5h1.5v3.5c0,0.8,0.5,1.3,1.3,1.3
			c0.7,0,1.2-0.5,1.2-1.3v-3.5h1.5V216.3z"/>
		<path fill="#A04C46" d="M198.4,214v4.8h-1.5V214H195v-1.2h5.2v1.2H198.4z"/>
		<path fill="#A04C46" d="M206.8,213.7l-0.9,1.1c-0.4-0.5-1-0.8-1.5-0.8c-1,0-1.7,0.8-1.7,1.8c0,1,0.7,1.8,1.7,1.8
			c0.5,0,1.1-0.3,1.5-0.7l0.9,0.9c-0.6,0.7-1.6,1.1-2.5,1.1c-1.8,0-3.2-1.3-3.2-3.1c0-1.7,1.4-3.1,3.2-3.1
			C205.2,212.7,206.2,213.1,206.8,213.7z"/>
		<path fill="#A04C46" d="M212.5,218.8v-2.3h-2.5v2.3h-1.5v-6h1.5v2.5h2.5v-2.5h1.5v6H212.5z"/>
		<path fill="#A04C46" d="M217.3,214v1.2h2.9v1.2h-2.9v1.2h3.3v1.2h-4.8v-6h4.7v1.2H217.3z"/>
		<path fill="#A04C46" d="M225,217.1L225,217.1h-1.2v1.7h-1.5v-6h2.7c1.6,0,2.5,0.8,2.5,2.1c0,0.9-0.4,1.6-1.1,1.9l1.3,2h-1.7
			L225,217.1z M224.9,215.9c0.7,0,1.1-0.3,1.1-1c0-0.6-0.4-0.9-1.1-0.9h-1.2v1.9H224.9z"/>
		<path fill="#A04C46" d="M234.1,213.4l-0.6,1.2c-0.6-0.4-1.4-0.6-1.9-0.6c-0.4,0-0.7,0.1-0.7,0.4c0,1,3.2,0.4,3.2,2.6
			c0,1.2-1.1,1.8-2.4,1.8c-1,0-2-0.4-2.8-1l0.6-1.2c0.6,0.5,1.6,0.9,2.2,0.9c0.5,0,0.8-0.2,0.8-0.5c0-1.1-3.2-0.4-3.2-2.6
			c0-1.1,1-1.8,2.4-1.8C232.6,212.7,233.5,213,234.1,213.4z"/>
	</g>
	<g>
		<path fill="#A04C46" d="M138.5,78.5c0-0.3-0.2-0.6-0.6-0.6h-0.4c-0.3,0-0.4,0-0.4,0c0,0,0,0,0-0.2c0-0.2,0-0.6,0.1-1.1l0-0.5
			c0-0.3,0-0.6,0.1-0.8c0-0.4,0.1-0.7,0.1-0.7c0,0,0-0.1,0-0.2c0-0.1,0-0.2,0-0.2c0-0.2,0-0.4,0.1-0.7c0-0.4,0.1-0.7,0.1-0.9
			c0-0.4,0-0.8-0.1-1.4c-0.1-0.7-0.1-1.1-0.1-1.3c0-0.1,0-0.2,0.3-0.2c0.1,0,0.2,0,0.3,0c0.2,0,0.4,0,0.6,0c1.2,0,1.3,0.4,1.3,0.8
			c0,0.2,0.1,0.7,0.7,0.7c0.4,0,0.6-0.3,0.6-0.9c0-0.2,0-0.4,0.1-0.8l0-0.1c0-0.3,0.1-0.5,0.1-0.5c0-0.8-0.4-0.9-0.6-0.9
			c-0.1,0-0.2,0.1-0.3,0.1c-0.1,0.1-0.3,0.2-0.7,0.2c0,0-0.1,0-0.1,0c-0.1,0-0.2,0-0.3,0c-0.5,0-1.2,0-2.1,0c-0.9,0-1.6,0-2.1,0
			c-0.1,0-0.3,0-0.5,0c-0.2,0-0.4,0-0.5,0c0,0-0.2,0-0.3,0c-0.2,0-0.4,0-0.5,0c-0.5,0-0.6-0.1-0.6-0.1c0-0.3-0.3-0.4-0.5-0.4
			c-0.3,0-0.5,0.2-0.6,0.4l-0.1,0.4c-0.1,0.2-0.2,0.6-0.2,0.9c0,0.2-0.1,0.3-0.1,0.4c-0.1,0.1-0.1,0.3-0.1,0.4
			c0,0.3,0.2,0.6,0.6,0.6l0.1,0c0.3,0,0.4-0.3,0.6-0.6c0.1-0.3,0.3-0.7,0.6-0.7h0c0.2,0,0.5,0,0.9-0.1c0.4-0.1,0.6-0.1,0.7-0.1
			c0.2,0,0.4,0,0.4,1.1l0,1c0,0.2,0,0.4,0,0.5c0,0.1,0,0.2-0.1,0.6c-0.1,0.4-0.2,0.7-0.2,1c0,0.2,0,0.5,0.1,0.9
			c0,0.3,0.1,0.6,0.1,0.8c0,0.2,0.1,0.6,0.2,1.2c0.2,0.7,0.2,1,0.2,1.1c0,0,0,0.1,0,0.1c-0.1,0-0.1,0-0.2,0c-0.2,0-0.4,0.1-0.6,0.2
			c-0.1,0-0.1,0.1-0.2,0.1c-0.4,0-0.6,0.3-0.6,0.6c0,0.3,0.2,0.6,0.8,0.6c0.3,0,0.9,0,1.6,0l0.6,0c0.5,0,0.8,0,1.1,0
			C138.4,79.1,138.5,78.8,138.5,78.5z"/>
		<path fill="#A04C46" d="M143,69.4c0.3,0.1,0.4,0.2,0.4,0.4c0,0.2,0,0.7-0.1,1.4c-0.1,0.6-0.1,1.1-0.1,1.4c0,0.2,0,0.5,0.1,0.9
			c0,0.3,0.1,0.6,0.1,0.7c0,0.1,0,0.1,0,0.2c0,0.1,0,0.2,0,0.2c0,0,0,0.2,0.1,0.7c0,0.3,0.1,0.5,0.1,0.8l0,0.5
			c0,0.5,0.1,0.9,0.1,1.1c0,0.1,0,0.1,0,0.1l0,0c-0.6,0-0.7,0.5-0.7,0.7c0,0.1,0.1,0.5,0.6,0.6l0,0l0,0c0.2,0,0.6,0,1,0
			c0.2,0,0.6,0,1,0c0.5,0,0.8,0,1,0c0.5,0,0.8-0.3,0.8-0.6c0-0.4-0.5-0.5-1-0.6c-0.2,0-0.3-0.1-0.3-0.1c0-0.3-0.1-0.7-0.2-1.3l0-0.3
			c-0.1-0.5-0.1-0.8-0.1-0.9c0-0.2,0-0.5,0-0.8l0-0.3c0.1,0,0.4,0,0.7,0.1l0.1,0c0.5,0,0.8,0.1,1,0.1c0.1,0,0.4,0,0.8,0l0.4,0
			c0.7-0.1,1.1-0.1,1.2-0.1c0.3,0,0.8,0,1.1,0l0,0.3c0,0.3,0.1,0.5,0.1,0.7c0,0.2,0,0.5,0.2,1.2c0.1,0.7,0.2,1,0.2,1.2
			c0,0.2,0,0.3-0.6,0.3c0,0-0.1,0-0.2,0c-0.1,0-0.1,0-0.2,0c-0.7,0-0.7,0.5-0.7,0.5c0,0.4,0.3,0.6,0.7,0.6h0c0.1,0,0.4,0,1,0h1.4
			c0.2,0,0.4,0,0.6,0l0.2,0c0.2,0,0.7,0,0.7-0.6c0-0.3-0.2-0.4-0.6-0.5c-0.3,0-0.4-0.1-0.4-0.3c0-0.2,0-0.6,0.1-1.1l0-0.5
			c0-0.3,0-0.6,0.1-0.8c0-0.4,0.1-0.7,0.1-0.7c0-0.2,0-0.6,0.1-1c0-0.5,0.1-0.8,0.1-1c0-0.4,0-0.9-0.1-1.4c-0.1-0.6-0.1-1-0.1-1.3
			c0-0.3,0.1-0.3,0.4-0.4c0.1,0,0.4-0.2,0.4-0.5c0-0.2-0.1-0.7-1-0.7c-0.1,0-0.4,0-0.6,0c-0.1,0-0.2,0-0.3,0l-1,0c-0.5,0-0.8,0-1,0
			c-0.4,0-0.7,0.3-0.7,0.6l0,0.1l0.1,0.2c0.1,0.2,0.4,0.3,0.9,0.3c0.1,0,0.3,0,0.5,0.1c0.1,0.1,0.2,0.3,0.2,1l0,0.9
			c0,0.3,0,0.5,0,0.5c0,0.2-0.1,0.4-0.2,0.7c0,0.1-0.1,0.2-0.1,0.2c-0.1,0-0.2,0-0.3,0c-0.2,0-0.3,0-0.4,0c-0.3,0-0.8,0-1.6,0.1
			c-0.8,0-1.3,0.1-1.8,0.1c0,0-0.2,0-0.4,0l-0.1,0c-0.3,0-0.5,0-0.6,0l0.1-0.4c0-0.1,0-0.2,0-0.4l0-0.2c0-0.3,0-0.6,0-0.7
			c0,0,0-0.1-0.2-0.7c-0.1-0.4-0.1-0.7-0.1-0.9c0-0.3,0.1-0.3,0.1-0.3c0.1,0,0.2,0,0.3,0c0.1,0,0.2,0,0.3,0c0.5,0,0.7-0.3,0.7-0.6
			c0-0.5-0.2-0.6-3.4-0.6c-0.3,0-1.1,0-1.1,0.6C142.5,69.2,142.8,69.3,143,69.4z"/>
		<path fill="#A04C46" d="M155.4,78.5c0,0.3,0.2,0.6,0.7,0.6c0.1,0,0.2,0,0.3,0c0.1,0,0.2,0,0.3,0c0.6,0,1.6,0,2.8,0.1
			c1.1,0,2.1,0.1,3,0.1c0.9,0,1.4-0.2,1.6-0.7c0,0,0-0.1,0.1-0.2c0.1-0.1,0.1-0.3,0.2-0.4c0.2-0.4,0.3-0.7,0.3-0.9
			c0-0.6-0.4-0.8-0.7-0.8c-0.3,0-0.7,0.2-0.7,0.8c0,0.5-0.3,0.9-2.2,0.9c-0.1,0-0.3,0-0.6,0c-0.2,0-0.4,0-0.6,0
			c-1,0-1.2-1.6-1.2-2.5c0-0.5,0.1-0.9,0.2-1.3c0.2,0,0.4,0,0.8,0c0.7,0,1,0.1,1.2,0.2c0.1,0.1,0.3,0.2,0.6,0.9l0.1,0.3l0.3,0
			c0.4-0.1,0.6-0.3,0.6-0.7c0-0.1,0-0.2-0.1-0.5c0-0.2-0.1-0.3-0.1-0.5c0-0.2,0-0.5,0-0.8c0-0.4,0-0.7,0-0.9c0-0.4-0.3-0.7-0.7-0.7
			c-0.4,0-0.7,0.3-0.7,0.7c0,0.7-0.2,0.7-0.6,0.7c-0.8,0-1.3,0-1.6,0c-0.1-0.6-0.2-1.2-0.2-2c0-0.5,0-0.9,0.1-1.1
			c0.3,0,0.7,0,1.4,0.1c0.7,0,1.2,0.1,1.6,0.1c0.1,0.1,0.3,0.5,0.4,0.7c0.2,0.4,0.3,0.8,0.7,0.8c0,0,0,0,0,0c0.4,0,0.7-0.3,0.7-0.7
			c0-0.2-0.1-0.5-0.2-0.7c-0.1-0.2-0.1-0.4-0.1-0.5c0-0.5-0.4-0.9-0.9-0.9c-0.3,0-0.8,0-1.3,0c-0.6,0-1-0.1-1.3-0.1
			c-0.2,0-0.4,0-0.8,0.1c-0.3,0-0.5,0.1-0.6,0.1l-1,0c-0.4,0-0.7,0-0.8,0c-0.4,0-1.2,0-1.2,0.6c0,0.4,0.4,0.6,0.8,0.6
			c0.1,0.3,0.1,0.6,0.1,0.9c0,0.1,0,0.4-0.1,1c0,0.5-0.1,0.8-0.1,1.1c0,0.2,0,0.5,0.1,0.9c0,0.3,0.1,0.6,0.1,0.7c0,0.1,0,0.1,0,0.2
			c0,0.1,0,0.2,0,0.2c0,0,0,0.2,0.1,0.7c0,0.3,0.1,0.5,0.1,0.8l0,0.5c0,0.5,0.1,0.9,0.1,1.1c0,0-0.2,0.1-0.3,0.1
			C156,77.8,155.4,78,155.4,78.5z"/>
	</g>
	<g>
		<path fill="#A04C46" d="M36,107.9c-1.1-0.6-2.3-1-3.5-1c-1.2,0-2.3,0.1-3.3,0.5c-0.3,0.1-0.8,0.3-1.4,0.7
			c-0.4,0.2-0.9,0.4-1.3,0.6c-0.4,0.1-1,0.3-1.5,0.4c-0.8,0.1-1.4,0.3-1.8,0.4c-0.7,0.2-1.2,0.5-1.5,0.8c-0.5,0.5-0.6,1.1-0.4,1.7
			c0.3,0.8,1.1,1.2,1.9,0.9c0.1,0,0.1,0,0.2-0.1c0.2,0.4,0.4,0.8,0.6,1.3c0.1,0.3,0.3,0.8,0.5,2c0.2,0.9,0.4,1.7,0.6,2.2
			c0.1,0.4,0.4,0.9,0.8,1.6c0.2,0.5,0.5,1,0.6,1.3c0,0.1,0.1,0.3,0.1,0.5c0.1,0.2,0.1,0.3,0.1,0.4c0,0.1,0.2,0.6,0.6,1.3
			c0.2,0.5,0.5,1,0.7,1.6l0.4,1c0.5,1,0.8,1.7,0.9,2.1c0,0.1,0,0.1,0,0.1c-0.1,0-0.2,0.1-0.3,0.1c-1.2,0.5-1.2,1.2-1,1.6
			c0.2,0.5,0.7,0.8,1.3,0.8c0.2,0,0.3,0,0.5-0.1l0.1,0c0.5-0.2,1.1-0.4,2-0.8c0.9-0.3,1.6-0.6,2-0.8c0.2-0.1,0.6-0.2,1-0.3
			c0.4-0.1,0.8-0.3,1-0.3l0.2-0.1c1.1-0.7,0.9-1.4,0.8-1.7c-0.1-0.3-0.4-0.7-1.3-0.7c-0.3,0-0.8,0.1-1.3,0.2
			c-0.3,0.1-0.6,0.1-0.8,0.1c-0.3-1-0.6-2.6-0.8-3.3l0.1-0.1l-0.2-0.5c-0.2-0.5-0.5-1.3-1-2.1l-0.2-0.4c0.2-0.1,0.5-0.1,0.7-0.2
			c1.7-0.6,4.2-2.2,5.7-4.9c0.8-1.3,0.9-2.6,0.5-3.8C38,109.5,37.2,108.6,36,107.9z M29.3,129.1C29.3,129.1,29.3,129.1,29.3,129.1
			l0-0.2c0,0,0,0,0,0V129.1z M33.7,115.6c0,0.1-0.1,0.5-1,0.8c-0.5,0.2-1,0.3-1.6,0.5c-0.3,0.1-0.6,0.1-0.8,0.2c0,0,0-0.1,0-0.1
			c-0.2-0.6-0.5-1.4-0.7-1.9c0-0.1-0.2-0.8-0.5-2.2l-0.1-0.6c-0.1-0.7-0.2-1.2-0.3-1.6c0.1,0,0.1-0.1,0.2-0.1c0.1,0,0.4-0.1,0.8-0.3
			c0.4-0.2,0.8-0.3,1-0.4c0.1,0,0.3-0.1,0.4-0.1c0.5,0,0.9,0.6,1.1,1.1c0.4,0.8,0.5,1.1,0.8,2c0.1,0.5,0.2,0.8,0.3,0.9
			C33.6,114.3,33.9,115.1,33.7,115.6z"/>
		<path fill="#A04C46" d="M53.1,120.2l-0.2,0l-0.1,0c-0.1,0-0.3,0.1-0.5,0.2c0,0,0,0,0,0c-0.1-0.2-0.2-0.5-0.4-1
			c-0.1-0.5-0.3-1-0.5-1.7l-0.1-0.4c-0.1-0.5-0.3-1-0.4-1.5c-0.1-0.3-0.1-0.5-0.2-0.8l-0.3-0.9c0-0.1-0.1-0.4-0.2-0.6
			c-0.1-0.2-0.2-0.4-0.2-0.6c-0.1-0.2-0.1-0.4-0.2-0.7l-0.2-0.9c-0.1-0.4-0.2-0.7-0.2-0.9c-0.2-0.6-0.5-1.5-1.1-2.5
			c-0.5-1-0.8-1.8-1-2.3c0-0.1-0.1-0.3-0.2-0.5c-0.1-0.2-0.1-0.3-0.1-0.4c0-0.1,0-0.2-0.1-0.3c0.1,0,0.1,0,0.2,0
			c0.2,0,0.3-0.1,0.4-0.1c0.4-0.1,0.7-0.3,0.9-0.6c0.3-0.3,0.4-0.8,0.3-1.3c-0.2-0.8-1-1.1-1.9-0.8c-0.3,0.1-0.9,0.3-1.4,0.4
			c-0.4,0.1-0.8,0.3-1,0.3c-0.3,0.1-0.8,0.2-1.4,0.5c-0.6,0.2-1,0.3-1.4,0.4c-0.1,0-0.4,0.1-0.6,0.1c-0.3,0.1-0.7,0.1-0.9,0.2
			c-0.9,0.3-1.1,1-0.9,1.5c0.3,0.9,1.3,1.5,2.1,1.2c0.2,0,0.4-0.2,0.6-0.2c0.1,0,0.2-0.1,0.2-0.1c0.1,0,0.3-0.1,0.4-0.1
			c0.1,0,0.3,0,0.5,0.4c0.1,0.4,0.2,1.1,0.3,2.2c0.1,1.2,0.2,1.9,0.3,2.3c0.1,0.3,0.2,0.9,0.3,1.6c0.1,0.7,0.3,1.3,0.4,1.8
			c0.2,0.5,0.5,1.1,1,1.8c0.5,0.7,0.6,1,0.6,1.1c0.1,0.2,0.1,0.5,0.3,1l0.3,1c0.8,2.6,0.5,3,0.4,3.1c0,0-0.1,0-0.2,0.1
			c-0.1,0-0.3,0.1-0.4,0.1c-0.5,0.2-1.7,0.6-1.4,1.6c0.2,0.7,0.7,1.1,1.4,1.1c0.1,0,0.2,0,0.3,0l1.1-0.4l3.9-1.2
			c0.2-0.1,0.6-0.1,1-0.2c0.4-0.1,0.7-0.1,0.9-0.2c0.2-0.1,0.7-0.2,0.9-0.6c0.2-0.4,0.1-0.8,0-1.1C54,120.3,53.4,120.2,53.1,120.2z"
			/>
		<path fill="#A04C46" d="M75.9,114.2c0-0.1-0.2-0.3-0.3-1c0-0.1-0.1-0.6-0.4-1.7l-0.2-0.9c-0.2-0.6,0-0.8,0.3-1.1
			c0.2-0.2,0.7-0.6,0.5-1.2c-0.2-0.9-1-1.3-2.1-1c-0.2,0-0.5,0.2-0.9,0.3c-0.3,0.1-0.6,0.2-0.8,0.2c-0.5,0.1-1.3,0.3-2.4,0.5
			l-0.8,0.2c-0.7,0.1-1.3,0.3-1.6,0.4c-0.9,0.2-1.3,1.1-1.2,1.8c0.1,0.6,0.7,0.9,1.5,0.8c0.3-0.1,0.7-0.2,1.1-0.3
			c0.3-0.1,0.6-0.1,0.7-0.2c0.3-0.1,0.5-0.1,0.8-0.1c0.3,0,0.3,0.1,0.4,0.1c0.2,0.2,0.2,0.3,0.4,0.8c0.4,1.7,0.6,3.2,0.4,4.5
			c-0.1,0-0.1,0.1-0.3,0.1c-1.4,0.3-2.8,0.6-4.4,0.7c-0.5,0-0.9,0.1-1.2,0.1c-0.9,0-1.1-0.1-1.1-0.1c-0.2-0.1-0.4-0.2-0.7-0.3
			c-0.2,0-0.3-0.1-0.4-0.1c-0.5-0.3-0.8-0.8-1.2-1.5c0-0.1-0.1-0.1-0.1-0.2c-0.1-0.3-0.3-0.8-0.6-1.5c-0.1-0.3-0.3-0.6-0.4-0.9
			c-0.2-0.3-0.3-0.7-0.4-0.9c-0.1-0.4-0.1-0.8-0.2-1.4c-0.1-0.6-0.1-1.2-0.2-1.8c0-0.1-0.1-0.4-0.2-0.6c-0.1-0.2-0.1-0.3-0.1-0.4
			c-0.3-1.2-0.2-2.7,0.4-4.3c0.7-2,1.3-2.3,1.6-2.4c0.4-0.1,1-0.3,1.8-0.6c0.7-0.3,1.2-0.5,1.7-0.6c1.1-0.3,2.1-0.2,3,0.3
			c0.8,0.5,1.3,0.9,1.5,1.4c0.4,1.5,1.2,1.8,1.8,1.8c0.1,0,0.2,0,0.4,0c0.6-0.1,0.8-0.5,1-0.7c0.2-0.3,0.2-0.7,0.1-1.1
			c-0.1-0.2-0.2-0.5-0.6-1.3c-0.3-0.6-0.5-1-0.5-1.2c-0.3-1.3-1.6-2.1-3.4-2.2c-1.3,0-2.3,0.1-3.6,0.4c-0.2,0-0.5,0.1-0.8,0.1
			c-0.4,0.1-0.9,0.1-1.1,0.2c-0.3,0.1-0.7,0.3-1.1,0.4c-0.2,0.1-0.5,0.3-0.6,0.3c-1.6,0.4-3.2,1.4-4.9,3.1c-1.7,1.7-2.6,3.5-2.7,5.4
			c-0.1,1.8,0,3.3,0.2,4.5c0.1,0.4,0.3,0.8,0.5,1.2l0.9,1.9c0.3,0.4,0.8,1.2,1.3,1.8c0.2,0.2,0.5,0.5,0.9,0.8l0.3,0.2
			c0.1,0.1,0.2,0.1,0.2,0.2c0.8,0.7,1.4,1.2,2,1.5c0.5,0.3,1.2,0.6,2.2,1l0.3,0.1c0.1,0,0.2,0.1,0.3,0.2c0.5,0.2,1,0.5,1.7,0.5
			c0.3,0,0.7,0.1,1,0.1c1.2,0,2.7-0.2,4.4-0.6c1.6-0.4,3-0.9,4.3-1.4c0.7-0.3,2.7-1.1,2.3-2.7C76.4,114.8,76.2,114.5,75.9,114.2z"/>
		<path fill="#A04C46" d="M99.6,110.1c0-0.1-0.1-0.3-0.3-1c0-0.1-0.1-0.5-0.2-1.3l-0.2-1.4c-0.1-0.7,0.1-0.8,0.4-1
			c0.2-0.2,0.7-0.5,0.6-1.2c-0.1-0.7-0.6-1.4-2-1.2c-0.2,0-0.5,0.1-0.9,0.2c-0.3,0.1-0.7,0.2-0.9,0.2c-0.5,0.1-1.3,0.2-2.4,0.4
			l-0.8,0.1c-0.7,0.1-1.3,0.2-1.6,0.2c-0.8,0.1-1.4,0.9-1.3,1.8c0.1,0.4,0.5,0.9,1.1,0.9c0.1,0,0.2,0,0.3,0c0.3,0,0.7-0.1,1.1-0.2
			c0.3-0.1,0.6-0.1,0.7-0.1c0.2,0,0.4-0.1,0.6-0.1c0.4,0,0.5,0.1,0.5,0.1c0.2,0.3,0.2,0.3,0.3,0.8c0.3,1.8,0.3,3.2,0.1,4.5
			c-0.1,0-0.1,0-0.3,0.1c-1.4,0.2-2.9,0.4-4.4,0.4c-0.1,0-0.3,0-0.4,0c-1.6,0-2-0.2-2-0.2c-0.2-0.1-0.4-0.2-0.6-0.3
			c-0.1-0.1-0.3-0.1-0.4-0.1c-0.4-0.4-0.8-0.9-1-1.6c0-0.1,0-0.1-0.1-0.2c-0.1-0.3-0.3-0.8-0.5-1.6c-0.1-0.3-0.2-0.6-0.4-1
			c-0.1-0.3-0.3-0.7-0.3-0.9c-0.1-0.4-0.1-0.9-0.1-1.4c0-0.6,0-1.2-0.1-1.8c0-0.1-0.1-0.4-0.2-0.6c0-0.2-0.1-0.3-0.1-0.4
			c-0.2-1.3,0-2.7,0.7-4.3c0.8-1.9,1.5-2.2,1.7-2.3c0.4-0.1,1-0.2,1.8-0.5c0.7-0.2,1.3-0.4,1.7-0.5c1.1-0.2,2.1,0,2.9,0.5
			c0.8,0.5,1.3,1,1.4,1.5c0.3,1.6,1.1,1.9,1.7,1.9c0.1,0,0.2,0,0.3,0c0.6-0.1,0.9-0.4,1-0.6c0.2-0.3,0.3-0.7,0.2-1.1
			c0-0.2-0.1-0.5-0.5-1.4c-0.2-0.6-0.4-1-0.4-1.3c-0.2-1.3-1.4-2.2-3.3-2.4c-1.2-0.1-2.3-0.1-3.6,0.1c-0.2,0-0.5,0-0.8,0.1
			c-0.4,0-0.9,0.1-1.1,0.1c-0.3,0.1-0.7,0.2-1.1,0.4c-0.2,0.1-0.5,0.2-0.7,0.2c-1.6,0.3-3.3,1.2-5.1,2.8c-1.8,1.6-2.8,3.3-3.1,5.2
			c-0.2,1.8-0.3,3.3-0.1,4.5c0.1,0.4,0.2,0.8,0.5,1.3l0.8,1.9c0.2,0.5,0.7,1.2,1.2,1.9c0.2,0.2,0.5,0.5,0.8,0.8l0.3,0.3
			c0.1,0.1,0.2,0.1,0.2,0.2c0.7,0.7,1.3,1.3,1.8,1.7c0.5,0.3,1.2,0.7,2.1,1.1l0.3,0.1c0.1,0.1,0.2,0.1,0.3,0.2
			c0.4,0.3,1,0.6,1.7,0.6c0.6,0.1,1.2,0.2,1.9,0.2c1,0,2.2-0.1,3.6-0.3c1.6-0.3,3.1-0.6,4.4-1.1c0.7-0.2,2.8-0.9,2.5-2.5
			C100,110.8,99.8,110.4,99.6,110.1z"/>
		<path fill="#A04C46" d="M118.2,88.6c-0.1,0-0.3,0-0.5,0c-0.2,0-0.5,0.1-0.9,0.3c-0.2,0.1-0.3,0.1-0.3,0.1c-0.3,0-0.8,0-1.5,0
			c-0.9,0-1.5,0-1.9,0c-1.3,0.1-1.4,0.9-1.3,1.4c0.1,0.6,0.5,1.3,1.6,1.3c0.1,0,0.2,0,0.3,0c0,0.3-0.3,1.3-2.1,3.9l-1.1,1.6
			c-0.1,0.2-0.2,0.3-0.3,0.5c0-0.1-0.1-0.2-0.1-0.2c-0.1-0.3-0.2-0.5-0.4-0.6c-0.2-0.2-0.5-0.7-1.3-1.5c-0.7-0.7-1.2-1.3-1.6-1.9
			c-0.3-0.4-0.4-0.7-0.5-0.9c0,0,0.1,0,0.1,0c1.5-0.4,1.6-1.2,1.6-1.6c-0.1-0.6-0.5-1.2-1.5-1.2c-0.1,0-0.2,0-0.4,0
			c-0.2,0-0.5,0.1-0.8,0.1c-0.4,0.1-0.9,0.2-1.3,0.2c-0.6,0.1-1.2,0.1-1.9,0.2c-0.7,0-1.2,0.1-1.4,0.1c-1.6,0.2-1.8,1-1.7,1.4
			c0.1,0.6,0.5,1.2,1.6,1.2l0.3,0c0.1,0,0.1,0,0.2,0c0.3,0.4,1,1.3,2.1,3.1c1,1.5,1.8,2.7,2.3,3.4c0.2,0.3,0.6,0.8,1,1.5l1.7,2.5
			c0,0,0,0.1,0,0.1c0,0.3,0.1,0.8,0,2c0,1.5,0,1.6,0,1.6c0,0.3,0.1,0.6,0.3,1.1c0,0.2,0.2,0.6,0.2,0.8c-0.1,0-0.2,0-0.3,0
			c-1.1,0.1-1.7,0.3-2,0.8c-0.2,0.3-0.3,0.6-0.3,0.9c0.1,0.7,0.5,1.1,1.2,1.1c0.1,0,0.3,0,0.4,0c0.5-0.1,1.1-0.1,1.9-0.2
			c0.6-0.1,1.1-0.1,1.4-0.2c0.1,0,0.2,0,0.3,0c0.6,0,1.8-0.1,3.9-0.3l0.1,0c0.3-0.1,1-0.4,0.9-1.6c0-0.2-0.1-0.9-1.2-0.9
			c-0.1,0-0.3,0-0.5,0c-0.4,0-0.8,0-1,0c0-0.1,0-0.3,0-0.5c0-0.4,0.1-0.8,0-1.3c-0.1-0.6-0.2-1.8-0.5-3.9c-0.3-1.9-0.4-2.9-0.5-3.1
			c0-0.4,0.1-0.8,0.4-1.4c1.7-3.3,3.2-5.7,4.4-7c0.1-0.2,0.3-0.2,0.4-0.2l0.4-0.1c0.8-0.1,1.4-0.8,1.3-1.6
			C119.6,89.5,119.5,88.6,118.2,88.6z M107.4,110.4C107.4,110.4,107.4,110.4,107.4,110.4l0-0.2c0,0,0,0,0,0V110.4z"/>
		<path fill="#A04C46" d="M157.8,107.5c-0.9-0.2-1.2-0.4-1.2-1c0-0.3,0-1,0.3-2.3c0.2-1.3,0.3-2,0.3-2.4c0-0.9-0.1-2-0.2-3.4
			c-0.1-1.5-0.2-2.5-0.2-3.2l0-1c0-0.5,0-0.9,0-1.1c0-0.8,0.1-1.8,0.4-3.2c1.4,0,1.4-1,1.4-1.2c0-0.9-0.8-1.4-2.4-1.4c0,0,0,0,0,0
			c-1.3,0-2,0-2.8,0.3c-0.6,0.2-1,0.5-1.3,0.9c-1.3,2.1-2.3,3.8-2.9,5l-1.8,4.1c-0.2,0.4-0.6,1-1.1,1.9l-1,1.6
			c-0.2,0.4-0.4,0.8-0.7,1.2c-0.1-0.4-0.3-0.8-0.5-1.3c-1-2.7-1.7-4.6-2-5.1c-0.3-0.6-0.7-1.3-1.3-2.1c-0.5-0.8-0.9-1.4-1.1-1.7
			c-0.2-0.3-0.5-1-0.7-1.4l-0.2-0.3c-0.2-0.4-0.6-0.8-1-1.2c-0.3-0.3-0.6-0.7-0.8-0.9c-0.3-0.6-0.9-0.9-1.6-0.9c-0.1,0-0.3,0-0.5,0
			c-0.1,0-0.1,0-0.2,0c0,0-0.1,0-0.2,0l-0.1-0.2l0,0.2c-0.1,0-0.3,0-0.5-0.1c-0.4,0-0.7-0.1-1-0.1c0,0,0,0,0,0
			c-0.6,0-1.1,0.1-1.4,0.3c-0.6,0.3-0.9,0.7-0.9,1.3c0,0.7,0.6,1.5,1.5,1.5c0.1,0,0.3,0,0.4,0c0.1,0,0.3,0,0.4,0
			c0.6,0,1.3,0,1.3,2.4c0,0.2,0,0.7,0,1.1c0,0.4,0,0.9,0,1.1c0,0.2-0.1,0.6-0.1,0.9c-0.1,0.4-0.1,0.8-0.1,1.1c0,0.2,0,0.5,0.1,0.9
			c0,0.3,0.1,0.6,0.1,0.8c0,0.4-0.1,1-0.3,1.8c-0.2,0.8-0.3,1.5-0.3,2c0,0.2,0,0.4,0,0.8l0,0.7c0,0.6,0,1,0,1.5
			c-0.1,0.7-0.4,1.4-0.6,1.5c-0.2,0.1-0.5,0.1-0.8,0.1c-1.1,0.1-1.6,0.5-1.6,1.3c0,0.9,0.6,1.5,1.5,1.5c0.2,0,0.4,0,0.8-0.1
			c0.3-0.1,0.8-0.1,1-0.2c0.1,0,0.5,0.1,0.7,0.1c0.2,0,0.4,0.1,0.6,0.1l0.1,0c0.4,0.1,1.1,0.2,1.9,0.2l0.1,0c0.5,0,1-0.1,1.3-0.3
			c0.5-0.3,0.8-0.7,0.8-1.3c0-1.1-1.1-1.2-1.6-1.3c-1-0.1-1.1-0.2-1.1-0.6c0,0,0-0.1,0-0.3c0-0.2,0-0.4,0-0.6c0-0.9,0-1.8,0.1-2.9
			c0-0.2,0.1-0.8,0.3-1.8c0.2-0.7,0.3-1.3,0.3-1.8c0.1,0.2,0.2,0.4,0.3,0.6c0.4,0.8,0.8,1.8,0.9,2.4c0.2,0.8,0.9,2.1,2.2,4.3
			c1.8,2.8,2.7,3.4,3.5,3.4c0.7,0,1.2-0.4,1.5-1.2c0.4-2.2,1.1-4.2,2.1-5.8c0.1-0.2,0.4-0.7,1-1.7c0.5-0.8,1-1.5,1.3-2.1
			c0.2-0.4,0.8-1.7,1.4-3.2c0,0,0-0.1,0-0.1c-0.1,0.7-0.1,1.3-0.1,1.7c0,0.4,0.1,1,0.2,1.8c0.1,0.5,0.2,1.2,0.2,1.5
			c0,0.1-0.1,0.9-0.2,2.3c-0.2,2.2-0.2,2.3-0.2,2.4c0,0.4,0,0.8,0.1,1.2c-0.4,0.1-0.8,0.2-1.1,0.4c-0.5,0.3-0.9,0.8-0.9,1.4
			c0,1.1,0.7,1.4,1.2,1.4c0.3,0,0.6-0.1,1.1-0.2c0.4-0.1,0.9-0.2,1.2-0.2c0.2,0,0.6,0,0.9,0.1c0.4,0,0.8,0.1,1.1,0.1h0
			c0.1,0,0.5,0.1,0.7,0.1c0.4,0.1,0.8,0.1,1.1,0.1c1,0,1.6-0.6,1.8-1.2l0.1-0.3l-0.2-0.4C158.5,107.7,158.1,107.6,157.8,107.5z"/>
		<path fill="#A04C46" d="M184,108.7c-1.2-4.7-2.2-8.2-3-10.7c-0.3-1.1-0.9-2.5-1.8-4c-0.6-1.3-1.3-2.5-1.5-3.2
			c-0.2-0.5-0.6-1.1-1.1-1.8c-0.5-0.7-1-1.2-1.6-1.2l-0.1,0c-0.9,0-1.7,0.8-3,2.7c-1.1,1.6-1.8,2.9-2.2,3.9
			c-0.1,0.3-0.4,0.9-0.7,1.5c-0.4,0.8-0.6,1.3-0.7,1.6l-1,2.5c-0.4,1.1-0.7,1.9-0.9,2.5c-0.3,0.7-0.9,1.8-1.6,3.1
			c-0.7,1.2-1.1,1.6-1.2,1.6c-0.2,0-0.5,0.1-0.7,0.1c-0.7,0.1-1.8,0.2-1.8,1.3c0,0.3,0,1.2,1.5,1.3c0.6,0,1.4,0.2,2.2,0.3
			c1,0.1,2,0.3,2.7,0.3c0.4,0,1,0,1.3-0.4c0.2-0.2,0.3-0.5,0.3-0.7c0.1-1-0.5-1.5-1.2-1.5c-0.1,0-0.3,0-0.5,0c-0.1,0-0.2,0-0.3,0
			c0.1-0.3,0.3-0.9,0.9-2c0.8-1.5,1.1-2,1.2-2.2l0.4-1c0.8,0,1.6,0,2.4,0.1c1.9,0.1,3.7,0.3,5.4,0.5l0.4,1.9c0,0.2,0.2,0.6,0.3,1
			c0.2,0.6,0.4,1.3,0.5,1.9c0.1,0.3,0.1,0.6,0.1,0.9c-0.4,0.1-1,0.3-1.1,1c0,0.5,0.1,0.8,0.3,1c0.2,0.3,0.6,0.5,1,0.5
			c0.1,0,0.6,0,1.3,0l0.2,0c0.8,0,1.6,0.1,2.4,0.1c0.2,0,0.3,0,0.5,0c1.6,0,1.9-0.9,1.9-1.3C185.3,109.3,184.8,108.8,184,108.7z
			 M168.4,109.1L168.4,109.1L168.4,109.1L168.4,109.1z M176.4,100c-1.6-0.1-2.9-0.3-3.9-0.3c-0.5,0-1-0.1-1.7-0.1
			c0.1-0.3,0.2-0.6,0.3-0.8l1.2-2.9l0.7-1.3c0.3-0.6,0.6-1,0.8-1.5c1.6,4,2.5,6.2,2.6,6.7C176.5,99.8,176.5,99.9,176.4,100
			L176.4,100z"/>
		<path fill="#A04C46" d="M206.3,112.4c-0.9-0.3-2.3-1.6-4-5.9c-0.1-0.2-0.2-0.5-0.4-1l-0.7-1.7c1.3-0.3,3.3-0.9,3.9-2.7
			c0.9-2.3,1-2.7,1.1-3c0.3-2.4-0.9-4.4-3.1-5.6c-1.3-0.7-2.2-1-3.1-1.2c-1.5-0.4-2.9-0.7-4.1-0.9c-0.5-0.1-1.1-0.1-1.8-0.1l-0.6,0
			c-0.6,0-1,0-1.3-0.1c-0.1,0-0.2,0-0.3,0c-0.6,0-1.1,0.4-1.2,1c-0.2,1.2,0.7,1.6,1.2,1.7c0,0.5,0,1.1-0.1,1.7c0,0.3-0.2,0.9-0.5,2
			c-0.2,1-0.4,1.7-0.5,2.2c-0.1,0.4-0.1,0.9-0.1,1.8c0,0.5,0,1.2-0.1,1.5c0,0.1-0.1,0.3-0.1,0.5c0,0.2-0.1,0.3-0.1,0.4
			c0,0.1,0,0.7-0.1,1.4c0,0.5-0.1,1.1-0.1,1.7l-0.1,1c-0.1,1.1-0.2,1.9-0.2,2.2c0,0,0,0.1,0,0.1c0,0-0.1,0-0.1,0
			c-0.1,0-0.2,0-0.3-0.1c-0.1,0-0.3-0.1-0.3-0.1c-0.1,0-0.2,0-0.3,0c-0.7,0-1.3,0.5-1.4,1.1c-0.1,0.9,0.6,1.5,2.1,1.7
			c0.4,0.1,1,0.1,2,0.2c0.9,0.1,1.5,0.1,1.9,0.2c0.3,0,0.7,0.1,1.1,0.2c0.4,0.1,0.7,0.2,0.9,0.2l0.2,0c0.5,0,1.2-0.3,1.3-1.3
			c0.1-0.4-0.1-1.1-1.1-1.3c-0.1,0-0.2,0-0.4-0.1c-0.2,0-0.4,0-0.6-0.1c-0.2,0-0.6-0.1-0.4-1.3c0-0.3,0.1-0.6,0.2-0.9l0-0.1
			c0.2-0.7,0.2-0.8,0.2-0.9c0.1-0.4,0.4-1.9,0.8-3.5l0.9,0.2c0.7,0.2,1.1,0.3,1.2,0.3c0.4,0.1,1,0.8,1.3,1.9c0.5,2.3,1,3.8,1.9,5.4
			c1.1,1.9,2.9,3,5.1,3.3l0.2,0c0.6,0,1-0.4,1.1-1C207.5,113.5,207.4,112.9,206.3,112.4z M200.8,97l-0.2,1.1
			c-0.1,0.6-0.1,0.8-0.1,0.8l0,0.1c0,0.1-0.1,0.4-0.1,0.8c-0.1,0.4-0.1,0.5-0.3,0.8l-0.2,0.3c0,0-0.2,0.1-0.2,0.1l-0.3,0.1
			c-0.1,0-0.4,0.1-1.2,0c-0.9-0.1-1.5-0.2-1.9-0.3c0.2-1.1,0.4-1.9,0.5-2.5c0-0.3,0.1-0.7,0.1-1.2l0-0.1c0-0.1,0.1-0.4,0.1-1.1
			c0.1-0.6,0.1-1.2,0.1-1.7c0-0.1,0-0.2,0-0.4l0.5,0.1c0.2,0,0.6,0.1,1,0.1c0.4,0,0.8,0.1,1,0.1c0.8,0.1,1,0.5,1.1,0.8
			C201,95.5,200.9,96.3,200.8,97z"/>
		<path fill="#A04C46" d="M234.9,99.4c0.3-1.3-1-1.6-1.8-1.8c-0.2,0-0.8-0.2-2-0.4c-1.1-0.2-2.2-0.5-3.3-0.7l-0.3,0
			c-0.6,0-1.1,0.4-1.2,1c-0.1,0.4-0.1,1,0.8,1.6c-0.5,0.4-1.4,1-3.2,2c-0.7,0.4-1.4,0.6-2.5,1c-0.4,0.1-0.7,0.2-1,0.3
			c-0.1,0-0.2,0.1-0.4,0.1c-0.8,0.2-1.4,0.5-1.9,0.6l0.7-3c0.2-0.7,0.5-1.5,0.6-1.9l0.2-0.5c0.2,0,0.4,0.1,0.7,0.1
			c0.2,0,0.5,0.1,0.8,0.2c0.1,0,0.2,0,0.3,0.1c0.1,0,0.2,0.1,0.3,0.1c0.1,0,0.2,0,0.3,0c0.3,0,1-0.1,1.4-1l0.1-0.2l0-0.3
			c0-0.3-0.2-1.1-1.3-1.3l-6.9-1.5c-1-0.2-1.6,0.2-1.8,0.9c-0.1,0.5,0.2,0.9,0.8,1.2c0.1,0,0.1,0.1,0.2,0.1
			c-0.1,0.6-0.4,1.5-0.9,2.9c-0.4,1.2-0.7,2.3-0.9,3.1c-0.1,0.4-0.2,0.9-0.2,1.8c0,0.5-0.1,1.2-0.2,1.5c0,0.1-0.1,0.3-0.1,0.5
			c0,0.2-0.1,0.3-0.1,0.4c0,0.1-0.1,0.8-0.2,1.4c-0.1,0.5-0.1,1.1-0.2,1.7l-0.1,1.1c-0.1,1.1-0.3,1.9-0.4,2.2c0,0.2-0.1,0.4-0.1,0.5
			c-0.1,0-0.1,0-0.2-0.1l-0.3,0c-0.5,0-1,0.4-1.1,0.9c0,0.2-0.1,0.9,0.6,1.3c0.3,0.2,0.6,0.3,1.1,0.4c0,0,0.2,0,0.4,0.1
			c0.5,0.1,1.5,0.3,2.2,0.4c0.4,0.1,0.9,0.2,1.4,0.4c0.6,0.2,1,0.3,1.2,0.3c0.4,0.1,0.7,0.1,1,0.1c1.1,0,1.4-0.7,1.4-1
			c0.1-0.6-0.1-1.4-1.2-1.6c-1.7-0.4-1.6-0.5-1.4-1.3c0.3-1.2,0.4-2.4,0.5-3.5c0.1-0.9,0.2-1.8,0.4-2.5c0-0.1,0.1-0.3,0.1-0.4
			c0.3-0.1,0.6-0.2,1-0.3l0.4,0.6c0.4,0.5,0.7,1,0.9,1.5l0.7,1.2c0.1,0.3,0.4,0.7,0.7,1.4l0.7,1.4c0.3,0.5,0.7,1.2,1.3,2.1l1,1.5
			c-0.3-0.1-0.5-0.2-0.6-0.2l-0.3,0c-0.6,0-1,0.4-1.1,1c-0.2,0.9,0.1,1.4,1,1.6c0.1,0,0.3,0.1,0.5,0.1c0.1,0,0.3,0,0.3,0.1
			c0.3,0.1,0.6,0.1,1,0.2c0.3,0.1,0.6,0.1,0.8,0.2l1.4,0.3c0.3,0.1,0.8,0.2,1.5,0.4l0.8,0.2c0.2,0.1,0.4,0.1,0.5,0.1
			c0.2,0.1,0.4,0.1,0.6,0.1c0.3,0,1.1-0.1,1.3-1.1c0.1-0.3,0.2-1.3-1.6-1.7c-0.1,0-0.2,0-0.3-0.1c-0.1,0-0.2,0-0.2,0
			c-0.1-0.1-0.4-0.6-0.6-2.3c-0.1-0.9-0.3-1.5-0.5-1.9c-0.2-0.3-0.5-0.8-0.9-1.6c-0.5-0.9-0.8-1.5-1.1-1.9c-0.2-0.3-0.5-0.6-0.7-0.9
			c-0.3-0.4-0.6-0.7-0.8-1.1l-0.9-1.6c-0.3-0.5-0.5-0.9-0.7-1.2c0.6-0.2,1.2-0.5,1.8-0.8c0.7-0.3,1.6-0.9,2.6-1.6
			c1.1-0.7,1.9-1.2,2.7-1.4c0.6-0.2,1.2-0.3,1.9-0.3c0.2,0,0.4,0,0.6,0l0.2,0C234.3,100.5,234.8,100.1,234.9,99.4z"/>
		<path fill="#A04C46" d="M254.1,103.7c-0.6-0.2-1.5-0.5-2.6-0.8c-1.2-0.5-2-0.7-2.5-0.9c-0.3-0.1-0.8-0.2-1.6-0.3
			c-0.7-0.1-1.1-0.2-1.2-0.2l-2.1-0.6c-0.8-0.3-1.3-0.4-1.6-0.5c-0.7-0.2-1.2-0.3-1.6-0.3c-0.9,0-1.2,0.6-1.2,0.8
			c-0.1,0.2-0.2,0.9,0.6,1.4c0.2,0.1,0.3,0.2,0.6,0.3c0,0.5-0.1,1.1-0.3,1.7c-0.1,0.3-0.3,0.8-0.8,2c-0.4,0.9-0.6,1.6-0.8,2.2
			c-0.1,0.4-0.2,0.9-0.3,1.7c-0.1,0.5-0.2,1.2-0.3,1.5c0,0.1-0.1,0.3-0.1,0.4c-0.1,0.2-0.1,0.3-0.1,0.4c0,0.1-0.1,0.7-0.3,1.4
			c-0.1,0.5-0.2,1.1-0.3,1.7l-0.2,1c-0.2,1.1-0.4,1.9-0.5,2.2c0,0-0.1,0-0.2,0c-0.1,0-0.3,0-0.4,0c-0.2,0-0.3,0-0.5,0
			c-1.1,0-1.5,0.6-1.6,1c-0.1,0.4-0.1,0.8,0.2,1.1c0.2,0.2,0.5,0.4,0.8,0.5c0.1,0,0.4,0.1,0.6,0.1c0.2,0,0.5,0.1,0.6,0.1
			c1,0.3,2.8,0.9,5.4,1.7c2,0.7,4.2,1.4,5.8,1.9c0.7,0.2,1.3,0.3,1.8,0.3c0.8,0,1.4-0.2,1.9-0.7c0.1-0.1,0.1-0.2,0.3-0.3
			c0.1-0.2,0.4-0.6,0.6-0.7c0.7-0.8,1-1.2,1.2-1.6c0.4-1.2-0.3-1.9-1-2.1c-0.2,0-0.3-0.1-0.5-0.1c-0.3,0-1.1,0.1-1.4,1.2
			c-0.2,0.6-0.6,1.1-1.7,1.1c-0.8,0-1.7-0.2-3-0.6c-0.3-0.1-0.7-0.2-1.3-0.3c-0.5-0.1-0.9-0.2-1.1-0.2c-0.4-0.1-1-0.4-1.2-1.4
			c-0.2-1-0.1-2.4,0.5-4.1c0.3-0.9,0.6-1.7,1.1-2.5c0.3,0.1,0.8,0.2,1.6,0.4c1.4,0.4,2,0.8,2.2,1c0.1,0.1,0.5,0.6,0.7,2l0.1,0.7
			l0.7,0.1c0.9,0.1,1.5-0.3,1.7-1.1c0.1-0.2,0.1-0.5,0.1-1.1c0-0.3,0.1-0.7,0.1-0.9c0.1-0.4,0.3-0.9,0.6-1.6
			c0.3-0.7,0.5-1.3,0.6-1.7c0.1-0.4,0.1-0.8-0.2-1.2c-0.1-0.2-0.4-0.5-0.9-0.6c-0.9-0.3-1.6,0.2-1.9,1c-0.4,1.2-0.7,1.2-0.9,1.2
			c-0.2,0-0.4,0-0.6-0.1c-1.6-0.5-2.5-0.8-3.1-1c0.1-1.2,0.3-2.5,0.8-4c0.3-1,0.5-1.6,0.7-2c0,0,0,0,0,0c0.4,0.1,1.2,0.4,2.6,0.9
			c1.1,0.4,2.1,0.8,3.1,1c0.2,0.2,0.3,1.1,0.3,1.5c0.1,0.9,0.3,1.9,1.1,2c0.8,0.2,1.6-0.3,1.8-1.1c0.1-0.4,0.2-0.9,0.1-1.5
			c0-0.5,0-0.8,0.1-1.1C255.6,105,255.1,104,254.1,103.7z"/>
		<path fill="#A04C46" d="M278.2,111.4l-0.2-0.1h-0.2c-0.1,0-0.3,0-0.4,0c-0.3,0.1-0.9,0.1-1.5-0.1c-0.1,0-0.1-0.1-0.2-0.1
			c-0.2-0.1-0.4-0.2-0.5-0.2c-0.9-0.3-2.3-0.8-4.1-1.4c-1.8-0.6-3.2-1-4-1.4c-0.2-0.1-0.6-0.2-0.9-0.4c-0.4-0.2-0.8-0.3-1-0.4
			c-0.1,0-0.3-0.1-0.6-0.2c-0.4-0.1-0.8-0.2-1.1-0.3c-0.9-0.3-1.1-0.6-1.1-0.6c0-0.3-0.1-0.6-0.2-0.8c-0.5-0.6-1.6-0.6-2,0.1
			l-0.5,0.8c-0.3,0.4-0.7,1-1.1,1.6c-0.2,0.3-0.3,0.5-0.5,0.8c-0.2,0.2-0.4,0.4-0.4,0.6c-0.2,0.4-0.1,0.9,0.2,1.2
			c0.2,0.2,0.4,0.4,0.7,0.5l0.2,0.1h0.3c0.5,0,0.8-0.3,1.2-0.7c0.4-0.4,1-1,1.5-1c0.1,0,0.1,0,0.2,0.1c0.4,0.1,1,0.3,1.9,0.4
			c0.9,0.1,1.2,0.2,1.4,0.2c0.3,0.1,0.7,0.3,0,2.3l-0.7,1.8c-0.1,0.4-0.2,0.7-0.3,0.9c0,0.1-0.2,0.4-0.7,1.1c-0.5,0.6-0.8,1.2-1,1.8
			c-0.2,0.5-0.3,1.1-0.5,1.8c-0.2,0.7-0.3,1.2-0.4,1.5c-0.2,0.5-0.3,1.3-0.5,2.5c-0.1,1.4-0.3,2-0.4,2.3c0,0,0,0.1,0,0.1
			c-0.1,0-0.2-0.1-0.4-0.1c-0.3-0.1-0.8-0.1-1.2-0.1c-0.1,0-0.2,0-0.3,0c-0.7-0.3-1.4,0-1.6,0.7c-0.2,0.6-0.1,1.4,1.1,1.8
			c0.7,0.2,1.7,0.6,3,1.1l1,0.4c0.9,0.3,1.6,0.6,2.1,0.8c0.5,0.2,0.9,0.3,1.2,0.3c0.6,0,1.1-0.3,1.3-0.8c0.2-0.4,0.1-0.8,0-1
			c-0.1-0.2-0.3-0.5-0.7-0.6l-0.8-0.3c-0.4-0.1-0.5-0.2-0.6-0.3c0,0,0-0.1,0.1-0.2c0.1-0.3,0.4-1,0.9-2.1l0.4-0.9
			c0.3-0.6,0.5-1.1,0.7-1.6c0.3-0.6,0.6-1.1,0.6-1.3c0-0.1,0.1-0.2,0.1-0.4c0.1-0.2,0.1-0.4,0.1-0.5c0.1-0.3,0.4-0.9,0.6-1.3
			c0.4-0.7,0.6-1.2,0.8-1.6c0.3-0.7,0.5-1.7,0.8-2.8c0.3-1.3,0.6-2.1,0.7-2.6c0.1-0.2,0.1-0.2,0.2-0.2c0.1,0,0.2,0,0.5,0.1
			c0.1,0,0.3,0.1,0.6,0.2c0.4,0.2,0.8,0.3,1.1,0.4c2.3,0.8,2.1,1.5,2,2.3c-0.1,0.5-0.3,1.6,0.9,2l0.2,0.1h0.2c0.9,0,1.2-1,1.4-1.5
			c0.1-0.4,0.3-0.8,0.7-1.4l0.1-0.2c0.3-0.5,0.4-0.8,0.5-1C279.3,112,278.5,111.5,278.2,111.4z M265.5,129.2
			C265.5,129.2,265.5,129.2,265.5,129.2l0,0.1l0,0V129.2z"/>
	</g>
	<g>
		<path fill="#A04C46" d="M118.1,230.7v-0.8h1.8v0.8H118.1z"/>
		<path fill="#A04C46" d="M126.4,228.5v1h2.3v1h-2.3v1h2.6v1h-3.9v-4.9h3.8v1H126.4z"/>
		<path fill="#A04C46" d="M135,228.1l-0.5,1c-0.5-0.3-1.2-0.5-1.6-0.5c-0.3,0-0.5,0.1-0.5,0.4c0,0.8,2.6,0.4,2.6,2.1
			c0,1-0.9,1.5-1.9,1.5c-0.8,0-1.6-0.3-2.2-0.8l0.5-1c0.5,0.4,1.2,0.7,1.8,0.7c0.4,0,0.6-0.1,0.6-0.4c0-0.9-2.6-0.3-2.6-2.1
			c0-0.9,0.8-1.5,1.9-1.5C133.8,227.5,134.5,227.7,135,228.1z"/>
		<path fill="#A04C46" d="M139.4,228.6v3.9h-1.2v-3.9h-1.4v-1h4.1v1H139.4z"/>
		<path fill="#A04C46" d="M143.3,231.9c0,0.3-0.2,0.6-0.6,0.6s-0.6-0.2-0.6-0.6c0-0.3,0.2-0.6,0.6-0.6S143.3,231.6,143.3,231.9z"/>
		<path fill="#A04C46" d="M148.9,232.4v-3.9H148v-1h2.1v4.9H148.9z"/>
		<path fill="#A04C46" d="M152.5,232.1l0.5-0.9c0.3,0.2,0.6,0.3,1,0.3c0.8,0,1.2-0.5,1.1-1.3c-0.2,0.3-0.6,0.5-1.2,0.5
			c-1,0-1.6-0.6-1.6-1.6c0-1,0.7-1.7,1.8-1.7c1.3,0,2.1,0.9,2.1,2.4c0,1.5-0.9,2.6-2.2,2.6C153.5,232.5,152.9,232.3,152.5,232.1z
			 M155,229.2c0-0.4-0.2-0.7-0.7-0.7c-0.4,0-0.7,0.2-0.7,0.7c0,0.4,0.3,0.7,0.7,0.7C154.7,229.8,155,229.6,155,229.2z"/>
		<path fill="#A04C46" d="M161.9,228.8c0,0.4-0.2,0.8-0.6,1c0.5,0.2,0.9,0.7,0.9,1.2c0,0.9-0.8,1.4-2,1.4c-1.2,0-2-0.5-2-1.4
			c0-0.6,0.4-1,0.9-1.2c-0.4-0.2-0.7-0.6-0.7-1c0-0.8,0.7-1.3,1.7-1.3C161.2,227.5,161.9,228,161.9,228.8z M159.4,230.9
			c0,0.4,0.3,0.6,0.8,0.6c0.5,0,0.8-0.2,0.8-0.6c0-0.4-0.3-0.6-0.8-0.6C159.7,230.3,159.4,230.5,159.4,230.9z M159.5,228.9
			c0,0.3,0.2,0.5,0.7,0.5c0.5,0,0.7-0.2,0.7-0.5c0-0.4-0.2-0.6-0.7-0.6C159.7,228.3,159.5,228.5,159.5,228.9z"/>
		<path fill="#A04C46" d="M164.1,232.1l0.5-0.9c0.3,0.2,0.6,0.3,1,0.3c0.8,0,1.2-0.5,1.1-1.3c-0.2,0.3-0.6,0.5-1.2,0.5
			c-1,0-1.6-0.6-1.6-1.6c0-1,0.7-1.7,1.8-1.7c1.3,0,2.1,0.9,2.1,2.4c0,1.5-0.9,2.6-2.2,2.6C165.1,232.5,164.5,232.3,164.1,232.1z
			 M166.6,229.2c0-0.4-0.2-0.7-0.7-0.7c-0.4,0-0.7,0.2-0.7,0.7c0,0.4,0.3,0.7,0.7,0.7C166.3,229.8,166.6,229.6,166.6,229.2z"/>
		<path fill="#A04C46" d="M173,230.7v-0.8h1.8v0.8H173z"/>
	</g>
</g>
</svg>
