<?xml version="1.0" encoding="utf-8"?>
<!-- Generator: Adobe Illustrator 18.0.0, SVG Export Plug-In . SVG Version: 6.00 Build 0)  -->
<!DOCTYPE svg PUBLIC "-//W3C//DTD SVG 1.1//EN" "http://www.w3.org/Graphics/SVG/1.1/DTD/svg11.dtd">
<svg version="1.1" id="Layer_1" xmlns="http://www.w3.org/2000/svg" xmlns:xlink="http://www.w3.org/1999/xlink" x="0px" y="0px"
	 viewBox="0 0 300 300" enable-background="new 0 0 300 300" xml:space="preserve">
<rect fill="#EEE9E3" width="300" height="300"/>
<g>
	<g>
		<g>
			<path fill="#A64343" d="M195.3,172.7L195.3,172.7c-1.4-1.7-1.9-4.8-1.9-4.8l0,0c-0.3-2-1-3.4-1.6-4.4c0,0-0.1-0.3-0.6-0.8
				l-0.1-0.1c0-0.1-0.1-0.1-0.1-0.1c-0.1-0.1-0.1-0.2-0.2-0.2l0,0c0,0,0,0-0.1-0.1c-0.3-0.4-0.9-0.9-1.4-1.4l0,0c0,0-1.9-1.7-3-3.2
				c-0.2-0.2-0.3-0.6-0.6-0.8c-0.8-1.6-1.8-4.1-2.6-6.4l-1.4-5c-1.1-4.9-3.4-9.3-3.4-9.3c-5.1,0.8-8.5,4.2-9.7,5.8
				c0,0.1-1.6,2-1.1,4.7c0.7,1.7,2,4,4.8,6.4c0.2,0.2,0.6,0.4,0.8,0.7l0,0c0,0,0,0,0.1,0.1c0.2,0.1,0.3,0.3,0.6,0.4
				c0.1,0,0.1,0.1,0.2,0.1c1.4,1,4,3.1,5.8,4.8c3.6,3.4,6.7,10.6,7,12.7l1,0.1l0,0l0,0c0,0,0,0,0-0.1l0,0c0-0.1,0-0.4,0-0.8l0,0
				c0-0.1,0-0.1,0-0.2l0,0c0-0.6,0-1-0.1-1.4V169v-0.1c0,0,0,0,0-0.1c-0.2-1-0.6-1.8-0.6-1.8s1.7,1.3,1.6,5c2.6,2.2,5.9,2.1,5.9,2.1
				l0,0c1,0,2-0.2,2-0.2v-0.4c-0.4-0.1-0.9-0.4-1.1-0.7C195.4,172.8,195.4,172.7,195.3,172.7z"/>
		</g>
		<g>
			<path fill="#A64343" d="M125.9,178c-0.1-0.2-0.1-0.6-0.2-0.8c-0.1-1.2,0.1-2.9,0.2-3.8c0-0.1,0.1-0.3,0.1-0.4l0,0l0,0
				c0.4-3.3-0.6-5.3-1.4-6.4l0,0l0,0c0-0.1-0.1-0.1-0.1-0.2l0,0l-0.7-0.8l-0.7-1c-0.6-1.1-0.8-1.9-0.9-2.1c-0.1-0.3-0.2-0.7-0.2-1
				c0,0,0-0.2-0.1-0.6c-0.4-1.8-0.6-3.3-0.6-4.6c0-0.3,0-0.7,0-1.1c0.1-0.6,0.2-1.3,0.3-1.9l0,0v-0.1c0.1-0.3,0.1-0.6,0.2-0.9l0,0
				c1.9-7.6-0.2-11.3-0.2-11.3l0,0c-0.8-0.4-1.6-0.9-1.6-0.9s-1.4,8.2-10.2,12.2c0,0,0.2,5.2,4.8,10.5l0,0c0.1,0.2,0.3,0.3,0.4,0.6
				c0.4,0.6,1,1.2,1.4,1.9c0.4,0.8,0.9,1.6,1.2,2.4c0,0.1,0.1,0.2,0.1,0.3l0,0c0,0,0,0.1,0.1,0.3l0,0l0,0c0,0.1,0,0.1,0.1,0.2
				c0,0.1,0,0.2,0.1,0.2c0,0.1,0.1,0.2,0.1,0.4c0,0.1,0,0.1,0.1,0.2l0,0l-0.3-1c0.2,0.8,1,3.7,1,6l1.1,0.9v-0.1c0,0,0.7-3.7,0.2-5.4
				c0,0,1.7,2.1,0.7,6.9c0,0,0.7,1.2,2.7,2.3c0.2,0.1,0.4,0.2,0.7,0.3c0,0,0,0,0.1,0c0.1,0,0.1,0.1,0.2,0.1l0,0c0,0,0,0,0.1,0h0.1
				h0.1c0.2,0.1,0.3,0.1,0.6,0.2h0.1l0,0l0,0c0,0,0,0,0.1,0c0.8,0.2,1.4,0.2,1.7,0.2v-0.6C126.4,179.3,126.1,178.6,125.9,178z"/>
		</g>
		<g>
			<path fill="#A64343" d="M234.2,111c-1.3-0.9-3.3-0.4-3.3-0.4c0.2,0.8,1.1,2.1,1.1,2.1c0.8,0.8,1.6,0.7,1.8,0.6
				c0.3-0.1,0.8-0.7,0.8-0.7c0.2-0.4,0.2-0.8,0.2-1C234.6,111.3,234.2,111,234.2,111z"/>
		</g>
		<g>
			<path fill="#A64343" d="M222.9,107c1,1.3,2.9,1.7,2.9,1.7c0-0.8-0.2-2.3-0.2-2.3c-0.4-1-1.1-1.2-1.4-1.2h-0.1
				c-0.4,0-0.9,0.3-0.9,0.3c-0.4,0.3-0.6,0.6-0.6,0.9c0,0,0,0.2,0.1,0.3C222.8,106.6,222.9,107,222.9,107z"/>
		</g>
		<g>
			<path fill="#A64343" d="M218.9,110.2c1.3,0.9,3.3,0.4,3.3,0.4c-0.1-0.8-1.2-2.1-1.2-2.1c-0.8-0.8-1.4-0.8-1.7-0.7
				c-0.6,0.2-0.8,0.7-0.8,0.7c-0.2,0.4-0.2,0.7-0.2,1C218.5,110,218.9,110.2,218.9,110.2z"/>
		</g>
		<g>
			<path fill="#A64343" d="M222.5,115.3c0,0-0.2,0.4-0.3,0.9l0,0c0,0-0.2,1,1,1.3h0.1c0.1,0,0.2,0,0.2,0c0.1,0,0.1,0,0.2,0l0,0h0.1
				c0.4,0,0.9-0.2,1-0.9c0.3-1.7-1-3.2-1-3.2C223.4,114,222.5,115.3,222.5,115.3z"/>
		</g>
		<g>
			<path fill="#A64343" d="M227.1,104.6L227.1,104.6C227.1,104.7,227.1,104.7,227.1,104.6c0,0.2,0,0.2,0,0.3l0,0
				c0.3,1.6,1.8,2.6,1.8,2.6c0.4-0.7,0.9-2.2,0.9-2.2c0.1-1.1-0.4-1.6-0.8-1.7c-0.4-0.2-1-0.2-1-0.2c-0.2,0-0.3,0.1-0.4,0.1l0,0
				c0,0-0.1,0-0.1,0.1c0,0-0.1,0-0.1,0.1l0,0C227.2,103.9,226.9,104.2,227.1,104.6z"/>
		</g>
		<g>
			<path fill="#A64343" d="M227.2,112.4c0,0-0.4,1.8,0.2,2.9c0,0.1,0.1,0.1,0.1,0.2c0,0,0,0.1,0.1,0.1l0,0c0.3,0.3,0.7,0.6,0.9,0.6
				c0,0,0.6,0,1-0.2c0.8-0.6,0.3-1.7,0.3-1.8C228.9,112.9,227.2,112.4,227.2,112.4z"/>
		</g>
		<g>
			<path fill="#A64343" d="M229.8,108.4c-0.1-0.1-0.3-0.2-0.4-0.1l-6.8,3.2c-3.6,1.4-6.9,2.3-9.7,2.9c-2,0.4-5.3,0.8-5.4,0.8
				c0,0-1.6,0.1-2,0.1c-1.2,0-3.4-0.2-3.4-0.2c-1-0.1-1.9-0.3-2.4-0.6c-0.1,0-0.2,0-0.3,0.1c-2.1-0.9-2.6-1.9-2.6-1.9
				c0.9,0.2,2,0.4,3,0.6l0,0c0,0,0.1,0,0.2,0c2.4,0.2,4.8,0.2,5.3,0.2c2.1-0.1,4.2-0.4,5.6-1.4c0,0,0,0,0.1-0.1
				c0.1-0.1,0.4-0.4,0.9-1l0,0v-0.1l0,0c0.3-0.6,0.7-0.9,0.9-1.2c0.3-0.2,1-0.7,1.7-0.6c0.1,0,0.3,0,0.4,0.1c0,0,0,0,0.1,0
				c0.3,0.1,0.9,0.1,1.3-0.3l0,0l0,0l0,0c0.6-0.4,0.9-1.3,1.1-2.3l0,0c0-0.1,0-0.1,0-0.2c0.1-0.4,0.1-0.9,0.1-1.4
				c0.2-2.7,0-4.6-0.2-5.8l0,0V99l0,0c-0.1-0.3-0.1-0.7-0.2-0.9c-0.1-0.3-0.1-0.4-0.1-0.4l0,0c-0.1-0.2-0.2-0.4-0.3-0.7l0,0l0,0l0,0
				c-0.6-0.9-1.2-1.2-1.8-1.2l0,0c0,0-0.2,0-0.7,0.1l0,0H214c-0.1,0-0.2,0.1-0.2,0.1l0,0l0,0l0,0l0,0c0,0-0.1,0-0.1,0.1
				c-0.1,0-0.1,0.1-0.2,0.1c-0.2,0.1-0.4,0.3-0.8,0.7l0,0c0,0-0.8,0.8-1.2,1.1c0,0-0.1,0-0.1,0.1c0,0,0,0-0.1,0
				c-0.7,0.3-1.3,0.6-1.7,0.6c-1.9,0.2-5.3,0.3-9.1-0.9c0,0-1.4-0.3-4.1-1.4c0,0-7.2-2.9-11.1-2c0,0-2.4,0.6-5.4,0.8h-0.1h-0.1
				c-0.4,0-0.8,0-1.2,0l0,0c-1.1,0-2.1-0.2-3-0.6c-1.3-0.4-3.1-1.4-3.1-1.4l0,0c-1.4-0.8-3.8-1.7-7.1-2l0,0c-1.7-0.1-2.6-0.4-3-0.6
				c-0.4-0.2-0.9-0.4-1.3-0.7c-0.4-0.2-0.8-0.3-1-0.1l0,0l0,0l0,0c0,0-0.1,0.1-0.1,0.2l0,0l0,0l0,0l0,0c-0.1,0.2-0.2,0.8-0.1,1.7
				l0,0c0,0,0,7,4.4,10l0.1,0.1c0,0,0,0,0.1,0.1l0,0c1.1,0.7,2.4,1.2,4.1,1.2h0.1c-1.8,1.4-7.1,4-21.9,2.6c-1.3-0.1-2.7-0.3-3.9-0.4
				c-6.7-1.1-14.9-3-14.9-3l0,0c-7.3-2-12.8-1.4-16.9-0.1l0,0c0,0-4.6,1.3-8,4.9l0,0l0,0l-0.1,0.1c-0.6,0.6-1.1,1.1-1.7,1.7
				c-0.1,0.1-0.2,0.2-0.3,0.3c-0.1,0.1-0.2,0.2-0.3,0.2c-0.3,0.3-0.8,0.6-1.1,0.8l0,0c-0.4,0.3-0.9,0.6-1.3,0.8c0.1-1,0-1.7,0-1.7
				c-0.1-1.1-0.6-2-1-2.6l0,0l-0.1-0.1c-0.2-0.3-0.6-0.6-0.8-0.8l0,0c-0.1-0.1-0.1-0.1-0.2-0.1c-2-1.4-4.1-0.9-4.1-0.9l0,0
				c-0.7,0.1-1.7,0.6-2.3,1.6c-0.2,0.2-0.3,0.4-0.4,0.7l0,0l0,0c-0.2,0.4-0.3,0.7-0.3,0.7l0,0c-0.1,0.3-0.2,0.8-0.1,1.3l0,0l0,0
				c0,0.2,0,1.1,0.7,2.1l0.1,0.1c0.1,0.1,0.2,0.3,0.3,0.4l0.1,0.1c0.1,0.1,0.2,0.3,0.4,0.4c0.1,0.1,0.3,0.2,0.4,0.4l0,0
				c0,0,0.1,0,0.2,0.1l0,0l0,0c0.4,0.3,1.8,1,3.7,1.1c-0.7,1.1-3,2.3-6,2.4v0.6c4.8,0.7,7-1.3,7.9-2.4l0.1-0.1c0,0,0,0,0-0.1
				c0.1-0.2,0.2-0.4,0.3-0.6c0.2-0.1,0.4-0.1,0.6-0.2c0,0,0,0,0.1,0c0.3-0.1,0.6-0.3,0.6-0.3s-0.8,1.6-1.3,3.9c0,0.1,0,0.1-0.1,0.2
				c-0.3,1-0.4,2.1-0.6,3.3c0,0,0,0,0,0.1l0,0c0,0.1,0,0.2,0,0.3c-0.3,3.2,0.1,7.2,2.1,11l0,0c0,0,1.9,3.1,1.9,6.1
				c0,0.2,0,0.4-0.1,0.8c-0.2,0.8-0.7,1.7-1.7,2.7l-0.3,0.3c-1.6,1.3-2.2,2.4-2.4,3.1c-0.1,0.2-0.1,0.4-0.2,0.7
				c-0.1,0.4-0.3,1.9,0.1,4.3c0,0.2,0.1,0.3,0.1,0.7l0,0l0,0c0.3,1.7,0.6,4.8-0.3,8.5c0,0,0,0,0,0.1c-0.1,0.6-1.4,4.2-1.4,4.2l0,0
				c-1.1,2.9-2.8,4.9-2.8,4.9c0.4,1.2,0.6,1.6,0.6,1.6s2.4-2.3,2.9-3.9c0,0,0.2,2.9-2.7,4.9c0,0,0,0,0,0.1l0,0
				c-0.1,0.4-0.7,2.1-0.6,4.3c0,0.4,0,0.9,0.1,1.2c0.1,0.8,0.3,1.6,0.7,2.3h0.7c0,0-0.1-3.3,3.8-4.8l0,0c2.8-0.9,3.8-3.9,4-5.6l0,0
				l0,0c0-0.2,0.1-0.6,0.1-0.7l0,0c0-0.1,0-0.1,0-0.1c0.1-0.7,0.2-1.4,0.3-1.7c0-0.2,0.1-0.3,0.2-0.6c0.1-0.2,0.2-0.4,0.3-0.7
				c0.3-0.6,0.8-1.3,1.1-1.9l1.1-1.6c0.1-0.1,0.1-0.2,0.2-0.2l0.1-0.1l0,0c2.7-4.3,1.9-8.9,1.9-8.9s4.9-2.6,7.5-4.9l0.1-0.1
				c0.3-0.2,0.6-0.6,0.8-0.8l0,0c0.2-0.3,0.6-0.6,0.8-0.9l0.1-0.1l0,0l0,0c1.9-2.2,3.3-4.8,3.9-8c0-0.2,0.1-0.6,0.1-0.9
				c0-1-0.1-2.1-0.6-3.3c0,0,2.3,2.6,2.4,5.1c3.7,2.1,12.9,5.8,28.9,2.2c0,0-0.3-3.9,4-6.2c0,0-1.1,1.3-1.8,3.3
				c-0.1,0.2-0.1,0.4-0.2,0.8l0,0c-0.1,0.7-0.2,1.2-0.2,1.9c0,0.3,0,0.7,0,1.1v0.1c0.1,1,0.3,2,0.9,3.1l0,0c0.1,0.2,0.2,0.6,0.2,0.8
				l0,0l0.1,0.2c0.1,0.3,0.2,0.7,0.3,1l1,2.7l0,0c0,0,0.3,1.1,0.3,2.2c-0.1,1.2-0.6,2.6-1.8,3.8l0,0c-0.2,0.1-0.3,0.3-0.6,0.4
				c-0.6,0.6-1.1,1.1-1.8,1.9c-0.1,0.1-0.1,0.1-0.2,0.2l0,0c-3,3.7-3.8,6.9-3.8,6.9l0.6,1c0,0,1.6-3.3,3.7-3.9c0,0-1.8,1.8-2.8,5
				c-0.3,1.1-0.7,3.6,0,6.6h0.2l0,0h0.9c0.3-1.6,1.7-3.2,2.9-4.4c0.7-0.6,1.7-1.2,1.7-1.2l0,0c3.1-2,4-4.6,4-4.6l0,0
				c0.1-0.2,0.2-0.4,0.2-0.7l0,0l0,0c0.1-0.2,0.1-0.3,0.1-0.4l0.6-1.8c0.2-0.6,0.6-1.6,0.9-2.4c0.2-0.4,0.4-0.8,0.7-1.2l0,0
				c0.4-0.9,1.1-1.9,1.8-2.8c0,0,0,0,0.1-0.1c0.1-0.1,0.1-0.2,0.2-0.3c0.6-0.7,1.4-1.7,1.4-1.7l0,0c1.6-1.9,1.6-3.8,1.6-3.8
				c-0.1-1.9,0.2-3.8,0.2-3.9c0.4-2.1,1.6-4.9,4.4-7c0,0,1.2-1,2.8-1.8c0.6-0.2,1.9-0.9,3.4-1.2c0.3-0.1,0.8-0.1,1.1-0.2
				c0,0,0,0,0.1,0l0,0c7.3-1.6,11.8-4.8,14.1-7l0,0l0,0c0.2-0.2,0.4-0.4,0.7-0.7c0,0,0,0,0.1-0.1l0,0l0,0c2.2-2.1,4.6-3.9,6.3-5
				c0.3-0.2,2.4-1.6,5-2.6c0.1,0,0.3-0.1,0.4-0.2c0,0,0.2-0.1,0.4-0.2l0,0l0,0c0.7-0.3,2-0.9,2.7-1.8c1,0,2.7-0.1,5.4-0.7l0.4-0.1
				h0.1h0.3c3.8-0.7,7.2-1.8,10.9-3.6l0,0c1.2-0.6,5.6-2.8,5.8-2.9c0.1,0,0.2-0.1,0.2-0.2c0-0.1,0-0.2,0-0.3L229.8,108.4z
				 M96.1,111.5c-1.8,0.2-3-0.4-3.6-1c0,0,0,0-0.1-0.1c-0.2-0.2-0.3-0.3-0.3-0.3l0,0l0,0l0,0c-0.1-0.2-0.2-0.4-0.3-0.6
				c-0.1-0.1-0.1-0.2-0.1-0.3c0-0.1-0.1-0.2-0.1-0.2c-0.2-0.7,0-1.1,0.2-1.4c0.1-0.2,0.4-0.6,1-0.7c0.1,0,0.1,0,0.2,0s0.1,0,0.2,0
				c0.3,0,0.7,0.1,1,0.3c0,0,0.8,0.4,1.4,1.3c0.2,0.3,0.6,1,0.7,2C96.2,110.8,96.2,111.2,96.1,111.5z"/>
		</g>
		<g>
			<path fill="#A64343" d="M234.1,104.9c-0.1,0-0.2-0.1-0.3-0.1l0,0l0,0l0,0l0,0c-0.2,0-1.4,0-2.1,2.2c-0.1,0.3-0.2,0.6-0.2,0.8l0,0
				l0,0c0,0.1,0,0.2,0,0.2c0.2,0,0.3,0,0.7,0c1.9,0,2.7-0.7,2.9-1.2c0,0,0,0,0-0.1c0.1-0.3,0.1-0.6,0.1-0.6
				C235.1,105.5,234.6,105,234.1,104.9z"/>
		</g>
	</g>
	<g>
		<g>
			<path fill="#A64343" d="M275.8,203.5c-0.6-0.2-1.3-0.5-2-0.7l0,0l0,0c-0.9-0.3-2-0.7-3.2-1.1l0,0c-0.3-0.1-0.7-0.2-1-0.3l0,0
				c-1.6-0.5-3.4-1.1-5.3-1.7l0,0c-0.1,0-0.3-0.1-0.4-0.1l0,0c-0.1,0-0.1,0-0.2,0c-10.7-3.4-27.9-8.8-39.8-11.8l0,0
				c-42.4-11.1-67.4-5.5-67.4-5.5l0,0c-10.8,1.8-16.1,4.7-17.3,5.6c0,0-12.5-4.9-40.5-2.4c-5.9,0.5-11.6,1.3-17,2.3
				c-0.5,0.1-1.1,0.2-1.6,0.3l0,0c-0.4,0.1-0.9,0.2-1.3,0.2l-0.2,0.1c-1.4,0.3-2.8,0.5-4.1,0.8l0,0c-1.2,0.2-2.4,0.5-3.4,0.7
				c-13.4,2.9-28.9,7.1-46.7,13.4c-1.5,0.5-2.4,1.9-2.4,3.4c0,2,1.6,3.6,3.6,3.6h77.7h5.2h5h5.2l155.9-0.1c1.9,0,3.4-1.5,3.4-3.4
				C277.9,205.3,277.1,204.1,275.8,203.5z M161.7,187.9c0,0,7.3-4.2,12.5-4.2c0,0-3.3,0.1-9.7,5.4l0,0c-2.2,1.8-4.5,3.8-6.2,5.9
				c-1.3-0.7-2.7-1.3-3.9-1.9c0.7-0.6,1.4-1.2,2.2-1.8C157.8,190.5,159.6,189.2,161.7,187.9C161.6,187.9,161.6,187.9,161.7,187.9
				C161.6,187.9,161.6,187.9,161.7,187.9z M160.1,184.8c-5.5,2.5-9.2,5.1-10.6,6.3c-1.2-0.5-2.4-0.9-3.4-1.2
				C149.9,187.2,156.4,185.5,160.1,184.8z M45.2,205.3c-0.3-1.4-1.3-4.3-1.8-5.4c0.2-0.1,3.6,2.3,4.6,5.4H45.2z M39.3,205.3
				c0-1.1-0.4-3-0.8-4.1c0.4,0.2,2.1,1.8,3.4,4.1H39.3z M34.6,205.3c-0.2-1.4-0.2-2-0.5-3.2c0.4,0.2,1.6,1.3,2.6,3.2H34.6z
				 M51.7,205.3c-0.8-3-1.8-4.9-2.7-6.7c1.1,0.6,4.9,2.9,5.9,6.7H51.7z M58.2,205.3c-0.3-2-1.7-5.6-3.2-8c0.8,0.3,5.5,3.4,6.5,8
				H58.2z M68.3,205.3H65c-0.5-2.7-1.5-6.1-3.6-9.2C61.3,196.1,66.6,198.7,68.3,205.3z M72.1,205.3c-1.8-5.4-2.4-5.4-5.1-10.7
				c0.1,0,6.6,3.8,8.9,10.7H72.1z M79.7,205.3c-0.9-3.4-3.2-7.4-6.8-12c5.4,2.3,8.9,7.4,10.8,12H79.7z M87.9,205.3
				c-1.1-3.4-4.2-8.3-8.4-13.1c4.4,2,9.2,4.6,13.3,13.1H87.9z M97.1,205.3c-1.2-3.5-6.6-10.6-11.7-14.8c5.4,1.1,13,6.4,16.9,14.8
				H97.1z M107,205.3c-1.5-4-7-11.9-13.3-16c3.8,1.3,13.3,4.6,18.4,16H107z M117.4,205.3c-1.6-4.4-6.9-12.5-16.5-17.3
				c3.4,0.9,16.9,3.7,21.8,17.3H117.4z M127.2,205.3c-3.4-9.3-14.1-16.9-16.1-17.7c0,0,14.8,2.7,22,17.7H127.2z M141.8,205.3h-4
				c0,0-5.6-12.8-14.8-16.3c0,0,13.9,1.1,20.5,16.3H141.8z M148.4,205.3c0,0-3.4-8.8-13.3-15c0,0,14.8,4.3,19.1,15H148.4z
				 M159.6,205.3c-4.5-6.3-7.7-8.7-9.5-9.7c3.1,0.9,13.1,6.5,16.6,9.7H159.6z M166.7,199.8c-1.1-0.7-2.2-1.4-3.4-2
				c0.3-0.4,0.6-0.8,0.9-1.2l0,0c0,0,0.4-0.5,1-1.3c1.6-1.9,3.2-3.4,4.8-4.5c3.4-2.6,8.8-5.5,15.1-6.8c0,0-3.2,0.7-7.7,3.8
				c-0.2,0.1-0.4,0.3-0.6,0.5c-0.3,0.2-0.7,0.5-1,0.8C170,193.8,167.1,198.6,166.7,199.8C166.7,199.6,166.7,199.7,166.7,199.8z
				 M174.3,205.2c-1-0.8-2.1-1.6-3.1-2.3c0,0,0.4-0.8,1.2-2.1c2.8-4.3,10.2-14,22.8-15.6c-14.5,7-19.1,19.9-19.1,19.9L174.3,205.2z
				 M181.8,205.2c7.2-14.2,15.3-17,22.9-18.6c-10.5,3.8-16.5,14.6-18.1,18.6H181.8z M192.3,205.2c3.8-9.7,13.2-15,20-16.5
				c-9.2,5.5-13.5,13.1-14.7,16.5H192.3z M202.7,205.2c3.6-7.3,10.2-13.4,17-14.5c-6.8,4.1-10.9,11.9-11.7,14.5H202.7z M217.7,205.3
				h-4.8c2.9-6.2,7.9-11.3,14.4-12.6c-6,4-8.7,9.9-9.5,12.4C217.7,205.2,217.7,205.3,217.7,205.3z M221.8,205.2L221.8,205.2
				L221.8,205.2L221.8,205.2z M226.5,204.3c0,0.2-0.1,0.5-0.1,0.7c0,0.2,0,0.2,0,0.2h-4.4c2.4-5.2,5.3-8,7.4-9.5
				c0.9-0.6,1.9-1.2,3-1.6c0,0-4.3,3.9-5.7,9.6C226.6,204,226.5,204.1,226.5,204.3z M230.1,205.2c3-9,8.5-9.7,8.5-9.7
				c-4.1,4.3-4.3,7.8-4.9,9.8L230.1,205.2z M241.1,205.2h-3.4c2-6.3,6.8-8.5,6.8-8.5C242.6,199.7,241.6,202.5,241.1,205.2z
				 M247.8,205.2h-2.7c1.9-5.9,4.9-6.8,4.9-6.8S248,202.2,247.8,205.2z M254.3,205.1C254.3,205.1,254.2,205.2,254.3,205.1l-2.4,0.1
				c0.7-4.4,3.4-5.7,3.4-5.7S254.2,202.6,254.3,205.1z M257.3,205.2c0.4-3.2,2.3-4.5,2.3-4.5s-0.2,2.7,0.2,4.5H257.3z M262.4,205.2
				c0.1-2.7,1.6-3.6,1.6-3.6s-0.3,2,0.5,3.7L262.4,205.2z"/>
		</g>
	</g>
</g>
</svg>
