<?xml version="1.0" encoding="utf-8"?>
<!-- Generator: Adobe Illustrator 18.0.0, SVG Export Plug-In . SVG Version: 6.00 Build 0)  -->
<!DOCTYPE svg PUBLIC "-//W3C//DTD SVG 1.1//EN" "http://www.w3.org/Graphics/SVG/1.1/DTD/svg11.dtd">
<svg version="1.1" id="Layer_1" xmlns="http://www.w3.org/2000/svg" xmlns:xlink="http://www.w3.org/1999/xlink" x="0px" y="0px"
	 viewBox="90 0 612 612" enable-background="new 90 0 612 612" xml:space="preserve">
<rect x="90" fill="#E57367" width="612" height="612"/>
<circle fill="#E57367" cx="1101" cy="306" r="162"/>
<circle fill="none" stroke="#E57367" stroke-miterlimit="10" cx="1101" cy="306" r="171.8"/>
<g opacity="0.91" enable-background="new    ">
	<g>
		<defs>
			<path id="SVGID_1_" d="M764.3,351.7c15.6,161-13.2,343.6-281.6,326.8c-164,15.8-307.6-114.3-319-275.9
				C152.3,240.9,276,101.1,440.4,89.5S745.3,159.9,764.3,351.7z"/>
		</defs>
		<clipPath id="SVGID_2_">
			<use xlink:href="#SVGID_1_"  overflow="visible"/>
		</clipPath>
		<g opacity="0.55" clip-path="url(#SVGID_2_)">
			<polygon fill="#CF6560" points="308.5,463.8 606.6,671.1 717.9,631.2 772.1,400.3 476.9,177.5 			"/>
		</g>
	</g>
</g>
<path fill="#E57367" d="M986.5,418.2c0,0-0.2,25.1-35.9,44.5c-3.3,1.8-2.4,6.7,1.2,7.3c19.8,3.1,62.2,5.1,102.4-20.4
	C1054.5,449.6,1058.1,390,986.5,418.2z"/>
<path fill="#EAEAE8" d="M470.9,173.1L470.9,173.1c24.7,13.6,33.6,44.9,19.9,69.3L378.2,445.6c-13.6,24.7-44.9,33.6-69.3,19.9l0,0
	c-24.7-13.6-33.6-44.9-19.9-69.3L401.6,193C415.2,168.3,446.2,159.5,470.9,173.1z"/>
<path fill="#ADDDE2" d="M470.9,173.1L470.9,173.1c-24.7-13.6-55.7-4.8-69.3,19.9l-56.8,102.7l89.8,48.4l56.3-101.8
	C504.5,218,495.6,186.7,470.9,173.1z"/>
<path opacity="0.3" fill="#FFFFFF" enable-background="new    " d="M306.4,464.5l164.5-291.1c0,0-0.3,0-0.3-0.3l0,0
	c-24.7-13.6-55.7-4.8-69.3,19.9L288.7,396.3C275.3,420.4,283.5,450.2,306.4,464.5z"/>
<path opacity="0.5" fill="#FFFFFF" enable-background="new    " d="M388.6,319.4l-82.1,145.1c-23-14.3-31.1-44.1-17.8-68.2
	l55.8-100.5L388.6,319.4z"/>
<line fill="none" x1="1165" y1="210.9" x2="1165" y2="210.9"/>
</svg>
