<?xml version="1.0" encoding="utf-8"?>
<!-- Generator: Adobe Illustrator 18.0.0, SVG Export Plug-In . SVG Version: 6.00 Build 0)  -->
<!DOCTYPE svg PUBLIC "-//W3C//DTD SVG 1.1//EN" "http://www.w3.org/Graphics/SVG/1.1/DTD/svg11.dtd">
<svg version="1.1" id="Layer_1" xmlns="http://www.w3.org/2000/svg" xmlns:xlink="http://www.w3.org/1999/xlink" x="0px" y="0px"
	 viewBox="0 0 576 576" enable-background="new 0 0 576 576" xml:space="preserve">
<rect fill="#E57367" width="576" height="576"/>
<g opacity="0.91" enable-background="new    ">
	<g>
		<g>
			<defs>
				<path id="SVGID_1_" d="M606.9,327.1c13.4,138.2,69.6,336.9-241.8,280.6c-140.8,13.6-264.1-98.1-273.9-236.9
					C81.5,232,187.7,112,328.9,102S590.6,162.5,606.9,327.1z"/>
			</defs>
			<clipPath id="SVGID_2_">
				<use xlink:href="#SVGID_1_"  overflow="visible"/>
			</clipPath>
			<g opacity="0.55" clip-path="url(#SVGID_2_)">
				<polygon fill="#CF6560" points="215.6,423.4 471.5,601.3 590.5,591 613.6,368.9 360.2,177.6 				"/>
			</g>
		</g>
	</g>
</g>
<path fill="#EAEAE8" d="M355,173.8L355,173.8c21.2,11.7,28.8,38.5,17.1,59.5l-96.7,174.4c-11.7,21.2-38.5,28.8-59.5,17.1l0,0
	c-21.2-11.7-28.8-38.5-17.1-59.5l96.7-174.4C307.2,169.7,333.8,162.1,355,173.8z"/>
<path fill="#ADDDE2" d="M355,173.8L355,173.8c-21.2-11.7-47.8-4.1-59.5,17.1l-48.8,88.2l77.1,41.6l48.3-87.4
	C383.9,212.4,376.2,185.5,355,173.8z"/>
<path opacity="0.3" fill="#FFFFFF" enable-background="new    " d="M213.8,424L355,174.1c0,0-0.3,0-0.3-0.3l0,0
	c-21.2-11.7-47.8-4.1-59.5,17.1l-96.7,174.5C187.1,386.1,194.2,411.7,213.8,424z"/>
<path opacity="0.5" fill="#FFFFFF" enable-background="new    " d="M284.4,299.4L213.9,424c-19.7-12.3-26.7-37.9-15.3-58.5
	l47.9-86.3L284.4,299.4z"/>
<line fill="none" x1="1101.8" y1="198.5" x2="1101.8" y2="198.5"/>
</svg>
