<?xml version="1.0" encoding="utf-8"?>
<!-- Generator: Adobe Illustrator 18.0.0, SVG Export Plug-In . SVG Version: 6.00 Build 0)  -->
<!DOCTYPE svg PUBLIC "-//W3C//DTD SVG 1.1//EN" "http://www.w3.org/Graphics/SVG/1.1/DTD/svg11.dtd">
<svg version="1.1" id="Layer_1" xmlns="http://www.w3.org/2000/svg" xmlns:xlink="http://www.w3.org/1999/xlink" x="0px" y="0px"
	 viewBox="0 0 300 300" enable-background="new 0 0 300 300" xml:space="preserve">
<rect fill="#F3F3F3" width="300" height="300"/>
<g>
	<circle fill="#E57367" cx="150" cy="150" r="79.4"/>
	<circle fill="none" stroke="#E57367" stroke-miterlimit="10" cx="150" cy="150" r="84.2"/>
	<g opacity="0.91">
		<defs>
			<path id="SVGID_1_" opacity="0.91" d="M229.4,149.3c1.1,42.3-32.2,78.9-78.4,80.1c-42.5,1.1-77.1-35.5-77.1-77.9
				s34.4-76.6,76.9-76.6S228,98.9,229.4,149.3z"/>
		</defs>
		<clipPath id="SVGID_2_">
			<use xlink:href="#SVGID_1_"  overflow="visible"/>
		</clipPath>
		<g opacity="0.55" clip-path="url(#SVGID_2_)">
			<polygon fill="#CF6560" points="120.6,196.2 169,236.3 217.7,226.4 235.4,155.9 183.3,105 			"/>
		</g>
	</g>
	<path fill="#E57367" d="M93.9,205c0,0-0.1,12.3-17.6,21.8c-1.6,0.9-1.2,3.3,0.6,3.6c9.7,1.5,30.5,2.5,50.2-10
		C127.2,220.4,129,191.2,93.9,205z"/>
	<path fill="#EAEAE8" d="M181.4,103.4L181.4,103.4c7.9,5.1,10.1,15.7,5,23.5l-42.2,64.9c-5.1,7.9-15.7,10.1-23.5,5l0,0
		c-7.9-5.1-10.1-15.7-5-23.5l42.2-64.9C163,100.5,173.5,98.3,181.4,103.4z"/>
	<path fill="#ADDDE2" d="M181.4,103.4L181.4,103.4c-7.9-5.1-18.4-2.9-23.5,5l-21.3,32.8l28.7,18.2l21.1-32.5
		C191.5,119.1,189.3,108.5,181.4,103.4z"/>
	<path opacity="0.3" fill="#FFFFFF" d="M119.9,196.4l61.5-92.9c0,0-0.1,0-0.1-0.1h0c-7.9-5.1-18.4-2.9-23.5,5l-42.2,64.9
		C110.6,181,112.6,191.1,119.9,196.4z"/>
	<path opacity="0.5" fill="#FFFFFF" d="M150.6,150.1l-30.7,46.3c-7.3-5.3-9.3-15.4-4.3-23.1l20.9-32.1L150.6,150.1z"/>
	<line opacity="0.3" fill="#F4F4F4" x1="181.4" y1="103.4" x2="181.4" y2="103.4"/>
</g>
</svg>
